<svg xmlns="http://www.w3.org/2000/svg" width="1453" height="1200" xmlns:xlink="http://www.w3.org/1999/xlink"><defs><marker orient="auto" overflow="visible"><path fill-rule="evenodd" stroke="#000" stroke-width=".8pt" d="M-4.62 0L2.3-4v8l-6.92-4z"/></marker><marker id="o" orient="auto" overflow="visible"><path fill="#c00000" fill-rule="evenodd" stroke="#c00000" stroke-width=".8pt" d="M-4.62 0L2.3-4v8l-6.92-4z"/></marker><marker orient="auto" overflow="visible"><path fill-rule="evenodd" stroke="#000" stroke-width=".6875" d="M10.7 4.44L-1.34.02 10.7-4.4c-1.93 2.6-1.92 6.18 0 8.84z" stroke-linejoin="round"/></marker><marker id="h" orient="auto" overflow="visible"><path fill-rule="evenodd" stroke="#000" stroke-width=".4pt" d="M2.3 0l-3.45 2v-4L2.3 0z"/></marker><marker id="d" orient="auto" overflow="visible"><path fill-rule="evenodd" stroke="#000" stroke-width=".4pt" d="M2.3 0l-3.45 2v-4L2.3 0z"/></marker><marker id="c" orient="auto" overflow="visible"><path fill-rule="evenodd" stroke="#000" stroke-width=".4pt" d="M2.3 0l-3.45 2v-4L2.3 0z"/></marker><marker orient="auto" overflow="visible"><path fill-rule="evenodd" stroke="#000" stroke-width=".8pt" d="M4.62 0L-2.3 4v-8l6.92 4z"/></marker><marker orient="auto" overflow="visible"><path fill-rule="evenodd" stroke="#000" stroke-width=".375" d="M-5.23-2.42l6.55 2.4-6.55 2.42c1.05-1.42 1.04-3.37 0-4.82z" stroke-linejoin="round"/></marker><marker orient="auto" overflow="visible"><path fill-rule="evenodd" stroke="#000" stroke-width=".4pt" d="M2.3 0l-3.45 2v-4L2.3 0z"/></marker><marker orient="auto" overflow="visible"><path fill-rule="evenodd" stroke="#000" stroke-width=".8pt" d="M4.62 0L-2.3 4v-8l6.92 4z"/></marker><marker orient="auto" overflow="visible"><path fill-rule="evenodd" stroke="#000" stroke-width=".6875" d="M10.7 4.44L-1.34.02 10.7-4.4c-1.93 2.6-1.92 6.18 0 8.84z" stroke-linejoin="round"/></marker><marker orient="auto" overflow="visible"><path fill-rule="evenodd" stroke="#000" stroke-width=".6875" d="M-10.7-4.44L1.34-.02-10.7 4.4c1.93-2.6 1.92-6.18 0-8.84z" stroke-linejoin="round"/></marker><linearGradient><stop offset="0" stop-color="#4c4c4c"/><stop offset="1" stop-color="#656565"/></linearGradient><linearGradient><stop offset="0" stop-color="#4c4c4c"/><stop offset="1" stop-color="#656565"/></linearGradient><linearGradient><stop offset="0" stop-color="#4c4c4c"/><stop offset="1" stop-color="#656565"/></linearGradient><linearGradient><stop offset="0" stop-color="#4c4c4c"/><stop offset="1" stop-color="#656565"/></linearGradient><linearGradient><stop offset="0" stop-color="#4c4c4c"/><stop offset="1" stop-color="#656565"/></linearGradient><linearGradient><stop offset="0" stop-color="#4c4c4c"/><stop offset="1" stop-color="#656565"/></linearGradient><linearGradient><stop offset="0" stop-color="#4c4c4c"/><stop offset="1" stop-color="#656565"/></linearGradient><linearGradient><stop offset="0" stop-color="#4c4c4c"/><stop offset="1" stop-color="#656565"/></linearGradient><linearGradient><stop offset="0" stop-color="#4c4c4c"/><stop offset="1" stop-color="#656565"/></linearGradient><linearGradient><stop offset="0" stop-color="#4c4c4c"/><stop offset="1" stop-color="#656565"/></linearGradient><linearGradient><stop offset="0" stop-color="#4c4c4c"/><stop offset="1" stop-color="#656565"/></linearGradient><linearGradient><stop offset="0" stop-color="#4c4c4c"/><stop offset="1" stop-color="#656565"/></linearGradient><linearGradient><stop offset="0" stop-color="#4c4c4c"/><stop offset="1" stop-color="#656565"/></linearGradient><linearGradient><stop offset="0" stop-color="#4c4c4c"/><stop offset="1" stop-color="#656565"/></linearGradient><linearGradient><stop offset="0" stop-color="#4c4c4c"/><stop offset="1" stop-color="#656565"/></linearGradient><linearGradient><stop offset="0" stop-color="#4c4c4c"/><stop offset="1" stop-color="#656565"/></linearGradient><linearGradient><stop offset="0" stop-color="#4c4c4c"/><stop offset="1" stop-color="#656565"/></linearGradient><linearGradient><stop offset="0" stop-color="#4c4c4c"/><stop offset="1" stop-color="#656565"/></linearGradient><linearGradient><stop offset="0" stop-color="#4c4c4c"/><stop offset="1" stop-color="#656565"/></linearGradient><linearGradient><stop offset="0" stop-color="#4c4c4c"/><stop offset="1" stop-color="#656565"/></linearGradient><linearGradient><stop offset="0" stop-color="#4c4c4c"/><stop offset="1" stop-color="#656565"/></linearGradient><linearGradient><stop offset="0" stop-color="#4c4c4c"/><stop offset="1" stop-color="#656565"/></linearGradient><linearGradient><stop offset="0" stop-color="#4c4c4c"/><stop offset="1" stop-color="#656565"/></linearGradient><linearGradient><stop offset="0" stop-color="#4c4c4c"/><stop offset="1" stop-color="#656565"/></linearGradient><linearGradient><stop offset="0" stop-color="#4c4c4c"/><stop offset="1" stop-color="#656565"/></linearGradient><linearGradient><stop offset="0" stop-color="#4c4c4c"/><stop offset="1" stop-color="#656565"/></linearGradient><linearGradient><stop offset="0" stop-color="#4c4c4c"/><stop offset="1" stop-color="#656565"/></linearGradient><linearGradient><stop offset="0" stop-color="#4c4c4c"/><stop offset="1" stop-color="#656565"/></linearGradient><linearGradient><stop offset="0" stop-color="#4c4c4c"/><stop offset="1" stop-color="#656565"/></linearGradient><linearGradient><stop offset="0" stop-color="#4c4c4c"/><stop offset="1" stop-color="#656565"/></linearGradient><linearGradient><stop offset="0" stop-color="#4c4c4c"/><stop offset="1" stop-color="#656565"/></linearGradient><linearGradient><stop offset="0" stop-color="#4c4c4c"/><stop offset="1" stop-color="#656565"/></linearGradient><linearGradient><stop offset="0" stop-color="#4c4c4c"/><stop offset="1" stop-color="#656565"/></linearGradient><linearGradient><stop offset="0" stop-color="#4c4c4c"/><stop offset="1" stop-color="#656565"/></linearGradient><linearGradient><stop offset="0" stop-color="#4c4c4c"/><stop offset="1" stop-color="#656565"/></linearGradient><linearGradient><stop offset="0" stop-color="#4c4c4c"/><stop offset="1" stop-color="#656565"/></linearGradient><linearGradient><stop offset="0" stop-color="#4c4c4c"/><stop offset="1" stop-color="#656565"/></linearGradient><linearGradient><stop offset="0" stop-color="#4c4c4c"/><stop offset="1" stop-color="#656565"/></linearGradient><linearGradient><stop offset="0" stop-color="#4c4c4c"/><stop offset="1" stop-color="#656565"/></linearGradient><linearGradient><stop offset="0" stop-color="#4c4c4c"/><stop offset="1" stop-color="#656565"/></linearGradient><linearGradient><stop offset="0" stop-color="#4c4c4c"/><stop offset="1" stop-color="#656565"/></linearGradient><linearGradient><stop offset="0" stop-color="#4c4c4c"/><stop offset="1" stop-color="#656565"/></linearGradient><linearGradient><stop offset="0" stop-color="#4c4c4c"/><stop offset="1" stop-color="#656565"/></linearGradient><linearGradient><stop offset="0" stop-color="#4c4c4c"/><stop offset="1" stop-color="#656565"/></linearGradient><linearGradient><stop offset="0" stop-color="#4c4c4c"/><stop offset="1" stop-color="#656565"/></linearGradient><linearGradient><stop offset="0" stop-color="#4c4c4c"/><stop offset="1" stop-color="#656565"/></linearGradient><linearGradient><stop offset="0" stop-color="#4c4c4c"/><stop offset="1" stop-color="#656565"/></linearGradient><linearGradient><stop offset="0" stop-color="#4c4c4c"/><stop offset="1" stop-color="#656565"/></linearGradient><linearGradient><stop offset="0" stop-color="#4c4c4c"/><stop offset="1" stop-color="#656565"/></linearGradient><linearGradient><stop offset="0" stop-color="#4c4c4c"/><stop offset="1" stop-color="#656565"/></linearGradient><linearGradient><stop offset="0" stop-color="#4c4c4c"/><stop offset="1" stop-color="#656565"/></linearGradient><linearGradient><stop offset="0" stop-color="#4c4c4c"/><stop offset="1" stop-color="#656565"/></linearGradient><linearGradient><stop offset="0" stop-color="#4c4c4c"/><stop offset="1" stop-color="#656565"/></linearGradient><linearGradient><stop offset="0" stop-color="#4c4c4c"/><stop offset="1" stop-color="#656565"/></linearGradient><linearGradient><stop offset="0" stop-color="#4c4c4c"/><stop offset="1" stop-color="#656565"/></linearGradient><linearGradient><stop offset="0" stop-color="#4c4c4c"/><stop offset="1" stop-color="#656565"/></linearGradient><linearGradient><stop offset="0" stop-color="#4c4c4c"/><stop offset="1" stop-color="#656565"/></linearGradient><linearGradient><stop offset="0" stop-color="#4c4c4c"/><stop offset="1" stop-color="#656565"/></linearGradient><linearGradient><stop offset="0" stop-color="#4c4c4c"/><stop offset="1" stop-color="#656565"/></linearGradient><linearGradient><stop offset="0" stop-color="#4c4c4c"/><stop offset="1" stop-color="#656565"/></linearGradient><linearGradient><stop offset="0" stop-color="#4c4c4c"/><stop offset="1" stop-color="#656565"/></linearGradient><linearGradient><stop offset="0" stop-color="#4c4c4c"/><stop offset="1" stop-color="#656565"/></linearGradient><linearGradient><stop offset="0" stop-color="#4c4c4c"/><stop offset="1" stop-color="#656565"/></linearGradient><linearGradient><stop offset="0" stop-color="#4c4c4c"/><stop offset="1" stop-color="#656565"/></linearGradient><linearGradient><stop offset="0" stop-color="#4c4c4c"/><stop offset="1" stop-color="#656565"/></linearGradient><linearGradient><stop offset="0" stop-color="#4c4c4c"/><stop offset="1" stop-color="#656565"/></linearGradient><linearGradient><stop offset="0" stop-color="#4c4c4c"/><stop offset="1" stop-color="#656565"/></linearGradient><linearGradient><stop offset="0" stop-color="#4c4c4c"/><stop offset="1" stop-color="#656565"/></linearGradient><linearGradient><stop offset="0" stop-color="#4c4c4c"/><stop offset="1" stop-color="#656565"/></linearGradient><linearGradient><stop offset="0" stop-color="#4c4c4c"/><stop offset="1" stop-color="#656565"/></linearGradient><linearGradient><stop offset="0" stop-color="#4c4c4c"/><stop offset="1" stop-color="#656565"/></linearGradient><linearGradient><stop offset="0" stop-color="#4c4c4c"/><stop offset="1" stop-color="#656565"/></linearGradient><linearGradient><stop offset="0" stop-color="#4c4c4c"/><stop offset="1" stop-color="#656565"/></linearGradient><linearGradient><stop offset="0" stop-color="#4c4c4c"/><stop offset="1" stop-color="#656565"/></linearGradient><linearGradient><stop offset="0" stop-color="#4c4c4c"/><stop offset="1" stop-color="#656565"/></linearGradient><linearGradient><stop offset="0" stop-color="#4c4c4c"/><stop offset="1" stop-color="#656565"/></linearGradient><linearGradient><stop offset="0" stop-color="#4c4c4c"/><stop offset="1" stop-color="#656565"/></linearGradient><linearGradient><stop offset="0" stop-color="#4c4c4c"/><stop offset="1" stop-color="#656565"/></linearGradient><linearGradient><stop offset="0" stop-color="#4c4c4c"/><stop offset="1" stop-color="#656565"/></linearGradient><linearGradient><stop offset="0" stop-color="#4c4c4c"/><stop offset="1" stop-color="#656565"/></linearGradient><linearGradient><stop offset="0" stop-color="#4c4c4c"/><stop offset="1" stop-color="#656565"/></linearGradient><linearGradient><stop offset="0" stop-color="#4c4c4c"/><stop offset="1" stop-color="#656565"/></linearGradient><linearGradient><stop offset="0" stop-color="#4c4c4c"/><stop offset="1" stop-color="#656565"/></linearGradient><linearGradient><stop offset="0" stop-color="#4c4c4c"/><stop offset="1" stop-color="#656565"/></linearGradient><linearGradient><stop offset="0" stop-color="#4c4c4c"/><stop offset="1" stop-color="#656565"/></linearGradient><linearGradient><stop offset="0" stop-color="#4c4c4c"/><stop offset="1" stop-color="#656565"/></linearGradient><linearGradient><stop offset="0" stop-color="#4c4c4c"/><stop offset="1" stop-color="#656565"/></linearGradient><linearGradient><stop offset="0" stop-color="#4c4c4c"/><stop offset="1" stop-color="#656565"/></linearGradient><linearGradient><stop offset="0" stop-color="#4c4c4c"/><stop offset="1" stop-color="#656565"/></linearGradient><linearGradient><stop offset="0" stop-color="#4c4c4c"/><stop offset="1" stop-color="#656565"/></linearGradient><linearGradient><stop offset="0" stop-color="#4c4c4c"/><stop offset="1" stop-color="#656565"/></linearGradient><linearGradient><stop offset="0" stop-color="#4c4c4c"/><stop offset="1" stop-color="#656565"/></linearGradient><linearGradient><stop offset="0" stop-color="#4c4c4c"/><stop offset="1" stop-color="#656565"/></linearGradient><linearGradient><stop offset="0" stop-color="#4c4c4c"/><stop offset="1" stop-color="#656565"/></linearGradient><linearGradient><stop offset="0" stop-color="#4c4c4c"/><stop offset="1" stop-color="#656565"/></linearGradient><linearGradient><stop offset="0" stop-color="#4c4c4c"/><stop offset="1" stop-color="#656565"/></linearGradient><linearGradient><stop offset="0" stop-color="#4c4c4c"/><stop offset="1" stop-color="#656565"/></linearGradient><linearGradient><stop offset="0" stop-color="#4c4c4c"/><stop offset="1" stop-color="#656565"/></linearGradient><linearGradient><stop offset="0" stop-color="#4c4c4c"/><stop offset="1" stop-color="#656565"/></linearGradient><linearGradient><stop offset="0" stop-color="#4c4c4c"/><stop offset="1" stop-color="#656565"/></linearGradient><linearGradient><stop offset="0" stop-color="#4c4c4c"/><stop offset="1" stop-color="#656565"/></linearGradient><linearGradient><stop offset="0" stop-color="#4c4c4c"/><stop offset="1" stop-color="#656565"/></linearGradient><linearGradient><stop offset="0" stop-color="#4c4c4c"/><stop offset="1" stop-color="#656565"/></linearGradient><linearGradient><stop offset="0" stop-color="#4c4c4c"/><stop offset="1" stop-color="#656565"/></linearGradient><linearGradient><stop offset="0" stop-color="#4c4c4c"/><stop offset="1" stop-color="#656565"/></linearGradient><linearGradient><stop offset="0" stop-color="#4c4c4c"/><stop offset="1" stop-color="#656565"/></linearGradient><linearGradient><stop offset="0" stop-color="#4c4c4c"/><stop offset="1" stop-color="#656565"/></linearGradient><linearGradient><stop offset="0" stop-color="#4c4c4c"/><stop offset="1" stop-color="#656565"/></linearGradient><linearGradient><stop offset="0" stop-color="#4c4c4c"/><stop offset="1" stop-color="#656565"/></linearGradient><linearGradient><stop offset="0" stop-color="#4c4c4c"/><stop offset="1" stop-color="#656565"/></linearGradient><linearGradient><stop offset="0" stop-color="#4c4c4c"/><stop offset="1" stop-color="#656565"/></linearGradient><linearGradient><stop offset="0" stop-color="#4c4c4c"/><stop offset="1" stop-color="#656565"/></linearGradient><linearGradient><stop offset="0" stop-color="#4c4c4c"/><stop offset="1" stop-color="#656565"/></linearGradient><linearGradient><stop offset="0" stop-color="#4c4c4c"/><stop offset="1" stop-color="#656565"/></linearGradient><linearGradient><stop offset="0" stop-color="#4c4c4c"/><stop offset="1" stop-color="#656565"/></linearGradient><linearGradient><stop offset="0" stop-color="#4c4c4c"/><stop offset="1" stop-color="#656565"/></linearGradient><linearGradient><stop offset="0" stop-color="#4c4c4c"/><stop offset="1" stop-color="#656565"/></linearGradient><linearGradient><stop offset="0" stop-color="#4c4c4c"/><stop offset="1" stop-color="#656565"/></linearGradient><linearGradient><stop offset="0" stop-color="#4c4c4c"/><stop offset="1" stop-color="#656565"/></linearGradient><linearGradient><stop offset="0" stop-color="#4c4c4c"/><stop offset="1" stop-color="#656565"/></linearGradient><linearGradient><stop offset="0" stop-color="#4c4c4c"/><stop offset="1" stop-color="#656565"/></linearGradient><linearGradient><stop offset="0" stop-color="#4c4c4c"/><stop offset="1" stop-color="#656565"/></linearGradient><linearGradient><stop offset="0" stop-color="#4c4c4c"/><stop offset="1" stop-color="#656565"/></linearGradient><linearGradient><stop offset="0" stop-color="#4c4c4c"/><stop offset="1" stop-color="#656565"/></linearGradient><linearGradient><stop offset="0" stop-color="#4c4c4c"/><stop offset="1" stop-color="#656565"/></linearGradient><linearGradient><stop offset="0" stop-color="#4c4c4c"/><stop offset="1" stop-color="#656565"/></linearGradient><linearGradient><stop offset="0" stop-color="#4c4c4c"/><stop offset="1" stop-color="#656565"/></linearGradient><linearGradient><stop offset="0" stop-color="#4c4c4c"/><stop offset="1" stop-color="#656565"/></linearGradient><linearGradient><stop offset="0" stop-color="#4c4c4c"/><stop offset="1" stop-color="#656565"/></linearGradient><linearGradient><stop offset="0" stop-color="#4c4c4c"/><stop offset="1" stop-color="#656565"/></linearGradient><linearGradient><stop offset="0" stop-color="#4c4c4c"/><stop offset="1" stop-color="#656565"/></linearGradient><linearGradient><stop offset="0" stop-color="#4c4c4c"/><stop offset="1" stop-color="#656565"/></linearGradient><linearGradient><stop offset="0" stop-color="#4c4c4c"/><stop offset="1" stop-color="#656565"/></linearGradient><linearGradient><stop offset="0" stop-color="#4c4c4c"/><stop offset="1" stop-color="#656565"/></linearGradient><linearGradient><stop offset="0" stop-color="#4c4c4c"/><stop offset="1" stop-color="#656565"/></linearGradient><linearGradient><stop offset="0" stop-color="#4c4c4c"/><stop offset="1" stop-color="#656565"/></linearGradient><linearGradient><stop offset="0" stop-color="#4c4c4c"/><stop offset="1" stop-color="#656565"/></linearGradient><linearGradient><stop offset="0" stop-color="#4c4c4c"/><stop offset="1" stop-color="#656565"/></linearGradient><linearGradient><stop offset="0" stop-color="#4c4c4c"/><stop offset="1" stop-color="#656565"/></linearGradient><linearGradient><stop offset="0" stop-color="#4c4c4c"/><stop offset="1" stop-color="#656565"/></linearGradient><linearGradient><stop offset="0" stop-color="#4c4c4c"/><stop offset="1" stop-color="#656565"/></linearGradient><linearGradient><stop offset="0" stop-color="#4c4c4c"/><stop offset="1" stop-color="#656565"/></linearGradient><linearGradient><stop offset="0" stop-color="#4c4c4c"/><stop offset="1" stop-color="#656565"/></linearGradient><linearGradient><stop offset="0" stop-color="#4c4c4c"/><stop offset="1" stop-color="#656565"/></linearGradient><linearGradient><stop offset="0" stop-color="#4c4c4c"/><stop offset="1" stop-color="#656565"/></linearGradient><linearGradient><stop offset="0" stop-color="#4c4c4c"/><stop offset="1" stop-color="#656565"/></linearGradient><linearGradient><stop offset="0" stop-color="#4c4c4c"/><stop offset="1" stop-color="#656565"/></linearGradient><linearGradient><stop offset="0" stop-color="#4c4c4c"/><stop offset="1" stop-color="#656565"/></linearGradient><linearGradient><stop offset="0" stop-color="#4c4c4c"/><stop offset="1" stop-color="#656565"/></linearGradient><linearGradient><stop offset="0" stop-color="#4c4c4c"/><stop offset="1" stop-color="#656565"/></linearGradient><linearGradient><stop offset="0" stop-color="#4c4c4c"/><stop offset="1" stop-color="#656565"/></linearGradient><linearGradient><stop offset="0" stop-color="#4c4c4c"/><stop offset="1" stop-color="#656565"/></linearGradient><linearGradient><stop offset="0" stop-color="#4c4c4c"/><stop offset="1" stop-color="#656565"/></linearGradient><linearGradient><stop offset="0" stop-color="#4c4c4c"/><stop offset="1" stop-color="#656565"/></linearGradient><linearGradient><stop offset="0" stop-color="#4c4c4c"/><stop offset="1" stop-color="#656565"/></linearGradient><linearGradient><stop offset="0" stop-color="#4c4c4c"/><stop offset="1" stop-color="#656565"/></linearGradient><linearGradient><stop offset="0" stop-color="#4c4c4c"/><stop offset="1" stop-color="#656565"/></linearGradient><linearGradient><stop offset="0" stop-color="#4c4c4c"/><stop offset="1" stop-color="#656565"/></linearGradient><linearGradient><stop offset="0" stop-color="#4c4c4c"/><stop offset="1" stop-color="#656565"/></linearGradient><linearGradient><stop offset="0" stop-color="#4c4c4c"/><stop offset="1" stop-color="#656565"/></linearGradient><linearGradient><stop offset="0" stop-color="#4c4c4c"/><stop offset="1" stop-color="#656565"/></linearGradient><linearGradient><stop offset="0" stop-color="#4c4c4c"/><stop offset="1" stop-color="#656565"/></linearGradient><linearGradient><stop offset="0" stop-color="#4c4c4c"/><stop offset="1" stop-color="#656565"/></linearGradient><linearGradient><stop offset="0" stop-color="#4c4c4c"/><stop offset="1" stop-color="#656565"/></linearGradient><linearGradient><stop offset="0" stop-color="#4c4c4c"/><stop offset="1" stop-color="#656565"/></linearGradient><linearGradient><stop offset="0" stop-color="#4c4c4c"/><stop offset="1" stop-color="#656565"/></linearGradient><linearGradient><stop offset="0" stop-color="#4c4c4c"/><stop offset="1" stop-color="#656565"/></linearGradient><linearGradient><stop offset="0" stop-color="#4c4c4c"/><stop offset="1" stop-color="#656565"/></linearGradient><linearGradient><stop offset="0" stop-color="#4c4c4c"/><stop offset="1" stop-color="#656565"/></linearGradient><linearGradient><stop offset="0" stop-color="#4c4c4c"/><stop offset="1" stop-color="#656565"/></linearGradient><linearGradient><stop offset="0" stop-color="#4c4c4c"/><stop offset="1" stop-color="#656565"/></linearGradient><linearGradient><stop offset="0" stop-color="#4c4c4c"/><stop offset="1" stop-color="#656565"/></linearGradient><linearGradient><stop offset="0" stop-color="#4c4c4c"/><stop offset="1" stop-color="#656565"/></linearGradient><linearGradient><stop offset="0" stop-color="#4c4c4c"/><stop offset="1" stop-color="#656565"/></linearGradient><linearGradient><stop offset="0" stop-color="#4c4c4c"/><stop offset="1" stop-color="#656565"/></linearGradient><linearGradient id="a"><stop offset="0" stop-color="#4887d2"/><stop offset="1" stop-color="#71a2dc"/></linearGradient><linearGradient x1="1975.884" x2="3466.778" y1="-5656.661" y2="-6315.289" xlink:href="#a" gradientUnits="userSpaceOnUse"/><linearGradient x1="1975.884" x2="3466.778" y1="-5656.661" y2="-6315.289" xlink:href="#a" gradientUnits="userSpaceOnUse"/><linearGradient x1="1975.884" x2="3466.778" y1="-5656.661" y2="-6315.289" xlink:href="#a" gradientUnits="userSpaceOnUse" gradientTransform="translate(583.61 3916.609)"/><linearGradient x1="1975.884" x2="3466.778" y1="-5656.661" y2="-6315.289" xlink:href="#a" gradientUnits="userSpaceOnUse" gradientTransform="translate(137.304 1781.357)"/><linearGradient x1="1975.884" x2="3466.778" y1="-5656.661" y2="-6315.289" xlink:href="#a" gradientUnits="userSpaceOnUse" gradientTransform="translate(137.304 1781.357)"/><linearGradient x1="1975.884" x2="3466.778" y1="-5656.661" y2="-6315.289" xlink:href="#a" gradientUnits="userSpaceOnUse"/><linearGradient x1="1975.884" x2="3466.778" y1="-5656.661" y2="-6315.289" xlink:href="#a" gradientUnits="userSpaceOnUse"/><linearGradient x1="1975.884" x2="3466.778" y1="-5656.661" y2="-6315.289" xlink:href="#a" gradientUnits="userSpaceOnUse"/><linearGradient x1="1975.884" x2="3466.778" y1="-5656.661" y2="-6315.289" xlink:href="#a" gradientUnits="userSpaceOnUse" gradientTransform="translate(507.231 -1205.157)"/><linearGradient x1="1975.884" x2="3466.778" y1="-5656.661" y2="-6315.289" xlink:href="#a" gradientUnits="userSpaceOnUse" gradientTransform="translate(953.42 929.153)"/><linearGradient x1="1975.884" x2="3466.778" y1="-5656.661" y2="-6315.289" xlink:href="#a" gradientUnits="userSpaceOnUse" gradientTransform="translate(507.231 -1205.157)"/><marker orient="auto" overflow="visible"><path fill-rule="evenodd" stroke="#000" stroke-width=".8pt" d="M4.62 0L-2.3 4v-8l6.92 4z"/></marker><marker id="e" orient="auto" overflow="visible"><path fill-rule="evenodd" stroke="#000" stroke-width=".4pt" d="M2.3 0l-3.45 2v-4L2.3 0z"/></marker><marker orient="auto" overflow="visible"><path fill-rule="evenodd" stroke="#000" stroke-width=".4pt" d="M2.3 0l-3.45 2v-4L2.3 0z"/></marker><marker id="f" orient="auto" overflow="visible"><path fill-rule="evenodd" stroke="#000" stroke-width=".4pt" d="M2.3 0l-3.45 2v-4L2.3 0z"/></marker><marker id="g" orient="auto" overflow="visible"><path fill-rule="evenodd" stroke="#000" stroke-width=".4pt" d="M2.3 0l-3.45 2v-4L2.3 0z"/></marker><marker orient="auto" overflow="visible"><path fill-rule="evenodd" stroke="#000" stroke-width=".4pt" d="M2.3 0l-3.45 2v-4L2.3 0z"/></marker><marker orient="auto" overflow="visible"><path fill-rule="evenodd" stroke="#000" stroke-width=".4pt" d="M2.3 0l-3.45 2v-4L2.3 0z"/></marker><marker orient="auto" overflow="visible"><path fill-rule="evenodd" stroke="#000" stroke-width=".4pt" d="M2.3 0l-3.45 2v-4L2.3 0z"/></marker><marker id="i" orient="auto" overflow="visible"><path fill-rule="evenodd" stroke="#000" stroke-width=".4pt" d="M2.3 0l-3.45 2v-4L2.3 0z"/></marker><marker id="j" orient="auto" overflow="visible"><path fill-rule="evenodd" stroke="#000" stroke-width=".4pt" d="M2.3 0l-3.45 2v-4L2.3 0z"/></marker><marker orient="auto" overflow="visible"><path fill-rule="evenodd" stroke="#000" stroke-width=".4pt" d="M2.3 0l-3.45 2v-4L2.3 0z"/></marker><marker orient="auto" overflow="visible"><path fill-rule="evenodd" stroke="#000" stroke-width=".4pt" d="M2.3 0l-3.45 2v-4L2.3 0z"/></marker><marker id="k" orient="auto" overflow="visible"><path fill-rule="evenodd" stroke="#000" stroke-width=".4pt" d="M2.3 0l-3.45 2v-4L2.3 0z"/></marker><marker orient="auto" overflow="visible"><path fill-rule="evenodd" stroke="#000" stroke-width=".4pt" d="M2.3 0l-3.45 2v-4L2.3 0z"/></marker><marker id="l" orient="auto" overflow="visible"><path fill-rule="evenodd" stroke="#000" stroke-width=".8pt" d="M4.62 0L-2.3 4v-8l6.92 4z"/></marker><marker id="m" orient="auto" overflow="visible"><path fill-rule="evenodd" stroke="#000" stroke-width=".8pt" d="M4.62 0L-2.3 4v-8l6.92 4z"/></marker><marker id="b" orient="auto" overflow="visible"><path fill="#789440" fill-rule="evenodd" stroke="#789440" stroke-width=".8pt" d="M4.62 0L-2.3 4v-8l6.92 4z"/></marker><marker id="n" orient="auto" overflow="visible"><path fill="#789440" fill-rule="evenodd" stroke="#789440" stroke-width=".8pt" d="M4.62 0L-2.3 4v-8l6.92 4z"/></marker><marker id="p" orient="auto" overflow="visible"><path fill="#ffc000" fill-rule="evenodd" stroke="#ffc000" stroke-width=".8pt" d="M-4.62 0L2.3-4v8l-6.92-4z"/></marker><marker id="q" orient="auto" overflow="visible"><path fill="#ffc000" fill-rule="evenodd" stroke="#ffc000" stroke-width=".4pt" d="M2.3 0l-3.45 2v-4L2.3 0z"/></marker><marker id="r" orient="auto" overflow="visible"><path fill-rule="evenodd" stroke="#000" stroke-width=".8pt" d="M4.62 0L-2.3 4v-8l6.92 4z"/></marker></defs><g><path fill="none" stroke="#789440" stroke-width="2" d="M790.87 371.36v489.77" stroke-linecap="round" marker-end="url(#b)" transform="translate(0 147.638)"/><path fill="#a5a5a5" fill-rule="evenodd" stroke="#000" stroke-width="3" d="M3.62 601h119.96V421h-25v155H13.63c0 10-5 20-10 25z"/><path fill="#3896d6" fill-rule="evenodd" stroke="#000" stroke-width="3" d="M13.62 576H98.6V446h-60c-2.04 3-7.4 3.16-5 10 2.44 3.26 9.03 6.1 5 10-1.94 4.75-8.8 5.14-5 15 1.25 4.9 6.02 9.45 0 15-3.33 5-13.1 5.7-10 15 1.7 5 7.37 7.07 5 15-3.75 8.45-8.67 12.14-5 20 1.96 4.7 5.46 7.78 5 15-2.6 6.03-7.34 11.13-14.98 15"/><path fill="#789440" fill-rule="evenodd" stroke="#000" stroke-width="3" d="M123.58 601h50v-10h-10c-20 0-35-75-40-115z"/><path fill="#a5a5a5" fill-rule="evenodd" stroke="#000" stroke-width="3" d="M3.62 904.5h119.96v-180h-25v155H13.63c0 10-5 20-10 25z"/><path fill="#3896d6" fill-rule="evenodd" stroke="#000" stroke-width="3" d="M13.62 879.5H98.6v-130h-60c-2.04 3-7.4 3.16-5 10 2.44 3.26 9.03 6.1 5 10-1.94 4.75-8.8 5.14-5 15 1.25 4.9 6.02 9.45 0 15-3.33 5-13.1 5.7-10 15 1.7 5 7.37 7.07 5 15-3.75 8.45-8.67 12.14-5 20 1.96 4.7 5.46 7.78 5 15-2.6 6.03-7.34 11.13-14.98 15"/><path fill="#789440" fill-rule="evenodd" stroke="#000" stroke-width="3" d="M123.58 904.5h50v-10h-10c-20 0-35-75-40-115z"/><path fill="none" stroke="#000" stroke-width="4" d="M71.28 406.38h154v71.98h52.14" marker-start="url(#c)" marker-end="url(#d)" transform="translate(0 147.638)"/><path fill="none" stroke="#000" stroke-width="4" d="M502.23 514.36H652.2" marker-end="url(#e)" transform="translate(0 147.638)"/><path fill="none" stroke="#000" stroke-width="4" d="M71.28 708.6h154V548.9h52.14" marker-start="url(#f)" marker-end="url(#g)" transform="translate(0 147.638)"/><g style="line-height:125%;-inkscape-font-specification:'Concourse C3, Semi-Bold';text-align:start" font-weight="600" font-size="28.75" font-family="Concourse C3" letter-spacing="0" word-spacing="0"><path d="M28.45 670.65H24.1l-5.66-7.5h-.6v7.5h-3.88V651.1h5.55q1.85 0 3.2.52t2.2 1.35q.9.83 1.3 1.93.44 1.1.44 2.24 0 2.07-1.07 3.48-1.03 1.4-3.13 2l6 7.8v.23zm-5.84-13.4q0-1.26-.77-1.98t-1.95-.72h-2.04v5.32h2q1.4 0 2.08-.75.7-.75.7-1.87z"/><path d="M42.2 659.35h-6.55v2.42h5.7v3.1h-5.7v2.56h6.75v3.22H31.9v-14.52h10.3v3.22z"/><path d="M46.97 666.25q.94.6 2.15 1.07 1.2.46 2.47.46 1 0 1.43-.38.46-.37.46-.8 0-.66-.73-1.04-.7-.37-2.1-1.03-1.1-.52-1.9-.98-.77-.5-1.3-1-.48-.55-.73-1.16-.23-.6-.23-1.4 0-.76.32-1.5.35-.76 1-1.33.67-.6 1.68-.95 1-.38 2.35-.38 1.53 0 2.82.38 1.3.37 2.3 1l-.86 3q-1.08-.58-2.15-.9-1.06-.3-2.07-.3-.83 0-1.2.3-.38.3-.38.7 0 .22.12.42.14.18.46.4.3.2.86.5.57.28 1.4.66 1.2.54 2 1.1.8.5 1.28 1.08.52.58.72 1.2.23.64.23 1.4 0 1.02-.46 1.8-.42.78-1.22 1.3-.78.5-1.87.77-1.08.3-2.38.3-1.9 0-3.36-.53-1.47-.55-2.13-1.15l1.04-3.02z"/><path d="M71.8 659.35h-6.56v2.42h5.7v3.1h-5.7v2.56H72v3.22H61.5v-14.52h10.3v3.22z"/><path d="M84.52 664.8l4.42 5.7v.15h-4.42l-3.97-5.6h-.38v5.6h-3.73v-14.52h5.78q1.2 0 2.2.35 1.02.3 1.73.95.75.63 1.15 1.52.4.86.4 1.93 0 1.38-.83 2.38-.8.98-2.35 1.4v.13zm-.8-3.92q0-.8-.56-1.24-.5-.43-1.35-.43h-1.63v3.3h1.73q.78 0 1.3-.4.5-.42.5-1.22z"/><path d="M97.57 664.1h.1l2.97-7.97h4.06l-6.18 14.52h-1.84l-6.18-14.52h4.05l3.02 7.97z"/><path d="M122.35 663.46q0 1.53-.55 2.9-.54 1.36-1.58 2.4-1 1-2.44 1.6-1.4.58-3.16.58-1.7 0-3.14-.58-1.43-.57-2.47-1.58-1.02-1-1.6-2.36-.57-1.38-.57-2.96 0-1.72.63-3.13.66-1.4 1.72-2.4 1.1-1 2.5-1.54 1.4-.56 2.94-.56 1.5 0 2.87.55 1.4.5 2.46 1.5 1.1.96 1.73 2.4.65 1.4.65 3.16zm-3.82-.05q0-.94-.32-1.72-.3-.8-.85-1.35-.55-.58-1.27-.9-.7-.3-1.5-.3-.74 0-1.46.28-.7.3-1.23.84-.56.55-.9 1.35-.32.77-.32 1.8 0 .84.26 1.62.26.74.74 1.35.5.57 1.24.95.75.34 1.75.34.8 0 1.5-.3.72-.27 1.24-.82.52-.55.8-1.32.33-.8.33-1.8z"/><path d="M130.27 670.65h-3.74v-14.52h3.74v14.52z"/><path d="M143.25 664.8l4.43 5.7v.15h-4.43l-3.97-5.6h-.37v5.6h-3.73v-14.52h5.78q1.2 0 2.2.35 1.02.3 1.74.95.74.63 1.14 1.52.4.86.4 1.93 0 1.38-.83 2.38-.8.98-2.35 1.4v.13zm-.8-3.92q0-.8-.55-1.24-.52-.43-1.35-.43h-1.64v3.3h1.73q.78 0 1.3-.4.52-.42.52-1.22z"/><path d="M151.4 666.25q.96.6 2.17 1.07 1.2.46 2.47.46 1 0 1.44-.38.46-.37.46-.8 0-.66-.72-1.04-.7-.37-2.1-1.03-1.1-.52-1.9-.98-.78-.5-1.3-1-.48-.55-.74-1.16-.23-.6-.23-1.4 0-.76.32-1.5.34-.76 1-1.33.66-.6 1.67-.95 1-.38 2.36-.38 1.52 0 2.8.38 1.3.37 2.3 1l-.85 3q-1.1-.58-2.15-.9-1.07-.3-2.07-.3-.84 0-1.2.3-.4.3-.4.7 0 .22.13.42.14.18.46.4.32.2.86.5.58.28 1.4.66 1.2.54 2 1.1.8.5 1.3 1.08.5.58.7 1.2.24.64.24 1.4 0 1.02-.46 1.8-.43.78-1.24 1.3-.78.5-1.87.77-1.1.3-2.38.3-1.9 0-3.37-.53-1.46-.55-2.13-1.15l1.04-3.02z"/></g><g fill="none" stroke="#000" stroke-width="4.001" stroke-linecap="round"><path d="M585.82-685.64h49.95" marker-end="url(#h)" transform="translate(16.617 1164.609)"/><path d="M602.4 479v180"/></g><g fill="none" stroke="#000" stroke-width="4.001" stroke-linecap="round"><path d="M585.82-685.64h49.95" marker-end="url(#i)" transform="matrix(1 0 0 -1 16.617 157.391)"/><path d="M602.4 843V663"/></g><path fill="none" stroke="#000" stroke-width="4" d="M872.73 514.36h149.95" marker-end="url(#j)" transform="translate(0 147.638)"/><g fill="none" stroke="#000" stroke-width="4.001" stroke-linecap="round"><g><path d="M969.86 479.97H919.9"/><path d="M969.9 480v180"/></g><g><path d="M969.86 844.03H919.9"/><path d="M969.9 844V664"/></g></g><path fill="none" stroke="#000" stroke-width="4" d="M1247.6 514.36h149.96" marker-end="url(#k)" transform="translate(0 147.638)"/><g style="line-height:125%;-inkscape-font-specification:'Concourse C3, Semi-Bold';text-align:start" font-weight="600" font-size="28.75" font-family="Concourse C3" letter-spacing="0" word-spacing="0"><path d="M1437.47 580.4q0 1.32.43 2.44.44 1.15 1.24 1.98.8.86 1.93 1.32 1.12.5 2.5.5 1.67 0 2.84-.58 1.22-.55 2-1.4.77-.87 1.12-1.94.37-1.06.37-2.07v-2.3h-12.43v2.04zm-3.56-5.93h19.56v5.87q0 2.24-.66 4.14-.64 1.9-1.9 3.24-1.27 1.38-3.13 2.16-1.84.78-4.26.78-2.15 0-3.93-.8-1.75-.78-3.02-2.16-1.26-1.38-1.95-3.25-.7-1.84-.7-3.94v-6.03z"/><path d="M1433.9 599.03v-3.74h14.53v3.73h-14.52z"/><path d="M1438.3 604.34q-.6.94-1.06 2.15-.46 1.2-.46 2.46 0 1 .38 1.44.37.46.8.46.66 0 1.04-.72.37-.7 1.03-2.1.52-1.1.98-1.9.5-.77 1.02-1.3.54-.48 1.15-.73.6-.22 1.38-.22.77 0 1.52.3.75.36 1.32 1.02.6.66.94 1.67.37 1 .37 2.35 0 1.53-.36 2.82-.37 1.3-1 2.3l-3-.86q.58-1.1.9-2.16.3-1.06.3-2.07 0-.83-.3-1.2-.3-.38-.7-.38-.22 0-.43.12-.16.13-.4.45-.2.3-.48.86-.28.58-.66 1.42-.54 1.18-1.1 1.98-.5.8-1.08 1.3-.58.5-1.2.7-.64.24-1.4.24-1.03 0-1.8-.46-.78-.43-1.3-1.23-.5-.78-.77-1.87-.28-1.1-.28-2.4 0-1.9.52-3.35.54-1.47 1.15-2.13l3 1.04z"/><path d="M1445.2 625.78h-11.3v-3.73h11.3v-4.37h3.23v12.47h-3.22v-4.37z"/><path d="M1439.77 642.22l-5.72 4.43h-.14v-4.43l5.6-3.97v-.37h-5.6v-3.74h14.53v5.78q0 1.2-.35 2.22-.3 1-.95 1.72-.63.75-1.52 1.15-.85.4-1.92.4-1.38 0-2.38-.82-.98-.8-1.4-2.36h-.13zm3.9-.8q.82 0 1.25-.55.43-.52.43-1.35v-1.64h-3.3v1.73q0 .78.4 1.3.43.52 1.23.52z"/><path d="M1433.9 654v-3.73h14.53V654h-14.52z"/><path d="M1441.53 667.3q-.23 1.32-1.24 2.13-1.02.8-2.3.8-1.9 0-3-1.46-1.1-1.47-1.1-4.08v-5.8h14.53v5.58q0 1.44-.35 2.42-.3.98-.86 1.58-.52.6-1.2.86-.7.3-1.4.3-1 0-1.77-.53-.75-.48-1.2-1.8h-.12zm-1.64-4.74h-3v1.98q0 .8.4 1.24.43.46 1.1.46.68 0 1.1-.52.4-.5.4-1.3v-1.86zm4.1 3.22q.66 0 1.03-.46.4-.46.4-1.07v-1.7h-2.87v1.6q0 .74.4 1.17.44.46 1.04.46z"/><path d="M1440.15 687.36q-1.27 0-2.45-.4-1.18-.4-2.1-1.27-.9-.85-1.43-2.1-.55-1.28-.55-3 0-1.98.55-3.3.54-1.3 1.43-2.08.92-.77 2.05-1.1 1.15-.28 2.35-.28h8.43v3.74h-7.94q-1.85 0-2.65.83-.78.85-.78 2.2 0 .63.17 1.18.2.57.6.98.44.4 1.07.63.67.22 1.6.22h7.93v3.74h-8.28z"/><path d="M1445.2 699.46h-11.3v-3.74h11.3v-4.37h3.23v12.48h-3.22v-4.37z"/><path d="M1433.9 711.84v-3.74h14.53v3.74h-14.52z"/><path d="M1441.1 731.55q-1.53 0-2.9-.55-1.36-.54-2.4-1.58-1-1-1.6-2.44-.58-1.4-.58-3.16 0-1.7.58-3.14.57-1.44 1.58-2.47 1-1.03 2.35-1.6 1.38-.58 2.97-.58 1.72 0 3.13.64 1.4.66 2.4 1.72 1 1.1 1.54 2.5t.54 2.94q0 1.5-.53 2.87-.52 1.4-1.5 2.46-.97 1.1-2.4 1.73-1.42.65-3.17.65zm.05-3.82q.95 0 1.73-.32.8-.3 1.35-.85.58-.55.9-1.27.3-.7.3-1.5 0-.74-.28-1.46-.3-.7-.83-1.24-.55-.54-1.35-.9-.78-.3-1.82-.3-.83 0-1.6.26-.75.25-1.36.74-.58.5-.96 1.24-.34.75-.34 1.75 0 .8.3 1.5.27.72.82 1.23.55.52 1.32.8.8.33 1.8.33z"/><path d="M1440.2 745.65v.14h8.23v3.73h-14.52v-2.4l8.26-7.8v-.15h-8.25v-3.74h14.53v2.4l-8.23 7.8z"/></g><path fill="none" stroke="#000" stroke-width="2" d="M1354.94 184.36h-54.88" stroke-linecap="round" marker-end="url(#l)" transform="translate(0 147.638)"/><path fill="none" stroke="#000" stroke-width="2" d="M1354.98 963.36H929.62" stroke-linecap="round" marker-end="url(#m)" transform="translate(0 147.638)"/><path fill="none" stroke="#789440" stroke-width="2" d="M416.1 962.37v-345.7" stroke-linecap="round" marker-end="url(#n)" transform="translate(0 147.638)"/><path fill="none" stroke="#789440" stroke-width="2" d="M663.42 1110H416.5" stroke-linecap="round"/><path fill="none" stroke="#c00000" stroke-width="2" d="M388.75 412.32l-.25-479h646.8" marker-start="url(#o)" transform="translate(0 147.638)"/><path fill="none" stroke="#ffc000" stroke-width="2" d="M449.22 412.32l-.25-227.7h646.8" marker-start="url(#p)" transform="translate(0 147.638)"/><path fill="none" stroke="#ffc000" stroke-width="4" d="M1161.37 263.13v150" marker-end="url(#q)" transform="translate(0 147.638)"/><path fill="#a5a5a5" stroke="#000" stroke-width="3" d="M290.14 573.5h251.92v177H290.14z" opacity=".98" stroke-linejoin="round"/><path fill="#3896d6" stroke="#000" stroke-width="3" d="M313.64 597h204.93v130H313.64z" opacity=".98" stroke-linejoin="round"/><g fill="#fff" style="line-height:125%;-inkscape-font-specification:'Concourse C3, Semi-Bold';text-align:start" font-weight="600" font-size="28.75" font-family="Concourse C3" letter-spacing="0" word-spacing="0"><path d="M336.58 671.63h-3.88v-19.55h3.88v19.55z"/><path d="M352.16 665.34h.14v-8.23h3.74v14.53h-2.4l-7.8-8.25h-.15v8.25h-3.75V657.1h2.4l7.8 8.24z"/><path d="M364.4 668.4h5.65v3.23h-9.4V657.1h3.74v11.3z"/><path d="M384.2 660.33h-6.56v2.42h5.7v3.1h-5.7v2.56h6.75v3.23h-10.5V657.1h10.3v3.23z"/><path d="M395.75 660.33v11.3H392v-11.3h-4.36v-3.22h12.48v3.23h-4.37z"/><path d="M423.14 660.5l-3.2 11.13h-2.67l-6.35-19.55h4.17l3.6 12.05h.12l3.14-12.05h2.47l3.16 12.05h.1l3.66-12.05h4.17l-6.4 19.55h-2.66l-3.22-11.12h-.1z"/><path d="M452.83 664.44q0 1.53-.54 2.9-.56 1.36-1.6 2.4-1 1-2.44 1.6-1.4.58-3.16.58-1.7 0-3.14-.58-1.43-.57-2.47-1.58-1.04-1-1.62-2.35-.57-1.37-.57-2.96 0-1.72.64-3.13.66-1.4 1.72-2.38 1.1-1 2.5-1.55 1.4-.54 2.94-.54 1.5 0 2.87.54 1.4.52 2.48 1.5 1.1.97 1.72 2.4.66 1.42.66 3.17zm-3.82-.05q0-.96-.3-1.74-.32-.8-.87-1.35-.55-.56-1.27-.88-.7-.32-1.5-.32-.74 0-1.46.3-.7.28-1.23.82-.55.55-.9 1.36-.3.77-.3 1.8 0 .84.25 1.62.26.74.75 1.35.48.57 1.23.95.75.34 1.76.34.8 0 1.5-.3.7-.27 1.23-.82.5-.55.8-1.32.3-.8.3-1.8z"/><path d="M464.8 665.77l4.43 5.72v.13h-4.43l-3.96-5.6h-.38v5.6h-3.74V657.1h5.78q1.2 0 2.22.36 1 .3 1.72.95.75.64 1.15 1.53.4.86.4 1.93 0 1.38-.84 2.38-.8.98-2.36 1.4v.13zm-.8-3.9q0-.82-.55-1.25-.52-.43-1.35-.43h-1.64v3.3h1.73q.76 0 1.28-.4.52-.44.52-1.24z"/><path d="M476.58 666.17v5.46h-3.74V657.1h3.74V663h.08l4.78-5.87h4.22v.16l-5.98 7.07 6.47 7.16v.13h-4.57l-4.92-5.46h-.08z"/><path d="M489.36 667.23q.95.6 2.15 1.07 1.22.46 2.5.46 1 0 1.42-.38.46-.37.46-.8 0-.66-.7-1.04-.7-.37-2.1-1.03-1.1-.5-1.9-.97-.8-.5-1.3-1-.5-.55-.75-1.16-.23-.6-.23-1.38 0-.78.3-1.53.36-.75 1.02-1.32.66-.6 1.67-.95 1-.37 2.35-.37 1.52 0 2.8.37 1.3.37 2.3 1l-.85 3q-1.1-.58-2.16-.9-1.06-.3-2.07-.3-.83 0-1.2.3-.38.3-.38.7 0 .22.1.43.15.17.47.4.3.2.86.5.58.27 1.4.65 1.2.54 2 1.1.8.5 1.3 1.08.5.58.7 1.2.24.64.24 1.4 0 1.03-.46 1.8-.43.78-1.23 1.3-.78.5-1.87.77-1.1.3-2.4.3-1.88 0-3.35-.53-1.47-.54-2.13-1.15l1.04-3.02z"/></g><g><path fill="#a5a5a5" stroke="#000" stroke-width="3" d="M665.14 419.5h252v123h-252z" opacity=".98" stroke-linejoin="round"/><path fill="#3896d6" stroke="#000" stroke-width="3" d="M688.64 443.75h205v74.5h-205z" opacity=".98" stroke-linejoin="round"/><g fill="#fff" style="line-height:125%;-inkscape-font-specification:'Concourse C3, Semi-Bold';text-align:start" font-weight="600" font-size="28.75" font-family="Concourse C3" letter-spacing="0" word-spacing="0"><path d="M753.46 474.65h-7.4v4.22h6.63v3.57h-6.63v8.2h-3.88v-19.56h11.26v3.57z"/><path d="M761.02 490.63h-3.73V476.1H761v14.53z"/><path d="M769.66 487.4h5.67v3.23h-9.4V476.1h3.73v11.3z"/><path d="M784.9 479.33v11.3h-3.72v-11.3h-4.37v-3.22h12.48v3.23h-4.37z"/><path d="M803.57 479.33H797v2.42h5.7v3.1H797v2.56h6.77v3.23h-10.5V476.1h10.3v3.23z"/><path d="M816.3 484.77l4.42 5.72v.13h-4.43l-3.98-5.6h-.37v5.6h-3.74V476.1h5.8q1.2 0 2.2.36 1 .3 1.73.95.75.64 1.15 1.53.4.86.4 1.93 0 1.38-.83 2.38-.8.98-2.36 1.4v.13zm-.82-3.9q0-.82-.54-1.25-.52-.43-1.35-.43h-1.65v3.3h1.72q.78 0 1.3-.4.5-.44.5-1.24z"/><path d="M836.2 490.63V474.9l-3.6.44-.3-3.63 7.5-.85.3.23v19.55h-3.9z"/></g></g><path fill="#a5a5a5" stroke="#000" stroke-width="3" d="M664.9 779.5h251.93v123H664.9z" opacity=".98" stroke-linejoin="round"/><path fill="#3896d6" stroke="#000" stroke-width="3" d="M688.4 803.75h204.94v74.5H688.4z" opacity=".98" stroke-linejoin="round"/><g fill="#fff" style="line-height:125%;-inkscape-font-specification:'Concourse C3, Semi-Bold';text-align:start" font-weight="600" font-size="28.75" font-family="Concourse C3" letter-spacing="0" word-spacing="0"><path d="M753.44 834.65h-7.4v4.22h6.63v3.57h-6.62v8.2h-3.88v-19.56h11.27v3.57z"/><path d="M761 850.63h-3.73V836.1H761v14.53z"/><path d="M769.64 847.4h5.67v3.23h-9.4V836.1h3.74v11.3z"/><path d="M784.9 839.33v11.3h-3.74v-11.3h-4.37v-3.22h12.46v3.23h-4.37z"/><path d="M803.55 839.33H797v2.42h5.68v3.1h-5.7v2.56h6.77v3.23h-10.5V836.1h10.3v3.23z"/><path d="M816.27 844.77l4.43 5.72v.13h-4.43l-3.97-5.6h-.37v5.6h-3.74V836.1h5.77q1.2 0 2.2.36 1.02.3 1.74.95.76.64 1.16 1.53.4.86.4 1.93 0 1.38-.83 2.38-.8.98-2.36 1.4v.13zm-.8-3.9q0-.82-.55-1.25-.52-.43-1.35-.43h-1.64v3.3h1.72q.78 0 1.3-.4.5-.44.5-1.24z"/><path d="M831.9 846.32q2.56 1.15 4.98 1.15 1.64 0 2.67-.66 1.07-.68 1.07-1.98 0-1.1-.84-1.75-.83-.66-2.38-.6l-3.77.17.23-3.74 3.42.17q1.3.06 2.13-.57.87-.66.87-1.93 0-1.18-.86-1.75-.85-.58-2.12-.58-1.35 0-2.53.38-1.15.37-1.8.75h-.18l.26-3.83q.66-.3 1.92-.57 1.27-.32 3.08-.32 1.35 0 2.5.32 1.15.3 1.98.97.88.64 1.34 1.6.48.96.48 2.26 0 1.8-.9 3.02-.88 1.2-2.2 1.63v.23q1.64.5 2.53 1.73.92 1.22.92 2.77 0 1.3-.52 2.4-.52 1.08-1.46 1.85-.96.78-2.3 1.2-1.34.44-3 .44-1.84 0-3.14-.28-1.3-.3-2.38-.78l-.12-3.68h.14z"/></g><g><path fill="#a5a5a5" stroke="#000" stroke-width="3" d="M665.14 600.5h252v123h-252z" opacity=".98" stroke-linejoin="round"/><path fill="#3896d6" stroke="#000" stroke-width="3" d="M688.64 624.75h205v74.5h-205z" opacity=".98" stroke-linejoin="round"/><g fill="#fff" style="line-height:125%;-inkscape-font-specification:'Concourse C3, Semi-Bold';text-align:start" font-weight="600" font-size="28.75" font-family="Concourse C3" letter-spacing="0" word-spacing="0"><path d="M753.46 655.65h-7.4v4.22h6.63v3.57h-6.63v8.2h-3.88v-19.56h11.26v3.57z"/><path d="M761.02 671.63h-3.73V657.1H761v14.53z"/><path d="M769.66 668.4h5.67v3.23h-9.4V657.1h3.73v11.3z"/><path d="M784.9 660.33v11.3h-3.72v-11.3h-4.37v-3.22h12.48v3.23h-4.37z"/><path d="M803.57 660.33H797v2.42h5.7v3.1H797v2.56h6.77v3.23h-10.5V657.1h10.3v3.23z"/><path d="M816.3 665.77l4.42 5.72v.13h-4.43l-3.98-5.6h-.37v5.6h-3.74V657.1h5.8q1.2 0 2.2.36 1 .3 1.73.95.75.64 1.15 1.53.4.86.4 1.93 0 1.38-.83 2.38-.8.98-2.36 1.4v.13zm-.82-3.9q0-.82-.54-1.25-.52-.43-1.35-.43h-1.65v3.3h1.72q.78 0 1.3-.4.5-.44.5-1.24z"/><path d="M832.36 653.52q.4-.3.97-.6.58-.32 1.35-.6.78-.3 1.76-.47.98-.2 2.18-.2 3.05 0 4.75 1.47 1.72 1.43 1.72 4.08 0 2.44-1.96 5.17-1.96 2.74-5.6 5.52l.08.22 7.47-.4v3.9h-13.72l-.3-1.28q2.66-2.36 4.52-4.2 1.9-1.84 3.1-3.33 1.22-1.52 1.76-2.78.58-1.27.58-2.45 0-.6-.23-1-.2-.43-.57-.72-.37-.3-.86-.4-.46-.15-1-.15-1.53 0-2.94.52-1.4.5-2.6 1.32l-.47-3.62z"/></g></g><path fill="#ffc000" stroke="#000" stroke-width="3" d="M1035.4 243.5h251.93v177H1035.4z" opacity=".98" stroke-linejoin="round"/><path fill="#3896d6" stroke="#000" stroke-width="3" d="M1058.9 267h204.94v130H1058.9z" opacity=".98" stroke-linejoin="round"/><g fill="#fff" style="line-height:125%;-inkscape-font-specification:'Concourse C3, Semi-Bold';text-align:center" font-weight="600" font-size="28.75" font-family="Concourse C3" letter-spacing="0" word-spacing="0" text-anchor="middle"><path d="M1114.36 301q.95.74 2.16 1.26 1.23.5 2.6.5 1.36 0 2.03-.65.66-.65.66-1.34 0-.5-.2-.92-.17-.43-.6-.83-.4-.4-1.1-.82-.65-.44-1.66-1-1.35-.76-2.27-1.42-.92-.7-1.5-1.38-.57-.72-.83-1.5-.26-.8-.26-1.83 0-.9.38-1.8.4-.9 1.18-1.63.77-.74 1.95-1.2 1.17-.5 2.75-.5.9 0 1.75.2.87.18 1.6.47.8.25 1.42.6.64.34 1.1.68l-1.1 3.22q-1.1-.7-2.2-1.12-1.1-.46-2.37-.46-.43 0-.86.1-.44.07-.8.28-.33.17-.56.48-.2.3-.2.72 0 .43.2.8.2.38.66.78.5.4 1.24.9.77.48 1.92 1.15 2.4 1.4 3.42 2.84 1.07 1.44 1.07 3.14 0 1.53-.6 2.6-.58 1.06-1.56 1.75-.96.66-2.17.97-1.2.32-2.4.32-.84 0-1.76-.17-.92-.15-1.76-.4-.82-.26-1.54-.6-.72-.35-1.18-.76l1.38-3.4z"/><path d="M1145.15 298.72q0 1.53-.55 2.9-.54 1.36-1.58 2.4-1 1-2.44 1.6-1.4.58-3.17.58-1.68 0-3.12-.58-1.44-.57-2.47-1.58-1.03-1-1.6-2.36-.58-1.38-.58-2.96 0-1.72.64-3.13.66-1.42 1.72-2.4 1.1-1 2.5-1.55t2.93-.55q1.5 0 2.9.55 1.4.52 2.46 1.5 1.1.97 1.73 2.4.65 1.42.65 3.17zm-3.83-.06q0-.94-.3-1.72-.33-.8-.87-1.35-.55-.6-1.27-.9-.7-.32-1.5-.32-.74 0-1.46.3-.7.28-1.24.82-.54.55-.9 1.35-.3.78-.3 1.8 0 .85.25 1.62.26.75.75 1.36.5.57 1.24.94.75.35 1.75.35.8 0 1.5-.3.72-.28 1.23-.82.52-.55.8-1.32.32-.8.32-1.82z"/><path d="M1154.47 302.7q1.56 0 2.53-1.07 1-1.07 1-3.02 0-.94-.33-1.66-.32-.75-.84-1.27-.52-.5-1.15-.77-.63-.3-1.23-.3h-1.67v8.1h1.7zm-5.43 3.2v-14.5h5.15q1.6 0 2.98.5 1.4.53 2.44 1.5 1.04.95 1.6 2.3.6 1.33.6 2.96 0 1.73-.56 3.08-.58 1.35-1.58 2.3-1 .92-2.42 1.4-1.38.47-3.04.47h-5.18z"/><path d="M1169.74 305.9H1166v-14.5h3.74v14.5z"/><path d="M1188.16 299.67q0 1.27-.4 2.44-.4 1.2-1.27 2.1-.84.9-2.1 1.45-1.27.55-3 .55-1.98 0-3.3-.55-1.3-.55-2.07-1.44-.78-.9-1.1-2.03-.28-1.15-.28-2.36v-8.4h3.73v7.93q0 1.84.84 2.64.83.78 2.18.78.63 0 1.18-.18.58-.2.98-.6.4-.43.63-1.06.22-.65.22-1.57v-7.94h3.74v8.27z"/><path d="M1204.7 298.66l-3.3 7.25h-1.14l-3.27-7.24h-.2l-1.1 7.25h-3.7l2.6-14.65h1.87l4.4 8.82h.14l4.2-8.82h1.88l2.6 14.66h-3.7l-1.1-7.24h-.2z"/><path d="M1084.47 341.85h-3.9v-8.2h-8.27v8.2h-3.88V322.3h3.88v7.8h8.28v-7.8h3.9v19.55z"/><path d="M1095.12 332.62h.1l2.9-5.3h4.1l-5.23 8.83v5.7h-3.75v-5.7l-5.23-8.82h4.1l3 5.3z"/><path d="M1116 332.36q0 .75-.3 1.55-.28.8-.97 1.45-.66.66-1.75 1.1-1.1.42-2.73.42h-1.5v4.98h-3.73v-14.52h5.34q1.24 0 2.28.34 1.03.35 1.78 1 .75.64 1.15 1.6.43.9.43 2.1zm-4-.1q0-.76-.54-1.3-.55-.56-1.5-.56h-1.2v3.6h1.3q.85 0 1.4-.43.54-.46.54-1.3z"/><path d="M1134.48 334.66q0 1.52-.55 2.9-.54 1.35-1.58 2.4-1 1-2.44 1.6-1.4.57-3.15.57-1.7 0-3.14-.57-1.43-.58-2.46-1.58-1.04-1-1.6-2.36-.6-1.38-.6-2.96 0-1.73.65-3.13t1.7-2.4q1.1-1 2.5-1.54 1.42-.56 2.95-.56 1.5 0 2.87.55 1.4.5 2.47 1.48 1.1.98 1.72 2.42.66 1.4.66 3.16zm-3.82-.06q0-.95-.32-1.72-.32-.8-.86-1.35-.55-.58-1.27-.9-.68-.3-1.48-.3-.75 0-1.47.28-.7.3-1.24.84-.53.55-.88 1.35-.3.77-.3 1.8 0 .84.25 1.6.25.76.74 1.36.5.58 1.25.95.75.36 1.75.36.8 0 1.5-.3.72-.28 1.23-.82.52-.55.8-1.33.33-.8.33-1.8z"/><path d="M1149.8 337.6l1.1 2.78q-1.1.86-2.55 1.32-1.44.43-3.05.43-1.72 0-3.16-.57-1.4-.6-2.42-1.6-.97-1.02-1.52-2.34-.55-1.35-.55-2.87 0-1.84.66-3.25.68-1.44 1.77-2.42 1.12-1 2.53-1.52 1.4-.52 2.9-.52 1.76 0 3.14.55 1.4.5 2.27 1.25l-1.1 2.88h-.13q-.66-.58-1.75-1-1.07-.44-2.4-.4-.77 0-1.48.28-.72.26-1.3.8-.54.56-.9 1.4-.33.8-.33 1.9 0 1 .32 1.77.32.75.86 1.3.55.54 1.3.83.77.26 1.67.26 1.2 0 2.12-.3.95-.3 1.9-.97h.14z"/><path d="M1167.7 341.85h-3.73v-5.7h-5.46v5.7h-3.73v-14.52h3.74v5.6h5.47v-5.6h3.74v14.52z"/><path d="M1176.02 338.63h5.67v3.22h-9.4v-14.52h3.72v11.3z"/><path d="M1200.06 334.66q0 1.52-.54 2.9-.55 1.35-1.58 2.4-1 1-2.45 1.6-1.42.57-3.17.57-1.7 0-3.13-.57-1.44-.58-2.48-1.58-1.03-1-1.6-2.36-.58-1.38-.58-2.96 0-1.73.63-3.13.66-1.4 1.73-2.4 1.1-1 2.5-1.54 1.4-.56 2.93-.56 1.5 0 2.88.55 1.4.5 2.48 1.48 1.1.98 1.72 2.42.66 1.4.66 3.16zm-3.82-.06q0-.95-.32-1.72-.3-.8-.86-1.35-.54-.58-1.26-.9-.7-.3-1.5-.3-.75 0-1.46.28-.7.3-1.24.84-.55.55-.9 1.35-.3.77-.3 1.8 0 .84.25 1.6.26.76.75 1.36.5.58 1.23.95.75.36 1.76.36.8 0 1.48-.3.72-.28 1.24-.82.52-.55.8-1.33.32-.8.32-1.8z"/><path d="M1212.04 335.98l4.42 5.72v.15h-4.42l-3.97-5.6h-.38v5.6h-3.74v-14.52h5.78q1.2 0 2.2.34 1.02.32 1.73.95.75.63 1.15 1.53.4.86.4 1.92 0 1.38-.83 2.4-.8.97-2.36 1.4v.1zm-.8-3.9q0-.8-.56-1.24-.5-.44-1.35-.44h-1.64v3.3h1.72q.78 0 1.3-.4.5-.42.5-1.23z"/><path d="M1223.82 341.85h-3.74v-14.52h3.74v14.52z"/><path d="M1236.2 330.55v11.3h-3.74v-11.3h-4.37v-3.22h12.47v3.22h-4.37z"/><path d="M1254.85 330.55h-6.56v2.4h5.7v3.12h-5.7v2.56h6.75v3.22h-10.5v-14.52h10.3v3.22z"/><path d="M1120.22 374.22q1.32 0 2.45-.43 1.15-.44 1.98-1.25.86-.8 1.32-1.92.5-1.13.5-2.5 0-1.67-.58-2.85-.56-1.2-1.42-2-.87-.76-1.93-1.1-1.06-.38-2.07-.38h-2.3v12.42h2.04zm-5.92 3.56v-19.55h5.86q2.25 0 4.14.67 1.9.63 3.25 1.9 1.38 1.26 2.16 3.13.8 1.84.8 4.25 0 2.16-.82 3.94-.78 1.75-2.16 3.02-1.38 1.26-3.24 1.95-1.84.68-3.94.68h-6.04z"/><path d="M1149.64 370.6q0 1.52-.55 2.9-.55 1.35-1.6 2.4-1 1-2.43 1.6-1.4.57-3.16.57-1.7 0-3.13-.57-1.43-.58-2.47-1.58-1.03-1-1.6-2.36-.58-1.38-.58-2.96 0-1.73.63-3.14.66-1.4 1.72-2.38 1.1-1 2.5-1.56 1.4-.54 2.94-.54 1.5 0 2.88.54 1.4.52 2.47 1.5 1.1.98 1.73 2.4.66 1.42.66 3.18zm-3.82-.06q0-.95-.32-1.73-.32-.8-.86-1.34-.55-.57-1.27-.9-.7-.3-1.5-.3-.74 0-1.46.28-.68.3-1.22.84-.55.54-.9 1.35-.3.77-.3 1.8 0 .84.25 1.62.26.75.74 1.35.5.58 1.24.95.76.34 1.76.34.8 0 1.5-.3.72-.28 1.24-.83.5-.54.8-1.32.32-.8.32-1.8z"/><path d="M1153.94 373.4q.94.6 2.15 1.05 1.2.46 2.46.46 1 0 1.44-.36.46-.38.46-.8 0-.67-.72-1.04-.7-.38-2.1-1.04-1.1-.52-1.9-.98-.77-.5-1.3-1-.48-.55-.73-1.15-.22-.6-.22-1.38 0-.78.3-1.53.36-.74 1.02-1.32.66-.6 1.67-.95 1-.37 2.35-.37 1.53 0 2.82.37 1.3.38 2.3 1l-.86 3q-1.1-.58-2.16-.9-1.06-.3-2.07-.3-.83 0-1.2.3-.38.3-.38.7 0 .23.12.43.13.17.45.4.3.2.86.5.58.28 1.42.65 1.18.55 1.98 1.1.8.5 1.3 1.1.5.56.7 1.2.24.63.24 1.37 0 1.04-.46 1.8-.43.8-1.23 1.3-.78.53-1.87.78-1.1.3-2.4.3-1.9 0-3.35-.53-1.47-.54-2.13-1.15l1.04-3z"/><path d="M1172.5 377.78h-3.74v-14.5h3.73v14.5z"/><path d="M1187.6 371.5h.15v-8.23h3.73v14.5h-2.38l-7.82-8.24h-.15v8.25h-3.73v-14.5h2.38l7.82 8.2z"/><path d="M1207.62 367.84q-.83-.66-1.9-1.12-1.06-.5-2.55-.46-.75 0-1.47.25-.72.27-1.26.82-.55.55-.9 1.38-.3.8-.3 1.93 0 .9.28 1.66.3.74.83 1.32.55.54 1.27.86.74.3 1.6.3.78 0 1.47-.2.68-.2 1.17-.56v-1.8h-3.2v-2.95h6.36v6.62q-1 .94-2.58 1.57-1.6.6-3.28.6-1.6 0-3.02-.52-1.4-.54-2.47-1.5-1.07-.97-1.7-2.32-.6-1.38-.6-3.05 0-1.84.66-3.25.66-1.43 1.75-2.4 1.1-1.02 2.52-1.53 1.4-.52 2.9-.52.9 0 1.73.17t1.55.43q.72.26 1.3.6.57.32.97.6l-1 3.06h-.15z"/></g><path fill="#c00000" stroke="#000" stroke-width="3" d="M1035.4 1.5h251.93v177H1035.4z" opacity=".98" stroke-linejoin="round"/><path fill="#3896d6" stroke="#000" stroke-width="3" d="M1058.9 25h204.94v130H1058.9z" opacity=".98" stroke-linejoin="round"/><g fill="#fff" style="line-height:125%;-inkscape-font-specification:'Concourse C3, Semi-Bold';text-align:center" font-weight="600" font-size="28.75" font-family="Concourse C3" letter-spacing="0" word-spacing="0" text-anchor="middle"><path d="M1131.58 47.92h-7.4v4.23h6.62v3.57h-6.6v8.2h-3.9V44.35h11.28v3.56z"/><path d="M1145.7 52.6h-6.57v2.43h5.7v3.1h-5.7v2.56h6.76v3.2h-10.5V49.4h10.3v3.2z"/><path d="M1158.4 58.04l4.44 5.73v.14h-4.43l-3.96-5.6h-.37v5.6h-3.74V49.4h5.78q1.22 0 2.22.34 1 .3 1.73.94.75.64 1.15 1.53.4.87.4 1.93 0 1.38-.83 2.4-.8.97-2.36 1.4v.1zm-.8-3.9q0-.8-.54-1.24-.52-.43-1.35-.43h-1.63v3.3h1.72q.77 0 1.3-.4.5-.43.5-1.24z"/><path d="M1174.53 58.04l4.42 5.73v.14h-4.42l-3.97-5.6h-.37l-.02 5.6h-3.73V49.4h5.78q1.2 0 2.2.34 1.02.3 1.73.94.75.64 1.15 1.53.42.87.42 1.93 0 1.38-.84 2.4-.8.97-2.35 1.4v.1zm-.8-3.9q0-.8-.56-1.24-.5-.43-1.35-.43h-1.64v3.3h1.73q.8 0 1.3-.4.52-.43.52-1.24z"/><path d="M1186.3 63.9h-3.73V49.4h3.74v14.5z"/><path d="M1202.65 59.65l1.1 2.8q-1.13.86-2.56 1.32-1.45.43-3.06.43-1.73 0-3.16-.58-1.4-.6-2.42-1.6-.98-1-1.52-2.34-.55-1.35-.55-2.87 0-1.83.65-3.24.66-1.44 1.76-2.42 1.13-1 2.54-1.52 1.4-.52 2.9-.52 1.75 0 3.13.55 1.4.52 2.28 1.26l-1.13 2.9h-.1q-.67-.6-1.76-1.02-1.07-.43-2.4-.4-.77 0-1.5.3-.7.25-1.28.8-.55.54-.9 1.37-.34.8-.34 1.9 0 1 .32 1.78.32.75.86 1.3.55.54 1.3.83.77.26 1.66.26 1.2 0 2.13-.3.96-.3 1.9-.97h.15z"/><path d="M1101.28 94.93q.95.75 2.15 1.27 1.24.48 2.62.48 1.35 0 2-.63.67-.66.67-1.35 0-.52-.2-.92-.17-.43-.6-.83-.4-.4-1.1-.84-.65-.42-1.66-1-1.35-.74-2.27-1.4-.93-.7-1.5-1.38-.58-.72-.84-1.5-.26-.8-.26-1.84 0-.9.37-1.78.4-.92 1.18-1.64.78-.75 1.96-1.2 1.2-.5 2.77-.5.9 0 1.75.2.86.18 1.6.47.8.26 1.42.6.63.35 1.1.7l-1.1 3.2q-1.1-.68-2.2-1.1-1.1-.47-2.37-.47-.43 0-.86.1-.42.07-.77.27-.34.18-.57.5-.2.28-.2.7 0 .44.2.82.2.37.66.77.5.4 1.23.9.78.48 1.93 1.14 2.4 1.4 3.42 2.85 1.06 1.45 1.06 3.14 0 1.53-.6 2.6-.57 1.05-1.55 1.74-.94.67-2.15.98-1.2.32-2.4.32-.85 0-1.77-.17-.92-.14-1.75-.4t-1.55-.6q-.72-.35-1.18-.75l1.38-3.42z"/><path d="M1130.77 93.6q0 1.27-.4 2.45-.4 1.18-1.27 2.1-.83.9-2.1 1.44-1.26.53-3 .53-1.97 0-3.3-.54-1.3-.56-2.06-1.45-.78-.92-1.1-2.04-.28-1.14-.28-2.35v-8.42h3.74v7.93q0 1.84.83 2.65.83.78 2.18.78.65 0 1.2-.17.57-.2.97-.6.4-.42.63-1.06.23-.66.23-1.58v-7.93h3.74v8.28z"/><path d="M1139.13 96.63h5.67v3.22h-9.4V85.33h3.73v11.3z"/><path d="M1159.63 90.36q0 .75-.3 1.55-.28.8-.97 1.45-.66.66-1.75 1.1-1.08.42-2.72.42h-1.5v4.98h-3.73V85.33h5.34q1.23 0 2.27.34 1.03.35 1.78 1 .75.64 1.15 1.6.43.9.43 2.1zm-4-.1q0-.76-.54-1.3-.56-.56-1.5-.56h-1.22V92h1.3q.86 0 1.4-.43.55-.46.55-1.3z"/><path d="M1176.24 99.85h-3.74v-5.7h-5.46v5.7h-3.74V85.33h3.74v5.6h5.46v-5.6h3.74v14.52z"/><path d="M1189.3 97.3h-5.2l-.95 2.55h-3.97l6.3-14.52h2.42l6.35 14.52h-3.97l-.98-2.56zm-4.2-2.74h3.2l-1.53-4.17h-.17l-1.5 4.16z"/><path d="M1203.57 88.55v11.3h-3.74v-11.3h-4.37v-3.22h12.48v3.22h-4.37z"/><path d="M1222.22 88.55h-6.55v2.4h5.7v3.12h-5.7v2.56h6.75v3.22h-10.5V85.33h10.3v3.22z"/><path d="M1120.22 132.22q1.32 0 2.45-.43 1.15-.44 1.98-1.25.86-.8 1.32-1.92.5-1.13.5-2.5 0-1.67-.58-2.85-.56-1.2-1.42-2-.87-.76-1.93-1.1-1.06-.38-2.07-.38h-2.3v12.42h2.04zm-5.92 3.56v-19.55h5.86q2.25 0 4.14.67 1.9.63 3.25 1.9 1.38 1.26 2.16 3.13.8 1.84.8 4.25 0 2.16-.82 3.94-.78 1.75-2.16 3.02-1.38 1.26-3.24 1.95-1.84.68-3.94.68h-6.04z"/><path d="M1149.64 128.6q0 1.52-.55 2.9-.55 1.35-1.6 2.4-1 1-2.43 1.6-1.4.57-3.16.57-1.7 0-3.13-.57-1.43-.58-2.47-1.58-1.03-1-1.6-2.36-.58-1.38-.58-2.96 0-1.73.63-3.14.66-1.4 1.72-2.38 1.1-1 2.5-1.56 1.4-.54 2.94-.54 1.5 0 2.88.54 1.4.52 2.47 1.5 1.1.98 1.73 2.4.66 1.42.66 3.18zm-3.82-.06q0-.95-.32-1.73-.32-.8-.86-1.34-.55-.57-1.27-.9-.7-.3-1.5-.3-.74 0-1.46.28-.68.3-1.22.84-.55.54-.9 1.35-.3.77-.3 1.8 0 .84.25 1.62.26.75.74 1.35.5.58 1.24.95.76.34 1.76.34.8 0 1.5-.3.72-.28 1.24-.83.5-.54.8-1.32.32-.8.32-1.8z"/><path d="M1153.94 131.4q.94.6 2.15 1.05 1.2.46 2.46.46 1 0 1.44-.36.46-.38.46-.8 0-.67-.72-1.04-.7-.38-2.1-1.04-1.1-.52-1.9-.98-.77-.5-1.3-1-.48-.55-.73-1.15-.22-.6-.22-1.38 0-.78.3-1.53.36-.74 1.02-1.32.66-.6 1.67-.95 1-.37 2.35-.37 1.53 0 2.82.37 1.3.38 2.3 1l-.86 3q-1.1-.58-2.16-.9-1.06-.3-2.07-.3-.83 0-1.2.3-.38.3-.38.7 0 .23.12.43.13.17.45.4.3.2.86.5.58.28 1.42.65 1.18.55 1.98 1.1.8.5 1.3 1.1.5.56.7 1.2.24.63.24 1.37 0 1.04-.46 1.8-.43.8-1.23 1.3-.78.53-1.87.78-1.1.3-2.4.3-1.9 0-3.35-.53-1.47-.54-2.13-1.15l1.04-3z"/><path d="M1172.5 135.78h-3.74v-14.5h3.73v14.5z"/><path d="M1187.6 129.5h.15v-8.23h3.73v14.5h-2.38l-7.82-8.24h-.15v8.25h-3.73v-14.5h2.38l7.82 8.2z"/><path d="M1207.62 125.84q-.83-.66-1.9-1.12-1.06-.5-2.55-.46-.75 0-1.47.25-.72.27-1.26.82-.55.55-.9 1.38-.3.8-.3 1.93 0 .9.28 1.66.3.74.83 1.32.55.54 1.27.86.74.3 1.6.3.78 0 1.47-.2.68-.2 1.17-.56v-1.8h-3.2v-2.95h6.36v6.62q-1 .94-2.58 1.57-1.6.6-3.28.6-1.6 0-3.02-.52-1.4-.54-2.47-1.5-1.07-.97-1.7-2.32-.6-1.38-.6-3.05 0-1.84.66-3.25.66-1.43 1.75-2.4 1.1-1.02 2.52-1.53 1.4-.52 2.9-.52.9 0 1.73.17t1.55.43q.72.26 1.3.6.57.32.97.6l-1 3.06h-.15z"/></g><path fill="#7030a0" stroke="#000" stroke-width="3" d="M664.9 122.5h251.93v177H664.9z" opacity=".98" stroke-linejoin="round"/><path fill="#3896d6" stroke="#000" stroke-width="3" d="M688.4 146h204.94v130H688.4z" opacity=".98" stroke-linejoin="round"/><g fill="#fff" style="line-height:125%;-inkscape-font-specification:'Concourse C3, Semi-Bold';text-align:center" font-weight="600" font-size="28.75" font-family="Concourse C3" letter-spacing="0" word-spacing="0" text-anchor="middle"><path d="M744.57 168.58q-1.15 0-2.24.4-1.1.38-1.93 1.2-.83.84-1.35 2.17-.52 1.3-.52 3.13 0 1.47.52 2.62.52 1.15 1.35 1.95.86.8 1.96 1.24 1.12.4 2.3.4 1.2 0 2.07-.27.86-.26 1.38-.72v-3.3h-4.4v-3.56h8.26v8.83q-1.44 1.18-3.25 1.92-1.77.74-4.2.74-2.17 0-4-.75-1.85-.78-3.2-2.1-1.33-1.33-2.07-3.1-.75-1.8-.75-3.8 0-2.5.8-4.5.84-1.97 2.22-3.33 1.4-1.38 3.25-2.1 1.84-.74 3.88-.74 2.07 0 3.68.63 1.62.6 2.77 1.27l-.98 3.53h-.27q-.92-.75-2.2-1.26-1.3-.52-3.06-.52z"/><path d="M767.16 173.6h-6.56v2.43h5.7v3.1h-5.7v2.56h6.76v3.2h-10.5v-14.5h10.3v3.2z"/><path d="M782 178.6h.15v-8.2h3.74v14.5h-2.4l-7.82-8.24h-.14v8.25h-3.74v-14.5h2.4l7.8 8.2z"/><path d="M800.8 173.6h-6.56v2.43h5.7v3.1h-5.7v2.56H801v3.2h-10.5v-14.5h10.3v3.2z"/><path d="M813.5 179.04l4.44 5.73v.14h-4.43l-3.95-5.6h-.38v5.6h-3.74v-14.5h5.78q1.22 0 2.23.34 1 .3 1.72.94.75.64 1.15 1.53.4.87.4 1.93 0 1.38-.83 2.4-.8.97-2.36 1.4v.1zm-.8-3.9q0-.8-.54-1.24-.52-.43-1.35-.43h-1.63v3.3h1.73q.77 0 1.3-.4.5-.43.5-1.24z"/><path d="M830.03 182.35h-5.2l-.95 2.56h-3.97l6.3-14.5h2.42l6.36 14.5H831l-.97-2.55zm-4.2-2.73h3.2l-1.53-4.17h-.17l-1.5 4.17z"/><path d="M841.68 181.7h5.67v3.2h-9.4v-14.5h3.73v11.3z"/><path d="M765.45 207.5q0 1.44-.52 2.62-.5 1.18-1.4 2.02-.9.83-2.13 1.32-1.24.46-2.73.46h-1.64v6.93h-3.88V201.3h5.26q3.28 0 5.15 1.6 1.9 1.62 1.9 4.6zm-4.05.06q0-1.4-.87-2.1-.83-.7-2.04-.7h-1.47v5.65h1.46q.5 0 1.03-.13.54-.15.95-.5.4-.34.66-.88.26-.56.26-1.34z"/><path d="M772.8 217.63h5.68v3.22h-9.4v-14.52h3.73v11.3z"/><path d="M791.1 218.3h-5.2l-.96 2.55h-3.97l6.3-14.52h2.4l6.36 14.52h-3.96l-.98-2.56zm-4.2-2.74h3.18l-1.52-4.17h-.17l-1.5 4.16z"/><path d="M809.2 214.55h.15v-8.22h3.74v14.52h-2.4l-7.8-8.25h-.16v8.25H799v-14.52h2.4l7.8 8.22z"/><path d="M825.18 209.55v11.3h-3.74v-11.3h-4.37v-3.22h12.48v3.22h-4.37z"/><path d="M734.85 251.87q.94.75 2.15 1.26 1.24.5 2.62.5 1.35 0 2-.64.67-.67.67-1.36 0-.52-.2-.92-.18-.43-.6-.84-.42-.4-1.1-.83-.67-.43-1.67-1-1.35-.75-2.27-1.4-.92-.7-1.5-1.4-.57-.7-.83-1.5t-.26-1.83q0-.9.37-1.78.4-.92 1.18-1.64.78-.75 1.96-1.2 1.17-.5 2.76-.5.9 0 1.75.2.85.18 1.6.46.78.26 1.4.6.64.35 1.1.7l-1.1 3.22q-1.08-.7-2.2-1.12-1.1-.46-2.36-.46-.43 0-.87.08-.43.1-.77.3-.35.16-.58.48-.2.3-.2.72 0 .43.2.8.2.38.66.78.5.4 1.24.9.78.48 1.93 1.14 2.38 1.4 3.42 2.85 1.06 1.43 1.06 3.13 0 1.52-.6 2.6-.58 1.05-1.55 1.74-.95.66-2.16.98-1.2.32-2.42.32-.83 0-1.75-.18-.92-.14-1.75-.4-.84-.26-1.56-.6-.7-.35-1.17-.75l1.38-3.43z"/><path d="M761.12 245.5h-6.56v2.4h5.7v3.1h-5.7v2.56h6.76v3.22h-10.5v-14.5h10.3v3.2z"/><path d="M773.84 250.92l4.43 5.72v.14h-4.43l-3.97-5.6h-.37v5.6h-3.74v-14.5h5.78q1.2 0 2.22.33 1 .33 1.72.96.75.63 1.15 1.52.4.87.4 1.93 0 1.4-.83 2.4-.8.97-2.36 1.4v.12zm-.8-3.9q0-.82-.55-1.25-.53-.43-1.36-.43h-1.64v3.3h1.73q.77 0 1.3-.4.5-.43.5-1.23z"/><path d="M786.9 250.23h.1l2.97-7.96h4.05l-6.18 14.5H786l-6.18-14.5h4.06l3 7.96z"/><path d="M801.18 256.78h-3.74v-14.5h3.74v14.5z"/><path d="M817.52 252.53l1.1 2.8q-1.13.85-2.56 1.3-1.44.44-3.05.44-1.72 0-3.15-.57-1.4-.6-2.42-1.6-.98-1.02-1.52-2.34-.54-1.35-.54-2.88 0-1.84.66-3.25.66-1.43 1.76-2.4 1.12-1.02 2.53-1.53 1.42-.52 2.9-.52 1.76 0 3.14.54 1.4.52 2.28 1.27l-1.13 2.86h-.12q-.66-.57-1.75-1-1.07-.43-2.4-.4-.77 0-1.5.28-.7.26-1.28.8-.55.55-.9 1.4-.34.8-.34 1.9 0 1 .33 1.77.32.76.86 1.3.54.55 1.3.84.76.25 1.65.25 1.2 0 2.13-.3.95-.3 1.9-.97h.14z"/><path d="M832.77 245.5h-6.56v2.4h5.7v3.1h-5.7v2.56h6.77v3.22h-10.5v-14.5h10.3v3.2z"/><path d="M837.53 252.4q.95.6 2.16 1.05 1.2.46 2.46.46 1 0 1.44-.36.46-.38.46-.8 0-.67-.72-1.04-.7-.38-2.1-1.04-1.1-.52-1.9-.98-.77-.5-1.3-1-.48-.55-.74-1.15-.23-.6-.23-1.38 0-.78.32-1.53.34-.74 1-1.32.66-.6 1.66-.95 1-.37 2.36-.37 1.53 0 2.82.37 1.3.38 2.3 1l-.86 3q-1.1-.58-2.16-.9-1.06-.3-2.07-.3-.83 0-1.2.3-.38.3-.38.7 0 .23.1.43.16.17.47.4.32.2.87.5.58.28 1.42.65 1.17.55 1.98 1.1.8.5 1.3 1.1.5.56.7 1.2.24.63.24 1.37 0 1.04-.46 1.8-.43.8-1.23 1.3-.78.53-1.87.78-1.1.3-2.4.3-1.9 0-3.35-.53-1.47-.54-2.13-1.15l1.03-3z"/></g><path fill="#a5a5a5" stroke="#000" stroke-width="3" d="M1035.4 573.5h251.93v177H1035.4z" opacity=".98" stroke-linejoin="round"/><path fill="#3896d6" stroke="#000" stroke-width="3" d="M1058.9 597h204.94v130H1058.9z" opacity=".98" stroke-linejoin="round"/><g fill="#fff" style="line-height:125%;-inkscape-font-specification:'Concourse C3, Semi-Bold';text-align:start" font-weight="600" font-size="28.75" font-family="Concourse C3" letter-spacing="0" word-spacing="0"><path d="M1089.54 662q0 2.24-.78 4.08-.77 1.84-2.13 3.2-1.35 1.32-3.16 2.06-1.78.72-3.8.72-1.98 0-3.8-.7-1.8-.68-3.15-1.97-1.35-1.33-2.16-3.2-.8-1.87-.8-4.2t.83-4.23q.83-1.9 2.2-3.24 1.4-1.38 3.17-2.13 1.8-.75 3.7-.75 1.96 0 3.74.75 1.8.72 3.15 2.07 1.38 1.35 2.18 3.28.8 1.9.8 4.25zm-4.03-.06q0-1.52-.45-2.73-.43-1.22-1.23-2.1-.78-.85-1.87-1.3-1.07-.5-2.3-.5-1.2 0-2.27.5-1.07.45-1.87 1.3-.77.88-1.23 2.1-.46 1.22-.46 2.74 0 1.6.53 2.85.52 1.2 1.32 2 .84.8 1.87 1.2 1.06.4 2.16.4 1.3 0 2.35-.45 1.1-.5 1.87-1.32.78-.86 1.18-2.04.43-1.22.43-2.66z"/><path d="M1107.4 665.4q0 1.26-.4 2.44t-1.27 2.1q-.84.9-2.1 1.43-1.27.55-3 .55-1.98 0-3.3-.55-1.3-.54-2.07-1.43-.77-.92-1.1-2.05-.28-1.16-.28-2.36v-8.43h3.74v7.95q0 1.84.83 2.64.84.77 2.2.77.62 0 1.17-.17.57-.2.97-.6.4-.44.63-1.07.23-.66.23-1.58v-7.94h3.73v8.3z"/><path d="M1119.5 660.33v11.3h-3.74v-11.3h-4.37v-3.22h12.46v3.23h-4.37z"/><path d="M1138.15 660.33h-6.56v2.42h5.68v3.1h-5.7v2.56h6.77v3.23h-10.5V657.1h10.3v3.23z"/><path d="M1149.7 660.33v11.3h-3.73v-11.3h-4.37v-3.22h12.47v3.23h-4.37z"/><path d="M1177.1 660.5l-3.2 11.13h-2.68l-6.35-19.55h4.17l3.62 12.05h.12l3.13-12.05h2.48l3.17 12.05h.1l3.66-12.05h4.18l-6.38 19.55h-2.68l-3.22-11.12h-.1z"/><path d="M1206.8 664.44q0 1.53-.56 2.9-.55 1.36-1.58 2.4-1 1-2.45 1.6-1.4.58-3.15.58-1.7 0-3.13-.58-1.44-.57-2.47-1.58-1.04-1-1.6-2.35-.6-1.37-.6-2.96 0-1.72.64-3.13.65-1.4 1.72-2.38 1.1-1 2.5-1.55 1.4-.54 2.93-.54 1.5 0 2.88.54 1.4.52 2.47 1.5 1.1.97 1.72 2.4.67 1.42.67 3.17zm-3.84-.05q0-.96-.3-1.74-.33-.8-.88-1.35-.54-.56-1.26-.88-.7-.32-1.5-.32-.74 0-1.46.3-.7.28-1.24.82-.55.55-.9 1.36-.3.77-.3 1.8 0 .84.25 1.62.26.74.75 1.35.5.57 1.24.95.74.34 1.75.34.8 0 1.5-.3.72-.27 1.24-.82.52-.55.8-1.32.32-.8.32-1.8z"/><path d="M1218.76 665.77l4.42 5.72v.13h-4.42l-3.97-5.6h-.38v5.6h-3.74V657.1h5.78q1.2 0 2.2.36 1.02.3 1.74.95.74.64 1.15 1.53.4.86.4 1.93 0 1.38-.84 2.38-.8.98-2.34 1.4v.13zm-.8-3.9q0-.82-.55-1.25-.5-.43-1.35-.43h-1.63v3.3h1.72q.78 0 1.3-.4.5-.44.5-1.24z"/><path d="M1230.53 666.17v5.46h-3.74V657.1h3.73V663h.1l4.76-5.87h4.22v.16l-5.98 7.07 6.46 7.16v.13h-4.57l-4.9-5.46h-.1z"/><path d="M1243.3 667.23q.96.6 2.17 1.07 1.2.46 2.47.46 1 0 1.44-.38.46-.37.46-.8 0-.66-.72-1.04-.7-.37-2.1-1.03-1.1-.5-1.9-.97-.77-.5-1.3-1-.48-.55-.74-1.16-.23-.6-.23-1.38 0-.78.32-1.53.34-.75 1-1.32.67-.6 1.67-.95 1-.37 2.36-.37 1.52 0 2.82.37 1.3.37 2.3 1l-.87 3q-1.1-.58-2.15-.9-1.07-.3-2.07-.3-.84 0-1.2.3-.38.3-.38.7 0 .22.1.43.16.17.47.4.32.2.86.5.58.27 1.4.65 1.2.54 2 1.1.8.5 1.3 1.08.5.58.7 1.2.24.64.24 1.4 0 1.03-.46 1.8-.43.78-1.24 1.3-.77.5-1.87.77-1.1.3-2.38.3-1.9 0-3.37-.53-1.46-.54-2.12-1.15l1.03-3.02z"/></g><path fill="#789440" stroke="#000" stroke-width="3" d="M664.9 1021.5h251.93v177H664.9z" opacity=".98" stroke-linejoin="round"/><path fill="#3896d6" stroke="#000" stroke-width="3" d="M688.4 1045h204.94v130H688.4z" opacity=".98" stroke-linejoin="round"/><g fill="#fff" style="line-height:125%;-inkscape-font-specification:'Concourse C3, Semi-Bold';text-align:center" font-weight="600" font-size="28.75" font-family="Concourse C3" letter-spacing="0" word-spacing="0" text-anchor="middle"><path d="M734.76 1091.4q1 .2 1.76.65.77.43 1.26 1.06.52.64.75 1.4.26.7.26 1.46 0 2.7-1.97 4.16-1.92 1.47-5.43 1.47h-5.92v-19.56h5.8q1.73 0 2.97.4 1.23.38 2 1.07.78.67 1.16 1.6.38.9.38 1.97 0 .55-.14 1.2-.15.64-.5 1.25-.34.6-.94 1.1-.57.45-1.44.65v.14zm-5.4 1.8v4.94H732q1.2 0 2-.66.76-.66.76-1.9 0-.63-.26-1.1-.23-.45-.63-.74-.4-.3-.92-.4-.52-.14-1.03-.14h-2.56zm4.4-5.5q0-1.15-.72-1.66-.72-.55-1.67-.55h-2v4.5h2.06q1 0 1.67-.6.66-.6.66-1.7z"/><path d="M750.8 1099.03h-5.22l-.95 2.56h-3.96l6.3-14.53h2.4l6.36 14.52h-3.97l-.97-2.57zm-4.2-2.73h3.18l-1.52-4.17h-.18l-1.5 4.17z"/><path d="M769.86 1097.34l1.1 2.78q-1.13.87-2.56 1.33-1.44.43-3.05.43-1.73 0-3.16-.58-1.42-.6-2.43-1.6-.98-1-1.52-2.34-.55-1.35-.55-2.87 0-1.85.66-3.26.66-1.44 1.76-2.4 1.12-1.02 2.53-1.54 1.4-.52 2.9-.52 1.75 0 3.13.55 1.4.52 2.28 1.27l-1.13 2.87h-.1q-.67-.57-1.76-1-1.07-.44-2.4-.4-.77 0-1.5.28-.7.26-1.28.8-.56.55-.9 1.38-.35.8-.35 1.9 0 1 .32 1.78.32.76.86 1.3.55.55 1.3.84.77.26 1.66.26 1.2 0 2.12-.3.95-.3 1.9-.96h.14z"/><path d="M778.55 1096.13v5.46h-3.73v-14.53h3.73v5.87h.1l4.76-5.87h4.24v.15l-5.98 7.07 6.47 7.15v.14h-4.57l-4.92-5.47h-.1z"/><path d="M800 1093.45l-2.5 8.14h-2.46l-5.46-14.53h4.06l2.64 8.4h.14l2.33-8.4h2.48l2.53 8.4h.14l2.44-8.4h4.06l-5.47 14.52h-2.44l-2.4-8.15h-.1z"/><path d="M821.26 1099.03h-5.2l-.96 2.56h-3.96l6.3-14.53h2.4l6.36 14.52h-3.97l-.97-2.57zm-4.2-2.73h3.2l-1.53-4.17h-.18l-1.5 4.17z"/><path d="M829.3 1097.2q.94.6 2.15 1.06 1.2.46 2.47.46 1 0 1.44-.38.46-.37.46-.8 0-.66-.72-1.04-.7-.37-2.1-1.03-1.1-.52-1.9-.98-.77-.5-1.3-1.02-.48-.54-.74-1.15-.23-.6-.23-1.38 0-.77.32-1.52.35-.75 1-1.32.67-.6 1.67-.94 1-.38 2.36-.38 1.53 0 2.82.38 1.3.37 2.3 1l-.86 3q-1.1-.58-2.16-.9-1.06-.3-2.07-.3-.82 0-1.2.3-.37.3-.37.7 0 .22.1.42.16.18.47.4.32.2.87.5.57.28 1.4.66 1.18.54 2 1.1.8.5 1.28 1.08.52.58.72 1.2.23.64.23 1.4 0 1.02-.46 1.8-.43.78-1.23 1.3-.77.5-1.86.77-1.1.28-2.4.28-1.9 0-3.35-.52-1.48-.55-2.14-1.15l1.03-3z"/><path d="M856.77 1101.6h-3.74v-5.7h-5.46v5.7h-3.74v-14.53h3.74v5.6h5.46v-5.6h3.74v14.52z"/><path d="M734.92 1132.6q.94.76 2.15 1.28 1.24.5 2.62.5 1.34 0 2-.65.66-.66.66-1.35 0-.52-.2-.92-.17-.43-.6-.83-.4-.4-1.1-.84-.66-.44-1.66-1-1.35-.76-2.27-1.42-.92-.7-1.5-1.38-.57-.72-.83-1.5-.26-.8-.26-1.84 0-.9.37-1.78.4-.92 1.2-1.64.77-.74 1.95-1.2 1.17-.5 2.76-.5.9 0 1.76.2.86.18 1.6.47.8.27 1.42.6.63.36 1.1.7l-1.1 3.22q-1.1-.7-2.22-1.12-1.1-.46-2.35-.46-.42 0-.86.1-.43.07-.77.27-.35.2-.58.5-.2.3-.2.72 0 .43.2.8.2.38.65.78.5.4 1.24.9.77.48 1.92 1.14 2.38 1.4 3.42 2.85 1.06 1.43 1.06 3.12 0 1.53-.6 2.6-.58 1.06-1.55 1.75-.95.66-2.16.97-1.22.32-2.43.32-.83 0-1.75-.17-.92-.16-1.75-.42-.84-.25-1.56-.6-.7-.34-1.16-.75l1.38-3.42z"/><path d="M761.2 1126.23h-6.57v2.4h5.7v3.12h-5.7v2.56h6.76v3.23h-10.5V1123h10.3v3.23z"/><path d="M773.9 1131.66l4.44 5.72v.15h-4.43l-3.96-5.6h-.37v5.6h-3.74V1123h5.78q1.22 0 2.22.35 1 .32 1.73.95.75.64 1.15 1.53.4.86.4 1.92 0 1.38-.83 2.4-.8.97-2.36 1.4v.1zm-.8-3.9q0-.8-.54-1.24-.52-.43-1.35-.43h-1.63v3.3h1.72q.77 0 1.3-.4.5-.44.5-1.25z"/><path d="M786.96 1130.97h.12l2.96-7.96h4.05l-6.2 14.53h-1.83L779.9 1123h4.05l3 7.97z"/><path d="M801.25 1137.53h-3.74V1123h3.75v14.53z"/><path d="M817.6 1133.27l1.08 2.8q-1.12.85-2.55 1.3-1.44.45-3.05.45-1.73 0-3.16-.58-1.4-.6-2.42-1.6-.98-1.02-1.52-2.34-.55-1.35-.55-2.87 0-1.84.66-3.25.65-1.44 1.75-2.42 1.12-1 2.53-1.52 1.4-.52 2.9-.52 1.75 0 3.13.55 1.42.52 2.28 1.26l-1.12 2.88h-.1q-.67-.57-1.77-1-1.07-.43-2.4-.4-.77 0-1.5.3-.7.25-1.28.8-.55.54-.9 1.37-.34.8-.34 1.9 0 1 .32 1.78.32.75.86 1.3.55.54 1.3.83.77.26 1.66.26 1.2 0 2.13-.3.95-.3 1.9-.97h.14z"/><path d="M832.84 1126.23h-6.56v2.4h5.7v3.12h-5.7v2.56h6.76v3.23h-10.5V1123h10.3v3.23z"/><path d="M837.6 1133.13q.95.6 2.16 1.06 1.2.45 2.47.45 1 0 1.44-.37.46-.37.46-.8 0-.67-.72-1.04-.68-.37-2.1-1.04-1.08-.5-1.88-.97-.78-.5-1.3-1-.5-.56-.75-1.16-.23-.6-.23-1.38 0-.8.32-1.53.35-.75 1-1.33.67-.6 1.67-.94 1-.38 2.36-.38 1.52 0 2.8.38 1.3.37 2.3 1l-.85 3q-1.1-.58-2.16-.9-1.07-.32-2.08-.32-.83 0-1.2.32-.38.3-.38.7 0 .22.1.42.16.17.47.4.33.2.88.5.57.28 1.4.65 1.18.55 2 1.1.8.5 1.28 1.1.52.56.72 1.2.23.63.23 1.38 0 1.03-.45 1.8-.43.78-1.23 1.3-.78.52-1.87.78-1.1.3-2.4.3-1.9 0-3.35-.53-1.47-.55-2.13-1.15l1.03-3.02z"/></g><path fill="none" stroke="#000" stroke-width="2" d="M1354.95-57.64h-54.9" stroke-linecap="round" marker-end="url(#r)" transform="translate(0 147.638)"/><path fill="none" stroke="#000" stroke-width="2" d="M1354.96 93.7V1111" stroke-linecap="round"/></g></svg>
