<svg xmlns="http://www.w3.org/2000/svg" width="311.057" height="308.166" version="1"><defs><path fill="#fff" fill-rule="evenodd" stroke="#fff" stroke-width=".973" d="M-45.3-66.57c157.18 66 256.5 34.3 338.94-.56"/></defs><text x="-596.797" y="-126.427" style="line-height:125%;-inkscape-font-specification:'Equity Caps B'" font-size="20" font-family="Equity Caps B" letter-spacing="0" word-spacing="0"/><text x="-363.434" y="-23.636" style="line-height:125%;-inkscape-font-specification:'Equity Caps B';text-align:start" font-size="72" font-family="Equity Caps B" letter-spacing="0" word-spacing="0"/><g transform="translate(-1566.168 2198.38)"><g fill="none" stroke="#000"><path d="M1721.7-2061.17v10"/><path d="M1726.7-2056.17h-10"/></g><path fill="none" stroke="#000" d="M1721.7-2056.17v-23"/><path fill="none" stroke="#000" d="M1721.9-2055.94l21.88-7.1"/><path fill="none" stroke="#000" d="M1721.9-2053.78l13.53 18.6"/><path fill="none" stroke="#000" d="M1721.6-2053.84l-13.5 18.6"/><path fill="none" stroke="#000" d="M1721.5-2055.94l-21.88-7.1"/><path fill="#fff" fill-rule="evenodd" stroke="#000" stroke-width="2" d="M1723.1-2056.52c26.24-5.64 64.87-16.75 71.1-48.15 6.64-33.38 16.18-63.53 23.8-82.48-15.7 13.08-41.43 31.47-71.14 48.08-27.95 15.63-26.53 55.84-23.77 82.55z" stroke-linejoin="round"/><path fill="#fff" fill-rule="evenodd" stroke="#000" stroke-width="2" d="M1722.67-2054.73c13.47 23.22 35.97 56.53 67.76 52.76 33.8-4 65.42-4.25 85.8-2.87-17.3-10.9-42.73-29.67-67.7-52.8-23.5-21.74-61.3-7.97-85.86 2.9z" stroke-linejoin="round"/><path fill="#fff" fill-rule="evenodd" stroke="#000" stroke-width="2" d="M1721-2052.67c-17.93 19.98-42.65 51.68-29.24 80.75 14.25 30.9 24.25 60.9 29.24 80.7 5-19.8 15-49.8 29.28-80.7 13.42-29.07-11.35-60.77-29.28-80.75z" stroke-linejoin="round"/><path fill="#fff" fill-rule="evenodd" stroke="#000" stroke-width="2" d="M1722.32-2056.52c-26.25-5.64-64.88-16.75-71.12-48.15-6.63-33.38-16.17-63.53-23.78-82.48 15.7 13.08 41.42 31.47 71.13 48.08 27.95 15.63 26.53 55.84 23.77 82.55z" stroke-linejoin="round"/><path fill="#fff" stroke="#000" stroke-width="2" d="M1721.5-2197.38c-21.02 0-54.8 1.8-64.37 27.05-6.98 18.4 9.58 34.75 20.16 50 11.9 17.17 23.58 39.6 44.38 40.66 0 0 0 0 .02 0 20.82-1.07 32.48-23.5 44.4-40.67 10.58-15.24 27.15-31.6 20.17-50-9.6-25.24-43.36-27.04-64.36-27.04h-.2s0 0-.02 0c-.06 0-.13 0-.2 0z" stroke-linecap="round"/><path fill-rule="evenodd" d="M1689.23-2181.97c-2.04.04-3.97.25-5.8.7-20.14 4.42-24.98 17.74-16.62 25.25-5.98-6.74-3.1-17.65 17.04-22.06 9.6-2.4 21.64 7.68 37.83 7.6.02 0 .04 0 .06 0 16.18.08 28.23-10 37.82-7.6 20.14 4.4 23.02 15.32 17.04 22.06 8.35-7.5 3.5-20.83-16.64-25.24-1.83-.46-3.76-.67-5.8-.7-8.66-.2-19.24 2.67-32.43 2.4-.02 0-.04 0-.06 0-13.2.27-23.78-2.6-32.44-2.4z"/><path fill="#fff" stroke="#000" stroke-width="2" d="M1856.14-2099.78c-6.5-19.98-18.64-51.54-45.62-52.85-19.65-.95-30.08 19.85-41.3 34.63-12.67 16.64-30.4 34.66-24.97 54.78 0 0 0 0 0 .02 7.45 19.47 32.38 23.63 52.4 29.66 17.77 5.35 38.44 16.05 53.78 3.73 21.05-16.93 12.33-49.6 5.84-69.58l-.06-.18s0-.02 0-.03c-.02-.05-.04-.12-.06-.18z" stroke-linecap="round"/><path fill-rule="evenodd" d="M1831.5-2125.7c-.65-1.92-1.45-3.7-2.45-5.3-10.42-17.78-24.6-18.28-29.14-8 4.57-7.78 15.83-8.4 26.25 9.38 5.24 8.4-.62 22.95 4.46 38.32.02.02.03.04.03.06 4.92 15.42 18.23 23.76 18.9 33.63 2.04 20.5-7.44 26.6-15.7 23 9.73 5.64 20.9-3.1 18.87-23.6-.13-1.9-.53-3.8-1.12-5.74-2.5-8.3-8.5-17.47-12.32-30.1 0-.02 0-.04-.02-.06-4.33-12.47-4.88-23.4-7.73-31.6z"/><path fill="#fff" fill-rule="evenodd" stroke="#000" stroke-width="2" d="M1720.72-2054.73c-13.46 23.22-35.97 56.53-67.76 52.76-33.8-4-65.42-4.25-85.8-2.87 17.3-10.9 42.73-29.67 67.7-52.8 23.5-21.74 61.32-7.97 85.86 2.9z" stroke-linejoin="round"/><path fill="#fff" stroke="#000" stroke-width="2" d="M1587.26-2099.78c6.5-19.98 18.63-51.54 45.6-52.85 19.67-.95 30.1 19.85 41.33 34.63 12.64 16.64 30.36 34.66 24.95 54.78 0 0 0 0 0 .02-7.46 19.47-32.4 23.63-52.4 29.66-17.77 5.35-38.44 16.05-53.78 3.73-21.06-16.93-12.33-49.6-5.84-69.58l.06-.18s0-.02 0-.03c.02-.05.04-.12.06-.18z" stroke-linecap="round"/><path fill-rule="evenodd" d="M1611.88-2125.7c.67-1.92 1.46-3.7 2.47-5.3 10.42-17.78 24.58-18.28 29.14-8-4.57-7.78-15.83-8.4-26.25 9.38-5.25 8.4.6 22.95-4.47 38.32 0 .02 0 .04-.02.06-4.92 15.42-18.22 23.76-18.9 33.63-2.04 20.5 7.45 26.6 15.7 23-9.72 5.64-20.9-3.1-18.86-23.6.13-1.9.52-3.8 1.1-5.74 2.52-8.3 8.5-17.47 12.33-30.1 0-.02.02-.04.02-.06 4.33-12.47 4.88-23.4 7.73-31.6z"/><path fill="#fff" stroke="#000" stroke-width="2" d="M1805.08-1939.66c17-12.34 43.26-33.65 36.17-59.7-5.16-19-28.18-22.5-45.7-28.6-19.74-6.9-42.35-18.18-59.8-6.8 0 0-.02 0-.03 0-16.2 13.1-12.47 38.1-12.02 59 .4 18.55-3.4 41.5 13.08 52.3 22.6 14.8 50.97-3.6 67.97-15.95l.15-.12s.02-.02.03-.02c.05-.04.1-.08.15-.12z" stroke-linecap="round"/><path fill-rule="evenodd" d="M1822.13-1971.1c1.62-1.22 3.05-2.52 4.27-3.97 13.7-15.4 9.8-29.03-1.4-30.18 8.8 1.93 12.9 12.44-.8 27.85-6.36 7.58-22.03 6.5-35.07 16.1-.02 0-.03 0-.05.03-13.14 9.44-16.96 24.67-26.14 28.37-18.88 8.27-27.62 1.14-26.74-7.83-2.35 11 9.4 18.92 28.28 10.65 1.75-.7 3.44-1.67 5.1-2.83 7.12-4.96 14-13.5 24.83-21.04.03 0 .05-.02.06-.03 10.52-7.97 20.76-11.88 27.67-17.12z"/><path fill="#fff" stroke="#000" stroke-width="2" d="M1638.78-1939.47c17 12.34 45.37 30.74 67.97 15.94 16.46-10.78 12.67-33.74 13.07-52.3.46-20.9 4.2-45.9-12-59-.02 0-.02 0-.02 0-17.47-11.37-40.1-.1-59.83 6.8-17.52 6.12-40.53 9.6-45.7 28.6-7.1 26.06 19.18 47.36 36.17 59.7l.16.12s.02 0 .03 0c.05.05.1.1.15.13z" stroke-linecap="round"/><path fill-rule="evenodd" d="M1673.94-1932.98c1.67 1.17 3.35 2.13 5.1 2.84 18.9 8.27 30.64.34 28.3-10.65.87 8.98-7.87 16.1-26.76 7.84-9.17-3.7-13-18.93-26.13-28.38-.02 0-.04-.02-.06-.03-13.05-9.6-28.7-8.5-35.07-16.1-13.7-15.4-9.62-25.9-.82-27.85-11.16 1.16-15.07 14.8-1.37 30.2 1.2 1.44 2.65 2.74 4.27 3.97 6.9 5.24 17.15 9.15 27.66 17.12.02 0 .04.02.05.03 10.84 7.54 17.73 16.08 24.84 21.02z"/><g><path fill="none" stroke="#000" stroke-width="1.8.424" d="M1722.33-2056.14c11.85 2.55 29.3 7.58 32.12 21.78 3 15.1 7.3 28.74 10.74 37.3-7.1-5.9-18.72-14.22-32.14-21.74-12.62-7.07-11.98-25.25-10.73-37.34z" stroke-linejoin="round"/><path fill="none" stroke="#000" stroke-width="1.8.424" d="M1722.14-2056.95c6.08-10.5 16.25-25.57 30.6-23.87 15.27 1.82 29.56 1.93 38.76 1.3-7.8 4.93-19.3 13.43-30.58 23.88-10.62 9.84-27.7 3.6-38.78-1.3z" stroke-linejoin="round"/><path fill="none" stroke="#000" stroke-width="1.8.424" d="M1721.38-2057.88c-8.1-9.04-19.26-23.38-13.2-36.53 6.43-14 10.95-27.56 13.2-36.52 2.27 8.96 6.78 22.53 13.23 36.5 6.07 13.16-5.12 27.5-13.22 36.54z" stroke-linejoin="round"/><path fill="none" stroke="#000" stroke-width="1.8.424" d="M1721.98-2056.14c-11.86 2.55-29.3 7.58-32.13 21.78-3 15.1-7.3 28.74-10.74 37.3 7.1-5.9 18.72-14.22 32.14-21.74 12.63-7.07 12-25.25 10.74-37.34z" stroke-linejoin="round"/><g><path fill="#fff" stroke="#000" stroke-width=".9.212" d="M1721.56-1993.17c-9.5 0-24.76-.8-29.1-12.22-3.15-8.3 4.34-15.7 9.12-22.6 5.4-7.76 10.66-17.9 20.06-18.37 0 0 .02 0 .02 0 9.4.48 14.68 10.6 20.06 18.38 4.78 6.9 12.27 14.3 9.12 22.6-4.34 11.42-19.6 12.23-29.1 12.23h-.08s0 0-.02 0-.05 0-.08 0z" stroke-linecap="round" stroke-linejoin="round"/><path fill-rule="evenodd" d="M1706.98-2000.13c-.92-.02-1.8-.12-2.62-.32-9.1-2-11.3-8.02-7.52-11.4-2.7 3.03-1.4 7.96 7.7 9.96 4.34 1.1 9.78-3.46 17.1-3.42 0 0 .02 0 .03 0 7.3-.04 12.76 4.5 17.1 3.43 9.1-2 10.4-6.92 7.7-9.96 3.77 3.4 1.58 9.4-7.52 11.4-.83.2-1.7.3-2.62.33-3.92.08-8.7-1.2-14.66-1.1 0 0-.02 0-.03 0-5.97-.1-10.75 1.18-14.66 1.1z"/></g><g><path fill="#fff" stroke="#000" stroke-width=".9.212" d="M1783.15-2036.18c-2.94 9.03-8.44 23.3-20.64 23.9-8.88.4-13.6-9-18.66-15.68-5.72-7.53-13.73-15.7-11.28-24.78 0 0 0 0 0-.02 3.38-8.8 14.65-10.67 23.7-13.4 8.05-2.4 17.4-7.24 24.33-1.66 9.5 7.66 5.55 22.43 2.6 31.46l-.02.08s0 0 0 .02c0 .03-.02.05-.03.08z" stroke-linecap="round" stroke-linejoin="round"/><path fill-rule="evenodd" d="M1772-2024.46c-.3.87-.65 1.66-1.1 2.4-4.72 8.03-11.13 8.25-13.2 3.6 2.07 3.52 7.16 3.8 11.88-4.23 2.38-3.78-.27-10.37 2.03-17.32 0 0 .02-.02.02-.03 2.23-6.97 8.25-10.74 8.56-15.2.92-9.28-3.36-12.04-7.1-10.4 4.4-2.56 9.45 1.4 8.53 10.67-.05.85-.23 1.7-.5 2.6-1.14 3.74-3.85 7.9-5.58 13.6 0 0 0 .02 0 .03-1.97 5.63-2.22 10.6-3.5 14.3z"/></g><path fill="none" stroke="#000" stroke-width="1.8.424" d="M1721.26-2056.95c-6.1-10.5-16.25-25.57-30.6-23.87-15.28 1.82-29.56 1.93-38.77 1.3 7.8 4.93 19.3 13.43 30.58 23.88 10.6 9.84 27.7 3.6 38.78-1.3z" stroke-linejoin="round"/><g><path fill="#fff" stroke="#000" stroke-width=".9.212" d="M1660.24-2036.18c2.94 9.03 8.44 23.3 20.64 23.9 8.9.4 13.6-9 18.68-15.68 5.72-7.53 13.73-15.7 11.27-24.78 0 0 0 0 0-.02-3.37-8.8-14.65-10.67-23.7-13.4-8.04-2.4-17.4-7.24-24.32-1.66-9.5 7.66-5.56 22.43-2.62 31.46l.03.08s0 0 .02.02c0 .03 0 .05.02.08z" stroke-linecap="round" stroke-linejoin="round"/><path fill-rule="evenodd" d="M1671.38-2024.46c.3.87.67 1.66 1.12 2.4 4.72 8.03 11.12 8.25 13.18 3.6-2.06 3.52-7.15 3.8-11.87-4.23-2.36-3.78.3-10.37-2.02-17.32 0 0 0-.02 0-.03-2.24-6.97-8.25-10.74-8.57-15.2-.9-9.28 3.38-12.04 7.1-10.4-4.4-2.56-9.44 1.4-8.5 10.67.05.85.23 1.7.5 2.6 1.13 3.74 3.84 7.9 5.57 13.6 0 0 0 .02 0 .03 1.97 5.63 2.23 10.6 3.5 14.3z"/></g><g><path fill="#fff" stroke="#000" stroke-width=".9.212" d="M1760.28-2109.04c7.67 5.6 19.5 15.23 16.3 27.02-2.35 8.6-12.75 10.17-20.66 12.93-8.92 3.13-19.14 8.23-27.02 3.1 0 0 0-.02 0-.02-7.32-5.92-5.62-17.23-5.4-26.7.2-8.38-1.5-18.77 5.94-23.65 10.22-6.7 23.02 1.63 30.7 7.22l.06.05c.03.03.06.04.08.06z" stroke-linecap="round" stroke-linejoin="round"/><path fill-rule="evenodd" d="M1767.96-2094.82c.73.56 1.38 1.15 1.92 1.8 6.18 6.97 4.4 13.14-.64 13.66 3.97-.87 5.83-5.63-.35-12.6-2.88-3.43-9.95-2.95-15.84-7.28 0 0 0 0-.02-.02-5.93-4.27-7.65-11.17-11.8-12.84-8.5-3.74-12.46-.52-12.07 3.54-1.06-4.97 4.25-8.56 12.78-4.82.8.32 1.55.76 2.3 1.3 3.2 2.23 6.32 6.1 11.2 9.5 0 0 .02 0 .02.02 4.75 3.6 9.37 5.37 12.5 7.74z"/></g><g><path fill="#fff" stroke="#000" stroke-width=".9.212" d="M1683.18-2109.16c7.67-5.58 20.47-13.9 30.7-7.22 7.43 4.88 5.73 15.27 5.93 23.67.23 9.44 1.93 20.75-5.38 26.68-7.9 5.15-18.1.05-27.03-3.07-7.92-2.76-18.32-4.33-20.67-12.93-3.2-11.8 8.63-21.43 16.3-27.02l.07-.05c.04-.02.06-.04.08-.06z" stroke-linecap="round" stroke-linejoin="round"/><path fill-rule="evenodd" d="M1699.06-2112.1c.75-.52 1.5-.96 2.3-1.28 8.53-3.74 13.84-.16 12.78 4.82.4-4.06-3.56-7.3-12.08-3.55-4.14 1.67-5.86 8.56-11.8 12.83 0 0 0 .02 0 .02-5.9 4.34-12.97 3.85-15.84 7.28-6.18 6.98-4.32 11.73-.35 12.6-5.05-.52-6.82-6.68-.64-13.65.54-.66 1.2-1.25 1.92-1.8 3.12-2.37 7.74-4.14 12.5-7.75 0 0 0 0 0-.02 4.9-3.4 8-7.26 11.2-9.5z"/></g></g><circle cx="1721.697" cy="-2055.918" r="29.95" stroke="#000" stroke-width=".1" stroke-linecap="round" stroke-linejoin="round"/><path fill-rule="evenodd" d="M1721.7-2102.6l-2 18h4l-2-18"/><path fill-rule="evenodd" d="M1721.7-2009.24l-2-18h4l-2 18"/><path fill-rule="evenodd" d="M1765.7-2071.17l-17.74 3.66 1.24 3.8 16.5-7.47"/><path fill-rule="evenodd" d="M1677.3-2041.5l16.5-7.46 1.24 3.8-17.73 3.66"/><path fill-rule="evenodd" d="M1749.34-2018.34l-8.97-15.73-3.23 2.35 12.2 13.38"/><path fill-rule="evenodd" d="M1694.26-2093.68l12.2 13.4-3.24 2.34-8.96-15.74"/><path fill-rule="evenodd" d="M1693.9-2018.05l12.2-13.4-3.24-2.34-8.96 15.75"/><path fill-rule="evenodd" d="M1749.13-2093.68l-8.96 15.74-3.24-2.35 12.2-13.38"/><path fill-rule="evenodd" d="M1677.83-2071.1l16.5 7.47 1.24-3.8-17.74-3.66"/><path fill-rule="evenodd" d="M1766.1-2041.5l-17.75-3.66 1.24-3.8 16.5 7.46"/></g><g transform="translate(-888.884 2127.068)"><g fill="none" stroke="#000"><path d="M1721.7-2061.17v10"/><path d="M1726.7-2056.17h-10"/></g><path fill="none" stroke="#000" d="M1721.7-2056.17v-23"/><path fill="none" stroke="#000" d="M1721.9-2055.94l21.88-7.1"/><path fill="none" stroke="#000" d="M1721.9-2053.78l13.53 18.6"/><path fill="none" stroke="#000" d="M1721.6-2053.84l-13.5 18.6"/><path fill="none" stroke="#000" d="M1721.5-2055.94l-21.88-7.1"/><path fill="#fff" fill-rule="evenodd" stroke="#000" stroke-width="2" d="M1723.1-2056.52c26.24-5.64 64.87-16.75 71.1-48.15 6.64-33.38 16.18-63.53 23.8-82.48-15.7 13.08-41.43 31.47-71.14 48.08-27.95 15.63-26.53 55.84-23.77 82.55z" stroke-linejoin="round"/><path fill="#fff" fill-rule="evenodd" stroke="#000" stroke-width="2" d="M1722.67-2054.73c13.47 23.22 35.97 56.53 67.76 52.76 33.8-4 65.42-4.25 85.8-2.87-17.3-10.9-42.73-29.67-67.7-52.8-23.5-21.74-61.3-7.97-85.86 2.9z" stroke-linejoin="round"/><path fill="#fff" fill-rule="evenodd" stroke="#000" stroke-width="2" d="M1721-2052.67c-17.93 19.98-42.65 51.68-29.24 80.75 14.25 30.9 24.25 60.9 29.24 80.7 5-19.8 15-49.8 29.28-80.7 13.42-29.07-11.35-60.77-29.28-80.75z" stroke-linejoin="round"/><path fill="#fff" fill-rule="evenodd" stroke="#000" stroke-width="2" d="M1722.32-2056.52c-26.25-5.64-64.88-16.75-71.12-48.15-6.63-33.38-16.17-63.53-23.78-82.48 15.7 13.08 41.42 31.47 71.13 48.08 27.95 15.63 26.53 55.84 23.77 82.55z" stroke-linejoin="round"/><path fill="#fff" stroke="#000" stroke-width="2" d="M1721.5-2197.38c-21.02 0-54.8 1.8-64.37 27.05-6.98 18.4 9.58 34.75 20.16 50 11.9 17.17 23.58 39.6 44.38 40.66 0 0 0 0 .02 0 20.82-1.07 32.48-23.5 44.4-40.67 10.58-15.24 27.15-31.6 20.17-50-9.6-25.24-43.36-27.04-64.36-27.04h-.2s0 0-.02 0c-.06 0-.13 0-.2 0z" stroke-linecap="round"/><path fill-rule="evenodd" d="M1689.23-2181.97c-2.04.04-3.97.25-5.8.7-20.14 4.42-24.98 17.74-16.62 25.25-5.98-6.74-3.1-17.65 17.04-22.06 9.6-2.4 21.64 7.68 37.83 7.6.02 0 .04 0 .06 0 16.18.08 28.23-10 37.82-7.6 20.14 4.4 23.02 15.32 17.04 22.06 8.35-7.5 3.5-20.83-16.64-25.24-1.83-.46-3.76-.67-5.8-.7-8.66-.2-19.24 2.67-32.43 2.4-.02 0-.04 0-.06 0-13.2.27-23.78-2.6-32.44-2.4z"/><path fill="#fff" stroke="#000" stroke-width="2" d="M1856.14-2099.78c-6.5-19.98-18.64-51.54-45.62-52.85-19.65-.95-30.08 19.85-41.3 34.63-12.67 16.64-30.4 34.66-24.97 54.78 0 0 0 0 0 .02 7.45 19.47 32.38 23.63 52.4 29.66 17.77 5.35 38.44 16.05 53.78 3.73 21.05-16.93 12.33-49.6 5.84-69.58l-.06-.18s0-.02 0-.03c-.02-.05-.04-.12-.06-.18z" stroke-linecap="round"/><path fill-rule="evenodd" d="M1831.5-2125.7c-.65-1.92-1.45-3.7-2.45-5.3-10.42-17.78-24.6-18.28-29.14-8 4.57-7.78 15.83-8.4 26.25 9.38 5.24 8.4-.62 22.95 4.46 38.32.02.02.03.04.03.06 4.92 15.42 18.23 23.76 18.9 33.63 2.04 20.5-7.44 26.6-15.7 23 9.73 5.64 20.9-3.1 18.87-23.6-.13-1.9-.53-3.8-1.12-5.74-2.5-8.3-8.5-17.47-12.32-30.1 0-.02 0-.04-.02-.06-4.33-12.47-4.88-23.4-7.73-31.6z"/><path fill="#fff" fill-rule="evenodd" stroke="#000" stroke-width="2" d="M1720.72-2054.73c-13.46 23.22-35.97 56.53-67.76 52.76-33.8-4-65.42-4.25-85.8-2.87 17.3-10.9 42.73-29.67 67.7-52.8 23.5-21.74 61.32-7.97 85.86 2.9z" stroke-linejoin="round"/><path fill="#fff" stroke="#000" stroke-width="2" d="M1587.26-2099.78c6.5-19.98 18.63-51.54 45.6-52.85 19.67-.95 30.1 19.85 41.33 34.63 12.64 16.64 30.36 34.66 24.95 54.78 0 0 0 0 0 .02-7.46 19.47-32.4 23.63-52.4 29.66-17.77 5.35-38.44 16.05-53.78 3.73-21.06-16.93-12.33-49.6-5.84-69.58l.06-.18s0-.02 0-.03c.02-.05.04-.12.06-.18z" stroke-linecap="round"/><path fill-rule="evenodd" d="M1611.88-2125.7c.67-1.92 1.46-3.7 2.47-5.3 10.42-17.78 24.58-18.28 29.14-8-4.57-7.78-15.83-8.4-26.25 9.38-5.25 8.4.6 22.95-4.47 38.32 0 .02 0 .04-.02.06-4.92 15.42-18.22 23.76-18.9 33.63-2.04 20.5 7.45 26.6 15.7 23-9.72 5.64-20.9-3.1-18.86-23.6.13-1.9.52-3.8 1.1-5.74 2.52-8.3 8.5-17.47 12.33-30.1 0-.02.02-.04.02-.06 4.33-12.47 4.88-23.4 7.73-31.6z"/><path fill="#fff" stroke="#000" stroke-width="2" d="M1805.08-1939.66c17-12.34 43.26-33.65 36.17-59.7-5.16-19-28.18-22.5-45.7-28.6-19.74-6.9-42.35-18.18-59.8-6.8 0 0-.02 0-.03 0-16.2 13.1-12.47 38.1-12.02 59 .4 18.55-3.4 41.5 13.08 52.3 22.6 14.8 50.97-3.6 67.97-15.95l.15-.12s.02-.02.03-.02c.05-.04.1-.08.15-.12z" stroke-linecap="round"/><path fill-rule="evenodd" d="M1822.13-1971.1c1.62-1.22 3.05-2.52 4.27-3.97 13.7-15.4 9.8-29.03-1.4-30.18 8.8 1.93 12.9 12.44-.8 27.85-6.36 7.58-22.03 6.5-35.07 16.1-.02 0-.03 0-.05.03-13.14 9.44-16.96 24.67-26.14 28.37-18.88 8.27-27.62 1.14-26.74-7.83-2.35 11 9.4 18.92 28.28 10.65 1.75-.7 3.44-1.67 5.1-2.83 7.12-4.96 14-13.5 24.83-21.04.03 0 .05-.02.06-.03 10.52-7.97 20.76-11.88 27.67-17.12z"/><path fill="#fff" stroke="#000" stroke-width="2" d="M1638.78-1939.47c17 12.34 45.37 30.74 67.97 15.94 16.46-10.78 12.67-33.74 13.07-52.3.46-20.9 4.2-45.9-12-59-.02 0-.02 0-.02 0-17.47-11.37-40.1-.1-59.83 6.8-17.52 6.12-40.53 9.6-45.7 28.6-7.1 26.06 19.18 47.36 36.17 59.7l.16.12s.02 0 .03 0c.05.05.1.1.15.13z" stroke-linecap="round"/><path fill-rule="evenodd" d="M1673.94-1932.98c1.67 1.17 3.35 2.13 5.1 2.84 18.9 8.27 30.64.34 28.3-10.65.87 8.98-7.87 16.1-26.76 7.84-9.17-3.7-13-18.93-26.13-28.38-.02 0-.04-.02-.06-.03-13.05-9.6-28.7-8.5-35.07-16.1-13.7-15.4-9.62-25.9-.82-27.85-11.16 1.16-15.07 14.8-1.37 30.2 1.2 1.44 2.65 2.74 4.27 3.97 6.9 5.24 17.15 9.15 27.66 17.12.02 0 .04.02.05.03 10.84 7.54 17.73 16.08 24.84 21.02z"/><g><path fill="none" stroke="#000" stroke-width="1.8.424" d="M1722.33-2056.14c11.85 2.55 29.3 7.58 32.12 21.78 3 15.1 7.3 28.74 10.74 37.3-7.1-5.9-18.72-14.22-32.14-21.74-12.62-7.07-11.98-25.25-10.73-37.34z" stroke-linejoin="round"/><path fill="none" stroke="#000" stroke-width="1.8.424" d="M1722.14-2056.95c6.08-10.5 16.25-25.57 30.6-23.87 15.27 1.82 29.56 1.93 38.76 1.3-7.8 4.93-19.3 13.43-30.58 23.88-10.62 9.84-27.7 3.6-38.78-1.3z" stroke-linejoin="round"/><path fill="none" stroke="#000" stroke-width="1.8.424" d="M1721.38-2057.88c-8.1-9.04-19.26-23.38-13.2-36.53 6.43-14 10.95-27.56 13.2-36.52 2.27 8.96 6.78 22.53 13.23 36.5 6.07 13.16-5.12 27.5-13.22 36.54z" stroke-linejoin="round"/><path fill="none" stroke="#000" stroke-width="1.8.424" d="M1721.98-2056.14c-11.86 2.55-29.3 7.58-32.13 21.78-3 15.1-7.3 28.74-10.74 37.3 7.1-5.9 18.72-14.22 32.14-21.74 12.63-7.07 12-25.25 10.74-37.34z" stroke-linejoin="round"/><g><path fill="#fff" stroke="#000" stroke-width=".9.212" d="M1721.56-1993.17c-9.5 0-24.76-.8-29.1-12.22-3.15-8.3 4.34-15.7 9.12-22.6 5.4-7.76 10.66-17.9 20.06-18.37 0 0 .02 0 .02 0 9.4.48 14.68 10.6 20.06 18.38 4.78 6.9 12.27 14.3 9.12 22.6-4.34 11.42-19.6 12.23-29.1 12.23h-.08s0 0-.02 0-.05 0-.08 0z" stroke-linecap="round" stroke-linejoin="round"/><path fill-rule="evenodd" d="M1706.98-2000.13c-.92-.02-1.8-.12-2.62-.32-9.1-2-11.3-8.02-7.52-11.4-2.7 3.03-1.4 7.96 7.7 9.96 4.34 1.1 9.78-3.46 17.1-3.42 0 0 .02 0 .03 0 7.3-.04 12.76 4.5 17.1 3.43 9.1-2 10.4-6.92 7.7-9.96 3.77 3.4 1.58 9.4-7.52 11.4-.83.2-1.7.3-2.62.33-3.92.08-8.7-1.2-14.66-1.1 0 0-.02 0-.03 0-5.97-.1-10.75 1.18-14.66 1.1z"/></g><g><path fill="#fff" stroke="#000" stroke-width=".9.212" d="M1783.15-2036.18c-2.94 9.03-8.44 23.3-20.64 23.9-8.88.4-13.6-9-18.66-15.68-5.72-7.53-13.73-15.7-11.28-24.78 0 0 0 0 0-.02 3.38-8.8 14.65-10.67 23.7-13.4 8.05-2.4 17.4-7.24 24.33-1.66 9.5 7.66 5.55 22.43 2.6 31.46l-.02.08s0 0 0 .02c0 .03-.02.05-.03.08z" stroke-linecap="round" stroke-linejoin="round"/><path fill-rule="evenodd" d="M1772-2024.46c-.3.87-.65 1.66-1.1 2.4-4.72 8.03-11.13 8.25-13.2 3.6 2.07 3.52 7.16 3.8 11.88-4.23 2.38-3.78-.27-10.37 2.03-17.32 0 0 .02-.02.02-.03 2.23-6.97 8.25-10.74 8.56-15.2.92-9.28-3.36-12.04-7.1-10.4 4.4-2.56 9.45 1.4 8.53 10.67-.05.85-.23 1.7-.5 2.6-1.14 3.74-3.85 7.9-5.58 13.6 0 0 0 .02 0 .03-1.97 5.63-2.22 10.6-3.5 14.3z"/></g><path fill="none" stroke="#000" stroke-width="1.8.424" d="M1721.26-2056.95c-6.1-10.5-16.25-25.57-30.6-23.87-15.28 1.82-29.56 1.93-38.77 1.3 7.8 4.93 19.3 13.43 30.58 23.88 10.6 9.84 27.7 3.6 38.78-1.3z" stroke-linejoin="round"/><g><path fill="#fff" stroke="#000" stroke-width=".9.212" d="M1660.24-2036.18c2.94 9.03 8.44 23.3 20.64 23.9 8.9.4 13.6-9 18.68-15.68 5.72-7.53 13.73-15.7 11.27-24.78 0 0 0 0 0-.02-3.37-8.8-14.65-10.67-23.7-13.4-8.04-2.4-17.4-7.24-24.32-1.66-9.5 7.66-5.56 22.43-2.62 31.46l.03.08s0 0 .02.02c0 .03 0 .05.02.08z" stroke-linecap="round" stroke-linejoin="round"/><path fill-rule="evenodd" d="M1671.38-2024.46c.3.87.67 1.66 1.12 2.4 4.72 8.03 11.12 8.25 13.18 3.6-2.06 3.52-7.15 3.8-11.87-4.23-2.36-3.78.3-10.37-2.02-17.32 0 0 0-.02 0-.03-2.24-6.97-8.25-10.74-8.57-15.2-.9-9.28 3.38-12.04 7.1-10.4-4.4-2.56-9.44 1.4-8.5 10.67.05.85.23 1.7.5 2.6 1.13 3.74 3.84 7.9 5.57 13.6 0 0 0 .02 0 .03 1.97 5.63 2.23 10.6 3.5 14.3z"/></g><g><path fill="#fff" stroke="#000" stroke-width=".9.212" d="M1760.28-2109.04c7.67 5.6 19.5 15.23 16.3 27.02-2.35 8.6-12.75 10.17-20.66 12.93-8.92 3.13-19.14 8.23-27.02 3.1 0 0 0-.02 0-.02-7.32-5.92-5.62-17.23-5.4-26.7.2-8.38-1.5-18.77 5.94-23.65 10.22-6.7 23.02 1.63 30.7 7.22l.06.05c.03.03.06.04.08.06z" stroke-linecap="round" stroke-linejoin="round"/><path fill-rule="evenodd" d="M1767.96-2094.82c.73.56 1.38 1.15 1.92 1.8 6.18 6.97 4.4 13.14-.64 13.66 3.97-.87 5.83-5.63-.35-12.6-2.88-3.43-9.95-2.95-15.84-7.28 0 0 0 0-.02-.02-5.93-4.27-7.65-11.17-11.8-12.84-8.5-3.74-12.46-.52-12.07 3.54-1.06-4.97 4.25-8.56 12.78-4.82.8.32 1.55.76 2.3 1.3 3.2 2.23 6.32 6.1 11.2 9.5 0 0 .02 0 .02.02 4.75 3.6 9.37 5.37 12.5 7.74z"/></g><g><path fill="#fff" stroke="#000" stroke-width=".9.212" d="M1683.18-2109.16c7.67-5.58 20.47-13.9 30.7-7.22 7.43 4.88 5.73 15.27 5.93 23.67.23 9.44 1.93 20.75-5.38 26.68-7.9 5.15-18.1.05-27.03-3.07-7.92-2.76-18.32-4.33-20.67-12.93-3.2-11.8 8.63-21.43 16.3-27.02l.07-.05c.04-.02.06-.04.08-.06z" stroke-linecap="round" stroke-linejoin="round"/><path fill-rule="evenodd" d="M1699.06-2112.1c.75-.52 1.5-.96 2.3-1.28 8.53-3.74 13.84-.16 12.78 4.82.4-4.06-3.56-7.3-12.08-3.55-4.14 1.67-5.86 8.56-11.8 12.83 0 0 0 .02 0 .02-5.9 4.34-12.97 3.85-15.84 7.28-6.18 6.98-4.32 11.73-.35 12.6-5.05-.52-6.82-6.68-.64-13.65.54-.66 1.2-1.25 1.92-1.8 3.12-2.37 7.74-4.14 12.5-7.75 0 0 0 0 0-.02 4.9-3.4 8-7.26 11.2-9.5z"/></g></g><circle cx="1721.697" cy="-2055.918" r="29.95" stroke="#000" stroke-width=".1" stroke-linecap="round" stroke-linejoin="round"/><path fill-rule="evenodd" d="M1721.7-2102.6l-2 18h4l-2-18"/><path fill-rule="evenodd" d="M1721.7-2009.24l-2-18h4l-2 18"/><path fill-rule="evenodd" d="M1765.7-2071.17l-17.74 3.66 1.24 3.8 16.5-7.47"/><path fill-rule="evenodd" d="M1677.3-2041.5l16.5-7.46 1.24 3.8-17.73 3.66"/><path fill-rule="evenodd" d="M1749.34-2018.34l-8.97-15.73-3.23 2.35 12.2 13.38"/><path fill-rule="evenodd" d="M1694.26-2093.68l12.2 13.4-3.24 2.34-8.96-15.74"/><path fill-rule="evenodd" d="M1693.9-2018.05l12.2-13.4-3.24-2.34-8.96 15.75"/><path fill-rule="evenodd" d="M1749.13-2093.68l-8.96 15.74-3.24-2.35 12.2-13.38"/><path fill-rule="evenodd" d="M1677.83-2071.1l16.5 7.47 1.24-3.8-17.74-3.66"/><path fill-rule="evenodd" d="M1766.1-2041.5l-17.75-3.66 1.24-3.8 16.5 7.46"/></g></svg>
