<?xml version="1.0" standalone="no"?>
<!DOCTYPE svg PUBLIC "-//W3C//DTD SVG 20010904//EN"
 "http://www.w3.org/TR/2001/REC-SVG-20010904/DTD/svg10.dtd">
<svg version="1.0" xmlns="http://www.w3.org/2000/svg"
 width="700.000000pt" height="700.000000pt" viewBox="0 0 700.000000 700.000000"
 preserveAspectRatio="xMidYMid meet">
<metadata>
Created by potrace 1.11, written by Peter Selinger 2001-2013
</metadata>
<g transform="translate(0.000000,700.000000) scale(0.100000,-0.100000)"
fill="#000000" stroke="none">
<path d="M0 3500 l0 -3500 3500 0 3500 0 0 3500 0 3500 -3500 0 -3500 0 0
-3500z m2355 2580 c145 -12 253 -33 360 -70 332 -114 594 -368 735 -714 37
-91 52 -135 81 -246 l11 -45 24 95 c95 392 351 719 688 879 165 78 292 104
511 103 174 -1 306 -17 451 -56 230 -62 526 -208 736 -363 56 -42 56 -42 48
-80 -5 -21 -63 -283 -130 -583 -66 -300 -123 -553 -126 -563 -5 -15 -15 -10
-67 36 -286 248 -600 387 -870 387 -145 0 -247 -42 -282 -117 -13 -26 -19 -61
-19 -113 -1 -106 24 -156 127 -257 102 -100 189 -166 434 -327 241 -158 368
-258 510 -401 285 -288 434 -584 488 -970 20 -142 23 -447 6 -575 -72 -532
-366 -931 -799 -1085 -211 -75 -346 -98 -557 -98 -422 1 -816 127 -1130 361
-81 61 -175 153 -175 172 0 21 277 1151 284 1157 3 3 41 -28 85 -70 270 -258
578 -397 880 -397 281 0 431 110 431 316 0 121 -87 233 -275 354 -432 279
-666 450 -781 571 -212 223 -341 425 -420 655 l-28 81 -27 -131 c-107 -534
-408 -959 -811 -1145 -186 -86 -327 -111 -630 -111 l-218 0 0 -800 0 -800
-495 0 -495 0 0 2480 0 2480 663 0 c364 0 716 -5 782 -10z"/>
<path d="M1900 4390 l0 -600 124 0 c149 0 212 11 293 50 122 60 228 214 267
387 20 91 21 284 1 378 -39 183 -158 320 -322 370 -33 10 -96 15 -205 15
l-158 0 0 -600z"/>
</g>
</svg>
