<svg xmlns="http://www.w3.org/2000/svg" width="1982" height="185" xmlns:xlink="http://www.w3.org/1999/xlink"><defs><marker orient="auto" overflow="visible"><path fill-rule="evenodd" stroke="#000" stroke-width=".8pt" d="M-4.62 0L2.3-4v8l-6.92-4z"/></marker><marker orient="auto" overflow="visible"><path fill="#c00000" fill-rule="evenodd" stroke="#c00000" stroke-width=".8pt" d="M-4.62 0L2.3-4v8l-6.92-4z"/></marker><marker orient="auto" overflow="visible"><path fill-rule="evenodd" stroke="#000" stroke-width=".6875" d="M10.7 4.44L-1.34.02 10.7-4.4c-1.93 2.6-1.92 6.18 0 8.84z" stroke-linejoin="round"/></marker><marker orient="auto" overflow="visible"><path fill-rule="evenodd" stroke="#000" stroke-width=".4pt" d="M2.3 0l-3.45 2v-4L2.3 0z"/></marker><marker orient="auto" overflow="visible"><path fill-rule="evenodd" stroke="#000" stroke-width=".4pt" d="M2.3 0l-3.45 2v-4L2.3 0z"/></marker><marker orient="auto" overflow="visible"><path fill-rule="evenodd" stroke="#000" stroke-width=".4pt" d="M2.3 0l-3.45 2v-4L2.3 0z"/></marker><marker orient="auto" overflow="visible"><path fill-rule="evenodd" stroke="#000" stroke-width=".8pt" d="M4.62 0L-2.3 4v-8l6.92 4z"/></marker><marker orient="auto" overflow="visible"><path fill-rule="evenodd" stroke="#000" stroke-width=".375" d="M-5.23-2.42l6.55 2.4-6.55 2.42c1.05-1.42 1.04-3.37 0-4.82z" stroke-linejoin="round"/></marker><marker orient="auto" overflow="visible"><path fill-rule="evenodd" stroke="#000" stroke-width=".4pt" d="M2.3 0l-3.45 2v-4L2.3 0z"/></marker><marker orient="auto" overflow="visible"><path fill-rule="evenodd" stroke="#000" stroke-width=".8pt" d="M4.62 0L-2.3 4v-8l6.92 4z"/></marker><marker orient="auto" overflow="visible"><path fill-rule="evenodd" stroke="#000" stroke-width=".6875" d="M10.7 4.44L-1.34.02 10.7-4.4c-1.93 2.6-1.92 6.18 0 8.84z" stroke-linejoin="round"/></marker><marker orient="auto" overflow="visible"><path fill-rule="evenodd" stroke="#000" stroke-width=".6875" d="M-10.7-4.44L1.34-.02-10.7 4.4c1.93-2.6 1.92-6.18 0-8.84z" stroke-linejoin="round"/></marker><linearGradient><stop offset="0" stop-color="#4c4c4c"/><stop offset="1" stop-color="#656565"/></linearGradient><linearGradient><stop offset="0" stop-color="#4c4c4c"/><stop offset="1" stop-color="#656565"/></linearGradient><linearGradient><stop offset="0" stop-color="#4c4c4c"/><stop offset="1" stop-color="#656565"/></linearGradient><linearGradient><stop offset="0" stop-color="#4c4c4c"/><stop offset="1" stop-color="#656565"/></linearGradient><linearGradient><stop offset="0" stop-color="#4c4c4c"/><stop offset="1" stop-color="#656565"/></linearGradient><linearGradient><stop offset="0" stop-color="#4c4c4c"/><stop offset="1" stop-color="#656565"/></linearGradient><linearGradient><stop offset="0" stop-color="#4c4c4c"/><stop offset="1" stop-color="#656565"/></linearGradient><linearGradient><stop offset="0" stop-color="#4c4c4c"/><stop offset="1" stop-color="#656565"/></linearGradient><linearGradient><stop offset="0" stop-color="#4c4c4c"/><stop offset="1" stop-color="#656565"/></linearGradient><linearGradient><stop offset="0" stop-color="#4c4c4c"/><stop offset="1" stop-color="#656565"/></linearGradient><linearGradient><stop offset="0" stop-color="#4c4c4c"/><stop offset="1" stop-color="#656565"/></linearGradient><linearGradient><stop offset="0" stop-color="#4c4c4c"/><stop offset="1" stop-color="#656565"/></linearGradient><linearGradient><stop offset="0" stop-color="#4c4c4c"/><stop offset="1" stop-color="#656565"/></linearGradient><linearGradient><stop offset="0" stop-color="#4c4c4c"/><stop offset="1" stop-color="#656565"/></linearGradient><linearGradient><stop offset="0" stop-color="#4c4c4c"/><stop offset="1" stop-color="#656565"/></linearGradient><linearGradient><stop offset="0" stop-color="#4c4c4c"/><stop offset="1" stop-color="#656565"/></linearGradient><linearGradient><stop offset="0" stop-color="#4c4c4c"/><stop offset="1" stop-color="#656565"/></linearGradient><linearGradient><stop offset="0" stop-color="#4c4c4c"/><stop offset="1" stop-color="#656565"/></linearGradient><linearGradient><stop offset="0" stop-color="#4c4c4c"/><stop offset="1" stop-color="#656565"/></linearGradient><linearGradient><stop offset="0" stop-color="#4c4c4c"/><stop offset="1" stop-color="#656565"/></linearGradient><linearGradient><stop offset="0" stop-color="#4c4c4c"/><stop offset="1" stop-color="#656565"/></linearGradient><linearGradient><stop offset="0" stop-color="#4c4c4c"/><stop offset="1" stop-color="#656565"/></linearGradient><linearGradient><stop offset="0" stop-color="#4c4c4c"/><stop offset="1" stop-color="#656565"/></linearGradient><linearGradient><stop offset="0" stop-color="#4c4c4c"/><stop offset="1" stop-color="#656565"/></linearGradient><linearGradient><stop offset="0" stop-color="#4c4c4c"/><stop offset="1" stop-color="#656565"/></linearGradient><linearGradient><stop offset="0" stop-color="#4c4c4c"/><stop offset="1" stop-color="#656565"/></linearGradient><linearGradient><stop offset="0" stop-color="#4c4c4c"/><stop offset="1" stop-color="#656565"/></linearGradient><linearGradient><stop offset="0" stop-color="#4c4c4c"/><stop offset="1" stop-color="#656565"/></linearGradient><linearGradient><stop offset="0" stop-color="#4c4c4c"/><stop offset="1" stop-color="#656565"/></linearGradient><linearGradient><stop offset="0" stop-color="#4c4c4c"/><stop offset="1" stop-color="#656565"/></linearGradient><linearGradient><stop offset="0" stop-color="#4c4c4c"/><stop offset="1" stop-color="#656565"/></linearGradient><linearGradient><stop offset="0" stop-color="#4c4c4c"/><stop offset="1" stop-color="#656565"/></linearGradient><linearGradient><stop offset="0" stop-color="#4c4c4c"/><stop offset="1" stop-color="#656565"/></linearGradient><linearGradient><stop offset="0" stop-color="#4c4c4c"/><stop offset="1" stop-color="#656565"/></linearGradient><linearGradient><stop offset="0" stop-color="#4c4c4c"/><stop offset="1" stop-color="#656565"/></linearGradient><linearGradient><stop offset="0" stop-color="#4c4c4c"/><stop offset="1" stop-color="#656565"/></linearGradient><linearGradient><stop offset="0" stop-color="#4c4c4c"/><stop offset="1" stop-color="#656565"/></linearGradient><linearGradient><stop offset="0" stop-color="#4c4c4c"/><stop offset="1" stop-color="#656565"/></linearGradient><linearGradient><stop offset="0" stop-color="#4c4c4c"/><stop offset="1" stop-color="#656565"/></linearGradient><linearGradient><stop offset="0" stop-color="#4c4c4c"/><stop offset="1" stop-color="#656565"/></linearGradient><linearGradient><stop offset="0" stop-color="#4c4c4c"/><stop offset="1" stop-color="#656565"/></linearGradient><linearGradient><stop offset="0" stop-color="#4c4c4c"/><stop offset="1" stop-color="#656565"/></linearGradient><linearGradient><stop offset="0" stop-color="#4c4c4c"/><stop offset="1" stop-color="#656565"/></linearGradient><linearGradient><stop offset="0" stop-color="#4c4c4c"/><stop offset="1" stop-color="#656565"/></linearGradient><linearGradient><stop offset="0" stop-color="#4c4c4c"/><stop offset="1" stop-color="#656565"/></linearGradient><linearGradient><stop offset="0" stop-color="#4c4c4c"/><stop offset="1" stop-color="#656565"/></linearGradient><linearGradient><stop offset="0" stop-color="#4c4c4c"/><stop offset="1" stop-color="#656565"/></linearGradient><linearGradient><stop offset="0" stop-color="#4c4c4c"/><stop offset="1" stop-color="#656565"/></linearGradient><linearGradient><stop offset="0" stop-color="#4c4c4c"/><stop offset="1" stop-color="#656565"/></linearGradient><linearGradient><stop offset="0" stop-color="#4c4c4c"/><stop offset="1" stop-color="#656565"/></linearGradient><linearGradient><stop offset="0" stop-color="#4c4c4c"/><stop offset="1" stop-color="#656565"/></linearGradient><linearGradient><stop offset="0" stop-color="#4c4c4c"/><stop offset="1" stop-color="#656565"/></linearGradient><linearGradient><stop offset="0" stop-color="#4c4c4c"/><stop offset="1" stop-color="#656565"/></linearGradient><linearGradient><stop offset="0" stop-color="#4c4c4c"/><stop offset="1" stop-color="#656565"/></linearGradient><linearGradient><stop offset="0" stop-color="#4c4c4c"/><stop offset="1" stop-color="#656565"/></linearGradient><linearGradient><stop offset="0" stop-color="#4c4c4c"/><stop offset="1" stop-color="#656565"/></linearGradient><linearGradient><stop offset="0" stop-color="#4c4c4c"/><stop offset="1" stop-color="#656565"/></linearGradient><linearGradient><stop offset="0" stop-color="#4c4c4c"/><stop offset="1" stop-color="#656565"/></linearGradient><linearGradient><stop offset="0" stop-color="#4c4c4c"/><stop offset="1" stop-color="#656565"/></linearGradient><linearGradient><stop offset="0" stop-color="#4c4c4c"/><stop offset="1" stop-color="#656565"/></linearGradient><linearGradient><stop offset="0" stop-color="#4c4c4c"/><stop offset="1" stop-color="#656565"/></linearGradient><linearGradient><stop offset="0" stop-color="#4c4c4c"/><stop offset="1" stop-color="#656565"/></linearGradient><linearGradient><stop offset="0" stop-color="#4c4c4c"/><stop offset="1" stop-color="#656565"/></linearGradient><linearGradient><stop offset="0" stop-color="#4c4c4c"/><stop offset="1" stop-color="#656565"/></linearGradient><linearGradient><stop offset="0" stop-color="#4c4c4c"/><stop offset="1" stop-color="#656565"/></linearGradient><linearGradient><stop offset="0" stop-color="#4c4c4c"/><stop offset="1" stop-color="#656565"/></linearGradient><linearGradient><stop offset="0" stop-color="#4c4c4c"/><stop offset="1" stop-color="#656565"/></linearGradient><linearGradient><stop offset="0" stop-color="#4c4c4c"/><stop offset="1" stop-color="#656565"/></linearGradient><linearGradient><stop offset="0" stop-color="#4c4c4c"/><stop offset="1" stop-color="#656565"/></linearGradient><linearGradient><stop offset="0" stop-color="#4c4c4c"/><stop offset="1" stop-color="#656565"/></linearGradient><linearGradient><stop offset="0" stop-color="#4c4c4c"/><stop offset="1" stop-color="#656565"/></linearGradient><linearGradient><stop offset="0" stop-color="#4c4c4c"/><stop offset="1" stop-color="#656565"/></linearGradient><linearGradient><stop offset="0" stop-color="#4c4c4c"/><stop offset="1" stop-color="#656565"/></linearGradient><linearGradient><stop offset="0" stop-color="#4c4c4c"/><stop offset="1" stop-color="#656565"/></linearGradient><linearGradient><stop offset="0" stop-color="#4c4c4c"/><stop offset="1" stop-color="#656565"/></linearGradient><linearGradient><stop offset="0" stop-color="#4c4c4c"/><stop offset="1" stop-color="#656565"/></linearGradient><linearGradient><stop offset="0" stop-color="#4c4c4c"/><stop offset="1" stop-color="#656565"/></linearGradient><linearGradient><stop offset="0" stop-color="#4c4c4c"/><stop offset="1" stop-color="#656565"/></linearGradient><linearGradient><stop offset="0" stop-color="#4c4c4c"/><stop offset="1" stop-color="#656565"/></linearGradient><linearGradient><stop offset="0" stop-color="#4c4c4c"/><stop offset="1" stop-color="#656565"/></linearGradient><linearGradient><stop offset="0" stop-color="#4c4c4c"/><stop offset="1" stop-color="#656565"/></linearGradient><linearGradient><stop offset="0" stop-color="#4c4c4c"/><stop offset="1" stop-color="#656565"/></linearGradient><linearGradient><stop offset="0" stop-color="#4c4c4c"/><stop offset="1" stop-color="#656565"/></linearGradient><linearGradient><stop offset="0" stop-color="#4c4c4c"/><stop offset="1" stop-color="#656565"/></linearGradient><linearGradient><stop offset="0" stop-color="#4c4c4c"/><stop offset="1" stop-color="#656565"/></linearGradient><linearGradient><stop offset="0" stop-color="#4c4c4c"/><stop offset="1" stop-color="#656565"/></linearGradient><linearGradient><stop offset="0" stop-color="#4c4c4c"/><stop offset="1" stop-color="#656565"/></linearGradient><linearGradient><stop offset="0" stop-color="#4c4c4c"/><stop offset="1" stop-color="#656565"/></linearGradient><linearGradient><stop offset="0" stop-color="#4c4c4c"/><stop offset="1" stop-color="#656565"/></linearGradient><linearGradient><stop offset="0" stop-color="#4c4c4c"/><stop offset="1" stop-color="#656565"/></linearGradient><linearGradient><stop offset="0" stop-color="#4c4c4c"/><stop offset="1" stop-color="#656565"/></linearGradient><linearGradient><stop offset="0" stop-color="#4c4c4c"/><stop offset="1" stop-color="#656565"/></linearGradient><linearGradient><stop offset="0" stop-color="#4c4c4c"/><stop offset="1" stop-color="#656565"/></linearGradient><linearGradient><stop offset="0" stop-color="#4c4c4c"/><stop offset="1" stop-color="#656565"/></linearGradient><linearGradient><stop offset="0" stop-color="#4c4c4c"/><stop offset="1" stop-color="#656565"/></linearGradient><linearGradient><stop offset="0" stop-color="#4c4c4c"/><stop offset="1" stop-color="#656565"/></linearGradient><linearGradient><stop offset="0" stop-color="#4c4c4c"/><stop offset="1" stop-color="#656565"/></linearGradient><linearGradient><stop offset="0" stop-color="#4c4c4c"/><stop offset="1" stop-color="#656565"/></linearGradient><linearGradient><stop offset="0" stop-color="#4c4c4c"/><stop offset="1" stop-color="#656565"/></linearGradient><linearGradient><stop offset="0" stop-color="#4c4c4c"/><stop offset="1" stop-color="#656565"/></linearGradient><linearGradient><stop offset="0" stop-color="#4c4c4c"/><stop offset="1" stop-color="#656565"/></linearGradient><linearGradient><stop offset="0" stop-color="#4c4c4c"/><stop offset="1" stop-color="#656565"/></linearGradient><linearGradient><stop offset="0" stop-color="#4c4c4c"/><stop offset="1" stop-color="#656565"/></linearGradient><linearGradient><stop offset="0" stop-color="#4c4c4c"/><stop offset="1" stop-color="#656565"/></linearGradient><linearGradient><stop offset="0" stop-color="#4c4c4c"/><stop offset="1" stop-color="#656565"/></linearGradient><linearGradient><stop offset="0" stop-color="#4c4c4c"/><stop offset="1" stop-color="#656565"/></linearGradient><linearGradient><stop offset="0" stop-color="#4c4c4c"/><stop offset="1" stop-color="#656565"/></linearGradient><linearGradient><stop offset="0" stop-color="#4c4c4c"/><stop offset="1" stop-color="#656565"/></linearGradient><linearGradient><stop offset="0" stop-color="#4c4c4c"/><stop offset="1" stop-color="#656565"/></linearGradient><linearGradient><stop offset="0" stop-color="#4c4c4c"/><stop offset="1" stop-color="#656565"/></linearGradient><linearGradient><stop offset="0" stop-color="#4c4c4c"/><stop offset="1" stop-color="#656565"/></linearGradient><linearGradient><stop offset="0" stop-color="#4c4c4c"/><stop offset="1" stop-color="#656565"/></linearGradient><linearGradient><stop offset="0" stop-color="#4c4c4c"/><stop offset="1" stop-color="#656565"/></linearGradient><linearGradient><stop offset="0" stop-color="#4c4c4c"/><stop offset="1" stop-color="#656565"/></linearGradient><linearGradient><stop offset="0" stop-color="#4c4c4c"/><stop offset="1" stop-color="#656565"/></linearGradient><linearGradient><stop offset="0" stop-color="#4c4c4c"/><stop offset="1" stop-color="#656565"/></linearGradient><linearGradient><stop offset="0" stop-color="#4c4c4c"/><stop offset="1" stop-color="#656565"/></linearGradient><linearGradient><stop offset="0" stop-color="#4c4c4c"/><stop offset="1" stop-color="#656565"/></linearGradient><linearGradient><stop offset="0" stop-color="#4c4c4c"/><stop offset="1" stop-color="#656565"/></linearGradient><linearGradient><stop offset="0" stop-color="#4c4c4c"/><stop offset="1" stop-color="#656565"/></linearGradient><linearGradient><stop offset="0" stop-color="#4c4c4c"/><stop offset="1" stop-color="#656565"/></linearGradient><linearGradient><stop offset="0" stop-color="#4c4c4c"/><stop offset="1" stop-color="#656565"/></linearGradient><linearGradient><stop offset="0" stop-color="#4c4c4c"/><stop offset="1" stop-color="#656565"/></linearGradient><linearGradient><stop offset="0" stop-color="#4c4c4c"/><stop offset="1" stop-color="#656565"/></linearGradient><linearGradient><stop offset="0" stop-color="#4c4c4c"/><stop offset="1" stop-color="#656565"/></linearGradient><linearGradient><stop offset="0" stop-color="#4c4c4c"/><stop offset="1" stop-color="#656565"/></linearGradient><linearGradient><stop offset="0" stop-color="#4c4c4c"/><stop offset="1" stop-color="#656565"/></linearGradient><linearGradient><stop offset="0" stop-color="#4c4c4c"/><stop offset="1" stop-color="#656565"/></linearGradient><linearGradient><stop offset="0" stop-color="#4c4c4c"/><stop offset="1" stop-color="#656565"/></linearGradient><linearGradient><stop offset="0" stop-color="#4c4c4c"/><stop offset="1" stop-color="#656565"/></linearGradient><linearGradient><stop offset="0" stop-color="#4c4c4c"/><stop offset="1" stop-color="#656565"/></linearGradient><linearGradient><stop offset="0" stop-color="#4c4c4c"/><stop offset="1" stop-color="#656565"/></linearGradient><linearGradient><stop offset="0" stop-color="#4c4c4c"/><stop offset="1" stop-color="#656565"/></linearGradient><linearGradient><stop offset="0" stop-color="#4c4c4c"/><stop offset="1" stop-color="#656565"/></linearGradient><linearGradient><stop offset="0" stop-color="#4c4c4c"/><stop offset="1" stop-color="#656565"/></linearGradient><linearGradient><stop offset="0" stop-color="#4c4c4c"/><stop offset="1" stop-color="#656565"/></linearGradient><linearGradient><stop offset="0" stop-color="#4c4c4c"/><stop offset="1" stop-color="#656565"/></linearGradient><linearGradient><stop offset="0" stop-color="#4c4c4c"/><stop offset="1" stop-color="#656565"/></linearGradient><linearGradient><stop offset="0" stop-color="#4c4c4c"/><stop offset="1" stop-color="#656565"/></linearGradient><linearGradient><stop offset="0" stop-color="#4c4c4c"/><stop offset="1" stop-color="#656565"/></linearGradient><linearGradient><stop offset="0" stop-color="#4c4c4c"/><stop offset="1" stop-color="#656565"/></linearGradient><linearGradient><stop offset="0" stop-color="#4c4c4c"/><stop offset="1" stop-color="#656565"/></linearGradient><linearGradient><stop offset="0" stop-color="#4c4c4c"/><stop offset="1" stop-color="#656565"/></linearGradient><linearGradient><stop offset="0" stop-color="#4c4c4c"/><stop offset="1" stop-color="#656565"/></linearGradient><linearGradient><stop offset="0" stop-color="#4c4c4c"/><stop offset="1" stop-color="#656565"/></linearGradient><linearGradient><stop offset="0" stop-color="#4c4c4c"/><stop offset="1" stop-color="#656565"/></linearGradient><linearGradient><stop offset="0" stop-color="#4c4c4c"/><stop offset="1" stop-color="#656565"/></linearGradient><linearGradient><stop offset="0" stop-color="#4c4c4c"/><stop offset="1" stop-color="#656565"/></linearGradient><linearGradient><stop offset="0" stop-color="#4c4c4c"/><stop offset="1" stop-color="#656565"/></linearGradient><linearGradient><stop offset="0" stop-color="#4c4c4c"/><stop offset="1" stop-color="#656565"/></linearGradient><linearGradient><stop offset="0" stop-color="#4c4c4c"/><stop offset="1" stop-color="#656565"/></linearGradient><linearGradient><stop offset="0" stop-color="#4c4c4c"/><stop offset="1" stop-color="#656565"/></linearGradient><linearGradient><stop offset="0" stop-color="#4c4c4c"/><stop offset="1" stop-color="#656565"/></linearGradient><linearGradient><stop offset="0" stop-color="#4c4c4c"/><stop offset="1" stop-color="#656565"/></linearGradient><linearGradient><stop offset="0" stop-color="#4c4c4c"/><stop offset="1" stop-color="#656565"/></linearGradient><linearGradient><stop offset="0" stop-color="#4c4c4c"/><stop offset="1" stop-color="#656565"/></linearGradient><linearGradient><stop offset="0" stop-color="#4c4c4c"/><stop offset="1" stop-color="#656565"/></linearGradient><linearGradient><stop offset="0" stop-color="#4c4c4c"/><stop offset="1" stop-color="#656565"/></linearGradient><linearGradient><stop offset="0" stop-color="#4c4c4c"/><stop offset="1" stop-color="#656565"/></linearGradient><linearGradient><stop offset="0" stop-color="#4c4c4c"/><stop offset="1" stop-color="#656565"/></linearGradient><linearGradient><stop offset="0" stop-color="#4c4c4c"/><stop offset="1" stop-color="#656565"/></linearGradient><linearGradient><stop offset="0" stop-color="#4c4c4c"/><stop offset="1" stop-color="#656565"/></linearGradient><linearGradient><stop offset="0" stop-color="#4c4c4c"/><stop offset="1" stop-color="#656565"/></linearGradient><linearGradient><stop offset="0" stop-color="#4c4c4c"/><stop offset="1" stop-color="#656565"/></linearGradient><linearGradient><stop offset="0" stop-color="#4c4c4c"/><stop offset="1" stop-color="#656565"/></linearGradient><linearGradient><stop offset="0" stop-color="#4c4c4c"/><stop offset="1" stop-color="#656565"/></linearGradient><linearGradient><stop offset="0" stop-color="#4c4c4c"/><stop offset="1" stop-color="#656565"/></linearGradient><linearGradient><stop offset="0" stop-color="#4c4c4c"/><stop offset="1" stop-color="#656565"/></linearGradient><linearGradient><stop offset="0" stop-color="#4c4c4c"/><stop offset="1" stop-color="#656565"/></linearGradient><linearGradient><stop offset="0" stop-color="#4c4c4c"/><stop offset="1" stop-color="#656565"/></linearGradient><linearGradient><stop offset="0" stop-color="#4c4c4c"/><stop offset="1" stop-color="#656565"/></linearGradient><linearGradient><stop offset="0" stop-color="#4c4c4c"/><stop offset="1" stop-color="#656565"/></linearGradient><linearGradient><stop offset="0" stop-color="#4c4c4c"/><stop offset="1" stop-color="#656565"/></linearGradient><linearGradient><stop offset="0" stop-color="#4c4c4c"/><stop offset="1" stop-color="#656565"/></linearGradient><linearGradient><stop offset="0" stop-color="#4c4c4c"/><stop offset="1" stop-color="#656565"/></linearGradient><linearGradient id="a"><stop offset="0" stop-color="#4887d2"/><stop offset="1" stop-color="#71a2dc"/></linearGradient><linearGradient x1="1975.884" x2="3466.778" y1="-5656.661" y2="-6315.289" xlink:href="#a" gradientUnits="userSpaceOnUse"/><linearGradient x1="1975.884" x2="3466.778" y1="-5656.661" y2="-6315.289" xlink:href="#a" gradientUnits="userSpaceOnUse"/><linearGradient x1="1975.884" x2="3466.778" y1="-5656.661" y2="-6315.289" xlink:href="#a" gradientUnits="userSpaceOnUse" gradientTransform="translate(583.61 3916.609)"/><linearGradient x1="1975.884" x2="3466.778" y1="-5656.661" y2="-6315.289" xlink:href="#a" gradientUnits="userSpaceOnUse" gradientTransform="translate(137.304 1781.357)"/><linearGradient x1="1975.884" x2="3466.778" y1="-5656.661" y2="-6315.289" xlink:href="#a" gradientUnits="userSpaceOnUse" gradientTransform="translate(137.304 1781.357)"/><linearGradient x1="1975.884" x2="3466.778" y1="-5656.661" y2="-6315.289" xlink:href="#a" gradientUnits="userSpaceOnUse"/><linearGradient x1="1975.884" x2="3466.778" y1="-5656.661" y2="-6315.289" xlink:href="#a" gradientUnits="userSpaceOnUse"/><linearGradient x1="1975.884" x2="3466.778" y1="-5656.661" y2="-6315.289" xlink:href="#a" gradientUnits="userSpaceOnUse"/><linearGradient x1="1975.884" x2="3466.778" y1="-5656.661" y2="-6315.289" xlink:href="#a" gradientUnits="userSpaceOnUse" gradientTransform="translate(507.231 -1205.157)"/><linearGradient x1="1975.884" x2="3466.778" y1="-5656.661" y2="-6315.289" xlink:href="#a" gradientUnits="userSpaceOnUse" gradientTransform="translate(953.42 929.153)"/><linearGradient x1="1975.884" x2="3466.778" y1="-5656.661" y2="-6315.289" xlink:href="#a" gradientUnits="userSpaceOnUse" gradientTransform="translate(507.231 -1205.157)"/><marker orient="auto" overflow="visible"><path fill-rule="evenodd" stroke="#000" stroke-width=".8pt" d="M4.62 0L-2.3 4v-8l6.92 4z"/></marker><marker orient="auto" overflow="visible"><path fill-rule="evenodd" stroke="#000" stroke-width=".4pt" d="M2.3 0l-3.45 2v-4L2.3 0z"/></marker><marker orient="auto" overflow="visible"><path fill-rule="evenodd" stroke="#000" stroke-width=".4pt" d="M2.3 0l-3.45 2v-4L2.3 0z"/></marker><marker orient="auto" overflow="visible"><path fill-rule="evenodd" stroke="#000" stroke-width=".4pt" d="M2.3 0l-3.45 2v-4L2.3 0z"/></marker><marker orient="auto" overflow="visible"><path fill-rule="evenodd" stroke="#000" stroke-width=".4pt" d="M2.3 0l-3.45 2v-4L2.3 0z"/></marker><marker orient="auto" overflow="visible"><path fill-rule="evenodd" stroke="#000" stroke-width=".4pt" d="M2.3 0l-3.45 2v-4L2.3 0z"/></marker><marker orient="auto" overflow="visible"><path fill-rule="evenodd" stroke="#000" stroke-width=".4pt" d="M2.3 0l-3.45 2v-4L2.3 0z"/></marker><marker orient="auto" overflow="visible"><path fill-rule="evenodd" stroke="#000" stroke-width=".4pt" d="M2.3 0l-3.45 2v-4L2.3 0z"/></marker><marker orient="auto" overflow="visible"><path fill-rule="evenodd" stroke="#000" stroke-width=".4pt" d="M2.3 0l-3.45 2v-4L2.3 0z"/></marker><marker orient="auto" overflow="visible"><path fill-rule="evenodd" stroke="#000" stroke-width=".4pt" d="M2.3 0l-3.45 2v-4L2.3 0z"/></marker><marker orient="auto" overflow="visible"><path fill-rule="evenodd" stroke="#000" stroke-width=".4pt" d="M2.3 0l-3.45 2v-4L2.3 0z"/></marker><marker orient="auto" overflow="visible"><path fill-rule="evenodd" stroke="#000" stroke-width=".4pt" d="M2.3 0l-3.45 2v-4L2.3 0z"/></marker><marker orient="auto" overflow="visible"><path fill-rule="evenodd" stroke="#000" stroke-width=".4pt" d="M2.3 0l-3.45 2v-4L2.3 0z"/></marker><marker orient="auto" overflow="visible"><path fill-rule="evenodd" stroke="#000" stroke-width=".4pt" d="M2.3 0l-3.45 2v-4L2.3 0z"/></marker><marker orient="auto" overflow="visible"><path fill-rule="evenodd" stroke="#000" stroke-width=".8pt" d="M4.62 0L-2.3 4v-8l6.92 4z"/></marker><marker orient="auto" overflow="visible"><path fill-rule="evenodd" stroke="#000" stroke-width=".8pt" d="M4.62 0L-2.3 4v-8l6.92 4z"/></marker><marker orient="auto" overflow="visible"><path fill="#789440" fill-rule="evenodd" stroke="#789440" stroke-width=".8pt" d="M4.62 0L-2.3 4v-8l6.92 4z"/></marker><marker orient="auto" overflow="visible"><path fill="#789440" fill-rule="evenodd" stroke="#789440" stroke-width=".8pt" d="M4.62 0L-2.3 4v-8l6.92 4z"/></marker><marker orient="auto" overflow="visible"><path fill="#ffc000" fill-rule="evenodd" stroke="#ffc000" stroke-width=".8pt" d="M-4.62 0L2.3-4v8l-6.92-4z"/></marker><marker orient="auto" overflow="visible"><path fill="#ffc000" fill-rule="evenodd" stroke="#ffc000" stroke-width=".4pt" d="M2.3 0l-3.45 2v-4L2.3 0z"/></marker><marker orient="auto" overflow="visible"><path fill-rule="evenodd" stroke="#000" stroke-width=".8pt" d="M4.62 0L-2.3 4v-8l6.92 4z"/></marker></defs><g><g transform="translate(0 -867.362) translate(2001.698 1565.5)"><rect width="448.601" height="59.496" x="-469.248" y="-697.386" fill="#fafafa" stroke="#e3e3e3" stroke-width="1.504" ry="11.058" stroke-linecap="round" stroke-linejoin="round"/><rect width="352.957" height="42.957" x="-423.979" y="-689.128" fill="#fff" stroke="#e3e3e3" stroke-width="2.043" ry="21.479" stroke-linecap="round" stroke-linejoin="round"/><text x="-444.01" y="-652.496" fill="#404030" style="line-height:125%;-inkscape-font-specification:'Triplicate T4c, Normal';text-align:center" font-size="51.02" font-family="Triplicate T4c" letter-spacing="0" word-spacing="0" text-anchor="middle"><tspan x="-444.01" y="-652.496">{</tspan></text><text x="-49.471" y="-652.496" fill="#404030" style="line-height:125%;-inkscape-font-specification:'Triplicate T4c, Normal';text-align:center" font-size="51.02" font-family="Triplicate T4c" letter-spacing="0" word-spacing="0" text-anchor="middle"><tspan x="-49.471" y="-652.496">}</tspan></text><g fill="#c83737" style="line-height:125%;-inkscape-font-specification:'Equity Caps A, Normal';text-align:center" font-size="32.5" font-family="Equity Caps A" letter-spacing="0" word-spacing="0" text-anchor="middle"><path d="M-408.47-659.3v-1.23l2.34-.5v-13.38l-2.34-.5v-1.23h7.77q2.17 0 3.9.58 1.75.6 2.95 1.7 1.24 1.07 1.9 2.66.64 1.6.64 3.58 0 2.02-.76 3.58-.7 1.56-2 2.63-1.3 1.03-3.1 1.58-1.76.52-3.84.52h-7.47zm7.47-1.72q1.24 0 2.38-.36 1.13-.35 1.98-1.13.88-.83 1.36-2.06.52-1.27.52-3.1 0-1.65-.48-2.9-.46-1.28-1.27-2.13-.82-.86-1.93-1.3-1.07-.4-2.3-.4h-2.18v13.38h1.9z"/><path d="M-375.35-660.9l1.88-2.88h1.4l-.68 4.48h-14.08v-1.23l2.34-.5v-13.38l-2.33-.5v-1.23h13.23l.42 4.03h-1.36l-1.7-2.44h-5.03v5.82h3.12l.88-1.85h1.04v5.42h-1.04l-.88-2.04h-3.12v6.3h5.92z"/><path d="M-359-660.63q2.1 0 3.35-1.04 1.23-1.04 1.88-3.02h1.24v3.8q-1.33.86-2.86 1.44-1.5.6-3.73.6-1.85 0-3.48-.57-1.63-.58-2.87-1.7-1.2-1.12-1.9-2.75-.73-1.62-.73-3.74 0-2 .68-3.64.72-1.62 1.92-2.76 1.24-1.17 2.86-1.8 1.66-.6 3.5-.6 1.57 0 3.3.55 1.72.52 3.08 1.27v3.93H-354q-.84-2.3-2.2-3.22-1.34-.9-2.93-.9-1.07 0-2.08.5-.98.48-1.73 1.42-.72.9-1.17 2.24-.42 1.3-.42 3 0 1.58.48 2.88.52 1.3 1.3 2.2.82.92 1.8 1.44 1 .5 1.94.5z"/><path d="M-347.53-659.3v-1.23l2.34-.5v-13.38l-2.33-.5v-1.23h8v1.23l-2.45.5v13.5h5.04l2.18-3.14h1.4l-.7 4.74h-13.47z"/><path d="M-319.5-664.82h-5.78l-1.36 3.48 2.6.8v1.24h-6.7v-1.23l2.2-.8 6-14.8h1.98l5.94 15.1 1.95.5v1.23h-7.54v-1.23l2.17-.5-1.46-3.8zm-5.16-1.53h4.58l-2.1-5.5h-.27l-2.2 5.5z"/><path d="M-298.96-667.23q.7.3 1.24 1.1.58.82 1.17 1.8.58.94 1.2 1.88.62.9 1.37 1.43l1.46.5v1.22h-3.9q-.98-.6-1.72-1.72-.72-1.1-1.4-2.27-.68-1.16-1.43-2.14-.72-1-1.7-1.4h-.97v5.82l2.3.5v1.22h-7.85v-1.23l2.35-.5v-13.38l-2.34-.5v-1.23h8.8q.73 0 1.64.2.9.16 1.72.64.85.5 1.4 1.38.58.84.58 2.2 0 1.4-1 2.64-.98 1.2-2.9 1.56v.3zm-4.68-1.13h1.8q.9 0 1.52-.3.65-.32 1.07-.78.42-.48.62-1.04.2-.58.2-1.13 0-1.54-.75-2.16-.75-.65-1.73-.65h-2.74v6.04z"/><path d="M-278.5-664.82h-5.77l-1.37 3.48 2.6.8v1.24h-6.7v-1.23l2.22-.8 5.98-14.8h1.98l5.95 15.1 1.94.5v1.23h-7.54v-1.23l2.18-.5-1.47-3.8zm-5.15-1.53h4.58l-2.1-5.5h-.27l-2.2 5.5z"/><path d="M-253.64-676.13l.78 4.74h-1.4l-2.15-3.2h-3.32v13.58l2.44.5v1.22h-8.1v-1.23l2.44-.5v-13.57h-3.3l-2.2 3.2h-1.36l.78-4.73h15.38z"/><path d="M-241.14-676.13v1.23l-2.3.5v13.38l2.3.5v1.22H-249v-1.23l2.33-.5v-13.38l-2.34-.5v-1.23h7.86z"/><path d="M-236.32-667.62q0-2 .68-3.64.72-1.62 1.9-2.76 1.2-1.17 2.78-1.8 1.63-.6 3.45-.6 1.87 0 3.46.6 1.63.6 2.8 1.74 1.17 1.13 1.82 2.8.65 1.62.65 3.66 0 2.15-.72 3.8-.67 1.63-1.87 2.74-1.17 1.1-2.76 1.65-1.6.56-3.38.56-1.83 0-3.46-.56-1.6-.58-2.8-1.7-1.16-1.12-1.88-2.75-.68-1.62-.68-3.74zm3.57-.03q0 1.72.43 3.02.42 1.3 1.13 2.2.73.9 1.67 1.35.94.45 2.02.45 1.03 0 1.97-.36.94-.38 1.66-1.22.7-.85 1.13-2.18.43-1.33.43-3.25 0-1.75-.44-3.1-.4-1.35-1.1-2.23-.68-.9-1.66-1.36-.94-.46-2-.46-1.1 0-2.03.46-.94.45-1.66 1.36-.7.9-1.12 2.24-.43 1.34-.43 3.1z"/><path d="M-199.96-665.05v-9.03l-2.67-.82v-1.23h6.76v1.23l-2.3.82v15h-.98l-11.05-13h-.4v10.74l2.67.8v1.24h-6.53v-1.23l2.08-.8v-13.08l-2.08-.5v-1.23h4.65l9.45 11.08h.4z"/><path d="M-182.68-659.3v-1.23l2.34-.5v-13.38l-2.34-.5v-1.23h8.8q.7 0 1.56.2.88.16 1.66.6.78.43 1.3 1.18.55.75.55 1.9 0 .54-.17 1.12-.16.6-.55 1.14-.36.53-.94 1-.6.4-1.43.67v.36q1.7.3 2.8 1.43 1.1 1.1 1.1 2.73 0 1.03-.45 1.87-.45.8-1.27 1.4-.8.58-1.95.9-1.13.33-2.53.33h-8.48zm11.24-4.74q0-.62-.23-1.17-.22-.6-.68-1.02-.45-.45-1.17-.7-.7-.27-1.7-.27h-1.9v6.18h2.46q1.66 0 2.44-.88.78-.87.78-2.14zm-5.7-4.68h1.96q.85 0 1.4-.23.55-.26.88-.68.36-.42.5-.94.15-.56.15-1.14 0-.8-.26-1.3-.27-.53-.7-.82-.38-.33-.9-.46-.5-.13-1-.13h-2.03v5.68z"/><path d="M-163.5-659.3v-1.23l2.33-.5v-13.38l-2.34-.5v-1.23h7.98v1.23l-2.44.5v13.5h5.04l2.18-3.14h1.4l-.7 4.74h-13.47z"/><path d="M-145.68-667.62q0-2 .68-3.64.72-1.62 1.9-2.76 1.2-1.17 2.78-1.8 1.63-.6 3.45-.6 1.88 0 3.48.6 1.63.6 2.8 1.74 1.17 1.13 1.82 2.8.65 1.62.65 3.66 0 2.15-.7 3.8-.7 1.63-1.9 2.74-1.17 1.1-2.76 1.65-1.58.56-3.37.56-1.82 0-3.45-.56-1.6-.58-2.8-1.7-1.16-1.12-1.88-2.75-.68-1.62-.68-3.74zm3.58-.03q0 1.72.42 3.02t1.14 2.2q.7.9 1.65 1.35.96.45 2.03.45 1.04 0 1.98-.36.95-.38 1.67-1.22.7-.85 1.14-2.18.43-1.33.43-3.25 0-1.75-.42-3.1-.38-1.35-1.1-2.23-.68-.9-1.66-1.36-.94-.46-2-.46-1.08 0-2.03.46-.93.45-1.64 1.36-.72.9-1.14 2.24-.42 1.34-.42 3.1z"/><path d="M-114.55-660.63q2.1 0 3.35-1.04 1.23-1.04 1.88-3.02h1.24v3.8q-1.34.86-2.86 1.44-1.5.6-3.74.6-1.85 0-3.48-.57-1.62-.58-2.86-1.7-1.2-1.12-1.92-2.75-.7-1.62-.7-3.74 0-2 .67-3.64.72-1.62 1.92-2.76 1.23-1.17 2.86-1.8 1.67-.6 3.52-.6 1.56 0 3.28.55 1.72.52 3.1 1.27v3.93h-1.25q-.84-2.3-2.2-3.22-1.34-.9-2.93-.9-1.07 0-2.08.5-.98.48-1.72 1.42-.72.9-1.17 2.24-.43 1.3-.43 3 0 1.58.5 2.88.5 1.3 1.3 2.2.8.92 1.78 1.44 1 .5 1.95.5z"/><path d="M-97.53-667.36v6.34l2.15.5v1.22h-7.7v-1.23l2.34-.5v-13.38l-2.34-.5v-1.23h7.86v1.23l-2.3.5v5.68h.6l5.73-5.53-2.04-.65v-1.23h6.73v1.23l-2.45.65-5.52 5.27 6.82 8.06 1.86.4v1.22h-7.7v-1.23l1.82-.5-5.33-6.33h-.53z"/></g><g fill="#c83737" style="line-height:125%;-inkscape-font-specification:'Equity Caps A, Normal';text-align:center" font-size="35" font-family="Equity Caps A" letter-spacing="0" word-spacing="0" text-anchor="middle"><path d="M-1828.1-563.34v-1.33l2.52-.52v-14.4l-2.52-.54v-1.33h8.6v1.33l-2.62.53v14.55h5.43l2.35-3.4h1.5l-.73 5.1h-14.52z"/><path d="M-1808.9-572.3q0-2.17.74-3.92.77-1.75 2.03-2.97 1.3-1.25 3-1.92 1.76-.66 3.72-.66 2.02 0 3.74.66 1.75.63 3 1.86 1.27 1.22 1.97 3 .7 1.76.7 3.96 0 2.3-.76 4.1-.74 1.75-2.03 2.94-1.25 1.2-2.97 1.78-1.7.6-3.64.6-1.97 0-3.72-.6-1.7-.63-3-1.82-1.27-1.22-2.04-2.97-.73-1.75-.73-4.03zm3.86-.03q0 1.85.45 3.25.47 1.4 1.24 2.38.77.95 1.78 1.44 1.02.5 2.17.5 1.1 0 2.13-.4 1-.42 1.78-1.33.78-.9 1.24-2.33.45-1.44.45-3.5 0-1.9-.46-3.33-.42-1.47-1.2-2.4-.73-1-1.78-1.48-1-.5-2.17-.5-1.16 0-2.18.5-1 .5-1.78 1.47-.77.98-1.23 2.4-.44 1.45-.44 3.34z"/><path d="M-1775.58-564.77q.98 0 1.92-.2.98-.26 1.72-.85v-4.55l-3.05-.67v-1.33h8.7v1.33l-2.18.53v5.7q-.5.27-1.15.62-.67.35-1.58.63-.88.28-1.97.46-1.08.22-2.4.22-1.94 0-3.7-.6-1.7-.63-3.03-1.82-1.3-1.22-2.1-2.97-.77-1.75-.77-4.03 0-2.17.73-3.92.77-1.75 2.07-2.97 1.33-1.25 3.08-1.92 1.8-.66 3.8-.66 1.67 0 3.52.6 1.86.55 3.33 1.36v4.23h-1.33q-.9-2.47-2.38-3.45-1.44-.98-3.15-.98-1.17 0-2.25.5-1.05.48-1.86 1.46-.78.94-1.27 2.38-.45 1.44-.45 3.37 0 1.75.45 3.15.46 1.4 1.23 2.38.8.98 1.85 1.5 1.06.53 2.22.53z"/><path d="M-1753.45-581.47v1.33l-2.5.53v14.4l2.5.53v1.33h-8.47v-1.33l2.52-.52v-14.4l-2.52-.54v-1.33h8.47z"/><path d="M-1738.46-564.77q2.28 0 3.6-1.12 1.34-1.1 2.04-3.25h1.33v4.1q-1.43.9-3.07 1.54-1.6.62-4.03.62-2 0-3.74-.6-1.75-.63-3.08-1.82-1.3-1.22-2.07-2.97-.76-1.75-.76-4.03 0-2.17.74-3.92.77-1.75 2.06-2.97 1.33-1.25 3.08-1.92 1.8-.66 3.78-.66 1.68 0 3.54.6 1.85.55 3.32 1.36v4.23h-1.33q-.9-2.47-2.38-3.45-1.43-.98-3.15-.98-1.15 0-2.24.52-1.05.52-1.85 1.53-.76.98-1.25 2.42-.46 1.4-.46 3.22 0 1.7.52 3.1.56 1.4 1.4 2.4.87.97 1.92 1.53 1.1.53 2.1.53z"/><path d="M-1715.12-569.3h-6.23l-1.47 3.76 2.8.87v1.33h-7.2v-1.33l2.37-.87 6.44-15.93h2.13l6.4 16.28 2.1.53v1.33h-8.12v-1.33l2.36-.52-1.58-4.1zm-5.56-1.63h4.93l-2.27-5.92h-.28l-2.38 5.92z"/><path d="M-1704.03-563.34v-1.33l2.52-.52v-14.4l-2.53-.54v-1.33h8.6v1.33l-2.6.53v14.55h5.4l2.36-3.4h1.5l-.73 5.1h-14.53z"/><path d="M-1675.04-572.3q0-2.17.73-3.92.76-1.75 2.02-2.97 1.3-1.25 3-1.92 1.76-.66 3.72-.66 2.03 0 3.75.66 1.74.63 3 1.86 1.26 1.22 1.96 3 .7 1.76.7 3.96 0 2.3-.77 4.1-.75 1.75-2.04 2.94-1.26 1.2-2.98 1.78-1.7.6-3.64.6-1.96 0-3.7-.6-1.72-.63-3.02-1.82-1.26-1.22-2.03-2.97-.74-1.75-.74-4.03zm3.85-.03q0 1.85.46 3.25t1.23 2.38q.76.95 1.77 1.44 1.02.5 2.17.5 1.12 0 2.14-.4 1-.42 1.78-1.33.77-.9 1.23-2.33.44-1.44.44-3.5 0-1.9-.45-3.33-.43-1.47-1.2-2.4-.74-1-1.8-1.48-1-.5-2.16-.5-1.15 0-2.17.5-1 .5-1.78 1.47-.78.98-1.24 2.4-.45 1.45-.45 3.34z"/><path d="M-1645.34-570.8v5.6l2.8.53v1.33h-8.78v-1.33l2.52-.52v-14.4l-2.52-.54v-1.33h8.96q1.08 0 2.2.28 1.12.3 2.03.92.95.63 1.54 1.65.6.98.6 2.38 0 2.52-1.88 4-1.86 1.46-5.18 1.46h-2.28zm0-1.64h2.56q1.3 0 2.24-.98.98-.98.98-2.66 0-1.78-.95-2.66-.95-.87-2.35-.87h-2.5v7.16z"/><path d="M-1619.35-565.05l2.03-3.12h1.5l-.73 4.83h-15.15v-1.33l2.52-.52v-14.4l-2.52-.54v-1.33h14.24l.46 4.34h-1.47l-1.82-2.62h-5.42v6.26h3.36l.95-1.98h1.1v5.84h-1.1l-.96-2.2h-3.36v6.8h6.37z"/><path d="M-1600.5-571.88q.72.32 1.32 1.2.63.87 1.26 1.92.63 1 1.3 2.03.66.98 1.46 1.54l1.58.53v1.33h-4.2q-1.05-.66-1.86-1.85-.77-1.18-1.5-2.44-.74-1.26-1.54-2.3-.77-1.1-1.82-1.52h-1.05v6.27l2.48.53v1.33h-8.47v-1.33l2.52-.52v-14.4l-2.52-.54v-1.33h9.5q.76 0 1.74.2t1.85.7q.9.54 1.5 1.48.64.92.64 2.4 0 1.5-1.1 2.83-1.05 1.3-3.1 1.68v.32zm-5.05-1.22h1.92q.98 0 1.65-.32.7-.35 1.15-.84.46-.52.67-1.12.2-.63.2-1.22 0-1.65-.8-2.3-.8-.7-1.85-.7h-2.95v6.5z"/><path d="M-1578.47-569.3h-6.23l-1.47 3.76 2.8.87v1.33h-7.2v-1.33l2.37-.87 6.44-15.93h2.14l6.4 16.28 2.1.53v1.33h-8.12v-1.33l2.35-.52-1.57-4.1zm-5.56-1.63h4.93l-2.27-5.92h-.28l-2.38 5.92z"/><path d="M-1551.72-581.47l.84 5.1h-1.5l-2.3-3.45h-3.58v14.63l2.62.53v1.33h-8.7v-1.33l2.6-.52v-14.62h-3.56l-2.34 3.46h-1.47l.83-5.1h16.55z"/><path d="M-1547.08-572.3q0-2.17.74-3.92.77-1.75 2.03-2.97 1.28-1.25 3-1.92 1.75-.66 3.7-.66 2.04 0 3.75.66 1.75.63 3 1.86 1.27 1.22 1.97 3 .7 1.76.7 3.96 0 2.3-.77 4.1-.73 1.75-2.03 2.94-1.26 1.2-2.97 1.78-1.72.6-3.64.6-1.95 0-3.7-.6-1.72-.63-3-1.82-1.27-1.22-2.04-2.97-.74-1.75-.74-4.03zm3.85-.03q0 1.85.46 3.25.45 1.4 1.22 2.38.77.95 1.8 1.44 1 .5 2.16.5 1.13 0 2.14-.4 1.02-.42 1.8-1.33.76-.9 1.2-2.33.47-1.44.47-3.5 0-1.9-.45-3.33-.42-1.47-1.2-2.4-.72-1-1.77-1.48-1.02-.5-2.17-.5t-2.16.5q-1.02.5-1.8 1.47-.76.98-1.2 2.4-.47 1.45-.47 3.34z"/><path d="M-1512.33-571.88q.74.32 1.33 1.2.63.87 1.26 1.92.63 1 1.3 2.03.66.98 1.47 1.54l1.57.53v1.33h-4.2q-1.05-.66-1.85-1.85-.77-1.18-1.5-2.44-.74-1.26-1.55-2.3-.77-1.1-1.82-1.52h-1.05v6.27l2.5.53v1.33h-8.48v-1.33l2.52-.52v-14.4l-2.52-.54v-1.33h9.48q.77 0 1.75.2t1.86.7q.9.54 1.5 1.48.63.92.63 2.4 0 1.5-1.08 2.83-1.06 1.3-3.13 1.68v.32zm-5.04-1.22h1.93q.98 0 1.64-.32.7-.35 1.16-.84.45-.52.66-1.12.2-.63.2-1.22 0-1.65-.8-2.3-.8-.7-1.85-.7h-2.94v6.5z"/></g><path fill="none" stroke="#c83737" d="M-1667.02-585.95v-43"/><rect width="204.413" height="57.913" x="-1999.957" y="-696.594" fill="#fafafa" stroke="#e3e3e3" stroke-width="3.087" ry="10.764" stroke-linecap="round" stroke-linejoin="round"/><g fill="#404030" style="line-height:125%;-inkscape-font-specification:'Triplicate T4c, Normal';text-align:center" font-size="51.02" font-family="Triplicate T4c" letter-spacing="0" word-spacing="0" text-anchor="middle"><path d="M-1965.64-660.43l1.9 1.38q.2.15 0 .56-.17.36-.47.77-.32.36-.73.6-.35.22-.56.12l-2.18-1.5h-.5q-.42.36-1.44.92-.97.5-2.45.5-1.17 0-2.35-.34-1.12-.4-2.1-1.33-.96-.92-1.57-2.4-.55-1.53-.55-3.72 0-2.1.6-3.93.68-1.9 1.75-3.27 1.07-1.37 2.45-2.14 1.42-.82 2.96-.82 1.18 0 1.84.2.72.2 1.58.82l.72-.3q.2-1.9-.1-3.58-.3-1.74-1.13-3.06-.75-1.33-2.08-2.1-1.27-.8-3.1-.8-2.66 0-4.76 1.42-2.04 1.43-3.46 3.98-1.38 2.5-2.1 5.97-.7 3.47-.7 7.5 0 3.87.6 7.04.6 3.16 1.94 5.46 1.38 2.24 3.47 3.47 2.15 1.27 5.16 1.27 1.38 0 2.96-.46 1.58-.45 2.65-.96.36-.15.57.16.2.3.25.76.1.5 0 .97-.1.5-.32.6-1.78.88-3.36 1.2-1.53.3-2.8.3-3.94 0-6.64-1.64-2.65-1.6-4.3-4.3-1.57-2.75-2.28-6.32-.67-3.62-.67-7.6 0-4.34.87-8.22.92-3.88 2.65-6.73 1.8-2.86 4.4-4.54 2.6-1.7 5.96-1.7 2.82 0 4.6 1.18 1.84 1.17 2.76 3.36.97 2.2 1.17 5.26.2 3.06-.15 6.83l-.92 9.14zm-6.17 1.02q.85 0 1.82-.47 1.02-.46 1.48-1.33l1.02-8.47q.16-1.07-.7-2.04-.83-1.03-2.6-1.03-1.34 0-2.3.77-.93.76-1.54 1.88-.6 1.13-.92 2.45-.25 1.33-.25 2.45 0 1.64.3 2.76.37 1.07.93 1.78.56.67 1.28.97.72.26 1.5.26z"/><path d="M-1947.45-649.77q-.45 0-.66-.3-.2-.36-.2-.77 0-.4.14-.77.2-.36.5-.4l1.9-.37v-13.42q0-1.42-.3-2.34-.26-.9-.72-1.43-.46-.56-1.07-.76-.62-.2-1.28-.2-1.38 0-2.24.35-.87.36-1.28.82v17l2.04.35q.45.1.65.45t.16.76q0 .37-.25.72-.2.3-.56.3h-7.05q-.4 0-.6-.3-.16-.3-.16-.7 0-.42.2-.77.2-.36.55-.46l1.28-.27v-17.35l-2.6.16q-.4 0-.62-.3-.2-.37-.24-.77 0-.46.15-.87.2-.4.62-.5 1.33-.27 2.5-.73 1.23-.46 2.4-.9.25-.12.46 0 .25.1.3.34l.46 1.03.77.3q.88-.55 1.85-1.06 1.02-.56 2.75-.56 1.28 0 2.35.67 1.12.6 1.83 1.8 1.08-1.04 2.76-1.75 1.73-.7 3.16-.7 1.7 0 2.8.75 1.18.72 1.9 1.94.76 1.23 1.07 2.82.3 1.58.3 3.26v12.35l2.25.5q.4.1.56.47.15.3.1.66 0 .36-.2.66-.15.3-.46.3h-7.5q-.4 0-.56-.3-.15-.3-.15-.66 0-.4.1-.7.16-.37.42-.47l1.73-.37v-12.4q0-1.83-.36-2.9-.3-1.13-.82-1.74-.5-.62-1.23-.83-.66-.2-1.32-.2-1.02 0-2.1.4-1.02.42-1.42.82.16.45.2 1.17.1.7.1 1.48.06.7.06 1.37 0 .62 0 .87v11.78l1.8.5q.4.1.55.47.16.3.1.7 0 .37-.2.67-.15.3-.45.3h-7.2z"/><path d="M-1921.75-661q.05 4.34 1.84 6.43 1.82 2.05 5.2 2.05 1.57 0 3.2-.2 1.7-.2 3.22-.52 1.58-.3 2.9-.66 1.38-.4 2.4-.82.3-.15.62.1.35.2.56.57.2.35.2.7.05.37-.2.52-1.33.66-2.96 1.28-1.58.6-3.32 1.12-1.68.46-3.47.7-1.73.32-3.42.32-2.65 0-4.74-.83-2.05-.8-3.48-2.24-1.38-1.48-2.1-3.42-.7-1.98-.7-4.28 0-3.1 1.07-5.56 1.06-2.5 2.74-4.18 1.74-1.74 3.88-2.66 2.2-.9 4.4-.9 2.38 0 4.37.75 2.03.77 3.46 2.2 1.48 1.42 2.25 3.52.82 2.03.82 4.58 0 .66-.3 1.07-.26.36-1.02.4l-17.45-.04zm14.44-2.34q-.1-1.43-.52-2.8-.36-1.44-1.18-2.5-.76-1.13-2.04-1.8-1.22-.66-3.06-.66-1.63 0-3 .62-1.34.6-2.4 1.68-1.03 1.07-1.64 2.5-.6 1.38-.66 2.96h14.5z"/><path d="M-1878.46-669.26q-.96-.7-2.5-1.07-1.48-.4-2.95-.4-1.4 0-2.77.55-1.38.5-2.45 1.58-1.07 1.02-1.78 2.66-.67 1.58-.67 3.72 0 2.5.56 4.3.6 1.72 1.63 2.9 1.02 1.12 2.45 1.68 1.47.5 3.16.5 1.17 0 2.65-.3 1.52-.35 2.64-1.17v-14.96zm.26 18.27l-.6-.35q-1.6.97-3.18 1.48-1.58.46-3.87.46-2.15 0-4.03-.93-1.84-.92-3.22-2.5-1.32-1.58-2.1-3.72-.76-2.15-.76-4.55 0-2.55.97-4.74.98-2.2 2.62-3.78 1.63-1.63 3.72-2.55 2.1-.92 4.4-.92 1.52 0 3.1.32 1.63.26 2.8.77l.16-9.45-4.08.4q-.56.06-.87-.3-.25-.36-.3-.82-.06-.46.1-.86.2-.4.5-.46 1.64-.3 3.27-.76 1.7-.46 3.1-.92.42-.1.73-.2.3-.1.56-.1.47 0 .67.35.26.3.2 1.18l-.35 12.9v17.5h3.57q.25 0 .4.36.15.37.2.83.05.4-.1.82-.1.35-.4.45-1.64.46-3.37.92-1.74.46-2.76.77-.3.1-.6.1-.32.04-.37-.42l-.1-1.27z"/><path d="M-1852.35-676.4q-1.02 0-1.8-.6-.7-.63-.7-1.7 0-1.07.4-1.94.4-.86 1.03-1.48.66-.6 1.42-.9.82-.37 1.64-.37 1.02 0 1.68.62.7.6.7 1.84 0 1.9-1.16 3.2-1.12 1.34-3.2 1.34zm-1.74 6.53l-8.25-.15q-.36 0-.5-.3-.17-.32-.12-.67.1-.4.36-.7.25-.37.66-.37 2.1-.05 4.84-.3 2.8-.3 5.05-.66.67-.1 1.07-.06.4.07.62.27.25.2.3.46.05.25.05.5v19.24l8.72.67q.46.05.66.4.2.3.15.72 0 .4-.25.76-.2.3-.56.3h-21.12q-.36 0-.57-.3-.15-.3-.15-.66 0-.4.15-.7.2-.32.57-.37l8.3-.72v-17.35z"/><path d="M-1817.42-661.35q-6.7.25-9.95 1.43-3.22 1.17-3.22 3.77 0 1.9 1.3 3.06 1.3 1.14 3.56 1.14 2.1 0 4.34-.67 2.3-.7 3.77-2.24l.2-6.48zm.05 9.28l-.36-.1q-1.8 1.18-4.18 2-2.4.76-4.86.76-4.03 0-6.07-1.75-2.04-1.78-2.04-4.33 0-2.1 1.17-3.52 1.17-1.48 3.42-2.4 2.3-.97 5.56-1.43 3.27-.46 7.4-.6l.1-2.4q.05-1.44-.3-2.46-.36-1-1.03-1.67-.6-.67-1.48-.97-.8-.3-1.73-.3-1.63 0-2.96.55-1.33.52-2.04 1.03-.26.16-.3.4 0 .27 0 .62 0 1.53-.67 2.2-.6.6-1.74.6-.86 0-1.68-.45-.76-.46-.66-2.24.04-.67.2-1.23.2-.56 1-.97 1.2-.6 2.67-1.17 1.53-.57 3.1-.98 1.6-.4 3.07-.66 1.48-.26 2.6-.26 3.06 0 4.44 2.04 1.43 2 1.43 5.15l-.45 13.67 3.98-1.07q.3-.1.6.2.37.3.52.77.15.45.1.86-.05.4-.46.56-.47.15-1.43.5-.97.36-2.05.72-1.07.36-2.04.66-.9.36-1.32.4-.77.16-.92-.4l-.6-2.35z"/></g><rect width="249.101" height="57.601" x="-1782.301" y="-696.438" fill="#fafafa" stroke="#e3e3e3" stroke-width="3.399" ry="10.706" stroke-linecap="round" stroke-linejoin="round"/><rect width="218.385" height="43.385" x="-1766.943" y="-689.33" fill="#fff" stroke="#e3e3e3" stroke-width="1.615" ry="21.693" stroke-linecap="round" stroke-linejoin="round"/><g fill="#404030" style="line-height:125%;-inkscape-font-specification:'Triplicate T4c, Normal';text-align:center" font-size="32.5" font-family="Triplicate T4c" letter-spacing="0" word-spacing="0" text-anchor="middle"><path d="M-1738.2-657.8q0 .32-.27.48-.23.16-.56.16-.3.04-.6-.1-.3-.1-.44-.32l-9.62-16.44-.38.2.56 13.28q.03.75.4 1.08.38.3.77.32l1.7.1q.28 0 .4.26.17.23.17.5 0 .25-.16.47-.13.22-.42.22h-6.54q-.3 0-.42-.26-.13-.26-.13-.58 0-.33.13-.6.13-.25.42-.25h.4q.16 0 .38-.03.23-.03.43-.2.23-.16.36-.48.17-.36.17-.98l-.2-16.1h-2.37q-.26 0-.4-.2-.12-.27-.12-.57 0-.32.13-.55.16-.26.42-.26h4.05q.36 0 .52.33l9.23 15.98.43-.13-.4-12.3q-.03-.93-.5-1.55-.47-.65-1.83-.8l-1.14-.1q-.26-.04-.4-.24-.1-.22-.1-.45 0-.22.14-.4.13-.2.36-.2l6.9-.2q.3 0 .47.26.17.26.17.58 0 .3-.17.6-.16.25-.48.28l-.78.06q-.85 0-.85 1.17l.16 17.94z"/><path d="M-1717.1-668.4q0 2.73-.72 4.84-.68 2.1-1.88 3.58-1.2 1.46-2.83 2.24-1.63.75-3.48.75-1.54 0-3-.58-1.46-.62-2.6-1.85-1.14-1.27-1.82-3.15-.68-1.9-.68-4.5t.65-4.8q.65-2.2 1.8-3.8 1.12-1.63 2.65-2.54 1.56-.9 3.35-.9 1.56 0 3.1.6 1.5.6 2.72 1.9 1.23 1.3 1.98 3.34.75 2.02.75 4.88zm-3 .32q0-4.5-1.46-6.95-1.43-2.47-4.2-2.47-1.26 0-2.3.78-1 .78-1.72 2.08-.68 1.27-1.07 2.96-.36 1.7-.36 3.54 0 1.8.25 3.5.3 1.7.94 3.06.68 1.34 1.75 2.15 1.07.8 2.63.8 1 0 1.98-.48 1-.5 1.8-1.6.77-1.14 1.26-2.92.5-1.82.5-4.46z"/><path d="M-1709.28-677.27q-1 0-1.66.2-.65.2-1.04.54-.36.33-.52.82-.13.47-.13 1.03v2.5q0 .2-.26.3-.25.06-.58.06-.3-.05-.58-.1-.26-.1-.26-.27l-.1-5.8q0-.2.2-.44.23-.24.58-.24h14.9q.35 0 .54.23.23.18.23.4l-.07 5.6q0 .23-.3.33-.25.1-.57.1-.3 0-.57-.1-.26-.13-.26-.33l-.1-2.73q0-.78-.77-1.43-.78-.68-2.25-.7h-2.14v18.1h4.1q.2 0 .33.25.16.22.2.54.03.3-.14.55-.14.22-.53.22h-10q-.33 0-.53-.23-.16-.27-.16-.56 0-.32.16-.55.17-.27.52-.27h3.5v-18.1h-1.74z"/><path d="M-1668.36-680.98q0-.5.33-.7.32-.27.87-.27 1.1 0 1.2.97v30.36q0 .55-.35.84-.34.33-.9.33-.48 0-.83-.3-.33-.3-.33-.87v-30.36z"/><path d="M-1619.67-668.4q0 2.73-.7 4.84-.7 2.1-1.9 3.58-1.2 1.46-2.82 2.24-1.62.75-3.47.75-1.53 0-3-.58-1.45-.62-2.6-1.85-1.13-1.27-1.8-3.15-.7-1.9-.7-4.5t.66-4.8q.64-2.2 1.77-3.8 1.14-1.63 2.67-2.54 1.56-.9 3.35-.9 1.55 0 3.07.6 1.53.6 2.73 1.9 1.24 1.3 2 3.34.73 2.02.73 4.88zm-3 .32q0-4.5-1.45-6.95-1.43-2.47-4.2-2.47-1.26 0-2.3.78-1 .78-1.72 2.08-.68 1.27-1.07 2.96-.37 1.7-.37 3.54 0 1.8.26 3.5.28 1.7.93 3.06.68 1.34 1.76 2.15 1.06.8 2.62.8 1 0 1.98-.48 1-.5 1.8-1.6.77-1.14 1.26-2.92.48-1.82.48-4.46z"/><path d="M-1601.8-657.8q0 .32-.26.48-.23.16-.56.16-.3.04-.6-.1-.3-.1-.44-.32l-9.62-16.44-.4.2.57 13.28q.02.75.38 1.08.4.3.78.32l1.7.1q.28 0 .4.26.17.23.17.5 0 .25-.16.47-.13.22-.42.22h-6.54q-.28 0-.4-.26-.14-.26-.14-.58 0-.33.13-.6.12-.25.4-.25h.4q.17 0 .4-.03.22-.03.42-.2.22-.16.35-.48.17-.36.17-.98l-.2-16.1h-2.37q-.26 0-.4-.2-.12-.27-.12-.57 0-.32.13-.55.16-.26.42-.26h4.06q.36 0 .52.33l9.23 15.98.44-.13-.4-12.3q-.03-.93-.5-1.55-.47-.65-1.83-.8l-1.13-.1q-.26-.04-.4-.24-.1-.22-.1-.45 0-.22.14-.4.14-.2.37-.2l6.9-.2q.3 0 .48.26.16.26.16.58 0 .3-.15.6-.17.25-.5.28l-.77.06q-.85 0-.85 1.17l.17 17.94z"/><path d="M-1588.5-678.64q.3 0 .43.26.13.23.1.55 0 .3-.16.56-.13.22-.4.22h-3.24v17.88h5.33q1.17-.03 1.85-.16.72-.17 1.1-.4.4-.22.53-.5.17-.3.2-.7l.26-3.08q.02-.24.28-.34.3-.1.62-.06.32 0 .58.13.26.1.26.32l-.22 5.5q0 .45-.36.68-.33.2-.75.2h-14.8q-.33 0-.53-.24-.16-.27-.16-.56 0-.32.17-.55.16-.27.52-.27h2.6v-17.88h-3.5q-.18 0-.28-.22-.1-.26-.1-.56 0-.32.1-.55.1-.26.3-.26h9.3z"/><path d="M-1568.94-668.9q.98-1.65 1.82-3.27.85-1.63 1.63-3.54.23-.57.07-.96-.13-.4-.88-.4h-1.3q-.27 0-.4-.2-.1-.27-.1-.57 0-.32.1-.55.13-.26.36-.26h6.2q.27 0 .4.26.13.23.1.55 0 .3-.17.56-.14.22-.4.22h-1.2q-1.33 2.67-2.73 5.14-1.36 2.46-2.83 4.86v7.87h3.55q.28 0 .38.26.13.22.13.54 0 .3-.16.55-.13.22-.35.22h-8.98q-.3 0-.46-.23-.13-.27-.13-.56 0-.32.13-.55.16-.27.46-.27h2.9v-7.22q-1.83-2.6-3.46-5.25-1.62-2.67-3.12-5.4h-1.36q-.23 0-.36-.22-.1-.26-.1-.56 0-.32.1-.55.1-.26.36-.26h6.73q.27 0 .4.26.13.23.13.55 0 .3-.13.56-.13.22-.36.22h-2.54q1.14 2.18 2.34 4.23 1.24 2 2.7 3.93h.52z"/></g><rect width="298.788" height="57.288" x="-1522.144" y="-696.282" fill="#fafafa" stroke="#e3e3e3" stroke-width="3.712" ry="10.648" stroke-linecap="round" stroke-linejoin="round"/><g fill="#404030" style="line-height:125%;-inkscape-font-specification:'Triplicate T4c, Italic';text-align:center" font-style="italic" font-size="51.02" font-family="Triplicate T4c" letter-spacing="0" word-spacing="0" text-anchor="middle"><path d="M-1492.93-672.97q.46-1.48.15-2.35-.26-.9-1.02-.9-1.07 0-2 .55-.9.56-1.72 1.48-.82.92-1.48 2.1-.67 1.12-1.23 2.24l-4.23 13.42q-.2.66-.87.97-.66.3-1.33.3-.86 0-1.43-.35-.5-.36-.24-1.07l5.66-18.2q.26-.82.05-1.28-.15-.46-.7-.46-.32 0-.78.2-.47.2-.98.5-.45.32-.9.68-.47.35-.83.66-.2.15-.47.05-.2-.15-.36-.4-.15-.26-.2-.57 0-.36.2-.56.3-.3.97-.82.72-.56 1.48-1.07.82-.5 1.63-.86.87-.36 1.54-.36 1.47 0 1.98 1.13.56 1.12.1 2.96l.76.24q1.84-2.3 3.52-3.3 1.7-1.03 3.42-1.03 1.48 0 2.25.98.76.92.5 2.85l.72.16q1.58-1.75 3.1-2.87 1.54-1.12 3.7-1.12 1.4 0 2.18.67.77.6 1.02 1.7.3 1 .1 2.33-.15 1.33-.56 2.66l-3.9 12.7q-.24.87.12 1.48.35.56 1.22.15.4-.2.87-.67.52-.5.88-1.02.1-.15.35-.04.26.05.5.2.32.15.47.36.15.2.05.4-1.17 1.64-2.6 2.4-1.38.77-2.45.77-2.14 0-2.96-1.6-.8-1.57.05-4.33l3.82-12.3q.56-1.73.3-2.44-.25-.77-1.12-.77-.7 0-1.48.4-.76.42-1.53 1.08-.72.66-1.44 1.58-.7.87-1.22 1.8l-4.85 15.24q-.16.56-.87.87-.67.3-1.6.3-.75 0-1.2-.3-.47-.36-.27-1.07l5.1-16.43z"/><path d="M-1470.15-664.3q-.1 2.2.4 3.47.57 1.28 1.4 1.94.8.68 1.77.88.97.15 1.8.15 1.37 0 2.9-.46 1.53-.46 3-1.17 1.5-.7 2.7-1.53 1.3-.82 2.05-1.53.36-.3.72-.1.4.15.65.56.26.4.3.92.06.46-.25.76-1.02.92-2.45 1.9-1.43.9-3.16 1.72-1.7.77-3.68 1.28-1.94.5-3.98.5-4.34 0-6.53-2.34-2.2-2.4-2.2-6.68 0-2.96 1.3-5.66 1.3-2.76 3.5-4.85 2.25-2.1 5.2-3.32 3.02-1.22 6.34-1.22 1.17 0 2.45.26 1.26.2 2.28.77 1.08.56 1.74 1.53.66.92.66 2.3 0 1.42-.87 2.65-.8 1.23-2.28 2.3-1.43 1.02-3.32 1.9-1.9.8-4.03 1.47-2.1.6-4.28 1.02-2.16.4-4.15.6zm.05-2.55q2.15-.2 4.65-.7 2.5-.57 4.64-1.44 2.13-.9 3.5-2.13 1.44-1.23 1.44-2.86 0-1.16-.87-1.83-.8-.7-2.9-.7-1.74 0-3.48.75-1.7.77-3.12 2.1-1.43 1.27-2.5 3.06-1.02 1.73-1.38 3.77z"/><path d="M-1440.42-662.2q0 1.37.3 2.3.3.9.82 1.42.5.5 1.17.7.72.22 1.43.22 1.84 0 3.88-1.48 2.1-1.48 3.72-4.24l2.35-7.75q0-2.7-1.17-4.03-1.18-1.33-3.42-1.33-1.8 0-3.42 1.03-1.63 1.02-2.9 2.9-1.23 1.85-2 4.45-.76 2.6-.76 5.82zm15.35-13.58l3.47-11.37-.6-.82-6.23 1.84q-.26.05-.46-.2-.2-.3-.35-.67-.1-.4-.05-.77.05-.35.3-.45.52-.2 1.5-.46.96-.3 2.08-.62 1.12-.35 2.34-.7 1.23-.37 2.3-.67.77-.26 1.17-.3.45-.1 1-.1.63 0 1.2.35.6.35.35 1.17-.16.6-.62 2.2-.46 1.52-1.07 3.67-.6 2.14-1.38 4.7-.76 2.5-1.53 5.1-.7 2.6-1.43 5.1-.7 2.44-1.27 4.48-.5 2-.87 3.37-.3 1.38-.3 1.8 0 .5.3.9.36.36.77.36.86 0 2.14-1.12 1.27-1.1 2.75-2.7.15-.15.5-.04.36.1.62.35.3.27.4.62.16.36-.15.67-.92 1-1.94 1.93-1.02.9-2.04 1.63-1.02.7-2.1 1.12-1.06.4-2.03.4-1.27 0-2.23-1.16-.92-1.18-.97-3.22-1.43 1.9-3.52 3.17-2.05 1.22-4.7 1.22-1.68 0-3-.62-1.33-.6-2.25-1.7-.87-1.06-1.38-2.5-.46-1.47-.46-3.15 0-3.26 1.1-6.17 1.2-2.96 3.02-5.16 1.9-2.2 4.3-3.47 2.4-1.32 4.9-1.32 2.18 0 3.66 1.03 1.48 1.02 2.04 2.45l.7-.16z"/><path d="M-1399.27-681.95q-1.02 0-1.73-.6-.67-.67-.67-1.75 0-2.14 1.28-3.4 1.28-1.34 3.32-1.34 1.03 0 1.8.66.76.6.76 1.84 0 1.9-1.28 3.26-1.28 1.33-3.47 1.33zm-2.9 21.02q-.42 1.38-.1 2.2.3.8 1.73.8 1.17 0 2.55-.75 1.38-.77 2.7-1.8 1.4-1.06 2.5-2.18 1.18-1.18 1.95-1.94.15-.16.5 0 .42.1.72.4.36.3.5.72.17.36-.14.66-.92 1.02-2.3 2.4-1.37 1.33-3.06 2.55-1.68 1.18-3.57 2.04-1.9.82-3.77.82-3.06 0-4.24-1.7-1.13-1.73-.3-4.48l3.97-13.63q.25-.92.05-1.18-.16-.25-.5-.25-.47 0-1.65.4-1.12.4-2.5 1.02-1.32.6-2.65 1.32-1.33.7-2.14 1.38-.2.15-.46-.05-.26-.26-.46-.62-.15-.4-.2-.76-.06-.4.15-.6.88-.83 2.46-1.7 1.58-.86 3.3-1.58 1.8-.72 3.48-1.18 1.74-.5 2.8-.5.72 0 1.34.3.66.25 1.07.86.46.56.56 1.43.1.88-.25 2.1l-4.03 13.47z"/><path d="M-1368.63-659.14q-1.42 1.78-3.4 2.96-2 1.17-4.6 1.17-1.7 0-3.02-.62-1.32-.6-2.24-1.7-.86-1.06-1.37-2.5-.46-1.47-.46-3.15 0-3.26 1.23-6.17 1.22-2.96 3.16-5.16 2-2.2 4.44-3.47 2.5-1.32 5-1.32 1.27 0 2.2.37.96.3 1.57.86.67.56 1.08 1.28.45.72.7 1.44h.62q.72-1.8 1.53-3.42.2-.36.77-.36.6-.05 1.22.15.6.17 1 .52.47.36.32.72-.92 2.3-1.8 4.6-.85 2.24-1.62 4.53-.76 2.3-1.38 4.64-.56 2.3-.8 4.66-.06.46.3.86.4.4.8.4.88 0 1.95-.9 1.07-.92 2.55-2.5.15-.16.5-.06.37.1.62.36.3.26.4.6.16.37-.14.68-1.84 2.04-3.78 3.36-1.94 1.33-3.93 1.33-1.23 0-2.2-1.08-.92-1.07-1.02-2.96l-.2-.1zm-10.7-3.06q0 1.37.3 2.3.3.9.8 1.42.52.5 1.2.7.7.22 1.4.22 1.85 0 3.94-1.48 2.16-1.48 3.8-4.24l2.34-7.75q0-2.7-.97-4.03t-3.22-1.33q-1.78 0-3.52 1.03-1.68 1.02-3.06 2.9-1.33 1.85-2.2 4.45-.8 2.6-.8 5.82z"/><path d="M-1339.97-677.56h10.66q.3 0 .45.4.2.42.2.93 0 .45-.25.86-.2.4-.72.4h-11.12l-4.03 13.74q-.4 1.37-.1 2.2.36.75 1.8.75 1.16 0 2.74-.76 1.63-.77 3.2-1.8 1.6-1.06 2.97-2.18 1.38-1.17 2.15-1.94.14-.15.55 0 .4.15.7.46.37.3.52.7.2.37-.1.68-.92 1.02-2.6 2.45-1.63 1.37-3.62 2.65-2 1.22-4.14 2.14-2.08.87-3.86.87-3.07 0-4.24-1.85-1.12-1.88-.3-4.64l3.97-13.46h-5.4q-.46 0-.72-.4-.2-.42-.2-.87 0-.5.25-.92.26-.4.72-.4h6.12l2.14-7.26q.16-.52.92-.77.77-.26 1.58-.2.82.05 1.38.4.56.3.36.97l-2 6.84z"/><path d="M-1303.82-663.17l-.66-.2q-1.18 1.37-2.5 2.75-1.28 1.37-2.66 2.5-1.37 1.12-2.75 1.83-1.37.68-2.7.68-2.4 0-3.46-2.04-1.02-2.1.1-5.72l2.86-10.15q.4-1.33.2-2.04-.2-.72-.6-.72-.88 0-1.6.73-.7.66-2.14 2.24-.15.16-.5.05-.36-.1-.67-.35-.27-.26-.42-.6-.1-.37.2-.68 1.84-2.05 3.37-3.12 1.58-1.07 3.32-1.07 2.14 0 2.86 1.6.76 1.57-.1 4.33l-3.27 11.22q-.46 1.48-.05 2.3.47.76 1.33.76 1.08 0 2.3-.75 1.28-.82 2.6-2.15 1.33-1.32 2.7-2.96 1.38-1.68 2.7-3.46l2.7-9.65q.22-.6.78-.8.62-.22 1.5-.22.8 0 1.52.27.7.2.56.76l-5.82 20.3q-.86 3.07-2 5.52-1.1 2.5-2.74 4.23-1.58 1.74-3.78 2.66-2.2.97-5.15.97-1.08 0-2.3-.25-1.23-.2-2.25-.76-.97-.52-1.63-1.5-.67-.9-.67-2.34 0-1.43.77-2.6.82-1.13 2.3-1.13 1.22 0 2.04.77.86.82.86 2.04 0 .56-.25 1.28-.2.7-.92 1.22.26.6 1.02.87.82.26 1.68.26 1.43 0 2.66-.5 1.28-.47 2.4-1.54 1.13-1.07 2.05-2.8.97-1.74 1.78-4.3l2.45-7.7z"/><path d="M-1287.3-648.07l.6.8h6.23q.2 0 .36.37.14.36.14.77.05.46-.05.8-.1.37-.42.37h-11.94q-.2 0-.3-.36-.1-.35-.16-.8 0-.42.1-.78.1-.36.36-.36.56 0 .77-.6.26-.57.62-1.95.1-.47.56-2.4.46-1.9 1.02-4.5.56-2.65 1.17-5.6.67-2.97 1.18-5.62.56-2.65.9-4.6.37-1.93.37-2.44 0-.6-.3-1.02-.3-.46-1.08-.46-.9 0-2.1.77-1.16.7-2.18 1.78-.15.17-.5.06-.32-.15-.57-.4-.27-.3-.37-.67-.05-.37.26-.67 1.57-1.58 3.6-2.55 2.05-.97 3.83-.97 1.43 0 2.15 1.28.7 1.28.4 2.9l.72.27q1.43-1.9 3.47-3.17t4.7-1.27q1.68 0 3 .62 1.33.6 2.2 1.68.92 1.08 1.37 2.56.5 1.42.5 3.1 0 3.27-1.16 6.23-1.12 2.9-2.96 5.1-1.83 2.2-4.13 3.5-2.3 1.3-4.65 1.3-1.8 0-3.17-.72-1.37-.77-2.04-2.25h-.5l-2.05 9.9zm16.27-23.83q0-1.38-.3-2.3-.32-.9-.83-1.42-.5-.5-1.22-.72-.66-.2-1.38-.2-1.83 0-4.03 1.53-2.13 1.52-3.76 4.28l-1.9 9.28q.57 1.8 2 2.76 1.48.97 3.06.97 1.63 0 3.16-1.03 1.53-1.03 2.66-2.86 1.17-1.88 1.83-4.48.72-2.6.72-5.82z"/><path d="M-1256-664.3q-.1 2.2.4 3.47.57 1.28 1.38 1.94.82.68 1.8.88.96.15 1.77.15 1.38 0 2.9-.46 1.54-.46 3.02-1.17 1.48-.7 2.7-1.53 1.28-.82 2.05-1.53.35-.3.7-.1.42.15.68.56.25.4.3.92.05.46-.25.76-1.02.92-2.45 1.9-1.43.9-3.17 1.72-1.68.77-3.67 1.28-1.94.5-3.98.5-4.34 0-6.53-2.34-2.2-2.4-2.2-6.68 0-2.96 1.28-5.66 1.33-2.76 3.52-4.85 2.25-2.1 5.2-3.32 3.02-1.22 6.33-1.22 1.18 0 2.45.26 1.28.2 2.3.77 1.07.56 1.73 1.53.67.92.67 2.3 0 1.42-.87 2.65-.82 1.23-2.3 2.3-1.43 1.02-3.3 1.9-1.9.8-4.04 1.47-2.1.6-4.3 1.02-2.13.4-4.12.6zm.05-2.55q2.14-.2 4.64-.7 2.5-.57 4.63-1.44 2.15-.9 3.52-2.13 1.43-1.23 1.43-2.86 0-1.16-.86-1.83-.82-.7-2.9-.7-1.75 0-3.48.75-1.7.77-3.1 2.1-1.44 1.27-2.5 3.06-1.03 1.73-1.4 3.77z"/></g><rect width="276.425" height="57.425" x="-758.213" y="-696.35" fill="#fafafa" stroke="#e3e3e3" stroke-width="3.575" ry="10.673" stroke-linecap="round" stroke-linejoin="round"/><g fill="#404030" style="line-height:125%;-inkscape-font-specification:'Triplicate T4c, Italic';text-align:center" font-style="italic" font-size="51.02" font-family="Triplicate T4c" letter-spacing="0" word-spacing="0" text-anchor="middle"><path d="M-739.15-648.92q.35.4.1.9-.2.58-.72.98-.46.4-1.02.62-.55.2-.85-.05-1.64-1.54-3.07-3.37-1.42-1.8-2.44-3.83-1.02-2.04-1.64-4.28-.56-2.3-.56-4.7 0-4.4 1.43-8.72 1.43-4.4 3.83-8.27 2.4-3.93 5.46-7.14 3.1-3.2 6.42-5.3.4-.26.82.04.4.26.66.77.26.46.2 1.02 0 .5-.45.82-2.75 1.78-5.25 4.7-2.5 2.9-4.43 6.52-1.9 3.56-3 7.64-1.14 4.03-1.14 8.12 0 3.98 1.58 7.4 1.64 3.4 4.1 6.12z"/><path d="M-720.04-673.92q-.36 0-.5-.4-.1-.42-.1-.88.04-.5.2-.92.14-.4.4-.4h6.48l.7-4.34q.22-1.38.88-2.96.7-1.63 1.94-3 1.22-1.4 3-2.3 1.8-.93 4.2-.93 1.68 0 3.05.4 1.44.42 2.46 1.2 1.02.7 1.58 1.77.62 1.07.62 2.35 0 1.48-.87 2.35-.83.8-2.15.8-1.53 0-2.3-.86-.76-.86-.76-2.2 0-.45.14-1.37.2-.93.97-1.5-.7-.5-1.42-.65-.66-.15-1.23-.15-1.37 0-2.44.5-1 .52-1.73 1.33-.7.77-1.12 1.7-.4.85-.5 1.62l-1.03 6.22h7.1q.55 0 .75.4.26.42.2.93 0 .46-.25.87-.2.4-.56.4h-7.6l-3.2 21.08q-.32 2-1.1 3.77-.75 1.8-1.92 3.12-1.13 1.37-2.7 2.14-1.6.8-3.48.8-1.02 0-2-.24-.96-.2-1.72-.7-.72-.52-1.18-1.3-.45-.76-.45-1.83 0-1.3.77-2.38.82-1.03 2.35-1.03.6 0 1.22.2.6.25 1.07.76.47.5.68 1.38.25.87.15 2.1l1.48.66q.67-.46 1.18-1.43.5-.92.82-2.04.36-1.13.56-2.25.2-1.12.3-1.94l3.17-20.86h-6.07z"/><path d="M-689-663.26q-.1 2.2.42 3.47.56 1.28 1.38 1.95.8.66 1.78.87.97.15 1.8.15 1.36 0 2.9-.46 1.53-.45 3-1.16 1.48-.72 2.7-1.54 1.28-.8 2.05-1.53.36-.3.7-.1.42.16.68.56.26.4.3.92.06.46-.24.77-1.02.92-2.45 1.88-1.42.92-3.15 1.74-1.7.76-3.68 1.28-1.94.5-3.98.5-4.34 0-6.54-2.34-2.2-2.4-2.2-6.7 0-2.94 1.28-5.65 1.33-2.75 3.52-4.85 2.25-2.1 5.2-3.3 3.02-1.24 6.34-1.24 1.17 0 2.44.26 1.28.2 2.3.76 1.07.57 1.74 1.53.66.9.66 2.3 0 1.42-.87 2.64-.82 1.23-2.3 2.3-1.42 1.02-3.3 1.9-1.9.8-4.04 1.47-2.1.62-4.3 1.03-2.13.4-4.12.6zm.06-2.55q2.14-.22 4.64-.73 2.5-.56 4.65-1.42 2.14-.92 3.52-2.15 1.43-1.22 1.43-2.85 0-1.18-.87-1.84-.82-.7-2.9-.7-1.74 0-3.48.76-1.68.77-3.1 2.1-1.44 1.27-2.5 3.05-1.03 1.75-1.4 3.8z"/><path d="M-648.65-658.1q-1.43 1.78-3.42 2.95-2 1.18-4.6 1.18-1.68 0-3-.62-1.33-.6-2.25-1.67-.87-1.07-1.38-2.5-.46-1.48-.46-3.16 0-3.27 1.23-6.18 1.22-2.97 3.16-5.16 2-2.2 4.44-3.47 2.5-1.33 5-1.33 1.28 0 2.2.36.96.3 1.58.87.66.56 1.07 1.27.46.72.7 1.43h.62q.72-1.78 1.54-3.42.2-.35.76-.35.6-.05 1.23.15.6.15 1.02.5.44.37.3.72-.93 2.3-1.8 4.6-.86 2.24-1.63 4.54-.76 2.3-1.37 4.65-.57 2.3-.82 4.64-.05.45.3.86.4.4.82.4.87 0 1.94-.9 1.07-.93 2.55-2.5.14-.16.5-.06t.6.36q.32.25.42.6.16.37-.15.67-1.84 2.04-3.78 3.37-1.95 1.33-3.93 1.33-1.23 0-2.2-1.08-.92-1.07-1.02-2.96l-.2-.1zm-10.72-3.07q0 1.38.3 2.3.3.92.83 1.43.5.5 1.17.7.7.2 1.43.2 1.83 0 3.93-1.47 2.13-1.48 3.76-4.24l2.35-7.75q0-2.7-.96-4.03-.97-1.32-3.22-1.32-1.78 0-3.52 1.02-1.68 1.02-3.06 2.9-1.32 1.84-2.2 4.45-.8 2.6-.8 5.8z"/><path d="M-620-676.53h10.66q.3 0 .46.4.2.42.2.93 0 .46-.25.87-.2.4-.7.4h-11.14l-4.03 13.73q-.4 1.38-.1 2.2.36.76 1.8.76 1.16 0 2.74-.77 1.64-.77 3.22-1.8 1.58-1.06 2.96-2.18 1.37-1.18 2.14-1.94.15-.16.56 0 .4.15.7.46.37.3.52.7.2.37-.1.67-.92 1.03-2.6 2.46-1.63 1.38-3.62 2.66-2 1.22-4.13 2.14-2.1.87-3.9.87-3.05 0-4.23-1.84-1.12-1.9-.3-4.65l3.98-13.47h-5.4q-.47 0-.73-.4-.2-.42-.2-.88 0-.5.26-.92.25-.4.7-.4h6.13l2.16-7.25q.15-.5.9-.77.78-.25 1.6-.2.8.05 1.37.4.56.3.36.98l-2 6.83z"/><path d="M-602.37-671.37q-.15.15-.5.05-.36-.1-.67-.36-.26-.25-.4-.6-.1-.37.2-.67 1.83-2.04 3.77-3.58 2-1.53 3.73-1.53 2.1 0 2.95 1.8.93 1.72.12 4.48l-3.68 11.78q-.86 2.86.82 2.86 1.07 0 2.65-1.32 1.6-1.33 3.33-3.27t3.42-4.13q1.73-2.2 2.96-3.98l1.95-7.1q.2-.55.76-.8.62-.32 1.34-.32.92 0 1.53.3.66.27.5.83l-4.94 19.03q-.3 1.22.36 1.22.34 0 1.06-.3.7-.36 1.53-.82.8-.46 1.57-.97.76-.56 1.33-.97.2-.15.46.05.25.22.45.57.22.3.27.72.05.34-.15.5-.87.6-2 1.32-1.06.72-2.24 1.28-1.12.56-2.24.97-1.07.36-1.9.36-.96 0-1.78-.46-.8-.46-.8-1.94 0-.67.14-1.53.15-.92.36-1.84.25-.97.5-1.9.3-.9.57-1.67h-.97q-1.17 1.37-2.55 3-1.37 1.63-2.9 3.06-1.53 1.38-3.16 2.35-1.58.93-3.27.93-2.04 0-2.96-1.9-.9-1.93.22-5.55l3.36-10.67q.4-1.3.2-2.03-.2-.7-.6-.7-.87 0-2.04.96-1.13.92-2.6 2.5z"/><path d="M-561.62-668.92q1.07-2 2.3-3.68 1.27-1.68 2.65-2.85 1.37-1.23 2.85-1.9 1.48-.7 2.96-.7 1.8 0 2.8.76 1.08.72 1.6 1.74.55.97.7 2.04.16 1.03.16 1.64 0 1.48-.4 2.7-.42 1.17-1.08 2.04-.6.87-1.48 1.38-.82.46-1.68.46-1.38 0-2.1-.72-.66-.76-.66-1.88 0-1.13.6-1.74.68-.6 1.44-1.12.82-.56 1.43-1.22.66-.67.66-1.9 0-.4-.46-.96-.4-.6-1.73-.6-1.53 0-3 .9-1.44.92-2.77 2.45-1.32 1.54-2.5 3.53-1.12 2-2.04 4.1-.92 2.03-1.58 4.07-.66 2-.97 3.62l6.28-.05q.46 0 .66.4.2.36.15.87 0 .46-.25.87-.2.37-.6.37h-14.9q-.52 0-.73-.36-.16-.4-.1-.86.04-.46.3-.8.25-.42.6-.42l4.1-.05q1.78-5.26 2.3-9.75.5-4.5.5-7.55 0-.6-.1-.92-.05-.3-.4-.3-.42 0-1.03.25-.6.2-1.33.56-.66.3-1.38.77-.7.4-1.22.82-.2.15-.5-.06-.27-.2-.47-.52-.15-.35-.2-.7-.06-.37.15-.57.76-.7 2.1-1.37 1.32-.7 2.34-1.12.7-.25 1.63-.5.9-.26 1.98-.26 1.12 0 1.58 1.08.46 1.02.5 2.5.06 1.42-.14 2.9-.15 1.48-.3 2.35l.76.3z"/><path d="M-536.03-663.26q-.1 2.2.4 3.47.57 1.28 1.4 1.95.8.66 1.77.87.97.15 1.8.15 1.36 0 2.9-.46 1.53-.45 3-1.16 1.5-.72 2.7-1.54 1.3-.8 2.05-1.53.35-.3.7-.1.4.16.67.56.25.4.3.92.06.46-.25.77-1.02.92-2.45 1.88-1.43.92-3.16 1.74-1.68.76-3.67 1.28-1.94.5-3.98.5-4.33 0-6.53-2.34-2.2-2.4-2.2-6.7 0-2.94 1.28-5.65 1.33-2.75 3.53-4.85 2.24-2.1 5.2-3.3 3-1.24 6.33-1.24 1.17 0 2.44.26 1.28.2 2.3.76 1.07.57 1.74 1.53.66.9.66 2.3 0 1.42-.87 2.64-.82 1.23-2.3 2.3-1.42 1.02-3.3 1.9-1.9.8-4.04 1.47-2.1.62-4.3 1.03-2.14.4-4.13.6zm.05-2.55q2.14-.22 4.64-.73 2.5-.56 4.65-1.42 2.15-.92 3.53-2.15 1.43-1.22 1.43-2.85 0-1.18-.87-1.84-.83-.7-2.92-.7-1.73 0-3.47.76-1.67.77-3.1 2.1-1.43 1.27-2.5 3.05-1.02 1.75-1.38 3.8z"/><path d="M-500.85-689.64q-.35-.4-.15-.92.26-.56.72-.97.5-.45 1.07-.66.55-.2.85.1 1.6 1.6 2.96 3.38 1.44 1.8 2.46 3.83 1.07 2 1.7 4.24.6 2.25.6 4.75 0 4.37-1.28 8.66-1.27 4.3-3.57 8.16-2.23 3.83-5.4 7.04-3.1 3.27-6.88 5.57-.4.25-.87-.1-.46-.3-.72-.87-.25-.5-.25-1.13 0-.56.46-.86 2.96-2 5.5-4.9 2.6-2.86 4.45-6.33 1.87-3.47 2.95-7.4 1.07-3.98 1.07-8.06 0-3.98-1.64-7.4-1.58-3.4-4.03-6.12z"/></g><rect width="440.523" height="56.523" x="-1211.011" y="-695.899" fill="#fafafa" stroke="#e3e3e3" stroke-width="4.477" ry="10.505" stroke-linecap="round" stroke-linejoin="round"/><rect width="411.548" height="42.798" x="-1196.524" y="-689.037" fill="#fff" stroke="#e3e3e3" stroke-width="2.202" ry="21.399" stroke-linecap="round" stroke-linejoin="round"/><g fill="#404030" style="line-height:125%;-inkscape-font-specification:'Triplicate T4c, Normal';text-align:center" font-size="32.5" font-family="Triplicate T4c" letter-spacing="0" word-spacing="0" text-anchor="middle"><path d="M-1172.03-663.98h-7.7l-1.1 3.22q-.5 1.6 1.52 1.65l1.84.06q.26 0 .4.26.12.23.12.52 0 .3-.2.52-.16.23-.48.23h-6.76q-.33 0-.5-.2-.15-.24-.15-.5t.13-.52q.13-.26.4-.32l.3-.1q.24-.06.47-.2.23-.16.45-.48.23-.33.5-.88.25-.58.58-1.53l5.9-16.25q.1-.26.34-.42.22-.16.45-.16.25 0 .45.13.22.13.4.52l7.27 19.3h1.56q.26 0 .4.25.12.23.12.56 0 .3-.13.56-.13.23-.36.23h-7.3q-.26 0-.4-.24-.1-.26-.1-.55 0-.32.14-.55.16-.26.42-.26h2.76l-1.75-4.88zm-7.18-1.53h6.62l-3.06-8.62q-.1-.26-.32-.3-.2-.03-.33.33l-2.9 8.6z"/><path d="M-1149.13-657.74q0 .32-.26.5-.22.15-.54.15-.3.04-.62-.1-.3-.1-.42-.3l-9.62-16.46-.4.2.56 13.3q.03.74.4 1.06.38.3.77.33l1.7.1q.28 0 .4.25.17.23.17.5 0 .25-.16.48-.13.23-.42.23h-6.53q-.3 0-.44-.27-.13-.26-.13-.6 0-.3.13-.57.13-.26.43-.26h.38q.16 0 .4-.04.2-.03.4-.2.24-.15.37-.48.16-.36.16-.97l-.2-16.08h-2.36q-.26 0-.4-.23-.12-.27-.12-.56 0-.33.13-.55.16-.27.42-.27h4.07q.35 0 .52.32l9.23 16 .4-.14-.38-12.27q-.03-.95-.52-1.56-.46-.65-1.82-.82l-1.14-.1q-.26-.03-.4-.22-.1-.23-.1-.46 0-.22.14-.42.13-.2.36-.2l6.9-.2q.32 0 .48.27.16.26.16.6 0 .28-.16.57-.16.25-.5.28l-.77.07q-.84 0-.84 1.17l.17 17.94z"/><path d="M-1142.16-659.1V-677h-2.8q-.15 0-.28-.23-.1-.27-.13-.56 0-.33.1-.55.1-.27.32-.27h7.77q1.95 0 3.6.68 1.66.66 2.86 1.93 1.37 1.46 2.08 3.54.72 2.05.72 4.52 0 2.6-.8 4.86-.8 2.28-2.55 3.74-1.04.84-2.47 1.33-1.4.46-3.18.46h-7.87q-.15 0-.25-.24-.1-.26-.1-.55 0-.32.07-.55.1-.26.3-.26h2.62zm2.54 0h2.57q1.3 0 2.43-.43 1.14-.42 2-1.46.86-1.03 1.32-2.8.5-1.74.5-4.4 0-1.83-.47-3.42-.42-1.6-1.3-2.8-.84-1.2-2.1-1.88-1.25-.68-2.9-.68h-2.05v17.87z"/><path d="M-1098.76-680.9q0-.5.32-.73.33-.26.88-.26 1.1 0 1.2 1v30.34q0 .55-.35.85-.34.3-.9.3-.48 0-.84-.28-.32-.3-.32-.88v-30.35z"/><path d="M-1060.9-659.5q0-.87.76-1.56.74-.7 1.9-.7 1.77 0 2.84 1.32 1.07 1.3 1.07 3.5 0 1.54-.58 2.64-.6 1.1-1.54 1.82-.94.75-2.1 1.14-1.18.4-2.32.46-.2 0-.36-.33-.13-.33-.16-.72-.03-.4.07-.75.08-.36.34-.4 1.6-.22 2.67-.93 1.1-.7 1.1-1.73 0-.52-.28-.84-.26-.3-.68-.5-.4-.18-.88-.35-.5-.16-.9-.4-.4-.25-.7-.64-.25-.4-.25-1.04z"/><path d="M-1020.8-680.9q0-.5.3-.73.34-.26.9-.26 1.1 0 1.2 1v30.34q0 .55-.37.85-.32.3-.87.3-.5 0-.85-.28-.3-.3-.3-.88v-30.35z"/><path d="M-973.75-657.74q0 .32-.26.5-.23.15-.56.15-.3.04-.62-.1-.3-.1-.42-.3l-9.62-16.46-.4.2.56 13.3q.04.74.4 1.06.38.3.77.33l1.7.1q.3 0 .43.25.16.23.16.5 0 .25-.17.48-.13.23-.43.23h-6.53q-.3 0-.42-.27-.13-.26-.13-.6 0-.3.13-.57.13-.26.42-.26h.4q.15 0 .38-.04.23-.03.42-.2.23-.15.36-.48.16-.36.16-.97l-.2-16.08h-2.37q-.26 0-.4-.23-.12-.27-.12-.56 0-.33.14-.55.16-.27.42-.27h4.06q.36 0 .52.32l9.23 16 .42-.14-.4-12.27q-.03-.95-.52-1.56-.45-.65-1.82-.82l-1.13-.1q-.26-.03-.4-.22-.1-.23-.1-.46 0-.22.14-.42.13-.2.36-.2l6.9-.2q.3 0 .47.27.17.26.17.6 0 .28-.17.57-.16.25-.48.28l-.78.07q-.85 0-.85 1.17l.15 17.94z"/><path d="M-952.63-668.34q0 2.73-.72 4.85-.68 2.12-1.88 3.58-1.2 1.46-2.83 2.24-1.63.75-3.48.75-1.53 0-3-.58-1.45-.63-2.6-1.87-1.13-1.26-1.8-3.15-.7-1.88-.7-4.48 0-2.6.66-4.8.65-2.22 1.8-3.82 1.12-1.62 2.65-2.53 1.56-.9 3.35-.9 1.56 0 3.1.6 1.5.6 2.72 1.9 1.23 1.3 1.98 3.34.75 2 .75 4.86zm-3 .33q0-4.53-1.46-6.97-1.42-2.47-4.18-2.47-1.27 0-2.3.78-1 .78-1.73 2.08-.7 1.27-1.08 2.96-.36 1.7-.36 3.54 0 1.8.26 3.5.3 1.7.94 3.07.7 1.32 1.76 2.13 1.07.82 2.63.82 1 0 1.98-.5 1-.48 1.8-1.58.77-1.14 1.26-2.93.48-1.82.48-4.45z"/><path d="M-944.8-677.2q-1.02 0-1.67.2-.65.18-1.04.54-.37.32-.53.8-.13.5-.13 1.05v2.5q0 .2-.26.3-.26.05-.6.05-.28-.03-.57-.1-.25-.1-.25-.26l-.1-5.8q0-.22.2-.45.22-.22.58-.22h14.9q.34 0 .54.22.23.2.23.43l-.07 5.6q0 .2-.3.3-.25.1-.58.1-.3 0-.55-.1-.26-.12-.26-.3l-.1-2.74q0-.78-.78-1.43-.78-.68-2.24-.7h-2.14v18.1h4.1q.2 0 .32.25.16.23.2.56.02.3-.14.56-.13.23-.52.23h-10q-.33 0-.53-.24-.15-.26-.15-.55 0-.32.16-.55.17-.26.53-.26h3.5v-18.1h-1.74z"/><path d="M-903.9-680.9q0-.5.34-.73.32-.26.87-.26 1.12 0 1.22 1v30.34q0 .55-.36.85-.33.3-.88.3-.5 0-.84-.28-.33-.3-.33-.88v-30.35z"/><path d="M-855.2-668.34q0 2.73-.7 4.85-.7 2.12-1.9 3.58t-2.82 2.24q-1.63.75-3.48.75-1.53 0-3-.58-1.45-.63-2.6-1.87-1.13-1.26-1.8-3.15-.7-1.88-.7-4.48 0-2.6.66-4.8.65-2.22 1.78-3.82 1.14-1.62 2.67-2.53 1.57-.9 3.36-.9 1.56 0 3.08.6 1.53.6 2.73 1.9 1.24 1.3 2 3.34.73 2 .73 4.86zm-3 .33q0-4.53-1.45-6.97-1.43-2.47-4.2-2.47-1.26 0-2.3.78-1 .78-1.72 2.08-.68 1.27-1.07 2.96-.36 1.7-.36 3.54 0 1.8.26 3.5.3 1.7.94 3.07.68 1.32 1.76 2.13 1.07.82 2.63.82 1 0 1.97-.5 1-.48 1.8-1.58.77-1.14 1.26-2.93.48-1.82.48-4.45z"/><path d="M-837.33-657.74q0 .32-.26.5-.22.15-.55.15-.3.04-.6-.1-.3-.1-.44-.3l-9.6-16.46-.4.2.56 13.3q.03.74.4 1.06.38.3.77.33l1.7.1q.28 0 .4.25.17.23.17.5 0 .25-.16.48-.13.23-.42.23h-6.54q-.3 0-.42-.27-.13-.26-.13-.6 0-.3.13-.57.13-.26.42-.26h.4q.16 0 .38-.04.23-.03.43-.2.2-.15.34-.48.17-.36.17-.97l-.2-16.08h-2.36q-.26 0-.4-.23-.12-.27-.12-.56 0-.33.13-.55.16-.27.42-.27h4.06q.36 0 .52.32l9.23 16 .43-.14-.38-12.27q-.04-.95-.52-1.56-.46-.65-1.82-.82l-1.14-.1q-.26-.03-.4-.22-.1-.23-.1-.46 0-.22.14-.42.13-.2.36-.2l6.9-.2q.3 0 .48.27.16.26.16.6 0 .28-.16.57-.17.25-.5.28l-.77.07q-.85 0-.85 1.17l.17 17.94z"/><path d="M-824.02-678.57q.3 0 .42.26.13.2.1.54 0 .3-.16.55-.13.22-.4.22h-3.24v17.87h5.33q1.17-.04 1.85-.17.7-.16 1.1-.4.4-.22.52-.5.17-.3.2-.7l.26-3.08q.03-.23.3-.32.28-.1.6-.07.33 0 .6.13.25.1.25.32l-.2 5.5q0 .44-.37.67-.33.2-.75.2h-14.82q-.32 0-.52-.24-.16-.26-.16-.55 0-.32.16-.55.16-.26.52-.26h2.6V-677h-3.48q-.2 0-.3-.23-.1-.27-.1-.56 0-.33.1-.55.1-.27.3-.27h9.3z"/><path d="M-804.47-668.82q.97-1.66 1.82-3.3.84-1.6 1.62-3.53.23-.55.07-.94-.13-.38-.88-.38h-1.3q-.26 0-.4-.23-.1-.27-.1-.56 0-.33.1-.55.14-.27.37-.27h6.2q.27 0 .4.26.13.2.1.54 0 .3-.17.55-.13.22-.4.22h-1.2q-1.32 2.66-2.72 5.13-1.37 2.47-2.83 4.88v7.86h3.55q.3 0 .4.25.12.23.12.56 0 .3-.16.56-.12.23-.35.23h-8.97q-.3 0-.45-.24-.13-.26-.13-.55 0-.32.13-.55.16-.26.45-.26h2.9v-7.22q-1.82-2.6-3.45-5.27-1.62-2.65-3.12-5.38h-1.35q-.23 0-.36-.23-.1-.27-.1-.56 0-.33.1-.55.1-.27.35-.27h6.72q.26 0 .4.26.12.2.12.54 0 .3-.14.55-.13.22-.35.22h-2.53q1.14 2.18 2.34 4.22 1.25 2.02 2.7 3.94h.53z"/></g><g fill="#c83737" style="line-height:125%;-inkscape-font-specification:'Equity Caps A, Normal';text-align:center" font-size="35" font-family="Equity Caps A" letter-spacing="0" word-spacing="0" text-anchor="middle"><path d="M-1185.7-563.34v-1.33l2.52-.52v-14.4l-2.52-.54v-1.33h8.6v1.33l-2.6.53v14.55h5.4l2.36-3.4h1.5l-.73 5.1h-14.53z"/><path d="M-1166.5-572.3q0-2.17.75-3.92.77-1.75 2.03-2.97 1.3-1.25 3-1.92 1.76-.66 3.72-.66 2.03 0 3.74.66 1.75.63 3 1.86 1.27 1.22 1.97 3 .7 1.76.7 3.96 0 2.3-.76 4.1-.73 1.75-2.03 2.94-1.25 1.2-2.96 1.78-1.72.6-3.64.6-1.96 0-3.7-.6-1.73-.63-3.02-1.82-1.26-1.22-2.03-2.97-.74-1.75-.74-4.03zm3.86-.03q0 1.85.46 3.25.45 1.4 1.22 2.38.77.95 1.8 1.44 1 .5 2.16.5 1.12 0 2.13-.4 1.02-.42 1.8-1.33.76-.9 1.2-2.33.47-1.44.47-3.5 0-1.9-.46-3.33-.42-1.47-1.2-2.4-.72-1-1.77-1.48-1.02-.5-2.17-.5-1.16 0-2.17.5-1.02.5-1.8 1.47-.76.98-1.2 2.4-.47 1.45-.47 3.34z"/><path d="M-1133.18-564.77q.98 0 1.93-.2.98-.26 1.7-.85v-4.55l-3.03-.67v-1.33h8.68v1.33l-2.17.53v5.7q-.5.27-1.16.62-.66.35-1.57.63-.88.28-1.96.46-1.1.22-2.42.22-1.92 0-3.67-.6-1.72-.63-3.05-1.82-1.3-1.22-2.1-2.97-.77-1.75-.77-4.03 0-2.17.74-3.92.77-1.75 2.06-2.97 1.33-1.25 3.08-1.92 1.8-.66 3.8-.66 1.67 0 3.53.6 1.85.55 3.32 1.36v4.23h-1.33q-.9-2.47-2.38-3.45-1.43-.98-3.15-.98-1.16 0-2.25.5-1.05.48-1.85 1.46-.77.94-1.26 2.38-.46 1.44-.46 3.37 0 1.75.46 3.15.45 1.4 1.22 2.38.8.98 1.86 1.5 1.05.53 2.2.53z"/><path d="M-1111.05-581.47v1.33l-2.48.53v14.4l2.48.53v1.33h-8.47v-1.33l2.52-.52v-14.4l-2.52-.54v-1.33h8.47z"/><path d="M-1096.05-564.77q2.27 0 3.6-1.12 1.33-1.1 2.03-3.25h1.33v4.1q-1.42.9-3.07 1.54-1.6.62-4.02.62-2 0-3.74-.6-1.75-.63-3.08-1.82-1.3-1.22-2.06-2.97-.77-1.75-.77-4.03 0-2.17.73-3.92.77-1.75 2.07-2.97 1.33-1.25 3.08-1.92 1.78-.66 3.78-.66 1.7 0 3.54.6 1.86.55 3.33 1.36v4.23h-1.33q-.9-2.47-2.38-3.45-1.44-.98-3.15-.98-1.15 0-2.23.52-1.05.52-1.86 1.53-.76.98-1.25 2.42-.45 1.4-.45 3.22 0 1.7.52 3.1.56 1.4 1.4 2.4.88.97 1.93 1.53 1.08.53 2.1.53z"/><path d="M-1072.7-569.3h-6.24l-1.47 3.76 2.8.87v1.33h-7.22v-1.33l2.38-.87 6.44-15.93h2.13l6.4 16.28 2.1.53v1.33h-8.1v-1.33l2.33-.52-1.57-4.1zm-5.58-1.63h4.94l-2.28-5.92h-.28l-2.38 5.92z"/><path d="M-1061.62-563.34v-1.33l2.52-.52v-14.4l-2.52-.54v-1.33h8.6v1.33l-2.62.53v14.55h5.43l2.33-3.4h1.5l-.73 5.1h-14.52z"/><path d="M-1032.64-572.3q0-2.17.74-3.92.77-1.75 2.03-2.97 1.3-1.25 3-1.92 1.76-.66 3.72-.66 2.03 0 3.74.66 1.74.63 3 1.86 1.26 1.22 1.96 3 .7 1.76.7 3.96 0 2.3-.77 4.1-.74 1.75-2.04 2.94-1.26 1.2-2.97 1.78-1.73.6-3.65.6-1.96 0-3.7-.6-1.73-.63-3.02-1.82-1.26-1.22-2.03-2.97-.74-1.75-.74-4.03zm3.85-.03q0 1.85.47 3.25.45 1.4 1.22 2.38.76.95 1.78 1.44 1 .5 2.17.5 1.12 0 2.13-.4 1.02-.42 1.8-1.33.76-.9 1.2-2.33.47-1.44.47-3.5 0-1.9-.46-3.33-.43-1.47-1.2-2.4-.73-1-1.78-1.48-1.02-.5-2.17-.5-1.16 0-2.17.5-1.02.5-1.8 1.47-.76.98-1.2 2.4-.47 1.45-.47 3.34z"/><path d="M-1002.93-570.8v5.6l2.8.53v1.33h-8.8v-1.33l2.53-.52v-14.4l-2.52-.54v-1.33h8.96q1.1 0 2.2.28 1.13.3 2.04.92.94.63 1.54 1.65.6.98.6 2.38 0 2.52-1.9 4-1.85 1.46-5.18 1.46h-2.27zm0-1.64h2.55q1.3 0 2.24-.98.98-.98.98-2.66 0-1.78-.94-2.66-.95-.87-2.35-.87h-2.48v7.16z"/><path d="M-976.95-565.05l2.03-3.12h1.5l-.73 4.83h-15.15v-1.33l2.52-.52v-14.4l-2.52-.54v-1.33h14.24l.46 4.34h-1.47l-1.82-2.62h-5.42v6.26h3.36l.95-1.98h1.1v5.84h-1.1l-.96-2.2h-3.36v6.8h6.37z"/><path d="M-958.1-571.88q.73.32 1.32 1.2.63.87 1.26 1.92.63 1 1.3 2.03.66.98 1.47 1.54l1.57.53v1.33h-4.2q-1.05-.66-1.85-1.85-.77-1.18-1.5-2.44-.74-1.26-1.55-2.3-.77-1.1-1.82-1.52h-1.05v6.27l2.5.53v1.33h-8.48v-1.33l2.52-.52v-14.4l-2.53-.54v-1.33h9.48q.77 0 1.75.2t1.86.7q.9.54 1.5 1.48.63.92.63 2.4 0 1.5-1.1 2.83-1.04 1.3-3.1 1.68v.32zm-5.05-1.22h1.93q.98 0 1.64-.32.7-.35 1.16-.84.45-.52.66-1.12.2-.63.2-1.22 0-1.65-.8-2.3-.8-.7-1.85-.7h-2.95v6.5z"/><path d="M-936.06-569.3h-6.23l-1.46 3.76 2.8.87v1.33h-7.2v-1.33l2.37-.87 6.45-15.93h2.13l6.4 16.28 2.1.53v1.33h-8.1v-1.33l2.33-.52-1.56-4.1zm-5.57-1.63h4.94l-2.27-5.92h-.28l-2.38 5.92z"/><path d="M-909.3-581.47l.83 5.1h-1.5l-2.32-3.45h-3.56v14.63l2.63.53v1.33h-8.72v-1.33l2.63-.52v-14.62h-3.57l-2.34 3.46h-1.47l.83-5.1h16.56z"/><path d="M-904.67-572.3q0-2.17.73-3.92.77-1.75 2.03-2.97 1.3-1.25 3-1.92 1.75-.66 3.7-.66 2.04 0 3.76.66 1.75.63 3 1.86 1.27 1.22 1.97 3 .7 1.76.7 3.96 0 2.3-.77 4.1-.74 1.75-2.03 2.94-1.26 1.2-2.98 1.78-1.7.6-3.64.6-1.95 0-3.7-.6-1.7-.63-3-1.82-1.27-1.22-2.04-2.97-.73-1.75-.73-4.03zm3.85-.03q0 1.85.45 3.25.46 1.4 1.23 2.38.77.95 1.78 1.44 1.02.5 2.17.5 1.13 0 2.15-.4 1-.42 1.78-1.33.77-.9 1.23-2.33.45-1.44.45-3.5 0-1.9-.44-3.33-.42-1.47-1.2-2.4-.73-1-1.78-1.48-1-.5-2.17-.5-1.14 0-2.16.5-1 .5-1.78 1.47-.77.98-1.23 2.4-.45 1.45-.45 3.34z"/><path d="M-869.93-571.88q.74.32 1.33 1.2.63.87 1.26 1.92.63 1 1.3 2.03.66.98 1.47 1.54l1.57.53v1.33h-4.2q-1.05-.66-1.85-1.85-.77-1.18-1.5-2.44-.74-1.26-1.55-2.3-.77-1.1-1.82-1.52h-1.05v6.27l2.5.53v1.33h-8.48v-1.33l2.52-.52v-14.4l-2.52-.54v-1.33h9.48q.77 0 1.75.2t1.86.7q.9.54 1.5 1.48.63.92.63 2.4 0 1.5-1.08 2.83-1.06 1.3-3.13 1.68v.32zm-5.04-1.22h1.93q.98 0 1.64-.32.7-.35 1.16-.84.45-.52.66-1.12.2-.63.2-1.22 0-1.65-.8-2.3-.8-.7-1.85-.7h-2.94v6.5z"/></g><path fill="none" stroke="#c83737" d="M-1024.62-585.95v-43"/></g></g></svg>
