<svg xmlns="http://www.w3.org/2000/svg" width="513.149" height="792" xmlns:xlink="http://www.w3.org/1999/xlink"><defs><marker orient="auto" overflow="visible"><path fill-rule="evenodd" stroke="#000" stroke-width=".8pt" d="M-4.62 0L2.3-4v8z"/></marker><marker orient="auto" overflow="visible"><path fill="#c00000" fill-rule="evenodd" stroke="#c00000" stroke-width=".8pt" d="M-4.62 0L2.3-4v8z"/></marker><marker orient="auto" overflow="visible"><path fill-rule="evenodd" stroke="#000" stroke-width=".6875" d="M10.7 4.44L-1.34.02 10.7-4.4c-1.93 2.6-1.92 6.18 0 8.84z" stroke-linejoin="round"/></marker><marker orient="auto" overflow="visible"><path fill-rule="evenodd" stroke="#000" stroke-width=".4pt" d="M2.3 0l-3.45 2v-4z"/></marker><marker orient="auto" overflow="visible"><path fill-rule="evenodd" stroke="#000" stroke-width=".4pt" d="M2.3 0l-3.45 2v-4z"/></marker><marker orient="auto" overflow="visible"><path fill-rule="evenodd" stroke="#000" stroke-width=".4pt" d="M2.3 0l-3.45 2v-4z"/></marker><marker orient="auto" overflow="visible"><path fill-rule="evenodd" stroke="#000" stroke-width=".8pt" d="M4.62 0L-2.3 4v-8z"/></marker><marker orient="auto" overflow="visible"><path fill-rule="evenodd" stroke="#000" stroke-width=".375" d="M-5.23-2.42l6.55 2.4-6.55 2.42c1.05-1.42 1.04-3.37 0-4.82z" stroke-linejoin="round"/></marker><marker orient="auto" overflow="visible"><path fill-rule="evenodd" stroke="#000" stroke-width=".4pt" d="M2.3 0l-3.45 2v-4z"/></marker><marker orient="auto" overflow="visible"><path fill-rule="evenodd" stroke="#000" stroke-width=".8pt" d="M4.62 0L-2.3 4v-8z"/></marker><marker orient="auto" overflow="visible"><path fill-rule="evenodd" stroke="#000" stroke-width=".6875" d="M10.7 4.44L-1.34.02 10.7-4.4c-1.93 2.6-1.92 6.18 0 8.84z" stroke-linejoin="round"/></marker><marker orient="auto" overflow="visible"><path fill-rule="evenodd" stroke="#000" stroke-width=".6875" d="M-10.7-4.44L1.34-.02-10.7 4.4c1.93-2.6 1.92-6.18 0-8.84z" stroke-linejoin="round"/></marker><linearGradient><stop offset="0" stop-color="#4c4c4c"/><stop offset="1" stop-color="#656565"/></linearGradient><linearGradient><stop offset="0" stop-color="#4c4c4c"/><stop offset="1" stop-color="#656565"/></linearGradient><linearGradient><stop offset="0" stop-color="#4c4c4c"/><stop offset="1" stop-color="#656565"/></linearGradient><linearGradient><stop offset="0" stop-color="#4c4c4c"/><stop offset="1" stop-color="#656565"/></linearGradient><linearGradient><stop offset="0" stop-color="#4c4c4c"/><stop offset="1" stop-color="#656565"/></linearGradient><linearGradient><stop offset="0" stop-color="#4c4c4c"/><stop offset="1" stop-color="#656565"/></linearGradient><linearGradient><stop offset="0" stop-color="#4c4c4c"/><stop offset="1" stop-color="#656565"/></linearGradient><linearGradient><stop offset="0" stop-color="#4c4c4c"/><stop offset="1" stop-color="#656565"/></linearGradient><linearGradient><stop offset="0" stop-color="#4c4c4c"/><stop offset="1" stop-color="#656565"/></linearGradient><linearGradient><stop offset="0" stop-color="#4c4c4c"/><stop offset="1" stop-color="#656565"/></linearGradient><linearGradient><stop offset="0" stop-color="#4c4c4c"/><stop offset="1" stop-color="#656565"/></linearGradient><linearGradient><stop offset="0" stop-color="#4c4c4c"/><stop offset="1" stop-color="#656565"/></linearGradient><linearGradient><stop offset="0" stop-color="#4c4c4c"/><stop offset="1" stop-color="#656565"/></linearGradient><linearGradient><stop offset="0" stop-color="#4c4c4c"/><stop offset="1" stop-color="#656565"/></linearGradient><linearGradient><stop offset="0" stop-color="#4c4c4c"/><stop offset="1" stop-color="#656565"/></linearGradient><linearGradient><stop offset="0" stop-color="#4c4c4c"/><stop offset="1" stop-color="#656565"/></linearGradient><linearGradient><stop offset="0" stop-color="#4c4c4c"/><stop offset="1" stop-color="#656565"/></linearGradient><linearGradient><stop offset="0" stop-color="#4c4c4c"/><stop offset="1" stop-color="#656565"/></linearGradient><linearGradient><stop offset="0" stop-color="#4c4c4c"/><stop offset="1" stop-color="#656565"/></linearGradient><linearGradient><stop offset="0" stop-color="#4c4c4c"/><stop offset="1" stop-color="#656565"/></linearGradient><linearGradient><stop offset="0" stop-color="#4c4c4c"/><stop offset="1" stop-color="#656565"/></linearGradient><linearGradient><stop offset="0" stop-color="#4c4c4c"/><stop offset="1" stop-color="#656565"/></linearGradient><linearGradient><stop offset="0" stop-color="#4c4c4c"/><stop offset="1" stop-color="#656565"/></linearGradient><linearGradient><stop offset="0" stop-color="#4c4c4c"/><stop offset="1" stop-color="#656565"/></linearGradient><linearGradient><stop offset="0" stop-color="#4c4c4c"/><stop offset="1" stop-color="#656565"/></linearGradient><linearGradient><stop offset="0" stop-color="#4c4c4c"/><stop offset="1" stop-color="#656565"/></linearGradient><linearGradient><stop offset="0" stop-color="#4c4c4c"/><stop offset="1" stop-color="#656565"/></linearGradient><linearGradient><stop offset="0" stop-color="#4c4c4c"/><stop offset="1" stop-color="#656565"/></linearGradient><linearGradient><stop offset="0" stop-color="#4c4c4c"/><stop offset="1" stop-color="#656565"/></linearGradient><linearGradient><stop offset="0" stop-color="#4c4c4c"/><stop offset="1" stop-color="#656565"/></linearGradient><linearGradient><stop offset="0" stop-color="#4c4c4c"/><stop offset="1" stop-color="#656565"/></linearGradient><linearGradient><stop offset="0" stop-color="#4c4c4c"/><stop offset="1" stop-color="#656565"/></linearGradient><linearGradient><stop offset="0" stop-color="#4c4c4c"/><stop offset="1" stop-color="#656565"/></linearGradient><linearGradient><stop offset="0" stop-color="#4c4c4c"/><stop offset="1" stop-color="#656565"/></linearGradient><linearGradient><stop offset="0" stop-color="#4c4c4c"/><stop offset="1" stop-color="#656565"/></linearGradient><linearGradient><stop offset="0" stop-color="#4c4c4c"/><stop offset="1" stop-color="#656565"/></linearGradient><linearGradient><stop offset="0" stop-color="#4c4c4c"/><stop offset="1" stop-color="#656565"/></linearGradient><linearGradient><stop offset="0" stop-color="#4c4c4c"/><stop offset="1" stop-color="#656565"/></linearGradient><linearGradient><stop offset="0" stop-color="#4c4c4c"/><stop offset="1" stop-color="#656565"/></linearGradient><linearGradient><stop offset="0" stop-color="#4c4c4c"/><stop offset="1" stop-color="#656565"/></linearGradient><linearGradient><stop offset="0" stop-color="#4c4c4c"/><stop offset="1" stop-color="#656565"/></linearGradient><linearGradient><stop offset="0" stop-color="#4c4c4c"/><stop offset="1" stop-color="#656565"/></linearGradient><linearGradient><stop offset="0" stop-color="#4c4c4c"/><stop offset="1" stop-color="#656565"/></linearGradient><linearGradient><stop offset="0" stop-color="#4c4c4c"/><stop offset="1" stop-color="#656565"/></linearGradient><linearGradient><stop offset="0" stop-color="#4c4c4c"/><stop offset="1" stop-color="#656565"/></linearGradient><linearGradient><stop offset="0" stop-color="#4c4c4c"/><stop offset="1" stop-color="#656565"/></linearGradient><linearGradient><stop offset="0" stop-color="#4c4c4c"/><stop offset="1" stop-color="#656565"/></linearGradient><linearGradient><stop offset="0" stop-color="#4c4c4c"/><stop offset="1" stop-color="#656565"/></linearGradient><linearGradient><stop offset="0" stop-color="#4c4c4c"/><stop offset="1" stop-color="#656565"/></linearGradient><linearGradient><stop offset="0" stop-color="#4c4c4c"/><stop offset="1" stop-color="#656565"/></linearGradient><linearGradient><stop offset="0" stop-color="#4c4c4c"/><stop offset="1" stop-color="#656565"/></linearGradient><linearGradient><stop offset="0" stop-color="#4c4c4c"/><stop offset="1" stop-color="#656565"/></linearGradient><linearGradient><stop offset="0" stop-color="#4c4c4c"/><stop offset="1" stop-color="#656565"/></linearGradient><linearGradient><stop offset="0" stop-color="#4c4c4c"/><stop offset="1" stop-color="#656565"/></linearGradient><linearGradient><stop offset="0" stop-color="#4c4c4c"/><stop offset="1" stop-color="#656565"/></linearGradient><linearGradient><stop offset="0" stop-color="#4c4c4c"/><stop offset="1" stop-color="#656565"/></linearGradient><linearGradient><stop offset="0" stop-color="#4c4c4c"/><stop offset="1" stop-color="#656565"/></linearGradient><linearGradient><stop offset="0" stop-color="#4c4c4c"/><stop offset="1" stop-color="#656565"/></linearGradient><linearGradient><stop offset="0" stop-color="#4c4c4c"/><stop offset="1" stop-color="#656565"/></linearGradient><linearGradient><stop offset="0" stop-color="#4c4c4c"/><stop offset="1" stop-color="#656565"/></linearGradient><linearGradient><stop offset="0" stop-color="#4c4c4c"/><stop offset="1" stop-color="#656565"/></linearGradient><linearGradient><stop offset="0" stop-color="#4c4c4c"/><stop offset="1" stop-color="#656565"/></linearGradient><linearGradient><stop offset="0" stop-color="#4c4c4c"/><stop offset="1" stop-color="#656565"/></linearGradient><linearGradient><stop offset="0" stop-color="#4c4c4c"/><stop offset="1" stop-color="#656565"/></linearGradient><linearGradient><stop offset="0" stop-color="#4c4c4c"/><stop offset="1" stop-color="#656565"/></linearGradient><linearGradient><stop offset="0" stop-color="#4c4c4c"/><stop offset="1" stop-color="#656565"/></linearGradient><linearGradient><stop offset="0" stop-color="#4c4c4c"/><stop offset="1" stop-color="#656565"/></linearGradient><linearGradient><stop offset="0" stop-color="#4c4c4c"/><stop offset="1" stop-color="#656565"/></linearGradient><linearGradient><stop offset="0" stop-color="#4c4c4c"/><stop offset="1" stop-color="#656565"/></linearGradient><linearGradient><stop offset="0" stop-color="#4c4c4c"/><stop offset="1" stop-color="#656565"/></linearGradient><linearGradient><stop offset="0" stop-color="#4c4c4c"/><stop offset="1" stop-color="#656565"/></linearGradient><linearGradient><stop offset="0" stop-color="#4c4c4c"/><stop offset="1" stop-color="#656565"/></linearGradient><linearGradient><stop offset="0" stop-color="#4c4c4c"/><stop offset="1" stop-color="#656565"/></linearGradient><linearGradient><stop offset="0" stop-color="#4c4c4c"/><stop offset="1" stop-color="#656565"/></linearGradient><linearGradient><stop offset="0" stop-color="#4c4c4c"/><stop offset="1" stop-color="#656565"/></linearGradient><linearGradient><stop offset="0" stop-color="#4c4c4c"/><stop offset="1" stop-color="#656565"/></linearGradient><linearGradient><stop offset="0" stop-color="#4c4c4c"/><stop offset="1" stop-color="#656565"/></linearGradient><linearGradient><stop offset="0" stop-color="#4c4c4c"/><stop offset="1" stop-color="#656565"/></linearGradient><linearGradient><stop offset="0" stop-color="#4c4c4c"/><stop offset="1" stop-color="#656565"/></linearGradient><linearGradient><stop offset="0" stop-color="#4c4c4c"/><stop offset="1" stop-color="#656565"/></linearGradient><linearGradient><stop offset="0" stop-color="#4c4c4c"/><stop offset="1" stop-color="#656565"/></linearGradient><linearGradient><stop offset="0" stop-color="#4c4c4c"/><stop offset="1" stop-color="#656565"/></linearGradient><linearGradient><stop offset="0" stop-color="#4c4c4c"/><stop offset="1" stop-color="#656565"/></linearGradient><linearGradient><stop offset="0" stop-color="#4c4c4c"/><stop offset="1" stop-color="#656565"/></linearGradient><linearGradient><stop offset="0" stop-color="#4c4c4c"/><stop offset="1" stop-color="#656565"/></linearGradient><linearGradient><stop offset="0" stop-color="#4c4c4c"/><stop offset="1" stop-color="#656565"/></linearGradient><linearGradient><stop offset="0" stop-color="#4c4c4c"/><stop offset="1" stop-color="#656565"/></linearGradient><linearGradient><stop offset="0" stop-color="#4c4c4c"/><stop offset="1" stop-color="#656565"/></linearGradient><linearGradient><stop offset="0" stop-color="#4c4c4c"/><stop offset="1" stop-color="#656565"/></linearGradient><linearGradient><stop offset="0" stop-color="#4c4c4c"/><stop offset="1" stop-color="#656565"/></linearGradient><linearGradient><stop offset="0" stop-color="#4c4c4c"/><stop offset="1" stop-color="#656565"/></linearGradient><linearGradient><stop offset="0" stop-color="#4c4c4c"/><stop offset="1" stop-color="#656565"/></linearGradient><linearGradient><stop offset="0" stop-color="#4c4c4c"/><stop offset="1" stop-color="#656565"/></linearGradient><linearGradient><stop offset="0" stop-color="#4c4c4c"/><stop offset="1" stop-color="#656565"/></linearGradient><linearGradient><stop offset="0" stop-color="#4c4c4c"/><stop offset="1" stop-color="#656565"/></linearGradient><linearGradient><stop offset="0" stop-color="#4c4c4c"/><stop offset="1" stop-color="#656565"/></linearGradient><linearGradient><stop offset="0" stop-color="#4c4c4c"/><stop offset="1" stop-color="#656565"/></linearGradient><linearGradient><stop offset="0" stop-color="#4c4c4c"/><stop offset="1" stop-color="#656565"/></linearGradient><linearGradient><stop offset="0" stop-color="#4c4c4c"/><stop offset="1" stop-color="#656565"/></linearGradient><linearGradient><stop offset="0" stop-color="#4c4c4c"/><stop offset="1" stop-color="#656565"/></linearGradient><linearGradient><stop offset="0" stop-color="#4c4c4c"/><stop offset="1" stop-color="#656565"/></linearGradient><linearGradient><stop offset="0" stop-color="#4c4c4c"/><stop offset="1" stop-color="#656565"/></linearGradient><linearGradient><stop offset="0" stop-color="#4c4c4c"/><stop offset="1" stop-color="#656565"/></linearGradient><linearGradient><stop offset="0" stop-color="#4c4c4c"/><stop offset="1" stop-color="#656565"/></linearGradient><linearGradient><stop offset="0" stop-color="#4c4c4c"/><stop offset="1" stop-color="#656565"/></linearGradient><linearGradient><stop offset="0" stop-color="#4c4c4c"/><stop offset="1" stop-color="#656565"/></linearGradient><linearGradient><stop offset="0" stop-color="#4c4c4c"/><stop offset="1" stop-color="#656565"/></linearGradient><linearGradient><stop offset="0" stop-color="#4c4c4c"/><stop offset="1" stop-color="#656565"/></linearGradient><linearGradient><stop offset="0" stop-color="#4c4c4c"/><stop offset="1" stop-color="#656565"/></linearGradient><linearGradient><stop offset="0" stop-color="#4c4c4c"/><stop offset="1" stop-color="#656565"/></linearGradient><linearGradient><stop offset="0" stop-color="#4c4c4c"/><stop offset="1" stop-color="#656565"/></linearGradient><linearGradient><stop offset="0" stop-color="#4c4c4c"/><stop offset="1" stop-color="#656565"/></linearGradient><linearGradient><stop offset="0" stop-color="#4c4c4c"/><stop offset="1" stop-color="#656565"/></linearGradient><linearGradient><stop offset="0" stop-color="#4c4c4c"/><stop offset="1" stop-color="#656565"/></linearGradient><linearGradient><stop offset="0" stop-color="#4c4c4c"/><stop offset="1" stop-color="#656565"/></linearGradient><linearGradient><stop offset="0" stop-color="#4c4c4c"/><stop offset="1" stop-color="#656565"/></linearGradient><linearGradient><stop offset="0" stop-color="#4c4c4c"/><stop offset="1" stop-color="#656565"/></linearGradient><linearGradient><stop offset="0" stop-color="#4c4c4c"/><stop offset="1" stop-color="#656565"/></linearGradient><linearGradient><stop offset="0" stop-color="#4c4c4c"/><stop offset="1" stop-color="#656565"/></linearGradient><linearGradient><stop offset="0" stop-color="#4c4c4c"/><stop offset="1" stop-color="#656565"/></linearGradient><linearGradient><stop offset="0" stop-color="#4c4c4c"/><stop offset="1" stop-color="#656565"/></linearGradient><linearGradient><stop offset="0" stop-color="#4c4c4c"/><stop offset="1" stop-color="#656565"/></linearGradient><linearGradient><stop offset="0" stop-color="#4c4c4c"/><stop offset="1" stop-color="#656565"/></linearGradient><linearGradient><stop offset="0" stop-color="#4c4c4c"/><stop offset="1" stop-color="#656565"/></linearGradient><linearGradient><stop offset="0" stop-color="#4c4c4c"/><stop offset="1" stop-color="#656565"/></linearGradient><linearGradient><stop offset="0" stop-color="#4c4c4c"/><stop offset="1" stop-color="#656565"/></linearGradient><linearGradient><stop offset="0" stop-color="#4c4c4c"/><stop offset="1" stop-color="#656565"/></linearGradient><linearGradient><stop offset="0" stop-color="#4c4c4c"/><stop offset="1" stop-color="#656565"/></linearGradient><linearGradient><stop offset="0" stop-color="#4c4c4c"/><stop offset="1" stop-color="#656565"/></linearGradient><linearGradient><stop offset="0" stop-color="#4c4c4c"/><stop offset="1" stop-color="#656565"/></linearGradient><linearGradient><stop offset="0" stop-color="#4c4c4c"/><stop offset="1" stop-color="#656565"/></linearGradient><linearGradient><stop offset="0" stop-color="#4c4c4c"/><stop offset="1" stop-color="#656565"/></linearGradient><linearGradient><stop offset="0" stop-color="#4c4c4c"/><stop offset="1" stop-color="#656565"/></linearGradient><linearGradient><stop offset="0" stop-color="#4c4c4c"/><stop offset="1" stop-color="#656565"/></linearGradient><linearGradient><stop offset="0" stop-color="#4c4c4c"/><stop offset="1" stop-color="#656565"/></linearGradient><linearGradient><stop offset="0" stop-color="#4c4c4c"/><stop offset="1" stop-color="#656565"/></linearGradient><linearGradient><stop offset="0" stop-color="#4c4c4c"/><stop offset="1" stop-color="#656565"/></linearGradient><linearGradient><stop offset="0" stop-color="#4c4c4c"/><stop offset="1" stop-color="#656565"/></linearGradient><linearGradient><stop offset="0" stop-color="#4c4c4c"/><stop offset="1" stop-color="#656565"/></linearGradient><linearGradient><stop offset="0" stop-color="#4c4c4c"/><stop offset="1" stop-color="#656565"/></linearGradient><linearGradient><stop offset="0" stop-color="#4c4c4c"/><stop offset="1" stop-color="#656565"/></linearGradient><linearGradient><stop offset="0" stop-color="#4c4c4c"/><stop offset="1" stop-color="#656565"/></linearGradient><linearGradient><stop offset="0" stop-color="#4c4c4c"/><stop offset="1" stop-color="#656565"/></linearGradient><linearGradient><stop offset="0" stop-color="#4c4c4c"/><stop offset="1" stop-color="#656565"/></linearGradient><linearGradient><stop offset="0" stop-color="#4c4c4c"/><stop offset="1" stop-color="#656565"/></linearGradient><linearGradient><stop offset="0" stop-color="#4c4c4c"/><stop offset="1" stop-color="#656565"/></linearGradient><linearGradient><stop offset="0" stop-color="#4c4c4c"/><stop offset="1" stop-color="#656565"/></linearGradient><linearGradient><stop offset="0" stop-color="#4c4c4c"/><stop offset="1" stop-color="#656565"/></linearGradient><linearGradient><stop offset="0" stop-color="#4c4c4c"/><stop offset="1" stop-color="#656565"/></linearGradient><linearGradient><stop offset="0" stop-color="#4c4c4c"/><stop offset="1" stop-color="#656565"/></linearGradient><linearGradient><stop offset="0" stop-color="#4c4c4c"/><stop offset="1" stop-color="#656565"/></linearGradient><linearGradient><stop offset="0" stop-color="#4c4c4c"/><stop offset="1" stop-color="#656565"/></linearGradient><linearGradient><stop offset="0" stop-color="#4c4c4c"/><stop offset="1" stop-color="#656565"/></linearGradient><linearGradient><stop offset="0" stop-color="#4c4c4c"/><stop offset="1" stop-color="#656565"/></linearGradient><linearGradient><stop offset="0" stop-color="#4c4c4c"/><stop offset="1" stop-color="#656565"/></linearGradient><linearGradient><stop offset="0" stop-color="#4c4c4c"/><stop offset="1" stop-color="#656565"/></linearGradient><linearGradient><stop offset="0" stop-color="#4c4c4c"/><stop offset="1" stop-color="#656565"/></linearGradient><linearGradient><stop offset="0" stop-color="#4c4c4c"/><stop offset="1" stop-color="#656565"/></linearGradient><linearGradient><stop offset="0" stop-color="#4c4c4c"/><stop offset="1" stop-color="#656565"/></linearGradient><linearGradient><stop offset="0" stop-color="#4c4c4c"/><stop offset="1" stop-color="#656565"/></linearGradient><linearGradient><stop offset="0" stop-color="#4c4c4c"/><stop offset="1" stop-color="#656565"/></linearGradient><linearGradient><stop offset="0" stop-color="#4c4c4c"/><stop offset="1" stop-color="#656565"/></linearGradient><linearGradient><stop offset="0" stop-color="#4c4c4c"/><stop offset="1" stop-color="#656565"/></linearGradient><linearGradient><stop offset="0" stop-color="#4c4c4c"/><stop offset="1" stop-color="#656565"/></linearGradient><linearGradient><stop offset="0" stop-color="#4c4c4c"/><stop offset="1" stop-color="#656565"/></linearGradient><linearGradient><stop offset="0" stop-color="#4c4c4c"/><stop offset="1" stop-color="#656565"/></linearGradient><linearGradient><stop offset="0" stop-color="#4c4c4c"/><stop offset="1" stop-color="#656565"/></linearGradient><linearGradient><stop offset="0" stop-color="#4c4c4c"/><stop offset="1" stop-color="#656565"/></linearGradient><linearGradient><stop offset="0" stop-color="#4c4c4c"/><stop offset="1" stop-color="#656565"/></linearGradient><linearGradient><stop offset="0" stop-color="#4c4c4c"/><stop offset="1" stop-color="#656565"/></linearGradient><linearGradient><stop offset="0" stop-color="#4c4c4c"/><stop offset="1" stop-color="#656565"/></linearGradient><linearGradient><stop offset="0" stop-color="#4c4c4c"/><stop offset="1" stop-color="#656565"/></linearGradient><linearGradient><stop offset="0" stop-color="#4c4c4c"/><stop offset="1" stop-color="#656565"/></linearGradient><linearGradient><stop offset="0" stop-color="#4c4c4c"/><stop offset="1" stop-color="#656565"/></linearGradient><linearGradient><stop offset="0" stop-color="#4c4c4c"/><stop offset="1" stop-color="#656565"/></linearGradient><linearGradient id="a"><stop offset="0" stop-color="#4887d2"/><stop offset="1" stop-color="#71a2dc"/></linearGradient><linearGradient x1="1975.884" x2="3466.778" y1="-5656.661" y2="-6315.289" xlink:href="#a" gradientUnits="userSpaceOnUse"/><linearGradient x1="1975.884" x2="3466.778" y1="-5656.661" y2="-6315.289" xlink:href="#a" gradientUnits="userSpaceOnUse"/><linearGradient x1="1975.884" x2="3466.778" y1="-5656.661" y2="-6315.289" xlink:href="#a" gradientUnits="userSpaceOnUse" gradientTransform="translate(583.61 3916.609)"/><linearGradient x1="1975.884" x2="3466.778" y1="-5656.661" y2="-6315.289" xlink:href="#a" gradientUnits="userSpaceOnUse" gradientTransform="translate(137.304 1781.357)"/><linearGradient x1="1975.884" x2="3466.778" y1="-5656.661" y2="-6315.289" xlink:href="#a" gradientUnits="userSpaceOnUse" gradientTransform="translate(137.304 1781.357)"/><linearGradient x1="1975.884" x2="3466.778" y1="-5656.661" y2="-6315.289" xlink:href="#a" gradientUnits="userSpaceOnUse"/><linearGradient x1="1975.884" x2="3466.778" y1="-5656.661" y2="-6315.289" xlink:href="#a" gradientUnits="userSpaceOnUse"/><linearGradient x1="1975.884" x2="3466.778" y1="-5656.661" y2="-6315.289" xlink:href="#a" gradientUnits="userSpaceOnUse"/><linearGradient x1="1975.884" x2="3466.778" y1="-5656.661" y2="-6315.289" xlink:href="#a" gradientUnits="userSpaceOnUse" gradientTransform="translate(507.231 -1205.157)"/><linearGradient x1="1975.884" x2="3466.778" y1="-5656.661" y2="-6315.289" xlink:href="#a" gradientUnits="userSpaceOnUse" gradientTransform="translate(953.42 929.153)"/><linearGradient x1="1975.884" x2="3466.778" y1="-5656.661" y2="-6315.289" xlink:href="#a" gradientUnits="userSpaceOnUse" gradientTransform="translate(507.231 -1205.157)"/><marker orient="auto" overflow="visible"><path fill-rule="evenodd" stroke="#000" stroke-width=".8pt" d="M4.62 0L-2.3 4v-8z"/></marker><marker orient="auto" overflow="visible"><path fill-rule="evenodd" stroke="#000" stroke-width=".4pt" d="M2.3 0l-3.45 2v-4z"/></marker><marker orient="auto" overflow="visible"><path fill-rule="evenodd" stroke="#000" stroke-width=".4pt" d="M2.3 0l-3.45 2v-4z"/></marker><marker orient="auto" overflow="visible"><path fill-rule="evenodd" stroke="#000" stroke-width=".4pt" d="M2.3 0l-3.45 2v-4z"/></marker><marker orient="auto" overflow="visible"><path fill-rule="evenodd" stroke="#000" stroke-width=".4pt" d="M2.3 0l-3.45 2v-4z"/></marker><marker orient="auto" overflow="visible"><path fill-rule="evenodd" stroke="#000" stroke-width=".4pt" d="M2.3 0l-3.45 2v-4z"/></marker><marker orient="auto" overflow="visible"><path fill-rule="evenodd" stroke="#000" stroke-width=".4pt" d="M2.3 0l-3.45 2v-4z"/></marker><marker orient="auto" overflow="visible"><path fill-rule="evenodd" stroke="#000" stroke-width=".4pt" d="M2.3 0l-3.45 2v-4z"/></marker><marker orient="auto" overflow="visible"><path fill-rule="evenodd" stroke="#000" stroke-width=".4pt" d="M2.3 0l-3.45 2v-4z"/></marker><marker orient="auto" overflow="visible"><path fill-rule="evenodd" stroke="#000" stroke-width=".4pt" d="M2.3 0l-3.45 2v-4z"/></marker><marker orient="auto" overflow="visible"><path fill-rule="evenodd" stroke="#000" stroke-width=".4pt" d="M2.3 0l-3.45 2v-4z"/></marker><marker orient="auto" overflow="visible"><path fill-rule="evenodd" stroke="#000" stroke-width=".4pt" d="M2.3 0l-3.45 2v-4z"/></marker><marker orient="auto" overflow="visible"><path fill-rule="evenodd" stroke="#000" stroke-width=".4pt" d="M2.3 0l-3.45 2v-4z"/></marker><marker orient="auto" overflow="visible"><path fill-rule="evenodd" stroke="#000" stroke-width=".4pt" d="M2.3 0l-3.45 2v-4z"/></marker><marker orient="auto" overflow="visible"><path fill-rule="evenodd" stroke="#000" stroke-width=".8pt" d="M4.62 0L-2.3 4v-8z"/></marker><marker orient="auto" overflow="visible"><path fill-rule="evenodd" stroke="#000" stroke-width=".8pt" d="M4.62 0L-2.3 4v-8z"/></marker><marker orient="auto" overflow="visible"><path fill="#789440" fill-rule="evenodd" stroke="#789440" stroke-width=".8pt" d="M4.62 0L-2.3 4v-8z"/></marker><marker orient="auto" overflow="visible"><path fill="#789440" fill-rule="evenodd" stroke="#789440" stroke-width=".8pt" d="M4.62 0L-2.3 4v-8z"/></marker><marker orient="auto" overflow="visible"><path fill="#ffc000" fill-rule="evenodd" stroke="#ffc000" stroke-width=".8pt" d="M-4.62 0L2.3-4v8z"/></marker><marker orient="auto" overflow="visible"><path fill="#ffc000" fill-rule="evenodd" stroke="#ffc000" stroke-width=".4pt" d="M2.3 0l-3.45 2v-4z"/></marker><marker orient="auto" overflow="visible"><path fill-rule="evenodd" stroke="#000" stroke-width=".8pt" d="M4.62 0L-2.3 4v-8z"/></marker></defs><g><g transform="translate(0 -260.362) translate(-1.919 1348)"><g transform="rotate(-90 -148.54 -698.098)"><path fill="#fbd140" d="M207.28-547.64c-3.73 0-6.74 3.02-6.74 6.76v35.03c0 3.75 3 6.76 6.74 6.76h21.85c3.5 0 6.74-3.22 6.74-6.73v-19.1l5.13-4.86v-11.08c0-3.74-3-6.76-6.74-6.76z"/><rect width="31.545" height="47.563" x="210.713" y="-614.383" fill="#ffe9a1" ry="6.743" rx="6.381" transform="matrix(.949 .315 0 1 0 0)"/></g><text x="67.232" y="-1057.07" fill="#404030" style="line-height:0%;-inkscape-font-specification:'Concourse T4, Normal';text-align:start" font-family="Concourse T4" letter-spacing="0" word-spacing="0"><tspan x="67.232" y="-1057.07" style="line-height:1.25" font-size="32.5">1001-website (ROOT)</tspan></text><path fill="none" stroke="#404030" stroke-width="2" d="M29.6-1046.76v269.62" stroke-linecap="square"/><g><text x="167.692" y="-1046.555" fill="#e14b25" style="line-height:0%;-inkscape-font-specification:'Triplicate T4c, Normal';text-align:start" font-family="Triplicate T4c" letter-spacing="0" word-spacing="0" transform="translate(-65.395 40.5)"><tspan x="167.692" y="-1046.555" style="line-height:1.25" font-size="32.5">index.html</tspan></text><g transform="translate(-65.395 40.5) translate(115 -170)"><rect width="25" height="40" x="20" y="-907.638" fill="#fbd140" ry="5" rx="5"/><g fill="#e14b25" font-family="Triplicate T4c" letter-spacing="0" word-spacing="0"><path d="M30.86-891.73q.2-.1.4.03.18.12.28.35.13.2.14.44.02.22-.14.3l-5.5 2.73v.27l5.56 2.8q.15.12.15.36 0 .25-.1.5-.1.22-.3.36-.17.14-.37.04l-6.6-3.54q-.15-.07-.24-.23-.07-.18-.1-.36 0-.17.07-.33.1-.16.25-.25z" style="line-height:89.99999762%;-inkscape-font-specification:'Triplicate T4c, Normal';text-align:start"/><path d="M40.65-888.25q.16.1.23.26.08.17.07.34-.02.18-.1.35-.08.15-.24.22l-6.58 3.54q-.2.1-.4-.04-.16-.14-.27-.37-.1-.24-.1-.5 0-.23.15-.34l5.57-2.8v-.27l-5.5-2.74q-.17-.08-.17-.3.02-.24.14-.45.12-.23.3-.35.2-.14.4-.03z" style="line-height:89.99999762%;-inkscape-font-specification:'Triplicate T4c, Normal';text-align:start"/></g></g></g><g><g transform="translate(-60.395 75) rotate(-90 -24.5 -767.138)"><path fill="#fbd140" d="M207.28-547.64c-3.73 0-6.74 3.02-6.74 6.76v35.03c0 3.75 3 6.76 6.74 6.76h21.85c3.5 0 6.74-3.22 6.74-6.73v-19.1l5.13-4.86v-11.08c0-3.74-3-6.76-6.74-6.76z"/><rect width="31.545" height="47.563" x="210.713" y="-614.383" fill="#ffe9a1" transform="matrix(.949 .315 0 1 0 0)" rx="6.381" ry="6.743"/></g><text x="257.627" y="-1000.588" fill="#404030" style="line-height:0%;-inkscape-font-specification:'Concourse T4, Normal';text-align:start" font-family="Concourse T4" letter-spacing="0" word-spacing="0" transform="translate(-60.395 75)"><tspan x="257.627" y="-1000.588" style="line-height:1.25" font-size="32.5">01-pages</tspan></text><path fill="none" stroke="#404030" stroke-width="2" d="M134.6-936.64h-105"/></g><g><g><g transform="matrix(0 -1 1 0 -60.396 155.5)"><path fill="#fbd140" d="M207.28-547.64c-3.73 0-6.74 3.02-6.74 6.76v35.03c0 3.75 3 6.76 6.74 6.76h21.85c3.5 0 6.74-3.22 6.74-6.73v-19.1l5.13-4.86v-11.08c0-3.74-3-6.76-6.74-6.76z"/><rect width="31.545" height="47.563" x="210.713" y="-614.383" fill="#ffe9a1" ry="6.743" rx="6.381" transform="matrix(.949 .315 0 1 0 0)"/></g><text x="257.627" y="-1000.588" fill="#404030" style="line-height:0%;-inkscape-font-specification:'Concourse T4, Normal';text-align:start" font-family="Concourse T4" letter-spacing="0" word-spacing="0" transform="translate(2.004 1) translate(-62.4 154.5)"><tspan x="257.627" y="-1000.588" style="line-height:1.25" font-size="32.5">11-resources</tspan></text><path fill="none" stroke="#404030" stroke-width="2" d="M134.6-856.14h-105"/></g></g><g><g transform="translate(-60.395 234.5) rotate(-90 -24.5 -767.138)"><path fill="#fbd140" d="M207.28-547.64c-3.73 0-6.74 3.02-6.74 6.76v35.03c0 3.75 3 6.76 6.74 6.76h21.85c3.5 0 6.74-3.22 6.74-6.73v-19.1l5.13-4.86v-11.08c0-3.74-3-6.76-6.74-6.76z"/><rect width="31.545" height="47.563" x="210.713" y="-614.383" fill="#ffe9a1" transform="matrix(.949 .315 0 1 0 0)" rx="6.381" ry="6.743"/></g><text x="257.627" y="-1000.588" fill="#404030" style="line-height:0%;-inkscape-font-specification:'Concourse T4, Normal';text-align:start" font-family="Concourse T4" letter-spacing="0" word-spacing="0" transform="translate(-60.395 234.5)"><tspan x="257.627" y="-1000.588" style="line-height:1.25" font-size="32.5">21-global</tspan></text><path fill="none" stroke="#404030" stroke-width="2" d="M134.6-777.14h-105"/></g><path fill="none" stroke="#404030" stroke-width="2" d="M159.6-757.26v441.62" stroke-linecap="square"/><g><g transform="translate(70.605 314.5) rotate(-90 -24.5 -767.138)"><path fill="#fbd140" d="M207.28-547.64c-3.73 0-6.74 3.02-6.74 6.76v35.03c0 3.75 3 6.76 6.74 6.76h21.85c3.5 0 6.74-3.22 6.74-6.73v-19.1l5.13-4.86v-11.08c0-3.74-3-6.76-6.74-6.76z"/><rect width="31.545" height="47.563" x="210.713" y="-614.383" fill="#ffe9a1" transform="matrix(.949 .315 0 1 0 0)" rx="6.381" ry="6.743"/></g><text x="257.627" y="-1000.588" fill="#404030" style="line-height:0%;-inkscape-font-specification:'Concourse T4, Normal';text-align:start" font-family="Concourse T4" letter-spacing="0" word-spacing="0" transform="translate(70.605 314.5)"><tspan x="257.627" y="-1000.588" style="line-height:1.25" font-size="32.5">01-css</tspan></text><path fill="none" stroke="#404030" stroke-width="2" d="M265.6-697.14h-105"/></g><path fill="#fb4540" d="M395-443.92c0 3.74 3.02 6.74 6.76 6.74h35.03c3.74 0 6.75-3 6.75-6.74v-21.85c0-3.5-3.23-6.74-6.74-6.74h-19.08l-4.87-5.14h-11.1c-3.73 0-6.75 3-6.75 6.75z"/><rect width="31.545" height="47.563" x="460.027" y="249.769" fill="#ffa3a1" transform="matrix(.315 -.949 1 0 0 0)" rx="6.381" ry="6.743"/><text x="457.627" y="-445.588" fill="#e14b25" style="line-height:0%;-inkscape-font-specification:'Concourse T4, Normal';text-align:start" font-family="Concourse T4" letter-spacing="0" word-spacing="0"><tspan x="457.627" y="-445.588" style="line-height:1.25" font-size="32.5">woff</tspan></text><path fill="none" stroke="#404030" stroke-width="2" d="M395-456.64H290"/><path fill="none" stroke="#404030" stroke-width="2" d="M290-516.1v59.92" stroke-linecap="square"/><path fill="#fb4540" d="M265-522.92c0 3.74 3.02 6.74 6.76 6.74h35.03c3.74 0 6.75-3 6.75-6.74v-21.85c0-3.5-3.23-6.74-6.74-6.74h-19.08l-4.87-5.14h-11.1c-3.73 0-6.75 3-6.75 6.75z"/><rect width="31.545" height="47.563" x="543.259" y="93.567" fill="#ffa3a1" transform="matrix(.315 -.949 1 0 0 0)" rx="6.381" ry="6.743"/><text x="327.627" y="-524.588" fill="#e14b25" style="line-height:0%;-inkscape-font-specification:'Concourse T4, Normal';text-align:start" font-family="Concourse T4" letter-spacing="0" word-spacing="0"><tspan x="327.627" y="-524.588" style="line-height:1.25" font-size="32.5">03-fonts</tspan></text><path fill="none" stroke="#404030" stroke-width="2" d="M265-535.64H160"/><g><g transform="translate(70 636) rotate(-90 -24.5 -767.138)"><path fill="#fbd140" d="M207.28-547.64c-3.73 0-6.74 3.02-6.74 6.76v35.03c0 3.75 3 6.76 6.74 6.76h21.85c3.5 0 6.74-3.22 6.74-6.73v-19.1l5.13-4.86v-11.08c0-3.74-3-6.76-6.74-6.76z"/><rect width="31.545" height="47.563" x="210.713" y="-614.383" fill="#ffe9a1" transform="matrix(.949 .315 0 1 0 0)" rx="6.381" ry="6.743"/></g><text x="257.627" y="-1000.588" fill="#404030" style="line-height:0%;-inkscape-font-specification:'Concourse T4, Normal';text-align:start" font-family="Concourse T4" letter-spacing="0" word-spacing="0" transform="translate(70 636)"><tspan x="257.627" y="-1000.588" style="line-height:1.25" font-size="32.5">04-data</tspan></text><path fill="none" stroke="#404030" stroke-width="2" d="M265-375.64H160"/></g><g><g transform="translate(70 696) rotate(-90 -24.5 -767.138)"><path fill="#fbd140" d="M207.28-547.64c-3.73 0-6.74 3.02-6.74 6.76v35.03c0 3.75 3 6.76 6.74 6.76h21.85c3.5 0 6.74-3.22 6.74-6.73v-19.1l5.13-4.86v-11.08c0-3.74-3-6.76-6.74-6.76z"/><rect width="31.545" height="47.563" x="210.713" y="-614.383" fill="#ffe9a1" transform="matrix(.949 .315 0 1 0 0)" rx="6.381" ry="6.743"/></g><text x="257.627" y="-1000.588" fill="#404030" style="line-height:0%;-inkscape-font-specification:'Concourse T4, Normal';text-align:start" font-family="Concourse T4" letter-spacing="0" word-spacing="0" transform="translate(70 696)"><tspan x="257.627" y="-1000.588" style="line-height:1.25" font-size="32.5">05-js</tspan></text><path fill="none" stroke="#404030" stroke-width="2" d="M265-315.64H160"/></g><g><g transform="translate(70 396) rotate(-90 -24.5 -767.138)"><path fill="#fbd140" d="M207.28-547.64c-3.73 0-6.74 3.02-6.74 6.76v35.03c0 3.75 3 6.76 6.74 6.76h21.85c3.5 0 6.74-3.22 6.74-6.73v-19.1l5.13-4.86v-11.08c0-3.74-3-6.76-6.74-6.76z"/><rect width="31.545" height="47.563" x="210.713" y="-614.383" fill="#ffe9a1" transform="matrix(.949 .315 0 1 0 0)" rx="6.381" ry="6.743"/></g><text x="257.627" y="-1000.588" fill="#404030" style="line-height:0%;-inkscape-font-specification:'Concourse T4, Normal';text-align:start" font-family="Concourse T4" letter-spacing="0" word-spacing="0" transform="translate(70 396)"><tspan x="257.627" y="-1000.588" style="line-height:1.25" font-size="32.5">02-images</tspan></text><path fill="none" stroke="#404030" stroke-width="2" d="M265-615.64H160"/></g></g></g></svg>
