<svg xmlns="http://www.w3.org/2000/svg" width="1904.325" height="1076" xmlns:xlink="http://www.w3.org/1999/xlink"><defs><linearGradient id="k"><stop offset="0" stop-color="#aaadff"/><stop offset="1" stop-color="#b600ff"/></linearGradient><linearGradient id="j"><stop offset="0" stop-color="#eaf"/><stop offset="1" stop-color="#c0f"/></linearGradient><linearGradient id="i"><stop offset="0" stop-color="#caf"/><stop offset="1" stop-color="#60f"/></linearGradient><linearGradient id="h"><stop offset="0" stop-color="#afc6e9"/><stop offset="1" stop-color="#3771c8"/></linearGradient><linearGradient id="g"><stop offset="0" stop-color="#aade87"/><stop offset="1" stop-color="#71c837"/></linearGradient><linearGradient id="f"><stop offset="0" stop-color="#fea"/><stop offset="1" stop-color="#fc0"/></linearGradient><linearGradient id="e"><stop offset="0" stop-color="#fca"/><stop offset="1" stop-color="#f60"/></linearGradient><linearGradient id="d"><stop offset="0" stop-color="#ccc"/><stop offset="1" stop-color="#4d4d4d"/></linearGradient><linearGradient id="c"><stop offset="0" stop-color="#ccc"/><stop offset="1" stop-color="#4d4d4d"/></linearGradient><linearGradient id="b"><stop offset="0" stop-color="#ccc"/><stop offset="1" stop-color="#4d4d4d"/></linearGradient><linearGradient id="a"><stop offset="0" stop-color="#ffd5d5"/><stop offset="1" stop-color="#ff2a2a"/></linearGradient><linearGradient id="p" x1="1749" x2="3096" y1="-1235.138" y2="-1235.138" gradientTransform="matrix(.947 0 0 1 -1378.296 1249)" xlink:href="#a" gradientUnits="userSpaceOnUse"/><linearGradient id="u" x1="1749" x2="2803" y1="-234.138" y2="-234.138" xlink:href="#b" gradientUnits="userSpaceOnUse" gradientTransform="matrix(.995 0 0 1 -1462.358 1249)"/><linearGradient id="t" x1="1749" x2="2036" y1="-434.138" y2="-434.138" xlink:href="#c" gradientUnits="userSpaceOnUse" gradientTransform="matrix(.905 0 0 1 -1304.886 1349)"/><linearGradient id="s" x1="1749" x2="2038" y1="-534.138" y2="-534.138" xlink:href="#d" gradientUnits="userSpaceOnUse" gradientTransform="matrix(.697 0 0 1 -940.187 1349)"/><linearGradient id="l" x1="1749" x2="2423" y1="-1235.138" y2="-1235.138" xlink:href="#e" gradientUnits="userSpaceOnUse" gradientTransform="matrix(1.292 0 0 1 -1981.092 1249)"/><linearGradient id="o" x1="1749" x2="2027" y1="-934.138" y2="-934.138" xlink:href="#f" gradientUnits="userSpaceOnUse" gradientTransform="matrix(1.134 0 0 1 -1705.276 1249)"/><linearGradient id="n" x1="1749" x2="2021" y1="-1034.138" y2="-1034.138" xlink:href="#g" gradientUnits="userSpaceOnUse" gradientTransform="matrix(.956 0 0 1 -1392.897 1151)"/><linearGradient id="q" x1="1749" x2="2001" y1="-735.138" y2="-735.138" xlink:href="#h" gradientUnits="userSpaceOnUse" gradientTransform="matrix(.768 0 0 1 -1064.675 1249)"/><linearGradient id="r" x1="1749" x2="2001" y1="-636.138" y2="-636.138" xlink:href="#i" gradientUnits="userSpaceOnUse" gradientTransform="matrix(.96 0 0 1 -1400.675 1249)"/><linearGradient id="m" x1="1749" x2="1872" y1="-1136.138" y2="-1136.138" xlink:href="#j" gradientUnits="userSpaceOnUse" gradientTransform="matrix(1.76 0 0 1 -2801.254 1349)"/><linearGradient id="v" x1="1749" x2="2001" y1="-636.138" y2="-636.138" xlink:href="#k" gradientUnits="userSpaceOnUse" gradientTransform="matrix(.536 0 0 1 -658.675 1350)"/></defs><g><g transform="translate(0 23.638) translate(0 -338.603)"><rect width="7197.773" height="147.773" x="-5118.887" y="2460.149" fill="#800000" stroke="#800000" stroke-width="2.227" transform="scale(-1)" ry="6.717" rx="6.717"/><text x="-536.42" y="-2510.891" fill="#fff" style="line-height:0%;-inkscape-font-specification:'Gill Sans MT';text-align:start" font-family="Gill Sans MT" letter-spacing="0" word-spacing="0"><tspan x="-536.42" y="-2510.891" style="line-height:1.25" font-size="100">Select this bar and zoom to selection to give 33.3% reduction on monitors with a pixel width of 2560</tspan></text></g><g transform="matrix(.992 0 0 1 4.21 63.638)"><rect width="5318.084" height="148.084" x="-3219.042" y="2658.596" stroke="#000" stroke-width="1.916" transform="scale(-1)" ry="6.731" rx="6.731"/><text x="-1496.421" y="-2709.493" fill="#fff" style="line-height:0%;-inkscape-font-specification:'Gill Sans MT';text-align:start" font-family="Gill Sans MT" letter-spacing="0" word-spacing="0"><tspan x="-1496.421" y="-2709.493" style="line-height:1.25" font-size="100">Select this bar and zoom to selection to give 33.3% reduction on monitors with a pixel width of 1920</tspan></text></g><g transform="translate(0 23.638)"><rect width="868" height="73" x="279.325" y="-21.638" fill="url(#l)" stroke="#000" stroke-width="2" rx="2.745" ry="2.745" stroke-linecap="round" stroke-linejoin="round"/><g style="line-height:125%;-inkscape-font-specification:'Concourse T3, Light';text-align:end" font-weight="300" font-size="50" font-family="Concourse T3" letter-spacing="0" word-spacing="0" text-anchor="end"><path d="M7 30.86V.16L.3.96 0-2.3l9.75-1.24.85.6v33.8z"/><path d="M24.56 28.6q6.25-1.64 9.8-5.14 3.6-3.5 4.15-8.25l-.3-.2q-1.4.96-3.2 1.4-1.8.46-3.54.46-1.95 0-3.9-.6t-3.5-1.85q-1.55-1.24-2.55-3.2-.94-2-.94-4.8 0-2.2.8-4.04Q22.2.46 23.6-.9 25-2.23 26.9-3q1.9-.8 4.1-.8 3.06 0 5.26 1.1 2.25 1.1 3.65 3 1.46 1.86 2.16 4.36.7 2.5.7 5.25 0 4.9-1.4 8.6-1.4 3.66-3.75 6.26-2.34 2.6-5.44 4.3-3.05 1.65-6.45 2.55l-1.2-2.84zM24.2 6.17q0 2.2.76 3.65.75 1.46 1.95 2.36 1.2.9 2.7 1.3 1.56.35 3.1.35 1.6 0 3.2-.5 1.66-.5 2.96-1.6.15-1.4.15-2.54 0-2.2-.6-4-.54-1.8-1.6-3.1-1.04-1.3-2.5-2-1.44-.7-3.2-.7-1.5 0-2.74.5-1.25.45-2.2 1.35-.9.9-1.45 2.16-.5 1.25-.5 2.8z"/><path d="M47.85-1.04q.3-.25 1.1-.7.8-.45 2-.9t2.75-.8q1.55-.35 3.35-.35 2.15 0 4.05.56 1.95.5 3.4 1.65 1.45 1.1 2.25 2.86.85 1.75.85 4.25 0 5.16-4.15 10.46-4.15 5.25-11.7 11.2l.2.35 16.15-.3v3.66H45.85l-.5-1.75q5.25-4.3 8.75-7.7 3.55-3.44 5.7-6.2 2.15-2.8 3.05-5 .95-2.24.95-4.1 0-3.3-1.95-4.94Q59.95-.5 56.8-.5q-1.5 0-2.9.36-1.4.35-2.55.85-1.1.5-1.95 1-.85.46-1.25.76z"/><path d="M98 13.5q0 4.5-.9 7.9-.9 3.36-2.55 5.6-1.65 2.26-3.9 3.4-2.25 1.1-4.95 1.1-2.6 0-4.9-1.04-2.25-1.05-3.95-3.25-1.7-2.2-2.7-5.6-.95-3.4-.95-8.1 0-4.24.95-7.44 1-3.25 2.7-5.4 1.7-2.2 3.95-3.3 2.3-1.15 4.9-1.15 2.7 0 4.95 1.16 2.25 1.1 3.9 3.3 1.65 2.2 2.55 5.45.9 3.2.9 7.4zm-3.65-.1q0-3.2-.65-5.74-.6-2.6-1.8-4.4-1.15-1.8-2.8-2.75-1.6-1-3.6-1-1.8 0-3.4.9-1.55.86-2.75 2.6-1.15 1.7-1.85 4.36-.65 2.6-.65 6.05 0 3.9.7 6.76.75 2.8 1.95 4.6 1.25 1.8 2.85 2.65 1.65.86 3.4.86 4.15 0 6.35-3.9 2.25-3.95 2.25-10.95z"/><path d="M124.63 14l7.7-7.7 2.05 2.06-7.7 7.7 7.7 7.7-2.05 2.05-7.7-7.7-7.7 7.7-2.05-2.04 7.7-7.7-7.7-7.7 2.05-2.05z"/><path d="M159.93 30.86V.16l-6.7.8-.3-3.25 9.75-1.24.85.6v33.8z"/><path d="M198.5 13.5q0 4.5-.9 7.9-.9 3.36-2.56 5.6-1.65 2.26-3.9 3.4-2.25 1.1-4.95 1.1-2.6 0-4.9-1.04-2.26-1.05-3.96-3.25-1.7-2.2-2.7-5.6-.95-3.4-.95-8.1 0-4.24.94-7.44 1-3.25 2.7-5.4 1.7-2.2 3.95-3.3 2.3-1.15 4.9-1.15 2.7 0 4.94 1.16 2.25 1.1 3.9 3.3 1.65 2.2 2.55 5.45.9 3.2.9 7.4zm-3.66-.1q0-3.2-.65-5.74-.6-2.6-1.8-4.4-1.16-1.8-2.8-2.75-1.6-1-3.6-1-1.8 0-3.4.9-1.56.86-2.76 2.6-1.15 1.7-1.85 4.36-.66 2.6-.66 6.05 0 3.9.7 6.76.75 2.8 1.95 4.6 1.24 1.8 2.84 2.65 1.65.86 3.4.86 4.15 0 6.35-3.9 2.24-3.95 2.24-10.95z"/><path d="M217.63 13.36q3.95 2.2 5.55 4.5 1.65 2.3 1.65 4.9 0 1.95-.85 3.55-.8 1.6-2.25 2.76-1.4 1.15-3.4 1.8-2 .65-4.3.65-2.35 0-4.3-.64-1.95-.7-3.4-1.9-1.4-1.25-2.2-2.9-.8-1.7-.8-3.7 0-3 1.95-5.25 2-2.3 5.05-3.7v-.24q-3.2-2.05-4.5-4.25-1.3-2.2-1.3-4.34 0-1.75.75-3.25.75-1.54 2.05-2.64 1.35-1.15 3.15-1.8 1.85-.65 4.05-.65 1.9 0 3.6.56 1.75.55 3 1.6 1.3 1.05 2.05 2.55.75 1.46.75 3.3 0 5.96-6.3 8.86zm-4.35 1.4q-3.35 1.3-4.85 3.35-1.5 2.06-1.5 4.26 0 1.35.55 2.5.6 1.1 1.55 1.9 1 .8 2.3 1.25 1.35.4 2.8.4 3.15 0 5.05-1.54 1.95-1.6 1.95-4.15 0-1.34-.65-2.44-.6-1.15-1.65-2.1-1.05-.95-2.5-1.8-1.4-.85-3-1.6zm-5-10.4q0 2.2 1.5 3.95 1.5 1.76 4.85 3.56 2.65-1.2 4.2-3 1.55-1.85 1.55-4.25T218.73.77q-1.65-1.5-4.35-1.5-1.45 0-2.6.4-1.1.4-1.9 1.1-.8.7-1.2 1.65-.4.9-.4 1.96z"/><path d="M254.45 13.5q0 4.5-.9 7.9-.9 3.36-2.55 5.6-1.65 2.26-3.9 3.4-2.25 1.1-4.95 1.1-2.6 0-4.9-1.04-2.25-1.05-3.95-3.25-1.7-2.2-2.7-5.6-.95-3.4-.95-8.1 0-4.24.95-7.44 1-3.25 2.7-5.4 1.7-2.2 3.95-3.3 2.3-1.15 4.9-1.15 2.7 0 4.95 1.16 2.25 1.1 3.9 3.3 1.65 2.2 2.55 5.45.9 3.2.9 7.4zm-3.65-.1q0-3.2-.65-5.74-.6-2.6-1.8-4.4-1.15-1.8-2.8-2.75-1.6-1-3.6-1-1.8 0-3.4.9-1.55.86-2.75 2.6-1.15 1.7-1.85 4.36-.65 2.6-.65 6.05 0 3.9.7 6.76.75 2.8 1.95 4.6 1.25 1.8 2.85 2.65 1.65.86 3.4.86 4.15 0 6.35-3.9 2.25-3.95 2.25-10.95z"/></g><rect width="213" height="73" x="279.325" y="178.362" fill="url(#m)" stroke="#000" stroke-width="2" rx="2.745" ry="2.745" stroke-linecap="round" stroke-linejoin="round"/><rect width="258" height="73" x="279.325" y="80.362" fill="url(#n)" stroke="#000" stroke-width="2" rx="2.745" ry="2.745" stroke-linecap="round" stroke-linejoin="round"/><g style="line-height:125%;-inkscape-font-specification:'Concourse T3, Light';text-align:end" font-weight="300" font-size="50" font-family="Concourse T3" letter-spacing="0" word-spacing="0" text-anchor="end"><path d="M7 133.86v-30.7l-6.7.8-.3-3.25 9.75-1.24.85.6v33.8z"/><path d="M25.6 115.96q1.46-1.05 3.2-1.55 1.76-.54 3.5-.54 2 0 3.96.6 2 .6 3.55 1.9 1.56 1.25 2.5 3.25.96 2 .96 4.8 0 2.5-.95 4.4-.9 1.86-2.4 3.16-1.5 1.25-3.4 1.9-1.84.65-3.7.65-3.1 0-5.34-1.1-2.2-1.1-3.65-2.94-1.4-1.9-2.1-4.35-.64-2.5-.64-5.3 0-5.1 1.75-9 1.8-3.94 4.7-6.7 2.9-2.74 6.56-4.24 3.65-1.5 7.4-1.65l-.55 3.4q-3.24.2-5.94 1.4t-4.75 3q-2 1.8-3.3 4.1-1.24 2.26-1.6 4.6zm13.96 8.7q0-2.15-.7-3.6-.65-1.5-1.75-2.4-1.1-.95-2.54-1.35-1.4-.44-2.9-.44-1.7 0-3.5.55-1.75.56-3.2 1.76-.2 1.15-.2 2.4 0 2.2.55 4.05.6 1.8 1.66 3.1 1.05 1.3 2.5 2t3.25.7q3 0 4.9-1.74 1.96-1.8 1.96-5z"/><path d="M72.5 116.5q0 4.5-.9 7.9-.9 3.36-2.54 5.6-1.65 2.26-3.9 3.4-2.25 1.1-4.95 1.1-2.6 0-4.9-1.04-2.24-1.05-3.94-3.25-1.7-2.2-2.7-5.6-.95-3.4-.95-8.1 0-4.24.96-7.44 1-3.25 2.7-5.4 1.7-2.2 3.95-3.3 2.3-1.15 4.9-1.15 2.7 0 4.96 1.16 2.25 1.1 3.9 3.3 1.65 2.2 2.55 5.45.9 3.2.9 7.4zm-3.64-.1q0-3.2-.65-5.74-.6-2.6-1.8-4.4-1.14-1.8-2.8-2.75-1.6-1-3.6-1-1.8 0-3.4.9-1.54.86-2.74 2.6-1.15 1.7-1.85 4.36-.64 2.6-.64 6.05 0 3.9.7 6.76.75 2.8 1.95 4.6 1.26 1.8 2.86 2.65 1.65.86 3.4.86 4.15 0 6.35-3.9 2.26-3.95 2.26-10.95z"/><path d="M102 116.5q0 4.5-.9 7.9-.9 3.36-2.54 5.6-1.65 2.26-3.9 3.4-2.25 1.1-4.95 1.1-2.6 0-4.9-1.04-2.24-1.05-3.94-3.25-1.7-2.2-2.7-5.6-.95-3.4-.95-8.1 0-4.24.96-7.44 1-3.25 2.7-5.4 1.7-2.2 3.95-3.3 2.3-1.15 4.9-1.15 2.7 0 4.96 1.16 2.25 1.1 3.9 3.3 1.65 2.2 2.55 5.45.9 3.2.9 7.4zm-3.64-.1q0-3.2-.65-5.74-.6-2.6-1.8-4.4-1.14-1.8-2.8-2.75-1.6-1-3.6-1-1.8 0-3.4.9-1.54.86-2.74 2.6-1.15 1.7-1.85 4.36-.64 2.6-.64 6.05 0 3.9.7 6.76.75 2.8 1.95 4.6 1.26 1.8 2.86 2.65 1.65.86 3.4.86 4.15 0 6.35-3.9 2.26-3.95 2.26-10.95z"/><path d="M128.63 117l7.7-7.7 2.05 2.06-7.7 7.7 7.7 7.7-2.05 2.05-7.7-7.7-7.7 7.7-2.05-2.04 7.7-7.7-7.7-7.7 2.05-2.05z"/><path d="M159.03 131.6q6.25-1.64 9.8-5.14 3.6-3.5 4.15-8.25l-.3-.2q-1.4.96-3.2 1.4-1.8.46-3.55.46-1.95 0-3.9-.6t-3.5-1.85q-1.55-1.24-2.55-3.2-.95-2-.95-4.8 0-2.2.8-4.04.85-1.9 2.25-3.25 1.4-1.34 3.3-2.1 1.9-.8 4.1-.8 3.05 0 5.25 1.1 2.25 1.1 3.65 3 1.45 1.86 2.15 4.36t.7 5.25q0 4.9-1.4 8.6-1.4 3.66-3.75 6.26-2.35 2.6-5.45 4.3-3.05 1.65-6.45 2.55l-1.2-2.84zm-.35-22.44q0 2.2.75 3.65.75 1.46 1.95 2.36 1.2.9 2.7 1.3 1.55.35 3.1.35 1.6 0 3.2-.5 1.65-.5 2.95-1.6.15-1.4.15-2.54 0-2.2-.6-4-.55-1.8-1.6-3.1t-2.5-2q-1.45-.7-3.2-.7-1.5 0-2.75.5-1.25.45-2.2 1.35-.9.9-1.45 2.16-.5 1.25-.5 2.8z"/><path d="M207 116.5q0 4.5-.9 7.9-.9 3.36-2.56 5.6-1.65 2.26-3.9 3.4-2.25 1.1-4.95 1.1-2.6 0-4.9-1.04-2.26-1.05-3.96-3.25-1.7-2.2-2.7-5.6-.95-3.4-.95-8.1 0-4.24.94-7.44 1-3.25 2.7-5.4 1.7-2.2 3.95-3.3 2.3-1.15 4.9-1.15 2.7 0 4.94 1.16 2.25 1.1 3.9 3.3 1.65 2.2 2.55 5.45.9 3.2.9 7.4zm-3.66-.1q0-3.2-.65-5.74-.6-2.6-1.8-4.4-1.16-1.8-2.8-2.75-1.6-1-3.6-1-1.8 0-3.4.9-1.56.86-2.76 2.6-1.15 1.7-1.85 4.36-.66 2.6-.66 6.05 0 3.9.7 6.76.75 2.8 1.95 4.6 1.24 1.8 2.84 2.65 1.65.86 3.4.86 4.15 0 6.35-3.9 2.24-3.95 2.24-10.95z"/><path d="M236.48 116.5q0 4.5-.9 7.9-.9 3.36-2.55 5.6-1.65 2.26-3.9 3.4-2.25 1.1-4.95 1.1-2.6 0-4.9-1.04-2.25-1.05-3.95-3.25-1.7-2.2-2.7-5.6-.95-3.4-.95-8.1 0-4.24.95-7.44 1-3.25 2.7-5.4 1.7-2.2 3.95-3.3 2.3-1.15 4.9-1.15 2.7 0 4.95 1.16 2.25 1.1 3.9 3.3 1.65 2.2 2.55 5.45.9 3.2.9 7.4zm-3.65-.1q0-3.2-.65-5.74-.6-2.6-1.8-4.4-1.15-1.8-2.8-2.75-1.6-1-3.6-1-1.8 0-3.4.9-1.55.86-2.75 2.6-1.15 1.7-1.85 4.36-.65 2.6-.65 6.05 0 3.9.7 6.76.75 2.8 1.95 4.6 1.25 1.8 2.85 2.65 1.65.86 3.4.86 4.15 0 6.35-3.9 2.25-3.95 2.25-10.95z"/></g><rect width="313" height="73" x="279.325" y="278.362" fill="url(#o)" stroke="#000" stroke-width="2" rx="2.745" ry="2.745" stroke-linecap="round" stroke-linejoin="round"/><g style="line-height:125%;-inkscape-font-specification:'Concourse T3, Light';text-align:end" font-weight="300" font-size="50" font-family="Concourse T3" letter-spacing="0" word-spacing="0" text-anchor="end"><path d="M7 331.86v-30.7l-6.7.8-.3-3.25 9.75-1.24.85.6v33.8z"/><path d="M41.96 321.86h-4.2v10H34.2v-10H19.47l-.8-1.65 15-22.34h4.1v20.9l4.2-.1zm-7.75-3.05v-16.04h-.54l-10.35 15.7.26.45z"/><path d="M69.5 321.86h-4.2v10h-3.55v-10H47l-.8-1.65 15-22.34h4.1v20.9l4.2-.1zm-7.75-3.05v-16.04h-.55l-10.35 15.7.25.45z"/><path d="M98.7 314.5q0 4.5-.9 7.9-.9 3.36-2.56 5.6-1.65 2.26-3.9 3.4-2.25 1.1-4.95 1.1-2.6 0-4.9-1.04-2.26-1.05-3.96-3.25-1.7-2.2-2.7-5.6-.95-3.4-.95-8.1 0-4.24.94-7.44 1-3.25 2.7-5.4 1.7-2.2 3.95-3.3 2.3-1.15 4.9-1.15 2.7 0 4.94 1.16 2.25 1.1 3.9 3.3 1.65 2.2 2.55 5.45.9 3.2.9 7.4zm-3.66-.1q0-3.2-.65-5.74-.6-2.6-1.8-4.4-1.16-1.8-2.8-2.75-1.6-1-3.6-1-1.8 0-3.4.9-1.56.86-2.76 2.6-1.15 1.7-1.85 4.36-.66 2.6-.66 6.05 0 3.9.7 6.76.75 2.8 1.95 4.6 1.24 1.8 2.84 2.65 1.65.86 3.4.86 4.15 0 6.35-3.9 2.24-3.95 2.24-10.95z"/><path d="M125.3 315l7.7-7.7 2.06 2.06-7.7 7.7 7.7 7.7-2.05 2.05-7.7-7.7-7.7 7.7-2.04-2.04 7.7-7.7-7.7-7.7 2.05-2.05z"/><path d="M155.7 329.6q6.26-1.64 9.8-5.14 3.6-3.5 4.16-8.25l-.3-.2q-1.4.96-3.2 1.4-1.8.46-3.55.46-1.94 0-3.9-.6-1.94-.6-3.5-1.85-1.54-1.24-2.54-3.2-.95-2-.95-4.8 0-2.2.8-4.04.86-1.9 2.26-3.25 1.4-1.34 3.3-2.1 1.9-.8 4.1-.8 3.05 0 5.25 1.1 2.26 1.1 3.66 3 1.45 1.86 2.15 4.36t.7 5.25q0 4.9-1.4 8.6-1.4 3.66-3.74 6.26-2.35 2.6-5.45 4.3-3.04 1.65-6.44 2.55l-1.2-2.84zm-.34-22.44q0 2.2.75 3.65.76 1.46 1.96 2.36 1.2.9 2.7 1.3 1.55.35 3.1.35 1.6 0 3.2-.5 1.65-.5 2.95-1.6.16-1.4.16-2.54 0-2.2-.6-4-.55-1.8-1.6-3.1t-2.5-2q-1.45-.7-3.2-.7-1.5 0-2.75.5-1.24.45-2.2 1.35-.9.9-1.44 2.16-.5 1.25-.5 2.8z"/><path d="M203.67 314.5q0 4.5-.9 7.9-.9 3.36-2.55 5.6-1.65 2.26-3.9 3.4-2.25 1.1-4.95 1.1-2.6 0-4.9-1.04-2.25-1.05-3.95-3.25-1.7-2.2-2.7-5.6-.95-3.4-.95-8.1 0-4.24.95-7.44 1-3.25 2.7-5.4 1.7-2.2 3.95-3.3 2.3-1.15 4.9-1.15 2.7 0 4.95 1.16 2.25 1.1 3.9 3.3 1.65 2.2 2.55 5.45.9 3.2.9 7.4zm-3.65-.1q0-3.2-.65-5.74-.6-2.6-1.8-4.4-1.15-1.8-2.8-2.75-1.6-1-3.6-1-1.8 0-3.4.9-1.55.86-2.75 2.6-1.15 1.7-1.85 4.36-.65 2.6-.65 6.05 0 3.9.7 6.76.75 2.8 1.95 4.6 1.25 1.8 2.85 2.65 1.65.86 3.4.86 4.15 0 6.35-3.9 2.25-3.95 2.25-10.95z"/><path d="M233.16 314.5q0 4.5-.9 7.9-.9 3.36-2.55 5.6-1.64 2.26-3.9 3.4-2.24 1.1-4.94 1.1-2.6 0-4.9-1.04-2.25-1.05-3.95-3.25-1.7-2.2-2.7-5.6-.94-3.4-.94-8.1 0-4.24.95-7.44 1-3.25 2.7-5.4 1.7-2.2 3.96-3.3 2.3-1.15 4.9-1.15 2.7 0 4.95 1.16 2.26 1.1 3.9 3.3 1.66 2.2 2.56 5.45.9 3.2.9 7.4zm-3.65-.1q0-3.2-.64-5.74-.6-2.6-1.8-4.4-1.15-1.8-2.8-2.75-1.6-1-3.6-1-1.8 0-3.4.9-1.55.86-2.75 2.6-1.14 1.7-1.84 4.36-.65 2.6-.65 6.05 0 3.9.7 6.76.76 2.8 1.96 4.6 1.25 1.8 2.85 2.65 1.66.86 3.4.86 4.16 0 6.36-3.9 2.25-3.95 2.25-10.95z"/></g><rect width="1274" height="73" x="279.325" y="378.362" fill="url(#p)" stroke="#000" stroke-width="2" rx="2.745" ry="2.745" stroke-linecap="round" stroke-linejoin="round"/><g style="line-height:125%;-inkscape-font-specification:'Concourse T3, Light';text-align:end" font-weight="300" font-size="50" font-family="Concourse T3" letter-spacing="0" word-spacing="0" text-anchor="end"><path d="M7 429.86v-30.7l-6.7.8-.3-3.25 9.75-1.24.85.6v33.8z"/><path d="M20.66 424.96q2.25 1.15 4.35 1.75 2.16.56 4.5.56 1.76 0 3.26-.45 1.55-.5 2.65-1.4 1.16-.9 1.8-2.2.66-1.34.66-3.1 0-1.3-.55-2.44-.5-1.15-1.44-2-.95-.85-2.3-1.3-1.3-.45-2.85-.4l-6.44.2.4-3.55 5.75.16q1.4.05 2.66-.4 1.25-.5 2.15-1.35.96-.84 1.5-2 .56-1.14.56-2.5 0-2.84-2-4.44-1.95-1.65-5.25-1.65-1.9 0-3.7.5-1.8.46-3.8 1.46l-.2-.05.4-3.34q1.1-.55 3.06-1.15 1.95-.6 4.35-.6 2.4 0 4.4.6 2 .6 3.46 1.76 1.45 1.1 2.25 2.75.8 1.6.8 3.7 0 3-1.64 5.1-1.6 2.1-4.3 2.8v.3q1.6.36 2.8 1.16 1.25.8 2.05 1.95.86 1.1 1.26 2.4.45 1.3.45 2.6 0 2.96-1.2 4.9-1.14 1.96-3 3.16-1.8 1.15-3.94 1.65-2.15.5-4.1.5-2.65 0-4.75-.5t-3.9-1.44l-.14-3.5z"/><path d="M51.6 411.96q1.44-1.05 3.2-1.55 1.74-.54 3.5-.54 2 0 3.94.6 2 .6 3.55 1.9 1.54 1.25 2.5 3.25.94 2 .94 4.8 0 2.5-.95 4.4-.9 1.86-2.4 3.16-1.5 1.25-3.4 1.9-1.86.65-3.7.65-3.1 0-5.36-1.1-2.2-1.1-3.65-2.94-1.4-1.9-2.1-4.35-.66-2.5-.66-5.3 0-5.1 1.75-9 1.8-3.94 4.7-6.7 2.9-2.74 6.54-4.24 3.65-1.5 7.4-1.65l-.55 3.4q-3.26.2-5.96 1.4t-4.75 3q-2 1.8-3.3 4.1-1.26 2.26-1.6 4.6zm13.94 8.7q0-2.15-.7-3.6-.65-1.5-1.75-2.4-1.1-.95-2.56-1.35-1.4-.44-2.9-.44-1.7 0-3.5.55-1.75.56-3.2 1.76-.2 1.15-.2 2.4 0 2.2.55 4.05.6 1.8 1.64 3.1 1.05 1.3 2.5 2t3.25.7q3 0 4.9-1.74 1.94-1.8 1.94-5z"/><path d="M78.54 411.96q1.45-1.05 3.2-1.55 1.75-.54 3.5-.54 2 0 3.95.6 2 .6 3.54 1.9 1.55 1.25 2.5 3.25t.95 4.8q0 2.5-.96 4.4-.9 1.86-2.4 3.16-1.5 1.25-3.4 1.9-1.85.65-3.7.65-3.1 0-5.35-1.1-2.2-1.1-3.66-2.94-1.4-1.9-2.1-4.35-.65-2.5-.65-5.3 0-5.1 1.74-9 1.8-3.94 4.7-6.7 2.9-2.74 6.55-4.24 3.64-1.5 7.4-1.65l-.56 3.4q-3.25.2-5.95 1.4t-4.76 3q-2 1.8-3.3 4.1-1.25 2.26-1.6 4.6zm13.95 8.7q0-2.15-.7-3.6-.66-1.5-1.76-2.4-1.1-.95-2.55-1.35-1.4-.44-2.9-.44-1.7 0-3.5.55-1.76.56-3.2 1.76-.2 1.15-.2 2.4 0 2.2.54 4.05.6 1.8 1.65 3.1 1.04 1.3 2.5 2 1.44.7 3.24.7 3 0 4.9-1.74 1.95-1.8 1.95-5z"/><path d="M122.58 413l7.7-7.7 2.05 2.06-7.7 7.7 7.7 7.7-2.05 2.05-7.7-7.7-7.7 7.7-2.05-2.04 7.7-7.7-7.7-7.7 2.05-2.05z"/><path d="M170.63 396.46q-5.3 8.45-8.3 16.65-3 8.16-3.4 16.76h-4.2q.5-4.25 1.55-8.4 1.05-4.2 2.5-8.1 1.45-3.95 3.25-7.5t3.85-6.55l-.2-.24-16.9.3.35-3.5h21z"/><path d="M177.08 411.96q1.45-1.05 3.2-1.55 1.75-.54 3.5-.54 2 0 3.95.6 2 .6 3.55 1.9 1.55 1.25 2.5 3.25t.95 4.8q0 2.5-.95 4.4-.9 1.86-2.4 3.16-1.5 1.25-3.4 1.9-1.85.65-3.7.65-3.1 0-5.35-1.1-2.2-1.1-3.65-2.94-1.4-1.9-2.1-4.35-.65-2.5-.65-5.3 0-5.1 1.75-9 1.8-3.94 4.7-6.7 2.9-2.74 6.55-4.24t7.4-1.65l-.55 3.4q-3.25.2-5.95 1.4t-4.75 3q-2 1.8-3.3 4.1-1.25 2.26-1.6 4.6zm13.95 8.7q0-2.15-.7-3.6-.65-1.5-1.75-2.4-1.1-.95-2.55-1.35-1.4-.44-2.9-.44-1.7 0-3.5.55-1.75.56-3.2 1.76-.2 1.15-.2 2.4 0 2.2.55 4.05.6 1.8 1.65 3.1 1.05 1.3 2.5 2t3.25.7q3 0 4.9-1.74 1.95-1.8 1.95-5z"/><path d="M213.63 412.36q3.95 2.2 5.55 4.5 1.65 2.3 1.65 4.9 0 1.95-.85 3.55-.8 1.6-2.25 2.76-1.4 1.15-3.4 1.8-2 .65-4.3.65-2.35 0-4.3-.64-1.95-.7-3.4-1.9-1.4-1.25-2.2-2.9-.8-1.7-.8-3.7 0-3 1.95-5.25 2-2.3 5.05-3.7v-.24q-3.2-2.05-4.5-4.25-1.3-2.2-1.3-4.34 0-1.75.75-3.25.75-1.54 2.05-2.64 1.35-1.15 3.15-1.8 1.85-.65 4.05-.65 1.9 0 3.6.56 1.75.55 3 1.6 1.3 1.05 2.05 2.55.75 1.46.75 3.3 0 5.96-6.3 8.86zm-4.35 1.4q-3.35 1.3-4.85 3.35-1.5 2.06-1.5 4.26 0 1.35.55 2.5.6 1.1 1.55 1.9 1 .8 2.3 1.25 1.35.4 2.8.4 3.15 0 5.05-1.54 1.95-1.6 1.95-4.15 0-1.34-.65-2.44-.6-1.15-1.65-2.1-1.05-.95-2.5-1.8-1.4-.85-3-1.6zm-5-10.4q0 2.2 1.5 3.95 1.5 1.76 4.85 3.56 2.65-1.2 4.2-3 1.55-1.85 1.55-4.25t-1.65-3.84q-1.65-1.5-4.35-1.5-1.45 0-2.6.4-1.1.4-1.9 1.1-.8.7-1.2 1.65-.4.9-.4 1.96z"/></g><rect width="192" height="73" x="279.325" y="478.362" fill="url(#q)" stroke="#000" stroke-width="2" rx="2.745" ry="2.745" stroke-linecap="round" stroke-linejoin="round"/><g style="line-height:125%;-inkscape-font-specification:'Concourse T3, Light';text-align:end" font-weight="300" font-size="50" font-family="Concourse T3" letter-spacing="0" word-spacing="0" text-anchor="end"><path d="M7 530.86v-30.7l-6.7.8-.3-3.25 9.75-1.24.85.6v33.8z"/><path d="M22.36 498.96q.3-.25 1.1-.7.8-.45 2-.9t2.75-.8q1.56-.35 3.36-.35 2.15 0 4.05.56 1.96.5 3.4 1.65 1.46 1.1 2.26 2.86.85 1.75.85 4.25 0 5.16-4.14 10.46-4.15 5.25-11.7 11.2l.2.35 16.15-.3v3.66H20.37l-.5-1.75q5.25-4.3 8.75-7.7 3.56-3.44 5.7-6.2 2.16-2.8 3.06-5 .95-2.24.95-4.1 0-3.3-1.94-4.94-1.9-1.65-5.05-1.65-1.5 0-2.9.36-1.4.35-2.54.85-1.1.5-1.95 1-.84.46-1.24.76z"/><path d="M62.16 513.36q3.95 2.2 5.55 4.5 1.66 2.3 1.66 4.9 0 1.95-.85 3.55-.8 1.6-2.24 2.76-1.4 1.15-3.4 1.8-2 .65-4.3.65-2.35 0-4.3-.64-1.95-.7-3.4-1.9-1.4-1.25-2.2-2.9-.8-1.7-.8-3.7 0-3 1.95-5.25 2-2.3 5.06-3.7v-.24q-3.2-2.05-4.5-4.25-1.3-2.2-1.3-4.34 0-1.75.75-3.25.76-1.54 2.06-2.64 1.35-1.15 3.15-1.8 1.86-.65 4.06-.65 1.9 0 3.6.56 1.75.55 3 1.6 1.3 1.05 2.05 2.55.76 1.46.76 3.3 0 5.96-6.3 8.86zm-4.35 1.4q-3.34 1.3-4.84 3.35-1.5 2.06-1.5 4.26 0 1.35.55 2.5.6 1.1 1.56 1.9 1 .8 2.3 1.25 1.35.4 2.8.4 3.15 0 5.05-1.54 1.96-1.6 1.96-4.15 0-1.34-.65-2.44-.6-1.15-1.64-2.1-1.05-.95-2.5-1.8-1.4-.85-3-1.6zm-5-10.4q0 2.2 1.5 3.95 1.5 1.76 4.86 3.56 2.65-1.2 4.2-3 1.55-1.85 1.55-4.25t-1.64-3.84q-1.65-1.5-4.35-1.5-1.44 0-2.6.4-1.1.4-1.9 1.1-.8.7-1.2 1.65-.4.9-.4 1.96z"/><path d="M98.98 513.5q0 4.5-.9 7.9-.9 3.36-2.55 5.6-1.65 2.26-3.9 3.4-2.25 1.1-4.95 1.1-2.6 0-4.9-1.04-2.25-1.05-3.95-3.25-1.7-2.2-2.7-5.6-.95-3.4-.95-8.1 0-4.24.95-7.44 1-3.25 2.7-5.4 1.7-2.2 3.95-3.3 2.3-1.15 4.9-1.15 2.7 0 4.95 1.16 2.25 1.1 3.9 3.3 1.65 2.2 2.55 5.45.9 3.2.9 7.4zm-3.65-.1q0-3.2-.65-5.74-.6-2.6-1.8-4.4-1.15-1.8-2.8-2.75-1.6-1-3.6-1-1.8 0-3.4.9-1.55.86-2.75 2.6-1.15 1.7-1.85 4.36-.65 2.6-.65 6.05 0 3.9.7 6.76.75 2.8 1.95 4.6 1.25 1.8 2.85 2.65 1.65.86 3.4.86 4.15 0 6.35-3.9 2.25-3.95 2.25-10.95z"/><path d="M125.6 514l7.7-7.7 2.06 2.06-7.7 7.7 7.7 7.7-2.05 2.05-7.7-7.7-7.7 7.7-2.04-2.04 7.7-7.7-7.7-7.7 2.05-2.05z"/><path d="M160.9 530.86v-30.7l-6.7.8-.3-3.25 9.76-1.24.85.6v33.8z"/><path d="M199.47 513.5q0 4.5-.9 7.9-.9 3.36-2.55 5.6-1.65 2.26-3.9 3.4-2.25 1.1-4.95 1.1-2.6 0-4.9-1.04-2.25-1.05-3.95-3.25-1.7-2.2-2.7-5.6-.95-3.4-.95-8.1 0-4.24.95-7.44 1-3.25 2.7-5.4 1.7-2.2 3.95-3.3 2.3-1.15 4.9-1.15 2.7 0 4.95 1.16 2.25 1.1 3.9 3.3 1.65 2.2 2.55 5.45.9 3.2.9 7.4zm-3.65-.1q0-3.2-.65-5.74-.6-2.6-1.8-4.4-1.15-1.8-2.8-2.75-1.6-1-3.6-1-1.8 0-3.4.9-1.55.86-2.75 2.6-1.15 1.7-1.85 4.36-.65 2.6-.65 6.05 0 3.9.7 6.76.75 2.8 1.95 4.6 1.25 1.8 2.85 2.65 1.65.86 3.4.86 4.15 0 6.35-3.9 2.25-3.95 2.25-10.95z"/><path d="M204.78 498.96q.3-.25 1.1-.7.8-.45 2-.9t2.75-.8q1.55-.35 3.35-.35 2.15 0 4.05.56 1.95.5 3.4 1.65 1.45 1.1 2.25 2.86.85 1.75.85 4.25 0 5.16-4.15 10.46-4.15 5.25-11.7 11.2l.2.35 16.15-.3v3.66h-22.25l-.5-1.75q5.25-4.3 8.75-7.7 3.55-3.44 5.7-6.2 2.15-2.8 3.05-5 .95-2.24.95-4.1 0-3.3-1.95-4.94-1.9-1.65-5.05-1.65-1.5 0-2.9.36-1.4.35-2.55.85-1.1.5-1.95 1-.85.46-1.25.76z"/><path d="M253.3 520.86h-4.2v10h-3.56v-10H230.8l-.8-1.65 15-22.34h4.1v20.9l4.2-.1zm-7.76-3.05v-16.04H245l-10.36 15.7.25.45z"/></g><rect width="240" height="73" x="279.325" y="578.362" fill="url(#r)" stroke="#000" stroke-width="2" rx="2.745" ry="2.745" stroke-linecap="round" stroke-linejoin="round"/><g style="line-height:125%;-inkscape-font-specification:'Concourse T3, Light';text-align:end" font-weight="300" font-size="50" font-family="Concourse T3" letter-spacing="0" word-spacing="0" text-anchor="end"><path d="M7 629.86v-30.7l-6.7.8-.3-3.25 9.75-1.24.85.6v33.8z"/><path d="M22.36 597.96q.3-.25 1.1-.7.8-.45 2-.9t2.75-.8q1.56-.35 3.36-.35 2.15 0 4.05.56 1.96.5 3.4 1.65 1.46 1.1 2.26 2.86.85 1.75.85 4.25 0 5.16-4.14 10.46-4.15 5.25-11.7 11.2l.2.35 16.15-.3v3.66H20.37l-.5-1.75q5.25-4.3 8.75-7.7 3.56-3.44 5.7-6.2 2.16-2.8 3.06-5 .95-2.24.95-4.1 0-3.3-1.94-4.94-1.9-1.65-5.05-1.65-1.5 0-2.9.36-1.4.35-2.54.85-1.1.5-1.95 1-.84.46-1.24.76z"/><path d="M62.16 612.36q3.95 2.2 5.55 4.5 1.66 2.3 1.66 4.9 0 1.95-.85 3.55-.8 1.6-2.24 2.76-1.4 1.15-3.4 1.8-2 .65-4.3.65-2.35 0-4.3-.64-1.95-.7-3.4-1.9-1.4-1.25-2.2-2.9-.8-1.7-.8-3.7 0-3 1.95-5.25 2-2.3 5.06-3.7v-.24q-3.2-2.05-4.5-4.25-1.3-2.2-1.3-4.34 0-1.75.75-3.25.76-1.54 2.06-2.64 1.35-1.15 3.15-1.8 1.86-.65 4.06-.65 1.9 0 3.6.56 1.75.55 3 1.6 1.3 1.05 2.05 2.55.76 1.46.76 3.3 0 5.96-6.3 8.86zm-4.35 1.4q-3.34 1.3-4.84 3.35-1.5 2.06-1.5 4.26 0 1.35.55 2.5.6 1.1 1.56 1.9 1 .8 2.3 1.25 1.35.4 2.8.4 3.15 0 5.05-1.54 1.96-1.6 1.96-4.15 0-1.34-.65-2.44-.6-1.15-1.64-2.1-1.05-.95-2.5-1.8-1.4-.85-3-1.6zm-5-10.4q0 2.2 1.5 3.95 1.5 1.76 4.86 3.56 2.65-1.2 4.2-3 1.55-1.85 1.55-4.25t-1.64-3.84q-1.65-1.5-4.35-1.5-1.44 0-2.6.4-1.1.4-1.9 1.1-.8.7-1.2 1.65-.4.9-.4 1.96z"/><path d="M98.98 612.5q0 4.5-.9 7.9-.9 3.36-2.55 5.6-1.65 2.26-3.9 3.4-2.25 1.1-4.95 1.1-2.6 0-4.9-1.04-2.25-1.05-3.95-3.25-1.7-2.2-2.7-5.6-.95-3.4-.95-8.1 0-4.24.95-7.44 1-3.25 2.7-5.4 1.7-2.2 3.95-3.3 2.3-1.15 4.9-1.15 2.7 0 4.95 1.16 2.25 1.1 3.9 3.3 1.65 2.2 2.55 5.45.9 3.2.9 7.4zm-3.65-.1q0-3.2-.65-5.74-.6-2.6-1.8-4.4-1.15-1.8-2.8-2.75-1.6-1-3.6-1-1.8 0-3.4.9-1.55.86-2.75 2.6-1.15 1.7-1.85 4.36-.65 2.6-.65 6.05 0 3.9.7 6.76.75 2.8 1.95 4.6 1.25 1.8 2.85 2.65 1.65.86 3.4.86 4.15 0 6.35-3.9 2.25-3.95 2.25-10.95z"/><path d="M125.6 613l7.7-7.7 2.06 2.06-7.7 7.7 7.7 7.7-2.05 2.05-7.7-7.7-7.7 7.7-2.04-2.04 7.7-7.7-7.7-7.7 2.05-2.05z"/><path d="M166.66 612.36q3.95 2.2 5.55 4.5 1.66 2.3 1.66 4.9 0 1.95-.85 3.55-.8 1.6-2.24 2.76-1.4 1.15-3.4 1.8-2 .65-4.3.65-2.35 0-4.3-.64-1.95-.7-3.4-1.9-1.4-1.25-2.2-2.9-.8-1.7-.8-3.7 0-3 1.95-5.25 2-2.3 5.06-3.7v-.24q-3.2-2.05-4.5-4.25-1.3-2.2-1.3-4.34 0-1.75.75-3.25.76-1.54 2.06-2.64 1.35-1.15 3.15-1.8 1.86-.65 4.06-.65 1.9 0 3.6.56 1.75.55 3 1.6 1.3 1.05 2.05 2.55.76 1.46.76 3.3 0 5.96-6.3 8.86zm-4.35 1.4q-3.34 1.3-4.84 3.35-1.5 2.06-1.5 4.26 0 1.35.55 2.5.6 1.1 1.56 1.9 1 .8 2.3 1.25 1.35.4 2.8.4 3.15 0 5.05-1.54 1.96-1.6 1.96-4.15 0-1.34-.65-2.44-.6-1.15-1.64-2.1-1.05-.95-2.5-1.8-1.4-.85-3-1.6zm-5-10.4q0 2.2 1.5 3.95 1.5 1.76 4.86 3.56 2.65-1.2 4.2-3 1.55-1.85 1.55-4.25t-1.64-3.84q-1.65-1.5-4.35-1.5-1.44 0-2.6.4-1.1.4-1.9 1.1-.8.7-1.2 1.65-.4.9-.4 1.96z"/><path d="M203.47 612.5q0 4.5-.9 7.9-.9 3.36-2.55 5.6-1.65 2.26-3.9 3.4-2.25 1.1-4.95 1.1-2.6 0-4.9-1.04-2.25-1.05-3.95-3.25-1.7-2.2-2.7-5.6-.95-3.4-.95-8.1 0-4.24.95-7.44 1-3.25 2.7-5.4 1.7-2.2 3.95-3.3 2.3-1.15 4.9-1.15 2.7 0 4.95 1.16 2.25 1.1 3.9 3.3 1.65 2.2 2.55 5.45.9 3.2.9 7.4zm-3.65-.1q0-3.2-.65-5.74-.6-2.6-1.8-4.4-1.15-1.8-2.8-2.75-1.6-1-3.6-1-1.8 0-3.4.9-1.55.86-2.75 2.6-1.15 1.7-1.85 4.36-.65 2.6-.65 6.05 0 3.9.7 6.76.75 2.8 1.95 4.6 1.25 1.8 2.85 2.65 1.65.86 3.4.86 4.15 0 6.35-3.9 2.25-3.95 2.25-10.95z"/><path d="M232.96 612.5q0 4.5-.9 7.9-.9 3.36-2.55 5.6-1.64 2.26-3.9 3.4-2.24 1.1-4.94 1.1-2.6 0-4.9-1.04-2.25-1.05-3.95-3.25-1.7-2.2-2.7-5.6-.94-3.4-.94-8.1 0-4.24.95-7.44 1-3.25 2.7-5.4 1.7-2.2 3.96-3.3 2.3-1.15 4.9-1.15 2.7 0 4.95 1.16 2.26 1.1 3.9 3.3 1.66 2.2 2.56 5.45.9 3.2.9 7.4zm-3.65-.1q0-3.2-.64-5.74-.6-2.6-1.8-4.4-1.15-1.8-2.8-2.75-1.6-1-3.6-1-1.8 0-3.4.9-1.55.86-2.75 2.6-1.14 1.7-1.84 4.36-.65 2.6-.65 6.05 0 3.9.7 6.76.76 2.8 1.96 4.6 1.25 1.8 2.85 2.65 1.66.86 3.4.86 4.16 0 6.36-3.9 2.25-3.95 2.25-10.95z"/></g><rect width="200" height="73" x="279.325" y="778.362" fill="url(#s)" stroke="#000" stroke-width="2" rx="2.745" ry="2.745" stroke-linecap="round" stroke-linejoin="round"/><g style="line-height:125%;-inkscape-font-specification:'Concourse T3, Light';text-align:end" font-weight="300" font-size="50" font-family="Concourse T3" letter-spacing="0" word-spacing="0" text-anchor="end"><path d="M7 831.86v-30.7l-6.7.8-.3-3.25 9.75-1.24.85.6v33.8z"/><path d="M45.56 814.5q0 4.5-.9 7.9-.9 3.36-2.55 5.6-1.64 2.26-3.9 3.4-2.24 1.1-4.94 1.1-2.6 0-4.9-1.04-2.25-1.05-3.95-3.25-1.7-2.2-2.7-5.6-.94-3.4-.94-8.1 0-4.24.95-7.44 1-3.25 2.7-5.4 1.7-2.2 3.96-3.3 2.3-1.15 4.9-1.15 2.7 0 4.95 1.16 2.26 1.1 3.9 3.3 1.66 2.2 2.56 5.45.9 3.2.9 7.4zm-3.65-.1q0-3.2-.64-5.74-.6-2.6-1.8-4.4-1.15-1.8-2.8-2.75-1.6-1-3.6-1-1.8 0-3.4.9-1.55.86-2.75 2.6-1.14 1.7-1.84 4.36-.65 2.6-.65 6.05 0 3.9.7 6.76.76 2.8 1.96 4.6 1.25 1.8 2.85 2.65 1.66.86 3.4.86 4.16 0 6.36-3.9 2.25-3.95 2.25-10.95z"/><path d="M50.88 799.96q.3-.25 1.1-.7.8-.45 2-.9t2.75-.8q1.55-.35 3.35-.35 2.15 0 4.05.56 1.95.5 3.4 1.65 1.45 1.1 2.25 2.86.85 1.75.85 4.25 0 5.16-4.15 10.46-4.15 5.25-11.7 11.2l.2.35 16.15-.3v3.66H48.88l-.5-1.75q5.25-4.3 8.75-7.7 3.55-3.44 5.7-6.2 2.15-2.8 3.05-5 .95-2.24.95-4.1 0-3.3-1.95-4.94-1.9-1.65-5.05-1.65-1.5 0-2.9.36-1.4.35-2.55.85-1.1.5-1.95 1-.85.46-1.25.76z"/><path d="M99.38 821.86h-4.2v10h-3.55v-10H76.88l-.8-1.65 15-22.34h4.1v20.9l4.2-.1zm-7.75-3.05v-16.04h-.55l-10.35 15.7.25.45z"/><path d="M125.7 815l7.7-7.7 2.05 2.06-7.7 7.7 7.7 7.7-2.05 2.05-7.7-7.7-7.7 7.7-2.05-2.04 7.7-7.7-7.7-7.7 2.05-2.05z"/><path d="M173.75 798.46q-5.3 8.45-8.3 16.65-3 8.16-3.4 16.76h-4.2q.5-4.25 1.55-8.4 1.05-4.2 2.5-8.1 1.45-3.95 3.25-7.5t3.85-6.55l-.2-.24-16.9.3.35-3.5h21z"/><path d="M180.2 813.96q1.45-1.05 3.2-1.55 1.75-.54 3.5-.54 2 0 3.95.6 2 .6 3.55 1.9 1.55 1.25 2.5 3.25t.95 4.8q0 2.5-.95 4.4-.9 1.86-2.4 3.16-1.5 1.25-3.4 1.9-1.85.65-3.7.65-3.1 0-5.35-1.1-2.2-1.1-3.65-2.94-1.4-1.9-2.1-4.35-.65-2.5-.65-5.3 0-5.1 1.75-9 1.8-3.94 4.7-6.7 2.9-2.74 6.55-4.24t7.4-1.65l-.55 3.4q-3.25.2-5.95 1.4t-4.75 3q-2 1.8-3.3 4.1-1.25 2.26-1.6 4.6zm13.95 8.7q0-2.15-.7-3.6-.65-1.5-1.75-2.4-1.1-.95-2.55-1.35-1.4-.44-2.9-.44-1.7 0-3.5.55-1.75.56-3.2 1.76-.2 1.15-.2 2.4 0 2.2.55 4.05.6 1.8 1.65 3.1 1.05 1.3 2.5 2t3.25.7q3 0 4.9-1.74 1.95-1.8 1.95-5z"/><path d="M216.75 814.36q3.95 2.2 5.55 4.5 1.65 2.3 1.65 4.9 0 1.95-.85 3.55-.8 1.6-2.25 2.76-1.4 1.15-3.4 1.8-2 .65-4.3.65-2.35 0-4.3-.64-1.95-.7-3.4-1.9-1.4-1.25-2.2-2.9-.8-1.7-.8-3.7 0-3 1.95-5.25 2-2.3 5.05-3.7v-.24q-3.2-2.05-4.5-4.25-1.3-2.2-1.3-4.34 0-1.75.75-3.25.75-1.54 2.05-2.64 1.35-1.15 3.15-1.8 1.85-.65 4.05-.65 1.9 0 3.6.56 1.75.55 3 1.6 1.3 1.05 2.05 2.55.75 1.46.75 3.3 0 5.96-6.3 8.86zm-4.35 1.4q-3.35 1.3-4.85 3.35-1.5 2.06-1.5 4.26 0 1.35.55 2.5.6 1.1 1.55 1.9 1 .8 2.3 1.25 1.35.4 2.8.4 3.15 0 5.05-1.54 1.95-1.6 1.95-4.15 0-1.34-.65-2.44-.6-1.15-1.65-2.1-1.05-.95-2.5-1.8-1.4-.85-3-1.6zm-5-10.4q0 2.2 1.5 3.95 1.5 1.76 4.85 3.56 2.65-1.2 4.2-3 1.55-1.85 1.55-4.25t-1.65-3.84q-1.65-1.5-4.35-1.5-1.45 0-2.6.4-1.1.4-1.9 1.1-.8.7-1.2 1.65-.4.9-.4 1.96z"/></g><rect width="258" height="73" x="279.325" y="878.362" fill="url(#t)" stroke="#000" stroke-width="2" rx="2.745" ry="2.745" stroke-linecap="round" stroke-linejoin="round"/><g style="line-height:125%;-inkscape-font-specification:'Concourse T3, Light';text-align:end" font-weight="300" font-size="50" font-family="Concourse T3" letter-spacing="0" word-spacing="0" text-anchor="end"><path d="M48.94 898.46q-5.3 8.45-8.3 16.65-3 8.16-3.4 16.76h-4.2q.5-4.25 1.55-8.4 1.04-4.2 2.5-8.1 1.44-3.95 3.24-7.5 1.8-3.55 3.85-6.55l-.2-.24-16.9.3.34-3.5h21z"/><path d="M55.38 913.96q1.45-1.05 3.2-1.55 1.75-.54 3.5-.54 2 0 3.95.6 2 .6 3.55 1.9 1.55 1.25 2.5 3.25t.95 4.8q0 2.5-.95 4.4-.9 1.86-2.4 3.16-1.5 1.25-3.4 1.9-1.85.65-3.7.65-3.1 0-5.35-1.1-2.2-1.1-3.65-2.94-1.4-1.9-2.1-4.35-.65-2.5-.65-5.3 0-5.1 1.75-9 1.8-3.94 4.7-6.7 2.9-2.74 6.55-4.24t7.4-1.65l-.55 3.4q-3.25.2-5.95 1.4t-4.75 3q-2 1.8-3.3 4.1-1.25 2.26-1.6 4.6zm13.95 8.7q0-2.15-.7-3.6-.65-1.5-1.75-2.4-1.1-.95-2.55-1.35-1.4-.44-2.9-.44-1.7 0-3.5.55-1.75.56-3.2 1.76-.2 1.15-.2 2.4 0 2.2.55 4.05.6 1.8 1.65 3.1 1.05 1.3 2.5 2t3.25.7q3 0 4.9-1.74 1.95-1.8 1.95-5z"/><path d="M91.94 914.36q3.95 2.2 5.55 4.5 1.64 2.3 1.64 4.9 0 1.95-.85 3.55-.8 1.6-2.26 2.76-1.4 1.15-3.4 1.8-2 .65-4.3.65-2.35 0-4.3-.64-1.95-.7-3.4-1.9-1.4-1.25-2.2-2.9-.8-1.7-.8-3.7 0-3 1.95-5.25 2-2.3 5.04-3.7v-.24q-3.2-2.05-4.5-4.25-1.3-2.2-1.3-4.34 0-1.75.75-3.25.74-1.54 2.04-2.64 1.35-1.15 3.15-1.8 1.84-.65 4.04-.65 1.9 0 3.6.56 1.75.55 3 1.6 1.3 1.05 2.05 2.55.74 1.46.74 3.3 0 5.96-6.3 8.86zm-4.35 1.4q-3.36 1.3-4.86 3.35-1.5 2.06-1.5 4.26 0 1.35.55 2.5.6 1.1 1.54 1.9 1 .8 2.3 1.25 1.35.4 2.8.4 3.15 0 5.05-1.54 1.94-1.6 1.94-4.15 0-1.34-.65-2.44-.6-1.15-1.66-2.1-1.05-.95-2.5-1.8-1.4-.85-3-1.6zm-5-10.4q0 2.2 1.5 3.95 1.5 1.76 4.84 3.56 2.65-1.2 4.2-3 1.55-1.85 1.55-4.25t-1.66-3.84q-1.65-1.5-4.35-1.5-1.46 0-2.6.4-1.1.4-1.9 1.1-.8.7-1.2 1.65-.4.9-.4 1.96z"/><path d="M125.9 915l7.7-7.7 2.04 2.06-7.7 7.7 7.7 7.7-2.05 2.05-7.7-7.7-7.7 7.7-2.06-2.04 7.7-7.7-7.7-7.7 2.05-2.05z"/><path d="M161.2 931.86v-30.7l-6.7.8-.3-3.25 9.74-1.24.85.6v33.8z"/><path d="M199.75 914.5q0 4.5-.9 7.9-.9 3.36-2.55 5.6-1.65 2.26-3.9 3.4-2.25 1.1-4.95 1.1-2.6 0-4.9-1.04-2.25-1.05-3.95-3.25-1.7-2.2-2.7-5.6-.95-3.4-.95-8.1 0-4.24.95-7.44 1-3.25 2.7-5.4 1.7-2.2 3.95-3.3 2.3-1.15 4.9-1.15 2.7 0 4.95 1.16 2.25 1.1 3.9 3.3 1.65 2.2 2.55 5.45.9 3.2.9 7.4zm-3.65-.1q0-3.2-.65-5.74-.6-2.6-1.8-4.4-1.15-1.8-2.8-2.75-1.6-1-3.6-1-1.8 0-3.4.9-1.55.86-2.75 2.6-1.15 1.7-1.85 4.36-.65 2.6-.65 6.05 0 3.9.7 6.76.75 2.8 1.95 4.6 1.25 1.8 2.85 2.65 1.65.86 3.4.86 4.15 0 6.35-3.9 2.25-3.95 2.25-10.95z"/><path d="M205.06 899.96q.3-.25 1.1-.7.8-.45 2-.9t2.75-.8q1.56-.35 3.36-.35 2.15 0 4.05.56 1.96.5 3.4 1.65 1.46 1.1 2.26 2.86.85 1.75.85 4.25 0 5.16-4.14 10.46-4.15 5.25-11.7 11.2l.2.35 16.15-.3v3.66h-22.24l-.5-1.75q5.25-4.3 8.75-7.7 3.56-3.44 5.7-6.2 2.16-2.8 3.06-5 .95-2.24.95-4.1 0-3.3-1.94-4.94-1.9-1.65-5.05-1.65-1.5 0-2.9.36-1.4.35-2.54.85-1.1.5-1.95 1-.84.46-1.24.76z"/><path d="M253.56 921.86h-4.2v10h-3.55v-10h-14.74l-.8-1.65 15-22.34h4.1v20.9l4.2-.1zm-7.75-3.05v-16.04h-.54l-10.35 15.7.26.45z"/></g><rect width="1047" height="73" x="279.325" y="978.362" fill="url(#u)" stroke="#000" stroke-width="2" rx="2.745" ry="2.745" stroke-linecap="round" stroke-linejoin="round"/><g style="line-height:125%;-inkscape-font-specification:'Concourse T3, Light';text-align:end" font-weight="300" font-size="50" font-family="Concourse T3" letter-spacing="0" word-spacing="0" text-anchor="end"><path d="M153 1013.1q0 3.56-1.2 6.7-1.2 3.16-3.4 5.56-2.16 2.35-5.16 3.75-2.95 1.4-6.55 1.4-3.56 0-6.56-1.3-3-1.34-5.2-3.64-2.2-2.35-3.45-5.5-1.2-3.2-1.2-6.95 0-4.04 1.34-7.34 1.4-3.35 3.65-5.65 2.3-2.34 5.24-3.6 2.95-1.3 6.15-1.3 3.3 0 6.24 1.26 2.95 1.25 5.15 3.6 2.24 2.3 3.54 5.65 1.35 3.3 1.35 7.4zm-3.8-.1q0-3.14-.96-5.8-.95-2.64-2.65-4.5-1.7-1.9-4-2.94-2.3-1.05-5.06-1.05-2.4 0-4.65 1-2.26.96-4 2.8-1.7 1.86-2.76 4.5-1.05 2.66-1.05 6 0 2.8.84 5.36.85 2.5 2.5 4.45 1.65 1.9 4 3.06 2.35 1.15 5.35 1.15 2.8 0 5.1-1.14 2.3-1.15 3.9-3.05 1.64-1.94 2.5-4.44.9-2.55.9-5.35z"/><path d="M165.1 999.66v7.8h5.36v2.85h-5.35v19.56h-3.5v-19.55H157v-2.24l4.6-.85v-6.34z"/><path d="M178.4 1010.16q1.34-1.4 3.2-2.35 1.9-.94 4-.94 1.3 0 2.5.45 1.2.4 2.1 1.36.9.95 1.4 2.4.54 1.45.54 3.5v15.3h-3.5v-14.65q0-1.4-.4-2.4-.35-1-.95-1.6-.6-.6-1.36-.84-.75-.3-1.5-.3-1.7 0-3.35.9-1.66.9-2.96 2.45v16.46h-3.5v-34l3.5-.6v14.9z"/><path d="M201.27 1019.6q0 2.2.5 3.7.55 1.5 1.45 2.46.9.95 2.1 1.35 1.2.4 2.55.4 1.45 0 3-.64 1.6-.7 2.65-1.75h.15l.65 2.9q-1.15 1.16-3 1.8-1.8.66-4 .66-1.9 0-3.65-.65-1.75-.64-3.1-2-1.3-1.34-2.1-3.44-.8-2.15-.8-5.1 0-2.75.75-5 .75-2.3 2.05-3.95 1.3-1.64 3.1-2.54 1.8-.9 3.9-.9 1.9 0 3.4.7 1.55.7 2.6 1.9t1.6 2.85q.6 1.6.6 3.46 0 .7-.15 1.8-.1 1.05-.45 2.05zm10.8-2.6q.25-1.7-.05-3-.3-1.34-1-2.3-.65-.94-1.6-1.44-.95-.5-2.05-.5-1.3 0-2.4.6-1.05.55-1.85 1.55-.75.96-1.2 2.3-.45 1.3-.5 2.8z"/><path d="M231.68 1007.06q.4 0 .65.05.3 0 .6.06v3.6h-1.5q-1.1.1-2.2.7-1.05.6-2 1.65-.9 1-1.6 2.36-.7 1.3-1 2.85v11.56h-3.5v-22.4h2.95l.3 5.25h.5q.5-1.2 1.2-2.2.75-1.04 1.65-1.8.9-.74 1.9-1.2 1-.44 2.05-.44z"/></g><rect width="75" height="776" x="1829.325" y="-23.638" fill="#4d4d4d" ry="2.745" rx="2.745"/><rect width="134" height="73" x="279.325" y="679.362" fill="url(#v)" stroke="#000" stroke-width="2" rx="2.745" ry="2.745" stroke-linecap="round" stroke-linejoin="round"/><text x="-4.042" y="730.864" style="line-height:125%;-inkscape-font-specification:'Concourse T3, Light';font-variant-ligatures:normal;font-variant-caps:normal;font-variant-numeric:normal;font-feature-settings:normal;text-align:start" font-weight="300" font-size="49.895" font-family="Concourse T3" letter-spacing="0" word-spacing="0"><tspan x="-4.042" y="730.864">1280 × 720</tspan></text><g style="line-height:125%;-inkscape-font-specification:'Concourse T3, Light';font-variant-ligatures:normal;font-variant-caps:normal;font-variant-numeric:normal;font-feature-settings:normal;text-align:start" font-weight="300" font-size="49.895" font-family="Concourse T3" letter-spacing="0" word-spacing="0"><path d="M7 231.83V201.2l-6.7.8-.3-3.25 9.73-1.25.85.6v33.73z"/><path d="M21.96 212.57l1.9-14.67h17.7l-.5 3.6-14.4-.4-1.1 8.32q.85-.1 1.7-.15.9-.05 1.74-.05 3.6 0 6.2.85 2.58.85 4.23 2.35 1.64 1.44 2.4 3.4.8 1.94.8 4.13 0 3-1.26 5.34-1.2 2.34-3.4 3.93-2.13 1.6-5.13 2.45-3 .8-6.53.8-1.34 0-2.6-.1-1.2-.1-2.23-.45.15-.8.3-1.6.2-.8.4-1.6.84.25 2.04.4 1.26.1 2.3.1 2.9 0 5.14-.65 2.3-.7 3.9-1.9t2.44-2.84q.85-1.7.85-3.74 0-2-.9-3.44-.85-1.5-2.34-2.45-1.5-.98-3.5-1.43-1.95-.5-4.2-.5-2.1 0-3.5.15-1.34.15-2.24.3z"/><path d="M47.5 226.94q2.26 1.14 4.36 1.74 2.14.55 4.5.55 1.73 0 3.23-.45 1.54-.5 2.63-1.4 1.15-.9 1.8-2.2.65-1.34.65-3.08 0-1.3-.55-2.45-.5-1.15-1.45-2-.95-.84-2.3-1.3-1.3-.44-2.84-.4l-6.43.2.4-3.53 5.74.15q1.4.05 2.65-.4 1.24-.5 2.13-1.35.95-.85 1.5-2 .55-1.14.55-2.5 0-2.83-2-4.43-1.94-1.66-5.24-1.66-1.9 0-3.7.5-1.78.45-3.78 1.45l-.2-.06.4-3.34q1.1-.55 3.04-1.15 1.95-.6 4.34-.6 2.4 0 4.4.6 2 .6 3.44 1.74 1.45 1.1 2.24 2.74.8 1.6.8 3.7 0 2.98-1.64 5.08-1.6 2.1-4.3 2.8v.3q1.6.34 2.8 1.14 1.25.8 2.04 1.95.85 1.1 1.25 2.4.45 1.3.45 2.6 0 2.94-1.2 4.9-1.14 1.93-3 3.13-1.8 1.15-3.93 1.65-2.16.5-4.1.5-2.65 0-4.74-.5-2.1-.5-3.9-1.45l-.15-3.5z"/><path d="M78.38 213.96q1.44-1.04 3.2-1.54 1.74-.55 3.48-.55 2 0 3.94.6 2 .6 3.55 1.9 1.54 1.24 2.5 3.24.94 2 .94 4.8 0 2.5-.96 4.4-.9 1.83-2.4 3.13-1.5 1.25-3.4 1.9-1.83.65-3.68.65-3.1 0-5.34-1.1-2.2-1.1-3.64-2.95-1.4-1.9-2.1-4.34-.64-2.5-.64-5.3 0-5.1 1.74-8.98 1.8-3.94 4.7-6.68 2.9-2.75 6.53-4.24 3.65-1.5 7.4-1.65l-.56 3.4q-3.24.2-5.93 1.4-2.7 1.2-4.73 2.98-2 1.8-3.3 4.1-1.24 2.24-1.6 4.58zm13.92 8.7q0-2.16-.7-3.6-.65-1.5-1.75-2.4-1.1-.95-2.54-1.35-1.4-.44-2.9-.44-1.68 0-3.48.55-1.75.56-3.2 1.76-.2 1.14-.2 2.4 0 2.2.56 4.03.6 1.8 1.64 3.1 1.05 1.28 2.5 1.98t3.24.7q3 0 4.9-1.74 1.94-1.8 1.94-5z"/><path d="M122.32 215l7.7-7.67 2.03 2.04-7.68 7.7 7.68 7.67-2.04 2.05-7.68-7.7-7.68 7.7-2.05-2.06 7.68-7.68-7.7-7.7 2.06-2.03z"/><path d="M163.3 214.36q3.93 2.2 5.52 4.5 1.65 2.3 1.65 4.88 0 1.95-.85 3.55-.8 1.58-2.24 2.73-1.4 1.15-3.4 1.8-2 .65-4.3.65-2.33 0-4.28-.65-1.94-.7-3.4-1.9-1.4-1.25-2.2-2.9-.78-1.7-.78-3.7 0-2.98 1.94-5.22 2-2.3 5.04-3.7v-.24q-3.2-2.04-4.5-4.24-1.3-2.2-1.3-4.34 0-1.74.76-3.24.75-1.55 2.05-2.65 1.36-1.15 3.15-1.8 1.85-.65 4.04-.65 1.9 0 3.6.55 1.73.55 2.98 1.6 1.3 1.04 2.04 2.54.75 1.45.75 3.3 0 5.93-6.28 8.82zm-4.35 1.4q-3.35 1.3-4.84 3.34-1.5 2.05-1.5 4.24 0 1.35.56 2.5.6 1.1 1.54 1.9 1 .8 2.3 1.24 1.35.4 2.8.4 3.14 0 5.03-1.55 1.95-1.6 1.95-4.14 0-1.35-.65-2.45-.6-1.15-1.65-2.1-1.04-.94-2.5-1.8-1.4-.84-2.98-1.6zm-5-10.38q0 2.2 1.5 3.94 1.5 1.75 4.84 3.55 2.64-1.2 4.18-3 1.55-1.84 1.55-4.24 0-2.4-1.65-3.84-1.64-1.5-4.34-1.5-1.44 0-2.6.4-1.1.4-1.9 1.1-.8.7-1.18 1.64-.4.9-.4 1.94z"/><path d="M180.12 213.96q1.44-1.04 3.2-1.54 1.74-.55 3.48-.55 2 0 3.94.6 2 .6 3.55 1.9 1.53 1.24 2.48 3.24t.95 4.8q0 2.5-.95 4.4-.9 1.83-2.4 3.13-1.5 1.25-3.4 1.9-1.83.65-3.68.65-3.1 0-5.34-1.1-2.2-1.1-3.64-2.95-1.4-1.9-2.1-4.34-.64-2.5-.64-5.3 0-5.1 1.74-8.98 1.8-3.94 4.7-6.68 2.9-2.75 6.53-4.24 3.64-1.5 7.38-1.65l-.55 3.4q-3.24.2-5.93 1.4-2.7 1.2-4.74 2.98-2 1.8-3.3 4.1-1.23 2.24-1.58 4.58zm13.92 8.7q0-2.16-.7-3.6-.65-1.5-1.75-2.4-1.1-.95-2.55-1.35-1.4-.44-2.9-.44-1.7 0-3.5.55-1.74.56-3.18 1.76-.2 1.14-.2 2.4 0 2.2.55 4.03.6 1.8 1.64 3.1 1.05 1.28 2.5 1.98 1.44.7 3.24.7 3 0 4.9-1.74 1.94-1.8 1.94-5z"/><path d="M225.27 221.85h-4.2v9.98h-3.53v-9.98h-14.72l-.8-1.65L217 197.9h4.08v20.85l4.2-.1zm-7.73-3.05v-16H217l-10.34 15.65.25.45z"/></g><g style="line-height:125%;-inkscape-font-specification:'Concourse T3, Light';font-variant-ligatures:normal;font-variant-caps:normal;font-variant-numeric:normal;font-feature-settings:normal;text-align:start" font-weight="300" font-size="49.895" font-family="Concourse T3" letter-spacing="0" word-spacing="0"><path d="M1623.05 999.94q.3-.25 1.1-.7.8-.44 2-.9 1.2-.44 2.73-.8 1.55-.34 3.35-.34 2.14 0 4.04.55 1.95.5 3.4 1.64 1.44 1.1 2.24 2.84.86 1.75.86 4.24 0 5.14-4.15 10.43-4.13 5.25-11.66 11.18l.2.35 16.1-.3v3.65h-22.2l-.5-1.75q5.25-4.3 8.74-7.68 3.55-3.45 5.7-6.2 2.14-2.78 3.04-4.98.94-2.25.94-4.1 0-3.28-1.94-4.93-1.9-1.65-5.04-1.65-1.5 0-2.9.34-1.4.35-2.54.85-1.1.5-1.95 1-.85.44-1.25.74z"/><path d="M1673.1 1014.46q0 4.5-.9 7.9-.9 3.33-2.55 5.57-1.64 2.25-3.9 3.4-2.23 1.1-4.93 1.1-2.6 0-4.9-1.05-2.23-1.05-3.93-3.25-1.7-2.2-2.7-5.58-.95-3.4-.95-8.1 0-4.23.94-7.42 1-3.24 2.7-5.4 1.7-2.2 3.93-3.28 2.3-1.15 4.9-1.15 2.7 0 4.93 1.15 2.25 1.1 3.9 3.3 1.64 2.2 2.54 5.43.9 3.2.9 7.38zm-3.65-.1q0-3.2-.65-5.74-.6-2.6-1.8-4.4-1.14-1.78-2.8-2.73-1.58-1-3.58-1-1.8 0-3.4.9-1.54.84-2.74 2.58-1.14 1.7-1.84 4.35-.65 2.6-.65 6.03 0 3.9.7 6.74.74 2.8 1.93 4.6 1.25 1.8 2.85 2.63 1.64.85 3.4.85 4.13 0 6.33-3.9 2.25-3.93 2.25-10.92z"/><path d="M1678.5 1029.48q0-1.15.75-1.9.8-.8 1.94-.8 1.1 0 1.9.8.8.75.8 1.9t-.8 1.9q-.8.75-1.9.75-1.15 0-1.95-.75-.75-.75-.75-1.9z"/><path d="M1694.04 1029.53q6.24-1.65 9.78-5.14 3.6-3.5 4.14-8.24l-.3-.2q-1.4.95-3.2 1.4-1.78.45-3.53.45-1.95 0-3.9-.6-1.94-.6-3.5-1.84-1.53-1.25-2.53-3.2-.95-2-.95-4.78 0-2.2.8-4.04.85-1.9 2.25-3.25t3.3-2.1q1.88-.8 4.08-.8 3.04 0 5.24 1.1 2.24 1.1 3.64 3 1.45 1.84 2.15 4.33.7 2.5.7 5.24 0 4.9-1.4 8.58-1.4 3.64-3.73 6.24-2.35 2.58-5.44 4.28-3.05 1.65-6.44 2.55l-1.2-2.85zm-.35-22.4q0 2.2.74 3.64.75 1.45 1.95 2.35 1.2.9 2.68 1.3 1.55.34 3.1.34 1.6 0 3.2-.5 1.64-.5 2.93-1.6.16-1.4.16-2.54 0-2.2-.6-4-.54-1.8-1.6-3.08-1.04-1.3-2.5-2-1.43-.7-3.18-.7-1.5 0-2.74.5-1.25.45-2.2 1.35-.9.9-1.45 2.13-.5 1.25-.5 2.8z"/><path d="M1731.57 1014.3q3.94 2.2 5.54 4.5 1.65 2.3 1.65 4.9 0 1.94-.85 3.54-.8 1.6-2.24 2.74-1.4 1.15-3.4 1.8-2 .65-4.28.65-2.35 0-4.3-.65-1.94-.7-3.4-1.9-1.4-1.25-2.18-2.9-.8-1.7-.8-3.7 0-2.98 1.94-5.22 2-2.3 5.04-3.7v-.25q-3.2-2.03-4.5-4.23-1.28-2.2-1.28-4.34 0-1.74.74-3.24.75-1.56 2.05-2.66 1.34-1.14 3.13-1.8 1.85-.64 4.04-.64 1.9 0 3.6.55 1.74.55 3 1.6 1.3 1.04 2.04 2.54.75 1.44.75 3.28 0 5.94-6.28 8.83zm-4.34 1.4q-3.35 1.3-4.84 3.35-1.5 2.05-1.5 4.24 0 1.34.54 2.5.6 1.1 1.55 1.9.98.78 2.28 1.23 1.35.4 2.8.4 3.14 0 5.03-1.54 1.96-1.6 1.96-4.16 0-1.34-.65-2.44-.6-1.15-1.63-2.1-1.05-.94-2.5-1.8-1.4-.84-3-1.6zm-5-10.37q0 2.2 1.5 3.94 1.5 1.75 4.84 3.55 2.65-1.2 4.2-3 1.54-1.84 1.54-4.24 0-2.4-1.63-3.84-1.65-1.5-4.35-1.5-1.44 0-2.6.4-1.1.4-1.9 1.1-.78.7-1.18 1.65-.4.88-.4 1.93z"/><path d="M1757.63 1014.16l11.17-16.86 2.45 1-11.93 16.6-11.72 17.43-2.45-1.05zm15.07 10.33q0 1.74-.55 3.2-.55 1.38-1.5 2.43-.9 1.05-2.14 1.65-1.24.55-2.64.55-1.45 0-2.7-.55-1.24-.6-2.2-1.65-.9-1.05-1.44-2.44-.5-1.46-.5-3.2 0-1.75.5-3.25t1.4-2.55q.9-1.1 2.1-1.7 1.24-.64 2.7-.64 1.6 0 2.88.65 1.3.6 2.2 1.7.9 1.05 1.4 2.55.5 1.5.5 3.24zm-2.95-.06q0-2.5-1.05-4-1.04-1.5-2.84-1.5-1.7 0-2.8 1.56-1.1 1.55-1.1 3.94 0 2.4 1.1 3.9 1.15 1.44 2.95 1.44 1.6 0 2.65-1.45 1.1-1.44 1.1-3.9zm-12.42-19q0 1.74-.55 3.2-.55 1.38-1.5 2.43-.9 1.05-2.14 1.65-1.25.55-2.65.55-1.45 0-2.7-.55-1.25-.6-2.2-1.65-.9-1.05-1.44-2.44-.5-1.45-.5-3.2 0-1.74.5-3.24.5-1.5 1.4-2.56.9-1.1 2.1-1.7 1.24-.64 2.68-.64 1.6 0 2.9.65 1.3.6 2.2 1.7.9 1.04 1.4 2.54.5 1.5.5 3.23zm-2.95-.06q0-2.5-1.04-4-1.05-1.5-2.85-1.5-1.7 0-2.8 1.56-1.1 1.55-1.1 3.94 0 2.4 1.1 3.9 1.15 1.44 2.94 1.44 1.6 0 2.65-1.45 1.08-1.44 1.08-3.9z"/></g><g style="line-height:125%;-inkscape-font-specification:'Concourse T3, Light';font-variant-ligatures:normal;font-variant-caps:normal;font-variant-numeric:normal;font-feature-settings:normal;text-align:start" font-weight="300" font-size="49.895" font-family="Concourse T3" letter-spacing="0" word-spacing="0"><path d="M1648.13 912.52l1.9-14.67h17.7l-.5 3.6-14.4-.4-1.1 8.32q.84-.1 1.7-.15.9-.05 1.74-.05 3.6 0 6.18.85 2.6.85 4.25 2.35 1.64 1.44 2.4 3.4.8 1.94.8 4.13 0 3-1.26 5.34-1.2 2.35-3.4 3.94-2.14 1.6-5.13 2.45-2.98.8-6.53.8-1.34 0-2.6-.1-1.2-.1-2.24-.45.15-.8.3-1.6.2-.8.4-1.6.85.25 2.05.4 1.25.1 2.3.1 2.9 0 5.13-.65 2.3-.7 3.9-1.9t2.45-2.84q.85-1.7.85-3.75 0-2-.9-3.44-.85-1.5-2.35-2.44-1.5-1-3.5-1.44-1.93-.5-4.18-.5-2.1 0-3.5.15-1.34.15-2.24.3z"/><path d="M1675.48 929.48q0-1.15.75-1.9.8-.8 1.94-.8 1.1 0 1.9.8.8.75.8 1.9t-.8 1.9q-.8.75-1.9.75-1.15 0-1.94-.75-.75-.75-.75-1.9z"/><path d="M1688.83 899.94q.3-.25 1.1-.7.8-.44 2-.9 1.2-.44 2.73-.8 1.55-.34 3.35-.34 2.15 0 4.05.55 1.95.5 3.4 1.64 1.44 1.1 2.24 2.84.84 1.75.84 4.24 0 5.14-4.15 10.43-4.15 5.25-11.68 11.18l.2.35 16.1-.3v3.65h-22.2l-.5-1.75q5.25-4.3 8.74-7.68 3.55-3.45 5.7-6.2 2.14-2.78 3.04-4.98.94-2.25.94-4.1 0-3.28-1.94-4.93-1.9-1.65-5.04-1.65-1.5 0-2.9.34-1.4.35-2.54.85-1.1.5-1.95 1-.84.44-1.24.74z"/><path d="M1738.88 914.46q0 4.5-.9 7.9-.9 3.33-2.55 5.57-1.64 2.25-3.9 3.4-2.23 1.1-4.93 1.1-2.6 0-4.9-1.05-2.23-1.05-3.93-3.25-1.7-2.2-2.7-5.58-.94-3.4-.94-8.1 0-4.23.94-7.42 1-3.24 2.7-5.4 1.7-2.2 3.94-3.28 2.3-1.15 4.9-1.15 2.7 0 4.94 1.15 2.25 1.1 3.9 3.3 1.64 2.2 2.54 5.43.9 3.2.9 7.38zm-3.65-.1q0-3.2-.65-5.73-.6-2.6-1.8-4.4-1.14-1.8-2.8-2.74-1.58-1-3.58-1-1.8 0-3.4.9-1.54.84-2.74 2.6-1.14 1.68-1.84 4.33-.65 2.6-.65 6.03 0 3.9.7 6.74.75 2.8 1.94 4.6 1.26 1.8 2.86 2.63 1.64.85 3.4.85 4.13 0 6.33-3.9 2.23-3.93 2.23-10.92z"/><path d="M1757.63 914.16l11.17-16.86 2.45 1-11.93 16.6-11.72 17.43-2.45-1.05zm15.07 10.33q0 1.74-.55 3.2-.55 1.38-1.5 2.43-.9 1.05-2.14 1.65-1.24.55-2.64.55-1.45 0-2.7-.55-1.24-.6-2.2-1.65-.9-1.05-1.44-2.44-.5-1.46-.5-3.2 0-1.75.5-3.25t1.4-2.55q.9-1.1 2.1-1.7 1.24-.64 2.7-.64 1.6 0 2.88.65 1.3.6 2.2 1.7.9 1.05 1.4 2.55.5 1.5.5 3.24zm-2.95-.06q0-2.5-1.05-4-1.04-1.5-2.84-1.5-1.7 0-2.8 1.56-1.1 1.55-1.1 3.94 0 2.4 1.1 3.9 1.15 1.44 2.95 1.44 1.6 0 2.65-1.45 1.1-1.44 1.1-3.9zm-12.42-19q0 1.74-.55 3.2-.55 1.38-1.5 2.43-.9 1.05-2.14 1.65-1.25.55-2.65.55-1.45 0-2.7-.55-1.25-.6-2.2-1.65-.9-1.05-1.44-2.44-.5-1.45-.5-3.2 0-1.74.5-3.24.5-1.5 1.4-2.56.9-1.1 2.1-1.7 1.24-.64 2.68-.64 1.6 0 2.9.65 1.3.6 2.2 1.7.9 1.04 1.4 2.54.5 1.5.5 3.23zm-2.95-.06q0-2.5-1.04-4-1.05-1.5-2.85-1.5-1.7 0-2.8 1.56-1.1 1.55-1.1 3.94 0 2.4 1.1 3.9 1.15 1.44 2.94 1.44 1.6 0 2.65-1.45 1.08-1.44 1.08-3.9z"/></g><g style="line-height:125%;-inkscape-font-specification:'Concourse T3, Light';font-variant-ligatures:normal;font-variant-caps:normal;font-variant-numeric:normal;font-feature-settings:normal;text-align:start" font-weight="300" font-size="49.895" font-family="Concourse T3" letter-spacing="0" word-spacing="0"><path d="M1669.3 821.85h-4.2v9.98h-3.53v-9.98h-14.72l-.8-1.65 14.97-22.3h4.1v20.85l4.18-.1zm-7.73-3.05v-16h-.55l-10.33 15.65.24.45z"/><path d="M1675.38 829.53q0-1.15.75-1.9.8-.8 1.95-.8 1.1 0 1.9.8.8.75.8 1.9t-.8 1.9q-.8.75-1.9.75-1.15 0-1.95-.75-.75-.75-.75-1.9z"/><path d="M1711.88 814.5q0 4.5-.9 7.9-.9 3.34-2.54 5.58-1.65 2.25-3.9 3.4-2.24 1.1-4.93 1.1-2.6 0-4.88-1.05-2.25-1.05-3.94-3.25-1.7-2.2-2.7-5.58-.95-3.4-.95-8.1 0-4.23.95-7.42 1-3.24 2.7-5.4 1.7-2.2 3.94-3.28 2.3-1.15 4.9-1.15 2.68 0 4.93 1.15 2.24 1.1 3.9 3.3 1.63 2.2 2.53 5.43.9 3.2.9 7.38zm-3.64-.1q0-3.18-.65-5.72-.6-2.6-1.8-4.4-1.15-1.8-2.8-2.74-1.6-1-3.6-1-1.8 0-3.4.9-1.53.85-2.73 2.6-1.15 1.7-1.85 4.34-.64 2.6-.64 6.03 0 3.9.7 6.75.74 2.8 1.94 4.6 1.25 1.8 2.84 2.63 1.65.85 3.4.85 4.14 0 6.33-3.9 2.24-3.93 2.24-10.92z"/><path d="M1739.18 821.85h-4.2v9.98h-3.54v-9.98h-14.72l-.8-1.65 14.97-22.3h4.1v20.85l4.18-.1zm-7.74-3.05v-16h-.55l-10.33 15.65.25.45z"/><path d="M1757.63 814.2l11.17-16.85 2.45 1-11.93 16.6-11.72 17.43-2.45-1.05zm15.07 10.34q0 1.75-.55 3.2-.55 1.4-1.5 2.44-.9 1.05-2.14 1.65-1.24.55-2.64.55-1.45 0-2.7-.55-1.24-.6-2.2-1.65-.9-1.05-1.44-2.44-.5-1.45-.5-3.2 0-1.74.5-3.24.5-1.5 1.4-2.55.9-1.1 2.1-1.7 1.24-.64 2.7-.64 1.6 0 2.88.66 1.3.6 2.2 1.7.9 1.04 1.4 2.54.5 1.5.5 3.24zm-2.95-.05q0-2.5-1.05-4-1.04-1.5-2.84-1.5-1.7 0-2.8 1.55-1.1 1.55-1.1 3.94 0 2.4 1.1 3.88 1.15 1.45 2.95 1.45 1.6 0 2.65-1.45 1.1-1.44 1.1-3.9zm-12.42-19.02q0 1.75-.55 3.2-.55 1.4-1.5 2.44-.9 1.05-2.14 1.65-1.25.55-2.65.55-1.45 0-2.7-.55-1.25-.6-2.2-1.65-.9-1.05-1.44-2.44-.5-1.45-.5-3.2 0-1.74.5-3.24.5-1.5 1.4-2.55.9-1.1 2.1-1.7 1.24-.65 2.68-.65 1.6 0 2.9.65 1.3.6 2.2 1.7.9 1.04 1.4 2.54.5 1.5.5 3.24zm-2.95-.05q0-2.5-1.04-4-1.05-1.5-2.85-1.5-1.7 0-2.8 1.56-1.1 1.54-1.1 3.93 0 2.4 1.1 3.9 1.15 1.44 2.94 1.44 1.6 0 2.65-1.45 1.08-1.44 1.08-3.9z"/></g><g style="line-height:125%;-inkscape-font-specification:'Concourse T3, Light';font-variant-ligatures:normal;font-variant-caps:normal;font-variant-numeric:normal;font-feature-settings:normal;text-align:start" font-weight="300" font-size="49.895" font-family="Concourse T3" letter-spacing="0" word-spacing="0"><path d="M1653.94 701q.3-.26 1.1-.7.8-.45 2-.9t2.74-.8q1.54-.35 3.34-.35 2.15 0 4.04.55 1.95.5 3.4 1.64 1.44 1.1 2.24 2.85.85 1.73.85 4.23 0 5.14-4.14 10.43-4.13 5.24-11.67 11.17l.2.35 16.12-.3v3.65h-22.2l-.5-1.75q5.23-4.3 8.73-7.68 3.54-3.45 5.68-6.2 2.15-2.78 3.05-4.98.96-2.25.96-4.1 0-3.28-1.95-4.93-1.9-1.66-5.03-1.66-1.5 0-2.9.35-1.4.34-2.54.84-1.1.5-1.94 1-.86.45-1.26.75z"/><path d="M1680.94 730.53q0-1.15.74-1.9.8-.8 1.95-.8 1.1 0 1.9.8.8.75.8 1.9t-.8 1.9q-.8.75-1.9.75-1.15 0-1.95-.75-.74-.75-.74-1.9z"/><path d="M1714.1 699.5q-5.3 8.43-8.3 16.6-2.98 8.14-3.38 16.73h-4.2q.5-4.24 1.55-8.4 1.05-4.18 2.5-8.07 1.44-3.94 3.24-7.48 1.8-3.55 3.85-6.54l-.2-.25-16.86.3.34-3.5h20.95z"/><path d="M1718.26 701q.3-.26 1.1-.7.8-.45 2-.9t2.74-.8q1.54-.35 3.34-.35 2.14 0 4.04.55 1.95.5 3.4 1.64 1.44 1.1 2.24 2.85.85 1.73.85 4.23 0 5.14-4.15 10.43-4.14 5.24-11.67 11.17l.2.35 16.12-.3v3.65h-22.2l-.5-1.75q5.23-4.3 8.72-7.68 3.54-3.45 5.68-6.2 2.15-2.78 3.05-4.98.94-2.25.94-4.1 0-3.28-1.94-4.93-1.9-1.66-5.04-1.66-1.5 0-2.9.35-1.4.34-2.55.84-1.1.5-1.95 1-.84.45-1.24.75z"/><path d="M1757.63 715.2l11.17-16.85 2.45 1-11.93 16.6-11.72 17.43-2.45-1.05zm15.07 10.34q0 1.75-.55 3.2-.55 1.4-1.5 2.44-.9 1.05-2.14 1.65-1.24.55-2.64.55-1.45 0-2.7-.55-1.24-.6-2.2-1.65-.9-1.05-1.44-2.44-.5-1.45-.5-3.2 0-1.74.5-3.24.5-1.5 1.4-2.55.9-1.1 2.1-1.7 1.24-.64 2.7-.64 1.6 0 2.88.66 1.3.6 2.2 1.7.9 1.04 1.4 2.54.5 1.5.5 3.24zm-2.95-.05q0-2.5-1.05-4-1.04-1.5-2.84-1.5-1.7 0-2.8 1.55-1.1 1.55-1.1 3.94 0 2.4 1.1 3.88 1.15 1.45 2.95 1.45 1.6 0 2.65-1.45 1.1-1.44 1.1-3.9zm-12.42-19.02q0 1.75-.55 3.2-.55 1.4-1.5 2.44-.9 1.05-2.14 1.65-1.25.55-2.65.55-1.45 0-2.7-.55-1.25-.6-2.2-1.65-.9-1.05-1.44-2.44-.5-1.45-.5-3.2 0-1.74.5-3.24.5-1.5 1.4-2.55.9-1.1 2.1-1.7 1.24-.65 2.68-.65 1.6 0 2.9.65 1.3.6 2.2 1.7.9 1.04 1.4 2.54.5 1.5.5 3.24zm-2.95-.05q0-2.5-1.04-4-1.05-1.5-2.85-1.5-1.7 0-2.8 1.56-1.1 1.54-1.1 3.93 0 2.4 1.1 3.9 1.15 1.44 2.94 1.44 1.6 0 2.65-1.45 1.08-1.44 1.08-3.9z"/></g><g style="line-height:125%;-inkscape-font-specification:'Concourse T3, Light';font-variant-ligatures:normal;font-variant-caps:normal;font-variant-numeric:normal;font-feature-settings:normal;text-align:start" font-weight="300" font-size="49.895" font-family="Concourse T3" letter-spacing="0" word-spacing="0"><path d="M1673.4 621.85h-4.2v9.98h-3.54v-9.98h-14.72l-.8-1.65 14.97-22.3h4.1v20.85l4.2-.1zm-7.74-3.05v-16h-.55l-10.3 15.65.24.45z"/><path d="M1679.47 629.53q0-1.15.75-1.9.8-.8 1.95-.8 1.1 0 1.9.8.8.75.8 1.9t-.8 1.9q-.8.75-1.9.75-1.15 0-1.95-.75-.75-.75-.75-1.9z"/><path d="M1705.65 614.36q3.94 2.2 5.53 4.5 1.65 2.3 1.65 4.88 0 1.95-.85 3.55-.8 1.58-2.24 2.73-1.4 1.15-3.4 1.8-2 .65-4.3.65-2.33 0-4.28-.65-1.94-.7-3.4-1.9-1.4-1.25-2.2-2.9-.78-1.7-.78-3.7 0-2.98 1.94-5.22 2-2.3 5.04-3.7v-.24q-3.2-2.04-4.5-4.24-1.3-2.2-1.3-4.34 0-1.74.76-3.24.75-1.55 2.05-2.65 1.34-1.15 3.14-1.8 1.86-.65 4.05-.65 1.9 0 3.6.55 1.74.55 3 1.6 1.3 1.04 2.03 2.54.75 1.45.75 3.3 0 5.93-6.28 8.82zm-4.35 1.4q-3.34 1.3-4.84 3.34-1.5 2.05-1.5 4.24 0 1.35.56 2.5.6 1.1 1.54 1.9 1 .8 2.3 1.24 1.35.4 2.8.4 3.14 0 5.03-1.55 1.94-1.6 1.94-4.14 0-1.35-.65-2.45-.6-1.15-1.66-2.1-1.04-.94-2.5-1.8-1.4-.84-3-1.6zm-4.98-10.38q0 2.2 1.5 3.94 1.5 1.75 4.83 3.55 2.65-1.2 4.2-3 1.54-1.84 1.54-4.24 0-2.4-1.66-3.84-1.64-1.5-4.34-1.5-1.44 0-2.6.4-1.1.4-1.9 1.1-.8.7-1.2 1.64-.38.9-.38 1.94z"/><path d="M1717.54 626.94q2.24 1.14 4.34 1.74 2.14.55 4.5.55 1.73 0 3.23-.45 1.56-.5 2.65-1.4 1.15-.9 1.8-2.2.65-1.34.65-3.08 0-1.3-.55-2.45-.5-1.15-1.45-2-.94-.84-2.3-1.3-1.3-.44-2.84-.4l-6.43.2.4-3.53 5.74.15q1.4.05 2.64-.4 1.26-.5 2.15-1.35.95-.85 1.5-2 .55-1.14.55-2.5 0-2.83-2-4.43-1.94-1.66-5.23-1.66-1.9 0-3.7.5-1.8.45-3.8 1.45l-.2-.06.4-3.34q1.1-.55 3.05-1.15 1.95-.6 4.35-.6 2.4 0 4.4.6 1.98.6 3.43 1.74 1.45 1.1 2.24 2.74.8 1.6.8 3.7 0 2.98-1.64 5.08-1.6 2.1-4.3 2.8v.3q1.6.34 2.8 1.14 1.25.8 2.05 1.95.84 1.1 1.24 2.4.44 1.3.44 2.6 0 2.94-1.2 4.9-1.14 1.93-3 3.13-1.8 1.15-3.93 1.65-2.14.5-4.08.5-2.65 0-4.74-.5-2.1-.5-3.9-1.45l-.14-3.5z"/><path d="M1757.63 614.2l11.17-16.85 2.45 1-11.93 16.6-11.72 17.43-2.45-1.05zm15.07 10.34q0 1.75-.55 3.2-.55 1.4-1.5 2.44-.9 1.05-2.14 1.65-1.24.55-2.64.55-1.45 0-2.7-.55-1.24-.6-2.2-1.65-.9-1.05-1.44-2.44-.5-1.45-.5-3.2 0-1.74.5-3.24.5-1.5 1.4-2.55.9-1.1 2.1-1.7 1.24-.64 2.7-.64 1.6 0 2.88.66 1.3.6 2.2 1.7.9 1.04 1.4 2.54.5 1.5.5 3.24zm-2.95-.05q0-2.5-1.05-4-1.04-1.5-2.84-1.5-1.7 0-2.8 1.55-1.1 1.55-1.1 3.94 0 2.4 1.1 3.88 1.15 1.45 2.95 1.45 1.6 0 2.65-1.45 1.1-1.44 1.1-3.9zm-12.42-19.02q0 1.75-.55 3.2-.55 1.4-1.5 2.44-.9 1.05-2.14 1.65-1.25.55-2.65.55-1.45 0-2.7-.55-1.25-.6-2.2-1.65-.9-1.05-1.44-2.44-.5-1.45-.5-3.2 0-1.74.5-3.24.5-1.5 1.4-2.55.9-1.1 2.1-1.7 1.24-.65 2.68-.65 1.6 0 2.9.65 1.3.6 2.2 1.7.9 1.04 1.4 2.54.5 1.5.5 3.24zm-2.95-.05q0-2.5-1.04-4-1.05-1.5-2.85-1.5-1.7 0-2.8 1.56-1.1 1.54-1.1 3.93 0 2.4 1.1 3.9 1.15 1.44 2.94 1.44 1.6 0 2.65-1.45 1.08-1.44 1.08-3.9z"/></g><g style="line-height:125%;-inkscape-font-specification:'Concourse T3, Light';font-variant-ligatures:normal;font-variant-caps:normal;font-variant-numeric:normal;font-feature-settings:normal;text-align:start" font-weight="300" font-size="49.895" font-family="Concourse T3" letter-spacing="0" word-spacing="0"><path d="M1651.27 526.94q2.24 1.14 4.34 1.74 2.15.55 4.5.55 1.75 0 3.24-.45 1.55-.5 2.65-1.4 1.13-.9 1.78-2.2.65-1.34.65-3.08 0-1.3-.55-2.45-.5-1.15-1.44-2-.95-.84-2.3-1.3-1.3-.44-2.84-.4l-6.44.2.4-3.53 5.74.15q1.4.05 2.64-.4 1.25-.5 2.15-1.35.94-.85 1.48-2 .55-1.14.55-2.5 0-2.83-2-4.43-1.94-1.66-5.23-1.66-1.9 0-3.7.5-1.8.45-3.8 1.45l-.2-.06.4-3.34q1.1-.55 3.06-1.15 1.94-.6 4.34-.6t4.4.6q2 .6 3.43 1.74 1.45 1.1 2.25 2.74.8 1.6.8 3.7 0 2.98-1.65 5.08-1.6 2.1-4.3 2.8v.3q1.6.34 2.8 1.14 1.25.8 2.05 1.95.85 1.1 1.25 2.4.44 1.3.44 2.6 0 2.94-1.2 4.9-1.14 1.93-3 3.13-1.78 1.15-3.93 1.65-2.14.5-4.1.5-2.63 0-4.73-.5-2.1-.5-3.88-1.45l-.15-3.5z"/><path d="M1679 529.53q0-1.15.74-1.9.8-.8 1.94-.8 1.1 0 1.9.8.8.75.8 1.9t-.8 1.9q-.8.75-1.9.75-1.15 0-1.94-.75-.75-.75-.75-1.9z"/><path d="M1705.16 514.36q3.94 2.2 5.54 4.5 1.64 2.3 1.64 4.88 0 1.95-.84 3.55-.8 1.58-2.25 2.73-1.4 1.15-3.4 1.8-2 .65-4.28.65-2.35 0-4.3-.65-1.94-.7-3.4-1.9-1.4-1.25-2.18-2.9-.8-1.7-.8-3.7 0-2.98 1.93-5.22 2-2.3 5.04-3.7v-.24q-3.2-2.04-4.5-4.24-1.28-2.2-1.28-4.34 0-1.74.73-3.24.75-1.55 2.05-2.65 1.35-1.15 3.14-1.8 1.85-.65 4.04-.65 1.9 0 3.6.55 1.74.55 3 1.6 1.3 1.04 2.04 2.54.75 1.45.75 3.3 0 5.93-6.3 8.82zm-4.34 1.4q-3.35 1.3-4.84 3.34-1.5 2.05-1.5 4.24 0 1.35.55 2.5.6 1.1 1.55 1.9 1 .8 2.3 1.24 1.34.4 2.8.4 3.13 0 5.03-1.55 1.95-1.6 1.95-4.14 0-1.35-.65-2.45-.6-1.15-1.64-2.1-1.05-.94-2.5-1.8-1.4-.84-3-1.6zm-5-10.38q0 2.2 1.5 3.94 1.5 1.75 4.84 3.55 2.65-1.2 4.2-3 1.54-1.84 1.54-4.24 0-2.4-1.64-3.84-1.65-1.5-4.34-1.5-1.45 0-2.6.4-1.1.4-1.9 1.1-.8.7-1.2 1.64-.4.9-.4 1.94z"/><path d="M1731.57 514.36q3.94 2.2 5.54 4.5 1.65 2.3 1.65 4.88 0 1.95-.85 3.55-.8 1.58-2.24 2.73-1.4 1.15-3.4 1.8-2 .65-4.28.65-2.35 0-4.3-.65-1.94-.7-3.4-1.9-1.4-1.25-2.18-2.9-.8-1.7-.8-3.7 0-2.98 1.94-5.22 2-2.3 5.04-3.7v-.24q-3.2-2.04-4.5-4.24-1.28-2.2-1.28-4.34 0-1.74.74-3.24.75-1.55 2.05-2.65 1.34-1.15 3.13-1.8 1.85-.65 4.04-.65 1.9 0 3.6.55 1.74.55 3 1.6 1.3 1.04 2.04 2.54.75 1.45.75 3.3 0 5.93-6.28 8.82zm-4.34 1.4q-3.35 1.3-4.84 3.34-1.5 2.05-1.5 4.24 0 1.35.54 2.5.6 1.1 1.55 1.9.98.8 2.28 1.24 1.35.4 2.8.4 3.14 0 5.03-1.55 1.96-1.6 1.96-4.14 0-1.35-.65-2.45-.6-1.15-1.63-2.1-1.05-.94-2.5-1.8-1.4-.84-3-1.6zm-5-10.38q0 2.2 1.5 3.94 1.5 1.75 4.84 3.55 2.65-1.2 4.2-3 1.54-1.84 1.54-4.24 0-2.4-1.63-3.84-1.65-1.5-4.35-1.5-1.44 0-2.6.4-1.1.4-1.9 1.1-.78.7-1.18 1.64-.4.9-.4 1.94z"/><path d="M1757.63 514.2l11.17-16.85 2.45 1-11.93 16.6-11.72 17.43-2.45-1.05zm15.07 10.34q0 1.75-.55 3.2-.55 1.4-1.5 2.44-.9 1.05-2.14 1.65-1.24.55-2.64.55-1.45 0-2.7-.55-1.24-.6-2.2-1.65-.9-1.05-1.44-2.44-.5-1.45-.5-3.2 0-1.74.5-3.24.5-1.5 1.4-2.55.9-1.1 2.1-1.7 1.24-.64 2.7-.64 1.6 0 2.88.66 1.3.6 2.2 1.7.9 1.04 1.4 2.54.5 1.5.5 3.24zm-2.95-.05q0-2.5-1.05-4-1.04-1.5-2.84-1.5-1.7 0-2.8 1.55-1.1 1.55-1.1 3.94 0 2.4 1.1 3.88 1.15 1.45 2.95 1.45 1.6 0 2.65-1.45 1.1-1.44 1.1-3.9zm-12.42-19.02q0 1.75-.55 3.2-.55 1.4-1.5 2.44-.9 1.05-2.14 1.65-1.25.55-2.65.55-1.45 0-2.7-.55-1.25-.6-2.2-1.65-.9-1.05-1.44-2.44-.5-1.45-.5-3.2 0-1.74.5-3.24.5-1.5 1.4-2.55.9-1.1 2.1-1.7 1.24-.65 2.68-.65 1.6 0 2.9.65 1.3.6 2.2 1.7.9 1.04 1.4 2.54.5 1.5.5 3.24zm-2.95-.05q0-2.5-1.04-4-1.05-1.5-2.85-1.5-1.7 0-2.8 1.56-1.1 1.54-1.1 3.93 0 2.4 1.1 3.9 1.15 1.44 2.94 1.44 1.6 0 2.65-1.45 1.08-1.44 1.08-3.9z"/></g><g style="line-height:125%;-inkscape-font-specification:'Concourse T3, Light';font-variant-ligatures:normal;font-variant-caps:normal;font-variant-numeric:normal;font-feature-settings:normal;text-align:start" font-weight="300" font-size="49.895" font-family="Concourse T3" letter-spacing="0" word-spacing="0"><path d="M1624.12 400q.3-.26 1.1-.7.8-.45 2-.9t2.74-.8q1.54-.35 3.34-.35 2.15 0 4.04.55 1.95.5 3.4 1.64 1.44 1.1 2.24 2.85.85 1.73.85 4.23 0 5.14-4.14 10.43-4.15 5.24-11.7 11.17l.2.35 16.13-.3v3.65h-22.2l-.5-1.75q5.23-4.3 8.73-7.68 3.54-3.45 5.68-6.2 2.15-2.78 3.05-4.98.94-2.25.94-4.1 0-3.28-1.95-4.93-1.9-1.66-5.05-1.66-1.5 0-2.9.35-1.4.34-2.54.84-1.1.5-1.93 1-.85.45-1.25.75z"/><path d="M1650.67 412.57l1.9-14.67h17.7l-.5 3.6-14.4-.4-1.1 8.32q.84-.1 1.7-.15.88-.05 1.73-.05 3.6 0 6.2.85 2.58.85 4.23 2.35 1.65 1.44 2.4 3.4.8 1.94.8 4.13 0 3-1.25 5.34-1.2 2.34-3.4 3.93-2.14 1.6-5.14 2.45-3 .8-6.53.8-1.34 0-2.6-.1-1.18-.1-2.23-.45.15-.8.3-1.6.2-.8.4-1.6.84.25 2.04.4 1.26.1 2.3.1 2.9 0 5.15-.65 2.3-.7 3.9-1.9 1.58-1.2 2.43-2.84.85-1.7.85-3.74 0-2-.9-3.44-.85-1.5-2.34-2.45-1.5-.98-3.5-1.43-1.95-.5-4.2-.5-2.1 0-3.5.15-1.34.15-2.23.3z"/><path d="M1678 429.53q0-1.15.76-1.9.8-.8 1.95-.8 1.1 0 1.9.8.8.75.8 1.9t-.8 1.9q-.8.75-1.9.75-1.14 0-1.94-.75-.75-.75-.75-1.9z"/><path d="M1691 412.57l1.9-14.67h17.72l-.5 3.6-14.42-.4-1.1 8.32q.85-.1 1.7-.15.9-.05 1.75-.05 3.6 0 6.18.85 2.6.85 4.24 2.35 1.65 1.44 2.4 3.4.8 1.94.8 4.13 0 3-1.25 5.34-1.2 2.34-3.4 3.93-2.14 1.6-5.13 2.45-3 .8-6.55.8-1.34 0-2.6-.1-1.2-.1-2.24-.45.16-.8.3-1.6.2-.8.4-1.6.86.25 2.06.4 1.24.1 2.3.1 2.9 0 5.13-.65 2.3-.7 3.88-1.9 1.6-1.2 2.45-2.84.85-1.7.85-3.74 0-2-.9-3.44-.85-1.5-2.35-2.45-1.5-.98-3.5-1.43-1.94-.5-4.18-.5-2.1 0-3.5.15-1.34.15-2.24.3z"/><path d="M1718.26 400q.3-.26 1.1-.7.8-.45 2-.9t2.74-.8q1.54-.35 3.34-.35 2.14 0 4.04.55 1.95.5 3.4 1.64 1.44 1.1 2.24 2.85.85 1.73.85 4.23 0 5.14-4.15 10.43-4.14 5.24-11.67 11.17l.2.35 16.12-.3v3.65h-22.2l-.5-1.75q5.23-4.3 8.72-7.68 3.54-3.45 5.68-6.2 2.15-2.78 3.05-4.98.94-2.25.94-4.1 0-3.28-1.94-4.93-1.9-1.66-5.04-1.66-1.5 0-2.9.35-1.4.34-2.55.84-1.1.5-1.95 1-.84.45-1.24.75z"/><path d="M1757.63 414.2l11.17-16.85 2.45 1-11.93 16.6-11.72 17.43-2.45-1.05zm15.07 10.34q0 1.75-.55 3.2-.55 1.4-1.5 2.44-.9 1.05-2.14 1.65-1.24.55-2.64.55-1.45 0-2.7-.55-1.24-.6-2.2-1.65-.9-1.05-1.44-2.44-.5-1.45-.5-3.2 0-1.74.5-3.24.5-1.5 1.4-2.55.9-1.1 2.1-1.7 1.24-.64 2.7-.64 1.6 0 2.88.66 1.3.6 2.2 1.7.9 1.04 1.4 2.54.5 1.5.5 3.24zm-2.95-.05q0-2.5-1.05-4-1.04-1.5-2.84-1.5-1.7 0-2.8 1.55-1.1 1.55-1.1 3.94 0 2.4 1.1 3.88 1.15 1.45 2.95 1.45 1.6 0 2.65-1.45 1.1-1.44 1.1-3.9zm-12.42-19.02q0 1.75-.55 3.2-.55 1.4-1.5 2.44-.9 1.05-2.14 1.65-1.25.55-2.65.55-1.45 0-2.7-.55-1.25-.6-2.2-1.65-.9-1.05-1.44-2.44-.5-1.45-.5-3.2 0-1.74.5-3.24.5-1.5 1.4-2.55.9-1.1 2.1-1.7 1.24-.65 2.68-.65 1.6 0 2.9.65 1.3.6 2.2 1.7.9 1.04 1.4 2.54.5 1.5.5 3.24zm-2.95-.05q0-2.5-1.04-4-1.05-1.5-2.85-1.5-1.7 0-2.8 1.56-1.1 1.54-1.1 3.93 0 2.4 1.1 3.9 1.15 1.44 2.94 1.44 1.6 0 2.65-1.45 1.08-1.44 1.08-3.9z"/></g><g style="line-height:125%;-inkscape-font-specification:'Concourse T3, Light';font-variant-ligatures:normal;font-variant-caps:normal;font-variant-numeric:normal;font-feature-settings:normal;text-align:start" font-weight="300" font-size="49.895" font-family="Concourse T3" letter-spacing="0" word-spacing="0"><path d="M1652.7 313.96q1.45-1.04 3.2-1.54 1.74-.55 3.5-.55 1.98 0 3.93.6 2 .6 3.54 1.9 1.55 1.24 2.5 3.24.94 2 .94 4.8 0 2.5-.94 4.4-.9 1.83-2.4 3.13-1.5 1.25-3.38 1.9-1.85.65-3.7.65-3.1 0-5.33-1.1-2.2-1.1-3.65-2.95-1.4-1.9-2.1-4.34-.64-2.5-.64-5.3 0-5.1 1.75-8.98 1.8-3.94 4.7-6.68 2.9-2.75 6.53-4.24 3.64-1.5 7.4-1.65l-.56 3.4q-3.25.2-5.94 1.4-2.7 1.2-4.74 2.98-2 1.8-3.3 4.1-1.25 2.24-1.6 4.58zm13.92 8.7q0-2.16-.7-3.6-.65-1.5-1.74-2.4-1.1-.95-2.55-1.35-1.4-.44-2.9-.44-1.7 0-3.5.55-1.73.56-3.18 1.76-.2 1.14-.2 2.4 0 2.2.55 4.03.6 1.8 1.65 3.1 1.04 1.28 2.5 1.98 1.44.7 3.23.7 3 0 4.9-1.74 1.94-1.8 1.94-5z"/><path d="M1676.45 329.53q0-1.15.75-1.9.8-.8 1.95-.8 1.1 0 1.9.8.8.75.8 1.9t-.8 1.9q-.8.75-1.9.75-1.15 0-1.95-.75-.75-.75-.75-1.9z"/><path d="M1688.1 326.94q2.25 1.14 4.35 1.74 2.14.55 4.5.55 1.73 0 3.23-.45 1.55-.5 2.64-1.4 1.15-.9 1.8-2.2.65-1.34.65-3.08 0-1.3-.55-2.45-.5-1.15-1.45-2-.94-.84-2.3-1.3-1.3-.44-2.84-.4l-6.43.2.4-3.53 5.73.15q1.4.05 2.65-.4 1.25-.5 2.14-1.35.95-.85 1.5-2 .55-1.14.55-2.5 0-2.83-2-4.43-1.94-1.66-5.23-1.66-1.9 0-3.7.5-1.8.45-3.8 1.45l-.2-.06.4-3.34q1.1-.55 3.05-1.15 1.94-.6 4.34-.6t4.4.6q1.98.6 3.43 1.74 1.45 1.1 2.24 2.74.8 1.6.8 3.7 0 2.98-1.63 5.08-1.6 2.1-4.3 2.8v.3q1.6.34 2.8 1.14 1.25.8 2.04 1.95.86 1.1 1.26 2.4.45 1.3.45 2.6 0 2.94-1.2 4.9-1.13 1.93-2.98 3.13-1.8 1.15-3.94 1.65-2.15.5-4.1.5-2.64 0-4.73-.5-2.1-.5-3.9-1.45l-.14-3.5z"/><path d="M1738.88 314.5q0 4.5-.9 7.9-.9 3.34-2.55 5.58-1.64 2.25-3.9 3.4-2.23 1.1-4.93 1.1-2.6 0-4.9-1.05-2.23-1.05-3.93-3.25-1.7-2.2-2.7-5.58-.94-3.4-.94-8.1 0-4.23.95-7.42 1-3.24 2.7-5.4 1.7-2.2 3.93-3.28 2.3-1.15 4.9-1.15 2.7 0 4.94 1.15 2.25 1.1 3.9 3.3 1.64 2.2 2.54 5.43.9 3.2.9 7.38zm-3.65-.1q0-3.18-.65-5.72-.6-2.6-1.8-4.4-1.14-1.8-2.8-2.74-1.58-1-3.58-1-1.8 0-3.4.9-1.54.85-2.74 2.6-1.14 1.7-1.84 4.34-.65 2.6-.65 6.03 0 3.9.7 6.75.75 2.8 1.94 4.6 1.26 1.8 2.86 2.63 1.64.85 3.4.85 4.13 0 6.33-3.9 2.23-3.93 2.23-10.92z"/><path d="M1757.63 314.2l11.17-16.85 2.45 1-11.93 16.6-11.72 17.43-2.45-1.05zm15.07 10.34q0 1.75-.55 3.2-.55 1.4-1.5 2.44-.9 1.05-2.14 1.65-1.24.55-2.64.55-1.45 0-2.7-.55-1.24-.6-2.2-1.65-.9-1.05-1.44-2.44-.5-1.45-.5-3.2 0-1.74.5-3.24.5-1.5 1.4-2.55.9-1.1 2.1-1.7 1.24-.64 2.7-.64 1.6 0 2.9.66 1.28.6 2.18 1.7.9 1.04 1.4 2.54.5 1.5.5 3.24zm-2.95-.05q0-2.5-1.05-4-1.04-1.5-2.84-1.5-1.7 0-2.8 1.55-1.1 1.55-1.1 3.94 0 2.4 1.1 3.88 1.15 1.45 2.95 1.45 1.6 0 2.65-1.45 1.1-1.44 1.1-3.9zm-12.42-19.02q0 1.75-.55 3.2-.55 1.4-1.5 2.44-.9 1.05-2.14 1.65-1.25.55-2.65.55-1.45 0-2.7-.55-1.25-.6-2.2-1.65-.9-1.05-1.44-2.44-.5-1.45-.5-3.2 0-1.74.5-3.24.5-1.5 1.4-2.55.9-1.1 2.1-1.7 1.24-.65 2.68-.65 1.6 0 2.9.65 1.3.6 2.2 1.7.9 1.04 1.4 2.54.5 1.5.5 3.24zm-2.95-.05q0-2.5-1.04-4-1.05-1.5-2.85-1.5-1.7 0-2.8 1.56-1.1 1.54-1.1 3.93 0 2.4 1.1 3.9 1.15 1.44 2.94 1.44 1.6 0 2.65-1.45 1.08-1.44 1.08-3.9z"/></g><g style="line-height:125%;-inkscape-font-specification:'Concourse T3, Light';font-variant-ligatures:normal;font-variant-caps:normal;font-variant-numeric:normal;font-feature-settings:normal;text-align:start" font-weight="300" font-size="49.895" font-family="Concourse T3" letter-spacing="0" word-spacing="0"><path d="M1670.38 221.85h-4.2v9.98h-3.54v-9.98h-14.72l-.8-1.65 14.97-22.3h4.1v20.85l4.18-.1zm-7.74-3.05v-16h-.55l-10.33 15.65.25.45z"/><path d="M1676.45 229.53q0-1.15.75-1.9.8-.8 1.95-.8 1.1 0 1.9.8.8.75.8 1.9t-.8 1.9q-.8.75-1.9.75-1.15 0-1.95-.75-.75-.75-.75-1.9z"/><path d="M1688.1 226.94q2.25 1.14 4.35 1.74 2.14.55 4.5.55 1.73 0 3.23-.45 1.55-.5 2.64-1.4 1.15-.9 1.8-2.2.65-1.34.65-3.08 0-1.3-.55-2.45-.5-1.15-1.45-2-.94-.84-2.3-1.3-1.3-.44-2.84-.4l-6.43.2.4-3.53 5.73.15q1.4.05 2.65-.4 1.25-.5 2.14-1.35.95-.85 1.5-2 .55-1.14.55-2.5 0-2.83-2-4.43-1.94-1.66-5.23-1.66-1.9 0-3.7.5-1.8.45-3.8 1.45l-.2-.06.4-3.34q1.1-.55 3.05-1.15 1.94-.6 4.34-.6t4.4.6q1.98.6 3.43 1.74 1.45 1.1 2.24 2.74.8 1.6.8 3.7 0 2.98-1.63 5.08-1.6 2.1-4.3 2.8v.3q1.6.34 2.8 1.14 1.25.8 2.04 1.95.86 1.1 1.26 2.4.45 1.3.45 2.6 0 2.94-1.2 4.9-1.13 1.93-2.98 3.13-1.8 1.15-3.94 1.65-2.15.5-4.1.5-2.64 0-4.73-.5-2.1-.5-3.9-1.45l-.14-3.5z"/><path d="M1738.88 214.5q0 4.5-.9 7.9-.9 3.34-2.55 5.58-1.64 2.25-3.9 3.4-2.23 1.1-4.93 1.1-2.6 0-4.9-1.05-2.23-1.05-3.93-3.25-1.7-2.2-2.7-5.58-.94-3.4-.94-8.1 0-4.23.95-7.42 1-3.24 2.7-5.4 1.7-2.2 3.93-3.28 2.3-1.15 4.9-1.15 2.7 0 4.94 1.15 2.25 1.1 3.9 3.3 1.64 2.2 2.54 5.43.9 3.2.9 7.38zm-3.65-.1q0-3.18-.65-5.72-.6-2.6-1.8-4.4-1.14-1.8-2.8-2.74-1.58-1-3.58-1-1.8 0-3.4.9-1.54.85-2.74 2.6-1.14 1.7-1.84 4.34-.65 2.6-.65 6.03 0 3.9.7 6.75.75 2.8 1.94 4.6 1.26 1.8 2.86 2.63 1.64.85 3.4.85 4.13 0 6.33-3.9 2.23-3.93 2.23-10.92z"/><path d="M1757.63 214.2l11.17-16.85 2.45 1-11.93 16.6-11.72 17.43-2.45-1.05zm15.07 10.34q0 1.75-.55 3.2-.55 1.4-1.5 2.44-.9 1.05-2.14 1.65-1.24.55-2.64.55-1.45 0-2.7-.55-1.24-.6-2.2-1.65-.9-1.05-1.44-2.44-.5-1.45-.5-3.2 0-1.74.5-3.24.5-1.5 1.4-2.55.9-1.1 2.1-1.7 1.24-.64 2.7-.64 1.6 0 2.9.66 1.28.6 2.18 1.7.9 1.04 1.4 2.54.5 1.5.5 3.24zm-2.95-.05q0-2.5-1.05-4-1.04-1.5-2.84-1.5-1.7 0-2.8 1.55-1.1 1.55-1.1 3.94 0 2.4 1.1 3.88 1.15 1.45 2.95 1.45 1.6 0 2.65-1.45 1.1-1.44 1.1-3.9zm-12.42-19.02q0 1.75-.55 3.2-.55 1.4-1.5 2.44-.9 1.05-2.14 1.65-1.25.55-2.65.55-1.45 0-2.7-.55-1.25-.6-2.2-1.65-.9-1.05-1.44-2.44-.5-1.45-.5-3.2 0-1.74.5-3.24.5-1.5 1.4-2.55.9-1.1 2.1-1.7 1.24-.65 2.68-.65 1.6 0 2.9.65 1.3.6 2.2 1.7.9 1.04 1.4 2.54.5 1.5.5 3.24zm-2.95-.05q0-2.5-1.04-4-1.05-1.5-2.85-1.5-1.7 0-2.8 1.56-1.1 1.54-1.1 3.93 0 2.4 1.1 3.9 1.15 1.44 2.94 1.44 1.6 0 2.65-1.45 1.08-1.44 1.08-3.9z"/></g><g style="line-height:125%;-inkscape-font-specification:'Concourse T3, Light';font-variant-ligatures:normal;font-variant-caps:normal;font-variant-numeric:normal;font-feature-settings:normal;text-align:start" font-weight="300" font-size="49.895" font-family="Concourse T3" letter-spacing="0" word-spacing="0"><path d="M1648.13 114.57l1.9-14.67h17.7l-.5 3.6-14.4-.4-1.1 8.32q.84-.1 1.7-.15.9-.05 1.74-.05 3.6 0 6.2.85 2.58.85 4.23 2.35 1.64 1.44 2.4 3.4.8 1.94.8 4.13 0 3-1.26 5.34-1.2 2.34-3.4 3.93-2.14 1.6-5.13 2.45-2.98.8-6.53.8-1.34 0-2.6-.1-1.2-.1-2.24-.45.15-.8.3-1.6.2-.8.4-1.6.85.25 2.05.4 1.25.1 2.3.1 2.9 0 5.13-.65 2.3-.7 3.9-1.9t2.45-2.84q.85-1.7.85-3.74 0-2-.9-3.44-.85-1.5-2.35-2.45-1.5-.98-3.5-1.43-1.93-.5-4.18-.5-2.1 0-3.5.15-1.34.15-2.24.3z"/><path d="M1675.48 131.53q0-1.15.75-1.9.8-.8 1.94-.8 1.1 0 1.9.8.8.75.8 1.9t-.8 1.9q-.8.75-1.9.75-1.14 0-1.94-.75-.75-.75-.75-1.9z"/><path d="M1688.83 102q.3-.26 1.1-.7.8-.45 2-.9t2.73-.8q1.55-.35 3.35-.35 2.15 0 4.05.55 1.95.5 3.4 1.64 1.44 1.1 2.24 2.85.84 1.73.84 4.23 0 5.14-4.15 10.43-4.15 5.24-11.68 11.17l.2.35 16.1-.3v3.65h-22.2l-.5-1.75q5.25-4.3 8.74-7.68 3.55-3.45 5.7-6.2 2.14-2.78 3.04-4.98.94-2.25.94-4.1 0-3.28-1.94-4.93-1.9-1.66-5.04-1.66-1.5 0-2.9.35-1.4.34-2.54.84-1.1.5-1.95 1-.84.45-1.24.75z"/><path d="M1738.88 116.5q0 4.5-.9 7.9-.9 3.34-2.55 5.58-1.64 2.25-3.9 3.4-2.23 1.1-4.93 1.1-2.6 0-4.9-1.05-2.23-1.05-3.93-3.25-1.7-2.2-2.7-5.58-.94-3.4-.94-8.1 0-4.23.95-7.42 1-3.24 2.7-5.4 1.7-2.2 3.93-3.28 2.3-1.15 4.9-1.15 2.7 0 4.94 1.15 2.25 1.1 3.9 3.3 1.64 2.2 2.54 5.43.9 3.2.9 7.38zm-3.65-.1q0-3.18-.65-5.72-.6-2.6-1.8-4.4-1.14-1.8-2.8-2.74-1.58-1-3.58-1-1.8 0-3.4.9-1.54.85-2.74 2.6-1.14 1.7-1.84 4.34-.65 2.6-.65 6.03 0 3.9.7 6.75.75 2.8 1.94 4.6 1.26 1.8 2.86 2.63 1.64.85 3.4.85 4.13 0 6.33-3.9 2.23-3.93 2.23-10.92z"/><path d="M1757.63 116.2l11.17-16.85 2.45 1-11.93 16.6-11.72 17.43-2.45-1.05zm15.07 10.34q0 1.75-.55 3.2-.55 1.4-1.5 2.44-.9 1.05-2.14 1.65-1.24.55-2.64.55-1.45 0-2.7-.55-1.24-.6-2.2-1.65-.9-1.05-1.44-2.44-.5-1.45-.5-3.2 0-1.74.5-3.24.5-1.5 1.4-2.55.9-1.1 2.1-1.7 1.24-.64 2.7-.64 1.6 0 2.9.66 1.28.6 2.18 1.7.9 1.04 1.4 2.54.5 1.5.5 3.24zm-2.95-.05q0-2.5-1.05-4-1.04-1.5-2.84-1.5-1.7 0-2.8 1.55-1.1 1.55-1.1 3.94 0 2.4 1.1 3.88 1.15 1.45 2.95 1.45 1.6 0 2.65-1.45 1.1-1.44 1.1-3.9zm-12.42-19.02q0 1.75-.55 3.2-.55 1.4-1.5 2.44-.9 1.05-2.14 1.65-1.25.55-2.65.55-1.45 0-2.7-.55-1.25-.6-2.2-1.65-.9-1.05-1.44-2.44-.5-1.45-.5-3.2 0-1.74.5-3.24.5-1.5 1.4-2.55.9-1.1 2.1-1.7 1.24-.65 2.68-.65 1.6 0 2.9.65 1.3.6 2.2 1.7.9 1.04 1.4 2.54.5 1.5.5 3.24zm-2.95-.05q0-2.5-1.04-4-1.05-1.5-2.85-1.5-1.7 0-2.8 1.56-1.1 1.54-1.1 3.93 0 2.4 1.1 3.9 1.15 1.44 2.94 1.44 1.6 0 2.65-1.45 1.08-1.44 1.08-3.9z"/></g><g style="line-height:125%;-inkscape-font-specification:'Concourse T3, Light';font-variant-ligatures:normal;font-variant-caps:normal;font-variant-numeric:normal;font-feature-settings:normal;text-align:start" font-weight="300" font-size="49.895" font-family="Concourse T3" letter-spacing="0" word-spacing="0"><path d="M1637.54 31.83V1.2l-6.7.8-.3-3.25 9.74-1.25.85.6v33.73z"/><path d="M1672.68-1.5q-5.3 8.43-8.3 16.6-2.98 8.14-3.38 16.73h-4.2q.5-4.24 1.56-8.4 1.04-4.18 2.5-8.07 1.44-3.94 3.23-7.48 1.8-3.55 3.84-6.54l-.2-.25-16.87.3.35-3.5h20.96z"/><path d="M1675.38 29.53q0-1.15.75-1.9.8-.8 1.95-.8 1.1 0 1.9.8.8.75.8 1.9t-.8 1.9q-.8.75-1.9.75-1.15 0-1.95-.75-.75-.75-.75-1.9z"/><path d="M1711.88 14.5q0 4.5-.9 7.9-.9 3.34-2.54 5.58-1.65 2.25-3.9 3.4-2.24 1.1-4.93 1.1-2.6 0-4.88-1.05-2.25-1.05-3.94-3.25-1.7-2.2-2.7-5.58-.95-3.4-.95-8.1 0-4.23.95-7.42 1-3.24 2.7-5.4 1.7-2.2 3.94-3.28 2.3-1.15 4.9-1.15 2.68 0 4.93 1.15 2.24 1.1 3.9 3.3 1.63 2.2 2.53 5.43.9 3.2.9 7.38zm-3.64-.1q0-3.18-.65-5.72-.6-2.6-1.8-4.4-1.15-1.8-2.8-2.74-1.6-1-3.6-1-1.8 0-3.4.9-1.53.85-2.73 2.6-1.15 1.7-1.85 4.34-.64 2.6-.64 6.03 0 3.9.7 6.75.74 2.8 1.94 4.6 1.25 1.8 2.84 2.63 1.65.85 3.4.85 4.14 0 6.33-3.9 2.24-3.93 2.24-10.92z"/><path d="M1739.18 21.85h-4.2v9.98h-3.54v-9.98h-14.72l-.8-1.65 14.98-22.3h4.1v20.85l4.18-.1zm-7.74-3.05v-16h-.54l-10.33 15.65.25.45z"/><path d="M1757.63 14.2l11.17-16.85 2.45 1-11.93 16.6-11.72 17.43-2.45-1.05zm15.07 10.34q0 1.75-.55 3.2-.55 1.4-1.5 2.44-.9 1.05-2.14 1.65-1.24.55-2.64.55-1.45 0-2.7-.55-1.24-.6-2.2-1.65-.9-1.05-1.44-2.44-.5-1.45-.5-3.2 0-1.74.5-3.24.5-1.5 1.4-2.55.9-1.1 2.1-1.7 1.24-.64 2.7-.64 1.6 0 2.9.66 1.28.6 2.18 1.7.9 1.04 1.4 2.54.5 1.5.5 3.24zm-2.95-.05q0-2.5-1.05-4-1.04-1.5-2.84-1.5-1.7 0-2.8 1.55-1.1 1.55-1.1 3.94 0 2.4 1.1 3.88 1.15 1.45 2.95 1.45 1.6 0 2.65-1.45 1.1-1.44 1.1-3.9zm-12.42-19.02q0 1.75-.55 3.2-.55 1.4-1.5 2.44-.9 1.05-2.14 1.65-1.25.55-2.65.55-1.45 0-2.7-.55-1.25-.6-2.2-1.65-.9-1.05-1.44-2.44-.5-1.45-.5-3.2 0-1.74.5-3.24.5-1.5 1.4-2.55.9-1.1 2.1-1.7 1.24-.65 2.68-.65 1.6 0 2.9.65 1.3.6 2.2 1.7.9 1.04 1.4 2.54.5 1.5.5 3.24zm-2.95-.05q0-2.5-1.04-4-1.05-1.5-2.85-1.5-1.7 0-2.8 1.56-1.1 1.54-1.1 3.93 0 2.4 1.1 3.9 1.15 1.44 2.94 1.44 1.6 0 2.65-1.45 1.08-1.44 1.08-3.9z"/></g><g fill="#fff" style="line-height:125%;-inkscape-font-specification:'Concourse T8, Ultra-Bold';font-variant-ligatures:normal;font-variant-caps:normal;font-variant-numeric:normal;font-feature-settings:normal;text-align:start" font-weight="800" font-size="59.583" font-family="Concourse T8" letter-spacing="0" word-spacing="0"><path d="M1871.17 276.25q.66 1.73.96 3.28.36 1.6.36 3.75 0 2.33-.73 4.65-.7 2.32-2.26 4.17-1.48 1.9-3.87 3.1-2.38 1.2-5.72 1.2-3.44 0-6.06-1.56-2.63-1.5-4.35-3.87-1.74-2.38-2.64-5.36-.9-2.9-.9-5.83 0-4.95 1.38-8.4 1.37-3.46 3.64-5.66 2.32-2.14 5.36-3.15 3.04-1.02 6.37-1.02 6.2 0 10.92 2.7 4.7 2.67 7.86 7.08 3.22 4.47 4.9 10.14 1.72 5.72 1.9 11.8l-9.84-.9q-.06-2.86-.7-5.48-.6-2.62-1.62-4.77-1-2.15-2.26-3.76-1.26-1.55-2.5-2.33zm-11.08 7.15q2.26 0 3.4-1.25 1.12-1.25 1.12-3.16 0-1.2-.36-2.1-.35-.9-1-1.6-1.32-.48-2.7-.48-1.36 0-2.5.48-1.13.53-1.84 1.5-.72 1-.72 2.55 0 1.8 1.2 2.92 1.2 1.13 3.4 1.13z" style="-inkscape-font-specification:'Concourse T8, Ultra-Bold';font-variant-ligatures:normal;font-variant-caps:normal;font-variant-numeric:normal;font-feature-settings:normal;text-align:start"/><path d="M1854.43 304.1l.36.2q.53 3.2 1.3 5.95.83 2.8 1.9 4.9 1.08 2.07 2.33 3.32 1.3 1.3 2.74 1.55l.18-.24q-.66-1.2-1.07-3.03-.42-1.8-.42-4.3 0-2.2.72-4.52.7-2.33 2.2-4.3 1.5-1.9 3.8-3.15 2.34-1.2 5.55-1.2 2.7 0 5.25 1.14 2.56 1.13 4.53 3.28 2.03 2.2 3.22 5.3 1.25 3.16 1.25 7.15 0 4.83-1.43 8.22-1.37 3.4-3.7 5.54-2.3 2.22-5.4 3.23-3.1 1-6.5 1-5.96 0-10.3-1.9-4.36-1.9-7.46-5.36-3.04-3.4-5-8.22-1.97-4.82-3.1-10.72zm19.72 8.18q-2.26 0-3.4 1.25-1.12 1.25-1.12 3.16 0 2.2 1.43 3.74 1.13.42 2.5.42t2.5-.48q1.13-.48 1.9-1.5.78-.94.78-2.5 0-1.9-1.25-3.03-1.26-1.07-3.35-1.07z" style="-inkscape-font-specification:'Concourse T8, Ultra-Bold';font-variant-ligatures:normal;font-variant-caps:normal;font-variant-numeric:normal;font-feature-settings:normal;text-align:start"/><path d="M1852.88 339.48q1.37 0 2.56.48 1.26.54 2.15 1.43.88.88 1.42 2.08.54 1.25.54 2.62t-.54 2.56q-.54 1.25-1.43 2.15-.9.9-2.16 1.38-1.2.53-2.56.53-1.37 0-2.62-.52-1.2-.48-2.08-1.37-.9-.9-1.38-2.14-.53-1.2-.53-2.56 0-1.37.53-2.62.48-1.2 1.38-2.1.9-.88 2.08-1.42 1.25-.48 2.62-.48z" style="-inkscape-font-specification:'Concourse T8, Ultra-Bold';font-variant-ligatures:normal;font-variant-caps:normal;font-variant-numeric:normal;font-feature-settings:normal;text-align:start"/><path d="M1885.77 391.8q-9.7-6.15-19.42-9.78-9.65-3.58-19.5-3.88v-15.67q4.07.72 8.12 2.03 4.05 1.37 7.8 3.16 3.82 1.8 7.2 3.87 3.47 2.15 6.27 4.4l.48-.17-.54-17.04 11.2.6v31.46z" style="-inkscape-font-specification:'Concourse T8, Ultra-Bold';font-variant-ligatures:normal;font-variant-caps:normal;font-variant-numeric:normal;font-feature-settings:normal;text-align:start"/><path d="M1854.43 397.68l.36.18q.53 3.2 1.3 5.96.83 2.8 1.9 4.88 1.08 2.1 2.33 3.34 1.3 1.3 2.74 1.55l.18-.25q-.66-1.2-1.07-3.04-.42-1.78-.42-4.28 0-2.2.72-4.53.7-2.33 2.2-4.3 1.5-1.9 3.8-3.16 2.34-1.2 5.55-1.2 2.7 0 5.25 1.14 2.56 1.14 4.53 3.28 2.03 2.2 3.22 5.3 1.25 3.16 1.25 7.15 0 4.84-1.43 8.24-1.37 3.4-3.7 5.54-2.3 2.2-5.4 3.22-3.1 1-6.5 1-5.96 0-10.3-1.9-4.36-1.9-7.46-5.36-3.04-3.4-5-8.22-1.97-4.83-3.1-10.73zm19.72 8.16q-2.26 0-3.4 1.25-1.12 1.24-1.12 3.15 0 2.2 1.43 3.75 1.13.42 2.5.42t2.5-.48q1.13-.47 1.9-1.48.78-.96.78-2.5 0-1.9-1.25-3.05-1.26-1.06-3.35-1.06z" style="-inkscape-font-specification:'Concourse T8, Ultra-Bold';font-variant-ligatures:normal;font-variant-caps:normal;font-variant-numeric:normal;font-feature-settings:normal;text-align:start"/><path d="M1855.56 467.2q-2.08 0-3.8-.72-1.68-.66-2.93-1.85-1.25-1.13-1.97-2.74-.65-1.62-.65-3.4 0-1.86.66-3.46.72-1.6 1.97-2.8 1.25-1.14 2.92-1.8 1.73-.65 3.8-.65 2.1 0 3.9.65 1.77.65 3.03 1.78 1.3 1.14 2.02 2.7.78 1.54.78 3.38 0 2.04-.78 3.65-.7 1.67-2.02 2.8-1.26 1.2-3.04 1.78-1.8.66-3.88.66zm.06-6.15q1.97 0 3.16-.7 1.25-.67 1.25-1.86 0-1.14-1.25-1.86-1.25-.7-3.16-.7-1.9 0-3.04.7-1.13.78-1.13 2.03 0 .95 1.08 1.67 1.13.7 3.1.7zm22.7-11.62q-2.08 0-3.8-.7-1.68-.67-2.93-1.86-1.26-1.13-1.97-2.74-.66-1.6-.66-3.4 0-1.84.66-3.45.7-1.6 1.96-2.8 1.24-1.13 2.9-1.8 1.74-.64 3.82-.64 2.1 0 3.88.65 1.8.65 3.04 1.78 1.3 1.13 2.02 2.68.78 1.55.78 3.4 0 2.02-.78 3.63-.7 1.66-2.02 2.8-1.25 1.18-3.04 1.78-1.8.65-3.88.65zm.06-6.13q1.97 0 3.16-.72 1.25-.65 1.25-1.84 0-1.14-1.26-1.85-1.25-.73-3.16-.73-1.9 0-3.03.72-1.14.76-1.14 2 0 .97 1.1 1.68 1.12.72 3.08.72zm-11.2 4.4l20.44 15.2-1.85 3.58-19.9-15.9-19.48-14.43 1.95-3.58z" style="-inkscape-font-specification:'Concourse T8, Ultra-Bold';font-variant-ligatures:normal;font-variant-caps:normal;font-variant-numeric:normal;font-feature-settings:normal;text-align:start"/></g></g></g></svg>
