<svg xmlns="http://www.w3.org/2000/svg" width="1488" height="1297"><title>P1001-0-110301-001 R00.01 PS Logo</title><g><g transform="translate(0 244.638)"><rect width="1488" height="1296.272" y="-244.274" fill="#4c6c9c" ry="0"/><g fill="#1f2d41"><path d="M953.68 308.05l16.86 23.68 3.24-.65 1.32-14.8 1.12-16.4-1.92-9.7-5.2-1.25-7.2 7.2-12.8 4.17z"/><path d="M1301.13 204.05c-.83-2.36-1.78-4.68-2.67-7.03-3.2-8.5-6.55-16.95-10.14-25.37-1.6-3.8-3.26-7.54-4.95-11.28-1.24-2.75-2.35-5.54-3.65-8.3-3.2-6.85-6.58-13.63-10.04-20.32-.34-.67-.72-1.3-1.06-1.98-5.48-10.48-11.23-20.7-17.23-30.72-.4-.64-.76-1.3-1.15-1.93-6.45-10.66-13.2-21.02-20.23-31.14-.17-.23-.3-.47-.48-.7-44.37-63.8-99.92-116.78-162.65-157.54-.37-.24-.7-.46-1.07-.7-10.2-6.6-20.6-12.9-31.2-18.85-.86-.5-1.75-.97-2.64-1.46-10.35-5.76-20.84-11.22-31.5-16.34-1.03-.52-2.1-1-3.14-1.48-10.77-5.1-21.64-9.92-32.7-14.36-.68-.27-1.37-.5-2.06-.78-11.25-4.46-22.62-8.6-34.12-12.37-.43-.14-.84-.3-1.27-.43-11.9-3.88-23.95-7.36-36.12-10.47-.4-.1-.78-.25-1.2-.34 0 0 0 0 0 .02-47.56-12.16-96.73-18.46-146.36-18.46-3.56 0-7.13.22-10.7.28-2.33.03-4.68.12-7 .2-19.88.6-39.8 2.2-59.7 4.84-2.95.4-5.9.76-8.83 1.2-5.6.83-11.2 1.73-16.77 2.72-3.9.7-7.75 1.48-11.62 2.24-7 1.4-14.03 2.9-21.03 4.56-6.02 1.42-12 2.9-17.96 4.5-3.84 1.03-7.7 2.16-11.53 3.3-6.14 1.77-12.23 3.67-18.28 5.64-2.92.97-5.83 1.86-8.75 2.87-8.96 3.1-17.84 6.4-26.62 9.9-1.94.77-3.87 1.6-5.83 2.4-7.72 3.18-15.36 6.52-22.93 10-1.27.6-2.56 1.1-3.85 1.7-.8.37-1.57.8-2.37 1.2-8.18 3.9-16.3 7.9-24.27 12.15-1.54.82-3.02 1.7-4.55 2.54-6.12 3.32-12.18 6.75-18.2 10.3-3.63 2.16-7.22 4.37-10.82 6.6-3.56 2.2-7.12 4.46-10.64 6.76-4.23 2.75-8.45 5.5-12.6 8.34-1.97 1.36-3.9 2.77-5.87 4.16-16.47 11.57-32.2 23.9-47.2 36.9-1.02.9-2.06 1.8-3.08 2.7-5.1 4.5-10.1 9.04-15.03 13.67-.6.55-1.2 1.14-1.8 1.7C320.4-10.33 306 4.93 292.5 20.85c-1.1 1.32-2.24 2.6-3.34 3.92-3.7 4.44-7.28 8.93-10.85 13.47-1.8 2.3-3.62 4.64-5.4 6.98-3.2 4.2-6.34 8.4-9.4 12.68-2.14 2.96-4.2 6-6.3 9-2.7 3.92-5.44 7.8-8.06 11.8-4.38 6.65-8.63 13.4-12.75 20.27-1.74 2.9-3.36 5.86-5.04 8.8-2.72 4.7-5.4 9.4-8 14.2-1.74 3.2-3.4 6.42-5.07 9.66-2.4 4.65-4.75 9.33-7.05 14.05-1.56 3.25-3.1 6.5-4.6 9.77-2.3 4.94-4.5 9.93-6.65 14.93-1.3 3.08-2.6 6.13-3.88 9.2-.47 1.16-.98 2.28-1.45 3.42.06-.08.15-.18.23-.26-18.54 46.08-31.32 94.4-37.9 143.85 0 0 0 0-.02 0-.25 1.84-.34 3.7-.57 5.54-1.08 8.8-2.02 17.65-2.72 26.5-.2 2.56-.27 5.1-.44 7.64-.55 8.38-.97 16.78-1.16 25.22-.05 2.4-.02 4.78-.04 7.17-.08 8.58 0 17.15.27 25.75.1 2.18.22 4.34.3 6.52.4 8.8.98 17.57 1.78 26.38.17 1.97.38 3.92.57 5.9.9 8.88 2 17.76 3.3 26.64.27 1.9.55 3.78.85 5.68 1.37 8.76 2.96 17.5 4.74 26.25.4 2 .8 4.03 1.23 6.03 1.8 8.35 3.8 16.7 5.97 25 .62 2.37 1.2 4.74 1.85 7.1 2.07 7.63 4.38 15.2 6.78 22.78.95 3 1.85 6.02 2.85 9 2.24 6.64 4.67 13.2 7.15 19.8 1.42 3.78 2.77 7.6 4.27 11.34 2.26 5.67 4.73 11.3 7.18 16.93 1.93 4.45 3.78 8.9 5.8 13.3.4.87.76 1.77 1.17 2.65 3.63 7.72 7.43 15.3 11.35 22.76.82 1.58 1.7 3.12 2.52 4.7 4.34 8.1 8.83 16.06 13.48 23.9.54.88 1.05 1.8 1.58 2.7 5.56 9.24 11.36 18.27 17.35 27.12 0 0 0 .03.02.03C366.18 901.54 551.73 996 744.32 996c84.35 0 170-18.1 251.4-56.35 278.76-131 407.67-451.5 305.4-735.62zm-315.5 714.2c-76.4 35.88-157.57 54.08-241.3 54.08-174.47 0-337.9-81.14-444.45-214.13-1.52-4-3.04-7.97-4.55-11.96 6.52.78 13.06 1.55 19.57 2.33 3.6-1.1 7.16-2.18 10.72-3.27 1.25-7.75 2.5-15.54 3.74-23.32-.94-9.3-1.86-18.63-2.8-27.96-1.72-4.5-3.42-9-5.14-13.53 2.34-1.55 4.68-3.1 7-4.67 1.1-4.35 2.18-8.7 3.25-13.06 3.43-2.33 6.85-4.66 10.26-7 .48-7.9.94-15.85 1.4-23.77-2.02-4.5-4.04-9.02-6.06-13.54-4.5-2.47-9-4.96-13.53-7.45-4.5-7.75-9-15.53-13.52-23.3-6.07-3.42-12.12-6.84-18.18-10.26-7.15-4.35-14.3-8.7-21.45-13.06-4.06-7.3-8.1-14.6-12.14-21.93-5.9-7.44-11.8-14.9-17.7-22.37 0-7.15 0-14.3 0-21.45-2.03-6.53-4.05-13.07-6.08-19.58-5.6-8.55-11.18-17.1-16.78-25.65-4.04-10.1-8.1-20.2-12.1-30.3-1.57-10.26-3.13-20.5-4.68-30.78-1.72-6.66-3.42-13.36-5.13-20.04-5.4-11.5-10.8-22.97-16.18-34.48 2.54-21.3 6.3-42.4 11.17-63.2l6.5 18.4 9.48 14.07 7.33 3.98-8.25-18.04-6.08-21.35-.3-20.2-.8-6.67c14.6-49.96 35.9-97.86 63.54-142.2 4.6-3.4 9.16-6.78 13.73-10.17 5.7-5.3 11.43-10.6 17.13-15.9 8.46-3.26 16.94-6.52 25.4-9.78 4.7-1.94 9.38-3.87 14.07-5.8.5 3.24 1.02 6.52 1.52 9.78 4.7.1 9.4.2 14.08.3 6.73-2.24 13.46-4.5 20.2-6.73-6.22-2.24-12.46-4.5-18.66-6.72 4.07-3.68 8.15-7.34 12.22-11.02 3.26-3.37 6.53-6.73 9.8-10.1-1.45-3.57-2.87-7.14-4.3-10.7 3.87-.4 7.76-.82 11.63-1.23 4.38 4.1 8.76 8.15 13.14 12.23 4.58-.1 9.17-.2 13.76-.3 4.2-.2 8.36-.4 12.56-.6 3.04-5.42 6.1-10.82 9.15-16.22 2.14-7.65 4.28-15.3 6.43-22.94 10-12.24 19.98-24.47 29.98-36.72-7.05 1.84-14.07 3.7-21.1 5.5 5.18-6.5 10.4-13.04 15.58-19.56 3.58-5.7 7.14-11.42 10.7-17.13-5.9 2.66-11.83 5.3-17.73 7.96-8.56 6.53-17.12 13.07-25.68 19.58-6.65 3.06-13.27 6.12-19.9 9.17-9.27 3.7-18.54 7.35-27.84 11.03 8.67-7.46 17.34-14.9 26-22.34 2.22-3.58 4.43-7.16 6.64-10.72 22.35-16.15 46.1-30.85 71.24-43.9 4.02.47 8.04.93 12.06 1.4.52 4.27 1.02 8.56 1.54 12.85-3.26 5.6-6.54 11.2-9.8 16.82-2.64 4.67-5.28 9.36-7.94 14.05 7.44.1 14.9.22 22.33.3 7.95-4.18 15.9-8.36 23.86-12.54 9.2-4.27 18.36-8.56 27.54-12.84 8.16-3.58 16.3-7.14 24.47-10.7-3.15-1.85-6.3-3.68-9.47-5.5-.3-3.18-.62-6.33-.9-9.5 3.44-3.97 6.9-7.95 10.38-11.93 1.83-3.98 3.68-7.95 5.52-11.93 2.75 2.45 5.5 4.9 8.25 7.34 1.32-1.73 2.65-3.47 3.98-5.2 3.17 1.02 6.32 2.05 9.5 3.06 5.6.5 11.2 1.02 16.8 1.53-3.76 5-7.54 10-11.3 15-2.15 2.45-4.28 4.9-6.43 7.34-4.28 5.1-8.57 10.2-12.86 15.3-6.8 5.9-13.65 11.82-20.48 17.73-4.48 1.43-8.97 2.85-13.46 4.3-4.68 4.77-9.38 9.57-14.07 14.37-4.7 2.43-9.37 4.88-14.06 7.34-4.9 4.9-9.8 9.8-14.7 14.68-2.34 3.87-4.68 7.74-7.03 11.62 1.23 1.23 2.45 2.45 3.68 3.7-.9 2.93-1.84 5.9-2.75 8.84 3.02 1.55 6.04 3.1 9.06 4.64 3.16-2.65 6.33-5.3 9.5-7.94 4.37-2.75 8.75-5.5 13.13-8.26 5.18-3.17 10.4-6.32 15.6-9.5 5.5-.6 11-1.22 16.5-1.82 6.66-2.24 13.26-4.5 19.9-6.73 3.36-2.14 6.72-4.27 10.1-6.4 3.36.8 6.72 1.62 10.1 2.42 8.46-1.3 16.94-2.65 25.4-3.98 3.36-2.33 6.72-4.7 10.1-7.03 4.07-4.18 8.15-8.36 12.23-12.54 5.9-5.5 11.83-11 17.74-16.52 3.36-3.7 6.73-7.35 10.1-11.03 4.5-4.18 8.98-8.36 13.46-12.54 3.57-1.4 7.15-2.84 10.7-4.26-2.28-4.38-4.54-8.75-6.78-13.14 4.6 2.34 9.17 4.7 13.77 7.05 8.25 1.3 16.52 2.65 24.77 3.96 7.95-.2 15.9-.4 23.86-.6 10-1.73 19.98-3.46 29.97-5.2 2.55-3.25 5.1-6.52 7.65-9.77 5.62 1.42 11.2 2.84 16.83 4.28 2.66-.2 5.3-.4 7.97-.62-.52-4.17-1.03-8.35-1.54-12.54 3.25-2.14 6.52-4.28 9.8-6.43 4.78-1.7 9.58-3.46 14.37-5.17 5.6.2 11.22.4 16.83.6.27-2.46.58-4.94.86-7.4-.45-.4-.92-.8-1.37-1.18 10.82 2.44 21.56 5.2 32.2 8.27-.42 1.72-.85 3.47-1.27 5.2-2.8-1.65-5.62-3.3-8.42-4.96-5.45 1.16-10.9 2.3-16.36 3.47 1.5 4.14 2.97 8.26 4.46 12.4 6.7 6.84 13.38 13.7 20.07 20.56-.25 5.68-.48 11.4-.74 17.08 4.7 3.7 9.42 7.44 14.1 11.15-3.45 5.7-6.92 11.4-10.4 17.08 2.23.43 4.47.84 6.7 1.24 2.06 2.4 4.13 4.8 6.18 7.2-5.94 1.72-11.9 3.46-17.84 5.18-2.07 5.05-4.13 10.1-6.2 15.1-2.05 1.6-4.12 3.16-6.17 4.73-3.14 2.14-6.28 4.3-9.42 6.43-2.48-1.9-4.95-3.8-7.43-5.7-2-1.56-3.96-3.14-5.95-4.7-3.46-1.07-6.93-2.14-10.4-3.2-5.2-.42-10.4-.83-15.6-1.24-2.73-.4-5.46-.82-8.18-1.23-1.58-.24-3.14-.5-4.7-.74-1.82-1.66-3.64-3.3-5.45-4.96-3.16 0-6.28 0-9.43 0-3.47.66-6.94 1.3-10.4 1.98-3.8 1-7.6 2-11.4 2.98-2.65 3.3-5.28 6.6-7.93 9.9-1.66 3.72-3.3 7.44-4.95 11.15-2.1 2.82-4.16 5.63-6.2 8.44-3.23 3.4-6.45 6.77-9.67 10.14-3.06 2-6.1 3.97-9.17 5.96-3.3 3.87-6.6 7.76-9.9 11.63-3.57 3.22-7.12 6.45-10.67 9.67-.58 3.13-1.17 6.28-1.74 9.4.25 2.5.48 4.96.75 7.45.67 2.38 1.32 4.77 1.98 7.17 1.17 1.98 2.3 3.97 3.47 5.94 1.73.93 3.47 1.82 5.2 2.74 2.98-1.4 5.95-2.8 8.92-4.2.17-2.08.33-4.14.5-6.2 3.97-.9 7.93-1.8 11.9-2.72.17 1.48.32 2.97.5 4.46 1.8 3.3 3.64 6.6 5.45 9.92 1.4 2.3 2.8 4.63 4.2 6.93-.25 1.4-.5 2.8-.74 4.2.16 2.08.32 4.14.48 6.2 2.9.4 5.78.82 8.67 1.23 1.73-1.5 3.47-2.97 5.2-4.46 2.97-2.06 5.95-4.14 8.92-6.2-.9-2.64-1.82-5.28-2.7-7.92-.35-2.65-.67-5.28-1-7.93 4.36-1.82 8.74-3.64 13.13-5.45-1.58-2.4-3.16-4.8-4.72-7.18-2.98-1.73-5.94-3.47-8.92-5.2.18-5.28.33-10.57.5-15.86 3.55-2.88 7.1-5.77 10.65-8.67 1.06-3.22 2.14-6.44 3.2-9.67 1.57-2.56 3.15-5.12 4.7-7.68 3.8.1 7.6.2 11.4.25.58 2.8 1.17 5.62 1.73 8.42-3.2 2.56-6.44 5.14-9.66 7.68-.98 3.15-1.98 6.28-2.97 9.4 1.67 3.98 3.3 7.95 4.96 11.92 1.57 2.3 3.14 4.63 4.7 6.93 4.46-.24 8.93-.5 13.4-.74 2.2-2.3 4.43-4.62 6.66-6.92 5.05 1.15 10.1 2.3 15.1 3.46-.07 1.25-.15 2.5-.24 3.72-1.97 1.08-3.96 2.14-5.94 3.2-4.13 1.5-8.25 2.98-12.4 4.48-2.97.74-5.94 1.48-8.92 2.22-1.48 2.64-2.97 5.28-4.45 7.93 1.07 1.22 2.14 2.46 3.2 3.7-1.88.67-3.78 1.32-5.7 1.98.6 3.9 1.17 7.76 1.74 11.64 1.5 2.48 2.98 4.96 4.48 7.44-3.47 2.3-6.94 4.63-10.4 6.94-2.08.48-4.15.98-6.2 1.48-1.3-1.16-2.65-2.3-3.96-3.47-1 .68-1.98 1.32-2.98 2-2.07 1.4-4.13 2.8-6.2 4.2-2.22 1.07-4.44 2.16-6.67 3.2-.82 1.83-1.66 3.65-2.5 5.47-1.88-1.67-3.77-3.3-5.67-4.96-1.23-1.97-2.48-3.96-3.72-5.94-1.48 1.48-2.97 2.98-4.45 4.47-4.05-.33-8.1-.68-12.14-1-1.4-2.22-2.83-4.46-4.23-6.7.82-2.7 1.66-5.44 2.47-8.15 1.08-2.4 2.16-4.8 3.23-7.2-1.74-2.54-3.47-5.1-5.2-7.66-1.92 1.66-3.82 3.3-5.7 4.95-2 2.23-3.98 4.47-5.95 6.7 1.23 4.2 2.47 8.4 3.7 12.63.17 2.87.34 5.77.5 8.67-2.47.9-4.96 1.8-7.44 2.7-3.14 0-6.26 0-9.4 0-1.9 1.33-3.8 2.66-5.7 3.97-1.67 2.72-3.3 5.46-4.96 8.18-2.23 1.9-4.47 3.8-6.68 5.7-3.88 1.4-7.77 2.8-11.64 4.2-.25 1.98-.5 3.96-.74 5.95-2.9 1.65-5.8 3.28-8.67 4.95-.25 1.16-.5 2.32-.75 3.47-4.2-.5-8.42-1-12.63-1.5-.5 1.9-1 3.8-1.5 5.7-1.56.58-3.13 1.16-4.7 1.72-3.14-1.15-6.27-2.3-9.4-3.46-2.73 1.4-5.46 2.8-8.17 4.2 1.23 1.4 2.47 2.8 3.7 4.2 4.22 1.57 8.44 3.15 12.63 4.7.6 2.57 1.17 5.13 1.74 7.7 1.5 1.47 2.97 2.97 4.46 4.45-.4 1.74-.83 3.47-1.25 5.2-.74 4.88-1.48 9.74-2.22 14.63-1.72 1.97-3.46 3.96-5.2 5.94-4.37.17-8.74.33-13.12.5-6.68-1.33-13.4-2.66-20.06-3.98-4.05.4-8.1.8-12.14 1.23-2.32 2.98-4.63 5.95-6.95 8.93-3.2 4.2-6.43 8.42-9.65 12.62.42 3.64.82 7.27 1.23 10.9-.9 3.22-1.8 6.44-2.7 9.66 1.07 3.46 2.15 6.95 3.22 10.42 1.9 1.9 3.78 3.8 5.68 5.68 3.55.9 7.12 1.8 10.65 2.72.1 2.98.17 5.95.25 8.93 1.48.9 2.96 1.8 4.46 2.7 3.05-1.4 6.1-2.8 9.16-4.2 6.77-.08 13.54-.15 20.32-.23 1.57-1 3.13-2 4.7-3 2.72-1.9 5.45-3.78 8.17-5.67 1.6-1.67 3.16-3.3 4.7-4.97-1.15-3.07-2.3-6.1-3.45-9.16.57-3.06 1.16-6.1 1.73-9.16 2.98-3.37 5.95-6.76 8.93-10.15 3.97-1.32 7.94-2.64 11.9-3.97 2.06-3.14 4.14-6.27 6.2-9.4.4-2.16.8-4.3 1.22-6.45 3.38-.82 6.77-1.65 10.16-2.48 3.4 1.08 6.76 2.16 10.15 3.22 5.5-2.08 10.98-4.15 16.47-6.22 4-1.2 8.03-2.4 12.05-3.6 2.14.93 4.27 1.86 6.42 2.8.93 2.2 1.87 4.42 2.8 6.63 2.7 2.8 5.35 5.6 8.04 8.43 2.4 2.35 4.82 4.7 7.23 7.04 3.62 1.53 7.22 3.07 10.83 4.6 3 1.62 6.03 3.23 9.04 4.84 2.2 1.73 4.4 3.46 6.63 5.2 1.4 2.34 2.8 4.68 4.2 7.03-.2 2.08-.4 4.15-.6 6.22-.74 1.48-1.47 2.96-2.22 4.42.9 1.4 1.74 2.8 2.63 4.2 1.2-1.2 2.4-2.4 3.62-3.6 1.4-1.95 2.8-3.88 4.2-5.82.62-1.28 1.22-2.54 1.8-3.83-.74-1.26-1.47-2.54-2.2-3.8-1.14-1.14-2.28-2.28-3.42-3.42.68-1 1.35-2 2-3 .55-.8 1.1-1.62 1.62-2.42 1.87 1.22 3.74 2.4 5.62 3.62.8 1.14 1.6 2.28 2.4 3.4 1.1-.8 2.15-1.6 3.22-2.4-1.95-2-3.9-4-5.83-6.02-2.4-1.67-4.82-3.34-7.22-5.02-2.4-1.8-4.82-3.6-7.23-5.42-1.25.08-2.54.14-3.8.2-2.68-.8-5.35-1.6-8.03-2.4-1.7-2.14-3.36-4.27-5.03-6.43-1.48-2.82-2.95-5.62-4.4-8.43-2.16-1-4.3-2-6.44-3.02-1.26-2.26-2.54-4.55-3.8-6.8.38-.88.78-1.75 1.2-2.63-.68-1.32-1.34-2.68-2-4 .8-1.02 1.6-2.02 2.4-3.03 2.28-.54 4.55-1.08 6.8-1.6 1.9 1.32 3.76 2.67 5.65 4 1.47 1.94 2.93 3.88 4.4 5.82 1.6 2.08 3.22 4.15 4.83 6.2 1.8 1.5 3.62 2.96 5.42 4.42 2.14.75 4.27 1.48 6.43 2.22 1.14 1.4 2.26 2.82 3.4 4.2 3.75.88 7.5 1.74 11.24 2.63 2 2.95 4 5.87 6 8.8-.66 2.44-1.32 4.83-2 7.23 1.8 1.88 3.62 3.75 5.42 5.64 2.74 2.07 5.5 4.16 8.22 6.2 3.63.55 7.23 1.08 10.84 1.62 1.28 2.32 2.55 4.67 3.82 7.02 4.88 2.14 9.77 4.27 14.64 6.42.87-1.94 1.75-3.87 2.62-5.83-3.02-2.06-6.03-4.14-9.03-6.2-1.2-2.08-2.42-4.15-3.63-6.2-.8-1.96-1.6-3.9-2.4-5.83 2.2-2.55 4.42-5.08 6.63-7.63 3.15-.27 6.27-.54 9.42-.8 2.82 0 5.63 0 8.44 0 2.93-1.2 5.87-2.42 8.83-3.6 1.27-1.37 2.56-2.7 3.84-4.03-2.68-5.37-5.38-10.73-8.07-16.12 4.42-1.9 8.83-3.82 13.24-5.74 5.75-4.22 11.52-8.44 17.28-12.67 4.2.4 8.44.78 12.65 1.17 3.46-2.7 6.9-5.38 10.36-8.07 5.18.38 10.36.76 15.54 1.17 5.37 2.5 10.75 4.98 16.12 7.47 4.02 2.5 8.06 5 12.08 7.5 0 3.45 0 6.9 0 10.37-3.25 1.32-6.52 2.7-9.77 4.02-4.4.94-8.83 1.9-13.24 2.87-4.6-1.73-9.2-3.45-13.8-5.2-5.4-.38-10.75-.75-16.13-1.13-3.25 2.86-6.52 5.74-9.78 8.6-3.82 1.18-7.67 2.3-11.5 3.48-4.05 2.1-8.08 4.2-12.1 6.33-4.6 2.1-9.2 4.22-13.8 6.32.37 3.84.75 7.68 1.14 11.52 4.03 3.84 8.05 7.66 12.08 11.5 4.22 5 8.44 9.98 12.66 14.98 3.65-.96 7.3-1.92 10.94-2.88 1.33-2.3 2.7-4.6 4.03-6.92 2.5 1.94 5 3.85 7.5 5.77 5.2-.76 10.36-1.55 15.53-2.3 1.73-2.3 3.46-4.6 5.2-6.9 5.36.37 10.73.76 16.1 1.15-.45 3-.9 6.02-1.35 9.02-.18 7.94-.34 15.86-.5 23.8.66 5.45 1.32 10.9 1.98 16.34 1.73.4 3.47.83 5.2 1.25 1.3 4.96 2.65 9.9 3.96 14.88-.74 2.96-1.5 5.94-2.22 8.9.4 4.4.82 8.8 1.24 13.18 1.92 1.35 3.84 2.7 5.76 4.03 4.03 4.8 8.05 9.6 12.1 14.4 3.44 4.98 6.9 9.96 10.34 14.95 2.5 1.54 5 3.08 7.48 4.6 2.9 5.97 5.76 11.92 8.63 17.86 2.9 4.24 5.77 8.46 8.64 12.66 3.82 1.54 7.65 3.07 11.5 4.63 2.12 3.8 4.22 7.65 6.33 11.5 4.4 4.6 8.83 9.2 13.24 13.82 5.8 14.1 11.58 28.22 17.37 42.35 10-7.3 19.95-14.58 29.93-21.9 8.06-7.65 16.1-15.33 24.17-23 2.7-2.7 5.36-5.38 8.06-8.06.38-4.02.76-8.05 1.15-12.1 3.66-3.43 7.3-6.88 10.95-10.33 2.5-2.3 5-4.63 7.48-6.9.96-4.62 1.92-9.22 2.88-13.83 2.3-1.92 4.6-3.84 6.9-5.75-1.33-4.05-2.7-8.07-4.04-12.1 1.94-4.8 3.84-9.6 5.76-14.4.77-4.03 1.54-8.06 2.3-12.1-4.03-2.87-8.06-5.75-12.1-8.63-3.06.6-6.14 1.18-9.2 1.73-2.5-1.73-4.98-3.45-7.48-5.18-2.5-5.75-4.98-11.53-7.5-17.27-1.7 5.74-3.44 11.52-5.17 17.27-1.92 3.64-3.84 7.28-5.76 10.94-3.25 1.73-6.53 3.44-9.77 5.18-1.93-.76-3.85-1.53-5.75-2.3-.2-2.5-.4-4.98-.6-7.5-.94-3.25-1.9-6.5-2.86-9.77-1.35.96-2.7 1.93-4.04 2.88 0 2.7 0 5.37 0 8.06-1.73-2.1-3.46-4.2-5.18-6.32-2.7-3.25-5.4-6.53-8.07-9.77-4.78-4.4-9.58-8.83-14.38-13.23-.76-3.84-1.54-7.68-2.3-11.52 3.45-1.93 6.9-3.85 10.36-5.76 4.22 4.2 8.45 8.43 12.67 12.65 1.73 2.5 3.44 5 5.17 7.5 2.3-.2 4.62-.4 6.9-.6 3.47 1.93 6.92 3.84 10.37 5.76 2.3 0 4.6 0 6.9 0 3.07-3.82 6.14-7.65 9.2-11.5 1.9-.2 3.85-.38 5.76-.58 1.9 4.03 3.82 8.07 5.75 12.1 7.68-2.3 15.36-4.6 23.03-6.9 5.36-2.9 10.74-5.77 16.1-8.64 3.66-2.3 7.3-4.6 10.95-6.9.4-.2.76-.4 1.16-.6 3.82 3.66 7.67 7.3 11.5 10.95 4.03 1.34 8.07 2.7 12.1 4.04 2.87-2.32 5.74-4.62 8.62-6.92 3.84 4.04 7.68 8.08 11.53 12.1 4.6 10.73 9.2 21.47 13.8 32.22 4.22 7.88 8.44 15.73 12.66 23.6 4.8 8.45 9.6 16.9 14.38 25.33 2.7 8.25 5.38 16.5 8.07 24.75 1.17-8.43 2.3-16.88 3.47-25.32-.4-13.43-.76-26.88-1.16-40.3-2.87-5.57-5.75-11.12-8.63-16.67 1.34-9.22 2.7-18.44 4.03-27.63-1.54-11.33-3.08-22.66-4.6-33.97-.6-6.33-1.16-12.66-1.73-19 1.05-3.15 2.1-6.3 3.15-9.45 84.92 267.36-39.3 563.58-299.88 686.04z"/><path d="M653.17-1.46l-4.9-11.93-8.54-.6-10.42-1.22-11.3-1.55-5.5 4.6 3.06 5.5-4 6.44 5.2 4.27 12.25 1.54 11.33-3.06z"/><path d="M631.92 112.1l11.05-2.8 7.02-2.02 5-6.82 2.6-7.62 3.63-4.2-4.8-9.06-8.44-1.4-4.83 8.23-5.22 2.02-1 7.23-3.22 2.42-.6 3.6-3.6 2.82-.8 6.2z"/><path d="M654.4 127.77l7.22-3.02 4.02 1.2 7.22-3.6h12.26l12.64-1.2 3.6-3.23-2.4-4.22 5.42-5-6.22-5.03-4.6-6.82-3.03-7.04-4-4.58-.4-4.63-5.22-4.63.8-5.42 5.22-3.8 1-7.23-.4-9.02-23.48 1.8-2.8 11.03 1.6 9.44 2.4 8.82 6.63 5.22 4.22 8.03-5.83 4.4h-4.03l.4 8.03-4.6 2.22-2 3.42 3.4 4.4z"/><path d="M1063.84 803.32l16.52-7.36 8.86-14.05 14.4-25.38 11-21.4 11.3-21.12-1.2-29.66-8.28 14.97h-2.75l-3.67 6.76-9.5 11.6-11 9.18-10.4 5.82-1.84 6.72-4 4.9 1.86 10.7-2.14 8.28-5.82 5.8-6.42 8.87-4.9 7.05 2.76 4.58-3.07 7.35z"/><path d="M841.4 898.47l-14.04-8.78 1.74-7.03-11.4-21.93-7-.88-8.8-36.83-23.68-35.98 2.64-23.68 20.17-25.44-8.77-19.3 3.5-13.17-14.04-21.93-29.83-39.48 10.53-38.6-11.4-17.54-29.83.87-9.66-4.36-12.28-17.55-51.76 9.65-11.4 6.14-16.67-7-41.24 7-41.24-37.72-28.94-19.3-23.68-8.77 14.9-48.26 14.03-33.35-4.38-34.2 9.64-22.82 14.04-10.53 2.62-14.02L553.62 337l32.47-15.78 9.64-32.48 17.56-10.5 14.02-13.17 12.3 7 14.9 3.53 18.42-7.9 21.06-8.77h30.7l21.06 3.5 11.4-6.14 13.16 3.5-8.77 25.43 7.9 7.03 32.45 12.28 13.18 9.65 23.68 7.9 10.52-6.15-2.62-11.4 6.13-8.8 32.45 7.03 35.97 3.5 14.9-1.74 17.56 3.5 31.6 53.53 11.4 17.55 10.5 7 11.4 30.7 13.18 9.66 12.3 20.17 16.65 13.18 20.2 18.4 7 9.66 8.78-7.9 12.28-1.76 7.9-9.65 21.05-14.93v35.1l-18.4 49.13-31.6 46.5-35.1 44.74-7.88 29.82 5.25 34.22 1.77 40.35-22.82 20.18-22.8 14.06-14.04 14.02 3.52 21.94-6.16 11.4-26.3 13.15-3.52 15.82-17.54 14-29.83 24.57-27.2 13.15-27.18 11.42z"/><path d="M802.77 244.9l-10.55 3.9-8.7 1.3-1.1 4.6 12.4 4.45 6.47 2.24 4.6-5.1-2.16-4.9"/><path d="M923.8 267.86l7.4-2.6 6.84-3.87 8.14-6.7v2.8l-2.4 2.96-1.12 3.52 1.48 1.66 2.04 3.32-2.6 2.23-4.06 1.84L935 276h-11.2l-2.6-2.96"/><path d="M742.68 214.58l-2.24 3.44 1.1 3.45 3.56 2.85v-2.65l1.03-4.86"/></g><path fill="#1f2d41" fill-rule="evenodd" stroke="#4c6c9c" stroke-width="25" d="M519.66-195.1l-84.06 84.06-36.75-36.74L282.47-31.02 241.87 9.6 122.52 204.44l12.18 63.32L358.24 44.22l105.85 105.12-222.02 222 63.32 12.18L500.2 264.2l16.5-16.5 222.94 222.93 13.93-13.9 517.34 517.34 18.8-18.8 47.03 47v-37.6l-28.2-28.2 56.4-56.43-517.2-517.2L876 334.7 533.86-12.74l85.08-85.07-31.66-6.1-97.42 59.66-19.3 19.3-22.8-22.8 18.3-18.3 59.67-97.4z"/><rect width="1417.093" height="1225.2" x="35.453" y="-208.738" fill="none" stroke="#fff" stroke-width="21.326" ry="0"/><g fill="#fff" style="line-height:0%;-inkscape-font-specification:'Concourse C7, Bold';text-align:start" font-weight="bold" font-family="Concourse C7" letter-spacing="0" word-spacing="0" font-size="230.254"><path d="M279.5 281.58q0 11.5-4.6 21.18-4.38 9.68-12.44 16.8-7.83 7.15-19.1 11.3-11.06 3.9-24.42 3.9H204.9v50.43h-43.3V228.6h57.57q28.32 0 44.2 13.6 16.13 13.34 16.13 39.36zm-43.75 0q0-9.2-6-13.8-5.74-4.62-14.5-4.62H204.9v38h10.36q3.68 0 7.37-1.16 3.68-1.38 6.44-3.68 3-2.53 4.84-6.22 1.85-3.68 1.85-8.52z" style="line-height:1.25"/><path d="M387.28 339.37l34.08 43.98v1.84h-48.13l-28.78-41.45h-1.84v41.44h-41.44V265.45h55.5q11.28 0 20.5 3 9.43 3 16.1 8.52 6.68 5.3 10.37 12.9 3.9 7.6 3.9 17.03 0 12.2-5.74 20.04-5.77 7.6-14.52 11.5zm-23.03-30.16q0-5.97-3.68-8.74-3.45-2.76-7.37-2.76h-10.6v22.33h10.83q4.84 0 7.83-3 3-2.98 3-7.82z" style="line-height:1.25"/><path d="M524.25 370.23h-38.68l-5.53 14.96h-45.6l52.05-119.74h36.83l52.5 119.73h-45.6zM492.95 341h23.24l-10.83-29.72h-.92z" style="line-height:1.25"/><path d="M691.05 342.83l12.66 30.62q-8.74 7.14-20.94 11.28-11.98 3.92-25.1 3.92-16.35 0-29-4.84-12.68-4.82-21.43-13.1-8.75-8.53-13.35-19.58-4.6-11.28-4.6-23.95 0-15.43 5.52-27.4 5.76-12.2 14.97-20.5 9.44-8.5 21.64-12.88 12.2-4.4 25.57-4.4 15.2 0 26.48 4.4 11.5 4.13 19.57 10.12l-12.66 31.77h-1.16q-4.83-3.7-12.43-6.92-7.37-3.22-15.66-3-5.74 0-10.8 1.62-5.07 1.6-9 5.07-3.9 3.22-6.2 8.3-2.3 5.05-2.3 12.2 0 6.44 2.06 11.5 2.3 4.84 6 8.3 3.9 3.45 8.74 5.3 5.07 1.6 10.82 1.6 8.75 0 15.9-2.53 7.13-2.54 13.58-6.9z" style="line-height:1.25"/><path d="M802.97 300v85.2h-42.6V300h-35.92v-34.54h114.2V300z" style="line-height:1.25"/><path d="M912.7 385.2h-43.74V265.45h43.75z" style="line-height:1.25"/><path d="M1043.18 342.83l12.66 30.62q-8.75 7.14-20.95 11.28-12 3.92-25.1 3.92-16.36 0-29.02-4.84-12.67-4.82-21.42-13.1-8.75-8.53-13.35-19.58-4.6-11.28-4.6-23.95 0-15.43 5.53-27.4 5.76-12.2 14.97-20.5 9.44-8.5 21.64-12.88 12.2-4.4 25.56-4.4 15.2 0 26.48 4.4 11.5 4.13 19.57 10.12l-12.66 31.77h-1.17q-4.83-3.7-12.43-6.92-7.37-3.22-15.66-3-5.75 0-10.82 1.62-5.06 1.6-8.98 5.07-3.9 3.22-6.22 8.3-2.3 5.05-2.3 12.2 0 6.44 2.07 11.5 2.3 4.84 5.98 8.3 3.92 3.45 8.75 5.3 5.07 1.6 10.82 1.6 8.75 0 15.9-2.53 7.13-2.54 13.58-6.9z" style="line-height:1.25"/><path d="M1161.95 370.23h-38.68l-5.53 14.96h-45.6l52.05-119.74h36.83l52.5 119.73h-45.6zm-31.3-29.24h23.24l-10.83-29.72h-.92z" style="line-height:1.25"/><path d="M1278.73 350.66h47.66v34.53h-90.27V265.45h42.6z" style="line-height:1.25"/></g><g fill="#fff" style="line-height:0%;-inkscape-font-specification:'Concourse C7, Bold';text-align:start" font-weight="bold" font-family="Concourse C7" letter-spacing="0" word-spacing="0"><path d="M785 130.45h-82.72l-15 39.15h-69.54L714-79.18h58.55l97.7 248.78h-69.52zM721.3 78.5h44.3L745.45 9h-3.3z" style="line-height:1.25" font-size="365.915"/></g><g fill="#fff" style="line-height:0%;-inkscape-font-specification:'Concourse C7, Bold';text-align:start" font-weight="bold" font-family="Concourse C7" letter-spacing="0" word-spacing="0" font-size="365.914"><path d="M181.73 617.94q15 11.34 32.57 17.93 17.93 6.22 34.4 6.22t23.43-4.4q7.32-4.76 7.32-11.34 0-4.03-2.93-7.32-2.93-3.3-7.7-6.22-4.75-2.93-10.97-5.5-6.22-2.9-13.17-6.2-18.67-8.42-32.94-17.2-13.9-9.15-23.42-19.4-9.52-10.24-14.28-22.67-4.75-12.44-4.75-28.17 0-13.18 5.48-25.6 5.85-12.45 16.83-22.33 11-9.88 26.73-15.73 16.1-6.22 36.6-6.22 26.35 0 47.57 6.58 21.6 6.22 40.63 16.83l-18.67 60.38q-17.2-11.34-34.03-16.83-16.47-5.5-31.84-5.5-8.43 0-14.65 2.57-5.86 2.2-5.86 9.5 0 4.4 3.65 8.43 4.03 3.66 10.6 7.68 6.6 4.03 15.02 8.05 8.78 4.02 18.66 8.78 19.4 9.5 31.48 19.4 12.45 9.5 19.04 19.75 6.95 9.88 9.5 20.5 2.58 10.24 2.58 20.48 0 20.12-8.42 34.03-8.42 13.9-21.96 22.7-13.54 8.77-30.74 12.43-16.84 4.02-33.67 4.02-27.82 0-52.7-7.32-24.9-7.68-39.53-19.02z" style="line-height:1.25"/><path d="M549.6 560.87h-83.45v20.85h70.63v42.44h-70.63v20.86h85.27v53.04H398.44V507.82H549.6z" style="line-height:1.25"/><path d="M744.04 625.26l54.16 69.88v2.92h-76.5l-45.73-65.85h-2.93v65.86h-65.88V507.82h88.2q17.93 0 32.57 4.76 15 4.75 25.62 13.53 10.62 8.43 16.47 20.5 6.22 12.08 6.22 27.07 0 19.4-9.15 31.83-9.16 12.08-23.06 18.3zm-36.6-47.93q0-9.5-5.86-13.9-5.5-4.4-11.7-4.4h-16.84v35.5h17.2q7.68 0 12.44-4.76 4.76-4.75 4.76-12.44z" style="line-height:1.25"/><path d="M905.83 698.06H836.3V507.82h69.53z" style="line-height:1.25"/><path d="M1113.57 560.87h-83.45v20.85h70.64v42.44h-70.64v20.86h85.28v53.04H962.42V507.82h151.15z" style="line-height:1.25"/><path d="M1167.93 631.48q13.9 7.32 33.3 12.8 19.77 5.5 39.53 5.5 10.98 0 15.74-1.84 4.75-2.2 4.75-6.22 0-4.4-8.05-6.95-7.68-2.92-24.15-8.4-19.76-6.6-32.57-13.55-12.45-6.95-19.77-14.63-7.3-8.06-10.23-17.2-2.57-9.15-2.57-20.13 0-10.6 5.13-21.22 5.12-10.6 15-18.66 9.88-8.42 24.16-13.54 14.63-5.13 33.3-5.13 24.5 0 45 4.76 20.5 4.75 34.77 12.8l-10.97 52.68q-22.7-9.15-38.43-12.8-15.37-3.67-28.9-3.67-8.43 0-11.73 2.2-3.3 2.2-3.3 4.4 0 1.83 1.47 3.3 1.48 1.46 5.14 3.28 3.66 1.83 9.88 4.03 6.6 2.2 16.1 5.13 20.13 5.85 32.94 12.8 12.8 6.96 20.13 15.37 7.3 8.05 9.87 17.2 2.93 9.14 2.93 19.4 0 12.43-6.22 23.4-5.86 10.98-17.2 19.4-11.35 8.04-27.82 12.8-16.1 4.75-36.6 4.75-12.8 0-25.25-1.83-12.43-1.83-23.4-4.75-11-3.3-19.77-6.95-8.8-3.66-13.55-7.7z" style="line-height:1.25"/></g><g fill="#fff" style="line-height:0%;-inkscape-font-specification:'Concourse C7, Bold';text-align:start" font-weight="bold" font-family="Concourse C7" letter-spacing="0" word-spacing="0" font-size="189.009"><path d="M258.25 805.24q0 9.45-3.78 17.4-3.6 7.93-10.2 13.8-6.43 5.85-15.7 9.25-9.07 3.2-20.03 3.2H197v41.4H161.5V761.77h47.25q23.25 0 36.3 11.15 13.22 10.97 13.22 32.32zm-35.9 0q0-7.56-4.93-11.34-4.72-3.78-11.9-3.78h-8.5v31.2h8.5q3.02 0 6.04-.96 3.03-1.13 5.3-3.02 2.45-2.08 3.97-5.1 1.5-3.03 1.5-7z" style="line-height:1.25"/><path d="M378 853.06q0 7.56-3.2 14.74-3.02 7.2-9.26 12.86-6.24 5.67-15.5 9.07-9.07 3.4-21.17 3.4-12.85 0-22.1-3.4-9.28-3.4-15.32-9.07-6.05-5.67-8.9-12.86-2.82-7.18-2.82-14.74V792h34.96v56.34q0 8.12 3.96 11.72 3.97 3.6 10.2 3.6 5.87 0 10.03-3.6 4.15-3.6 4.15-11.72V792H378z" style="line-height:1.25"/><path d="M479.5 840.2q8.7 1.52 13.98 8.14 5.3 6.6 5.3 15.12 0 12.47-10.97 19.65-10.95 7.2-30.23 7.2h-51.22V792h48.95q11.15 0 18.72 2.28 7.56 2.08 12.1 5.67 4.72 3.4 6.6 7.94 2.1 4.53 2.1 9.06 0 7.37-3.42 13.23-3.2 5.85-11.9 9.25zm-38.18 10.4v15.5h12.85q4.35 0 6.24-2.08 2.1-2.07 2.1-5.48 0-3.97-2.66-5.86-2.46-2.07-6.43-2.07zm0-34.4v15.5h10.96q4.35 0 6.24-2.07 2.08-2.08 2.08-5.5 0-3.95-2.65-5.84-2.46-2.1-6.43-2.1z" style="line-height:1.25"/><path d="M556.5 861.95h39.12v28.35h-74.1V792h34.97z" style="line-height:1.25"/><path d="M654.74 890.3h-35.92V792h35.92z" style="line-height:1.25"/><path d="M761.83 855.52l10.4 25.14q-7.18 5.86-17.2 9.26-9.83 3.2-20.6 3.2-13.42 0-23.82-3.96-10.4-3.97-17.57-10.77-7.18-7-10.96-16.08-3.78-9.26-3.78-19.65 0-12.67 4.53-22.5 4.72-10 12.28-16.82 7.76-7 17.78-10.58 10.02-3.6 20.98-3.6 12.47 0 21.73 3.6 9.45 3.4 16.06 8.32l-10.4 26.07h-.94q-3.97-3.03-10.2-5.67-6.06-2.65-12.86-2.46-4.72 0-8.88 1.32-4.16 1.33-7.37 4.16-3.2 2.65-5.1 6.8-1.9 4.16-1.9 10.02 0 5.3 1.7 9.45 1.9 3.96 4.93 6.8 3.2 2.83 7.18 4.35 4.17 1.32 8.9 1.32 7.18 0 13.04-2.08 5.85-2.1 11.15-5.68z" style="line-height:1.25"/><path d="M859.33 878h-31.75l-4.54 12.3h-37.42l42.7-98.3h30.26l43.1 98.3h-37.43zm-25.7-24h19.1l-8.9-24.37h-.75z" style="line-height:1.25"/><path d="M972.95 820.36v69.94h-34.97v-69.94h-29.5V792h93.76v28.36z" style="line-height:1.25"/><path d="M1063.03 890.3h-35.9V792h35.9z" style="line-height:1.25"/><path d="M1200 841.72q0 10.02-4.17 19.47-3.97 9.25-11.34 16.43-7.38 7-17.97 11.34-10.4 4.16-23.43 4.16-13.23 0-23.82-3.97-10.4-3.97-17.77-10.96-7.17-7-11.14-16.25-3.78-9.45-3.78-20.23 0-12.1 4.54-21.73 4.72-9.84 12.47-16.65 7.93-6.8 18.14-10.4 10.4-3.77 21.73-3.77 10.97 0 21.17 3.6 10.4 3.58 18.15 10.38 7.74 6.8 12.46 16.64 4.73 9.64 4.73 21.92zm-36.5-.38q0-5.48-1.7-9.64-1.7-4.15-4.53-7-2.83-2.82-6.6-4.15-3.6-1.5-7.76-1.5-3.96 0-7.74 1.3-3.78 1.34-6.62 4.17-2.83 2.65-4.53 7-1.7 4.15-1.7 9.82 0 10.02 5.68 16.07 5.67 5.87 15.12 5.87 8.5 0 14.36-5.48 6.05-5.68 6.05-16.46z" style="line-height:1.25"/><path d="M1290.6 837.94h1.52V792h34.4v98.3h-22.68l-45.36-45.18h-1.5v45.18h-34.4V792h22.67z" style="line-height:1.25"/></g></g></g></svg>
