<?xml version="1.0" encoding="UTF-8" standalone="no"?>
<!-- Created with Inkscape (http://www.inkscape.org/) -->

<svg
   xmlns:dc="http://purl.org/dc/elements/1.1/"
   xmlns:cc="http://creativecommons.org/ns#"
   xmlns:rdf="http://www.w3.org/1999/02/22-rdf-syntax-ns#"
   xmlns:svg="http://www.w3.org/2000/svg"
   xmlns="http://www.w3.org/2000/svg"
   xmlns:sodipodi="http://sodipodi.sourceforge.net/DTD/sodipodi-0.dtd"
   xmlns:inkscape="http://www.inkscape.org/namespaces/inkscape"
   width="1488"
   height="1297"
   id="svg2"
   version="1.1"
   inkscape:version="0.92.1 r15371"
   sodipodi:docname="fig-00-logo-paths.svg">
  <title
     id="title7577">P1001-0-110301-001 R00.01 PS Logo</title>
  <defs
     id="defs4" />
  <sodipodi:namedview
     id="base"
     pagecolor="#ffffff"
     bordercolor="#666666"
     borderopacity="1.0"
     inkscape:pageopacity="0.0"
     inkscape:pageshadow="2"
     inkscape:zoom="0.93267473"
     inkscape:cx="743.99998"
     inkscape:cy="648.50003"
     inkscape:document-units="px"
     inkscape:current-layer="layer1"
     showgrid="false"
     gridtolerance="10000"
     inkscape:window-width="2560"
     inkscape:window-height="1378"
     inkscape:window-x="2552"
     inkscape:window-y="-8"
     inkscape:window-maximized="1"
     guidetolerance="10000"
     inkscape:snap-global="true"
     inkscape:snap-bbox="true"
     inkscape:snap-bbox-edge-midpoints="true"
     inkscape:bbox-nodes="false"
     inkscape:snap-grids="true"
     inkscape:snap-to-guides="true"
     showguides="true"
     inkscape:guide-bbox="true"
     showborder="false">
    <inkscape:grid
       type="xygrid"
       id="grid2985"
       empspacing="5"
       visible="true"
       enabled="true"
       snapvisiblegridlinesonly="true"
       empcolor="#c0504d"
       empopacity="0.19607843"
       color="#8db3e2"
       opacity="0.15686275"
       dotted="false" />
  </sodipodi:namedview>
  <metadata
     id="metadata7">
    <rdf:RDF>
      <cc:Work
         rdf:about="">
        <dc:format>image/svg+xml</dc:format>
        <dc:type
           rdf:resource="http://purl.org/dc/dcmitype/StillImage" />
        <dc:title>P1001-0-110301-001 R00.01 PS Logo</dc:title>
      </cc:Work>
    </rdf:RDF>
  </metadata>
  <g
     inkscape:label="Layer 1"
     inkscape:groupmode="layer"
     id="layer1"
     transform="translate(0,244.6378)">
    <g
       id="g1578">
      <rect
         ry="0"
         y="-244.27376"
         x="-2.34375e-005"
         height="1296.2719"
         width="1488"
         id="rect7773-3-8"
         style="fill:#4c6c9c;fill-opacity:1;stroke:none;stroke-width:30.0529995;stroke-miterlimit:4;stroke-dasharray:none" />
      <g
         style="fill:#1f2d41;fill-opacity:1"
         id="Calque_2-1"
         transform="matrix(7.591696,0,0,7.591696,-15.168,-355.3017)">
        <path
           id="path4154-2"
           d="m 127.62,87.378 2.22,3.12 0.427,-0.086 0.174,-1.948 0.148,-2.162 -0.254,-1.278 -0.685,-0.164 -0.947,0.947 -1.685,0.551 z"
           inkscape:connector-curvature="0"
           style="fill:#1f2d41;fill-opacity:1" />
        <path
           id="path4156-6"
           d="m 173.387,73.68 c -0.11,-0.312 -0.235,-0.617 -0.352,-0.927 -0.42,-1.118 -0.863,-2.232 -1.336,-3.341 -0.212,-0.5 -0.429,-0.993 -0.652,-1.486 -0.163,-0.363 -0.309,-0.73 -0.48,-1.092 -0.424,-0.904 -0.867,-1.797 -1.323,-2.678 -0.045,-0.089 -0.095,-0.173 -0.14,-0.261 -0.721,-1.38 -1.479,-2.728 -2.27,-4.046 -0.05,-0.085 -0.098,-0.17 -0.15,-0.255 -0.849,-1.404 -1.739,-2.769 -2.664,-4.101 -0.022,-0.031 -0.041,-0.062 -0.063,-0.092 -5.845,-8.404 -13.162,-15.383 -21.425,-20.753 -0.047,-0.031 -0.093,-0.06 -0.14,-0.09 -1.345,-0.87 -2.715,-1.699 -4.108,-2.484 -0.115,-0.065 -0.232,-0.127 -0.349,-0.191 -1.362,-0.759 -2.744,-1.479 -4.147,-2.153 -0.137,-0.069 -0.277,-0.13 -0.415,-0.195 -1.418,-0.671 -2.851,-1.306 -4.307,-1.891 -0.09,-0.036 -0.181,-0.067 -0.271,-0.103 -1.482,-0.588 -2.98,-1.134 -4.495,-1.63 -0.056,-0.019 -0.11,-0.039 -0.167,-0.058 -1.57,-0.511 -3.157,-0.969 -4.759,-1.379 -0.053,-0.014 -0.103,-0.033 -0.158,-0.045 0,0 -10e-4,0.001 -10e-4,0.003 C 112.951,22.831 106.474,22 99.936,22 c -0.468,0 -0.939,0.03 -1.408,0.037 -0.308,0.005 -0.617,0.016 -0.922,0.025 -2.62,0.08 -5.242,0.292 -7.866,0.64 -0.388,0.051 -0.775,0.1 -1.162,0.158 -0.736,0.109 -1.473,0.227 -2.207,0.358 -0.514,0.091 -1.022,0.194 -1.531,0.295 -0.925,0.184 -1.85,0.382 -2.772,0.601 -0.792,0.187 -1.582,0.38 -2.365,0.591 -0.507,0.137 -1.014,0.286 -1.521,0.434 -0.808,0.235 -1.61,0.485 -2.407,0.745 -0.384,0.127 -0.767,0.245 -1.151,0.378 -1.181,0.407 -2.35,0.842 -3.507,1.303 -0.256,0.102 -0.51,0.213 -0.768,0.318 -1.017,0.418 -2.023,0.858 -3.02,1.318 -0.168,0.076 -0.338,0.142 -0.507,0.221 -0.106,0.05 -0.207,0.107 -0.313,0.158 -1.077,0.513 -2.145,1.041 -3.197,1.602 -0.203,0.108 -0.398,0.225 -0.599,0.334 -0.806,0.438 -1.605,0.889 -2.396,1.357 -0.48,0.284 -0.953,0.576 -1.426,0.868 -0.471,0.293 -0.94,0.589 -1.404,0.892 -0.557,0.362 -1.112,0.724 -1.658,1.098 -0.261,0.18 -0.515,0.365 -0.774,0.548 -2.168,1.525 -4.241,3.149 -6.215,4.862 -0.136,0.119 -0.273,0.236 -0.407,0.354 -0.671,0.592 -1.332,1.191 -1.98,1.801 -0.079,0.074 -0.157,0.152 -0.237,0.227 -2.012,1.916 -3.908,3.927 -5.686,6.023 -0.147,0.174 -0.295,0.342 -0.44,0.517 -0.487,0.585 -0.959,1.176 -1.429,1.774 -0.239,0.304 -0.477,0.611 -0.711,0.92 -0.421,0.552 -0.836,1.106 -1.24,1.669 -0.281,0.39 -0.553,0.788 -0.827,1.184 -0.357,0.517 -0.718,1.03 -1.063,1.554 -0.577,0.877 -1.137,1.766 -1.68,2.671 -0.229,0.382 -0.443,0.772 -0.664,1.159 -0.358,0.619 -0.713,1.238 -1.055,1.87 -0.228,0.423 -0.446,0.847 -0.666,1.273 -0.317,0.612 -0.627,1.228 -0.93,1.85 -0.206,0.428 -0.41,0.855 -0.608,1.287 -0.3,0.651 -0.59,1.308 -0.874,1.967 -0.17,0.405 -0.344,0.807 -0.511,1.213 -0.063,0.151 -0.13,0.298 -0.192,0.449 0.009,-0.011 0.02,-0.024 0.031,-0.034 -2.443,6.068 -4.126,12.434 -4.992,18.946 0,0 -0.002,0 -0.003,0 -0.033,0.243 -0.045,0.486 -0.075,0.73 -0.144,1.16 -0.268,2.326 -0.36,3.494 -0.027,0.336 -0.036,0.669 -0.058,1.005 -0.072,1.104 -0.128,2.21 -0.153,3.321 -0.006,0.315 -0.002,0.63 -0.005,0.945 -0.011,1.13 -10e-4,2.259 0.036,3.392 0.01,0.287 0.027,0.572 0.039,0.859 0.052,1.158 0.128,2.314 0.233,3.475 0.023,0.259 0.05,0.516 0.076,0.775 0.117,1.171 0.262,2.341 0.434,3.511 0.036,0.249 0.073,0.498 0.112,0.748 0.181,1.154 0.39,2.307 0.624,3.458 0.055,0.265 0.106,0.531 0.162,0.794 0.236,1.1 0.501,2.198 0.787,3.293 0.081,0.312 0.157,0.624 0.243,0.935 0.274,1.005 0.579,2.003 0.895,3.001 0.125,0.395 0.244,0.793 0.376,1.186 0.294,0.874 0.615,1.739 0.941,2.608 0.187,0.498 0.365,1 0.562,1.493 0.298,0.747 0.624,1.488 0.946,2.231 0.255,0.585 0.498,1.173 0.766,1.75 0.053,0.116 0.099,0.234 0.153,0.351 0.478,1.016 0.978,2.013 1.495,2.997 0.107,0.208 0.223,0.412 0.332,0.618 0.571,1.068 1.162,2.117 1.775,3.149 0.071,0.117 0.138,0.238 0.208,0.356 0.733,1.217 1.496,2.407 2.285,3.573 0.002,0.001 0.002,0.003 0.003,0.004 14.724,21.689 39.166,34.133 64.534,34.133 11.111,0 22.394,-2.384 33.115,-7.422 36.719,-17.256 53.699,-59.475 40.23,-96.898 z m -41.558,94.074 c -10.064,4.728 -20.757,7.126 -31.787,7.126 -22.98,0 -44.506,-10.688 -58.543,-28.206 -0.2,-0.526 -0.4,-1.05 -0.599,-1.576 0.859,0.103 1.72,0.204 2.578,0.307 0.472,-0.145 0.943,-0.287 1.412,-0.43 0.164,-1.022 0.328,-2.047 0.492,-3.072 -0.124,-1.226 -0.245,-2.455 -0.369,-3.683 -0.226,-0.593 -0.45,-1.187 -0.677,-1.782 0.308,-0.204 0.617,-0.408 0.922,-0.614 0.144,-0.574 0.287,-1.147 0.429,-1.721 0.451,-0.306 0.902,-0.614 1.351,-0.92 0.063,-1.044 0.124,-2.089 0.184,-3.133 -0.266,-0.594 -0.532,-1.188 -0.798,-1.783 -0.593,-0.326 -1.187,-0.653 -1.782,-0.981 -0.594,-1.023 -1.187,-2.048 -1.781,-3.072 -0.799,-0.449 -1.596,-0.9 -2.395,-1.351 -0.942,-0.572 -1.883,-1.145 -2.825,-1.72 -0.534,-0.961 -1.066,-1.924 -1.598,-2.888 -0.776,-0.981 -1.555,-1.965 -2.332,-2.947 0,-0.942 0,-1.883 0,-2.826 -0.267,-0.86 -0.533,-1.721 -0.8,-2.579 -0.736,-1.126 -1.473,-2.251 -2.211,-3.378 -0.532,-1.332 -1.065,-2.661 -1.595,-3.992 -0.205,-1.351 -0.411,-2.7 -0.615,-4.054 -0.226,-0.878 -0.451,-1.76 -0.676,-2.64 -0.709,-1.513 -1.419,-3.026 -2.129,-4.541 0.334,-2.806 0.83,-5.586 1.471,-8.327 l 0.857,2.426 1.249,1.853 0.966,0.524 -1.088,-2.377 -0.801,-2.813 -0.039,-2.66 -0.105,-0.879 c 1.92,-6.581 4.728,-12.891 8.369,-18.73 0.603,-0.448 1.205,-0.894 1.807,-1.341 0.752,-0.698 1.505,-1.397 2.256,-2.096 1.115,-0.429 2.231,-0.859 3.346,-1.288 0.618,-0.256 1.235,-0.51 1.853,-0.766 0.067,0.429 0.134,0.861 0.201,1.29 0.618,0.013 1.236,0.027 1.854,0.039 0.886,-0.295 1.773,-0.591 2.66,-0.886 -0.819,-0.295 -1.64,-0.591 -2.457,-0.885 0.536,-0.485 1.073,-0.967 1.609,-1.452 0.431,-0.443 0.862,-0.886 1.291,-1.331 -0.189,-0.469 -0.376,-0.94 -0.564,-1.408 0.509,-0.055 1.021,-0.108 1.531,-0.162 0.577,0.538 1.154,1.073 1.731,1.611 0.604,-0.014 1.208,-0.028 1.813,-0.041 0.552,-0.026 1.101,-0.053 1.654,-0.079 0.402,-0.713 0.805,-1.424 1.207,-2.136 0.282,-1.008 0.563,-2.015 0.846,-3.023 1.316,-1.612 2.633,-3.223 3.95,-4.836 -0.929,0.242 -1.854,0.485 -2.78,0.725 0.683,-0.859 1.369,-1.719 2.053,-2.577 0.471,-0.752 0.94,-1.505 1.41,-2.257 -0.779,0.351 -1.559,0.699 -2.337,1.048 -1.128,0.86 -2.256,1.721 -3.384,2.579 -0.875,0.402 -1.747,0.806 -2.62,1.207 -1.222,0.486 -2.443,0.968 -3.668,1.453 1.142,-0.982 2.284,-1.963 3.424,-2.942 0.293,-0.472 0.584,-0.943 0.875,-1.412 2.944,-2.128 6.073,-4.064 9.385,-5.782 0.529,0.061 1.058,0.122 1.588,0.183 0.069,0.563 0.135,1.128 0.203,1.693 -0.429,0.737 -0.861,1.475 -1.29,2.215 -0.349,0.617 -0.697,1.235 -1.047,1.853 0.98,0.014 1.961,0.028 2.941,0.039 1.048,-0.551 2.095,-1.101 3.143,-1.652 1.209,-0.563 2.418,-1.129 3.627,-1.693 1.074,-0.471 2.148,-0.94 3.223,-1.41 -0.416,-0.242 -0.833,-0.483 -1.249,-0.725 -0.041,-0.417 -0.081,-0.832 -0.12,-1.25 0.455,-0.522 0.912,-1.047 1.369,-1.571 0.24,-0.524 0.484,-1.048 0.726,-1.572 0.362,0.323 0.725,0.644 1.087,0.967 0.173,-0.228 0.349,-0.457 0.524,-0.685 0.417,0.134 0.832,0.27 1.25,0.404 0.739,0.067 1.475,0.134 2.215,0.201 -0.496,0.659 -0.994,1.317 -1.49,1.975 -0.282,0.323 -0.563,0.645 -0.847,0.968 -0.563,0.672 -1.128,1.343 -1.693,2.014 -0.898,0.78 -1.798,1.558 -2.698,2.336 -0.59,0.189 -1.181,0.376 -1.773,0.565 -0.617,0.63 -1.235,1.262 -1.853,1.894 -0.618,0.321 -1.235,0.644 -1.853,0.967 -0.644,0.644 -1.289,1.289 -1.933,1.933 -0.309,0.51 -0.618,1.02 -0.928,1.53 0.162,0.163 0.323,0.323 0.485,0.486 -0.12,0.388 -0.242,0.778 -0.362,1.166 0.398,0.205 0.796,0.409 1.193,0.612 0.417,-0.35 0.834,-0.697 1.25,-1.047 0.577,-0.362 1.154,-0.725 1.732,-1.087 0.683,-0.418 1.371,-0.833 2.054,-1.25 0.726,-0.081 1.451,-0.162 2.176,-0.242 0.876,-0.294 1.746,-0.591 2.62,-0.886 0.443,-0.282 0.886,-0.563 1.332,-0.845 0.441,0.106 0.884,0.215 1.329,0.321 1.115,-0.173 2.231,-0.349 3.345,-0.524 0.443,-0.307 0.886,-0.618 1.33,-0.927 0.538,-0.55 1.075,-1.101 1.612,-1.652 0.778,-0.725 1.558,-1.45 2.337,-2.176 0.443,-0.485 0.886,-0.967 1.33,-1.452 0.592,-0.551 1.183,-1.102 1.774,-1.652 0.47,-0.187 0.941,-0.376 1.409,-0.563 -0.301,-0.576 -0.598,-1.152 -0.893,-1.73 0.604,0.308 1.208,0.617 1.813,0.928 1.087,0.173 2.176,0.349 3.264,0.522 1.048,-0.026 2.095,-0.053 3.143,-0.081 1.317,-0.227 2.633,-0.455 3.948,-0.683 0.336,-0.429 0.673,-0.86 1.008,-1.289 0.74,0.188 1.477,0.375 2.217,0.564 0.349,-0.028 0.697,-0.053 1.048,-0.082 -0.068,-0.55 -0.135,-1.101 -0.203,-1.652 0.429,-0.282 0.86,-0.564 1.291,-0.847 0.63,-0.227 1.262,-0.457 1.893,-0.683 0.738,0.027 1.478,0.053 2.217,0.08 0.036,-0.325 0.077,-0.651 0.114,-0.977 -0.059,-0.051 -0.12,-0.103 -0.179,-0.154 1.425,0.321 2.839,0.686 4.24,1.089 -0.055,0.227 -0.111,0.457 -0.166,0.686 -0.369,-0.218 -0.741,-0.435 -1.11,-0.654 -0.718,0.153 -1.437,0.304 -2.155,0.457 0.197,0.545 0.392,1.088 0.588,1.632 0.882,0.903 1.763,1.807 2.643,2.71 -0.033,0.749 -0.064,1.501 -0.098,2.251 0.619,0.488 1.24,0.98 1.859,1.468 -0.457,0.75 -0.914,1.501 -1.371,2.251 0.293,0.055 0.588,0.109 0.881,0.162 0.272,0.315 0.545,0.63 0.815,0.947 -0.783,0.228 -1.566,0.456 -2.35,0.683 -0.273,0.665 -0.544,1.33 -0.815,1.991 -0.272,0.207 -0.545,0.415 -0.815,0.621 -0.413,0.282 -0.827,0.565 -1.24,0.847 -0.328,-0.25 -0.654,-0.499 -0.98,-0.749 -0.262,-0.207 -0.522,-0.415 -0.784,-0.621 -0.456,-0.14 -0.913,-0.282 -1.37,-0.423 -0.685,-0.054 -1.371,-0.107 -2.056,-0.162 -0.359,-0.054 -0.718,-0.107 -1.077,-0.162 -0.207,-0.033 -0.413,-0.066 -0.619,-0.098 -0.239,-0.219 -0.479,-0.436 -0.717,-0.654 -0.415,0 -0.827,0 -1.241,0 -0.457,0.087 -0.914,0.173 -1.371,0.261 -0.499,0.131 -1.001,0.262 -1.501,0.393 -0.349,0.433 -0.695,0.87 -1.045,1.304 -0.218,0.49 -0.435,0.98 -0.652,1.468 -0.273,0.37 -0.546,0.741 -0.816,1.111 -0.424,0.446 -0.848,0.892 -1.273,1.336 -0.402,0.263 -0.805,0.523 -1.207,0.785 -0.435,0.51 -0.871,1.022 -1.306,1.532 -0.469,0.424 -0.936,0.849 -1.404,1.273 -0.075,0.413 -0.153,0.827 -0.228,1.24 0.033,0.326 0.064,0.652 0.099,0.98 0.087,0.315 0.173,0.63 0.26,0.945 0.153,0.261 0.304,0.523 0.457,0.783 0.228,0.121 0.457,0.239 0.685,0.359 0.392,-0.185 0.783,-0.37 1.175,-0.554 0.022,-0.273 0.043,-0.544 0.065,-0.815 0.523,-0.119 1.045,-0.239 1.567,-0.358 0.023,0.195 0.043,0.39 0.065,0.587 0.24,0.435 0.481,0.87 0.719,1.306 0.184,0.304 0.368,0.61 0.554,0.914 -0.033,0.184 -0.066,0.369 -0.098,0.554 0.022,0.273 0.042,0.544 0.064,0.815 0.38,0.055 0.761,0.108 1.142,0.163 0.227,-0.197 0.457,-0.392 0.684,-0.588 0.392,-0.272 0.784,-0.545 1.175,-0.816 -0.118,-0.348 -0.239,-0.696 -0.357,-1.044 -0.044,-0.349 -0.087,-0.696 -0.131,-1.045 0.575,-0.239 1.153,-0.479 1.73,-0.718 -0.208,-0.315 -0.415,-0.63 -0.621,-0.945 -0.392,-0.228 -0.783,-0.457 -1.175,-0.685 0.024,-0.696 0.044,-1.393 0.066,-2.089 0.468,-0.38 0.936,-0.761 1.402,-1.142 0.142,-0.423 0.284,-0.848 0.423,-1.273 0.207,-0.337 0.415,-0.674 0.621,-1.011 0.499,0.011 1.001,0.024 1.501,0.033 0.076,0.37 0.153,0.74 0.227,1.109 -0.422,0.337 -0.848,0.676 -1.273,1.011 -0.129,0.415 -0.26,0.827 -0.391,1.24 0.22,0.523 0.435,1.046 0.654,1.568 0.207,0.304 0.413,0.61 0.619,0.914 0.588,-0.032 1.176,-0.065 1.763,-0.098 0.293,-0.304 0.586,-0.61 0.879,-0.913 0.665,0.152 1.33,0.303 1.991,0.456 -0.011,0.164 -0.022,0.328 -0.033,0.49 -0.26,0.142 -0.522,0.282 -0.783,0.423 -0.544,0.196 -1.087,0.391 -1.633,0.588 -0.392,0.098 -0.783,0.196 -1.175,0.293 -0.195,0.348 -0.391,0.696 -0.586,1.044 0.14,0.162 0.282,0.326 0.422,0.488 -0.249,0.089 -0.499,0.175 -0.75,0.262 0.078,0.512 0.153,1.022 0.228,1.533 0.196,0.327 0.391,0.653 0.588,0.98 -0.457,0.304 -0.914,0.61 -1.371,0.914 -0.273,0.064 -0.545,0.13 -0.816,0.195 -0.172,-0.153 -0.348,-0.304 -0.521,-0.457 -0.131,0.088 -0.261,0.173 -0.392,0.262 -0.273,0.184 -0.544,0.368 -0.816,0.554 -0.293,0.141 -0.586,0.284 -0.88,0.423 -0.107,0.239 -0.218,0.479 -0.327,0.719 -0.25,-0.22 -0.499,-0.435 -0.749,-0.654 -0.162,-0.26 -0.326,-0.522 -0.49,-0.783 -0.195,0.195 -0.391,0.392 -0.586,0.588 -0.534,-0.043 -1.067,-0.089 -1.599,-0.131 -0.184,-0.293 -0.372,-0.588 -0.556,-0.881 0.108,-0.357 0.219,-0.718 0.326,-1.076 0.142,-0.316 0.284,-0.631 0.425,-0.946 -0.23,-0.337 -0.457,-0.675 -0.687,-1.011 -0.251,0.219 -0.501,0.436 -0.75,0.652 -0.261,0.294 -0.523,0.589 -0.783,0.882 0.162,0.554 0.326,1.109 0.488,1.664 0.022,0.379 0.044,0.76 0.066,1.142 -0.326,0.119 -0.654,0.239 -0.98,0.357 -0.414,0 -0.825,0 -1.239,0 -0.251,0.174 -0.501,0.35 -0.752,0.522 -0.218,0.358 -0.433,0.719 -0.652,1.077 -0.293,0.25 -0.588,0.5 -0.88,0.751 -0.511,0.184 -1.023,0.37 -1.533,0.554 -0.033,0.26 -0.067,0.521 -0.098,0.783 -0.381,0.217 -0.762,0.433 -1.141,0.652 -0.032,0.153 -0.065,0.306 -0.098,0.457 -0.554,-0.066 -1.109,-0.13 -1.663,-0.195 -0.065,0.25 -0.131,0.499 -0.197,0.749 -0.207,0.078 -0.413,0.154 -0.619,0.227 -0.415,-0.151 -0.827,-0.304 -1.24,-0.455 -0.359,0.184 -0.719,0.37 -1.076,0.554 0.162,0.184 0.326,0.369 0.488,0.554 0.555,0.205 1.111,0.413 1.664,0.619 0.077,0.337 0.153,0.674 0.228,1.011 0.197,0.195 0.392,0.393 0.588,0.588 -0.054,0.228 -0.109,0.455 -0.164,0.683 -0.098,0.643 -0.195,1.284 -0.293,1.927 -0.228,0.26 -0.457,0.522 -0.685,0.783 -0.577,0.022 -1.153,0.044 -1.73,0.065 -0.88,-0.174 -1.763,-0.349 -2.642,-0.524 -0.534,0.055 -1.067,0.109 -1.599,0.164 -0.305,0.392 -0.61,0.783 -0.915,1.176 -0.422,0.554 -0.848,1.109 -1.271,1.663 0.055,0.479 0.108,0.957 0.162,1.435 -0.12,0.425 -0.238,0.849 -0.358,1.273 0.141,0.456 0.283,0.915 0.424,1.372 0.249,0.249 0.499,0.499 0.749,0.748 0.468,0.121 0.937,0.239 1.402,0.359 0.013,0.392 0.023,0.783 0.033,1.176 0.196,0.119 0.391,0.238 0.588,0.358 0.402,-0.184 0.805,-0.368 1.206,-0.554 0.892,-0.011 1.784,-0.02 2.677,-0.031 0.207,-0.131 0.413,-0.262 0.619,-0.393 0.359,-0.25 0.718,-0.5 1.077,-0.749 0.207,-0.22 0.414,-0.435 0.619,-0.654 -0.153,-0.404 -0.303,-0.805 -0.456,-1.207 0.075,-0.403 0.153,-0.805 0.228,-1.206 0.392,-0.446 0.783,-0.892 1.176,-1.339 0.521,-0.173 1.044,-0.348 1.567,-0.522 0.271,-0.414 0.544,-0.827 0.814,-1.239 0.054,-0.284 0.109,-0.566 0.162,-0.849 0.446,-0.109 0.892,-0.218 1.339,-0.327 0.446,0.142 0.89,0.284 1.337,0.424 0.723,-0.274 1.446,-0.547 2.169,-0.819 0.529,-0.159 1.058,-0.315 1.587,-0.476 0.282,0.124 0.563,0.247 0.846,0.37 0.123,0.292 0.246,0.582 0.369,0.874 0.354,0.368 0.705,0.739 1.059,1.11 0.316,0.308 0.634,0.618 0.951,0.926 0.477,0.202 0.951,0.405 1.427,0.608 0.396,0.211 0.794,0.423 1.19,0.635 0.292,0.228 0.582,0.457 0.874,0.685 0.184,0.309 0.368,0.617 0.554,0.926 -0.027,0.273 -0.053,0.546 -0.08,0.819 -0.098,0.195 -0.193,0.389 -0.292,0.582 0.116,0.184 0.228,0.37 0.345,0.554 0.159,-0.159 0.317,-0.317 0.476,-0.476 0.184,-0.256 0.37,-0.51 0.555,-0.766 0.08,-0.168 0.159,-0.335 0.237,-0.504 -0.098,-0.165 -0.195,-0.333 -0.291,-0.5 -0.15,-0.15 -0.3,-0.3 -0.45,-0.45 0.089,-0.132 0.177,-0.263 0.264,-0.396 0.072,-0.104 0.142,-0.212 0.212,-0.318 0.247,0.161 0.493,0.318 0.741,0.477 0.106,0.15 0.212,0.3 0.317,0.449 0.142,-0.106 0.282,-0.212 0.423,-0.316 -0.256,-0.265 -0.511,-0.529 -0.766,-0.794 -0.317,-0.22 -0.635,-0.44 -0.952,-0.662 -0.317,-0.237 -0.635,-0.475 -0.952,-0.713 -0.165,0.01 -0.335,0.018 -0.5,0.027 -0.354,-0.106 -0.705,-0.211 -1.058,-0.317 -0.222,-0.282 -0.441,-0.563 -0.661,-0.847 -0.195,-0.37 -0.389,-0.739 -0.582,-1.109 -0.283,-0.133 -0.564,-0.265 -0.846,-0.398 -0.167,-0.298 -0.335,-0.599 -0.502,-0.897 0.051,-0.115 0.104,-0.229 0.159,-0.345 -0.089,-0.174 -0.176,-0.354 -0.264,-0.528 0.105,-0.133 0.211,-0.266 0.317,-0.398 0.3,-0.07 0.599,-0.141 0.897,-0.211 0.248,0.175 0.494,0.353 0.743,0.529 0.193,0.254 0.386,0.51 0.581,0.766 0.211,0.273 0.423,0.546 0.634,0.817 0.237,0.195 0.476,0.389 0.713,0.582 0.282,0.099 0.563,0.195 0.847,0.292 0.15,0.186 0.298,0.371 0.449,0.555 0.493,0.114 0.988,0.228 1.479,0.344 0.265,0.39 0.529,0.775 0.794,1.163 -0.089,0.319 -0.176,0.635 -0.265,0.95 0.238,0.248 0.477,0.495 0.714,0.743 0.361,0.273 0.723,0.548 1.083,0.819 0.477,0.07 0.952,0.14 1.427,0.211 0.169,0.308 0.336,0.617 0.503,0.926 0.644,0.283 1.287,0.563 1.929,0.846 0.114,-0.255 0.23,-0.51 0.345,-0.768 -0.398,-0.273 -0.794,-0.546 -1.19,-0.817 -0.159,-0.275 -0.318,-0.548 -0.478,-0.819 -0.104,-0.256 -0.21,-0.512 -0.316,-0.766 0.292,-0.336 0.582,-0.669 0.873,-1.005 0.415,-0.036 0.827,-0.072 1.242,-0.106 0.371,0 0.741,0 1.111,0 0.387,-0.159 0.775,-0.318 1.164,-0.476 0.168,-0.178 0.338,-0.354 0.507,-0.529 -0.354,-0.708 -0.709,-1.414 -1.063,-2.124 0.582,-0.251 1.162,-0.504 1.744,-0.757 0.757,-0.555 1.517,-1.112 2.275,-1.668 0.555,0.052 1.112,0.102 1.667,0.153 0.456,-0.354 0.91,-0.708 1.365,-1.062 0.682,0.05 1.364,0.1 2.047,0.153 0.707,0.329 1.415,0.657 2.123,0.984 0.531,0.329 1.063,0.659 1.593,0.988 0,0.454 0,0.908 0,1.365 -0.429,0.174 -0.859,0.354 -1.288,0.53 -0.582,0.125 -1.164,0.253 -1.745,0.379 -0.606,-0.228 -1.212,-0.455 -1.819,-0.683 -0.708,-0.052 -1.414,-0.101 -2.123,-0.151 -0.429,0.377 -0.859,0.756 -1.288,1.135 -0.504,0.153 -1.011,0.303 -1.517,0.457 -0.532,0.278 -1.062,0.554 -1.592,0.833 -0.607,0.278 -1.212,0.556 -1.819,0.833 0.05,0.506 0.1,1.011 0.151,1.517 0.532,0.507 1.062,1.011 1.593,1.518 0.555,0.658 1.112,1.313 1.667,1.971 0.481,-0.126 0.96,-0.252 1.442,-0.379 0.175,-0.302 0.354,-0.606 0.53,-0.911 0.329,0.255 0.657,0.507 0.986,0.76 0.684,-0.101 1.365,-0.204 2.047,-0.303 0.228,-0.304 0.455,-0.608 0.683,-0.911 0.708,0.05 1.415,0.102 2.123,0.153 -0.06,0.397 -0.12,0.793 -0.179,1.189 -0.023,1.045 -0.044,2.089 -0.066,3.134 0.088,0.718 0.174,1.435 0.261,2.153 0.228,0.054 0.457,0.109 0.685,0.164 0.173,0.652 0.349,1.305 0.522,1.959 -0.098,0.39 -0.196,0.783 -0.293,1.173 0.055,0.579 0.109,1.158 0.164,1.736 0.253,0.177 0.505,0.355 0.758,0.531 0.531,0.632 1.061,1.265 1.593,1.897 0.454,0.657 0.909,1.313 1.363,1.97 0.329,0.203 0.659,0.406 0.986,0.607 0.381,0.785 0.758,1.569 1.137,2.352 0.38,0.556 0.759,1.113 1.138,1.666 0.504,0.203 1.009,0.404 1.516,0.609 0.279,0.504 0.555,1.009 0.833,1.516 0.582,0.607 1.164,1.212 1.744,1.821 0.763,1.858 1.526,3.717 2.289,5.578 1.315,-0.961 2.628,-1.92 3.942,-2.883 1.062,-1.009 2.121,-2.021 3.184,-3.031 0.354,-0.355 0.706,-0.708 1.062,-1.062 0.05,-0.53 0.1,-1.061 0.151,-1.593 0.482,-0.454 0.96,-0.908 1.442,-1.363 0.329,-0.304 0.657,-0.609 0.986,-0.91 0.126,-0.607 0.253,-1.213 0.379,-1.82 0.303,-0.253 0.607,-0.506 0.909,-0.757 -0.176,-0.532 -0.354,-1.062 -0.532,-1.593 0.255,-0.631 0.506,-1.265 0.759,-1.897 0.101,-0.53 0.202,-1.062 0.302,-1.592 -0.53,-0.379 -1.062,-0.759 -1.593,-1.138 -0.404,0.077 -0.809,0.155 -1.212,0.228 -0.329,-0.228 -0.656,-0.455 -0.986,-0.683 -0.329,-0.757 -0.656,-1.518 -0.986,-2.275 -0.227,0.757 -0.455,1.518 -0.683,2.275 -0.253,0.48 -0.505,0.959 -0.758,1.441 -0.429,0.228 -0.86,0.454 -1.287,0.682 -0.254,-0.1 -0.507,-0.201 -0.758,-0.303 -0.027,-0.329 -0.052,-0.656 -0.077,-0.986 -0.126,-0.429 -0.252,-0.858 -0.379,-1.288 -0.176,0.126 -0.354,0.254 -0.53,0.379 0,0.356 0,0.708 0,1.062 -0.228,-0.279 -0.456,-0.555 -0.683,-0.834 -0.354,-0.428 -0.709,-0.86 -1.063,-1.287 -0.631,-0.582 -1.263,-1.164 -1.895,-1.744 -0.1,-0.506 -0.203,-1.011 -0.303,-1.517 0.454,-0.254 0.91,-0.507 1.365,-0.759 0.556,0.555 1.113,1.112 1.668,1.667 0.228,0.329 0.454,0.659 0.682,0.988 0.304,-0.027 0.608,-0.052 0.909,-0.077 0.456,0.253 0.911,0.504 1.365,0.757 0.303,0 0.607,0 0.91,0 0.405,-0.504 0.809,-1.009 1.213,-1.516 0.251,-0.025 0.506,-0.05 0.758,-0.077 0.252,0.532 0.504,1.063 0.757,1.593 1.011,-0.303 2.022,-0.605 3.033,-0.908 0.706,-0.381 1.415,-0.76 2.121,-1.137 0.482,-0.303 0.961,-0.607 1.442,-0.91 0.051,-0.026 0.1,-0.051 0.153,-0.078 0.503,0.482 1.01,0.961 1.516,1.442 0.53,0.176 1.062,0.355 1.593,0.532 0.377,-0.305 0.756,-0.609 1.135,-0.911 0.506,0.532 1.011,1.064 1.518,1.592 0.607,1.415 1.212,2.83 1.819,4.245 0.556,1.038 1.112,2.073 1.668,3.109 0.632,1.113 1.263,2.225 1.895,3.337 0.354,1.086 0.708,2.173 1.063,3.26 0.152,-1.11 0.302,-2.223 0.455,-3.335 -0.051,-1.77 -0.1,-3.541 -0.153,-5.307 -0.379,-0.735 -0.758,-1.466 -1.137,-2.198 0.176,-1.214 0.354,-2.429 0.53,-3.639 -0.202,-1.493 -0.405,-2.985 -0.606,-4.475 -0.077,-0.833 -0.153,-1.667 -0.228,-2.502 0.139,-0.415 0.277,-0.83 0.415,-1.245 11.186,35.216 -5.178,74.235 -39.501,90.365 z"
           inkscape:connector-curvature="0"
           style="fill:#1f2d41;fill-opacity:1" />
        <path
           id="path4158-3"
           d="m 88.035,46.609 -0.644,-1.571 -1.126,-0.079 -1.372,-0.163 -1.49,-0.203 -0.725,0.606 0.403,0.725 -0.525,0.847 0.685,0.563 1.612,0.202 1.491,-0.403 z"
           inkscape:connector-curvature="0"
           style="fill:#1f2d41;fill-opacity:1" />
        <path
           id="path4160-0"
           d="m 85.236,61.568 1.456,-0.37 0.925,-0.265 0.661,-0.899 0.342,-1.004 0.477,-0.554 -0.634,-1.192 -1.11,-0.184 -0.635,1.084 -0.687,0.264 -0.133,0.953 -0.423,0.318 -0.079,0.473 -0.476,0.373 -0.105,0.819 z"
           inkscape:connector-curvature="0"
           style="fill:#1f2d41;fill-opacity:1" />
        <path
           id="path4162-9"
           d="m 88.199,63.632 0.95,-0.398 0.529,0.157 0.951,-0.474 h 1.615 l 1.665,-0.159 0.475,-0.424 -0.316,-0.556 0.713,-0.659 -0.819,-0.662 -0.607,-0.898 -0.398,-0.927 -0.529,-0.605 -0.051,-0.61 -0.688,-0.609 0.106,-0.713 0.686,-0.502 0.133,-0.952 -0.053,-1.188 -3.094,0.237 -0.37,1.454 0.213,1.243 0.316,1.162 0.872,0.688 0.556,1.058 -0.766,0.58 h -0.531 l 0.053,1.058 -0.608,0.292 -0.262,0.45 0.449,0.581 z"
           inkscape:connector-curvature="0"
           style="fill:#1f2d41;fill-opacity:1" />
        <path
           id="path4164-0"
           d="m 142.13,152.617 2.176,-0.969 1.167,-1.851 1.895,-3.345 1.449,-2.82 1.492,-2.78 -0.161,-3.908 -1.089,1.973 h -0.362 l -0.483,0.888 -1.25,1.53 -1.449,1.208 -1.37,0.766 -0.243,0.886 -0.524,0.646 0.243,1.41 -0.282,1.089 -0.766,0.764 -0.846,1.169 -0.644,0.928 0.362,0.604 -0.404,0.967 z"
           inkscape:connector-curvature="0"
           style="fill:#1f2d41;fill-opacity:1" />
        <path
           id="path4166-7"
           d="m 112.828,165.15 -1.848,-1.156 0.229,-0.925 -1.502,-2.889 -0.922,-0.115 -1.158,-4.852 -3.12,-4.739 0.348,-3.12 2.657,-3.351 -1.155,-2.543 0.462,-1.733 -1.85,-2.889 -3.93,-5.201 1.389,-5.084 -1.504,-2.311 -3.928,0.114 -1.272,-0.575 -1.617,-2.312 -6.818,1.27 -1.502,0.809 -2.196,-0.923 -5.432,0.923 -5.431,-4.968 -3.812,-2.543 -3.12,-1.155 1.962,-6.357 1.85,-4.391 -0.578,-4.507 1.271,-3.004 1.85,-1.387 0.345,-1.847 2.427,-2.197 4.276,-2.079 1.272,-4.278 2.312,-1.385 1.848,-1.733 1.618,0.923 1.966,0.464 2.424,-1.042 2.775,-1.153 h 4.044 l 2.773,0.461 1.502,-0.809 1.734,0.462 -1.156,3.35 1.04,0.926 4.276,1.617 1.735,1.272 3.12,1.04 1.385,-0.809 -0.345,-1.503 0.808,-1.156 4.276,0.925 4.738,0.462 1.964,-0.231 2.312,0.462 4.161,7.05 1.502,2.312 1.385,0.923 1.502,4.045 1.735,1.27 1.618,2.658 2.195,1.735 2.658,2.426 0.924,1.271 1.156,-1.039 1.617,-0.232 1.041,-1.272 2.773,-1.965 v 4.624 l -2.427,6.471 -4.16,6.126 -4.623,5.892 -1.039,3.928 0.691,4.508 0.233,5.315 -3.005,2.658 -3.004,1.851 -1.849,1.847 0.463,2.89 -0.811,1.503 -3.466,1.731 -0.462,2.083 -2.31,1.847 -3.93,3.235 -3.582,1.733 -3.581,1.504 z"
           inkscape:connector-curvature="0"
           style="fill:#1f2d41;fill-opacity:1" />
        <path
           id="path4168-0"
           d="m 107.741,79.062 -1.39,0.511 -1.145,0.172 -0.147,0.608 1.634,0.585 0.853,0.294 0.608,-0.671 -0.285,-0.646"
           inkscape:connector-curvature="0"
           style="fill:#1f2d41;fill-opacity:1" />
        <path
           id="path4170-8"
           d="m 123.683,82.085 0.975,-0.342 0.901,-0.511 1.072,-0.879 v 0.367 l -0.317,0.39 -0.146,0.463 0.195,0.219 0.268,0.438 -0.342,0.293 -0.535,0.244 -0.597,0.39 h -1.474 l -0.342,-0.39"
           inkscape:connector-curvature="0"
           style="fill:#1f2d41;fill-opacity:1" />
        <path
           id="path4172-9"
           d="m 99.826,75.067 -0.295,0.453 0.146,0.454 0.468,0.375 v -0.348 l 0.135,-0.641"
           inkscape:connector-curvature="0"
           style="fill:#1f2d41;fill-opacity:1" />
      </g>
      <path
         inkscape:connector-curvature="0"
         id="path4144-1"
         d="m 519.6581,-195.1031 -84.0625,84.0664 -36.7461,-36.7461 -116.375,116.7656 -40.6191,40.6191 -119.3282,194.834 12.1797,63.3223 223.5254,-223.541 105.8477,105.1191 -222.0235,222.0059 63.3223,12.1816 194.8359,-119.3301 16.4883,-16.4882 222.9395,222.9218 13.9316,-13.8906 517.332,517.33202 18.8067,-18.8066 47.0137,47.01558 v -37.61128 l -28.209,-28.209 56.416,-56.416 L 847.7401,362.85 l 28.252,-28.166 -342.127,-347.4219 85.084,-85.0762 -31.6601,-6.0918 -97.4122,59.6621 -19.3066,19.3067 -22.7891,-22.7891 18.3047,-18.3047 59.6621,-97.4121 z"
         style="fill:#1f2d41;fill-opacity:1;fill-rule:evenodd;stroke:#4c6c9c;stroke-width:25;stroke-linecap:butt;stroke-linejoin:miter;stroke-miterlimit:4;stroke-dasharray:none;stroke-opacity:1" />
      <rect
         ry="0"
         y="-208.73799"
         x="35.453384"
         height="1225.2003"
         width="1417.0933"
         id="rect7773-7-7-6-4"
         style="fill:none;fill-opacity:1;stroke:#ffffff;stroke-width:21.32563591;stroke-miterlimit:4;stroke-dasharray:none" />
      <g
         id="text8022-8-4-1"
         style="font-style:normal;font-variant:normal;font-weight:bold;font-stretch:normal;line-height:0%;font-family:'Concourse C7';-inkscape-font-specification:'Concourse C7, Bold';text-align:start;letter-spacing:0px;word-spacing:0px;writing-mode:lr-tb;text-anchor:start;fill:#ffffff;fill-opacity:1;stroke:none;stroke-width:1.84355628;stroke-miterlimit:4;stroke-dasharray:none"
         transform="scale(1.0000122,0.99998781)"
         aria-label="Practical">
        <path
           id="path1478"
           style="font-size:230.25369263px;line-height:1.25;fill:#ffffff;stroke:none;stroke-width:1.84355628"
           d="m 279.49557,281.58533 q 0,11.51269 -4.60508,21.18334 -4.37482,9.67066 -12.4337,16.80852 -7.82862,7.13787 -19.11105,11.28243 -11.05218,3.91431 -24.4069,3.91431 h -14.04547 v 50.42556 H 161.60568 V 228.62698 h 57.56342 q 28.3212,0 44.20871,13.58497 16.11776,13.35471 16.11776,39.37338 z m -43.74821,0 q 0,-9.21015 -5.98659,-13.81522 -5.75634,-4.60507 -14.50598,-4.60507 h -10.36142 v 37.99186 h 10.36142 q 3.68405,0 7.36811,-1.15127 3.68406,-1.38153 6.44711,-3.68406 2.9933,-2.53279 4.83532,-6.21685 1.84203,-3.68406 1.84203,-8.51939 z" />
        <path
           id="path1480"
           style="font-size:230.25369263px;line-height:1.25;fill:#ffffff;stroke:none;stroke-width:1.84355628"
           d="m 387.27588,339.37901 34.07754,43.97845 v 1.84203 H 373.2304 l -28.78171,-41.44566 h -1.84203 v 41.44566 H 301.16099 V 265.46757 h 55.49114 q 11.28244,0 20.49258,2.9933 9.4404,2.9933 16.11776,8.51939 6.67736,5.29583 10.36142,12.8942 3.91431,7.59838 3.91431,17.03878 0,12.20344 -5.75634,20.03207 -5.75634,7.59837 -14.50598,11.51268 z m -23.02537,-30.16324 q 0,-5.98659 -3.68406,-8.74964 -3.45381,-2.76304 -7.36812,-2.76304 h -10.59167 v 22.33461 h 10.82192 q 4.83533,0 7.82863,-2.9933 2.9933,-2.9933 2.9933,-7.82863 z" />
        <path
           id="path1482"
           style="font-size:230.25369263px;line-height:1.25;fill:#ffffff;stroke:none;stroke-width:1.84355628"
           d="m 524.24446,370.233 h -38.68262 l -5.52609,14.96649 h -45.59023 l 52.03734,-119.73192 h 36.84059 l 52.49784,119.73192 h -45.59023 z m -31.3145,-29.24222 h 23.25562 l -10.82192,-29.70272 h -0.92101 z" />
        <path
           id="path1484"
           style="font-size:230.25369263px;line-height:1.25;fill:#ffffff;stroke:none;stroke-width:1.84355628"
           d="m 691.03806,342.83281 12.66395,30.62375 q -8.74964,7.13786 -20.95308,11.28243 -11.9732,3.91431 -25.09766,3.91431 -16.34801,0 -29.01196,-4.83533 -12.66395,-4.83533 -21.4136,-13.12446 -8.74964,-8.51939 -13.35471,-19.57156 -4.60507,-11.28243 -4.60507,-23.94639 0,-15.42699 5.52609,-27.40019 5.75634,-12.20344 14.96649,-20.49258 9.4404,-8.51938 21.64384,-12.8942 12.20345,-4.37482 25.55816,-4.37482 15.19675,0 26.47918,4.37482 11.51268,4.14456 19.57156,10.13116 l -12.66395,31.77501 h -1.15127 q -4.83533,-3.68406 -12.4337,-6.90761 -7.36812,-3.22355 -15.65725,-2.9933 -5.75634,0 -10.82192,1.61178 -5.06559,1.61177 -8.9799,5.06558 -3.91431,3.22355 -6.21685,8.28913 -2.30254,5.06558 -2.30254,12.20345 0,6.4471 2.07229,11.51268 2.30253,4.83533 5.98659,8.28913 3.91432,3.45381 8.74964,5.29584 5.06559,1.61178 10.82193,1.61178 8.74964,0 15.8875,-2.5328 7.13787,-2.53279 13.58497,-6.90761 z" />
        <path
           id="path1486"
           style="font-size:230.25369263px;line-height:1.25;fill:#ffffff;stroke:none;stroke-width:1.84355628"
           d="m 802.95934,300.00563 v 85.19386 H 760.3624 v -85.19386 h -35.91957 v -34.53806 h 114.20583 v 34.53806 z" />
        <path
           id="path1488"
           style="font-size:230.25369263px;line-height:1.25;fill:#ffffff;stroke:none;stroke-width:1.84355628"
           d="m 912.70039,385.19949 h -43.7482 V 265.46757 h 43.7482 z" />
        <path
           id="path1490"
           style="font-size:230.25369263px;line-height:1.25;fill:#ffffff;stroke:none;stroke-width:1.84355628"
           d="m 1043.1643,342.83281 12.6639,30.62375 q -8.7496,7.13786 -20.9531,11.28243 -11.9731,3.91431 -25.0976,3.91431 -16.34802,0 -29.01197,-4.83533 -12.66395,-4.83533 -21.41359,-13.12446 -8.74964,-8.51939 -13.35472,-19.57156 -4.60507,-11.28243 -4.60507,-23.94639 0,-15.42699 5.52609,-27.40019 5.75634,-12.20344 14.96649,-20.49258 9.4404,-8.51938 21.64384,-12.8942 12.20345,-4.37482 25.55813,-4.37482 15.1968,0 26.4792,4.37482 11.5127,4.14456 19.5716,10.13116 l -12.664,31.77501 h -1.1513 q -4.8353,-3.68406 -12.4336,-6.90761 -7.3682,-3.22355 -15.6573,-2.9933 -5.7563,0 -10.8219,1.61178 -5.06561,1.61177 -8.97992,5.06558 -3.91431,3.22355 -6.21685,8.28913 -2.30253,5.06558 -2.30253,12.20345 0,6.4471 2.07228,11.51268 2.30254,4.83533 5.98659,8.28913 3.91432,3.45381 8.74963,5.29584 5.0656,1.61178 10.8219,1.61178 8.7497,0 15.8875,-2.5328 7.1379,-2.53279 13.585,-6.90761 z" />
        <path
           id="path1492"
           style="font-size:230.25369263px;line-height:1.25;fill:#ffffff;stroke:none;stroke-width:1.84355628"
           d="m 1161.9392,370.233 h -38.6826 l -5.5261,14.96649 h -45.5902 l 52.0373,-119.73192 h 36.8406 l 52.4979,119.73192 h -45.5903 z m -31.3145,-29.24222 h 23.2556 l -10.8219,-29.70272 h -0.921 z" />
        <path
           id="path1494"
           style="font-size:230.25369263px;line-height:1.25;fill:#ffffff;stroke:none;stroke-width:1.84355628"
           d="m 1278.7139,350.66144 h 47.6625 v 34.53805 H 1236.117 V 265.46757 h 42.5969 z" />
      </g>
      <g
         id="text8030-2-3-2"
         style="font-style:normal;font-variant:normal;font-weight:bold;font-stretch:normal;line-height:0%;font-family:'Concourse C7';-inkscape-font-specification:'Concourse C7, Bold';text-align:start;letter-spacing:0px;word-spacing:0px;writing-mode:lr-tb;text-anchor:start;fill:#ffffff;fill-opacity:1;stroke:none;stroke-width:1.8435564;stroke-miterlimit:4;stroke-dasharray:none"
         transform="scale(1.0001729,0.99982713)"
         aria-label="A">
        <path
           id="path1475"
           style="font-size:365.91473389px;line-height:1.25"
           d="m 784.85361,130.47362 h -82.69673 l -15.0025,39.15288 h -69.5238 l 96.23557,-248.822024 h 58.54636 L 870.11175,169.6265 h -69.5238 z M 721.18445,78.513727 h 44.27568 L 745.33482,8.9899272 h -3.29323 z" />
      </g>
      <g
         id="text8026-4-1-4"
         style="font-style:normal;font-variant:normal;font-weight:bold;font-stretch:normal;line-height:0%;font-family:'Concourse C7';-inkscape-font-specification:'Concourse C7, Bold';text-align:start;letter-spacing:0px;word-spacing:0px;writing-mode:lr-tb;text-anchor:start;fill:#ffffff;fill-opacity:1;stroke:none;stroke-width:1.8435564;stroke-miterlimit:4;stroke-dasharray:none"
         transform="scale(1.0001729,0.99982713)"
         aria-label="Series">
        <path
           id="path1497"
           style="font-size:365.9140625px;line-height:1.25;fill:#ffffff;stroke:none;stroke-width:1.8435564"
           d="m 181.69852,618.0497 q 15.00248,11.34333 32.56636,17.92978 17.92978,6.22054 34.39592,6.22054 16.46613,0 23.4185,-4.39096 7.31828,-4.75689 7.31828,-11.34334 0,-4.02506 -2.92731,-7.31828 -2.92732,-3.29323 -7.6842,-6.22054 -4.75688,-2.92731 -10.97742,-5.48871 -6.22054,-2.92731 -13.17291,-6.22054 -18.66161,-8.41602 -32.93226,-17.19796 -13.90474,-9.14785 -23.4185,-19.39345 -9.51377,-10.24559 -14.27065,-22.68667 -4.75688,-12.44108 -4.75688,-28.17538 0,-13.17291 5.48871,-25.61399 5.85462,-12.44107 16.83204,-22.32075 10.97743,-9.87968 26.71173,-15.73431 16.10022,-6.22054 36.59141,-6.22054 26.34581,0 47.56882,6.58646 21.58893,6.22053 40.61647,16.83204 l -18.66162,60.37582 q -17.19796,-11.34333 -34.03001,-16.83204 -16.46613,-5.48872 -31.83452,-5.48872 -8.41603,0 -14.63657,2.5614 -5.85462,2.19549 -5.85462,9.51377 0,4.39097 3.65914,8.41602 4.02506,3.65914 10.61151,7.6842 6.58645,4.02505 15.00247,8.05011 8.78194,4.02505 18.66162,8.78193 19.39345,9.51377 31.46861,19.39345 12.44108,9.51377 19.02753,19.75936 6.95237,9.87968 9.51377,20.49119 2.5614,10.24559 2.5614,20.49118 0,20.12528 -8.41603,34.03001 -8.41602,13.90474 -21.95484,22.68667 -13.53882,8.78194 -30.73678,12.44108 -16.83205,4.02506 -33.6641,4.02506 -27.80946,0 -52.69162,-7.31828 -24.88216,-7.6842 -39.51872,-19.02754 z" />
        <path
           id="path1499"
           style="font-size:365.9140625px;line-height:1.25;fill:#ffffff;stroke:none;stroke-width:1.8435564"
           d="m 549.49361,560.9671 h -83.4284 v 20.8571 h 70.62141 v 42.44603 h -70.62141 v 20.85711 h 85.25797 v 53.05754 H 398.37111 V 507.90956 h 151.1225 z" />
        <path
           id="path1501"
           style="font-size:365.9140625px;line-height:1.25;fill:#ffffff;stroke:none;stroke-width:1.8435564"
           d="m 743.90831,625.36798 54.15529,69.88958 v 2.92732 H 721.58756 L 675.8483,632.32034 h -2.92731 v 65.86454 H 607.05645 V 507.90956 h 88.18529 q 17.92979,0 32.56636,4.75689 15.00247,4.75688 25.61398,13.53882 10.61151,8.41602 16.46613,20.49118 6.22054,12.07517 6.22054,27.07764 0,19.39345 -9.14785,31.83453 -9.14785,12.07516 -23.05259,18.2957 z m -36.5914,-47.93475 q 0,-9.51376 -5.85463,-13.90473 -5.48871,-4.39097 -11.70925,-4.39097 h -16.83204 v 35.49367 h 17.19796 q 7.68419,0 12.44107,-4.75689 4.75689,-4.75688 4.75689,-12.44108 z" />
        <path
           id="path1503"
           style="font-size:365.9140625px;line-height:1.25;fill:#ffffff;stroke:none;stroke-width:1.8435564"
           d="M 905.67666,698.18488 H 836.15299 V 507.90956 h 69.52367 z" />
        <path
           id="path1505"
           style="font-size:365.9140625px;line-height:1.25;fill:#ffffff;stroke:none;stroke-width:1.8435564"
           d="m 1113.3729,560.9671 h -83.4284 v 20.8571 h 70.6214 v 42.44603 h -70.6214 v 20.85711 h 85.2579 v 53.05754 H 962.25036 V 507.90956 h 151.12254 z" />
        <path
           id="path1507"
           style="font-size:365.9140625px;line-height:1.25;fill:#ffffff;stroke:none;stroke-width:1.8435564"
           d="m 1167.7283,631.58852 q 13.9047,7.31828 33.2982,12.80699 19.7593,5.48871 39.5187,5.48871 10.9774,0 15.7343,-1.82957 4.7569,-2.19549 4.7569,-6.22054 0,-4.39097 -8.0501,-6.95237 -7.6842,-2.92731 -24.1504,-8.41602 -19.7593,-6.58645 -32.5663,-13.53882 -12.4411,-6.95237 -19.7594,-14.63656 -7.3183,-8.05011 -10.2456,-17.19796 -2.5614,-9.14786 -2.5614,-20.12528 0,-10.61151 5.1228,-21.22301 5.1228,-10.61151 15.0025,-18.66162 9.8797,-8.41602 24.1503,-13.53882 14.6366,-5.1228 33.2982,-5.1228 24.5162,0 45.0074,4.75688 20.4912,4.75689 34.7619,12.807 l -10.9775,52.69162 q -22.6866,-9.14785 -38.4209,-12.80699 -15.3684,-3.65914 -28.9072,-3.65914 -8.4161,0 -11.7093,2.19548 -3.2932,2.19549 -3.2932,4.39097 0,1.82957 1.4636,3.29323 1.4637,1.46366 5.1228,3.29323 3.6592,1.82957 9.8797,4.02505 6.5865,2.19548 16.1002,5.1228 20.1253,5.85462 32.9323,12.80699 12.807,6.95237 20.1253,15.36839 7.3183,8.05011 9.8797,17.19796 2.9273,9.14785 2.9273,19.39345 0,12.44107 -6.2206,23.4185 -5.8546,10.97742 -17.1979,19.39344 -11.3434,8.05011 -27.8095,12.80699 -16.1002,4.75689 -36.5914,4.75689 -12.807,0 -25.2481,-1.82957 -12.4411,-1.82957 -23.4185,-4.75689 -10.9774,-3.29322 -19.7593,-6.95236 -8.782,-3.65914 -13.5389,-7.6842 z" />
      </g>
      <g
         id="text8034-3-5-5"
         style="font-style:normal;font-variant:normal;font-weight:bold;font-stretch:normal;line-height:0%;font-family:'Concourse C7';-inkscape-font-specification:'Concourse C7, Bold';text-align:start;letter-spacing:0px;word-spacing:0px;writing-mode:lr-tb;text-anchor:start;fill:#ffffff;fill-opacity:1;stroke:none;stroke-width:1.51330853;stroke-miterlimit:4;stroke-dasharray:none"
         transform="scale(1.0000122,0.99998781)"
         aria-label="Publication">
        <path
           id="path1510"
           style="font-size:189.00874329px;line-height:1.25;fill:#ffffff;stroke:none;stroke-width:1.51330853"
           d="m 258.24716,805.2535 q 0,9.45044 -3.78017,17.3888 -3.59117,7.93837 -10.20648,13.79764 -6.42629,5.85927 -15.68772,9.26143 -9.07242,3.21315 -20.03493,3.21315 h -11.52953 v 41.39291 H 161.47468 V 761.78149 h 47.25219 q 23.24808,0 36.28968,11.15151 13.23061,10.96251 13.23061,32.3205 z m -35.91166,0 q 0,-7.56035 -4.91423,-11.34052 -4.72522,-3.78018 -11.90755,-3.78018 h -8.50539 v 31.18644 h 8.50539 q 3.02414,0 6.04828,-0.94504 3.02414,-1.13405 5.29225,-3.02414 2.45711,-2.0791 3.96918,-5.10324 1.51207,-3.02414 1.51207,-6.99332 z" />
        <path
           id="path1512"
           style="font-size:189.00874329px;line-height:1.25;fill:#ffffff;stroke:none;stroke-width:1.51330853"
           d="m 378.00782,853.07271 q 0,7.56035 -3.21314,14.74268 -3.02414,7.18234 -9.26143,12.8526 -6.23729,5.67026 -15.49872,9.07242 -9.07242,3.40216 -21.16898,3.40216 -12.85259,0 -22.11402,-3.40216 -9.26143,-3.40216 -15.30971,-9.07242 -6.04828,-5.67026 -8.88341,-12.8526 -2.83513,-7.18233 -2.83513,-14.74268 v -61.04982 h 34.96662 v 56.3246 q 0,8.12738 3.96918,11.71855 3.96918,3.59116 10.20647,3.59116 5.85927,0 10.01747,-3.59116 4.15819,-3.59117 4.15819,-11.71855 v -56.3246 h 34.96661 z" />
        <path
           id="path1514"
           style="font-size:189.00874329px;line-height:1.25;fill:#ffffff;stroke:none;stroke-width:1.51330853"
           d="m 479.49076,840.22012 q 8.6944,1.51207 13.98664,8.12737 5.29225,6.61531 5.29225,15.1207 0,12.47458 -10.96251,19.65691 -10.96251,7.18233 -30.2414,7.18233 h -51.22137 v -98.28454 h 48.95327 q 11.15151,0 18.71186,2.2681 7.56035,2.0791 12.09656,5.67026 4.72522,3.40216 6.61531,7.93837 2.07909,4.53621 2.07909,9.07242 0,7.37134 -3.40215,13.23061 -3.21315,5.85927 -11.90755,9.26143 z m -38.17977,10.39548 v 15.49871 h 12.85259 q 4.34721,0 6.23729,-2.07909 2.0791,-2.0791 2.0791,-5.48125 0,-3.96919 -2.64612,-5.85928 -2.45712,-2.07909 -6.4263,-2.07909 z m 0,-34.39959 v 15.49871 h 10.96251 q 4.3472,0 6.23729,-2.07909 2.07909,-2.0791 2.07909,-5.48126 0,-3.96918 -2.64612,-5.85927 -2.45711,-2.07909 -6.4263,-2.07909 z" />
        <path
           id="path1516"
           style="font-size:189.00874329px;line-height:1.25;fill:#ffffff;stroke:none;stroke-width:1.51330853"
           d="M 556.48819,861.95612 H 595.613 v 28.35131 h -74.09143 v -98.28454 h 34.96662 z" />
        <path
           id="path1518"
           style="font-size:189.00874329px;line-height:1.25;fill:#ffffff;stroke:none;stroke-width:1.51330853"
           d="m 654.72844,890.30743 h -35.91167 v -98.28454 h 35.91167 z" />
        <path
           id="path1520"
           style="font-size:189.00874329px;line-height:1.25;fill:#ffffff;stroke:none;stroke-width:1.51330853"
           d="m 761.82256,855.52983 10.39548,25.13816 q -7.18233,5.85927 -17.1998,9.26143 -9.82845,3.21315 -20.60195,3.21315 -13.41962,0 -23.8151,-3.96919 -10.39548,-3.96918 -17.57782,-10.7735 -7.18233,-6.99332 -10.9625,-16.06574 -3.78018,-9.26143 -3.78018,-19.65691 0,-12.66359 4.53621,-22.49204 4.72522,-10.01746 12.28557,-16.82178 7.74936,-6.99332 17.76682,-10.58449 10.01747,-3.59116 20.97997,-3.59116 12.47458,0 21.73601,3.59116 9.45044,3.40216 16.06574,8.31639 l -10.39548,26.0832 h -0.94504 q -3.96919,-3.02414 -10.20648,-5.67026 -6.04827,-2.64612 -12.85259,-2.45711 -4.72522,0 -8.88341,1.32306 -4.15819,1.32306 -7.37134,4.15819 -3.21315,2.64612 -5.10324,6.80432 -1.89008,4.15819 -1.89008,10.01746 0,5.29224 1.70107,9.45044 1.89009,3.96918 4.91423,6.80431 3.21315,2.83513 7.18233,4.3472 4.1582,1.32306 8.88341,1.32306 7.18234,0 13.04161,-2.07909 5.85927,-2.0791 11.15151,-5.67026 z" />
        <path
           id="path1522"
           style="font-size:189.00874329px;line-height:1.25;fill:#ffffff;stroke:none;stroke-width:1.51330853"
           d="M 859.32157,878.02187 H 827.5681 l -4.53621,12.28556 h -37.42373 l 42.71597,-98.28454 h 30.2414 l 43.094,98.28454 h -37.42374 z m -25.70519,-24.00411 h 19.08988 l -8.88341,-24.38213 h -0.75604 z" />
        <path
           id="path1524"
           style="font-size:189.00874329px;line-height:1.25;fill:#ffffff;stroke:none;stroke-width:1.51330853"
           d="m 972.93354,820.3742 v 69.93323 H 937.96693 V 820.3742 h -29.48537 v -28.35131 h 93.74834 v 28.35131 z" />
        <path
           id="path1526"
           style="font-size:189.00874329px;line-height:1.25;fill:#ffffff;stroke:none;stroke-width:1.51330853"
           d="m 1063.0169,890.30743 h -35.9117 v -98.28454 h 35.9117 z" />
        <path
           id="path1528"
           style="font-size:189.00874329px;line-height:1.25;fill:#ffffff;stroke:none;stroke-width:1.51330853"
           d="m 1199.9744,841.73219 q 0,10.01746 -4.1582,19.4679 -3.9692,9.26143 -11.3405,16.44376 -7.3714,6.99332 -17.9559,11.34052 -10.3954,4.1582 -23.437,4.1582 -13.2307,0 -23.8151,-3.96919 -10.3955,-3.96918 -17.7669,-10.96251 -7.1823,-6.99332 -11.1515,-16.25475 -3.7802,-9.45043 -3.7802,-20.22393 0,-12.09656 4.5363,-21.73601 4.7252,-9.82845 12.4745,-16.63277 7.9384,-6.80431 18.1449,-10.39548 10.3955,-3.78017 21.736,-3.78017 10.9625,0 21.169,3.59116 10.3954,3.59117 18.1448,10.39548 7.7494,6.80432 12.4746,16.63277 4.7252,9.63945 4.7252,21.92502 z m -36.4787,-0.37802 q 0,-5.48125 -1.7011,-9.63945 -1.7011,-4.15819 -4.5362,-6.99332 -2.8351,-2.83513 -6.6153,-4.15819 -3.5912,-1.51207 -7.7493,-1.51207 -3.9692,0 -7.7494,1.32306 -3.7802,1.32306 -6.6153,4.15819 -2.8351,2.64612 -4.5362,6.99332 -1.7011,4.1582 -1.7011,9.82846 0,10.01746 5.6703,16.06574 5.6702,5.85927 15.1207,5.85927 8.5054,0 14.3646,-5.48125 6.0483,-5.67026 6.0483,-16.44376 z" />
        <path
           id="path1530"
           style="font-size:189.00874329px;line-height:1.25;fill:#ffffff;stroke:none;stroke-width:1.51330853"
           d="m 1290.5952,837.95201 h 1.512 v -45.92912 h 34.3996 v 98.28454 h -22.681 l -45.3621,-45.17309 h -1.5121 v 45.17309 h -34.3996 v -98.28454 h 22.6811 z" />
      </g>
    </g>
  </g>
</svg>
