<svg xmlns="http://www.w3.org/2000/svg" width="1488" height="1619" xmlns:xlink="http://www.w3.org/1999/xlink"><defs><marker id="b" orient="auto" overflow="visible"><path fill="#f00" fill-rule="evenodd" stroke="#f00" stroke-width=".375" d="M5.23 2.42L-1.32.02 5.23-2.4C4.18-.98 4.2.97 5.23 2.42z" stroke-linejoin="round"/></marker><marker orient="auto" overflow="visible"><path fill-rule="evenodd" stroke="#000" stroke-width=".8pt" d="M-4.62 0L2.3-4v8l-6.92-4z"/></marker><marker orient="auto" overflow="visible"><path fill="#c00000" fill-rule="evenodd" stroke="#c00000" stroke-width=".8pt" d="M-4.62 0L2.3-4v8l-6.92-4z"/></marker><marker orient="auto" overflow="visible"><path fill-rule="evenodd" stroke="#000" stroke-width=".6875" d="M10.7 4.44L-1.34.02 10.7-4.4c-1.93 2.6-1.92 6.18 0 8.84z" stroke-linejoin="round"/></marker><marker orient="auto" overflow="visible"><path fill-rule="evenodd" stroke="#000" stroke-width=".4pt" d="M2.3 0l-3.45 2v-4L2.3 0z"/></marker><marker orient="auto" overflow="visible"><path fill-rule="evenodd" stroke="#000" stroke-width=".4pt" d="M2.3 0l-3.45 2v-4L2.3 0z"/></marker><marker orient="auto" overflow="visible"><path fill-rule="evenodd" stroke="#000" stroke-width=".4pt" d="M2.3 0l-3.45 2v-4L2.3 0z"/></marker><marker orient="auto" overflow="visible"><path fill-rule="evenodd" stroke="#000" stroke-width=".8pt" d="M4.62 0L-2.3 4v-8l6.92 4z"/></marker><marker id="c" orient="auto" overflow="visible"><path fill="#f00" fill-rule="evenodd" stroke="#f00" stroke-width=".375" d="M-5.23-2.42l6.55 2.4-6.55 2.42c1.05-1.42 1.04-3.37 0-4.82z" stroke-linejoin="round"/></marker><marker orient="auto" overflow="visible"><path fill-rule="evenodd" stroke="#000" stroke-width=".4pt" d="M2.3 0l-3.45 2v-4L2.3 0z"/></marker><marker orient="auto" overflow="visible"><path fill-rule="evenodd" stroke="#000" stroke-width=".8pt" d="M4.62 0L-2.3 4v-8l6.92 4z"/></marker><marker orient="auto" overflow="visible"><path fill-rule="evenodd" stroke="#000" stroke-width=".6875" d="M10.7 4.44L-1.34.02 10.7-4.4c-1.93 2.6-1.92 6.18 0 8.84z" stroke-linejoin="round"/></marker><marker orient="auto" overflow="visible"><path fill-rule="evenodd" stroke="#000" stroke-width=".6875" d="M-10.7-4.44L1.34-.02-10.7 4.4c1.93-2.6 1.92-6.18 0-8.84z" stroke-linejoin="round"/></marker><linearGradient><stop offset="0" stop-color="#4c4c4c"/><stop offset="1" stop-color="#656565"/></linearGradient><linearGradient><stop offset="0" stop-color="#4c4c4c"/><stop offset="1" stop-color="#656565"/></linearGradient><linearGradient><stop offset="0" stop-color="#4c4c4c"/><stop offset="1" stop-color="#656565"/></linearGradient><linearGradient><stop offset="0" stop-color="#4c4c4c"/><stop offset="1" stop-color="#656565"/></linearGradient><linearGradient><stop offset="0" stop-color="#4c4c4c"/><stop offset="1" stop-color="#656565"/></linearGradient><linearGradient><stop offset="0" stop-color="#4c4c4c"/><stop offset="1" stop-color="#656565"/></linearGradient><linearGradient><stop offset="0" stop-color="#4c4c4c"/><stop offset="1" stop-color="#656565"/></linearGradient><linearGradient><stop offset="0" stop-color="#4c4c4c"/><stop offset="1" stop-color="#656565"/></linearGradient><linearGradient><stop offset="0" stop-color="#4c4c4c"/><stop offset="1" stop-color="#656565"/></linearGradient><linearGradient><stop offset="0" stop-color="#4c4c4c"/><stop offset="1" stop-color="#656565"/></linearGradient><linearGradient><stop offset="0" stop-color="#4c4c4c"/><stop offset="1" stop-color="#656565"/></linearGradient><linearGradient><stop offset="0" stop-color="#4c4c4c"/><stop offset="1" stop-color="#656565"/></linearGradient><linearGradient><stop offset="0" stop-color="#4c4c4c"/><stop offset="1" stop-color="#656565"/></linearGradient><linearGradient><stop offset="0" stop-color="#4c4c4c"/><stop offset="1" stop-color="#656565"/></linearGradient><linearGradient><stop offset="0" stop-color="#4c4c4c"/><stop offset="1" stop-color="#656565"/></linearGradient><linearGradient><stop offset="0" stop-color="#4c4c4c"/><stop offset="1" stop-color="#656565"/></linearGradient><linearGradient><stop offset="0" stop-color="#4c4c4c"/><stop offset="1" stop-color="#656565"/></linearGradient><linearGradient><stop offset="0" stop-color="#4c4c4c"/><stop offset="1" stop-color="#656565"/></linearGradient><linearGradient><stop offset="0" stop-color="#4c4c4c"/><stop offset="1" stop-color="#656565"/></linearGradient><linearGradient><stop offset="0" stop-color="#4c4c4c"/><stop offset="1" stop-color="#656565"/></linearGradient><linearGradient><stop offset="0" stop-color="#4c4c4c"/><stop offset="1" stop-color="#656565"/></linearGradient><linearGradient><stop offset="0" stop-color="#4c4c4c"/><stop offset="1" stop-color="#656565"/></linearGradient><linearGradient><stop offset="0" stop-color="#4c4c4c"/><stop offset="1" stop-color="#656565"/></linearGradient><linearGradient><stop offset="0" stop-color="#4c4c4c"/><stop offset="1" stop-color="#656565"/></linearGradient><linearGradient><stop offset="0" stop-color="#4c4c4c"/><stop offset="1" stop-color="#656565"/></linearGradient><linearGradient><stop offset="0" stop-color="#4c4c4c"/><stop offset="1" stop-color="#656565"/></linearGradient><linearGradient><stop offset="0" stop-color="#4c4c4c"/><stop offset="1" stop-color="#656565"/></linearGradient><linearGradient><stop offset="0" stop-color="#4c4c4c"/><stop offset="1" stop-color="#656565"/></linearGradient><linearGradient><stop offset="0" stop-color="#4c4c4c"/><stop offset="1" stop-color="#656565"/></linearGradient><linearGradient><stop offset="0" stop-color="#4c4c4c"/><stop offset="1" stop-color="#656565"/></linearGradient><linearGradient><stop offset="0" stop-color="#4c4c4c"/><stop offset="1" stop-color="#656565"/></linearGradient><linearGradient><stop offset="0" stop-color="#4c4c4c"/><stop offset="1" stop-color="#656565"/></linearGradient><linearGradient><stop offset="0" stop-color="#4c4c4c"/><stop offset="1" stop-color="#656565"/></linearGradient><linearGradient><stop offset="0" stop-color="#4c4c4c"/><stop offset="1" stop-color="#656565"/></linearGradient><linearGradient><stop offset="0" stop-color="#4c4c4c"/><stop offset="1" stop-color="#656565"/></linearGradient><linearGradient><stop offset="0" stop-color="#4c4c4c"/><stop offset="1" stop-color="#656565"/></linearGradient><linearGradient><stop offset="0" stop-color="#4c4c4c"/><stop offset="1" stop-color="#656565"/></linearGradient><linearGradient><stop offset="0" stop-color="#4c4c4c"/><stop offset="1" stop-color="#656565"/></linearGradient><linearGradient><stop offset="0" stop-color="#4c4c4c"/><stop offset="1" stop-color="#656565"/></linearGradient><linearGradient><stop offset="0" stop-color="#4c4c4c"/><stop offset="1" stop-color="#656565"/></linearGradient><linearGradient><stop offset="0" stop-color="#4c4c4c"/><stop offset="1" stop-color="#656565"/></linearGradient><linearGradient><stop offset="0" stop-color="#4c4c4c"/><stop offset="1" stop-color="#656565"/></linearGradient><linearGradient><stop offset="0" stop-color="#4c4c4c"/><stop offset="1" stop-color="#656565"/></linearGradient><linearGradient><stop offset="0" stop-color="#4c4c4c"/><stop offset="1" stop-color="#656565"/></linearGradient><linearGradient><stop offset="0" stop-color="#4c4c4c"/><stop offset="1" stop-color="#656565"/></linearGradient><linearGradient><stop offset="0" stop-color="#4c4c4c"/><stop offset="1" stop-color="#656565"/></linearGradient><linearGradient><stop offset="0" stop-color="#4c4c4c"/><stop offset="1" stop-color="#656565"/></linearGradient><linearGradient><stop offset="0" stop-color="#4c4c4c"/><stop offset="1" stop-color="#656565"/></linearGradient><linearGradient><stop offset="0" stop-color="#4c4c4c"/><stop offset="1" stop-color="#656565"/></linearGradient><linearGradient><stop offset="0" stop-color="#4c4c4c"/><stop offset="1" stop-color="#656565"/></linearGradient><linearGradient><stop offset="0" stop-color="#4c4c4c"/><stop offset="1" stop-color="#656565"/></linearGradient><linearGradient><stop offset="0" stop-color="#4c4c4c"/><stop offset="1" stop-color="#656565"/></linearGradient><linearGradient><stop offset="0" stop-color="#4c4c4c"/><stop offset="1" stop-color="#656565"/></linearGradient><linearGradient><stop offset="0" stop-color="#4c4c4c"/><stop offset="1" stop-color="#656565"/></linearGradient><linearGradient><stop offset="0" stop-color="#4c4c4c"/><stop offset="1" stop-color="#656565"/></linearGradient><linearGradient><stop offset="0" stop-color="#4c4c4c"/><stop offset="1" stop-color="#656565"/></linearGradient><linearGradient><stop offset="0" stop-color="#4c4c4c"/><stop offset="1" stop-color="#656565"/></linearGradient><linearGradient><stop offset="0" stop-color="#4c4c4c"/><stop offset="1" stop-color="#656565"/></linearGradient><linearGradient><stop offset="0" stop-color="#4c4c4c"/><stop offset="1" stop-color="#656565"/></linearGradient><linearGradient><stop offset="0" stop-color="#4c4c4c"/><stop offset="1" stop-color="#656565"/></linearGradient><linearGradient><stop offset="0" stop-color="#4c4c4c"/><stop offset="1" stop-color="#656565"/></linearGradient><linearGradient><stop offset="0" stop-color="#4c4c4c"/><stop offset="1" stop-color="#656565"/></linearGradient><linearGradient><stop offset="0" stop-color="#4c4c4c"/><stop offset="1" stop-color="#656565"/></linearGradient><linearGradient><stop offset="0" stop-color="#4c4c4c"/><stop offset="1" stop-color="#656565"/></linearGradient><linearGradient><stop offset="0" stop-color="#4c4c4c"/><stop offset="1" stop-color="#656565"/></linearGradient><linearGradient><stop offset="0" stop-color="#4c4c4c"/><stop offset="1" stop-color="#656565"/></linearGradient><linearGradient><stop offset="0" stop-color="#4c4c4c"/><stop offset="1" stop-color="#656565"/></linearGradient><linearGradient><stop offset="0" stop-color="#4c4c4c"/><stop offset="1" stop-color="#656565"/></linearGradient><linearGradient><stop offset="0" stop-color="#4c4c4c"/><stop offset="1" stop-color="#656565"/></linearGradient><linearGradient><stop offset="0" stop-color="#4c4c4c"/><stop offset="1" stop-color="#656565"/></linearGradient><linearGradient><stop offset="0" stop-color="#4c4c4c"/><stop offset="1" stop-color="#656565"/></linearGradient><linearGradient><stop offset="0" stop-color="#4c4c4c"/><stop offset="1" stop-color="#656565"/></linearGradient><linearGradient><stop offset="0" stop-color="#4c4c4c"/><stop offset="1" stop-color="#656565"/></linearGradient><linearGradient><stop offset="0" stop-color="#4c4c4c"/><stop offset="1" stop-color="#656565"/></linearGradient><linearGradient><stop offset="0" stop-color="#4c4c4c"/><stop offset="1" stop-color="#656565"/></linearGradient><linearGradient><stop offset="0" stop-color="#4c4c4c"/><stop offset="1" stop-color="#656565"/></linearGradient><linearGradient><stop offset="0" stop-color="#4c4c4c"/><stop offset="1" stop-color="#656565"/></linearGradient><linearGradient><stop offset="0" stop-color="#4c4c4c"/><stop offset="1" stop-color="#656565"/></linearGradient><linearGradient><stop offset="0" stop-color="#4c4c4c"/><stop offset="1" stop-color="#656565"/></linearGradient><linearGradient><stop offset="0" stop-color="#4c4c4c"/><stop offset="1" stop-color="#656565"/></linearGradient><linearGradient><stop offset="0" stop-color="#4c4c4c"/><stop offset="1" stop-color="#656565"/></linearGradient><linearGradient><stop offset="0" stop-color="#4c4c4c"/><stop offset="1" stop-color="#656565"/></linearGradient><linearGradient><stop offset="0" stop-color="#4c4c4c"/><stop offset="1" stop-color="#656565"/></linearGradient><linearGradient><stop offset="0" stop-color="#4c4c4c"/><stop offset="1" stop-color="#656565"/></linearGradient><linearGradient><stop offset="0" stop-color="#4c4c4c"/><stop offset="1" stop-color="#656565"/></linearGradient><linearGradient><stop offset="0" stop-color="#4c4c4c"/><stop offset="1" stop-color="#656565"/></linearGradient><linearGradient><stop offset="0" stop-color="#4c4c4c"/><stop offset="1" stop-color="#656565"/></linearGradient><linearGradient><stop offset="0" stop-color="#4c4c4c"/><stop offset="1" stop-color="#656565"/></linearGradient><linearGradient><stop offset="0" stop-color="#4c4c4c"/><stop offset="1" stop-color="#656565"/></linearGradient><linearGradient><stop offset="0" stop-color="#4c4c4c"/><stop offset="1" stop-color="#656565"/></linearGradient><linearGradient><stop offset="0" stop-color="#4c4c4c"/><stop offset="1" stop-color="#656565"/></linearGradient><linearGradient><stop offset="0" stop-color="#4c4c4c"/><stop offset="1" stop-color="#656565"/></linearGradient><linearGradient><stop offset="0" stop-color="#4c4c4c"/><stop offset="1" stop-color="#656565"/></linearGradient><linearGradient><stop offset="0" stop-color="#4c4c4c"/><stop offset="1" stop-color="#656565"/></linearGradient><linearGradient><stop offset="0" stop-color="#4c4c4c"/><stop offset="1" stop-color="#656565"/></linearGradient><linearGradient><stop offset="0" stop-color="#4c4c4c"/><stop offset="1" stop-color="#656565"/></linearGradient><linearGradient><stop offset="0" stop-color="#4c4c4c"/><stop offset="1" stop-color="#656565"/></linearGradient><linearGradient><stop offset="0" stop-color="#4c4c4c"/><stop offset="1" stop-color="#656565"/></linearGradient><linearGradient><stop offset="0" stop-color="#4c4c4c"/><stop offset="1" stop-color="#656565"/></linearGradient><linearGradient><stop offset="0" stop-color="#4c4c4c"/><stop offset="1" stop-color="#656565"/></linearGradient><linearGradient><stop offset="0" stop-color="#4c4c4c"/><stop offset="1" stop-color="#656565"/></linearGradient><linearGradient><stop offset="0" stop-color="#4c4c4c"/><stop offset="1" stop-color="#656565"/></linearGradient><linearGradient><stop offset="0" stop-color="#4c4c4c"/><stop offset="1" stop-color="#656565"/></linearGradient><linearGradient><stop offset="0" stop-color="#4c4c4c"/><stop offset="1" stop-color="#656565"/></linearGradient><linearGradient><stop offset="0" stop-color="#4c4c4c"/><stop offset="1" stop-color="#656565"/></linearGradient><linearGradient><stop offset="0" stop-color="#4c4c4c"/><stop offset="1" stop-color="#656565"/></linearGradient><linearGradient><stop offset="0" stop-color="#4c4c4c"/><stop offset="1" stop-color="#656565"/></linearGradient><linearGradient><stop offset="0" stop-color="#4c4c4c"/><stop offset="1" stop-color="#656565"/></linearGradient><linearGradient><stop offset="0" stop-color="#4c4c4c"/><stop offset="1" stop-color="#656565"/></linearGradient><linearGradient><stop offset="0" stop-color="#4c4c4c"/><stop offset="1" stop-color="#656565"/></linearGradient><linearGradient><stop offset="0" stop-color="#4c4c4c"/><stop offset="1" stop-color="#656565"/></linearGradient><linearGradient><stop offset="0" stop-color="#4c4c4c"/><stop offset="1" stop-color="#656565"/></linearGradient><linearGradient><stop offset="0" stop-color="#4c4c4c"/><stop offset="1" stop-color="#656565"/></linearGradient><linearGradient><stop offset="0" stop-color="#4c4c4c"/><stop offset="1" stop-color="#656565"/></linearGradient><linearGradient><stop offset="0" stop-color="#4c4c4c"/><stop offset="1" stop-color="#656565"/></linearGradient><linearGradient><stop offset="0" stop-color="#4c4c4c"/><stop offset="1" stop-color="#656565"/></linearGradient><linearGradient><stop offset="0" stop-color="#4c4c4c"/><stop offset="1" stop-color="#656565"/></linearGradient><linearGradient><stop offset="0" stop-color="#4c4c4c"/><stop offset="1" stop-color="#656565"/></linearGradient><linearGradient><stop offset="0" stop-color="#4c4c4c"/><stop offset="1" stop-color="#656565"/></linearGradient><linearGradient><stop offset="0" stop-color="#4c4c4c"/><stop offset="1" stop-color="#656565"/></linearGradient><linearGradient><stop offset="0" stop-color="#4c4c4c"/><stop offset="1" stop-color="#656565"/></linearGradient><linearGradient><stop offset="0" stop-color="#4c4c4c"/><stop offset="1" stop-color="#656565"/></linearGradient><linearGradient><stop offset="0" stop-color="#4c4c4c"/><stop offset="1" stop-color="#656565"/></linearGradient><linearGradient><stop offset="0" stop-color="#4c4c4c"/><stop offset="1" stop-color="#656565"/></linearGradient><linearGradient><stop offset="0" stop-color="#4c4c4c"/><stop offset="1" stop-color="#656565"/></linearGradient><linearGradient><stop offset="0" stop-color="#4c4c4c"/><stop offset="1" stop-color="#656565"/></linearGradient><linearGradient><stop offset="0" stop-color="#4c4c4c"/><stop offset="1" stop-color="#656565"/></linearGradient><linearGradient><stop offset="0" stop-color="#4c4c4c"/><stop offset="1" stop-color="#656565"/></linearGradient><linearGradient><stop offset="0" stop-color="#4c4c4c"/><stop offset="1" stop-color="#656565"/></linearGradient><linearGradient><stop offset="0" stop-color="#4c4c4c"/><stop offset="1" stop-color="#656565"/></linearGradient><linearGradient><stop offset="0" stop-color="#4c4c4c"/><stop offset="1" stop-color="#656565"/></linearGradient><linearGradient><stop offset="0" stop-color="#4c4c4c"/><stop offset="1" stop-color="#656565"/></linearGradient><linearGradient><stop offset="0" stop-color="#4c4c4c"/><stop offset="1" stop-color="#656565"/></linearGradient><linearGradient><stop offset="0" stop-color="#4c4c4c"/><stop offset="1" stop-color="#656565"/></linearGradient><linearGradient><stop offset="0" stop-color="#4c4c4c"/><stop offset="1" stop-color="#656565"/></linearGradient><linearGradient><stop offset="0" stop-color="#4c4c4c"/><stop offset="1" stop-color="#656565"/></linearGradient><linearGradient><stop offset="0" stop-color="#4c4c4c"/><stop offset="1" stop-color="#656565"/></linearGradient><linearGradient><stop offset="0" stop-color="#4c4c4c"/><stop offset="1" stop-color="#656565"/></linearGradient><linearGradient><stop offset="0" stop-color="#4c4c4c"/><stop offset="1" stop-color="#656565"/></linearGradient><linearGradient><stop offset="0" stop-color="#4c4c4c"/><stop offset="1" stop-color="#656565"/></linearGradient><linearGradient><stop offset="0" stop-color="#4c4c4c"/><stop offset="1" stop-color="#656565"/></linearGradient><linearGradient><stop offset="0" stop-color="#4c4c4c"/><stop offset="1" stop-color="#656565"/></linearGradient><linearGradient><stop offset="0" stop-color="#4c4c4c"/><stop offset="1" stop-color="#656565"/></linearGradient><linearGradient><stop offset="0" stop-color="#4c4c4c"/><stop offset="1" stop-color="#656565"/></linearGradient><linearGradient><stop offset="0" stop-color="#4c4c4c"/><stop offset="1" stop-color="#656565"/></linearGradient><linearGradient><stop offset="0" stop-color="#4c4c4c"/><stop offset="1" stop-color="#656565"/></linearGradient><linearGradient><stop offset="0" stop-color="#4c4c4c"/><stop offset="1" stop-color="#656565"/></linearGradient><linearGradient><stop offset="0" stop-color="#4c4c4c"/><stop offset="1" stop-color="#656565"/></linearGradient><linearGradient><stop offset="0" stop-color="#4c4c4c"/><stop offset="1" stop-color="#656565"/></linearGradient><linearGradient><stop offset="0" stop-color="#4c4c4c"/><stop offset="1" stop-color="#656565"/></linearGradient><linearGradient><stop offset="0" stop-color="#4c4c4c"/><stop offset="1" stop-color="#656565"/></linearGradient><linearGradient><stop offset="0" stop-color="#4c4c4c"/><stop offset="1" stop-color="#656565"/></linearGradient><linearGradient><stop offset="0" stop-color="#4c4c4c"/><stop offset="1" stop-color="#656565"/></linearGradient><linearGradient><stop offset="0" stop-color="#4c4c4c"/><stop offset="1" stop-color="#656565"/></linearGradient><linearGradient><stop offset="0" stop-color="#4c4c4c"/><stop offset="1" stop-color="#656565"/></linearGradient><linearGradient><stop offset="0" stop-color="#4c4c4c"/><stop offset="1" stop-color="#656565"/></linearGradient><linearGradient><stop offset="0" stop-color="#4c4c4c"/><stop offset="1" stop-color="#656565"/></linearGradient><linearGradient><stop offset="0" stop-color="#4c4c4c"/><stop offset="1" stop-color="#656565"/></linearGradient><linearGradient><stop offset="0" stop-color="#4c4c4c"/><stop offset="1" stop-color="#656565"/></linearGradient><linearGradient><stop offset="0" stop-color="#4c4c4c"/><stop offset="1" stop-color="#656565"/></linearGradient><linearGradient><stop offset="0" stop-color="#4c4c4c"/><stop offset="1" stop-color="#656565"/></linearGradient><linearGradient><stop offset="0" stop-color="#4c4c4c"/><stop offset="1" stop-color="#656565"/></linearGradient><linearGradient><stop offset="0" stop-color="#4c4c4c"/><stop offset="1" stop-color="#656565"/></linearGradient><linearGradient><stop offset="0" stop-color="#4c4c4c"/><stop offset="1" stop-color="#656565"/></linearGradient><linearGradient><stop offset="0" stop-color="#4c4c4c"/><stop offset="1" stop-color="#656565"/></linearGradient><linearGradient><stop offset="0" stop-color="#4c4c4c"/><stop offset="1" stop-color="#656565"/></linearGradient><linearGradient><stop offset="0" stop-color="#4c4c4c"/><stop offset="1" stop-color="#656565"/></linearGradient><linearGradient><stop offset="0" stop-color="#4c4c4c"/><stop offset="1" stop-color="#656565"/></linearGradient><linearGradient><stop offset="0" stop-color="#4c4c4c"/><stop offset="1" stop-color="#656565"/></linearGradient><linearGradient><stop offset="0" stop-color="#4c4c4c"/><stop offset="1" stop-color="#656565"/></linearGradient><linearGradient><stop offset="0" stop-color="#4c4c4c"/><stop offset="1" stop-color="#656565"/></linearGradient><linearGradient><stop offset="0" stop-color="#4c4c4c"/><stop offset="1" stop-color="#656565"/></linearGradient><linearGradient><stop offset="0" stop-color="#4c4c4c"/><stop offset="1" stop-color="#656565"/></linearGradient><linearGradient><stop offset="0" stop-color="#4c4c4c"/><stop offset="1" stop-color="#656565"/></linearGradient><linearGradient><stop offset="0" stop-color="#4c4c4c"/><stop offset="1" stop-color="#656565"/></linearGradient><linearGradient id="a"><stop offset="0" stop-color="#4887d2"/><stop offset="1" stop-color="#71a2dc"/></linearGradient><linearGradient x1="1975.884" x2="3466.778" y1="-5656.661" y2="-6315.289" xlink:href="#a" gradientUnits="userSpaceOnUse"/><linearGradient x1="1975.884" x2="3466.778" y1="-5656.661" y2="-6315.289" xlink:href="#a" gradientUnits="userSpaceOnUse"/><linearGradient x1="1975.884" x2="3466.778" y1="-5656.661" y2="-6315.289" xlink:href="#a" gradientUnits="userSpaceOnUse" gradientTransform="translate(583.61 3916.609)"/><linearGradient x1="1975.884" x2="3466.778" y1="-5656.661" y2="-6315.289" xlink:href="#a" gradientUnits="userSpaceOnUse" gradientTransform="translate(137.304 1781.357)"/><linearGradient x1="1975.884" x2="3466.778" y1="-5656.661" y2="-6315.289" xlink:href="#a" gradientUnits="userSpaceOnUse" gradientTransform="translate(137.304 1781.357)"/><linearGradient x1="1975.884" x2="3466.778" y1="-5656.661" y2="-6315.289" xlink:href="#a" gradientUnits="userSpaceOnUse"/><linearGradient x1="1975.884" x2="3466.778" y1="-5656.661" y2="-6315.289" xlink:href="#a" gradientUnits="userSpaceOnUse"/><linearGradient x1="1975.884" x2="3466.778" y1="-5656.661" y2="-6315.289" xlink:href="#a" gradientUnits="userSpaceOnUse"/><linearGradient x1="1975.884" x2="3466.778" y1="-5656.661" y2="-6315.289" xlink:href="#a" gradientUnits="userSpaceOnUse" gradientTransform="translate(507.231 -1205.157)"/><linearGradient x1="1975.884" x2="3466.778" y1="-5656.661" y2="-6315.289" xlink:href="#a" gradientUnits="userSpaceOnUse" gradientTransform="translate(953.42 929.153)"/><linearGradient x1="1975.884" x2="3466.778" y1="-5656.661" y2="-6315.289" xlink:href="#a" gradientUnits="userSpaceOnUse" gradientTransform="translate(507.231 -1205.157)"/><marker orient="auto" overflow="visible"><path fill-rule="evenodd" stroke="#000" stroke-width=".8pt" d="M4.62 0L-2.3 4v-8l6.92 4z"/></marker><marker orient="auto" overflow="visible"><path fill-rule="evenodd" stroke="#000" stroke-width=".4pt" d="M2.3 0l-3.45 2v-4L2.3 0z"/></marker><marker orient="auto" overflow="visible"><path fill-rule="evenodd" stroke="#000" stroke-width=".4pt" d="M2.3 0l-3.45 2v-4L2.3 0z"/></marker><marker orient="auto" overflow="visible"><path fill-rule="evenodd" stroke="#000" stroke-width=".4pt" d="M2.3 0l-3.45 2v-4L2.3 0z"/></marker><marker orient="auto" overflow="visible"><path fill-rule="evenodd" stroke="#000" stroke-width=".4pt" d="M2.3 0l-3.45 2v-4L2.3 0z"/></marker><marker orient="auto" overflow="visible"><path fill-rule="evenodd" stroke="#000" stroke-width=".4pt" d="M2.3 0l-3.45 2v-4L2.3 0z"/></marker><marker orient="auto" overflow="visible"><path fill-rule="evenodd" stroke="#000" stroke-width=".4pt" d="M2.3 0l-3.45 2v-4L2.3 0z"/></marker><marker orient="auto" overflow="visible"><path fill-rule="evenodd" stroke="#000" stroke-width=".4pt" d="M2.3 0l-3.45 2v-4L2.3 0z"/></marker><marker orient="auto" overflow="visible"><path fill-rule="evenodd" stroke="#000" stroke-width=".4pt" d="M2.3 0l-3.45 2v-4L2.3 0z"/></marker><marker orient="auto" overflow="visible"><path fill-rule="evenodd" stroke="#000" stroke-width=".4pt" d="M2.3 0l-3.45 2v-4L2.3 0z"/></marker><marker orient="auto" overflow="visible"><path fill-rule="evenodd" stroke="#000" stroke-width=".4pt" d="M2.3 0l-3.45 2v-4L2.3 0z"/></marker><marker orient="auto" overflow="visible"><path fill-rule="evenodd" stroke="#000" stroke-width=".4pt" d="M2.3 0l-3.45 2v-4L2.3 0z"/></marker><marker orient="auto" overflow="visible"><path fill-rule="evenodd" stroke="#000" stroke-width=".4pt" d="M2.3 0l-3.45 2v-4L2.3 0z"/></marker><marker orient="auto" overflow="visible"><path fill-rule="evenodd" stroke="#000" stroke-width=".4pt" d="M2.3 0l-3.45 2v-4L2.3 0z"/></marker><marker orient="auto" overflow="visible"><path fill-rule="evenodd" stroke="#000" stroke-width=".8pt" d="M4.62 0L-2.3 4v-8l6.92 4z"/></marker><marker orient="auto" overflow="visible"><path fill-rule="evenodd" stroke="#000" stroke-width=".8pt" d="M4.62 0L-2.3 4v-8l6.92 4z"/></marker><marker orient="auto" overflow="visible"><path fill="#789440" fill-rule="evenodd" stroke="#789440" stroke-width=".8pt" d="M4.62 0L-2.3 4v-8l6.92 4z"/></marker><marker orient="auto" overflow="visible"><path fill="#789440" fill-rule="evenodd" stroke="#789440" stroke-width=".8pt" d="M4.62 0L-2.3 4v-8l6.92 4z"/></marker><marker orient="auto" overflow="visible"><path fill="#ffc000" fill-rule="evenodd" stroke="#ffc000" stroke-width=".8pt" d="M-4.62 0L2.3-4v8l-6.92-4z"/></marker><marker orient="auto" overflow="visible"><path fill="#ffc000" fill-rule="evenodd" stroke="#ffc000" stroke-width=".4pt" d="M2.3 0l-3.45 2v-4L2.3 0z"/></marker><marker orient="auto" overflow="visible"><path fill-rule="evenodd" stroke="#000" stroke-width=".8pt" d="M4.62 0L-2.3 4v-8l6.92 4z"/></marker><marker orient="auto" overflow="visible"><path fill-rule="evenodd" stroke="#000" stroke-width=".375" d="M5.23 2.42L-1.32.02 5.23-2.4C4.18-.98 4.2.97 5.23 2.42z" stroke-linejoin="round"/></marker><marker orient="auto" overflow="visible"><path fill-rule="evenodd" stroke="#000" stroke-width=".375" d="M5.23 2.42L-1.32.02 5.23-2.4C4.18-.98 4.2.97 5.23 2.42z" stroke-linejoin="round"/></marker><marker orient="auto" overflow="visible"><path fill-rule="evenodd" stroke="#000" stroke-width=".375" d="M5.23 2.42L-1.32.02 5.23-2.4C4.18-.98 4.2.97 5.23 2.42z" stroke-linejoin="round"/></marker><marker orient="auto" overflow="visible"><path fill-rule="evenodd" stroke="#000" stroke-width=".375" d="M5.23 2.42L-1.32.02 5.23-2.4C4.18-.98 4.2.97 5.23 2.42z" stroke-linejoin="round"/></marker><marker orient="auto" overflow="visible"><path fill-rule="evenodd" stroke="#000" stroke-width=".375" d="M5.23 2.42L-1.32.02 5.23-2.4C4.18-.98 4.2.97 5.23 2.42z" stroke-linejoin="round"/></marker><marker orient="auto" overflow="visible"><path fill-rule="evenodd" stroke="#000" stroke-width=".375" d="M5.23 2.42L-1.32.02 5.23-2.4C4.18-.98 4.2.97 5.23 2.42z" stroke-linejoin="round"/></marker><marker orient="auto" overflow="visible"><path fill-rule="evenodd" stroke="#000" stroke-width=".375" d="M5.23 2.42L-1.32.02 5.23-2.4C4.18-.98 4.2.97 5.23 2.42z" stroke-linejoin="round"/></marker><marker orient="auto" overflow="visible"><path fill-rule="evenodd" stroke="#000" stroke-width=".375" d="M5.23 2.42L-1.32.02 5.23-2.4C4.18-.98 4.2.97 5.23 2.42z" stroke-linejoin="round"/></marker><marker orient="auto" overflow="visible"><path fill-rule="evenodd" stroke="#000" stroke-width=".375" d="M5.23 2.42L-1.32.02 5.23-2.4C4.18-.98 4.2.97 5.23 2.42z" stroke-linejoin="round"/></marker><marker id="d" orient="auto" overflow="visible"><path fill="#f00" fill-rule="evenodd" stroke="#f00" stroke-width=".375" d="M5.23 2.42L-1.32.02 5.23-2.4C4.18-.98 4.2.97 5.23 2.42z" stroke-linejoin="round"/></marker><marker id="e" orient="auto" overflow="visible"><path fill="#f00" fill-rule="evenodd" stroke="#f00" stroke-width=".375" d="M-5.23-2.42l6.55 2.4-6.55 2.42c1.05-1.42 1.04-3.37 0-4.82z" stroke-linejoin="round"/></marker><marker id="f" orient="auto" overflow="visible"><path fill="#f00" fill-rule="evenodd" stroke="#f00" stroke-width=".375" d="M5.23 2.42L-1.32.02 5.23-2.4C4.18-.98 4.2.97 5.23 2.42z" stroke-linejoin="round"/></marker><marker id="g" orient="auto" overflow="visible"><path fill="#f00" fill-rule="evenodd" stroke="#f00" stroke-width=".375" d="M-5.23-2.42l6.55 2.4-6.55 2.42c1.05-1.42 1.04-3.37 0-4.82z" stroke-linejoin="round"/></marker><marker id="h" orient="auto" overflow="visible"><path fill="#f00" fill-rule="evenodd" stroke="#f00" stroke-width=".375" d="M5.23 2.42L-1.32.02 5.23-2.4C4.18-.98 4.2.97 5.23 2.42z" stroke-linejoin="round"/></marker><marker orient="auto" overflow="visible"><path fill="#f00" fill-rule="evenodd" stroke="#f00" stroke-width=".375" d="M-5.23-2.42l6.55 2.4-6.55 2.42c1.05-1.42 1.04-3.37 0-4.82z" stroke-linejoin="round"/></marker><marker id="i" orient="auto" overflow="visible"><path fill="#f00" fill-rule="evenodd" stroke="#f00" stroke-width=".375" d="M5.23 2.42L-1.32.02 5.23-2.4C4.18-.98 4.2.97 5.23 2.42z" stroke-linejoin="round"/></marker><marker id="k" orient="auto" overflow="visible"><path fill="#f00" fill-rule="evenodd" stroke="#f00" stroke-width=".375" d="M5.23 2.42L-1.32.02 5.23-2.4C4.18-.98 4.2.97 5.23 2.42z" stroke-linejoin="round"/></marker><marker id="j" orient="auto" overflow="visible"><path fill="#f00" fill-rule="evenodd" stroke="#f00" stroke-width=".375" d="M5.23 2.42L-1.32.02 5.23-2.4C4.18-.98 4.2.97 5.23 2.42z" stroke-linejoin="round"/></marker><marker id="l" orient="auto" overflow="visible"><path fill="#f00" fill-rule="evenodd" stroke="#f00" stroke-width=".375" d="M5.23 2.42L-1.32.02 5.23-2.4C4.18-.98 4.2.97 5.23 2.42z" stroke-linejoin="round"/></marker><marker id="m" orient="auto" overflow="visible"><path fill="#f00" fill-rule="evenodd" stroke="#f00" stroke-width=".375" d="M-5.23-2.42l6.55 2.4-6.55 2.42c1.05-1.42 1.04-3.37 0-4.82z" stroke-linejoin="round"/></marker><marker orient="auto" overflow="visible"><path fill="#f00" fill-rule="evenodd" stroke="#f00" stroke-width=".375" d="M5.23 2.42L-1.32.02 5.23-2.4C4.18-.98 4.2.97 5.23 2.42z" stroke-linejoin="round"/></marker><marker orient="auto" overflow="visible"><path fill="#f00" fill-rule="evenodd" stroke="#f00" stroke-width=".375" d="M-5.23-2.42l6.55 2.4-6.55 2.42c1.05-1.42 1.04-3.37 0-4.82z" stroke-linejoin="round"/></marker><marker orient="auto" overflow="visible"><path fill="#f00" fill-rule="evenodd" stroke="#f00" stroke-width=".375" d="M5.23 2.42L-1.32.02 5.23-2.4C4.18-.98 4.2.97 5.23 2.42z" stroke-linejoin="round"/></marker><marker orient="auto" overflow="visible"><path fill="#f00" fill-rule="evenodd" stroke="#f00" stroke-width=".375" d="M-5.23-2.42l6.55 2.4-6.55 2.42c1.05-1.42 1.04-3.37 0-4.82z" stroke-linejoin="round"/></marker><marker orient="auto" overflow="visible"><path fill="#f00" fill-rule="evenodd" stroke="#f00" stroke-width=".375" d="M5.23 2.42L-1.32.02 5.23-2.4C4.18-.98 4.2.97 5.23 2.42z" stroke-linejoin="round"/></marker><marker orient="auto" overflow="visible"><path fill="#f00" fill-rule="evenodd" stroke="#f00" stroke-width=".375" d="M-5.23-2.42l6.55 2.4-6.55 2.42c1.05-1.42 1.04-3.37 0-4.82z" stroke-linejoin="round"/></marker><marker orient="auto" overflow="visible"><path fill="#f00" fill-rule="evenodd" stroke="#f00" stroke-width=".375" d="M5.23 2.42L-1.32.02 5.23-2.4C4.18-.98 4.2.97 5.23 2.42z" stroke-linejoin="round"/></marker><marker orient="auto" overflow="visible"><path fill="#f00" fill-rule="evenodd" stroke="#f00" stroke-width=".375" d="M5.23 2.42L-1.32.02 5.23-2.4C4.18-.98 4.2.97 5.23 2.42z" stroke-linejoin="round"/></marker><marker orient="auto" overflow="visible"><path fill="#f00" fill-rule="evenodd" stroke="#f00" stroke-width=".375" d="M5.23 2.42L-1.32.02 5.23-2.4C4.18-.98 4.2.97 5.23 2.42z" stroke-linejoin="round"/></marker><marker orient="auto" overflow="visible"><path fill="#f00" fill-rule="evenodd" stroke="#f00" stroke-width=".375" d="M5.23 2.42L-1.32.02 5.23-2.4C4.18-.98 4.2.97 5.23 2.42z" stroke-linejoin="round"/></marker><marker orient="auto" overflow="visible"><path fill="#f00" fill-rule="evenodd" stroke="#f00" stroke-width=".375" d="M5.23 2.42L-1.32.02 5.23-2.4C4.18-.98 4.2.97 5.23 2.42z" stroke-linejoin="round"/></marker><marker orient="auto" overflow="visible"><path fill="#f00" fill-rule="evenodd" stroke="#f00" stroke-width=".375" d="M-5.23-2.42l6.55 2.4-6.55 2.42c1.05-1.42 1.04-3.37 0-4.82z" stroke-linejoin="round"/></marker></defs><g><g><path fill="#fbfaf6" d="M0 0h1488v1619H0z"/><path fill="#fff" d="M94.25 337.5H1369V1571H94.25z"/><path fill="none" stroke="#ededed" stroke-width="2" d="M94.75 337.23V1570"/><path fill="none" stroke="#ededed" stroke-width="2" d="M1368.75 337.23V1570"/><path fill="none" stroke="#ededed" stroke-width="2" d="M1370.25 1570h-1276"/><path fill="#b8cce4" fill-rule="evenodd" stroke="#366092" stroke-width="5" d="M360.5 344h743v1222.5h-743z"/><path fill="#b8cce4" fill-rule="evenodd" stroke="#366092" stroke-width="5" d="M98.25 344h215v1222.5h-215z"/><path fill="#b8cce4" fill-rule="evenodd" stroke="#366092" stroke-width="5" d="M1150.25 344h215v1222.5h-215z"/><path fill="#b8cce4" fill-rule="evenodd" stroke="#366092" stroke-width="5" d="M98.25 51.5h215v215h-215z"/><path fill="#b8cce4" fill-rule="evenodd" stroke="#366092" stroke-width="5" d="M360.5 51.5h215v215h-215z"/><path fill="#b8cce4" fill-rule="evenodd" stroke="#366092" stroke-width="5" d="M624.25 51.5h215v215h-215z"/><path fill="#b8cce4" fill-rule="evenodd" stroke="#366092" stroke-width="5" d="M888.5 51.5h215v215h-215z"/><path fill="#b8cce4" fill-rule="evenodd" stroke="#366092" stroke-width="5" d="M1150.25 51.5h215v215h-215z"/><g style="line-height:125%;-inkscape-font-specification:'Concourse T4, Normal';text-align:center" font-size="45.263" font-family="Concourse T4" letter-spacing="0" word-spacing="0" text-anchor="middle"><path d="M1292.53 521.65q-3.2 0-5.6-1.9-2.4-1.86-3.04-5.48l-12.6 9.64h-.58v-4.78l12.76-9.5v-2.45h-12.76v-4.26h30.78v8.52q0 4.94-2.3 7.56-2.32 2.67-6.67 2.67zm.05-4.34q2.76 0 4.03-1.67 1.32-1.67 1.32-4.4v-4.06h-10.9v4.52q0 2.48 1.26 4.02 1.3 1.6 4.3 1.6z"/><path d="M1291.22 532.44h-20.5v-4.08h19.96l.54 4.08zm7.65-4.75q1.13 0 1.9.75.82.82.82 1.95t-.83 1.9q-.77.82-1.9.82t-1.95-.82q-.76-.77-.76-1.9t.76-1.95q.82-.76 1.95-.76z"/><path d="M1274.16 546.3q0 1.28.5 2.6.5 1.3 1.35 2.34h10.47q.63-.68 1.13-1.76.5-1.1.5-2.4 0-1.36-.64-2.45-.58-1.04-1.67-1.76-1.1-.72-2.6-1.13-1.44-.36-3.1-.36-3.23 0-4.58 1.4-1.36 1.4-1.36 3.53zm-7.52-5.97q-.95 1.23-1.3 2.36-.37 1.12-.37 2.57 0 1.18.32 2.22.3 1.07 1.03 1.9.68.85 1.8 1.35 1.14.5 2.77.5h1.9V551q-.8-.82-1.27-1.68-.45-.8-.68-1.58-.22-.77-.27-1.45-.04-.62-.04-1.12 0-3.67 2.5-5.84 2.52-2.13 7.27-2.13 2.32 0 4.36.65 2.08.67 3.62 1.9 1.54 1.26 2.44 3.03.9 1.8.9 4.07 0 1.27-.5 2.54-.5 1.25-1.53 2.3v.22l1.67 1.5-.32 1.9h-19.92q-2.03 0-3.8-.77-1.8-.77-3.08-2.13-1.3-1.36-2.03-3.2-.77-1.82-.77-3.9 0-2.13.54-3.76.53-1.63 1.53-2.9l3.2 1.58v.1z"/><path d="M1289.14 564.6q1.1 1.18 1.76 2.72.73 1.54.73 3.35 0 1.3-.4 2.45-.42 1.17-1.28 2.03-.86.9-2.2 1.4-1.37.5-3.27.5h-13.76v-4.07h13.26q1.13 0 1.9-.36.77-.32 1.22-.86.5-.55.68-1.18.23-.63.23-1.22 0-1.36-.72-2.67-.68-1.28-1.85-2.32h-14.7v-4.07h30.77l.54 4.08h-12.9v.23z"/><path d="M1298.06 587.95H1291v4.75h-3.17v-4.75h-17.1v-4.08h17.1v-4.07h1.85l1.54 4.07h5.66l1.18 4.08z"/><path d="M1286.02 616.88q1.13-1.45 1.72-2.8.58-1.32.58-2.63 0-1.45-.63-2.17-.6-.68-1.37-.68-.6 0-1.08.36-.46.36-.95 1-.46.63-1 1.5-.5.9-1.1 1.94-1.66 2.85-3.1 3.93-1.46 1.14-3.36 1.14-1.4 0-2.5-.6-1.03-.54-1.75-1.53-.7-.95-1.05-2.22-.37-1.22-.37-2.58 0-2.17.73-4.07.73-1.86 1.77-3l3.04 1.23q-.9 1.32-1.53 2.67-.64 1.36-.64 3.04 0 1.36.6 2.27.63.95 1.7.95.6 0 1.14-.4.55-.37 1.04-1.05.56-.63 1.06-1.5.5-.85 1-1.8.67-1.27 1.3-2.22.68-.95 1.36-1.63.73-.63 1.54-.95.82-.32 1.86-.32 1.13 0 2.12.4 1.04.46 1.8 1.32.78.86 1.24 2.04.45 1.23.45 2.8 0 1.96-.77 3.73-.77 1.8-1.86 3.12l-2.98-1.27z"/><path d="M1291.22 627.12h-20.5v-4.08h19.96l.54 4.08zm7.65-4.75q1.13 0 1.9.76.82.82.82 1.95t-.83 1.9q-.77.82-1.9.82t-1.95-.82q-.76-.77-.76-1.9t.76-1.95q.82-.76 1.95-.76z"/><path d="M1272.66 645.97q-1.44-1.6-2-3.03-.58-1.45-.58-3.08 0-1.72.68-3.22.68-1.44 1.95-2.53 1.32-1.03 3.22-1.62 1.95-.6 4.4-.6 2.3 0 4.34.65 2.08.67 3.62 1.9 1.54 1.26 2.44 3.03.9 1.8.9 4.07 0 1.45-.4 2.45-.4 1.04-1 1.72v.22h11.28l.54 4.08h-31.32v-3l1.94-.85v-.18zm1.04-4.98q0 1.26.5 2.57.55 1.3 1.72 2.35h10.55q.8-.77 1.22-1.9.4-1.08.4-2.26 0-2.76-2.08-4.26-2.04-1.44-5.44-1.44-3.48 0-5.2 1.35-1.68 1.42-1.68 3.6z"/><path d="M1279.72 658.25q-1.76 0-2.98.45-1.18.45-1.9 1.17-.73.77-1.04 1.77-.32 1.04-.32 2.22 0 1.3.6 2.76.62 1.5 1.57 2.5v.12l-3.26.77q-1.05-1.12-1.68-2.88-.64-1.72-.64-3.85 0-1.86.6-3.53.58-1.63 1.8-2.9 1.22-1.27 3.17-2.03 1.95-.72 4.66-.72 2.5 0 4.58.68 2.1.72 3.58 2 1.5 1.26 2.3 2.93.87 1.7.87 3.7 0 1.82-.63 3.26-.64 1.45-1.77 2.45-1.1 1.05-2.58 1.6-1.5.54-3.17.54-.68 0-1.76-.1-1.04-.04-2-.36v-12.53zm2.9 8.96q1.36.2 2.4-.08 1.04-.23 1.77-.82.7-.54 1.07-1.36.4-.77.4-1.63 0-1.03-.44-1.93-.4-.86-1.18-1.54-.77-.63-1.8-1-1-.36-2.23-.4v8.78z"/><path d="M1289.68 679.62q.95 1.13 1.45 2.4.5 1.3.5 3.03 0 1.9-.77 3.44-.77 1.53-2.22 2.62-1.4 1.08-3.4 1.67-1.94.62-4.3.62-2.35 0-4.34-.77-2-.72-3.44-2.08-1.45-1.36-2.26-3.2-.82-1.87-.82-4.08 0-1.87.6-3.95.58-2.08 1.9-4.03h28.92l.54 4.07h-12.36v.22zm-14.98-.23q-.54.67-.8 1.67-.3 1-.3 2.08 0 1.27.47 2.35.45 1.13 1.36 1.95.95.86 2.35 1.3 1.45.5 3.4.5 1.5 0 2.75-.3 1.32-.28 2.22-.9.95-.65 1.45-1.7.54-.98.54-2.48 0-1.26-.63-2.53-.62-1.27-1.3-1.95h-11.5z"/><path d="M1272.4 713.54l-2.36-2.76q.45-.68 1.13-1.27.68-.58 1.72-.94v-.18q-1.4-1.04-2.14-2.62-.68-1.54-.68-3.26 0-1.22.4-2.36.42-1.13 1.2-2 .76-.8 1.9-1.35 1.12-.5 2.57-.5 1.13 0 2.26.4 1.14.46 2.05 1.4.95 1 1.54 2.6.58 1.62.58 3.97 0 .68-.1 1.58-.04.9-.13 1.68h2q1.12 0 1.85-.36.77-.32 1.22-.86.5-.54.68-1.2.22-.7.22-1.33 0-1.3-.54-2.62-.5-1.32-1.45-2.76l3.04-1.37q.86 1.45 1.53 3.26.73 1.8.73 4.24 0 1.27-.36 2.5-.37 1.2-1.18 2.16-.83.95-2.1 1.54-1.2.6-2.98.6h-9.32q-1.18 0-2 .53-.76.6-1.13 1.27h-.18zm7-5.6q.1-.64.2-1.55.08-.9.08-1.77 0-2.18-1-3.3-.95-1.14-2.5-1.14-1.43 0-2.1.9-.7.9-.7 2.2 0 1.6.73 2.82.74 1.22 1.96 1.8h3.35z"/><path d="M1291.36 728.85h-4.26v-1.45q-.13-1-.68-1.94-.5-.95-1.35-1.77-.82-.78-1.9-1.37-1.1-.6-2.36-.86h-10.08v-4.07H1291v3.48l-4.2.37v.3q.9.42 1.7 1.1.87.68 1.45 1.5.64.8 1 1.7.4.96.4 1.9v1.1z"/><path d="M1214.14 449.43h26.9l-.65-5.57 3.66-.27 1.17 9.22-.54.77h-30.56v-4.17z"/><path d="M1224.1 491.2q-2.3 0-4.26-.77-1.94-.72-3.35-2.03-1.4-1.27-2.22-3.04-.77-1.72-.77-3.66 0-2 .78-3.76.8-1.72 2.2-3.03 1.42-1.26 3.36-1.98 1.95-.73 4.26-.73 2.35 0 4.34.67 2.04.72 3.5 1.95 1.48 1.26 2.3 2.98.8 1.72.8 3.72 0 2.2-.85 3.98-.82 1.8-2.27 3.08-1.45 1.26-3.5 1.94-1.98.68-4.33.68zm.04-4.16q3.4 0 5.48-1.5 2.08-1.44 2.08-4.02 0-1.18-.6-2.13-.53-.96-1.57-1.64-1-.68-2.4-1.04-1.36-.36-3-.36-3.3 0-5.28 1.44-2 1.45-2 3.9 0 2.3 1.95 3.8 1.95 1.54 5.34 1.54z"/><path d="M1231.25 501.62h-17.1v-4.07h17.1v-3.85h1.85l1.54 3.85h1.72q2.04 0 3.53.54 1.53.54 2.57 1.3 1.04.82 1.63 1.72.6.96.73 1.72l.63 4.44-2.58.27q-.45-3.08-2.04-4.52-1.53-1.4-4.75-1.4h-1.68v4.97h-3.17v-4.98z"/><path d="M1231.25 520.36l13.67 1.72v16.43l-3.94-.5.45-12.6-6.92-.96q.05.67.05 1.26.05.64.05 1.27 0 3.17-.77 5.52-.77 2.35-2.08 3.88-1.32 1.54-3.08 2.3-1.77.78-3.76.78-2.75 0-4.88-1.22-2.12-1.22-3.62-3.3-1.45-2.04-2.22-4.76-.72-2.7-.72-5.7 0-1.3.1-2.53.08-1.18.4-2.22l3.66.72q-.22.86-.36 2.04-.1 1.2-.1 2.25 0 4.8 2 7.56 2.04 2.77 5.57 2.77 1.67 0 2.9-.77 1.26-.72 2.08-2.12.82-1.4 1.23-3.35.4-1.95.4-4.4 0-1.04-.08-2.08-.05-1.04-.14-1.8l.15-.2z"/><path d="M1229.76 567.65q.86-.95 1.35-2.04.5-1.07.5-2.4 0-1.2-.58-2.3-.54-1.03-1.58-1.8-1-.77-2.5-1.23-1.44-.45-3.2-.45-1.77 0-3.08.4-1.27.46-2.08 1.2-.82.75-1.23 1.75-.36 1-.36 2.17 0 1.54.53 2.72.6 1.22 1.32 2.13l-3.17.9q-.9-1.05-1.54-2.68-.63-1.63-.63-3.35 0-2.08.73-3.85.77-1.72 2.08-2.98 1.37-1.23 3.23-1.9 1.85-.68 4.1-.68 2.5 0 4.6.77 2.07.8 3.56 2.12 1.53 1.32 2.4 3.04.85 1.75.85 3.65 0 2.08-.6 3.44-.58 1.35-1.57 2.7l-3.12-1.35z"/><path d="M1224.1 590.4q-2.3 0-4.26-.78-1.94-.72-3.35-2.04-1.4-1.26-2.22-3.03-.77-1.72-.77-3.67 0-2 .78-3.75.8-1.72 2.2-3.03 1.42-1.27 3.36-2 1.95-.72 4.26-.72 2.35 0 4.34.68 2.04.72 3.5 1.94 1.48 1.27 2.3 3 .8 1.7.8 3.7 0 2.22-.85 4-.82 1.8-2.27 3.06-1.45 1.27-3.5 1.95-1.98.7-4.33.7zm.04-4.17q3.4 0 5.48-1.5 2.08-1.45 2.08-4.03 0-1.17-.6-2.12-.53-.95-1.57-1.63-1-.68-2.4-1.04-1.36-.36-3-.36-3.3 0-5.28 1.45-2 1.44-2 3.88 0 2.3 1.95 3.8 1.95 1.55 5.34 1.55z"/><path d="M1245.46 599.23h-31.32v-4.08h30.78l.54 4.08z"/><path d="M1216.5 617.58q-1.23-1.1-2.13-2.67-.86-1.53-.86-3.66 0-1.22.4-2.4.42-1.13 1.33-2.03.9-.85 2.35-1.4 1.5-.5 3.62-.5h13.22V609h-12.6q-2.6 0-3.65.95-1 1-1 2.58 0 .78.27 1.55.32.8.82 1.5.54.67 1.22 1.2.68.56 1.5.83h13.44v4.07h-20.28v-3.53l2.35-.4v-.14z"/><path d="M1232.1 642.5q1.55 1.8 2.23 3.34.72 1.54.72 3.5 0 1.12-.36 2.25-.37 1.12-1.2 1.98-.8.9-2.07 1.45-1.22.6-3 .6h-14.3v-4.08h13.54q1.13 0 1.86-.36.72-.33 1.13-.87.45-.55.6-1.27.17-.68.17-1.36 0-1.3-.8-2.53-.78-1.23-1.7-2h-14.8v-4.07h13.54q1.13 0 1.86-.36.72-.36 1.13-.95.45-.56.6-1.23.17-.68.17-1.32 0-1.26-.68-2.44-.68-1.17-1.8-2.07h-14.8v-4.08h20.27V630l-1.86.32v.23q1.04 1.22 1.77 2.8.72 1.6.72 3.53 0 1.77-.77 3.13-.77 1.4-2.17 2.27v.22z"/><path d="M1232.56 664.5q1.18 1.44 1.8 3.07.7 1.63.7 3.53 0 1.36-.42 2.5-.4 1.12-1.22 1.94-.8.86-2.13 1.3-1.27.5-3.04.5h-14.12v-4.07h13.08q1.27 0 2.08-.3.86-.33 1.32-.87.45-.5.63-1.18.18-.68.18-1.4 0-1.4-.77-2.76-.72-1.32-1.8-2.1h-14.72v-4.06h20.28v3.35l-1.86.32v.22z"/><path d="M1229.44 693.57q1.13-1.45 1.72-2.8.6-1.32.6-2.63 0-1.45-.65-2.17-.58-.68-1.34-.68-.6 0-1.1.35-.44.36-.94 1-.45.63-1 1.5-.5.9-1.08 1.94-1.68 2.84-3.13 3.92-1.44 1.14-3.34 1.14-1.4 0-2.5-.6-1.03-.54-1.75-1.53-.67-.95-1.03-2.22-.36-1.2-.36-2.57 0-2.17.73-4.07.72-1.86 1.77-3l3.03 1.23q-.9 1.3-1.54 2.66t-.64 3.04q0 1.35.58 2.26.64.95 1.72.95.6 0 1.14-.4.54-.36 1.04-1.04.54-.63 1.04-1.5.5-.85 1-1.8.67-1.27 1.3-2.22.68-.95 1.36-1.63.73-.62 1.54-.94.82-.32 1.86-.32 1.13 0 2.13.4 1.04.46 1.8 1.32.78.86 1.23 2.04.45 1.22.45 2.8 0 1.95-.77 3.72-.77 1.8-1.85 3.12l-3-1.27z"/><path d="M1225.77 721.08l-12.26-4.48v-1.35l20.92-8.1v4.2l-12.72 4.62v.18l13 4.53v1.17l-13 4.35v.18l12.72 4.35v4.2l-20.9-8.1v-1.35l12.25-4.12v-.28z"/><path d="M1234.64 742.8h-20.5v-4.08h19.96l.54 4.07zm7.65-4.76q1.12 0 1.9.77.8.83.8 1.96t-.8 1.9q-.78.8-1.9.8-1.14 0-1.95-.8-.77-.77-.77-1.9t.77-1.95q.8-.76 1.94-.76z"/><path d="M1216.1 761.64q-1.46-1.58-2-3.03-.6-1.44-.6-3.07 0-1.72.68-3.2.68-1.46 1.95-2.54 1.3-1.06 3.2-1.64 1.96-.6 4.4-.6 2.3 0 4.35.64 2.08.68 3.62 1.9 1.54 1.27 2.45 3.03.9 1.82.9 4.08 0 1.46-.4 2.45-.4 1.04-1 1.72v.23h11.27l.54 4.07h-31.32v-2.98l1.95-.87v-.2zm1.03-4.97q0 1.26.5 2.58.54 1.3 1.7 2.35h10.56q.8-.77 1.2-1.9.42-1.1.42-2.27 0-2.76-2.08-4.25-2.04-1.45-5.43-1.45-3.48 0-5.2 1.36-1.67 1.4-1.67 3.57z"/><path d="M1223.15 773.92q-1.77 0-3 .45-1.17.46-1.9 1.18-.72.77-1.03 1.77-.32 1.04-.32 2.2 0 1.33.6 2.77.62 1.5 1.57 2.48v.14l-3.26.77q-1.03-1.14-1.66-2.9-.63-1.73-.63-3.85 0-1.86.6-3.54.58-1.6 1.8-2.88 1.23-1.27 3.17-2.04 1.95-.72 4.67-.72 2.48 0 4.57.68 2.1.72 3.58 2 1.5 1.25 2.3 2.93.87 1.72.87 3.7 0 1.82-.63 3.27-.64 1.45-1.77 2.44-1.08 1.04-2.58 1.6-1.5.53-3.17.53-.68 0-1.76-.08-1.04-.04-2-.36v-12.54zm2.9 8.96q1.35.18 2.4-.1 1.03-.2 1.76-.8.73-.55 1.1-1.36.4-.77.4-1.63 0-1.05-.45-1.96-.4-.86-1.18-1.53-.77-.63-1.8-1-1-.35-2.23-.4v8.78z"/></g><path fill="none" stroke="#ededed" stroke-width="2" d="M1369 338H94"/><g style="line-height:125%;-inkscape-font-specification:'Concourse T4, Normal';text-align:center" font-size="45.263" font-family="Concourse T4" letter-spacing="0" word-spacing="0" text-anchor="middle"><path d="M624.3 577.73q-.55-.36-1.4-.86-.87-.55-2.05-1-1.13-.5-2.54-.8-1.4-.33-2.97-.33-2.18 0-4.17.77-2 .78-3.53 2.36-1.54 1.54-2.5 3.9-.9 2.35-.9 5.52 0 2.58.82 4.8.82 2.17 2.27 3.75 1.5 1.6 3.53 2.5 2.08.85 4.57.85 2.9 0 5.1-.95 2.23-1 4.27-2.26l1.12 3.62q-1.9 1.44-4.7 2.43-2.8 1-5.9 1-3.43 0-6.28-1.22-2.86-1.22-4.94-3.3-2.03-2.12-3.17-4.98-1.13-2.85-1.13-6.06 0-3.94 1.27-7.02 1.27-3.07 3.4-5.2 2.17-2.13 4.97-3.22 2.85-1.13 5.98-1.13 1.58 0 3.03.3 1.5.28 2.76.73 1.32.46 2.37 1 1.04.54 1.72 1.04l-1 3.76z"/><path d="M633.26 593.34q0 1.77.45 3 .46 1.17 1.2 1.9.76.72 1.75 1.03 1.04.32 2.22.32 1.3 0 2.76-.6 1.5-.63 2.5-1.58h.13l.77 3.26q-1.13 1.04-2.9 1.67-1.72.63-3.85.63-1.85 0-3.53-.58-1.63-.6-2.9-1.82-1.26-1.22-2.03-3.16-.73-1.95-.73-4.67 0-2.48.67-4.57.73-2.08 2-3.57 1.26-1.5 2.94-2.3 1.73-.86 3.72-.86 1.8 0 3.26.63 1.45.64 2.44 1.77 1.04 1.08 1.6 2.58.53 1.5.53 3.17 0 .67-.1 1.75-.04 1.04-.35 2h-12.54zm8.96-2.9q.18-1.35-.1-2.4-.22-1.03-.8-1.76-.55-.72-1.36-1.08-.77-.4-1.63-.4-1.04 0-1.95.44-.86.4-1.54 1.18-.63.77-1 1.8-.36 1-.4 2.23h8.78z"/><path d="M654.22 583.93q1.45-1.18 3.08-1.8 1.63-.7 3.53-.7 1.36 0 2.5.42 1.12.4 1.94 1.22.86.8 1.3 2.13.5 1.26.5 3.03v14.12h-4.06v-13.08q0-1.27-.3-2.08-.33-.87-.87-1.33-.5-.45-1.18-.63-.68-.18-1.4-.18-1.4 0-2.76.77-1.32.72-2.1 1.8v14.72h-4.07v-20.28h3.35l.32 1.86h.22z"/><path d="M677.97 575v7.07h4.76v3.17h-4.76v17.1h-4.07v-17.1h-4.07v-1.85l4.07-1.55v-5.66l4.07-1.2z"/><path d="M697.15 581.7v4.27h-1.45q-1 .13-1.95.67-.95.5-1.76 1.36-.78.82-1.37 1.9-.6 1.1-.86 2.36v10.1h-4.08v-20.3h3.48l.36 4.22h.32q.4-.9 1.08-1.72.68-.86 1.5-1.45.8-.62 1.72-.98.95-.4 1.9-.4h1.1z"/><path d="M716.23 600.68l-2.77 2.35q-.67-.45-1.26-1.13-.6-.68-.95-1.72h-.18q-1.05 1.4-2.63 2.12-1.54.68-3.26.68-1.22 0-2.35-.4-1.13-.4-2-1.18-.8-.77-1.35-1.9-.5-1.13-.5-2.58 0-1.13.4-2.26.46-1.14 1.4-2.04 1-.95 2.6-1.54 1.62-.6 3.97-.6.68 0 1.6.1.9.05 1.66.14v-2q0-1.13-.35-1.85-.32-.77-.86-1.22-.55-.5-1.23-.68-.68-.23-1.3-.23-1.33 0-2.64.55-1.3.48-2.76 1.43l-1.36-3.03q1.46-.86 3.27-1.54 1.8-.72 4.26-.72 1.26 0 2.48.36 1.24.36 2.2 1.18.94.8 1.53 2.08.58 1.22.58 3v9.3q0 1.2.56 2 .6.77 1.27 1.13v.18zm-5.62-7.02q-.62-.1-1.53-.18-.9-.1-1.76-.1-2.16 0-3.3 1-1.13.95-1.13 2.5 0 1.44.9 2.12.9.68 2.23.68 1.58 0 2.8-.72 1.22-.73 1.8-1.95v-3.34z"/><path d="M724.84 571.03v31.32h-4.08v-30.78l4.08-.54z"/><path d="M754 586.73q-.96-.86-2.04-1.35-1.1-.5-2.4-.5-1.23 0-2.3.6-1.05.53-1.82 1.57-.77 1-1.22 2.5-.46 1.44-.46 3.2 0 1.77.4 3.08.46 1.27 1.2 2.08.76.83 1.75 1.24 1 .36 2.18.36 1.54 0 2.72-.54 1.22-.6 2.13-1.32l.9 3.17q-1.04.92-2.67 1.55t-3.35.63q-2.07 0-3.83-.72-1.72-.77-3-2.08-1.2-1.36-1.9-3.22-.67-1.85-.67-4.1 0-2.5.77-4.6.8-2.07 2.13-3.56 1.3-1.54 3.03-2.4 1.76-.86 3.66-.86 2.08 0 3.43.6 1.36.58 2.72 1.57l-1.36 3.13z"/><path d="M776.73 592.4q0 2.3-.77 4.25-.72 1.94-2.03 3.35-1.27 1.4-3.04 2.2-1.73.78-3.67.78-2 0-3.76-.77-1.72-.8-3.03-2.2-1.27-1.4-2-3.35-.72-1.95-.72-4.26 0-2.36.68-4.35.72-2.04 1.95-3.5 1.26-1.48 2.98-2.3 1.72-.8 3.72-.8 2.2 0 3.98.85 1.8.8 3.08 2.26 1.27 1.45 1.95 3.5.68 1.98.68 4.33zm-4.16-.05q0-3.4-1.5-5.48-1.44-2.08-4.02-2.08-1.18 0-2.13.58-.95.54-1.63 1.58-.7 1-1.05 2.4-.36 1.36-.36 3 0 3.3 1.43 5.28 1.45 2 3.9 2 2.3 0 3.8-1.95 1.54-1.96 1.54-5.35z"/><path d="M785.57 571.03v31.32h-4.08v-30.78l4.07-.54z"/><path d="M803.92 600q-1.1 1.22-2.67 2.12-1.54.86-3.67.86-1.22 0-2.4-.4-1.13-.4-2.03-1.32-.86-.9-1.4-2.35-.5-1.48-.5-3.6v-13.23h4.07v12.6q0 2.6.95 3.65 1 1 2.58 1 .77 0 1.54-.27.8-.32 1.48-.82.68-.54 1.23-1.22.55-.67.82-1.48v-13.45H808v20.28h-3.54l-.4-2.35h-.14z"/><path d="M828.84 584.38q1.8-1.54 3.35-2.22 1.52-.72 3.47-.72 1.13 0 2.26.36 1.14.36 2 1.18.9.8 1.44 2.08.6 1.22.6 3v14.3h-4.08V588.8q0-1.13-.37-1.86-.32-.72-.86-1.13-.55-.45-1.27-.6-.68-.17-1.36-.17-1.3 0-2.53.8-1.22.78-1.98 1.7v14.8h-4.08V588.8q0-1.13-.36-1.86-.36-.72-.95-1.13-.54-.45-1.22-.6-.67-.17-1.3-.17-1.27 0-2.45.68-1.18.68-2.08 1.8v14.8H813v-20.27h3.34l.32 1.86h.23q1.2-1.04 2.8-1.77 1.58-.72 3.52-.72 1.77 0 3.13.77 1.4.78 2.26 2.18h.24z"/><path d="M850.83 583.93q1.45-1.18 3.08-1.8 1.64-.7 3.54-.7 1.36 0 2.5.42 1.12.4 1.94 1.22.86.8 1.3 2.13.5 1.26.5 3.03v14.12h-4.07v-13.08q0-1.27-.3-2.08-.32-.87-.86-1.33-.5-.45-1.18-.63-.68-.18-1.4-.18-1.4 0-2.76.77-1.32.72-2.1 1.8v14.72h-4.06v-20.28h3.35l.3 1.86h.23z"/><path d="M558.1 654q1.96.9 4 1.4 2.03.5 4.16.5 1.36 0 2.5-.37 1.17-.4 2.03-1.13.9-.77 1.4-1.85.5-1.14.5-2.63 0-2.17-1.55-3.62-1.54-1.5-4.44-1.4l-5.64.18.36-3.94 5.1.18q1.2.05 2.2-.36 1.03-.4 1.8-1.13.77-.73 1.17-1.72.45-1 .45-2.12 0-2.3-1.72-3.62-1.68-1.3-4.53-1.3-1.45 0-3 .4-1.53.4-3.16 1.17l-.18-.14.36-3.63q1-.45 2.72-.9 1.77-.5 3.85-.5 2.07 0 3.88.5 1.86.5 3.2 1.5 1.37.94 2.14 2.44t.77 3.45q0 2.7-1.46 4.6-1.45 1.9-3.9 2.55v.45q1.46.32 2.54 1.1 1.1.7 1.8 1.7.78.96 1.15 2.13.4 1.18.4 2.4 0 2-.58 3.5-.55 1.44-1.5 2.48t-2.17 1.72q-1.18.63-2.45 1-1.22.36-2.4.5-1.17.13-2.08.13-2.3 0-4.2-.45-1.9-.45-3.54-1.22l-.12-3.8.13-.14z"/><path d="M610.3 648.97q0 2.3-.76 4.26-.72 1.94-2.03 3.34-1.26 1.4-3.03 2.22-1.72.76-3.66.76-1.98 0-3.75-.77-1.72-.82-3.03-2.23-1.27-1.4-2-3.34-.72-1.95-.72-4.26 0-2.35.68-4.34.73-2.04 1.95-3.5 1.26-1.48 2.98-2.3 1.73-.8 3.73-.8 2.2 0 3.98.85 1.82.8 3.1 2.26 1.25 1.45 1.93 3.5.68 1.98.68 4.33zm-4.15-.04q0-3.4-1.5-5.48-1.44-2.08-4.02-2.08-1.18 0-2.13.58-.95.55-1.63 1.6-.68.98-1.04 2.4-.36 1.35-.36 2.98 0 3.3 1.44 5.3 1.46 1.98 3.9 1.98 2.32 0 3.8-1.93 1.55-1.95 1.55-5.34z"/><path d="M620.73 641.82v17.1h-4.07v-17.1h-3.85v-1.86l3.86-1.54v-1.72q0-2.03.54-3.53.55-1.53 1.32-2.58.8-1.05 1.72-1.64.95-.58 1.72-.72l4.43-.63.26 2.6q-3.08.44-4.52 2.02-1.4 1.54-1.4 4.76v1.67h4.97v3.17h-4.97z"/><path d="M639.47 641.82l1.72-13.67h16.42l-.5 3.94-12.62-.46-.95 6.92q.68-.05 1.26-.05.65-.03 1.28-.03 3.17 0 5.52.77 2.36.77 3.9 2.08 1.53 1.3 2.3 3.08.77 1.76.77 3.76 0 2.76-1.22 4.88-1.22 2.13-3.3 3.63-2.04 1.44-4.76 2.2-2.72.74-5.7.74-1.32 0-2.54-.08-1.18-.1-2.22-.4l.72-3.68q.86.23 2.04.37 1.22.1 2.26.1 4.8 0 7.56-2 2.76-2.03 2.76-5.56 0-1.68-.77-2.9-.7-1.27-2.1-2.08-1.42-.82-3.36-1.22-1.95-.4-4.4-.4-1.03 0-2.08.08-1.04.04-1.8.13l-.2-.13z"/><path d="M686.76 643.3q-.95-.85-2.04-1.35-1.08-.5-2.4-.5-1.22 0-2.3.6-1.04.54-1.8 1.58-.78 1-1.24 2.5-.45 1.44-.45 3.2 0 1.77.4 3.08.46 1.28 1.2 2.1.76.8 1.75 1.2 1 .38 2.17.38 1.54 0 2.72-.55 1.22-.58 2.13-1.3l.9 3.16q-1.04.9-2.67 1.53t-3.35.63q-2.08 0-3.84-.72-1.72-.77-3-2.08-1.2-1.36-1.9-3.22-.67-1.85-.67-4.12 0-2.5.77-4.57.8-2.08 2.12-3.57 1.32-1.54 3.04-2.4 1.76-.86 3.66-.86 2.1 0 3.44.6 1.36.57 2.72 1.57l-1.36 3.1z"/><path d="M709.5 648.97q0 2.3-.77 4.26-.72 1.94-2.04 3.34-1.27 1.4-3.04 2.22-1.72.76-3.66.76-2 0-3.76-.77-1.72-.82-3.03-2.23-1.26-1.4-2-3.34-.7-1.95-.7-4.26 0-2.35.67-4.34.72-2.04 1.95-3.5 1.26-1.48 2.98-2.3 1.72-.8 3.7-.8 2.23 0 4 .85 1.8.8 3.08 2.26 1.26 1.45 1.94 3.5.68 1.98.68 4.33zm-4.16-.04q0-3.4-1.5-5.48-1.45-2.08-4.03-2.08-1.16 0-2.1.58-.96.55-1.64 1.6-.68.98-1.04 2.4-.37 1.35-.37 2.98 0 3.3 1.45 5.3 1.45 1.98 3.9 1.98 2.3 0 3.8-1.93 1.54-1.95 1.54-5.34z"/><path d="M718.34 627.6v31.33h-4.08v-30.78l4.08-.54z"/><path d="M736.7 656.57q-1.1 1.23-2.68 2.13-1.54.86-3.67.86-1.22 0-2.4-.4-1.13-.4-2.03-1.32-.86-.9-1.4-2.35-.5-1.5-.5-3.63v-13.22h4.07v12.58q0 2.63.94 3.67 1 1 2.58 1 .77 0 1.54-.28.8-.3 1.5-.8.67-.55 1.22-1.23.54-.7.8-1.5v-13.45h4.08v20.28h-3.53l-.4-2.36h-.14z"/><path d="M761.6 640.96q1.82-1.54 3.35-2.22 1.54-.72 3.5-.72 1.12 0 2.25.36t2 1.18q.9.8 1.44 2.08.6 1.22.6 3v14.3h-4.08v-13.55q0-1.14-.36-1.86-.32-.73-.86-1.13-.55-.45-1.27-.58-.68-.18-1.36-.18-1.3 0-2.52.8-1.23.78-2 1.7v14.8h-4.07v-13.55q0-1.14-.35-1.86-.36-.73-.95-1.13-.54-.45-1.22-.58-.68-.18-1.32-.18-1.26 0-2.44.68t-2.08 1.8v14.8h-4.08v-20.27h3.35l.33 1.86h.23q1.22-1.03 2.8-1.76 1.6-.72 3.53-.72 1.76 0 3.12.77 1.4.76 2.26 2.16h.23z"/><path d="M783.6 640.5q1.45-1.17 3.08-1.8 1.63-.68 3.53-.68 1.37 0 2.5.4t1.95 1.23q.86.8 1.3 2.12.5 1.27.5 3.04v14.13h-4.07v-13.08q0-1.27-.3-2.08-.33-.86-.87-1.32-.5-.45-1.17-.63-.68-.18-1.4-.18-1.4 0-2.76.77-1.32.73-2.1 1.82v14.7h-4.06v-20.27h3.36l.32 1.86h.22z"/><path d="M812.68 643.63q-1.45-1.13-2.8-1.72-1.32-.58-2.63-.58-1.45 0-2.17.63-.68.6-.68 1.36 0 .6.36 1.1.36.45 1 .95.63.45 1.5 1 .9.5 1.94 1.08 2.85 1.68 3.94 3.12 1.13 1.45 1.13 3.35 0 1.4-.6 2.5-.53 1.03-1.53 1.76-.95.68-2.22 1.04-1.22.36-2.58.36-2.17 0-4.07-.72-1.86-.73-3-1.77l1.23-3.03q1.32.9 2.67 1.54 1.36.63 3.04.63 1.36 0 2.27-.58.95-.63.95-1.72 0-.58-.4-1.13-.37-.54-1.05-1.04-.63-.54-1.5-1.04-.85-.5-1.8-1-1.27-.68-2.22-1.32-.95-.68-1.63-1.36-.63-.72-.95-1.53-.32-.83-.32-1.87 0-1.13.4-2.13.46-1.04 1.32-1.8.86-.78 2.04-1.23 1.23-.45 2.82-.45 1.94 0 3.7.77 1.82.76 3.13 1.84l-1.27 3z"/><path d="M840.2 647.3l-4.5 12.26h-1.34l-8.1-20.9h4.2l4.62 12.7h.18l4.53-12.98h1.16l4.35 13h.2l4.34-12.73h4.2l-8.1 20.9h-1.35l-4.13-12.25h-.27z"/><path d="M861.9 638.42v20.5h-4.07v-19.95l4.07-.55zm-4.75-7.64q0-1.14.77-1.9.82-.82 1.95-.82t1.9.8q.8.78.8 1.92 0 1.13-.8 1.94-.77.77-1.9.77t-1.95-.78q-.77-.8-.77-1.94z"/><path d="M880.75 656.98q-1.58 1.45-3.03 2-1.45.58-3.08.58-1.72 0-3.2-.68-1.46-.68-2.54-1.94-1.04-1.32-1.63-3.22-.6-1.94-.6-4.4 0-2.3.64-4.33.7-2.1 1.9-3.63 1.28-1.54 3.05-2.45 1.8-.9 4.07-.9 1.45 0 2.44.4 1.04.4 1.72 1h.23v-11.27l4.08-.54v31.33h-2.98l-.86-1.95h-.2zm-4.97-1.04q1.26 0 2.58-.5 1.3-.54 2.35-1.72v-10.54q-.76-.82-1.9-1.23-1.08-.4-2.25-.4-2.77 0-4.26 2.08-1.46 2.04-1.46 5.43 0 3.5 1.36 5.2 1.4 1.68 3.58 1.68z"/><path d="M893.03 649.92q0 1.77.45 3 .46 1.17 1.18 1.9.77.7 1.77 1.03 1.04.32 2.2.32 1.33 0 2.78-.6 1.5-.62 2.5-1.58h.13l.77 3.25q-1.13 1.04-2.9 1.68-1.72.63-3.84.63-1.86 0-3.53-.6-1.63-.57-2.9-1.8-1.27-1.22-2.04-3.17-.73-1.95-.73-4.67 0-2.5.68-4.57.72-2.08 2-3.57 1.26-1.5 2.93-2.32 1.72-.86 3.7-.86 1.82 0 3.27.63t2.44 1.77q1.04 1.08 1.58 2.58t.54 3.16q0 .68-.1 1.77-.03 1.04-.35 2h-12.54zm8.96-2.9q.17-1.35-.1-2.4-.22-1.04-.8-1.76-.55-.72-1.37-1.1-.77-.4-1.63-.4-1.04 0-1.95.46-.86.4-1.53 1.18-.64.77-1 1.8-.36 1-.4 2.22h8.77z"/></g><g style="line-height:125%;-inkscape-font-specification:'Concourse T4, Normal';text-align:center" font-size="45.263" font-family="Concourse T4" letter-spacing="0" word-spacing="0" text-anchor="middle"><path d="M222.43 518.53v13.12h-3.7v-17.38h30.77v4.26h-27.07z"/><path d="M227.72 538.68q-1.76 0-2.98.45-1.18.45-1.9 1.18-.73.78-1.04 1.77-.32 1.05-.32 2.22 0 1.3.6 2.75.62 1.5 1.57 2.5v.13l-3.26.77q-1.05-1.13-1.68-2.9-.64-1.72-.64-3.85 0-1.85.6-3.53.58-1.63 1.8-2.9 1.23-1.26 3.17-2.03 1.95-.72 4.66-.72 2.5 0 4.58.67 2.1.72 3.58 2 1.5 1.25 2.3 2.93.87 1.72.87 3.7 0 1.82-.63 3.27-.64 1.45-1.77 2.44-1.1 1.04-2.58 1.6-1.5.53-3.17.53-.68 0-1.76-.1-1.04-.04-2-.35v-12.54zm2.9 8.96q1.36.18 2.4-.1 1.04-.22 1.77-.8.7-.55 1.07-1.36.4-.77.4-1.63 0-1.04-.44-1.95-.4-.86-1.18-1.54-.77-.63-1.8-1-1-.35-2.23-.4v8.78z"/><path d="M235.83 562.1h-17.1V558h17.1v-3.85h1.85l1.54 3.85h1.72q2.04 0 3.53.54 1.54.54 2.58 1.3 1.04.83 1.63 1.73.6.94.73 1.7l.64 4.45-2.58.27q-.45-3.08-2.04-4.53-1.54-1.4-4.75-1.4H239v4.97h-3.17v-4.98z"/><path d="M246.06 576.6H239v4.74h-3.17v-4.75h-17.1v-4.1h17.1v-4.06h1.85l1.54 4.07h5.66l1.18 4.1z"/><path d="M234.02 605.52q1.13-1.45 1.72-2.8.58-1.32.58-2.63 0-1.46-.63-2.18-.6-.68-1.37-.68-.6 0-1.08.36-.46.36-.95 1-.46.63-1 1.5-.5.9-1.1 1.94-1.66 2.85-3.1 3.94-1.46 1.13-3.36 1.13-1.4 0-2.5-.58-1.03-.54-1.75-1.54-.7-.95-1.05-2.22-.37-1.22-.37-2.58 0-2.17.73-4.07.73-1.85 1.77-2.98l3.04 1.22q-.9 1.32-1.53 2.67-.64 1.37-.64 3.05 0 1.35.6 2.26.63.96 1.7.96.6 0 1.14-.4.55-.37 1.04-1.05.56-.62 1.06-1.48t1-1.8q.67-1.28 1.3-2.23.68-.96 1.36-1.64.73-.63 1.54-.95.82-.3 1.86-.3 1.13 0 2.12.4 1.04.45 1.8 1.3.78.87 1.24 2.05.45 1.22.45 2.8 0 1.95-.77 3.72-.77 1.8-1.86 3.12l-2.98-1.28z"/><path d="M239.22 615.76h-20.5v-4.08h19.96l.54 4.08zm7.65-4.75q1.13 0 1.9.78.82.8.82 1.94 0 1.13-.83 1.9-.77.82-1.9.82t-1.95-.82q-.76-.77-.76-1.9t.76-1.94q.82-.77 1.95-.77z"/><path d="M220.66 634.6q-1.44-1.58-2-3.02-.58-1.45-.58-3.08 0-1.72.68-3.22.68-1.44 1.95-2.53 1.32-1.04 3.22-1.63 1.95-.6 4.4-.6 2.3 0 4.34.65 2.08.67 3.62 1.9 1.54 1.26 2.44 3.03.9 1.8.9 4.07 0 1.45-.4 2.45-.4 1.04-1 1.72v.22h11.28l.54 4.08h-31.32v-3l1.94-.85v-.2zm1.05-4.97q0 1.27.5 2.58.55 1.32 1.72 2.36h10.55q.8-.77 1.22-1.9.4-1.08.4-2.26 0-2.76-2.08-4.26-2.04-1.44-5.44-1.44-3.48 0-5.2 1.35-1.67 1.4-1.67 3.58z"/><path d="M227.72 646.9q-1.76 0-2.98.44-1.18.45-1.9 1.17-.73.78-1.04 1.78-.32 1.04-.32 2.22 0 1.3.6 2.76.62 1.5 1.57 2.5v.12l-3.26.77q-1.05-1.13-1.68-2.9-.64-1.7-.64-3.84 0-1.85.6-3.52.58-1.63 1.8-2.9 1.23-1.27 3.17-2.03 1.95-.73 4.66-.73 2.5 0 4.58.68 2.1.72 3.58 2 1.5 1.26 2.3 2.93.87 1.72.87 3.72 0 1.8-.63 3.25-.64 1.45-1.77 2.45-1.1 1.04-2.58 1.58-1.5.55-3.17.55-.68 0-1.76-.1-1.04-.04-2-.36V646.9zm2.9 8.95q1.36.18 2.4-.1 1.04-.22 1.77-.8.7-.55 1.07-1.37.4-.77.4-1.63 0-1.04-.44-1.94-.4-.85-1.18-1.53-.77-.63-1.8-1-1-.36-2.23-.4v8.78z"/><path d="M237.68 668.26q.95 1.13 1.45 2.4.5 1.3.5 3.03 0 1.9-.77 3.43-.77 1.54-2.22 2.63-1.4 1.08-3.4 1.67-1.94.63-4.3.63-2.35 0-4.34-.77-2-.73-3.44-2.1-1.45-1.35-2.26-3.2-.82-1.86-.82-4.07 0-1.86.6-3.94.58-2.1 1.9-4.04h28.92l.54 4.07h-12.36v.23zm-14.98-.23q-.54.68-.8 1.68-.3 1-.3 2.1 0 1.26.47 2.34.45 1.13 1.36 1.95.95.85 2.35 1.3 1.45.5 3.4.5 1.5 0 2.75-.32 1.32-.27 2.22-.9.95-.64 1.45-1.68.54-1 .54-2.5 0-1.25-.63-2.52-.62-1.27-1.3-1.95h-11.5z"/><path d="M220.4 702.18l-2.36-2.76q.45-.68 1.13-1.27.68-.58 1.72-.95v-.18q-1.4-1.04-2.14-2.62-.68-1.54-.68-3.26 0-1.22.4-2.36.42-1.13 1.2-2 .76-.8 1.9-1.35 1.12-.5 2.57-.5 1.13 0 2.26.4 1.14.47 2.05 1.42.95 1 1.54 2.58.58 1.63.58 3.98 0 .7-.1 1.6-.04.9-.13 1.67h2q1.12 0 1.85-.36.77-.3 1.22-.85.5-.55.68-1.22.22-.68.22-1.32 0-1.3-.54-2.6-.5-1.33-1.45-2.77l3.04-1.36q.86 1.45 1.53 3.26.73 1.8.73 4.25 0 1.27-.36 2.5-.37 1.2-1.18 2.16-.82.95-2.1 1.54-1.2.6-2.98.6h-9.32q-1.18 0-2 .53-.76.6-1.13 1.28h-.18zm7-5.6q.1-.64.2-1.55.08-.9.08-1.76 0-2.18-1-3.3-.95-1.14-2.5-1.14-1.43 0-2.1.9-.7.9-.7 2.22 0 1.6.73 2.8.74 1.23 1.96 1.82h3.35z"/><path d="M239.36 717.5h-4.26v-1.46q-.13-1-.68-1.94-.5-.95-1.35-1.77-.82-.77-1.9-1.36-1.1-.6-2.36-.86h-10.08v-4.06H239v3.48l-4.2.37v.3q.9.4 1.7 1.1.87.67 1.45 1.48.64.82 1 1.72.4.95.4 1.9v1.1z"/><path d="M162.14 449.43h26.9l-.65-5.57 3.66-.27 1.17 9.22-.54.77h-30.56v-4.17z"/><path d="M172.1 491.2q-2.3 0-4.26-.77-1.94-.72-3.35-2.03-1.4-1.27-2.22-3.04-.77-1.72-.77-3.66 0-2 .78-3.76.8-1.72 2.2-3.03 1.42-1.26 3.36-1.98 1.95-.73 4.26-.73 2.35 0 4.34.67 2.04.72 3.5 1.95 1.48 1.26 2.3 2.98.8 1.72.8 3.72 0 2.2-.85 3.98-.82 1.8-2.27 3.08-1.45 1.26-3.5 1.94-1.98.68-4.33.68zm.04-4.16q3.4 0 5.48-1.5 2.08-1.44 2.08-4.02 0-1.18-.6-2.13-.53-.96-1.57-1.64-1-.68-2.4-1.04-1.36-.36-3-.36-3.3 0-5.28 1.44-2 1.45-2 3.9 0 2.3 1.95 3.8 1.95 1.54 5.34 1.54z"/><path d="M179.25 501.62h-17.1v-4.07h17.1v-3.85h1.85l1.54 3.85h1.72q2.04 0 3.53.54 1.53.54 2.57 1.3 1.04.82 1.63 1.72.6.96.73 1.72l.63 4.44-2.58.27q-.45-3.08-2.04-4.52-1.53-1.4-4.75-1.4h-1.68v4.97h-3.17v-4.98z"/><path d="M179.25 520.36l13.67 1.72v16.43l-3.94-.5.45-12.6-6.92-.96q.05.67.05 1.26.05.64.05 1.27 0 3.17-.77 5.52-.77 2.35-2.08 3.88-1.32 1.54-3.08 2.3-1.77.78-3.76.78-2.75 0-4.88-1.22-2.12-1.22-3.62-3.3-1.45-2.04-2.22-4.76-.72-2.7-.72-5.7 0-1.3.1-2.53.08-1.18.4-2.22l3.66.72q-.22.86-.36 2.04-.1 1.2-.1 2.25 0 4.8 2 7.56 2.04 2.77 5.57 2.77 1.68 0 2.9-.77 1.27-.72 2.08-2.12.82-1.4 1.23-3.35.4-1.95.4-4.4 0-1.04-.08-2.08-.05-1.04-.14-1.8l.15-.2z"/><path d="M177.76 567.65q.86-.95 1.35-2.04.5-1.07.5-2.4 0-1.2-.58-2.3-.54-1.03-1.58-1.8-1-.77-2.5-1.23-1.44-.45-3.2-.45-1.77 0-3.08.4-1.27.46-2.08 1.2-.82.75-1.23 1.75-.36 1-.36 2.17 0 1.54.53 2.72.6 1.22 1.32 2.13l-3.17.9q-.9-1.05-1.54-2.68-.63-1.63-.63-3.35 0-2.08.73-3.85.77-1.72 2.08-2.98 1.37-1.23 3.23-1.9 1.85-.68 4.1-.68 2.5 0 4.6.77 2.07.8 3.56 2.12 1.53 1.32 2.4 3.04.85 1.75.85 3.65 0 2.08-.6 3.44-.58 1.35-1.57 2.7l-3.12-1.35z"/><path d="M172.1 590.4q-2.3 0-4.26-.78-1.94-.72-3.35-2.04-1.4-1.26-2.22-3.03-.77-1.72-.77-3.67 0-2 .78-3.75.8-1.72 2.2-3.03 1.42-1.27 3.36-2 1.95-.72 4.26-.72 2.35 0 4.34.68 2.04.72 3.5 1.94 1.48 1.27 2.3 3 .8 1.7.8 3.7 0 2.22-.85 4-.82 1.8-2.27 3.06-1.45 1.27-3.5 1.95-1.98.7-4.33.7zm.04-4.17q3.4 0 5.48-1.5 2.08-1.45 2.08-4.03 0-1.17-.6-2.12-.53-.95-1.57-1.63-1-.68-2.4-1.04-1.36-.36-3-.36-3.3 0-5.28 1.45-2 1.44-2 3.88 0 2.3 1.95 3.8 1.95 1.55 5.34 1.55z"/><path d="M193.46 599.23h-31.32v-4.08h30.78l.54 4.08z"/><path d="M164.5 617.58q-1.23-1.1-2.13-2.67-.86-1.53-.86-3.66 0-1.22.4-2.4.42-1.13 1.33-2.03.9-.85 2.35-1.4 1.5-.5 3.62-.5h13.22V609h-12.6q-2.6 0-3.65.95-1 1-1 2.58 0 .78.27 1.55.32.8.82 1.5.54.67 1.22 1.2.68.56 1.5.83h13.44v4.07h-20.28v-3.53l2.35-.4v-.14z"/><path d="M180.1 642.5q1.55 1.8 2.23 3.34.72 1.54.72 3.5 0 1.12-.36 2.25-.37 1.12-1.2 1.98-.8.9-2.07 1.45-1.22.6-3 .6h-14.3v-4.08h13.54q1.13 0 1.86-.36.72-.33 1.13-.87.45-.55.6-1.27.17-.68.17-1.36 0-1.3-.8-2.53-.78-1.23-1.7-2h-14.8v-4.07h13.54q1.13 0 1.86-.36.72-.36 1.13-.95.45-.56.6-1.23.17-.68.17-1.32 0-1.26-.68-2.44-.68-1.17-1.8-2.07h-14.8v-4.08h20.27V630l-1.86.32v.23q1.04 1.22 1.77 2.8.72 1.6.72 3.53 0 1.77-.77 3.13-.77 1.4-2.17 2.27v.22z"/><path d="M180.56 664.5q1.18 1.44 1.8 3.07.7 1.63.7 3.53 0 1.36-.42 2.5-.4 1.12-1.22 1.94-.8.86-2.13 1.3-1.27.5-3.04.5h-14.12v-4.07h13.08q1.27 0 2.08-.3.86-.33 1.32-.87.45-.5.63-1.18.18-.68.18-1.4 0-1.4-.77-2.76-.72-1.32-1.8-2.1h-14.72v-4.06h20.28v3.35l-1.86.32v.22z"/><path d="M177.44 693.57q1.13-1.45 1.72-2.8.6-1.32.6-2.63 0-1.45-.65-2.17-.58-.68-1.34-.68-.6 0-1.1.35-.44.36-.94 1-.45.63-1 1.5-.5.9-1.08 1.94-1.68 2.84-3.13 3.92-1.44 1.14-3.34 1.14-1.4 0-2.5-.6-1.03-.54-1.75-1.53-.67-.95-1.03-2.22-.36-1.2-.36-2.57 0-2.17.73-4.07.72-1.86 1.77-3l3.03 1.23q-.9 1.3-1.54 2.66t-.64 3.04q0 1.35.58 2.26.64.95 1.72.95.6 0 1.14-.4.54-.36 1.04-1.04.54-.63 1.04-1.5.5-.85 1-1.8.67-1.27 1.3-2.22.68-.95 1.36-1.63.73-.62 1.54-.94.82-.32 1.86-.32 1.13 0 2.13.4 1.04.46 1.8 1.32.78.86 1.23 2.04.45 1.22.45 2.8 0 1.95-.77 3.72-.77 1.8-1.85 3.12l-3-1.27z"/><path d="M173.77 721.08l-12.26-4.48v-1.35l20.92-8.1v4.2l-12.72 4.62v.18l13 4.53v1.17l-13 4.35v.18l12.72 4.35v4.2l-20.9-8.1v-1.35l12.25-4.12v-.28z"/><path d="M182.64 742.8h-20.5v-4.08h19.96l.54 4.07zm7.65-4.76q1.12 0 1.9.77.8.83.8 1.96t-.8 1.9q-.78.8-1.9.8-1.14 0-1.95-.8-.77-.77-.77-1.9t.77-1.95q.8-.76 1.94-.76z"/><path d="M164.1 761.64q-1.46-1.58-2-3.03-.6-1.44-.6-3.07 0-1.72.68-3.2.68-1.46 1.95-2.54 1.3-1.06 3.2-1.64 1.96-.6 4.4-.6 2.3 0 4.35.64 2.08.68 3.62 1.9 1.54 1.27 2.45 3.03.9 1.82.9 4.08 0 1.46-.4 2.45-.4 1.04-1 1.72v.23h11.27l.54 4.07h-31.32v-2.98l1.95-.87v-.2zm1.03-4.97q0 1.26.5 2.58.54 1.3 1.7 2.35h10.56q.8-.77 1.2-1.9.42-1.1.42-2.27 0-2.76-2.08-4.25-2.04-1.45-5.43-1.45-3.48 0-5.2 1.36-1.67 1.4-1.67 3.57z"/><path d="M171.15 773.92q-1.77 0-3 .45-1.17.46-1.9 1.18-.72.77-1.03 1.77-.32 1.04-.32 2.2 0 1.33.6 2.77.62 1.5 1.57 2.48v.14l-3.26.77q-1.03-1.14-1.66-2.9-.63-1.73-.63-3.85 0-1.86.6-3.54.58-1.6 1.8-2.88 1.23-1.27 3.17-2.04 1.95-.72 4.67-.72 2.48 0 4.57.68 2.1.72 3.58 2 1.5 1.25 2.3 2.93.87 1.72.87 3.7 0 1.82-.63 3.27-.64 1.45-1.77 2.44-1.08 1.04-2.58 1.6-1.5.53-3.17.53-.68 0-1.76-.08-1.04-.04-2-.36v-12.54zm2.9 8.96q1.35.18 2.4-.1 1.03-.2 1.76-.8.73-.55 1.1-1.36.4-.77.4-1.63 0-1.05-.45-1.96-.4-.86-1.18-1.53-.77-.63-1.8-1-1-.35-2.23-.4v8.78z"/></g><path fill="none" stroke="#f00" stroke-width="3" d="M100.4-3.64h210.13" marker-start="url(#b)" marker-end="url(#c)" transform="translate(0 566.638) translate(0 331)"/><g fill="#f00" style="line-height:125%;-inkscape-font-specification:'Concourse T4, Normal';text-align:center" font-size="45.263" font-family="Concourse T4" letter-spacing="0" word-spacing="0" text-anchor="middle"><path d="M145.15 921.13q.28-.22 1-.63.77-.4 1.86-.82 1.14-.4 2.54-.72 1.45-.32 3.12-.32 2.04 0 3.8.5 1.77.45 3.08 1.5 1.32 1 2.1 2.62.75 1.58.75 3.9 0 4.47-3.5 9.1-3.43 4.6-9.77 9.68l.1.27 13.62-.4v4.3h-20.7l-.44-1.58q4.63-4 7.75-7.1 3.12-3.18 5.02-5.62 1.9-2.5 2.67-4.4.82-1.94.82-3.43 0-2.85-1.54-4.2-1.5-1.37-4.03-1.37-1.4 0-2.68.32-1.22.3-2.26.77-1 .4-1.8.85-.78.45-1.23.77l-.28-4z"/><path d="M169.55 921.13q.27-.22 1-.63.77-.4 1.85-.82 1.14-.4 2.54-.72 1.45-.32 3.12-.32 2.04 0 3.8.5 1.77.45 3.08 1.5 1.32 1 2.08 2.62.77 1.58.77 3.9 0 4.47-3.5 9.1-3.43 4.6-9.77 9.68l.1.27 13.62-.4v4.3h-20.7l-.44-1.58q4.63-4 7.75-7.1 3.12-3.18 5.02-5.62 1.9-2.5 2.67-4.4.82-1.94.82-3.43 0-2.85-1.54-4.2-1.5-1.37-4.03-1.37-1.4 0-2.68.32-1.22.3-2.26.77-1 .4-1.8.85-.78.45-1.24.77l-.27-4z"/><path d="M215.14 934.4q0 4.3-.86 7.42-.82 3.08-2.3 5.07-1.5 1.98-3.6 2.93-2.03.95-4.47.95-2.34 0-4.43-.86-2.08-.86-3.62-2.76-1.54-1.95-2.44-5.07-.9-3.13-.9-7.7 0-4.2.9-7.2t2.45-4.9q1.54-1.9 3.62-2.75 2.1-.9 4.44-.9 2.45 0 4.5 1 2.07.94 3.57 2.93 1.5 1.95 2.3 4.94.87 2.94.87 6.88zm-4.35-.1q0-5.88-2-8.87-1.95-3.03-5.07-3.03-1.36 0-2.63.68-1.22.68-2.17 2.17-.95 1.45-1.54 3.7-.55 2.23-.55 5.35 0 3.67.6 6.16.62 2.44 1.62 3.9 1 1.44 2.26 2.08 1.27.58 2.63.58 3.2 0 5.02-2.94 1.8-3 1.8-9.78z"/><path d="M233.3 931.4q1.05-1.03 2.36-1.62 1.36-.6 3.04-.6 1.67 0 3.26.6 1.63.6 2.9 1.9 1.3 1.3 2.07 3.4.82 2.03.82 4.93 0 3.1-.95 5.17-.9 2.03-2.3 3.3-1.37 1.22-2.95 1.72-1.54.53-2.8.53-1.18 0-2.5-.36-1.3-.3-2.3-1.45h-.23v9.87l-4.08.53v-29.55l2.3-.27 1.14 1.9h.23zm4.58 1.32q-1.45 0-2.5.6-1.03.58-1.66 1.4V945q1.3 2.05 4.07 2.05 1 0 2.03-.36 1.04-.36 1.85-1.12.86-.82 1.36-2.1.55-1.3.55-3.16 0-2.26-.6-3.7-.6-1.5-1.45-2.36-.86-.86-1.86-1.18-1-.36-1.82-.36z"/><path d="M256.73 939.65l-6.8-9.83h4.3l4.63 6.84 4.62-6.84h4.3l-6.75 9.83 7.2 10.45h-4.3l-5.07-7.5-5.07 7.5h-4.3l7.23-10.45z"/></g><path fill="none" stroke="#f00" stroke-width="3" d="M1152.54-3.64h210.1" marker-start="url(#d)" marker-end="url(#e)" transform="translate(0 566.638) translate(0 331)"/><g fill="#f00" style="line-height:125%;-inkscape-font-specification:'Concourse T4, Normal';text-align:center" font-size="45.263" font-family="Concourse T4" letter-spacing="0" word-spacing="0" text-anchor="middle"><path d="M1197.28 921.13q.27-.22 1-.63.76-.4 1.85-.82 1.13-.4 2.53-.72 1.45-.32 3.13-.32 2.02 0 3.8.5 1.76.45 3.07 1.5 1.3 1 2.08 2.62.77 1.58.77 3.9 0 4.47-3.5 9.1-3.43 4.6-9.76 9.68l.1.27 13.6-.4v4.3h-20.67l-.47-1.58q4.62-4 7.74-7.1 3.13-3.18 5.03-5.62 1.9-2.5 2.67-4.4.8-1.94.8-3.43 0-2.85-1.52-4.2-1.5-1.37-4.03-1.37-1.4 0-2.67.32-1.23.3-2.27.77-1 .4-1.8.85-.78.45-1.23.77l-.27-4z"/><path d="M1221.68 921.13q.27-.22 1-.63.76-.4 1.85-.82 1.13-.4 2.53-.72 1.45-.32 3.13-.32 2.02 0 3.8.5 1.75.45 3.07 1.5 1.3 1 2.08 2.62.77 1.58.77 3.9 0 4.47-3.5 9.1-3.43 4.6-9.76 9.68l.1.27 13.6-.4v4.3h-20.67l-.47-1.58q4.62-4 7.74-7.1 3.13-3.18 5.03-5.62 1.9-2.5 2.67-4.4.8-1.94.8-3.43 0-2.85-1.53-4.2-1.5-1.37-4.02-1.37-1.4 0-2.67.32-1.23.3-2.27.77-1 .4-1.8.85-.78.45-1.23.77l-.27-4z"/><path d="M1267.26 934.4q0 4.3-.86 7.42-.8 3.08-2.3 5.07-1.5 1.98-3.58 2.93-2.04.95-4.48.95-2.36 0-4.44-.86-2.08-.86-3.62-2.76-1.54-1.95-2.45-5.07-.9-3.13-.9-7.7 0-4.2.9-7.2t2.45-4.9q1.54-1.9 3.62-2.75 2.08-.9 4.44-.9 2.44 0 4.48 1 2.08.94 3.57 2.93 1.5 1.95 2.3 4.94.86 2.94.86 6.88zm-4.35-.1q0-5.88-1.98-8.87-1.94-3.03-5.07-3.03-1.35 0-2.62.68-1.22.68-2.17 2.17-.95 1.45-1.54 3.7-.55 2.23-.55 5.35 0 3.67.6 6.16.63 2.44 1.62 3.9 1 1.44 2.25 2.08 1.27.58 2.63.58 3.2 0 5.02-2.94 1.8-3 1.8-9.78z"/><path d="M1285.44 931.4q1.04-1.03 2.35-1.62 1.35-.6 3.02-.6 1.68 0 3.26.6 1.63.6 2.9 1.9 1.3 1.3 2.08 3.4.8 2.03.8 4.93 0 3.1-.94 5.17-.9 2.03-2.3 3.3-1.36 1.22-2.95 1.72-1.54.54-2.8.54-1.18 0-2.5-.37-1.3-.3-2.3-1.45h-.23v9.87l-4.07.53v-29.55l2.3-.27 1.14 1.9h.24zm4.57 1.32q-1.44 0-2.48.6-1.04.58-1.68 1.4V945q1.32 2.05 4.08 2.05 1 0 2.03-.36 1.04-.36 1.86-1.12.87-.82 1.37-2.1.54-1.3.54-3.16 0-2.26-.58-3.7-.6-1.5-1.45-2.36-.86-.86-1.85-1.18-1-.36-1.8-.36z"/><path d="M1308.86 939.65l-6.8-9.83h4.3l4.62 6.84 4.62-6.84h4.3l-6.74 9.83 7.2 10.45h-4.3l-5.08-7.5-5.07 7.5h-4.3l7.26-10.45z"/></g><path fill="none" stroke="#f00" stroke-width="3" d="M363.63-3.64h726.26" marker-start="url(#f)" marker-end="url(#g)" transform="translate(0 566.638) translate(0 331)"/><g fill="#f00" style="line-height:125%;-inkscape-font-specification:'Concourse T4, Normal';text-align:center" font-size="45.263" font-family="Concourse T4" letter-spacing="0" word-spacing="0" text-anchor="middle"><path d="M687.3 919.87q-2.17 3.98-3.9 7.78-1.7 3.8-2.98 7.56-1.22 3.72-2 7.43-.72 3.67-.9 7.47h-4.98q.6-3.62 1.5-7.24.95-3.67 2.13-7.1 1.22-3.5 2.67-6.66 1.44-3.17 3.07-5.88l-.17-.23-14.3.4.4-4.08h19.02l.45.55z"/><path d="M709.4 941.05h-3.53v9.05h-4.12v-9.05H688.4l-.73-1.63 13.76-20.1h4.44v18.2l3.53-.1v3.63zm-7.65-3.44v-12.48h-.6l-8.18 12.22.27.5 8.5-.23z"/><path d="M726.77 934.26q3.53 2.04 4.98 4.12 1.5 2.04 1.5 4.48 0 1.72-.78 3.17-.77 1.45-2.13 2.53-1.35 1.04-3.25 1.63-1.92.58-4.13.58-2.27 0-4.12-.63-1.86-.64-3.22-1.72-1.3-1.13-2.03-2.67-.73-1.54-.73-3.35 0-1.35.5-2.57.5-1.23 1.3-2.27.87-1.04 1.96-1.85 1.1-.85 2.3-1.44V934q-2.75-1.87-3.97-3.72-1.18-1.86-1.18-3.9 0-1.54.68-2.94.72-1.45 1.94-2.5 1.27-1.03 3.04-1.66 1.8-.64 3.98-.64 1.8 0 3.44.5 1.63.5 2.85 1.45 1.23.94 1.9 2.3.74 1.3.74 3 0 2.7-1.45 4.74-1.42 2.04-4.13 3.35v.26zm-4.75 1.54q-2.72 1.18-3.94 2.94-1.18 1.77-1.18 3.67 0 2.32 1.77 3.67 1.76 1.32 4.48 1.32 1.3 0 2.4-.38 1.08-.36 1.85-1 .77-.63 1.18-1.44.4-.86.4-1.77 0-1.12-.54-2.07-.5-1-1.45-1.8-.9-.87-2.13-1.6-1.18-.72-2.54-1.4l-.3-.13zm-4-9.6q0 1.8 1.37 3.3 1.4 1.46 4.2 3.04 1.95-1.13 3.35-2.63 1.4-1.52 1.4-3.56 0-1.8-1.36-3.12t-3.8-1.32q-1.32 0-2.27.36-.95.37-1.63 1-.63.6-.95 1.36-.32.77-.32 1.58z"/><path d="M751.17 931.4q1.04-1.03 2.35-1.62 1.36-.6 3.03-.6 1.68 0 3.26.6 1.64.6 2.9 1.9 1.32 1.3 2.1 3.4.8 2.03.8 4.93 0 3.1-.95 5.17-.9 2.03-2.3 3.3-1.36 1.22-2.95 1.72-1.54.54-2.8.54-1.18 0-2.5-.37-1.3-.3-2.3-1.45h-.23v9.87l-4.07.53v-29.55l2.3-.27 1.14 1.9h.23zm4.57 1.32q-1.45 0-2.5.6-1.03.58-1.67 1.4V945q1.32 2.05 4.08 2.05 1 0 2.03-.36 1.04-.36 1.86-1.12.86-.82 1.36-2.1.54-1.3.54-3.16 0-2.26-.6-3.7-.58-1.5-1.44-2.36-.86-.86-1.85-1.18-1-.36-1.8-.36z"/><path d="M774.6 939.65l-6.8-9.83h4.3l4.6 6.84 4.63-6.84h4.3l-6.74 9.83 7.18 10.45h-4.3l-5.07-7.5-5.05 7.5h-4.3l7.24-10.45z"/></g><path fill="none" stroke="#f00" stroke-width="3" d="M1152.54 146.33h28.9" marker-start="url(#h)" transform="translate(0 566.638) translate(0 331)"/><path fill="none" stroke="#f00" stroke-width="3" d="M1101 146.36h-28.9" marker-start="url(#i)" transform="translate(0 566.638) translate(0 331)"/><g fill="#f00" style="line-height:125%;-inkscape-font-specification:'Concourse T4, Normal';text-align:center" font-size="45.263" font-family="Concourse T4" letter-spacing="0" word-spacing="0" text-anchor="middle"><path d="M1223.04 1046.06h-3.53v9.05h-4.1v-9.04h-13.36l-.72-1.63 13.76-20.1h4.43v18.2l3.54-.1v3.63zm-7.65-3.44v-12.5h-.6l-8.2 12.23.28.5 8.5-.23z"/><path d="M1247.97 1046.06h-3.53v9.05h-4.12v-9.04h-13.35l-.72-1.63 13.76-20.1h4.44v18.2l3.53-.1v3.63zm-7.65-3.44v-12.5h-.6l-8.18 12.23.27.5 8.52-.23z"/><path d="M1265.78 1036.42q1.04-1.04 2.36-1.63 1.35-.6 3.03-.6 1.67 0 3.26.6 1.63.58 2.9 1.9 1.3 1.3 2.08 3.4.82 2.02.82 4.92 0 3.08-.95 5.16-.9 2.04-2.3 3.3-1.37 1.23-2.95 1.72-1.54.55-2.8.55-1.18 0-2.5-.37-1.3-.3-2.3-1.44h-.23v9.86l-4.08.55v-29.56l2.3-.28 1.14 1.9h.22zm4.57 1.3q-1.44 0-2.5.6-1.03.6-1.66 1.4v10.32q1.3 2.04 4.06 2.04 1 0 2.04-.36t1.86-1.13q.86-.83 1.35-2.1.56-1.3.56-3.16 0-2.27-.6-3.72-.58-1.5-1.44-2.35-.86-.86-1.86-1.18-1-.37-1.8-.37z"/><path d="M1289.2 1044.66l-6.8-9.82h4.3l4.63 6.83 4.62-6.83h4.3l-6.75 9.82 7.2 10.45h-4.3l-5.07-7.5-5.07 7.5h-4.3l7.24-10.44z"/></g><path fill="none" stroke="#f00" stroke-width="3" d="M363.54 146.33h28.9" marker-start="url(#j)" transform="translate(0 566.638) translate(0 331)"/><path fill="none" stroke="#f00" stroke-width="3" d="M312 146.36h-28.9" marker-start="url(#k)" transform="translate(0 566.638) translate(0 331)"/><g fill="#f00" style="line-height:125%;-inkscape-font-specification:'Concourse T4, Normal';text-align:center" font-size="45.263" font-family="Concourse T4" letter-spacing="0" word-spacing="0" text-anchor="middle"><path d="M434.04 1046.06h-3.53v9.05h-4.1v-9.04h-13.36l-.72-1.63 13.76-20.1h4.43v18.2l3.54-.1v3.63zm-7.65-3.44v-12.5h-.6l-8.2 12.23.28.5 8.5-.23z"/><path d="M458.97 1046.06h-3.53v9.05h-4.12v-9.04h-13.35l-.72-1.63 13.76-20.1h4.44v18.2l3.53-.1v3.63zm-7.65-3.44v-12.5h-.6l-8.18 12.23.27.5 8.52-.23z"/><path d="M476.78 1036.42q1.04-1.04 2.36-1.63 1.35-.6 3.03-.6 1.67 0 3.26.6 1.63.58 2.9 1.9 1.3 1.3 2.08 3.4.82 2.02.82 4.92 0 3.08-.95 5.16-.9 2.04-2.3 3.3-1.37 1.23-2.95 1.72-1.54.55-2.8.55-1.18 0-2.5-.37-1.3-.3-2.3-1.44h-.23v9.86l-4.08.55v-29.56l2.3-.28 1.14 1.9h.22zm4.57 1.3q-1.44 0-2.5.6-1.03.6-1.66 1.4v10.32q1.3 2.04 4.06 2.04 1 0 2.04-.36t1.86-1.13q.86-.83 1.35-2.1.56-1.3.56-3.16 0-2.27-.6-3.72-.58-1.5-1.44-2.35-.86-.86-1.86-1.18-1-.37-1.8-.37z"/><path d="M500.2 1044.66l-6.8-9.82h4.3l4.63 6.83 4.62-6.83h4.3l-6.75 9.82 7.2 10.45h-4.3l-5.07-7.5-5.07 7.5h-4.3l7.24-10.44z"/></g><path fill="none" stroke="#f00" stroke-width="3" d="M101.74 246.36H1362.5" marker-start="url(#l)" marker-end="url(#m)" transform="translate(0 566.638) translate(0 331)"/><g fill="#f00" style="line-height:125%;-inkscape-font-specification:'Concourse T4, Normal';text-align:center" font-size="45.263" font-family="Concourse T4" letter-spacing="0" word-spacing="0" text-anchor="middle"><path d="M669.18 1200.1v-26.88l-5.56.63-.28-3.67 9.24-1.17.77.55v30.55h-4.17z"/><path d="M683.86 1171.13q.27-.22 1-.63.76-.4 1.85-.82 1.14-.4 2.54-.72 1.45-.32 3.13-.32 2.03 0 3.8.5 1.76.45 3.08 1.5 1.3 1 2.08 2.62.77 1.58.77 3.9 0 4.47-3.5 9.1-3.43 4.6-9.76 9.68l.1.27 13.6-.4v4.3h-20.67l-.46-1.58q4.63-4 7.75-7.1 3.13-3.18 5.03-5.62 1.9-2.5 2.67-4.4.8-1.94.8-3.43 0-2.85-1.53-4.2-1.5-1.37-4.02-1.37-1.4 0-2.68.32-1.22.3-2.26.77-1 .4-1.8.85-.78.45-1.23.77l-.27-4z"/><path d="M725.83 1169.87q-2.17 3.98-3.9 7.78-1.7 3.8-2.98 7.56-1.22 3.72-2 7.43-.72 3.67-.9 7.47h-4.98q.6-3.62 1.5-7.24.95-3.67 2.12-7.1 1.22-3.5 2.67-6.66 1.44-3.17 3.07-5.88l-.18-.23-14.3.4.4-4.08h19.02l.45.55z"/><path d="M732.75 1183.22q1.04-.6 2.36-.9 1.36-.32 2.72-.32 1.8 0 3.62.54 1.8.54 3.22 1.72 1.4 1.18 2.26 3 .9 1.8.9 4.3 0 2.25-.9 4-.86 1.73-2.26 2.9-1.36 1.14-3.08 1.73-1.68.58-3.3.58-2.95 0-5-1-2.02-1.04-3.33-2.76-1.32-1.72-1.9-3.98-.6-2.26-.6-4.75 0-4.76 1.6-8.4 1.62-3.6 4.24-6.05 2.67-2.45 6.1-3.76 3.45-1.32 7.07-1.46l-.6 3.62q-2.9.2-5.24 1.14-2.3.95-4.08 2.4-1.72 1.44-2.76 3.3-1.05 1.86-1.37 3.85l.32.27zm10.82 8.64q0-1.85-.6-3.12-.53-1.27-1.53-2.04-.95-.77-2.22-1.08-1.26-.36-2.62-.36-1.18 0-2.35.3-1.18.33-2.22.96-.14.6-.23 1.27-.04.62-.04 1.26 0 3.7 1.76 5.97 1.77 2.22 4.66 2.22 2.36 0 3.85-1.4 1.54-1.4 1.54-4z"/><path d="M765.74 1181.4q1.04-1.03 2.35-1.62 1.35-.6 3.02-.6 1.68 0 3.26.6 1.63.6 2.9 1.9 1.3 1.3 2.08 3.4.82 2.03.82 4.93 0 3.1-.95 5.17-.9 2.03-2.3 3.3-1.37 1.22-2.95 1.72-1.54.53-2.8.53-1.2 0-2.5-.36-1.3-.3-2.3-1.45h-.24v9.87l-4.07.53v-29.55l2.3-.27 1.14 1.9h.24zm4.57 1.32q-1.44 0-2.48.6-1.04.58-1.68 1.4v10.3q1.32 2.05 4.08 2.05 1 0 2.04-.36t1.85-1.13q.87-.8 1.37-2.08.54-1.32.54-3.18 0-2.26-.58-3.7-.58-1.5-1.44-2.36-.86-.86-1.86-1.18-1-.36-1.8-.36z"/><path d="M789.16 1189.65l-6.8-9.83h4.3l4.63 6.84 4.6-6.84h4.3l-6.74 9.83 7.2 10.45h-4.3l-5.07-7.5-5.08 7.5h-4.3l7.24-10.45z"/></g><g style="line-height:125%;-inkscape-font-specification:'Concourse T4, Normal';text-align:center" font-size="36.1" font-family="Concourse T4" letter-spacing="0" word-spacing="0" text-anchor="middle"><path d="M657.34 135.07l1.37-10.9h13.1l-.38 3.13-10.07-.36-.76 5.53q.53-.04 1-.04.5-.03 1-.03 2.54 0 4.4.6 1.9.62 3.12 1.67 1.23 1.05 1.84 2.45.6 1.4.6 3 0 2.2-.96 3.9-.98 1.7-2.64 2.9-1.62 1.14-3.8 1.76-2.15.57-4.54.57-1.04 0-2.02-.07-.94-.07-1.77-.32l.58-2.93q.7.18 1.64.3.97.06 1.8.06 3.83 0 6.03-1.6 2.2-1.62 2.2-4.44 0-1.33-.6-2.3-.6-1.02-1.7-1.67-1.13-.66-2.68-.98-1.56-.33-3.5-.33-.84 0-1.67.07-.83.03-1.45.1l-.14-.1z"/><path d="M703.57 129.07q-.43-.28-1.1-.68-.7-.45-1.64-.8-.9-.4-2.02-.66-1.1-.25-2.37-.25-1.74 0-3.32.6-1.58.62-2.8 1.88-1.24 1.23-2 3.1-.72 1.88-.72 4.4 0 2.07.65 3.84.65 1.73 1.8 3 1.2 1.26 2.82 1.98 1.66.7 3.65.7 2.3 0 4.08-.77 1.77-.8 3.4-1.8l.9 2.88q-1.52 1.17-3.76 1.96-2.24.8-4.7.8-2.74 0-5-.98-2.3-.98-3.95-2.64-1.62-1.7-2.52-3.97-.9-2.27-.9-4.83 0-3.15 1-5.6 1.02-2.45 2.7-4.15 1.75-1.7 3.98-2.57 2.28-.9 4.77-.9 1.26 0 2.42.25 1.2.2 2.2.57 1.05.36 1.88.8.83.43 1.37.83l-.8 3z"/><path d="M722.57 140.77q0 1.84-.6 3.4-.6 1.55-1.64 2.67-1 1.1-2.42 1.76-1.36.62-2.9.62-1.6 0-3-.62-1.38-.65-2.43-1.76-1-1.12-1.6-2.68-.56-1.55-.56-3.4 0-1.87.55-3.46.58-1.62 1.55-2.78 1-1.2 2.38-1.84 1.38-.65 2.96-.65 1.77 0 3.18.7 1.44.64 2.46 1.8 1 1.15 1.55 2.77.54 1.6.54 3.47zm-3.32-.04q0-2.7-1.2-4.36-1.15-1.66-3.2-1.66-.95 0-1.7.47-.76.44-1.3 1.27-.54.8-.83 1.9-.3 1.1-.3 2.4 0 2.63 1.16 4.22 1.16 1.6 3.1 1.6 1.85 0 3.04-1.57 1.23-1.56 1.23-4.27z"/><path d="M729.62 123.73v24.98h-3.25v-24.54l3.25-.43z"/><path d="M744.25 146.84q-.86.97-2.13 1.7-1.22.68-2.92.68-.97 0-1.9-.33-.92-.33-1.64-1.05-.68-.73-1.12-1.88-.4-1.2-.4-2.9v-10.53h3.26v10.04q0 2.1.75 2.92.8.8 2.06.8.63 0 1.24-.22.65-.26 1.2-.65.53-.44.96-.98.44-.54.65-1.2v-10.7h3.25v16.16h-2.8l-.34-1.86h-.1z"/><path d="M764.13 134.38q1.44-1.23 2.67-1.77 1.23-.57 2.78-.57.9 0 1.8.3.9.28 1.6.93.7.65 1.15 1.66.47.98.47 2.38v11.4h-3.25v-10.78q0-.9-.3-1.48-.24-.58-.68-.9-.43-.37-1-.47-.55-.15-1.1-.15-1.04 0-2 .65-1 .62-1.6 1.34v11.8h-3.25v-10.78q0-.9-.3-1.48-.28-.58-.75-.9-.43-.37-.97-.47-.54-.15-1.05-.15-1 0-1.95.54-.94.55-1.66 1.45v11.8h-3.25v-16.16h2.66l.26 1.48h.18q.97-.83 2.23-1.4 1.27-.6 2.82-.6 1.4 0 2.5.63 1.1.6 1.8 1.73h.18z"/><path d="M781.67 134.02q1.16-.94 2.46-1.44 1.3-.55 2.8-.55 1.1 0 2 .33.9.32 1.55.97.7.65 1.05 1.7.4 1 .4 2.42v11.26h-3.26V138.3q0-1-.25-1.66-.25-.7-.68-1.05-.4-.36-.94-.5-.54-.15-1.12-.15-1.12 0-2.2.62-1.05.57-1.66 1.44v11.73h-3.25v-16.16h2.67l.25 1.48h.17z"/><path d="M804.86 136.5q-1.15-.9-2.23-1.36-1.05-.47-2.1-.47-1.15 0-1.73.5-.54.47-.54 1.1 0 .46.3.85.28.37.78.76.5.36 1.2.8.7.4 1.55.86 2.26 1.34 3.13 2.5.9 1.15.9 2.67 0 1.12-.47 2-.43.82-1.23 1.4-.76.54-1.77.83-.97.3-2.06.3-1.73 0-3.24-.6-1.48-.57-2.4-1.4l1-2.42q1.03.74 2.12 1.24 1.08.5 2.42.5 1.08 0 1.8-.46.76-.5.76-1.37 0-.46-.33-.9-.28-.43-.83-.83-.5-.43-1.2-.83-.67-.4-1.43-.8-1-.53-1.77-1.04-.76-.54-1.3-1.08-.5-.58-.76-1.23-.25-.66-.25-1.5 0-.9.3-1.7.38-.82 1.06-1.43.7-.6 1.63-.97.96-.37 2.22-.37 1.56 0 2.96.62 1.45.6 2.5 1.48l-1.02 2.38z"/><path d="M645.18 193.84V172.4l-4.44.5-.2-2.92 7.35-.94.6.43v24.37h-3.32z"/><path d="M673.78 181.3q0 3.44-.68 5.93-.65 2.46-1.84 4.04-1.2 1.6-2.86 2.35-1.62.76-3.57.76-1.88 0-3.54-.7-1.67-.67-2.9-2.2-1.22-1.54-1.95-4.03-.72-2.5-.72-6.14 0-3.35.72-5.73.73-2.38 1.95-3.9 1.23-1.5 2.9-2.2 1.65-.72 3.53-.72 1.95 0 3.57.8 1.66.75 2.86 2.34 1.2 1.54 1.84 3.92.68 2.35.68 5.5zm-3.46-.06q0-4.7-1.6-7.08-1.54-2.42-4.03-2.42-1.1 0-2.1.55-.98.53-1.74 1.72-.76 1.15-1.23 2.96-.43 1.77-.43 4.26 0 2.92.47 4.9.5 1.96 1.3 3.1.8 1.17 1.8 1.67 1 .48 2.1.48 2.56 0 4-2.34 1.45-2.4 1.45-7.8z"/><path d="M695.46 191.96q-.86.98-2.13 1.7-1.22.68-2.92.68-.97 0-1.9-.32-.9-.33-1.63-1.05-.7-.72-1.12-1.88-.4-1.2-.4-2.9v-10.54h3.25v10.04q0 2.1.76 2.92.8.8 2.06.8.6 0 1.23-.22.65-.25 1.2-.65.53-.43.96-.97.45-.54.66-1.2v-10.72h3.25v16.18h-2.8l-.33-1.88h-.1z"/><path d="M705.8 179.14q1.16-.93 2.46-1.44 1.3-.54 2.82-.54 1.08 0 1.98.32.9.33 1.55.98.7.65 1.06 1.7.4 1 .4 2.4v11.28h-3.25V183.4q0-1-.24-1.66-.26-.68-.7-1.04-.4-.36-.93-.5-.54-.15-1.12-.15-1.1 0-2.2.6-1.04.6-1.65 1.46v11.74h-3.25v-16.18h2.67l.25 1.48h.18z"/><path d="M723.84 177.48v16.36h-3.25v-15.92l3.24-.44zm-3.8-6.1q0-.9.62-1.5.65-.66 1.55-.66t1.53.65q.65.6.65 1.5 0 .92-.65 1.57-.62.6-1.52.6t-1.54-.6q-.62-.65-.62-1.56z"/><path d="M733.42 172.03v5.63h3.8v2.53h-3.8v13.64h-3.25V180.2h-3.25v-1.5l3.25-1.22v-4.5l3.25-.95z"/><path d="M748.53 181.64q-1.16-.9-2.24-1.38-1.06-.47-2.1-.47-1.16 0-1.74.5-.54.47-.54 1.08 0 .47.3.87.28.36.8.76.5.37 1.18.8.72.4 1.55.87 2.27 1.33 3.14 2.5.9 1.14.9 2.66 0 1.12-.48 2-.43.82-1.22 1.4-.76.54-1.77.82-.98.3-2.06.3-1.73 0-3.25-.58-1.48-.58-2.38-1.4l.97-2.43q1.06.72 2.14 1.23 1.08.5 2.42.5 1.08 0 1.8-.47.76-.5.76-1.37 0-.47-.32-.9-.3-.44-.83-.83-.5-.44-1.2-.83-.68-.4-1.44-.8-1-.54-1.77-1.04-.75-.55-1.3-1.1-.5-.56-.75-1.2-.25-.66-.25-1.5 0-.9.33-1.7.36-.82 1.05-1.43.68-.62 1.62-.98.97-.36 2.24-.36 1.54 0 2.95.6 1.44.63 2.5 1.5l-1.02 2.38z"/><path d="M770.47 184.56l-3.57 9.78h-1.1l-6.45-16.68h3.36l3.7 10.15h.14l3.6-10.35h.95l3.45 10.36h.15l3.46-10.14h3.36l-6.46 16.68h-1.1l-3.27-9.78h-.23z"/><path d="M787.8 177.48v16.36h-3.26v-15.92l3.25-.44zm-3.8-6.1q0-.9.6-1.5.66-.66 1.56-.66t1.52.65q.65.6.65 1.5 0 .92-.65 1.57-.62.6-1.52.6t-1.55-.6q-.6-.65-.6-1.56z"/><path d="M802.82 192.3q-1.26 1.14-2.42 1.57-1.15.47-2.45.47-1.37 0-2.57-.54-1.15-.54-2.02-1.55-.83-1.05-1.3-2.56-.47-1.57-.47-3.52 0-1.84.5-3.46.54-1.66 1.52-2.9 1-1.22 2.4-1.94 1.46-.72 3.26-.72 1.16 0 1.95.32.83.33 1.37.8h.2v-9l3.23-.42v24.98h-2.38l-.68-1.55h-.15zm-3.97-.84q1 0 2.06-.4 1.05-.44 1.9-1.37v-8.43q-.63-.64-1.53-.97-.87-.32-1.8-.32-2.2 0-3.4 1.66-1.15 1.62-1.15 4.33 0 2.78 1.08 4.15 1.12 1.34 2.85 1.34z"/><path d="M812.6 186.65q0 1.4.37 2.4.36.93.94 1.5.63.58 1.42.83.83.26 1.77.26 1.04 0 2.2-.47 1.18-.5 1.98-1.27h.1l.62 2.6q-.9.83-2.3 1.34-1.38.5-3.08.5-1.48 0-2.82-.47-1.3-.47-2.3-1.44-1.02-.97-1.63-2.53-.58-1.55-.58-3.72 0-1.98.53-3.64.58-1.66 1.6-2.85 1-1.2 2.34-1.85 1.37-.7 2.96-.7 1.44 0 2.6.5 1.15.52 1.95 1.42.83.87 1.26 2.06.43 1.2.43 2.53 0 .54-.07 1.4-.03.84-.3 1.6h-10zm7.16-2.3q.15-1.1-.07-1.92-.2-.83-.66-1.4-.43-.6-1.08-.87-.62-.33-1.3-.33-.83 0-1.56.36-.68.32-1.22.93-.5.6-.8 1.44-.3.8-.32 1.77h7z"/></g></g></g></svg>
