<svg xmlns="http://www.w3.org/2000/svg" width="1464.486" height="1577" xmlns:xlink="http://www.w3.org/1999/xlink"><defs><marker orient="auto" overflow="visible"><path fill-rule="evenodd" stroke="#000" stroke-width=".8pt" d="M-4.62 0L2.3-4v8z"/></marker><marker orient="auto" overflow="visible"><path fill="#c00000" fill-rule="evenodd" stroke="#c00000" stroke-width=".8pt" d="M-4.62 0L2.3-4v8z"/></marker><marker orient="auto" overflow="visible"><path fill-rule="evenodd" stroke="#000" stroke-width=".6875" d="M10.7 4.44L-1.34.02 10.7-4.4c-1.93 2.6-1.92 6.18 0 8.84z" stroke-linejoin="round"/></marker><marker orient="auto" overflow="visible"><path fill-rule="evenodd" stroke="#000" stroke-width=".4pt" d="M2.3 0l-3.45 2v-4z"/></marker><marker orient="auto" overflow="visible"><path fill-rule="evenodd" stroke="#000" stroke-width=".4pt" d="M2.3 0l-3.45 2v-4z"/></marker><marker orient="auto" overflow="visible"><path fill-rule="evenodd" stroke="#000" stroke-width=".4pt" d="M2.3 0l-3.45 2v-4z"/></marker><marker orient="auto" overflow="visible"><path fill-rule="evenodd" stroke="#000" stroke-width=".8pt" d="M4.62 0L-2.3 4v-8z"/></marker><marker orient="auto" overflow="visible"><path fill-rule="evenodd" stroke="#000" stroke-width=".375" d="M-5.23-2.42l6.55 2.4-6.55 2.42c1.05-1.42 1.04-3.37 0-4.82z" stroke-linejoin="round"/></marker><marker orient="auto" overflow="visible"><path fill-rule="evenodd" stroke="#000" stroke-width=".4pt" d="M2.3 0l-3.45 2v-4z"/></marker><marker orient="auto" overflow="visible"><path fill-rule="evenodd" stroke="#000" stroke-width=".8pt" d="M4.62 0L-2.3 4v-8z"/></marker><marker orient="auto" overflow="visible"><path fill-rule="evenodd" stroke="#000" stroke-width=".6875" d="M10.7 4.44L-1.34.02 10.7-4.4c-1.93 2.6-1.92 6.18 0 8.84z" stroke-linejoin="round"/></marker><marker orient="auto" overflow="visible"><path fill-rule="evenodd" stroke="#000" stroke-width=".6875" d="M-10.7-4.44L1.34-.02-10.7 4.4c1.93-2.6 1.92-6.18 0-8.84z" stroke-linejoin="round"/></marker><linearGradient><stop offset="0" stop-color="#4c4c4c"/><stop offset="1" stop-color="#656565"/></linearGradient><linearGradient><stop offset="0" stop-color="#4c4c4c"/><stop offset="1" stop-color="#656565"/></linearGradient><linearGradient><stop offset="0" stop-color="#4c4c4c"/><stop offset="1" stop-color="#656565"/></linearGradient><linearGradient><stop offset="0" stop-color="#4c4c4c"/><stop offset="1" stop-color="#656565"/></linearGradient><linearGradient><stop offset="0" stop-color="#4c4c4c"/><stop offset="1" stop-color="#656565"/></linearGradient><linearGradient><stop offset="0" stop-color="#4c4c4c"/><stop offset="1" stop-color="#656565"/></linearGradient><linearGradient><stop offset="0" stop-color="#4c4c4c"/><stop offset="1" stop-color="#656565"/></linearGradient><linearGradient><stop offset="0" stop-color="#4c4c4c"/><stop offset="1" stop-color="#656565"/></linearGradient><linearGradient><stop offset="0" stop-color="#4c4c4c"/><stop offset="1" stop-color="#656565"/></linearGradient><linearGradient><stop offset="0" stop-color="#4c4c4c"/><stop offset="1" stop-color="#656565"/></linearGradient><linearGradient><stop offset="0" stop-color="#4c4c4c"/><stop offset="1" stop-color="#656565"/></linearGradient><linearGradient><stop offset="0" stop-color="#4c4c4c"/><stop offset="1" stop-color="#656565"/></linearGradient><linearGradient><stop offset="0" stop-color="#4c4c4c"/><stop offset="1" stop-color="#656565"/></linearGradient><linearGradient><stop offset="0" stop-color="#4c4c4c"/><stop offset="1" stop-color="#656565"/></linearGradient><linearGradient><stop offset="0" stop-color="#4c4c4c"/><stop offset="1" stop-color="#656565"/></linearGradient><linearGradient><stop offset="0" stop-color="#4c4c4c"/><stop offset="1" stop-color="#656565"/></linearGradient><linearGradient><stop offset="0" stop-color="#4c4c4c"/><stop offset="1" stop-color="#656565"/></linearGradient><linearGradient><stop offset="0" stop-color="#4c4c4c"/><stop offset="1" stop-color="#656565"/></linearGradient><linearGradient><stop offset="0" stop-color="#4c4c4c"/><stop offset="1" stop-color="#656565"/></linearGradient><linearGradient><stop offset="0" stop-color="#4c4c4c"/><stop offset="1" stop-color="#656565"/></linearGradient><linearGradient><stop offset="0" stop-color="#4c4c4c"/><stop offset="1" stop-color="#656565"/></linearGradient><linearGradient><stop offset="0" stop-color="#4c4c4c"/><stop offset="1" stop-color="#656565"/></linearGradient><linearGradient><stop offset="0" stop-color="#4c4c4c"/><stop offset="1" stop-color="#656565"/></linearGradient><linearGradient><stop offset="0" stop-color="#4c4c4c"/><stop offset="1" stop-color="#656565"/></linearGradient><linearGradient><stop offset="0" stop-color="#4c4c4c"/><stop offset="1" stop-color="#656565"/></linearGradient><linearGradient><stop offset="0" stop-color="#4c4c4c"/><stop offset="1" stop-color="#656565"/></linearGradient><linearGradient><stop offset="0" stop-color="#4c4c4c"/><stop offset="1" stop-color="#656565"/></linearGradient><linearGradient><stop offset="0" stop-color="#4c4c4c"/><stop offset="1" stop-color="#656565"/></linearGradient><linearGradient><stop offset="0" stop-color="#4c4c4c"/><stop offset="1" stop-color="#656565"/></linearGradient><linearGradient><stop offset="0" stop-color="#4c4c4c"/><stop offset="1" stop-color="#656565"/></linearGradient><linearGradient><stop offset="0" stop-color="#4c4c4c"/><stop offset="1" stop-color="#656565"/></linearGradient><linearGradient><stop offset="0" stop-color="#4c4c4c"/><stop offset="1" stop-color="#656565"/></linearGradient><linearGradient><stop offset="0" stop-color="#4c4c4c"/><stop offset="1" stop-color="#656565"/></linearGradient><linearGradient><stop offset="0" stop-color="#4c4c4c"/><stop offset="1" stop-color="#656565"/></linearGradient><linearGradient><stop offset="0" stop-color="#4c4c4c"/><stop offset="1" stop-color="#656565"/></linearGradient><linearGradient><stop offset="0" stop-color="#4c4c4c"/><stop offset="1" stop-color="#656565"/></linearGradient><linearGradient><stop offset="0" stop-color="#4c4c4c"/><stop offset="1" stop-color="#656565"/></linearGradient><linearGradient><stop offset="0" stop-color="#4c4c4c"/><stop offset="1" stop-color="#656565"/></linearGradient><linearGradient><stop offset="0" stop-color="#4c4c4c"/><stop offset="1" stop-color="#656565"/></linearGradient><linearGradient><stop offset="0" stop-color="#4c4c4c"/><stop offset="1" stop-color="#656565"/></linearGradient><linearGradient><stop offset="0" stop-color="#4c4c4c"/><stop offset="1" stop-color="#656565"/></linearGradient><linearGradient><stop offset="0" stop-color="#4c4c4c"/><stop offset="1" stop-color="#656565"/></linearGradient><linearGradient><stop offset="0" stop-color="#4c4c4c"/><stop offset="1" stop-color="#656565"/></linearGradient><linearGradient><stop offset="0" stop-color="#4c4c4c"/><stop offset="1" stop-color="#656565"/></linearGradient><linearGradient><stop offset="0" stop-color="#4c4c4c"/><stop offset="1" stop-color="#656565"/></linearGradient><linearGradient><stop offset="0" stop-color="#4c4c4c"/><stop offset="1" stop-color="#656565"/></linearGradient><linearGradient><stop offset="0" stop-color="#4c4c4c"/><stop offset="1" stop-color="#656565"/></linearGradient><linearGradient><stop offset="0" stop-color="#4c4c4c"/><stop offset="1" stop-color="#656565"/></linearGradient><linearGradient><stop offset="0" stop-color="#4c4c4c"/><stop offset="1" stop-color="#656565"/></linearGradient><linearGradient><stop offset="0" stop-color="#4c4c4c"/><stop offset="1" stop-color="#656565"/></linearGradient><linearGradient><stop offset="0" stop-color="#4c4c4c"/><stop offset="1" stop-color="#656565"/></linearGradient><linearGradient><stop offset="0" stop-color="#4c4c4c"/><stop offset="1" stop-color="#656565"/></linearGradient><linearGradient><stop offset="0" stop-color="#4c4c4c"/><stop offset="1" stop-color="#656565"/></linearGradient><linearGradient><stop offset="0" stop-color="#4c4c4c"/><stop offset="1" stop-color="#656565"/></linearGradient><linearGradient><stop offset="0" stop-color="#4c4c4c"/><stop offset="1" stop-color="#656565"/></linearGradient><linearGradient><stop offset="0" stop-color="#4c4c4c"/><stop offset="1" stop-color="#656565"/></linearGradient><linearGradient><stop offset="0" stop-color="#4c4c4c"/><stop offset="1" stop-color="#656565"/></linearGradient><linearGradient><stop offset="0" stop-color="#4c4c4c"/><stop offset="1" stop-color="#656565"/></linearGradient><linearGradient><stop offset="0" stop-color="#4c4c4c"/><stop offset="1" stop-color="#656565"/></linearGradient><linearGradient><stop offset="0" stop-color="#4c4c4c"/><stop offset="1" stop-color="#656565"/></linearGradient><linearGradient><stop offset="0" stop-color="#4c4c4c"/><stop offset="1" stop-color="#656565"/></linearGradient><linearGradient><stop offset="0" stop-color="#4c4c4c"/><stop offset="1" stop-color="#656565"/></linearGradient><linearGradient><stop offset="0" stop-color="#4c4c4c"/><stop offset="1" stop-color="#656565"/></linearGradient><linearGradient><stop offset="0" stop-color="#4c4c4c"/><stop offset="1" stop-color="#656565"/></linearGradient><linearGradient><stop offset="0" stop-color="#4c4c4c"/><stop offset="1" stop-color="#656565"/></linearGradient><linearGradient><stop offset="0" stop-color="#4c4c4c"/><stop offset="1" stop-color="#656565"/></linearGradient><linearGradient><stop offset="0" stop-color="#4c4c4c"/><stop offset="1" stop-color="#656565"/></linearGradient><linearGradient><stop offset="0" stop-color="#4c4c4c"/><stop offset="1" stop-color="#656565"/></linearGradient><linearGradient><stop offset="0" stop-color="#4c4c4c"/><stop offset="1" stop-color="#656565"/></linearGradient><linearGradient><stop offset="0" stop-color="#4c4c4c"/><stop offset="1" stop-color="#656565"/></linearGradient><linearGradient><stop offset="0" stop-color="#4c4c4c"/><stop offset="1" stop-color="#656565"/></linearGradient><linearGradient><stop offset="0" stop-color="#4c4c4c"/><stop offset="1" stop-color="#656565"/></linearGradient><linearGradient><stop offset="0" stop-color="#4c4c4c"/><stop offset="1" stop-color="#656565"/></linearGradient><linearGradient><stop offset="0" stop-color="#4c4c4c"/><stop offset="1" stop-color="#656565"/></linearGradient><linearGradient><stop offset="0" stop-color="#4c4c4c"/><stop offset="1" stop-color="#656565"/></linearGradient><linearGradient><stop offset="0" stop-color="#4c4c4c"/><stop offset="1" stop-color="#656565"/></linearGradient><linearGradient><stop offset="0" stop-color="#4c4c4c"/><stop offset="1" stop-color="#656565"/></linearGradient><linearGradient><stop offset="0" stop-color="#4c4c4c"/><stop offset="1" stop-color="#656565"/></linearGradient><linearGradient><stop offset="0" stop-color="#4c4c4c"/><stop offset="1" stop-color="#656565"/></linearGradient><linearGradient><stop offset="0" stop-color="#4c4c4c"/><stop offset="1" stop-color="#656565"/></linearGradient><linearGradient><stop offset="0" stop-color="#4c4c4c"/><stop offset="1" stop-color="#656565"/></linearGradient><linearGradient><stop offset="0" stop-color="#4c4c4c"/><stop offset="1" stop-color="#656565"/></linearGradient><linearGradient><stop offset="0" stop-color="#4c4c4c"/><stop offset="1" stop-color="#656565"/></linearGradient><linearGradient><stop offset="0" stop-color="#4c4c4c"/><stop offset="1" stop-color="#656565"/></linearGradient><linearGradient><stop offset="0" stop-color="#4c4c4c"/><stop offset="1" stop-color="#656565"/></linearGradient><linearGradient><stop offset="0" stop-color="#4c4c4c"/><stop offset="1" stop-color="#656565"/></linearGradient><linearGradient><stop offset="0" stop-color="#4c4c4c"/><stop offset="1" stop-color="#656565"/></linearGradient><linearGradient><stop offset="0" stop-color="#4c4c4c"/><stop offset="1" stop-color="#656565"/></linearGradient><linearGradient><stop offset="0" stop-color="#4c4c4c"/><stop offset="1" stop-color="#656565"/></linearGradient><linearGradient><stop offset="0" stop-color="#4c4c4c"/><stop offset="1" stop-color="#656565"/></linearGradient><linearGradient><stop offset="0" stop-color="#4c4c4c"/><stop offset="1" stop-color="#656565"/></linearGradient><linearGradient><stop offset="0" stop-color="#4c4c4c"/><stop offset="1" stop-color="#656565"/></linearGradient><linearGradient><stop offset="0" stop-color="#4c4c4c"/><stop offset="1" stop-color="#656565"/></linearGradient><linearGradient><stop offset="0" stop-color="#4c4c4c"/><stop offset="1" stop-color="#656565"/></linearGradient><linearGradient><stop offset="0" stop-color="#4c4c4c"/><stop offset="1" stop-color="#656565"/></linearGradient><linearGradient><stop offset="0" stop-color="#4c4c4c"/><stop offset="1" stop-color="#656565"/></linearGradient><linearGradient><stop offset="0" stop-color="#4c4c4c"/><stop offset="1" stop-color="#656565"/></linearGradient><linearGradient><stop offset="0" stop-color="#4c4c4c"/><stop offset="1" stop-color="#656565"/></linearGradient><linearGradient><stop offset="0" stop-color="#4c4c4c"/><stop offset="1" stop-color="#656565"/></linearGradient><linearGradient><stop offset="0" stop-color="#4c4c4c"/><stop offset="1" stop-color="#656565"/></linearGradient><linearGradient><stop offset="0" stop-color="#4c4c4c"/><stop offset="1" stop-color="#656565"/></linearGradient><linearGradient><stop offset="0" stop-color="#4c4c4c"/><stop offset="1" stop-color="#656565"/></linearGradient><linearGradient><stop offset="0" stop-color="#4c4c4c"/><stop offset="1" stop-color="#656565"/></linearGradient><linearGradient><stop offset="0" stop-color="#4c4c4c"/><stop offset="1" stop-color="#656565"/></linearGradient><linearGradient><stop offset="0" stop-color="#4c4c4c"/><stop offset="1" stop-color="#656565"/></linearGradient><linearGradient><stop offset="0" stop-color="#4c4c4c"/><stop offset="1" stop-color="#656565"/></linearGradient><linearGradient><stop offset="0" stop-color="#4c4c4c"/><stop offset="1" stop-color="#656565"/></linearGradient><linearGradient><stop offset="0" stop-color="#4c4c4c"/><stop offset="1" stop-color="#656565"/></linearGradient><linearGradient><stop offset="0" stop-color="#4c4c4c"/><stop offset="1" stop-color="#656565"/></linearGradient><linearGradient><stop offset="0" stop-color="#4c4c4c"/><stop offset="1" stop-color="#656565"/></linearGradient><linearGradient><stop offset="0" stop-color="#4c4c4c"/><stop offset="1" stop-color="#656565"/></linearGradient><linearGradient><stop offset="0" stop-color="#4c4c4c"/><stop offset="1" stop-color="#656565"/></linearGradient><linearGradient><stop offset="0" stop-color="#4c4c4c"/><stop offset="1" stop-color="#656565"/></linearGradient><linearGradient><stop offset="0" stop-color="#4c4c4c"/><stop offset="1" stop-color="#656565"/></linearGradient><linearGradient><stop offset="0" stop-color="#4c4c4c"/><stop offset="1" stop-color="#656565"/></linearGradient><linearGradient><stop offset="0" stop-color="#4c4c4c"/><stop offset="1" stop-color="#656565"/></linearGradient><linearGradient><stop offset="0" stop-color="#4c4c4c"/><stop offset="1" stop-color="#656565"/></linearGradient><linearGradient><stop offset="0" stop-color="#4c4c4c"/><stop offset="1" stop-color="#656565"/></linearGradient><linearGradient><stop offset="0" stop-color="#4c4c4c"/><stop offset="1" stop-color="#656565"/></linearGradient><linearGradient><stop offset="0" stop-color="#4c4c4c"/><stop offset="1" stop-color="#656565"/></linearGradient><linearGradient><stop offset="0" stop-color="#4c4c4c"/><stop offset="1" stop-color="#656565"/></linearGradient><linearGradient><stop offset="0" stop-color="#4c4c4c"/><stop offset="1" stop-color="#656565"/></linearGradient><linearGradient><stop offset="0" stop-color="#4c4c4c"/><stop offset="1" stop-color="#656565"/></linearGradient><linearGradient><stop offset="0" stop-color="#4c4c4c"/><stop offset="1" stop-color="#656565"/></linearGradient><linearGradient><stop offset="0" stop-color="#4c4c4c"/><stop offset="1" stop-color="#656565"/></linearGradient><linearGradient><stop offset="0" stop-color="#4c4c4c"/><stop offset="1" stop-color="#656565"/></linearGradient><linearGradient><stop offset="0" stop-color="#4c4c4c"/><stop offset="1" stop-color="#656565"/></linearGradient><linearGradient><stop offset="0" stop-color="#4c4c4c"/><stop offset="1" stop-color="#656565"/></linearGradient><linearGradient><stop offset="0" stop-color="#4c4c4c"/><stop offset="1" stop-color="#656565"/></linearGradient><linearGradient><stop offset="0" stop-color="#4c4c4c"/><stop offset="1" stop-color="#656565"/></linearGradient><linearGradient><stop offset="0" stop-color="#4c4c4c"/><stop offset="1" stop-color="#656565"/></linearGradient><linearGradient><stop offset="0" stop-color="#4c4c4c"/><stop offset="1" stop-color="#656565"/></linearGradient><linearGradient><stop offset="0" stop-color="#4c4c4c"/><stop offset="1" stop-color="#656565"/></linearGradient><linearGradient><stop offset="0" stop-color="#4c4c4c"/><stop offset="1" stop-color="#656565"/></linearGradient><linearGradient><stop offset="0" stop-color="#4c4c4c"/><stop offset="1" stop-color="#656565"/></linearGradient><linearGradient><stop offset="0" stop-color="#4c4c4c"/><stop offset="1" stop-color="#656565"/></linearGradient><linearGradient><stop offset="0" stop-color="#4c4c4c"/><stop offset="1" stop-color="#656565"/></linearGradient><linearGradient><stop offset="0" stop-color="#4c4c4c"/><stop offset="1" stop-color="#656565"/></linearGradient><linearGradient><stop offset="0" stop-color="#4c4c4c"/><stop offset="1" stop-color="#656565"/></linearGradient><linearGradient><stop offset="0" stop-color="#4c4c4c"/><stop offset="1" stop-color="#656565"/></linearGradient><linearGradient><stop offset="0" stop-color="#4c4c4c"/><stop offset="1" stop-color="#656565"/></linearGradient><linearGradient><stop offset="0" stop-color="#4c4c4c"/><stop offset="1" stop-color="#656565"/></linearGradient><linearGradient><stop offset="0" stop-color="#4c4c4c"/><stop offset="1" stop-color="#656565"/></linearGradient><linearGradient><stop offset="0" stop-color="#4c4c4c"/><stop offset="1" stop-color="#656565"/></linearGradient><linearGradient><stop offset="0" stop-color="#4c4c4c"/><stop offset="1" stop-color="#656565"/></linearGradient><linearGradient><stop offset="0" stop-color="#4c4c4c"/><stop offset="1" stop-color="#656565"/></linearGradient><linearGradient><stop offset="0" stop-color="#4c4c4c"/><stop offset="1" stop-color="#656565"/></linearGradient><linearGradient><stop offset="0" stop-color="#4c4c4c"/><stop offset="1" stop-color="#656565"/></linearGradient><linearGradient><stop offset="0" stop-color="#4c4c4c"/><stop offset="1" stop-color="#656565"/></linearGradient><linearGradient><stop offset="0" stop-color="#4c4c4c"/><stop offset="1" stop-color="#656565"/></linearGradient><linearGradient><stop offset="0" stop-color="#4c4c4c"/><stop offset="1" stop-color="#656565"/></linearGradient><linearGradient><stop offset="0" stop-color="#4c4c4c"/><stop offset="1" stop-color="#656565"/></linearGradient><linearGradient><stop offset="0" stop-color="#4c4c4c"/><stop offset="1" stop-color="#656565"/></linearGradient><linearGradient><stop offset="0" stop-color="#4c4c4c"/><stop offset="1" stop-color="#656565"/></linearGradient><linearGradient><stop offset="0" stop-color="#4c4c4c"/><stop offset="1" stop-color="#656565"/></linearGradient><linearGradient><stop offset="0" stop-color="#4c4c4c"/><stop offset="1" stop-color="#656565"/></linearGradient><linearGradient><stop offset="0" stop-color="#4c4c4c"/><stop offset="1" stop-color="#656565"/></linearGradient><linearGradient><stop offset="0" stop-color="#4c4c4c"/><stop offset="1" stop-color="#656565"/></linearGradient><linearGradient><stop offset="0" stop-color="#4c4c4c"/><stop offset="1" stop-color="#656565"/></linearGradient><linearGradient><stop offset="0" stop-color="#4c4c4c"/><stop offset="1" stop-color="#656565"/></linearGradient><linearGradient><stop offset="0" stop-color="#4c4c4c"/><stop offset="1" stop-color="#656565"/></linearGradient><linearGradient><stop offset="0" stop-color="#4c4c4c"/><stop offset="1" stop-color="#656565"/></linearGradient><linearGradient><stop offset="0" stop-color="#4c4c4c"/><stop offset="1" stop-color="#656565"/></linearGradient><linearGradient><stop offset="0" stop-color="#4c4c4c"/><stop offset="1" stop-color="#656565"/></linearGradient><linearGradient><stop offset="0" stop-color="#4c4c4c"/><stop offset="1" stop-color="#656565"/></linearGradient><linearGradient><stop offset="0" stop-color="#4c4c4c"/><stop offset="1" stop-color="#656565"/></linearGradient><linearGradient><stop offset="0" stop-color="#4c4c4c"/><stop offset="1" stop-color="#656565"/></linearGradient><linearGradient><stop offset="0" stop-color="#4c4c4c"/><stop offset="1" stop-color="#656565"/></linearGradient><linearGradient><stop offset="0" stop-color="#4c4c4c"/><stop offset="1" stop-color="#656565"/></linearGradient><linearGradient><stop offset="0" stop-color="#4c4c4c"/><stop offset="1" stop-color="#656565"/></linearGradient><linearGradient><stop offset="0" stop-color="#4c4c4c"/><stop offset="1" stop-color="#656565"/></linearGradient><linearGradient><stop offset="0" stop-color="#4c4c4c"/><stop offset="1" stop-color="#656565"/></linearGradient><linearGradient><stop offset="0" stop-color="#4c4c4c"/><stop offset="1" stop-color="#656565"/></linearGradient><linearGradient><stop offset="0" stop-color="#4c4c4c"/><stop offset="1" stop-color="#656565"/></linearGradient><linearGradient><stop offset="0" stop-color="#4c4c4c"/><stop offset="1" stop-color="#656565"/></linearGradient><linearGradient id="a"><stop offset="0" stop-color="#4887d2"/><stop offset="1" stop-color="#71a2dc"/></linearGradient><linearGradient x1="1975.884" x2="3466.778" y1="-5656.661" y2="-6315.289" xlink:href="#a" gradientUnits="userSpaceOnUse"/><linearGradient x1="1975.884" x2="3466.778" y1="-5656.661" y2="-6315.289" xlink:href="#a" gradientUnits="userSpaceOnUse"/><linearGradient x1="1975.884" x2="3466.778" y1="-5656.661" y2="-6315.289" xlink:href="#a" gradientUnits="userSpaceOnUse" gradientTransform="translate(583.61 3916.609)"/><linearGradient x1="1975.884" x2="3466.778" y1="-5656.661" y2="-6315.289" xlink:href="#a" gradientUnits="userSpaceOnUse" gradientTransform="translate(137.304 1781.357)"/><linearGradient x1="1975.884" x2="3466.778" y1="-5656.661" y2="-6315.289" xlink:href="#a" gradientUnits="userSpaceOnUse" gradientTransform="translate(137.304 1781.357)"/><linearGradient x1="1975.884" x2="3466.778" y1="-5656.661" y2="-6315.289" xlink:href="#a" gradientUnits="userSpaceOnUse"/><linearGradient x1="1975.884" x2="3466.778" y1="-5656.661" y2="-6315.289" xlink:href="#a" gradientUnits="userSpaceOnUse"/><linearGradient x1="1975.884" x2="3466.778" y1="-5656.661" y2="-6315.289" xlink:href="#a" gradientUnits="userSpaceOnUse"/><linearGradient x1="1975.884" x2="3466.778" y1="-5656.661" y2="-6315.289" xlink:href="#a" gradientUnits="userSpaceOnUse" gradientTransform="translate(507.231 -1205.157)"/><linearGradient x1="1975.884" x2="3466.778" y1="-5656.661" y2="-6315.289" xlink:href="#a" gradientUnits="userSpaceOnUse" gradientTransform="translate(953.42 929.153)"/><linearGradient x1="1975.884" x2="3466.778" y1="-5656.661" y2="-6315.289" xlink:href="#a" gradientUnits="userSpaceOnUse" gradientTransform="translate(507.231 -1205.157)"/><marker orient="auto" overflow="visible"><path fill-rule="evenodd" stroke="#000" stroke-width=".8pt" d="M4.62 0L-2.3 4v-8z"/></marker><marker orient="auto" overflow="visible"><path fill-rule="evenodd" stroke="#000" stroke-width=".4pt" d="M2.3 0l-3.45 2v-4z"/></marker><marker orient="auto" overflow="visible"><path fill-rule="evenodd" stroke="#000" stroke-width=".4pt" d="M2.3 0l-3.45 2v-4z"/></marker><marker orient="auto" overflow="visible"><path fill-rule="evenodd" stroke="#000" stroke-width=".4pt" d="M2.3 0l-3.45 2v-4z"/></marker><marker orient="auto" overflow="visible"><path fill-rule="evenodd" stroke="#000" stroke-width=".4pt" d="M2.3 0l-3.45 2v-4z"/></marker><marker orient="auto" overflow="visible"><path fill-rule="evenodd" stroke="#000" stroke-width=".4pt" d="M2.3 0l-3.45 2v-4z"/></marker><marker orient="auto" overflow="visible"><path fill-rule="evenodd" stroke="#000" stroke-width=".4pt" d="M2.3 0l-3.45 2v-4z"/></marker><marker orient="auto" overflow="visible"><path fill-rule="evenodd" stroke="#000" stroke-width=".4pt" d="M2.3 0l-3.45 2v-4z"/></marker><marker orient="auto" overflow="visible"><path fill-rule="evenodd" stroke="#000" stroke-width=".4pt" d="M2.3 0l-3.45 2v-4z"/></marker><marker orient="auto" overflow="visible"><path fill-rule="evenodd" stroke="#000" stroke-width=".4pt" d="M2.3 0l-3.45 2v-4z"/></marker><marker orient="auto" overflow="visible"><path fill-rule="evenodd" stroke="#000" stroke-width=".4pt" d="M2.3 0l-3.45 2v-4z"/></marker><marker orient="auto" overflow="visible"><path fill-rule="evenodd" stroke="#000" stroke-width=".4pt" d="M2.3 0l-3.45 2v-4z"/></marker><marker orient="auto" overflow="visible"><path fill-rule="evenodd" stroke="#000" stroke-width=".4pt" d="M2.3 0l-3.45 2v-4z"/></marker><marker orient="auto" overflow="visible"><path fill-rule="evenodd" stroke="#000" stroke-width=".4pt" d="M2.3 0l-3.45 2v-4z"/></marker><marker orient="auto" overflow="visible"><path fill-rule="evenodd" stroke="#000" stroke-width=".8pt" d="M4.62 0L-2.3 4v-8z"/></marker><marker orient="auto" overflow="visible"><path fill-rule="evenodd" stroke="#000" stroke-width=".8pt" d="M4.62 0L-2.3 4v-8z"/></marker><marker orient="auto" overflow="visible"><path fill="#789440" fill-rule="evenodd" stroke="#789440" stroke-width=".8pt" d="M4.62 0L-2.3 4v-8z"/></marker><marker orient="auto" overflow="visible"><path fill="#789440" fill-rule="evenodd" stroke="#789440" stroke-width=".8pt" d="M4.62 0L-2.3 4v-8z"/></marker><marker orient="auto" overflow="visible"><path fill="#ffc000" fill-rule="evenodd" stroke="#ffc000" stroke-width=".8pt" d="M-4.62 0L2.3-4v8z"/></marker><marker orient="auto" overflow="visible"><path fill="#ffc000" fill-rule="evenodd" stroke="#ffc000" stroke-width=".4pt" d="M2.3 0l-3.45 2v-4z"/></marker><marker orient="auto" overflow="visible"><path fill-rule="evenodd" stroke="#000" stroke-width=".8pt" d="M4.62 0L-2.3 4v-8z"/></marker></defs><g><g transform="translate(0 524.638) translate(-11.989 652.685)"><path fill="#fbd140" d="M1044.44-968.32c-3.74 0-6.75 3-6.75 6.76v35.03c0 3.74 3 6.76 6.74 6.76h21.84c3.5 0 6.75-3.24 6.75-6.74v-19.1l5.12-4.87v-11.1c0-3.74-3-6.75-6.74-6.75z"/><rect width="31.545" height="47.563" x="1092.71" y="-1312.726" fill="#ffe9a1" transform="matrix(.949 .315 0 1 0 0)" rx="6.381" ry="6.743"/><text x="1082.877" y="-929.273" fill="#404030" style="line-height:0%;-inkscape-font-specification:'Concourse T4, Normal';text-align:start" font-family="Concourse T4" letter-spacing="0" word-spacing="0"><tspan x="1082.877" y="-929.273" style="line-height:1.25" font-size="32.5">01-pages</tspan></text><text x="443.348" y="71.219" fill="#404030" style="line-height:0%;-inkscape-font-specification:'Triplicate T4c, Normal';text-align:start" font-family="Triplicate T4c" letter-spacing="0" word-spacing="0"><tspan x="443.348" y="71.219" style="line-height:1.25" font-size="32.5">fig-04-01.png</tspan><tspan x="443.348" y="111.844" style="line-height:1.25" font-size="32.5">fig-04-02.png</tspan><tspan x="443.348" y="152.469" style="line-height:1.25" font-size="32.5">fig-04-03.png</tspan><tspan x="443.348" y="193.094" style="line-height:1.25" font-size="32.5">fig-04-04.png</tspan><tspan x="443.348" y="233.719" style="line-height:1.25" font-size="32.5">fig-04-05.png</tspan><tspan x="443.348" y="274.344" style="line-height:1.25" font-size="32.5">fig-04-06.svg</tspan><tspan x="443.348" y="314.969" style="line-height:1.25" font-size="32.5">fig-04-07.svg</tspan></text><rect width="40" height="49" x="255.477" y="-965.138" fill="#ffe9a1" ry="5" rx="5"/><path fill="#6789c8" d="M272.8-962.05q.2-.1.4.03.18.12.3.35.1.2.13.44.02.23-.14.3l-5.52 2.74v.28l5.56 2.8q.16.12.16.36 0 .25-.1.5-.1.22-.3.36-.18.14-.37.04l-6.6-3.54q-.16-.07-.24-.23-.1-.17-.1-.35-.02-.17.05-.33.1-.18.24-.27z" style="line-height:89.99999762%;-inkscape-font-specification:'Triplicate T4c, Normal';text-align:start" font-family="Triplicate T4c" letter-spacing="0" word-spacing="0"/><path fill="#6789c8" d="M284.6-958.57q.15.1.22.26.1.15.07.32-.03.18-.1.35-.08.16-.24.23l-6.6 3.54q-.2.1-.38-.04t-.28-.37q-.1-.24-.1-.5 0-.23.15-.34l5.56-2.82v-.27l-5.5-2.73q-.16-.07-.16-.3.02-.23.14-.44.13-.23.32-.35.2-.14.38-.03z" style="line-height:89.99999762%;-inkscape-font-specification:'Triplicate T4c, Normal';text-align:start" font-family="Triplicate T4c" letter-spacing="0" word-spacing="0"/><path fill="#6789c8" d="M270.18-950.3q.04-.15.2-.22.15-.07.3-.05.18 0 .3.08.13.1.1.26-.86 3.43-1.56 6.67-.7 3.23-1.33 6.6-.05.15-.2.22-.16.07-.34.05-.17 0-.32-.1-.12-.1-.08-.23l1.03-4.7h-1.37q-.14 0-.23-.16-.07-.2-.07-.4t.07-.38q.07-.2.23-.2h1.6l.5-2.25h-1.46q-.14 0-.22-.18-.07-.2-.07-.4 0-.22.07-.4.07-.2.22-.2h1.72zm2.6 0q.03-.15.18-.22.16-.07.32-.05.17 0 .3.08.12.1.08.26l-.86 3.95h1.4q.13 0 .2.2.07.18.07.4 0 .2-.07.4-.07.17-.2.17h-1.66l-.5 2.26h1.52q.12 0 .2.2.06.16.06.37 0 .2-.07.4-.07.18-.2.18h-1.74l-1.03 4.74q-.03.16-.2.23-.16.07-.34.05-.17 0-.3-.1-.12-.1-.08-.23.42-1.66.8-3.3.4-1.63.75-3.28.37-1.65.7-3.32.35-1.66.67-3.37z" style="line-height:89.99999762%;-inkscape-font-specification:'Triplicate T4c, Normal';text-align:start" font-family="Triplicate T4c" letter-spacing="0" word-spacing="0"/><path fill="#6789c8" d="M280.67-950.3q.04-.15.2-.22.15-.07.3-.05.2 0 .3.08.13.1.1.26-.86 3.43-1.56 6.67-.67 3.23-1.32 6.6-.04.15-.2.22-.15.07-.33.05-.17 0-.3-.1-.13-.1-.1-.23l1.03-4.7h-1.36q-.14 0-.23-.16-.08-.2-.08-.4t.07-.38q.06-.2.22-.2h1.6l.52-2.25h-1.47q-.14 0-.23-.18-.07-.2-.07-.4 0-.22.07-.4.07-.2.23-.2h1.7zm2.6 0q.03-.15.2-.22.14-.07.3-.05.18 0 .3.08.12.1.1.26l-.87 3.95h1.4q.12 0 .2.2.06.18.06.4 0 .2-.07.4-.08.17-.2.17h-1.66l-.5 2.26h1.5q.13 0 .2.2.07.16.07.37 0 .2-.06.4-.07.18-.2.18h-1.74l-1.03 4.74q-.04.16-.2.23-.17.07-.34.05-.18 0-.3-.1t-.1-.23q.43-1.66.82-3.3.4-1.63.75-3.28.37-1.65.7-3.32.35-1.66.66-3.37z" style="line-height:89.99999762%;-inkscape-font-specification:'Triplicate T4c, Normal';text-align:start" font-family="Triplicate T4c" letter-spacing="0" word-spacing="0"/><path fill="#6789c8" d="M268.4-927.1q.45.06.96.26.52.2.96.5.44.3.72.72.3.42.3.9 0 .6-.14 1.27-.13.67-.13 1.4 0 .47.1.82.08.37.34.62.3.23.8.35.5.13 1.35.13.15 0 .2.14.07.15.07.33 0 .17-.08.3-.07.17-.2.17-1.3 0-2.08-.2-.77-.18-1.2-.55-.4-.37-.53-.9-.12-.54-.12-1.22 0-.7.1-1.33.14-.65.14-1.3 0-.45-.28-.76-.28-.34-.72-.55-.42-.2-.95-.3-.5-.1-1-.1-.23 0-.23-.27v-1.1q0-.07.05-.14.07-.08.2-.08.47 0 .97-.12.52-.14.94-.35.44-.23.72-.53.28-.3.28-.66 0-.65-.1-1.2-.1-.54-.1-1.17 0-.7.16-1.2.18-.5.6-.82.43-.3 1.17-.45.73-.14 1.87-.14.18 0 .26.14.1.14.1.32 0 .17-.1.33-.08.13-.26.13-.63 0-1.1.05-.46.06-.77.23-.3.2-.46.52-.13.33-.13.9 0 .7.13 1.32.14.6.14 1.1 0 .42-.3.8-.28.34-.72.64-.42.28-.94.5-.5.18-.97.27z" style="line-height:89.99999762%;-inkscape-font-specification:'Triplicate T4c, Normal';text-align:start" font-family="Triplicate T4c" letter-spacing="0" word-spacing="0"/><path fill="#6789c8" d="M282.48-927.35q-.46-.1-.98-.28-.5-.2-.95-.5-.44-.3-.72-.64-.28-.37-.28-.8 0-.5.13-1.1.14-.6.14-1.32 0-.55-.16-.88-.14-.33-.46-.5-.3-.18-.77-.24-.45-.05-1.08-.05-.18 0-.26-.14-.1-.17-.1-.34 0-.18.07-.32.1-.15.28-.15 1.14 0 1.87.13.74.14 1.16.45.43.32.6.82.17.5.17 1.2 0 .62-.1 1.17-.1.54-.1 1.2 0 .34.28.65.28.3.7.53.44.2.95.35.52.12 1 .12.12 0 .17.07.07.06.07.13v1.1q0 .26-.24.26-.48 0-1 .1-.5.1-.95.3-.42.22-.7.56-.28.3-.28.77 0 .64.1 1.3.13.62.13 1.32 0 .68-.14 1.2-.12.55-.54.92-.4.37-1.2.56-.76.2-2.06.2-.14 0-.2-.17-.08-.14-.08-.3 0-.2.06-.34.07-.14.22-.14.84 0 1.35-.13.5-.12.76-.36.28-.26.37-.63.1-.35.1-.82 0-.73-.15-1.4-.13-.68-.13-1.26 0-.5.28-.92.3-.42.74-.72t.94-.5q.52-.2.98-.25z" style="line-height:89.99999762%;-inkscape-font-specification:'Triplicate T4c, Normal';text-align:start" font-family="Triplicate T4c" letter-spacing="0" word-spacing="0"/><path fill="none" stroke="#6789c8" stroke-width="2" d="M376.14-971.4v-49.93h737.3v49.94"/><text x="1117.586" y="-888.068" fill="#404030" style="line-height:0%;-inkscape-font-specification:'Concourse T4, Normal';text-align:center" font-family="Concourse T4" letter-spacing="0" word-spacing="0" text-anchor="middle"><tspan x="1117.586" y="-888.068" style="line-height:1.25" font-size="22.5">Specific information</tspan><tspan x="1117.586" y="-859.943" style="line-height:1.25" font-size="22.5">for each web page</tspan></text><path fill="none" stroke="#404030" stroke-width="2" d="M1030.92-906.96h-10v55h10"/><path fill="none" stroke="#6789c8" stroke-opacity=".998" stroke-width="2" d="M744.85-1121.64v100"/><g transform="translate(-44.8)"><path fill="#fbd140" d="M749.65-1177.32c-3.73 0-6.74 3-6.74 6.76v35.03c0 3.74 3.02 6.76 6.75 6.76h21.85c3.5 0 6.75-3.24 6.75-6.74v-19.1l5.12-4.87v-11.1c0-3.74-3-6.75-6.74-6.75z"/><rect width="31.545" height="47.563" x="782.139" y="-1423.956" fill="#ffe9a1" ry="6.743" rx="6.381" transform="matrix(.949 .315 0 1 0 0)"/><text x="786.097" y="-1138.273" fill="#404030" style="line-height:0%;-inkscape-font-specification:'Concourse T4, Normal';text-align:start" font-family="Concourse T4" letter-spacing="0" word-spacing="0"><tspan x="786.097" y="-1138.273" style="line-height:1.25" font-size="32.5">root</tspan></text></g><path fill="none" stroke="#67c875" stroke-width="2" d="M1117.3-847.64v565.35"/><g transform="translate(-169.504 -772)"><path fill="#fbd140" d="M225.28 572.68c-3.73 0-6.74 3-6.74 6.76v35.03c0 3.74 3 6.76 6.74 6.76h21.85c3.5 0 6.74-3.24 6.74-6.74v-19.1l5.13-4.87v-11.1c0-3.74-3-6.75-6.74-6.75z"/><rect width="31.545" height="47.563" x="229.678" y="499.962" fill="#ffe9a1" ry="6.743" rx="6.381" transform="matrix(.949 .315 0 1 0 0)"/><text x="261.725" y="611.727" fill="#404030" style="line-height:0%;-inkscape-font-specification:'Concourse T4, Normal';text-align:start" font-family="Concourse T4" letter-spacing="0" word-spacing="0"><tspan x="261.725" y="611.727" style="line-height:1.25" font-size="32.5">00-00-index</tspan></text></g><g transform="translate(-204.712 -772)"><path fill="#fbd140" d="M514 572.68c-3.72 0-6.73 3-6.73 6.76v35.03c0 3.74 3 6.76 6.74 6.76h21.86c3.5 0 6.74-3.24 6.74-6.74v-19.1l5.13-4.87v-11.1c0-3.74-3-6.75-6.75-6.75z"/><rect width="31.545" height="47.563" x="533.872" y="404.199" fill="#ffe9a1" ry="6.743" rx="6.381" transform="matrix(.949 .315 0 1 0 0)"/><text x="550.453" y="611.727" fill="#404030" style="line-height:0%;-inkscape-font-specification:'Concourse T4, Normal';text-align:start" font-family="Concourse T4" letter-spacing="0" word-spacing="0"><tspan x="550.453" y="611.727" style="line-height:1.25" font-size="32.5">01-00-introduction</tspan></text></g><text x="617.594" y="-167.398" fill="#404030" style="line-height:0%;-inkscape-font-specification:'Concourse C4, Normal';text-align:start" font-family="Concourse C4" letter-spacing="0" word-spacing="0"><tspan x="617.594" y="-167.398" style="line-height:1.25" font-size="80">...</tspan></text><path fill="none" stroke="#c867ba" stroke-width="2" d="M871.48-135.64v71"/><g transform="translate(-35.704 -772)"><path fill="#fbd140" d="M101.28 757c-3.73 0-6.74 3-6.74 6.75v35.03c0 3.75 3 6.76 6.74 6.76h21.85c3.5 0 6.74-3.23 6.74-6.74v-19.1l5.13-4.86v-11.1c0-3.73-3-6.75-6.74-6.75z"/><rect width="31.545" height="47.563" x="99.035" y="725.404" fill="#ffe9a1" ry="6.743" rx="6.381" transform="matrix(.949 .315 0 1 0 0)"/><text x="137.725" y="796.042" fill="#404030" style="line-height:0%;-inkscape-font-specification:'Concourse T4, Normal';text-align:start" font-family="Concourse T4" letter-spacing="0" word-spacing="0"><tspan x="137.725" y="796.042" style="line-height:1.25" font-size="32.5">01-local-css</tspan></text></g><g transform="translate(69.975 -772)"><path fill="#fbd140" d="M427.28 758.68c-3.73 0-6.74 3-6.74 6.76v35.03c0 3.74 3 6.76 6.74 6.76h21.85c3.5 0 6.74-3.24 6.74-6.74v-19.1l5.13-4.87v-11.1c0-3.74-3-6.75-6.74-6.75z"/><rect width="31.545" height="47.563" x="442.498" y="618.964" fill="#ffe9a1" ry="6.743" rx="6.381" transform="matrix(.949 .315 0 1 0 0)"/><text x="463.725" y="797.727" fill="#404030" style="line-height:0%;-inkscape-font-specification:'Concourse T4, Normal';text-align:start" font-family="Concourse T4" letter-spacing="0" word-spacing="0"><tspan x="463.725" y="797.727" style="line-height:1.25" font-size="32.5">02-image</tspan></text></g><g transform="translate(547.288 -772)"><path fill="#fbd140" d="M701.28 760.68c-3.73 0-6.74 3-6.74 6.76v35.03c0 3.74 3 6.76 6.74 6.76h21.85c3.5 0 6.74-3.24 6.74-6.74v-19.1l5.13-4.87v-11.1c0-3.74-3-6.75-6.74-6.75z"/><rect width="31.545" height="47.563" x="731.176" y="530.087" fill="#ffe9a1" ry="6.743" rx="6.381" transform="matrix(.949 .315 0 1 0 0)"/><text x="737.725" y="799.727" fill="#404030" style="line-height:0%;-inkscape-font-specification:'Concourse T4, Normal';text-align:start" font-family="Concourse T4" letter-spacing="0" word-spacing="0"><tspan x="737.725" y="799.727" style="line-height:1.25" font-size="32.5">05-local-js</tspan></text></g><text x="1291.963" y="-167.398" fill="#404030" style="line-height:0%;-inkscape-font-specification:'Concourse C4, Normal';text-align:start" font-family="Concourse C4" letter-spacing="0" word-spacing="0"><tspan x="1291.963" y="-167.398" style="line-height:1.25" font-size="80">...</tspan></text><path fill="none" stroke="#404030" stroke-width="2" d="M1203.8-906.96h10v55h-10"/><path fill="none" stroke="#67c875" stroke-width="2" d="M155.4-231.3v-50h295v50"/><path fill="none" stroke="#67c875" stroke-width="2" d="M450.04-231.3v-50h421.4v50"/><path fill="none" stroke="#67c875" stroke-width="2" d="M871.48-231.3v-50h462.63v50"/><g transform="translate(534.715 -772)"><path fill="#fbd140" d="M225.28 572.68c-3.73 0-6.74 3-6.74 6.76v35.03c0 3.74 3 6.76 6.74 6.76h21.85c3.5 0 6.74-3.24 6.74-6.74v-19.1l5.13-4.87v-11.1c0-3.74-3-6.75-6.74-6.75z"/><rect width="31.545" height="47.563" x="229.678" y="499.962" fill="#ffe9a1" ry="6.743" rx="6.381" transform="matrix(.949 .315 0 1 0 0)"/><text x="261.725" y="611.727" fill="#404030" style="line-height:0%;-inkscape-font-specification:'Concourse T4, Normal';text-align:start" font-family="Concourse T4" letter-spacing="0" word-spacing="0"><tspan x="261.725" y="611.727" style="line-height:1.25" font-size="32.5">04-02-starting</tspan></text></g><path fill="none" stroke="#c867ba" stroke-width="2" d="M156.3-14.55v-50h1176.94v50"/><text x="319.739" y="-942.373" fill="#404030" style="line-height:0%;-inkscape-font-specification:'Triplicate T4c, Normal';text-align:start" font-family="Triplicate T4c" letter-spacing="0" word-spacing="0"><tspan x="319.739" y="-942.373" style="line-height:1.25" font-size="32.5">index.html</tspan><tspan x="319.739" y="-901.748" style="line-height:1.25" font-size="32.5">01-00-introduction.html</tspan><tspan x="319.739" y="-861.123" style="line-height:1.25" font-size="32.5">01-01-howtouse.html</tspan><tspan x="319.739" y="-820.498" style="line-height:1.25" font-size="32.5">01-02-paying.html</tspan><tspan x="319.739" y="-779.873" style="line-height:1.25" font-size="32.5">01-03-typographical.htlm</tspan><tspan x="319.739" y="-739.248" style="line-height:1.25" font-size="32.5">01-04-tools.html</tspan><tspan x="319.739" y="-698.623" style="line-height:1.25" font-size="32.5">02-00-fairfax.html</tspan><tspan x="319.739" y="-657.998" style="line-height:1.25" font-size="32.5">02-02-farfax.html</tspan><tspan x="319.739" y="-617.373" style="line-height:1.25" font-size="32.5">03-00-grid.html</tspan><tspan x="319.739" y="-576.748" style="line-height:1.25" font-size="32.5">03-02-grid.html</tspan><tspan x="319.739" y="-536.123" style="line-height:1.25" font-size="32.5">03.03-grid.html</tspan><tspan x="319.739" y="-495.498" style="line-height:1.25" font-size="32.5">03-04-grid.html</tspan><tspan x="319.739" y="-454.873" style="line-height:1.25" font-size="32.5">04-00-starting.html</tspan><tspan x="319.739" y="-414.248" style="line-height:1.25" font-size="32.5">04-02-starting.html</tspan></text><text x="1186.688" y="71.219" fill="#404030" style="line-height:0%;-inkscape-font-specification:'Triplicate T4c, Normal';text-align:start" font-family="Triplicate T4c" letter-spacing="0" word-spacing="0"><tspan x="1186.688" y="71.219" style="line-height:1.25" font-size="32.5">04-02-scroll.js</tspan></text><text x="11.989" y="71.23" fill="#404030" style="line-height:0%;-inkscape-font-specification:'Triplicate T4c, Normal';text-align:start" font-family="Triplicate T4c" letter-spacing="0" word-spacing="0"><tspan x="11.989" y="71.23" style="line-height:1.25" font-size="32.5">04-02-slideshow.css</tspan></text><text x="418.797" y="-376.843" fill="#404030" style="line-height:0%;-inkscape-font-specification:'Concourse C4, Normal';text-align:start" font-family="Concourse C4" letter-spacing="0" word-spacing="0"><tspan x="418.797" y="-376.843" style="line-height:1.25" font-size="80">...</tspan></text><text x="529.614" y="344.895" fill="#404030" style="line-height:0%;-inkscape-font-specification:'Concourse C4, Normal';text-align:start" font-family="Concourse C4" letter-spacing="0" word-spacing="0"><tspan x="529.614" y="344.895" style="line-height:1.25" font-size="80">...</tspan></text><path fill="none" stroke="#6789c8" stroke-width="2" d="M1113.18-971.4v-49.93h221v49.94"/><text x="1292.038" y="-932.963" fill="#404030" style="line-height:0%;-inkscape-font-specification:'Concourse C4, Normal';text-align:start" font-family="Concourse C4" letter-spacing="0" word-spacing="0"><tspan x="1292.038" y="-932.963" style="line-height:1.25" font-size="80">...</tspan></text><path fill="none" stroke="#c867ba" stroke-width="2" d="M156.4-14.55v-50h412.03v50"/><path fill="none" stroke="#c867ba" stroke-width="2" d="M921.2-14.55v-50h412.04v50"/><g transform="translate(156.619 -767.222)"><path fill="#fbd140" d="M701.28 760.68c-3.73 0-6.74 3-6.74 6.76v35.03c0 3.74 3 6.76 6.74 6.76h21.85c3.5 0 6.74-3.24 6.74-6.74v-19.1l5.13-4.87v-11.1c0-3.74-3-6.75-6.74-6.75z"/><rect width="31.545" height="47.563" x="731.176" y="530.087" fill="#ffe9a1" ry="6.743" rx="6.381" transform="matrix(.949 .315 0 1 0 0)"/><text x="737.725" y="799.727" fill="#404030" style="line-height:0%;-inkscape-font-specification:'Concourse T4, Normal';text-align:start" font-family="Concourse T4" letter-spacing="0" word-spacing="0"><tspan x="737.725" y="799.727" style="line-height:1.25" font-size="32.5">04-data</tspan></text></g><text x="844.019" y="75.997" fill="#404030" style="line-height:0%;-inkscape-font-specification:'Triplicate T4c, Normal';text-align:start" font-family="Triplicate T4c" letter-spacing="0" word-spacing="0"><tspan x="844.019" y="75.997" style="line-height:1.25" font-size="32.5">code.zip</tspan></text></g></g></svg>
