<svg xmlns="http://www.w3.org/2000/svg" width="1488" height="1194" xmlns:osb="http://www.openswatchbook.org/uri/2009/osb" xmlns:xlink="http://www.w3.org/1999/xlink"><defs><marker orient="auto" overflow="visible"><path fill="#c83737" fill-rule="evenodd" stroke="#c83737" stroke-width=".8pt" d="M-10 0l-4 4L0 0l-14-4 4 4z"/></marker><marker orient="auto" overflow="visible"><path fill-rule="evenodd" stroke="#000" stroke-width=".8pt" d="M-10 0l-4 4L0 0l-14-4 4 4z"/></marker><linearGradient osb:paint="solid"><stop offset="0" stop-color="#fea"/></linearGradient><marker orient="auto" overflow="visible"><path fill="#f00" fill-rule="evenodd" stroke="#f00" stroke-width=".375" d="M5.23 2.42L-1.32.02 5.23-2.4C4.18-.98 4.2.97 5.23 2.42z" stroke-linejoin="round"/></marker><marker orient="auto" overflow="visible"><path fill-rule="evenodd" stroke="#000" stroke-width=".8pt" d="M-4.62 0L2.3-4v8l-6.92-4z"/></marker><marker orient="auto" overflow="visible"><path fill="#c00000" fill-rule="evenodd" stroke="#c00000" stroke-width=".8pt" d="M-4.62 0L2.3-4v8l-6.92-4z"/></marker><marker orient="auto" overflow="visible"><path fill-rule="evenodd" stroke="#000" stroke-width=".6875" d="M10.7 4.44L-1.34.02 10.7-4.4c-1.93 2.6-1.92 6.18 0 8.84z" stroke-linejoin="round"/></marker><marker orient="auto" overflow="visible"><path fill-rule="evenodd" stroke="#000" stroke-width=".4pt" d="M2.3 0l-3.45 2v-4L2.3 0z"/></marker><marker orient="auto" overflow="visible"><path fill-rule="evenodd" stroke="#000" stroke-width=".4pt" d="M2.3 0l-3.45 2v-4L2.3 0z"/></marker><marker orient="auto" overflow="visible"><path fill-rule="evenodd" stroke="#000" stroke-width=".4pt" d="M2.3 0l-3.45 2v-4L2.3 0z"/></marker><marker orient="auto" overflow="visible"><path fill-rule="evenodd" stroke="#000" stroke-width=".8pt" d="M4.62 0L-2.3 4v-8l6.92 4z"/></marker><marker orient="auto" overflow="visible"><path fill="#f00" fill-rule="evenodd" stroke="#f00" stroke-width=".375" d="M-5.23-2.42l6.55 2.4-6.55 2.42c1.05-1.42 1.04-3.37 0-4.82z" stroke-linejoin="round"/></marker><marker orient="auto" overflow="visible"><path fill-rule="evenodd" stroke="#000" stroke-width=".4pt" d="M2.3 0l-3.45 2v-4L2.3 0z"/></marker><marker id="h" orient="auto" overflow="visible"><path fill="#c83737" fill-rule="evenodd" stroke="#c83737" stroke-width=".8pt" d="M4.62 0L-2.3 4v-8l6.92 4z"/></marker><marker orient="auto" overflow="visible"><path fill-rule="evenodd" stroke="#000" stroke-width=".6875" d="M10.7 4.44L-1.34.02 10.7-4.4c-1.93 2.6-1.92 6.18 0 8.84z" stroke-linejoin="round"/></marker><marker orient="auto" overflow="visible"><path fill="#c83737" fill-rule="evenodd" stroke="#c83737" stroke-width=".6875" d="M-10.7-4.44L1.34-.02-10.7 4.4c1.93-2.6 1.92-6.18 0-8.84z" stroke-linejoin="round"/></marker><linearGradient><stop offset="0" stop-color="#4c4c4c"/><stop offset="1" stop-color="#656565"/></linearGradient><linearGradient><stop offset="0" stop-color="#4c4c4c"/><stop offset="1" stop-color="#656565"/></linearGradient><linearGradient><stop offset="0" stop-color="#4c4c4c"/><stop offset="1" stop-color="#656565"/></linearGradient><linearGradient><stop offset="0" stop-color="#4c4c4c"/><stop offset="1" stop-color="#656565"/></linearGradient><linearGradient><stop offset="0" stop-color="#4c4c4c"/><stop offset="1" stop-color="#656565"/></linearGradient><linearGradient><stop offset="0" stop-color="#4c4c4c"/><stop offset="1" stop-color="#656565"/></linearGradient><linearGradient><stop offset="0" stop-color="#4c4c4c"/><stop offset="1" stop-color="#656565"/></linearGradient><linearGradient><stop offset="0" stop-color="#4c4c4c"/><stop offset="1" stop-color="#656565"/></linearGradient><linearGradient><stop offset="0" stop-color="#4c4c4c"/><stop offset="1" stop-color="#656565"/></linearGradient><linearGradient><stop offset="0" stop-color="#4c4c4c"/><stop offset="1" stop-color="#656565"/></linearGradient><linearGradient><stop offset="0" stop-color="#4c4c4c"/><stop offset="1" stop-color="#656565"/></linearGradient><linearGradient><stop offset="0" stop-color="#4c4c4c"/><stop offset="1" stop-color="#656565"/></linearGradient><linearGradient><stop offset="0" stop-color="#4c4c4c"/><stop offset="1" stop-color="#656565"/></linearGradient><linearGradient><stop offset="0" stop-color="#4c4c4c"/><stop offset="1" stop-color="#656565"/></linearGradient><linearGradient><stop offset="0" stop-color="#4c4c4c"/><stop offset="1" stop-color="#656565"/></linearGradient><linearGradient><stop offset="0" stop-color="#4c4c4c"/><stop offset="1" stop-color="#656565"/></linearGradient><linearGradient><stop offset="0" stop-color="#4c4c4c"/><stop offset="1" stop-color="#656565"/></linearGradient><linearGradient><stop offset="0" stop-color="#4c4c4c"/><stop offset="1" stop-color="#656565"/></linearGradient><linearGradient><stop offset="0" stop-color="#4c4c4c"/><stop offset="1" stop-color="#656565"/></linearGradient><linearGradient><stop offset="0" stop-color="#4c4c4c"/><stop offset="1" stop-color="#656565"/></linearGradient><linearGradient><stop offset="0" stop-color="#4c4c4c"/><stop offset="1" stop-color="#656565"/></linearGradient><linearGradient><stop offset="0" stop-color="#4c4c4c"/><stop offset="1" stop-color="#656565"/></linearGradient><linearGradient><stop offset="0" stop-color="#4c4c4c"/><stop offset="1" stop-color="#656565"/></linearGradient><linearGradient><stop offset="0" stop-color="#4c4c4c"/><stop offset="1" stop-color="#656565"/></linearGradient><linearGradient><stop offset="0" stop-color="#4c4c4c"/><stop offset="1" stop-color="#656565"/></linearGradient><linearGradient><stop offset="0" stop-color="#4c4c4c"/><stop offset="1" stop-color="#656565"/></linearGradient><linearGradient><stop offset="0" stop-color="#4c4c4c"/><stop offset="1" stop-color="#656565"/></linearGradient><linearGradient><stop offset="0" stop-color="#4c4c4c"/><stop offset="1" stop-color="#656565"/></linearGradient><linearGradient><stop offset="0" stop-color="#4c4c4c"/><stop offset="1" stop-color="#656565"/></linearGradient><linearGradient><stop offset="0" stop-color="#4c4c4c"/><stop offset="1" stop-color="#656565"/></linearGradient><linearGradient><stop offset="0" stop-color="#4c4c4c"/><stop offset="1" stop-color="#656565"/></linearGradient><linearGradient><stop offset="0" stop-color="#4c4c4c"/><stop offset="1" stop-color="#656565"/></linearGradient><linearGradient><stop offset="0" stop-color="#4c4c4c"/><stop offset="1" stop-color="#656565"/></linearGradient><linearGradient><stop offset="0" stop-color="#4c4c4c"/><stop offset="1" stop-color="#656565"/></linearGradient><linearGradient><stop offset="0" stop-color="#4c4c4c"/><stop offset="1" stop-color="#656565"/></linearGradient><linearGradient><stop offset="0" stop-color="#4c4c4c"/><stop offset="1" stop-color="#656565"/></linearGradient><linearGradient><stop offset="0" stop-color="#4c4c4c"/><stop offset="1" stop-color="#656565"/></linearGradient><linearGradient><stop offset="0" stop-color="#4c4c4c"/><stop offset="1" stop-color="#656565"/></linearGradient><linearGradient><stop offset="0" stop-color="#4c4c4c"/><stop offset="1" stop-color="#656565"/></linearGradient><linearGradient><stop offset="0" stop-color="#4c4c4c"/><stop offset="1" stop-color="#656565"/></linearGradient><linearGradient><stop offset="0" stop-color="#4c4c4c"/><stop offset="1" stop-color="#656565"/></linearGradient><linearGradient><stop offset="0" stop-color="#4c4c4c"/><stop offset="1" stop-color="#656565"/></linearGradient><linearGradient><stop offset="0" stop-color="#4c4c4c"/><stop offset="1" stop-color="#656565"/></linearGradient><linearGradient><stop offset="0" stop-color="#4c4c4c"/><stop offset="1" stop-color="#656565"/></linearGradient><linearGradient><stop offset="0" stop-color="#4c4c4c"/><stop offset="1" stop-color="#656565"/></linearGradient><linearGradient><stop offset="0" stop-color="#4c4c4c"/><stop offset="1" stop-color="#656565"/></linearGradient><linearGradient><stop offset="0" stop-color="#4c4c4c"/><stop offset="1" stop-color="#656565"/></linearGradient><linearGradient><stop offset="0" stop-color="#4c4c4c"/><stop offset="1" stop-color="#656565"/></linearGradient><linearGradient><stop offset="0" stop-color="#4c4c4c"/><stop offset="1" stop-color="#656565"/></linearGradient><linearGradient><stop offset="0" stop-color="#4c4c4c"/><stop offset="1" stop-color="#656565"/></linearGradient><linearGradient><stop offset="0" stop-color="#4c4c4c"/><stop offset="1" stop-color="#656565"/></linearGradient><linearGradient><stop offset="0" stop-color="#4c4c4c"/><stop offset="1" stop-color="#656565"/></linearGradient><linearGradient><stop offset="0" stop-color="#4c4c4c"/><stop offset="1" stop-color="#656565"/></linearGradient><linearGradient><stop offset="0" stop-color="#4c4c4c"/><stop offset="1" stop-color="#656565"/></linearGradient><linearGradient><stop offset="0" stop-color="#4c4c4c"/><stop offset="1" stop-color="#656565"/></linearGradient><linearGradient><stop offset="0" stop-color="#4c4c4c"/><stop offset="1" stop-color="#656565"/></linearGradient><linearGradient><stop offset="0" stop-color="#4c4c4c"/><stop offset="1" stop-color="#656565"/></linearGradient><linearGradient><stop offset="0" stop-color="#4c4c4c"/><stop offset="1" stop-color="#656565"/></linearGradient><linearGradient><stop offset="0" stop-color="#4c4c4c"/><stop offset="1" stop-color="#656565"/></linearGradient><linearGradient><stop offset="0" stop-color="#4c4c4c"/><stop offset="1" stop-color="#656565"/></linearGradient><linearGradient><stop offset="0" stop-color="#4c4c4c"/><stop offset="1" stop-color="#656565"/></linearGradient><linearGradient><stop offset="0" stop-color="#4c4c4c"/><stop offset="1" stop-color="#656565"/></linearGradient><linearGradient><stop offset="0" stop-color="#4c4c4c"/><stop offset="1" stop-color="#656565"/></linearGradient><linearGradient><stop offset="0" stop-color="#4c4c4c"/><stop offset="1" stop-color="#656565"/></linearGradient><linearGradient><stop offset="0" stop-color="#4c4c4c"/><stop offset="1" stop-color="#656565"/></linearGradient><linearGradient><stop offset="0" stop-color="#4c4c4c"/><stop offset="1" stop-color="#656565"/></linearGradient><linearGradient><stop offset="0" stop-color="#4c4c4c"/><stop offset="1" stop-color="#656565"/></linearGradient><linearGradient><stop offset="0" stop-color="#4c4c4c"/><stop offset="1" stop-color="#656565"/></linearGradient><linearGradient><stop offset="0" stop-color="#4c4c4c"/><stop offset="1" stop-color="#656565"/></linearGradient><linearGradient><stop offset="0" stop-color="#4c4c4c"/><stop offset="1" stop-color="#656565"/></linearGradient><linearGradient><stop offset="0" stop-color="#4c4c4c"/><stop offset="1" stop-color="#656565"/></linearGradient><linearGradient><stop offset="0" stop-color="#4c4c4c"/><stop offset="1" stop-color="#656565"/></linearGradient><linearGradient><stop offset="0" stop-color="#4c4c4c"/><stop offset="1" stop-color="#656565"/></linearGradient><linearGradient><stop offset="0" stop-color="#4c4c4c"/><stop offset="1" stop-color="#656565"/></linearGradient><linearGradient><stop offset="0" stop-color="#4c4c4c"/><stop offset="1" stop-color="#656565"/></linearGradient><linearGradient><stop offset="0" stop-color="#4c4c4c"/><stop offset="1" stop-color="#656565"/></linearGradient><linearGradient><stop offset="0" stop-color="#4c4c4c"/><stop offset="1" stop-color="#656565"/></linearGradient><linearGradient><stop offset="0" stop-color="#4c4c4c"/><stop offset="1" stop-color="#656565"/></linearGradient><linearGradient><stop offset="0" stop-color="#4c4c4c"/><stop offset="1" stop-color="#656565"/></linearGradient><linearGradient><stop offset="0" stop-color="#4c4c4c"/><stop offset="1" stop-color="#656565"/></linearGradient><linearGradient><stop offset="0" stop-color="#4c4c4c"/><stop offset="1" stop-color="#656565"/></linearGradient><linearGradient><stop offset="0" stop-color="#4c4c4c"/><stop offset="1" stop-color="#656565"/></linearGradient><linearGradient><stop offset="0" stop-color="#4c4c4c"/><stop offset="1" stop-color="#656565"/></linearGradient><linearGradient><stop offset="0" stop-color="#4c4c4c"/><stop offset="1" stop-color="#656565"/></linearGradient><linearGradient><stop offset="0" stop-color="#4c4c4c"/><stop offset="1" stop-color="#656565"/></linearGradient><linearGradient><stop offset="0" stop-color="#4c4c4c"/><stop offset="1" stop-color="#656565"/></linearGradient><linearGradient><stop offset="0" stop-color="#4c4c4c"/><stop offset="1" stop-color="#656565"/></linearGradient><linearGradient><stop offset="0" stop-color="#4c4c4c"/><stop offset="1" stop-color="#656565"/></linearGradient><linearGradient><stop offset="0" stop-color="#4c4c4c"/><stop offset="1" stop-color="#656565"/></linearGradient><linearGradient><stop offset="0" stop-color="#4c4c4c"/><stop offset="1" stop-color="#656565"/></linearGradient><linearGradient><stop offset="0" stop-color="#4c4c4c"/><stop offset="1" stop-color="#656565"/></linearGradient><linearGradient><stop offset="0" stop-color="#4c4c4c"/><stop offset="1" stop-color="#656565"/></linearGradient><linearGradient><stop offset="0" stop-color="#4c4c4c"/><stop offset="1" stop-color="#656565"/></linearGradient><linearGradient><stop offset="0" stop-color="#4c4c4c"/><stop offset="1" stop-color="#656565"/></linearGradient><linearGradient><stop offset="0" stop-color="#4c4c4c"/><stop offset="1" stop-color="#656565"/></linearGradient><linearGradient><stop offset="0" stop-color="#4c4c4c"/><stop offset="1" stop-color="#656565"/></linearGradient><linearGradient><stop offset="0" stop-color="#4c4c4c"/><stop offset="1" stop-color="#656565"/></linearGradient><linearGradient><stop offset="0" stop-color="#4c4c4c"/><stop offset="1" stop-color="#656565"/></linearGradient><linearGradient><stop offset="0" stop-color="#4c4c4c"/><stop offset="1" stop-color="#656565"/></linearGradient><linearGradient><stop offset="0" stop-color="#4c4c4c"/><stop offset="1" stop-color="#656565"/></linearGradient><linearGradient><stop offset="0" stop-color="#4c4c4c"/><stop offset="1" stop-color="#656565"/></linearGradient><linearGradient><stop offset="0" stop-color="#4c4c4c"/><stop offset="1" stop-color="#656565"/></linearGradient><linearGradient><stop offset="0" stop-color="#4c4c4c"/><stop offset="1" stop-color="#656565"/></linearGradient><linearGradient><stop offset="0" stop-color="#4c4c4c"/><stop offset="1" stop-color="#656565"/></linearGradient><linearGradient><stop offset="0" stop-color="#4c4c4c"/><stop offset="1" stop-color="#656565"/></linearGradient><linearGradient><stop offset="0" stop-color="#4c4c4c"/><stop offset="1" stop-color="#656565"/></linearGradient><linearGradient><stop offset="0" stop-color="#4c4c4c"/><stop offset="1" stop-color="#656565"/></linearGradient><linearGradient><stop offset="0" stop-color="#4c4c4c"/><stop offset="1" stop-color="#656565"/></linearGradient><linearGradient><stop offset="0" stop-color="#4c4c4c"/><stop offset="1" stop-color="#656565"/></linearGradient><linearGradient><stop offset="0" stop-color="#4c4c4c"/><stop offset="1" stop-color="#656565"/></linearGradient><linearGradient><stop offset="0" stop-color="#4c4c4c"/><stop offset="1" stop-color="#656565"/></linearGradient><linearGradient><stop offset="0" stop-color="#4c4c4c"/><stop offset="1" stop-color="#656565"/></linearGradient><linearGradient><stop offset="0" stop-color="#4c4c4c"/><stop offset="1" stop-color="#656565"/></linearGradient><linearGradient><stop offset="0" stop-color="#4c4c4c"/><stop offset="1" stop-color="#656565"/></linearGradient><linearGradient><stop offset="0" stop-color="#4c4c4c"/><stop offset="1" stop-color="#656565"/></linearGradient><linearGradient><stop offset="0" stop-color="#4c4c4c"/><stop offset="1" stop-color="#656565"/></linearGradient><linearGradient><stop offset="0" stop-color="#4c4c4c"/><stop offset="1" stop-color="#656565"/></linearGradient><linearGradient><stop offset="0" stop-color="#4c4c4c"/><stop offset="1" stop-color="#656565"/></linearGradient><linearGradient><stop offset="0" stop-color="#4c4c4c"/><stop offset="1" stop-color="#656565"/></linearGradient><linearGradient><stop offset="0" stop-color="#4c4c4c"/><stop offset="1" stop-color="#656565"/></linearGradient><linearGradient><stop offset="0" stop-color="#4c4c4c"/><stop offset="1" stop-color="#656565"/></linearGradient><linearGradient><stop offset="0" stop-color="#4c4c4c"/><stop offset="1" stop-color="#656565"/></linearGradient><linearGradient><stop offset="0" stop-color="#4c4c4c"/><stop offset="1" stop-color="#656565"/></linearGradient><linearGradient><stop offset="0" stop-color="#4c4c4c"/><stop offset="1" stop-color="#656565"/></linearGradient><linearGradient><stop offset="0" stop-color="#4c4c4c"/><stop offset="1" stop-color="#656565"/></linearGradient><linearGradient><stop offset="0" stop-color="#4c4c4c"/><stop offset="1" stop-color="#656565"/></linearGradient><linearGradient><stop offset="0" stop-color="#4c4c4c"/><stop offset="1" stop-color="#656565"/></linearGradient><linearGradient><stop offset="0" stop-color="#4c4c4c"/><stop offset="1" stop-color="#656565"/></linearGradient><linearGradient><stop offset="0" stop-color="#4c4c4c"/><stop offset="1" stop-color="#656565"/></linearGradient><linearGradient><stop offset="0" stop-color="#4c4c4c"/><stop offset="1" stop-color="#656565"/></linearGradient><linearGradient><stop offset="0" stop-color="#4c4c4c"/><stop offset="1" stop-color="#656565"/></linearGradient><linearGradient><stop offset="0" stop-color="#4c4c4c"/><stop offset="1" stop-color="#656565"/></linearGradient><linearGradient><stop offset="0" stop-color="#4c4c4c"/><stop offset="1" stop-color="#656565"/></linearGradient><linearGradient><stop offset="0" stop-color="#4c4c4c"/><stop offset="1" stop-color="#656565"/></linearGradient><linearGradient><stop offset="0" stop-color="#4c4c4c"/><stop offset="1" stop-color="#656565"/></linearGradient><linearGradient><stop offset="0" stop-color="#4c4c4c"/><stop offset="1" stop-color="#656565"/></linearGradient><linearGradient><stop offset="0" stop-color="#4c4c4c"/><stop offset="1" stop-color="#656565"/></linearGradient><linearGradient><stop offset="0" stop-color="#4c4c4c"/><stop offset="1" stop-color="#656565"/></linearGradient><linearGradient><stop offset="0" stop-color="#4c4c4c"/><stop offset="1" stop-color="#656565"/></linearGradient><linearGradient><stop offset="0" stop-color="#4c4c4c"/><stop offset="1" stop-color="#656565"/></linearGradient><linearGradient><stop offset="0" stop-color="#4c4c4c"/><stop offset="1" stop-color="#656565"/></linearGradient><linearGradient><stop offset="0" stop-color="#4c4c4c"/><stop offset="1" stop-color="#656565"/></linearGradient><linearGradient><stop offset="0" stop-color="#4c4c4c"/><stop offset="1" stop-color="#656565"/></linearGradient><linearGradient><stop offset="0" stop-color="#4c4c4c"/><stop offset="1" stop-color="#656565"/></linearGradient><linearGradient><stop offset="0" stop-color="#4c4c4c"/><stop offset="1" stop-color="#656565"/></linearGradient><linearGradient><stop offset="0" stop-color="#4c4c4c"/><stop offset="1" stop-color="#656565"/></linearGradient><linearGradient><stop offset="0" stop-color="#4c4c4c"/><stop offset="1" stop-color="#656565"/></linearGradient><linearGradient><stop offset="0" stop-color="#4c4c4c"/><stop offset="1" stop-color="#656565"/></linearGradient><linearGradient><stop offset="0" stop-color="#4c4c4c"/><stop offset="1" stop-color="#656565"/></linearGradient><linearGradient><stop offset="0" stop-color="#4c4c4c"/><stop offset="1" stop-color="#656565"/></linearGradient><linearGradient><stop offset="0" stop-color="#4c4c4c"/><stop offset="1" stop-color="#656565"/></linearGradient><linearGradient><stop offset="0" stop-color="#4c4c4c"/><stop offset="1" stop-color="#656565"/></linearGradient><linearGradient><stop offset="0" stop-color="#4c4c4c"/><stop offset="1" stop-color="#656565"/></linearGradient><linearGradient><stop offset="0" stop-color="#4c4c4c"/><stop offset="1" stop-color="#656565"/></linearGradient><linearGradient><stop offset="0" stop-color="#4c4c4c"/><stop offset="1" stop-color="#656565"/></linearGradient><linearGradient><stop offset="0" stop-color="#4c4c4c"/><stop offset="1" stop-color="#656565"/></linearGradient><linearGradient><stop offset="0" stop-color="#4c4c4c"/><stop offset="1" stop-color="#656565"/></linearGradient><linearGradient><stop offset="0" stop-color="#4c4c4c"/><stop offset="1" stop-color="#656565"/></linearGradient><linearGradient><stop offset="0" stop-color="#4c4c4c"/><stop offset="1" stop-color="#656565"/></linearGradient><linearGradient><stop offset="0" stop-color="#4c4c4c"/><stop offset="1" stop-color="#656565"/></linearGradient><linearGradient><stop offset="0" stop-color="#4c4c4c"/><stop offset="1" stop-color="#656565"/></linearGradient><linearGradient><stop offset="0" stop-color="#4c4c4c"/><stop offset="1" stop-color="#656565"/></linearGradient><linearGradient><stop offset="0" stop-color="#4c4c4c"/><stop offset="1" stop-color="#656565"/></linearGradient><linearGradient><stop offset="0" stop-color="#4c4c4c"/><stop offset="1" stop-color="#656565"/></linearGradient><linearGradient><stop offset="0" stop-color="#4c4c4c"/><stop offset="1" stop-color="#656565"/></linearGradient><linearGradient><stop offset="0" stop-color="#4c4c4c"/><stop offset="1" stop-color="#656565"/></linearGradient><linearGradient><stop offset="0" stop-color="#4c4c4c"/><stop offset="1" stop-color="#656565"/></linearGradient><linearGradient><stop offset="0" stop-color="#4c4c4c"/><stop offset="1" stop-color="#656565"/></linearGradient><linearGradient><stop offset="0" stop-color="#4c4c4c"/><stop offset="1" stop-color="#656565"/></linearGradient><linearGradient><stop offset="0" stop-color="#4c4c4c"/><stop offset="1" stop-color="#656565"/></linearGradient><linearGradient><stop offset="0" stop-color="#4c4c4c"/><stop offset="1" stop-color="#656565"/></linearGradient><linearGradient><stop offset="0" stop-color="#4c4c4c"/><stop offset="1" stop-color="#656565"/></linearGradient><linearGradient><stop offset="0" stop-color="#4c4c4c"/><stop offset="1" stop-color="#656565"/></linearGradient><linearGradient><stop offset="0" stop-color="#4c4c4c"/><stop offset="1" stop-color="#656565"/></linearGradient><linearGradient><stop offset="0" stop-color="#4c4c4c"/><stop offset="1" stop-color="#656565"/></linearGradient><linearGradient id="a"><stop offset="0" stop-color="#4887d2"/><stop offset="1" stop-color="#71a2dc"/></linearGradient><linearGradient x1="1975.884" x2="3466.778" y1="-5656.661" y2="-6315.289" xlink:href="#a" gradientUnits="userSpaceOnUse"/><linearGradient x1="1975.884" x2="3466.778" y1="-5656.661" y2="-6315.289" xlink:href="#a" gradientUnits="userSpaceOnUse"/><linearGradient x1="1975.884" x2="3466.778" y1="-5656.661" y2="-6315.289" xlink:href="#a" gradientUnits="userSpaceOnUse" gradientTransform="translate(583.61 3916.609)"/><linearGradient x1="1975.884" x2="3466.778" y1="-5656.661" y2="-6315.289" xlink:href="#a" gradientUnits="userSpaceOnUse" gradientTransform="translate(137.304 1781.357)"/><linearGradient x1="1975.884" x2="3466.778" y1="-5656.661" y2="-6315.289" xlink:href="#a" gradientUnits="userSpaceOnUse" gradientTransform="translate(137.304 1781.357)"/><linearGradient x1="1975.884" x2="3466.778" y1="-5656.661" y2="-6315.289" xlink:href="#a" gradientUnits="userSpaceOnUse"/><linearGradient x1="1975.884" x2="3466.778" y1="-5656.661" y2="-6315.289" xlink:href="#a" gradientUnits="userSpaceOnUse"/><linearGradient x1="1975.884" x2="3466.778" y1="-5656.661" y2="-6315.289" xlink:href="#a" gradientUnits="userSpaceOnUse"/><linearGradient x1="1975.884" x2="3466.778" y1="-5656.661" y2="-6315.289" xlink:href="#a" gradientUnits="userSpaceOnUse" gradientTransform="translate(507.231 -1205.157)"/><linearGradient x1="1975.884" x2="3466.778" y1="-5656.661" y2="-6315.289" xlink:href="#a" gradientUnits="userSpaceOnUse" gradientTransform="translate(953.42 929.153)"/><linearGradient x1="1975.884" x2="3466.778" y1="-5656.661" y2="-6315.289" xlink:href="#a" gradientUnits="userSpaceOnUse" gradientTransform="translate(507.231 -1205.157)"/><marker orient="auto" overflow="visible"><path fill-rule="evenodd" stroke="#000" stroke-width=".8pt" d="M4.62 0L-2.3 4v-8l6.92 4z"/></marker><marker orient="auto" overflow="visible"><path fill-rule="evenodd" stroke="#000" stroke-width=".4pt" d="M2.3 0l-3.45 2v-4L2.3 0z"/></marker><marker orient="auto" overflow="visible"><path fill-rule="evenodd" stroke="#000" stroke-width=".4pt" d="M2.3 0l-3.45 2v-4L2.3 0z"/></marker><marker orient="auto" overflow="visible"><path fill-rule="evenodd" stroke="#000" stroke-width=".4pt" d="M2.3 0l-3.45 2v-4L2.3 0z"/></marker><marker orient="auto" overflow="visible"><path fill-rule="evenodd" stroke="#000" stroke-width=".4pt" d="M2.3 0l-3.45 2v-4L2.3 0z"/></marker><marker orient="auto" overflow="visible"><path fill-rule="evenodd" stroke="#000" stroke-width=".4pt" d="M2.3 0l-3.45 2v-4L2.3 0z"/></marker><marker orient="auto" overflow="visible"><path fill-rule="evenodd" stroke="#000" stroke-width=".4pt" d="M2.3 0l-3.45 2v-4L2.3 0z"/></marker><marker orient="auto" overflow="visible"><path fill-rule="evenodd" stroke="#000" stroke-width=".4pt" d="M2.3 0l-3.45 2v-4L2.3 0z"/></marker><marker orient="auto" overflow="visible"><path fill-rule="evenodd" stroke="#000" stroke-width=".4pt" d="M2.3 0l-3.45 2v-4L2.3 0z"/></marker><marker orient="auto" overflow="visible"><path fill-rule="evenodd" stroke="#000" stroke-width=".4pt" d="M2.3 0l-3.45 2v-4L2.3 0z"/></marker><marker orient="auto" overflow="visible"><path fill-rule="evenodd" stroke="#000" stroke-width=".4pt" d="M2.3 0l-3.45 2v-4L2.3 0z"/></marker><marker orient="auto" overflow="visible"><path fill-rule="evenodd" stroke="#000" stroke-width=".4pt" d="M2.3 0l-3.45 2v-4L2.3 0z"/></marker><marker orient="auto" overflow="visible"><path fill-rule="evenodd" stroke="#000" stroke-width=".4pt" d="M2.3 0l-3.45 2v-4L2.3 0z"/></marker><marker orient="auto" overflow="visible"><path fill-rule="evenodd" stroke="#000" stroke-width=".4pt" d="M2.3 0l-3.45 2v-4L2.3 0z"/></marker><marker orient="auto" overflow="visible"><path fill-rule="evenodd" stroke="#000" stroke-width=".8pt" d="M4.62 0L-2.3 4v-8l6.92 4z"/></marker><marker orient="auto" overflow="visible"><path fill-rule="evenodd" stroke="#000" stroke-width=".8pt" d="M4.62 0L-2.3 4v-8l6.92 4z"/></marker><marker orient="auto" overflow="visible"><path fill="#789440" fill-rule="evenodd" stroke="#789440" stroke-width=".8pt" d="M4.62 0L-2.3 4v-8l6.92 4z"/></marker><marker orient="auto" overflow="visible"><path fill="#789440" fill-rule="evenodd" stroke="#789440" stroke-width=".8pt" d="M4.62 0L-2.3 4v-8l6.92 4z"/></marker><marker orient="auto" overflow="visible"><path fill="#ffc000" fill-rule="evenodd" stroke="#ffc000" stroke-width=".8pt" d="M-4.62 0L2.3-4v8l-6.92-4z"/></marker><marker orient="auto" overflow="visible"><path fill="#ffc000" fill-rule="evenodd" stroke="#ffc000" stroke-width=".4pt" d="M2.3 0l-3.45 2v-4L2.3 0z"/></marker><marker orient="auto" overflow="visible"><path fill-rule="evenodd" stroke="#000" stroke-width=".8pt" d="M4.62 0L-2.3 4v-8l6.92 4z"/></marker><marker orient="auto" overflow="visible"><path fill-rule="evenodd" stroke="#000" stroke-width=".375" d="M5.23 2.42L-1.32.02 5.23-2.4C4.18-.98 4.2.97 5.23 2.42z" stroke-linejoin="round"/></marker><marker orient="auto" overflow="visible"><path fill-rule="evenodd" stroke="#000" stroke-width=".375" d="M5.23 2.42L-1.32.02 5.23-2.4C4.18-.98 4.2.97 5.23 2.42z" stroke-linejoin="round"/></marker><marker orient="auto" overflow="visible"><path fill-rule="evenodd" stroke="#000" stroke-width=".375" d="M5.23 2.42L-1.32.02 5.23-2.4C4.18-.98 4.2.97 5.23 2.42z" stroke-linejoin="round"/></marker><marker orient="auto" overflow="visible"><path fill-rule="evenodd" stroke="#000" stroke-width=".375" d="M5.23 2.42L-1.32.02 5.23-2.4C4.18-.98 4.2.97 5.23 2.42z" stroke-linejoin="round"/></marker><marker orient="auto" overflow="visible"><path fill-rule="evenodd" stroke="#000" stroke-width=".375" d="M5.23 2.42L-1.32.02 5.23-2.4C4.18-.98 4.2.97 5.23 2.42z" stroke-linejoin="round"/></marker><marker orient="auto" overflow="visible"><path fill-rule="evenodd" stroke="#000" stroke-width=".375" d="M5.23 2.42L-1.32.02 5.23-2.4C4.18-.98 4.2.97 5.23 2.42z" stroke-linejoin="round"/></marker><marker orient="auto" overflow="visible"><path fill-rule="evenodd" stroke="#000" stroke-width=".375" d="M5.23 2.42L-1.32.02 5.23-2.4C4.18-.98 4.2.97 5.23 2.42z" stroke-linejoin="round"/></marker><marker orient="auto" overflow="visible"><path fill-rule="evenodd" stroke="#000" stroke-width=".375" d="M5.23 2.42L-1.32.02 5.23-2.4C4.18-.98 4.2.97 5.23 2.42z" stroke-linejoin="round"/></marker><marker orient="auto" overflow="visible"><path fill-rule="evenodd" stroke="#000" stroke-width=".375" d="M5.23 2.42L-1.32.02 5.23-2.4C4.18-.98 4.2.97 5.23 2.42z" stroke-linejoin="round"/></marker><marker orient="auto" overflow="visible"><path fill="#f00" fill-rule="evenodd" stroke="#f00" stroke-width=".375" d="M5.23 2.42L-1.32.02 5.23-2.4C4.18-.98 4.2.97 5.23 2.42z" stroke-linejoin="round"/></marker><marker orient="auto" overflow="visible"><path fill="#f00" fill-rule="evenodd" stroke="#f00" stroke-width=".375" d="M-5.23-2.42l6.55 2.4-6.55 2.42c1.05-1.42 1.04-3.37 0-4.82z" stroke-linejoin="round"/></marker><marker orient="auto" overflow="visible"><path fill="#f00" fill-rule="evenodd" stroke="#f00" stroke-width=".375" d="M5.23 2.42L-1.32.02 5.23-2.4C4.18-.98 4.2.97 5.23 2.42z" stroke-linejoin="round"/></marker><marker orient="auto" overflow="visible"><path fill="#f00" fill-rule="evenodd" stroke="#f00" stroke-width=".375" d="M-5.23-2.42l6.55 2.4-6.55 2.42c1.05-1.42 1.04-3.37 0-4.82z" stroke-linejoin="round"/></marker><marker orient="auto" overflow="visible"><path fill="#f00" fill-rule="evenodd" stroke="#f00" stroke-width=".375" d="M5.23 2.42L-1.32.02 5.23-2.4C4.18-.98 4.2.97 5.23 2.42z" stroke-linejoin="round"/></marker><marker orient="auto" overflow="visible"><path fill="#f00" fill-rule="evenodd" stroke="#f00" stroke-width=".375" d="M-5.23-2.42l6.55 2.4-6.55 2.42c1.05-1.42 1.04-3.37 0-4.82z" stroke-linejoin="round"/></marker><marker orient="auto" overflow="visible"><path fill="#f00" fill-rule="evenodd" stroke="#f00" stroke-width=".375" d="M5.23 2.42L-1.32.02 5.23-2.4C4.18-.98 4.2.97 5.23 2.42z" stroke-linejoin="round"/></marker><marker orient="auto" overflow="visible"><path fill="#f00" fill-rule="evenodd" stroke="#f00" stroke-width=".375" d="M5.23 2.42L-1.32.02 5.23-2.4C4.18-.98 4.2.97 5.23 2.42z" stroke-linejoin="round"/></marker><marker orient="auto" overflow="visible"><path fill="#f00" fill-rule="evenodd" stroke="#f00" stroke-width=".375" d="M5.23 2.42L-1.32.02 5.23-2.4C4.18-.98 4.2.97 5.23 2.42z" stroke-linejoin="round"/></marker><marker orient="auto" overflow="visible"><path fill="#f00" fill-rule="evenodd" stroke="#f00" stroke-width=".375" d="M5.23 2.42L-1.32.02 5.23-2.4C4.18-.98 4.2.97 5.23 2.42z" stroke-linejoin="round"/></marker><marker orient="auto" overflow="visible"><path fill="#f00" fill-rule="evenodd" stroke="#f00" stroke-width=".375" d="M-5.23-2.42l6.55 2.4-6.55 2.42c1.05-1.42 1.04-3.37 0-4.82z" stroke-linejoin="round"/></marker><marker orient="auto" overflow="visible"><path fill="#f00" fill-rule="evenodd" stroke="#f00" stroke-width=".375" d="M5.23 2.42L-1.32.02 5.23-2.4C4.18-.98 4.2.97 5.23 2.42z" stroke-linejoin="round"/></marker><marker orient="auto" overflow="visible"><path fill="#f00" fill-rule="evenodd" stroke="#f00" stroke-width=".375" d="M-5.23-2.42l6.55 2.4-6.55 2.42c1.05-1.42 1.04-3.37 0-4.82z" stroke-linejoin="round"/></marker><marker orient="auto" overflow="visible"><path fill="#f00" fill-rule="evenodd" stroke="#f00" stroke-width=".375" d="M5.23 2.42L-1.32.02 5.23-2.4C4.18-.98 4.2.97 5.23 2.42z" stroke-linejoin="round"/></marker><marker orient="auto" overflow="visible"><path fill="#f00" fill-rule="evenodd" stroke="#f00" stroke-width=".375" d="M-5.23-2.42l6.55 2.4-6.55 2.42c1.05-1.42 1.04-3.37 0-4.82z" stroke-linejoin="round"/></marker><marker orient="auto" overflow="visible"><path fill="#f00" fill-rule="evenodd" stroke="#f00" stroke-width=".375" d="M5.23 2.42L-1.32.02 5.23-2.4C4.18-.98 4.2.97 5.23 2.42z" stroke-linejoin="round"/></marker><marker orient="auto" overflow="visible"><path fill="#f00" fill-rule="evenodd" stroke="#f00" stroke-width=".375" d="M-5.23-2.42l6.55 2.4-6.55 2.42c1.05-1.42 1.04-3.37 0-4.82z" stroke-linejoin="round"/></marker><marker orient="auto" overflow="visible"><path fill="#f00" fill-rule="evenodd" stroke="#f00" stroke-width=".375" d="M5.23 2.42L-1.32.02 5.23-2.4C4.18-.98 4.2.97 5.23 2.42z" stroke-linejoin="round"/></marker><marker orient="auto" overflow="visible"><path fill="#f00" fill-rule="evenodd" stroke="#f00" stroke-width=".375" d="M5.23 2.42L-1.32.02 5.23-2.4C4.18-.98 4.2.97 5.23 2.42z" stroke-linejoin="round"/></marker><marker orient="auto" overflow="visible"><path fill="#f00" fill-rule="evenodd" stroke="#f00" stroke-width=".375" d="M5.23 2.42L-1.32.02 5.23-2.4C4.18-.98 4.2.97 5.23 2.42z" stroke-linejoin="round"/></marker><marker orient="auto" overflow="visible"><path fill="#f00" fill-rule="evenodd" stroke="#f00" stroke-width=".375" d="M5.23 2.42L-1.32.02 5.23-2.4C4.18-.98 4.2.97 5.23 2.42z" stroke-linejoin="round"/></marker><marker orient="auto" overflow="visible"><path fill="#f00" fill-rule="evenodd" stroke="#f00" stroke-width=".375" d="M5.23 2.42L-1.32.02 5.23-2.4C4.18-.98 4.2.97 5.23 2.42z" stroke-linejoin="round"/></marker><marker orient="auto" overflow="visible"><path fill="#f00" fill-rule="evenodd" stroke="#f00" stroke-width=".375" d="M-5.23-2.42l6.55 2.4-6.55 2.42c1.05-1.42 1.04-3.37 0-4.82z" stroke-linejoin="round"/></marker><marker orient="auto" overflow="visible"><path fill="#c83737" fill-rule="evenodd" stroke="#c83737" stroke-width=".8pt" d="M10 0l4-4L0 0l14 4-4-4z"/></marker><marker orient="auto" overflow="visible"><path fill="#c83737" fill-rule="evenodd" stroke="#c83737" stroke-width=".8pt" d="M10 0l4-4L0 0l14 4-4-4z"/></marker><marker orient="auto" overflow="visible"><path fill="#c83737" fill-rule="evenodd" stroke="#c83737" stroke-width=".8pt" d="M-10 0l-4 4L0 0l-14-4 4 4z"/></marker><marker orient="auto" overflow="visible"><path fill="#c83737" fill-rule="evenodd" stroke="#c83737" stroke-width=".8pt" d="M10 0l4-4L0 0l14 4-4-4z"/></marker><marker orient="auto" overflow="visible"><path fill="#c83737" fill-rule="evenodd" stroke="#c83737" stroke-width=".8pt" d="M-10 0l-4 4L0 0l-14-4 4 4z"/></marker><marker orient="auto" overflow="visible"><path fill="#c83737" fill-rule="evenodd" stroke="#c83737" stroke-width=".8pt" d="M10 0l4-4L0 0l14 4-4-4z"/></marker><marker orient="auto" overflow="visible"><path fill="#c83737" fill-rule="evenodd" stroke="#c83737" stroke-width=".8pt" d="M-10 0l-4 4L0 0l-14-4 4 4z"/></marker><marker orient="auto" overflow="visible"><path fill="#c83737" fill-rule="evenodd" stroke="#c83737" stroke-width=".8pt" d="M10 0l4-4L0 0l14 4-4-4z"/></marker><marker orient="auto" overflow="visible"><path fill="#c83737" fill-rule="evenodd" stroke="#c83737" stroke-width=".8pt" d="M-10 0l-4 4L0 0l-14-4 4 4z"/></marker><marker orient="auto" overflow="visible"><path fill="#c83737" fill-rule="evenodd" stroke="#c83737" stroke-width=".8pt" d="M10 0l4-4L0 0l14 4-4-4z"/></marker><marker orient="auto" overflow="visible"><path fill="#c83737" fill-rule="evenodd" stroke="#c83737" stroke-width=".8pt" d="M-10 0l-4 4L0 0l-14-4 4 4z"/></marker><marker orient="auto" overflow="visible"><path fill="#c83737" fill-rule="evenodd" stroke="#c83737" stroke-width=".8pt" d="M10 0l4-4L0 0l14 4-4-4z"/></marker><marker orient="auto" overflow="visible"><path fill="#c83737" fill-rule="evenodd" stroke="#c83737" stroke-width=".8pt" d="M-10 0l-4 4L0 0l-14-4 4 4z"/></marker><marker orient="auto" overflow="visible"><path fill="#c83737" fill-rule="evenodd" stroke="#c83737" stroke-width=".8pt" d="M10 0l4-4L0 0l14 4-4-4z"/></marker><marker orient="auto" overflow="visible"><path fill="#c83737" fill-rule="evenodd" stroke="#c83737" stroke-width=".8pt" d="M-10 0l-4 4L0 0l-14-4 4 4z"/></marker><marker orient="auto" overflow="visible"><path fill="#c83737" fill-rule="evenodd" stroke="#c83737" stroke-width=".8pt" d="M10 0l4-4L0 0l14 4-4-4z"/></marker><marker orient="auto" overflow="visible"><path fill="#c83737" fill-rule="evenodd" stroke="#c83737" stroke-width=".8pt" d="M-10 0l-4 4L0 0l-14-4 4 4z"/></marker><marker orient="auto" overflow="visible"><path fill="#c83737" fill-rule="evenodd" stroke="#c83737" stroke-width=".8pt" d="M10 0l4-4L0 0l14 4-4-4z"/></marker><marker orient="auto" overflow="visible"><path fill="#c83737" fill-rule="evenodd" stroke="#c83737" stroke-width=".8pt" d="M-10 0l-4 4L0 0l-14-4 4 4z"/></marker><marker orient="auto" overflow="visible"><path fill="#c83737" fill-rule="evenodd" stroke="#c83737" stroke-width=".8pt" d="M10 0l4-4L0 0l14 4-4-4z"/></marker><marker orient="auto" overflow="visible"><path fill="#c83737" fill-rule="evenodd" stroke="#c83737" stroke-width=".8pt" d="M-10 0l-4 4L0 0l-14-4 4 4z"/></marker><marker orient="auto" overflow="visible"><path fill="#c83737" fill-rule="evenodd" stroke="#c83737" stroke-width=".8pt" d="M10 0l4-4L0 0l14 4-4-4z"/></marker><marker orient="auto" overflow="visible"><path fill="#c83737" fill-rule="evenodd" stroke="#c83737" stroke-width=".8pt" d="M-10 0l-4 4L0 0l-14-4 4 4z"/></marker><marker id="b" orient="auto" overflow="visible"><path fill="#c83737" fill-rule="evenodd" stroke="#c83737" stroke-width=".8pt" d="M10 0l4-4L0 0l14 4-4-4z"/></marker><marker id="c" orient="auto" overflow="visible"><path fill="#c83737" fill-rule="evenodd" stroke="#c83737" stroke-width=".8pt" d="M-10 0l-4 4L0 0l-14-4 4 4z"/></marker><marker orient="auto" overflow="visible"><path fill="#c83737" fill-rule="evenodd" stroke="#c83737" stroke-width=".8pt" d="M10 0l4-4L0 0l14 4-4-4z"/></marker><marker id="d" orient="auto" overflow="visible"><path fill="#c83737" fill-rule="evenodd" stroke="#c83737" stroke-width=".8pt" d="M10 0l4-4L0 0l14 4-4-4z"/></marker><marker id="e" orient="auto" overflow="visible"><path fill="#c83737" fill-rule="evenodd" stroke="#c83737" stroke-width=".8pt" d="M-10 0l-4 4L0 0l-14-4 4 4z"/></marker><marker orient="auto" overflow="visible"><path fill="#c83737" fill-rule="evenodd" stroke="#c83737" stroke-width=".8pt" d="M10 0l4-4L0 0l14 4-4-4z"/></marker><marker orient="auto" overflow="visible"><path fill="#c83737" fill-rule="evenodd" stroke="#c83737" stroke-width=".8pt" d="M-10 0l-4 4L0 0l-14-4 4 4z"/></marker><marker id="f" orient="auto" overflow="visible"><path fill="#c83737" fill-rule="evenodd" stroke="#c83737" stroke-width=".8pt" d="M10 0l4-4L0 0l14 4-4-4z"/></marker><marker id="g" orient="auto" overflow="visible"><path fill="#c83737" fill-rule="evenodd" stroke="#c83737" stroke-width=".8pt" d="M-10 0l-4 4L0 0l-14-4 4 4z"/></marker><marker orient="auto" overflow="visible"><path fill="#c83737" fill-rule="evenodd" stroke="#c83737" stroke-width=".8pt" d="M10 0l4-4L0 0l14 4-4-4z"/></marker><marker orient="auto" overflow="visible"><path fill="#c83737" fill-rule="evenodd" stroke="#c83737" stroke-width=".8pt" d="M-10 0l-4 4L0 0l-14-4 4 4z"/></marker><marker id="i" orient="auto" overflow="visible"><path fill="#c83737" fill-rule="evenodd" stroke="#c83737" stroke-width=".8pt" d="M4.62 0L-2.3 4v-8l6.92 4z"/></marker><marker id="j" orient="auto" overflow="visible"><path fill="#c83737" fill-rule="evenodd" stroke="#c83737" stroke-width=".8pt" d="M10 0l4-4L0 0l14 4-4-4z"/></marker><marker id="k" orient="auto" overflow="visible"><path fill="#c83737" fill-rule="evenodd" stroke="#c83737" stroke-width=".8pt" d="M-10 0l-4 4L0 0l-14-4 4 4z"/></marker><marker orient="auto" overflow="visible"><path fill="#c83737" fill-rule="evenodd" stroke="#c83737" stroke-width=".8pt" d="M10 0l4-4L0 0l14 4-4-4z"/></marker><marker orient="auto" overflow="visible"><path fill="#c83737" fill-rule="evenodd" stroke="#c83737" stroke-width=".8pt" d="M-10 0l-4 4L0 0l-14-4 4 4z"/></marker><marker orient="auto" overflow="visible"><path fill="#c83737" fill-rule="evenodd" stroke="#c83737" stroke-width=".8pt" d="M10 0l4-4L0 0l14 4-4-4z"/></marker><marker orient="auto" overflow="visible"><path fill="#c83737" fill-rule="evenodd" stroke="#c83737" stroke-width=".8pt" d="M-10 0l-4 4L0 0l-14-4 4 4z"/></marker><marker orient="auto" overflow="visible"><path fill="#c83737" fill-rule="evenodd" stroke="#c83737" stroke-width=".8pt" d="M4.62 0L-2.3 4v-8l6.92 4z"/></marker><marker orient="auto" overflow="visible"><path fill="#c83737" fill-rule="evenodd" stroke="#c83737" stroke-width=".8pt" d="M4.62 0L-2.3 4v-8l6.92 4z"/></marker><marker orient="auto" overflow="visible"><path fill="#c83737" fill-rule="evenodd" stroke="#c83737" stroke-width=".8pt" d="M10 0l4-4L0 0l14 4-4-4z"/></marker><marker orient="auto" overflow="visible"><path fill="#c83737" fill-rule="evenodd" stroke="#c83737" stroke-width=".8pt" d="M-10 0l-4 4L0 0l-14-4 4 4z"/></marker><marker orient="auto" overflow="visible"><path fill="#c83737" fill-rule="evenodd" stroke="#c83737" stroke-width=".8pt" d="M10 0l4-4L0 0l14 4-4-4z"/></marker><marker orient="auto" overflow="visible"><path fill="#c83737" fill-rule="evenodd" stroke="#c83737" stroke-width=".8pt" d="M-10 0l-4 4L0 0l-14-4 4 4z"/></marker><marker orient="auto" overflow="visible"><path fill="#c83737" fill-rule="evenodd" stroke="#c83737" stroke-width=".8pt" d="M10 0l4-4L0 0l14 4-4-4z"/></marker><marker orient="auto" overflow="visible"><path fill="#c83737" fill-rule="evenodd" stroke="#c83737" stroke-width=".8pt" d="M-10 0l-4 4L0 0l-14-4 4 4z"/></marker><marker orient="auto" overflow="visible"><path fill="#c83737" fill-rule="evenodd" stroke="#c83737" stroke-width=".8pt" d="M10 0l4-4L0 0l14 4-4-4z"/></marker><marker orient="auto" overflow="visible"><path fill="#c83737" fill-rule="evenodd" stroke="#c83737" stroke-width=".8pt" d="M-10 0l-4 4L0 0l-14-4 4 4z"/></marker><marker orient="auto" overflow="visible"><path fill="#c83737" fill-rule="evenodd" stroke="#c83737" stroke-width=".8pt" d="M4.62 0L-2.3 4v-8l6.92 4z"/></marker><marker orient="auto" overflow="visible"><path fill="#c83737" fill-rule="evenodd" stroke="#c83737" stroke-width=".8pt" d="M4.62 0L-2.3 4v-8l6.92 4z"/></marker><marker orient="auto" overflow="visible"><path fill="#c83737" fill-rule="evenodd" stroke="#c83737" stroke-width=".8pt" d="M10 0l4-4L0 0l14 4-4-4z"/></marker><marker orient="auto" overflow="visible"><path fill="#c83737" fill-rule="evenodd" stroke="#c83737" stroke-width=".8pt" d="M-10 0l-4 4L0 0l-14-4 4 4z"/></marker><marker orient="auto" overflow="visible"><path fill="#c83737" fill-rule="evenodd" stroke="#c83737" stroke-width=".8pt" d="M10 0l4-4L0 0l14 4-4-4z"/></marker><marker orient="auto" overflow="visible"><path fill="#c83737" fill-rule="evenodd" stroke="#c83737" stroke-width=".8pt" d="M-10 0l-4 4L0 0l-14-4 4 4z"/></marker><marker orient="auto" overflow="visible"><path fill="#c83737" fill-rule="evenodd" stroke="#c83737" stroke-width=".8pt" d="M10 0l4-4L0 0l14 4-4-4z"/></marker><marker orient="auto" overflow="visible"><path fill="#c83737" fill-rule="evenodd" stroke="#c83737" stroke-width=".8pt" d="M-10 0l-4 4L0 0l-14-4 4 4z"/></marker><marker orient="auto" overflow="visible"><path fill="#c83737" fill-rule="evenodd" stroke="#c83737" stroke-width=".8pt" d="M10 0l4-4L0 0l14 4-4-4z"/></marker><marker orient="auto" overflow="visible"><path fill="#c83737" fill-rule="evenodd" stroke="#c83737" stroke-width=".8pt" d="M-10 0l-4 4L0 0l-14-4 4 4z"/></marker><marker orient="auto" overflow="visible"><path fill="#c83737" fill-rule="evenodd" stroke="#c83737" stroke-width=".8pt" d="M4.62 0L-2.3 4v-8l6.92 4z"/></marker><marker orient="auto" overflow="visible"><path fill="#c83737" fill-rule="evenodd" stroke="#c83737" stroke-width=".8pt" d="M4.62 0L-2.3 4v-8l6.92 4z"/></marker><marker orient="auto" overflow="visible"><path fill="#c83737" fill-rule="evenodd" stroke="#c83737" stroke-width=".8pt" d="M10 0l4-4L0 0l14 4-4-4z"/></marker><marker orient="auto" overflow="visible"><path fill="#c83737" fill-rule="evenodd" stroke="#c83737" stroke-width=".8pt" d="M-10 0l-4 4L0 0l-14-4 4 4z"/></marker><marker orient="auto" overflow="visible"><path fill="#c83737" fill-rule="evenodd" stroke="#c83737" stroke-width=".8pt" d="M10 0l4-4L0 0l14 4-4-4z"/></marker><marker orient="auto" overflow="visible"><path fill="#c83737" fill-rule="evenodd" stroke="#c83737" stroke-width=".8pt" d="M-10 0l-4 4L0 0l-14-4 4 4z"/></marker><marker id="l" orient="auto" overflow="visible"><path fill="#c83737" fill-rule="evenodd" stroke="#c83737" stroke-width=".8pt" d="M10 0l4-4L0 0l14 4-4-4z"/></marker><marker id="m" orient="auto" overflow="visible"><path fill="#c83737" fill-rule="evenodd" stroke="#c83737" stroke-width=".8pt" d="M-10 0l-4 4L0 0l-14-4 4 4z"/></marker><marker orient="auto" overflow="visible"><path fill="#c83737" fill-rule="evenodd" stroke="#c83737" stroke-width=".8pt" d="M4.62 0L-2.3 4v-8l6.92 4z"/></marker><marker orient="auto" overflow="visible"><path fill="#c83737" fill-rule="evenodd" stroke="#c83737" stroke-width=".8pt" d="M4.62 0L-2.3 4v-8l6.92 4z"/></marker><marker orient="auto" overflow="visible"><path fill="#c83737" fill-rule="evenodd" stroke="#c83737" stroke-width=".8pt" d="M4.62 0L-2.3 4v-8l6.92 4z"/></marker><marker orient="auto" overflow="visible"><path fill="#c83737" fill-rule="evenodd" stroke="#c83737" stroke-width=".8pt" d="M4.62 0L-2.3 4v-8l6.92 4z"/></marker><marker orient="auto" overflow="visible"><path fill="#c83737" fill-rule="evenodd" stroke="#c83737" stroke-width=".8pt" d="M10 0l4-4L0 0l14 4-4-4z"/></marker><marker orient="auto" overflow="visible"><path fill="#c83737" fill-rule="evenodd" stroke="#c83737" stroke-width=".8pt" d="M-10 0l-4 4L0 0l-14-4 4 4z"/></marker></defs><g><g><g><path fill="#fff" stroke="#999" stroke-width="2" d="M483.98 66.94h521V557.7h-521z" stroke-linecap="round" stroke-linejoin="round"/><g fill="#c83737"><g style="line-height:125%;-inkscape-font-specification:'Equity Caps A, Normal';text-align:start" font-size="27.5" font-family="Equity Caps A" letter-spacing="0" word-spacing="0"><path d="M664.3 57v-1.04l2-.42V44.2l-2-.4v-1.04h7.47q.57 0 1.32.16.73.14 1.4.52.65.36 1.1 1 .46.63.46 1.6 0 .46-.14.95-.14.5-.47.95-.3.44-.8.83-.5.36-1.2.58v.3q1.42.25 2.36 1.2.94.94.94 2.32 0 .88-.38 1.6-.4.68-1.07 1.18-.7.5-1.66.77-.97.27-2.15.27h-7.2zm9.53-4q0-.54-.2-1-.2-.5-.57-.86-.4-.38-1-.6-.6-.22-1.42-.22h-1.62v5.22h2.1q1.4 0 2.05-.74.66-.74.66-1.8zm-4.8-3.97h1.64q.7 0 1.18-.2.47-.22.74-.57.3-.36.4-.8.14-.47.14-.96 0-.66-.22-1.1-.22-.44-.58-.7-.33-.27-.77-.38-.4-.1-.85-.1h-1.7V49z"/><path d="M680.54 49.96q0-1.7.57-3.08.62-1.37 1.6-2.34 1.03-1 2.37-1.5 1.38-.53 2.92-.53 1.58 0 2.93.53 1.38.5 2.37 1.46 1 .95 1.54 2.35.55 1.38.55 3.1 0 1.83-.62 3.23-.58 1.37-1.6 2.3-.98.94-2.33 1.4-1.35.48-2.86.48-1.55 0-2.93-.47-1.34-.5-2.36-1.44-.98-.96-1.6-2.34-.56-1.37-.56-3.16zm3.02-.02q0 1.45.36 2.55.36 1.1.96 1.86.6.75 1.4 1.13.8.38 1.7.38.9 0 1.7-.3.78-.34 1.4-1.05.6-.72.95-1.84.36-1.14.36-2.76 0-1.5-.37-2.62-.33-1.15-.93-1.9-.58-.76-1.4-1.15-.8-.38-1.7-.38-.92 0-1.72.37-.8.4-1.4 1.16-.6.77-.96 1.9-.36 1.12-.36 2.6z"/><path d="M699.17 57v-1.04l1.98-.42V44.2l-1.98-.4v-1.04h6.58q1.84 0 3.3.5 1.48.5 2.5 1.42 1.04.9 1.6 2.26.54 1.34.54 3.02 0 1.7-.64 3.03-.6 1.3-1.7 2.2-1.1.9-2.62 1.36-1.48.44-3.24.44h-6.33zm6.33-1.46q1.04 0 2-.3.97-.3 1.68-.96.75-.7 1.16-1.73.44-1.08.44-2.62 0-1.4-.4-2.47-.4-1.07-1.1-1.8-.67-.73-1.6-1.1-.92-.35-1.96-.35h-1.84v11.34h1.62z"/><path d="M727.42 44.5l-2.17-.7v-1.04h5.58v1.04l-1.78.7-4.07 6.75v4.3l1.98.4V57h-6.7v-1.04l2-.42v-4.3l-4.16-7.03-1.7-.4v-1.04h6.38v1.04l-1.68.4 2.97 5.2h.38l2.97-4.9z"/><path d="M742 39.8h6.6l.73-1.1h1.07l-.63 3.56h-6.63l-.3 3.36.22.22q.57-.22 1.78-.22 1 0 1.96.35.96.36 1.73 1.08.77.68 1.24 1.7.5 1.02.5 2.34 0 1.42-.56 2.57-.5 1.16-1.47 1.98-.94.8-2.26 1.24-1.32.43-2.9.43-.67 0-1.25-.14-.55-.12-1-.34-.43-.24-.68-.57-.25-.34-.25-.73 0-.55.32-.96.36-.4 1.08-.4.66 0 1.1.22.44.22.85.5.44.27.93.5.53.2 1.3.2.46 0 .9-.2.47-.2.83-.62.37-.4.6-1.04.2-.66.2-1.57 0-1-.32-1.77-.3-.8-.88-1.35-.55-.55-1.3-.85-.74-.3-1.6-.3-.73 0-1.28.08-.53.1-.88.23l-.5-.5.77-7.94z"/><path d="M761.4 44.3q0-1.05-.67-1.82-.66-.8-1.87-.8-.6 0-1.13.2-.52.2-1.05.57-.52.36-1.07.9-.5.53-1.14 1.22l-.83-.88q.44-.64 1.07-1.38.64-.75 1.4-1.38.8-.63 1.74-1.04.93-.44 2-.44 1.05 0 1.85.33.8.3 1.3.84.56.55.83 1.26.28.72.28 1.54 0 .8-.35 1.74-.36.93-.93 1.95-.58 1.02-1.32 2.03-.75 1.02-1.52 1.96-.77.93-1.54 1.73-.74.77-1.32 1.3l.17.38h5.8l1.23-1.74.9.35L763.7 57h-10.2l-.34-.88q.7-.55 1.57-1.37.9-.83 1.82-1.82.9-1 1.76-2.1.9-1.1 1.57-2.22.7-1.1 1.1-2.2.42-1.1.42-2.1z"/><path d="M775.78 44.3q0-1.05-.66-1.82-.66-.8-1.87-.8-.6 0-1.13.2-.52.2-1.04.57-.52.36-1.07.9-.52.53-1.15 1.22l-.82-.88q.44-.64 1.07-1.38.63-.75 1.4-1.38.8-.63 1.73-1.04.94-.44 2-.44t1.85.33q.8.3 1.32.84.55.55.83 1.26.27.72.27 1.54 0 .8-.35 1.74-.36.93-.94 1.95-.57 1.02-1.3 2.03-.75 1.02-1.52 1.96-.77.93-1.54 1.73-.74.77-1.32 1.3l.16.38h5.8l1.24-1.74.9.35L778.1 57h-10.2l-.34-.88q.7-.55 1.57-1.37.9-.83 1.8-1.82.92-1 1.77-2.1.88-1.1 1.57-2.22.7-1.1 1.1-2.2.4-1.1.4-2.1z"/><path d="M794.97 51.14v4.4l2.2.42V57h-6.9v-1.04l1.98-.42V44.2l-1.98-.4v-1.04h7.04q.86 0 1.74.22t1.6.7q.74.5 1.2 1.3.47.77.47 1.87 0 1.98-1.47 3.14-1.46 1.14-4.07 1.14h-1.8zm0-1.3h2q1.02 0 1.77-.76.77-.77.77-2.1 0-1.4-.74-2.08-.74-.7-1.84-.7h-1.95v5.65z"/><path d="M811.37 50.3l-4.45-6.1-1.65-.4v-1.04h7v1.04l-2.24.4 2.97 4.06 2.97-3.77-1.9-.7v-1.04H820v1.04l-2.2.7-3.92 4.97 4.48 6.07 1.65.42V57h-7v-1.04l2.25-.42-2.97-4.04-2.97 3.77 1.9.7V57h-5.93v-1.04l2.17-.7 3.93-4.97z"/></g><path fill-rule="evenodd" stroke="#c83737" stroke-width="2" d="M801.68 1156.1h-514" stroke-linecap="square" marker-start="url(#b)" marker-end="url(#c)" transform="translate(197.981 -1127.424)"/><g style="line-height:125%;-inkscape-font-specification:'Equity Caps A, Normal';text-align:start" font-size="27.5" font-family="Equity Caps A" letter-spacing="0" word-spacing="0"><path d="M577.36 18.3v-1.03l1.98-.4V5.52l-1.98-.42V4.08h7.45q.6 0 1.33.16.74.14 1.4.53.66.35 1.1 1 .47.62.47 1.58 0 .47-.14.96-.14.5-.47.97-.3.44-.8.82-.5.35-1.2.57v.3q1.42.25 2.35 1.2.94.95.94 2.32 0 .87-.4 1.6-.38.67-1.07 1.17-.7.5-1.65.77-.96.27-2.15.27h-7.17zm9.5-4q0-.52-.18-1-.2-.5-.58-.84-.38-.4-1-.6-.6-.23-1.42-.23h-1.62v5.23h2.1q1.4 0 2.05-.75.67-.73.67-1.8zm-4.8-3.96h1.65q.72 0 1.2-.2.46-.2.73-.57.3-.36.42-.8.13-.47.13-.96 0-.65-.22-1.1-.22-.43-.57-.68-.34-.27-.78-.38-.42-.1-.86-.1h-1.7v4.8z"/><path d="M602.24 11.6q.58.25 1.04.94.5.7 1 1.5t1 1.6q.53.78 1.17 1.22l1.23.4v1.05h-3.3q-.82-.5-1.45-1.44-.6-.94-1.2-1.93-.56-1-1.2-1.8-.6-.87-1.43-1.2h-.82v4.93l1.95.4v1.05h-6.65v-1.03l1.98-.4V5.52l-1.98-.42V4.08h7.45q.6 0 1.37.16.77.14 1.46.55.72.42 1.18 1.16.5.7.5 1.87 0 1.2-.85 2.24-.84 1-2.46 1.32v.24zm-3.96-.96h1.5q.78 0 1.3-.25.55-.28.9-.67.37-.4.53-.88.18-.5.18-.96 0-1.3-.63-1.82-.64-.55-1.46-.55h-2.32v5.1z"/><path d="M610.4 11.27q0-1.7.57-3.08.6-1.38 1.6-2.34 1-1 2.36-1.52 1.37-.52 2.9-.52 1.6 0 2.95.52 1.38.5 2.37 1.46 1 .96 1.54 2.37.54 1.37.54 3.1 0 1.82-.6 3.22-.58 1.37-1.6 2.3-1 .94-2.34 1.4-1.35.47-2.86.47-1.54 0-2.9-.47-1.36-.5-2.38-1.43-1-.96-1.6-2.33-.57-1.38-.57-3.17zm3-.02q0 1.45.37 2.55.36 1.1.96 1.87.6.75 1.4 1.13.8.4 1.7.4.9 0 1.7-.32.8-.33 1.4-1.04.6-.72.95-1.84.36-1.13.36-2.75 0-1.5-.36-2.62-.33-1.15-.93-1.9-.58-.76-1.4-1.15-.8-.38-1.7-.38-.92 0-1.7.38-.8.4-1.42 1.16-.6.77-.96 1.9-.36 1.12-.36 2.6z"/><path d="M638.38 9.57l-2.97 8.74h-1.6l-4.22-12.77-1.65-.42V4.08h6.25V5.1l-1.85.43 2.73 8.38h.35l2.35-6.28-.7-2.1-1.4-.4V4.06h6V5.1l-1.84.43 2.76 8.38h.36l2.92-8.1-2.23-.7V4.08h5.6V5.1l-1.77.7-4.6 12.5h-1.53l-2.92-8.73z"/><path d="M652.22 13.53h1.32q.4 1.8 1.34 2.8.94 1 2.34 1 1.1 0 1.76-.6.66-.64.66-1.6 0-.45-.14-.8-.1-.4-.44-.72-.33-.35-.93-.68-.58-.35-1.5-.77-2.05-.88-3.07-1.87-1-1-1-2.47 0-.68.3-1.4.3-.7.87-1.3.58-.56 1.4-.92.85-.36 1.93-.36.93 0 1.54.25.63.22 1.1.4l1-.4h.7l.5 4.32h-1.3q-.52-1.66-1.43-2.43-.9-.77-2-.77-.97 0-1.57.52-.6.52-.6 1.5 0 .9.76 1.5.8.57 2.6 1.26 1.8.72 2.77 1.73.96 1 .96 2.65 0 1.08-.4 1.9-.35.8-1 1.35-.67.52-1.58.8-.88.27-1.9.27-.7 0-1.48-.25-.77-.22-1.3-.57l-1.18.4h-1.04v-4.72z"/><path d="M676.28 16.97l1.6-2.45h1.18l-.58 3.8h-11.9v-1.05l1.97-.4V5.52l-1.98-.42V4.08h11.2l.35 3.4h-1.15l-1.43-2.05h-4.27v4.92h2.64l.76-1.57h.88v4.6h-.88l-.75-1.74h-2.63v5.34h5z"/><path d="M691.08 11.6q.58.25 1.04.94.5.7 1 1.5t1 1.6q.53.78 1.17 1.22l1.22.4v1.05h-3.3q-.82-.5-1.45-1.44-.6-.94-1.2-1.93-.56-1-1.2-1.8-.6-.87-1.43-1.2h-.82v4.93l1.95.4v1.05h-6.65v-1.03l1.98-.4V5.52l-1.98-.42V4.08h7.45q.6 0 1.37.16.77.14 1.46.55.72.42 1.18 1.16.5.7.5 1.87 0 1.2-.85 2.24-.83 1-2.45 1.32v.24zm-3.96-.96h1.5q.78 0 1.3-.25.55-.28.9-.67.37-.4.53-.88.17-.5.17-.96 0-1.3-.63-1.82-.65-.55-1.47-.55h-2.3v5.1z"/><path d="M716.8 9.57l-2.97 8.74h-1.62L708 5.54l-1.65-.42V4.08h6.24V5.1l-1.85.43 2.72 8.38h.36l2.34-6.28-.7-2.1-1.4-.4V4.06h6V5.1l-1.84.43 2.75 8.38h.36l2.9-8.1-2.2-.7V4.08h5.57V5.1l-1.75.7-4.6 12.5h-1.53l-2.92-8.73z"/><path d="M737.52 4.07V5.1l-1.95.43v11.33l1.95.4v1.05h-6.65v-1.03l1.98-.4V5.52l-1.98-.42V4.08h6.65z"/><path d="M753.73 13.45V5.8l-2.25-.7V4.08h5.72V5.1l-1.96.7v12.7h-.82l-9.35-11h-.33v9.08l2.25.7v1.03h-5.53v-1.03l1.76-.7V5.54l-1.76-.42V4.08h3.93l8 9.38h.33z"/><path d="M760.67 18.3v-1.03l1.98-.4V5.52l-1.98-.42V4.08h6.57q1.85 0 3.3.5 1.5.5 2.5 1.42 1.05.9 1.6 2.25t.55 3.02q0 1.7-.64 3.03-.6 1.32-1.7 2.23-1.1.88-2.62 1.34-1.48.44-3.24.44h-6.33zm6.33-1.44q1.04 0 2-.3.97-.3 1.68-.97.74-.7 1.16-1.74.44-1.07.44-2.6 0-1.42-.42-2.5-.38-1.06-1.07-1.78-.7-.74-1.63-1.1-.9-.35-1.95-.35h-1.85v11.33H767z"/><path d="M779 11.27q0-1.7.57-3.08.6-1.38 1.6-2.34 1-1 2.36-1.52 1.37-.52 2.9-.52 1.6 0 2.95.52 1.38.5 2.37 1.46 1 .96 1.54 2.37.54 1.37.54 3.1 0 1.82-.6 3.22-.58 1.37-1.6 2.3-1 .94-2.34 1.4-1.35.47-2.86.47-1.54 0-2.9-.47-1.36-.5-2.38-1.43-1-.96-1.6-2.33-.57-1.38-.57-3.17zm3-.02q0 1.45.37 2.55.36 1.1.96 1.87.6.75 1.4 1.13.8.4 1.7.4.9 0 1.7-.32.8-.33 1.4-1.04.6-.72.95-1.84.36-1.13.36-2.75 0-1.5-.36-2.62-.33-1.15-.93-1.9-.58-.76-1.4-1.15-.8-.38-1.7-.38-.92 0-1.7.38-.8.4-1.42 1.16-.6.77-.96 1.9-.36 1.12-.36 2.6z"/><path d="M806.98 9.57L804 18.3h-1.6l-4.22-12.77-1.65-.42V4.08h6.24V5.1l-1.84.43 2.72 8.38h.36l2.35-6.28-.7-2.1-1.4-.4V4.06h6V5.1l-1.84.43 2.76 8.38h.36l2.9-8.1-2.2-.7V4.08h5.57V5.1l-1.77.7-4.6 12.5h-1.53l-2.92-8.73z"/><path d="M828.97 1.1h6.6l.7-1.07h1.1l-.65 3.54h-6.62l-.3 3.36.2.22q.6-.22 1.8-.22 1 0 1.95.36.97.34 1.74 1.06.76.7 1.22 1.7.5 1.02.5 2.34 0 1.43-.55 2.6-.52 1.14-1.5 1.97-.92.8-2.24 1.23-1.32.44-2.92.44-.65 0-1.22-.13-.55-.1-1-.32-.43-.25-.68-.58-.25-.33-.25-.72 0-.55.33-.96.36-.4 1.07-.4.66 0 1.1.2.44.23.86.5.45.28.94.5.52.22 1.3.22.46 0 .9-.2.47-.2.83-.63.35-.4.57-1.03.22-.66.22-1.57 0-1-.33-1.76-.3-.8-.88-1.35-.55-.56-1.3-.86-.73-.3-1.58-.3-.75 0-1.3.08-.52.08-.88.22l-.5-.5.77-7.94z"/><path d="M848.35 5.6q0-1.04-.66-1.8-.67-.8-1.88-.8-.6 0-1.13.2-.53.18-1.06.57-.52.35-1.07.9-.52.53-1.15 1.2L840.6 5q.43-.63 1.06-1.37.64-.74 1.4-1.38.8-.63 1.74-1.04.93-.43 2-.43 1.05 0 1.85.33.8.3 1.32.85.55.55.82 1.27.27.7.27 1.54 0 .8-.36 1.73-.35.92-.92 1.94-.58 1.02-1.32 2.04-.75 1-1.52 1.95-.77.93-1.54 1.73-.74.77-1.32 1.3l.17.38h5.8l1.24-1.73.9.36-1.54 3.85h-10.2l-.34-.87q.7-.55 1.57-1.37.9-.83 1.8-1.82.9-1 1.77-2.1.88-1.1 1.56-2.2.7-1.14 1.1-2.24.42-1.1.42-2.1z"/><path d="M862.74 5.6q0-1.04-.66-1.8-.66-.8-1.87-.8-.6 0-1.12.2-.52.18-1.04.57-.53.35-1.08.9-.52.53-1.15 1.2L855 5q.44-.63 1.08-1.37.63-.74 1.4-1.38.8-.63 1.73-1.04.93-.43 2-.43 1.04 0 1.84.33.8.3 1.32.85.55.55.83 1.27.26.7.26 1.54 0 .8-.36 1.73-.35.92-.93 1.94-.58 1.02-1.32 2.04-.74 1-1.5 1.95-.78.93-1.55 1.73-.75.77-1.32 1.3l.16.38h5.8l1.24-1.73.9.36-1.53 3.85h-10.2l-.33-.87q.68-.55 1.56-1.37.9-.83 1.82-1.82.9-1 1.76-2.1.88-1.1 1.57-2.2.68-1.14 1.1-2.24.4-1.1.4-2.1z"/><path d="M881.93 12.46v4.4l2.2.4v1.05h-6.9v-1.03l1.97-.4V5.52l-1.98-.42V4.08h7.04q.86 0 1.74.22.88.2 1.6.7.73.5 1.2 1.3.47.77.47 1.87 0 1.98-1.5 3.13-1.44 1.16-4.06 1.16h-1.77zm0-1.3h2q1.02 0 1.76-.77.76-.78.76-2.1 0-1.4-.74-2.1-.74-.67-1.84-.67h-1.95v5.63z"/><path d="M898.33 11.6l-4.45-6.07-1.65-.42V4.08h7V5.1l-2.25.43 2.97 4.04 2.97-3.77-1.9-.7V4.08h5.95V5.1l-2.2.7-3.94 4.98 4.5 6.08 1.64.4v1.05h-7.02v-1.03l2.26-.4-2.96-4.06-2.97 3.78 1.9.7v1.03h-5.94v-1.03l2.17-.7 3.93-4.97z"/></g></g><g><path fill="#b8cce4" fill-rule="evenodd" stroke="#366092" stroke-width="5" d="M486.48 178.8h85v267h-85z"/><path fill="#b8cce4" fill-rule="evenodd" stroke="#366092" stroke-width="5" d="M918.48 178.8h85v267h-85z"/><path fill="#b8cce4" fill-rule="evenodd" stroke="#366092" stroke-width="5" d="M594.48 178.8h301v267h-301z"/><g style="line-height:125%;-inkscape-font-specification:'Concourse T4, Normal';text-align:center" font-size="45.263" font-family="Concourse T4" letter-spacing="0" word-spacing="0" text-anchor="middle"><path d="M722.72 303.08q-.54-.36-1.4-.86-.86-.54-2.04-1-1.13-.5-2.53-.8-1.4-.33-3-.33-2.16 0-4.15.76-2 .77-3.53 2.36-1.54 1.53-2.5 3.9-.9 2.34-.9 5.5 0 2.6.82 4.8.8 2.18 2.25 3.76 1.5 1.6 3.53 2.5 2.08.85 4.57.85 2.9 0 5.1-.95 2.23-1 4.27-2.26l1.13 3.62q-1.9 1.45-4.7 2.45-2.8.98-5.9.98-3.43 0-6.28-1.22t-4.94-3.3q-2.03-2.13-3.16-4.98-1.14-2.86-1.14-6.07 0-3.93 1.27-7 1.27-3.08 3.4-5.2 2.17-2.14 4.98-3.22 2.85-1.13 5.97-1.13 1.58 0 3.03.3 1.5.28 2.76.74 1.32.44 2.36.98 1.04.55 1.72 1.04l-1 3.76z"/><path d="M746.54 317.74q0 2.3-.77 4.26-.73 1.95-2.04 3.35-1.27 1.4-3.03 2.22-1.72.77-3.67.77-2 0-3.75-.77-1.72-.82-3.04-2.22-1.26-1.4-2-3.35-.7-1.95-.7-4.26 0-2.35.67-4.34.73-2.04 1.95-3.5 1.27-1.48 3-2.3 1.7-.8 3.7-.8 2.22 0 3.98.85 1.8.82 3.08 2.26 1.28 1.46 1.96 3.5.68 2 .68 4.34zm-4.17-.04q0-3.4-1.5-5.48-1.44-2.08-4.02-2.08-1.18 0-2.13.6-.95.53-1.63 1.57-.68 1-1.05 2.4-.36 1.37-.36 3 0 3.3 1.44 5.3 1.45 2 3.9 2 2.3 0 3.8-1.96 1.53-1.95 1.53-5.34z"/><path d="M755.37 296.38v31.32h-4.07v-30.78l4.07-.54z"/><path d="M785.66 311.54q3 .77 4.53 2.76 1.53 2 1.53 4.58 0 4.25-2.85 6.56-2.8 2.26-7.83 2.26h-8.97v-30.78h8.42q2.5 0 4.3.6 1.8.58 3 1.58 1.17 1 1.7 2.4.6 1.35.6 2.9 0 .9-.32 1.98-.27 1.04-.8 2.04-.56.95-1.42 1.77-.8.76-1.9 1.12v.22zm-9.32 1.9v10.7h4.93q1.04 0 2.13-.24 1.13-.23 2.04-.8.9-.65 1.44-1.64.6-1.04.6-2.67 0-1.33-.55-2.32-.5-1-1.4-1.68-.86-.68-2-1-1.13-.36-2.35-.36h-4.84zm9.5-8.37q0-2.26-1.54-3.4-1.5-1.17-4.02-1.17h-3.94v9.4h4.93q1.9 0 3.22-1.25 1.34-1.27 1.34-3.58z"/></g><g style="line-height:125%;-inkscape-font-specification:'Concourse T4, Normal';text-align:center" font-size="45.263" font-family="Concourse T4" letter-spacing="0" word-spacing="0" text-anchor="middle"><path d="M524.9 275.13q-.54-.36-1.4-.86-.86-.54-2.04-1-1.13-.5-2.54-.8-1.4-.33-2.98-.33-2.18 0-4.17.77-2 .78-3.53 2.37-1.54 1.53-2.5 3.9-.9 2.34-.9 5.5 0 2.6.82 4.8.82 2.18 2.27 3.77 1.5 1.58 3.53 2.48 2.08.86 4.57.86 2.9 0 5.1-.95 2.23-1 4.27-2.26l1.13 3.62q-1.9 1.44-4.7 2.44-2.82 1-5.9 1-3.43 0-6.28-1.23-2.86-1.2-4.94-3.3-2.03-2.12-3.16-4.97-1.13-2.85-1.13-6.07 0-3.94 1.28-7 1.27-3.1 3.4-5.22 2.17-2.13 4.97-3.2 2.85-1.14 5.98-1.14 1.58 0 3.03.3 1.5.28 2.76.74 1.3.45 2.35 1 1.05.54 1.72 1.03l-1 3.76z"/><path d="M548.7 289.8q0 2.3-.76 4.25-.72 1.95-2.03 3.35-1.26 1.4-3.03 2.22-1.72.77-3.66.77-1.98 0-3.75-.78-1.72-.82-3.03-2.22-1.27-1.4-2-3.35-.72-1.95-.72-4.25 0-2.36.68-4.35.73-2.04 1.95-3.5 1.27-1.48 3-2.3 1.7-.8 3.7-.8 2.22 0 3.98.85 1.82.82 3.1 2.26 1.26 1.45 1.93 3.5.68 1.98.68 4.34zm-4.15-.05q0-3.4-1.5-5.48-1.44-2.08-4.02-2.08-1.18 0-2.13.58-.95.54-1.63 1.58-.68 1-1.04 2.4-.36 1.36-.36 3 0 3.3 1.45 5.3 1.44 1.98 3.9 1.98 2.3 0 3.8-1.95 1.53-1.96 1.53-5.35z"/><path d="M557.55 268.43v31.32h-4.07v-30.78l4.07-.54z"/><path d="M535.92 348.32h-12.94l-3.3 8h-4.53L529 324.66h.9l13.94 31.68h-4.52l-3.4-8zm-11.4-3.7h9.86l-4.8-11.37h-.3l-4.76 11.36z"/></g><g style="line-height:125%;-inkscape-font-specification:'Concourse T4, Normal';text-align:center" font-size="45.263" font-family="Concourse T4" letter-spacing="0" word-spacing="0" text-anchor="middle"><path d="M956.9 274.8q-.54-.37-1.4-.87-.86-.54-2.04-1-1.13-.5-2.54-.8-1.4-.33-2.98-.33-2.18 0-4.17.77-2 .77-3.53 2.36-1.54 1.54-2.5 3.9-.9 2.34-.9 5.5 0 2.6.82 4.8.82 2.18 2.27 3.77 1.5 1.58 3.53 2.5 2.08.85 4.57.85 2.9 0 5.1-.96 2.23-1 4.27-2.27l1.13 3.62q-1.9 1.45-4.7 2.45-2.82 1-5.9 1-3.43 0-6.28-1.23-2.86-1.22-4.94-3.3-2.03-2.13-3.16-4.98-1.13-2.86-1.13-6.08 0-3.94 1.28-7 1.27-3.1 3.4-5.22 2.17-2.13 4.97-3.2 2.85-1.14 5.98-1.14 1.58 0 3.03.3 1.5.28 2.76.74 1.3.45 2.35 1 1.05.54 1.72 1.03l-1 3.76z"/><path d="M980.7 289.46q0 2.3-.76 4.25-.72 1.96-2.03 3.36-1.26 1.4-3.03 2.22-1.72.77-3.66.77-1.98 0-3.75-.77-1.72-.82-3.03-2.22-1.27-1.4-2-3.35-.72-1.94-.72-4.24 0-2.36.68-4.35.73-2.03 1.95-3.47 1.27-1.5 3-2.3 1.7-.83 3.7-.83 2.22 0 3.98.86 1.82.82 3.1 2.27 1.26 1.44 1.93 3.48.68 2 .68 4.36zm-4.15-.05q0-3.38-1.5-5.47-1.44-2.08-4.02-2.08-1.18 0-2.13.6-.95.53-1.63 1.57-.68 1-1.04 2.4-.36 1.36-.36 3 0 3.3 1.45 5.3 1.44 1.98 3.9 1.98 2.3 0 3.8-1.95 1.53-1.94 1.53-5.34z"/><path d="M989.55 268.1v31.3h-4.07v-30.77l4.07-.54z"/><path d="M973.2 331.37q-.53-.36-1.4-.86-.85-.53-2.03-1-1.13-.48-2.54-.8-1.4-.32-2.98-.32-2.18 0-4.17.77-2 .77-3.53 2.35-1.54 1.54-2.5 3.9-.9 2.35-.9 5.52 0 2.58.82 4.8.82 2.17 2.27 3.75 1.5 1.6 3.53 2.5 2.08.85 4.57.85 2.9 0 5.1-.95 2.23-1 4.27-2.26l1.14 3.63q-1.9 1.45-4.7 2.44-2.82 1-5.9 1-3.43 0-6.28-1.22-2.86-1.22-4.94-3.3-2.03-2.13-3.17-4.98-1.13-2.86-1.13-6.07 0-3.94 1.27-7.02 1.26-3.07 3.38-5.2 2.18-2.13 4.98-3.2 2.85-1.15 5.98-1.15 1.58 0 3.03.32 1.5.27 2.76.73 1.3.45 2.35 1 1.05.53 1.72 1.03l-1 3.77z"/></g><path fill="#c83737" fill-rule="evenodd" stroke="#c83737" stroke-width="2" d="M697.67 1558.13H396.33" stroke-linecap="square" marker-start="url(#d)" marker-end="url(#e)" transform="translate(197.981 -1095.799)"/><g fill="#c83737" style="line-height:125%;-inkscape-font-specification:'Equity Caps A, Normal';text-align:start" font-size="27.5" font-family="Equity Caps A" letter-spacing="0" word-spacing="0"><path d="M713.87 476.38q0 .7-.3 1.37-.3.64-.77 1.2-.44.56-1.02 1-.55.44-1.04.77v.28q.74.2 1.4.66.7.47 1.2 1.13.53.65.84 1.47.33.83.33 1.73 0 1.3-.54 2.26-.53.96-1.38 1.62-.82.63-1.84.96-1.02.33-1.98.33-2.28 0-3.52-.7-1.24-.75-1.24-1.88 0-.48.36-.92.36-.44 1.07-.44.72 0 1.13.4.44.4.8.9.38.5.82.9.44.4 1.2.4.42 0 .9-.18.46-.2.82-.58.38-.38.63-.96t.25-1.4q0-1.1-.47-1.93-.43-.83-1.04-1.35-.6-.53-1.2-.72-.6-.22-.9-.08l-1 .55-.64-.96q1-.5 1.85-1.07.85-.58 1.48-1.2.66-.65 1.02-1.3.36-.67.36-1.33 0-.96-.58-1.45-.55-.5-1.5-.5-1.22 0-2.27.68-1.02.7-1.76 1.7l-.77-.82q.4-.58 1-1.2.6-.64 1.34-1.2.76-.54 1.67-.9.93-.36 2.03-.36.66 0 1.24.22.6.22 1.04.63.47.4.72.97.27.55.27 1.26z"/><path d="M717.36 482.65q0-2.4.5-4.15.5-1.76 1.34-2.92.85-1.15 2-1.7 1.16-.58 2.45-.58 1.27 0 2.34.58 1.1.57 1.9 1.73.8 1.16 1.23 2.92.46 1.76.46 4.13 0 2.17-.47 3.8-.44 1.6-1.24 2.63-.8 1.05-1.9 1.57-1.08.52-2.35.52-1.3 0-2.44-.5-1.15-.5-2-1.56-.85-1.03-1.35-2.63-.5-1.62-.5-3.82zm2.88-.03q0 2.07.28 3.5.27 1.4.74 2.28.5.85 1.1 1.24.63.35 1.3.35.6 0 1.15-.4.6-.4 1-1.26.44-.88.7-2.28.23-1.4.23-3.44 0-2.2-.24-3.74-.26-1.54-.7-2.5-.4-1-1-1.43-.54-.47-1.15-.47-.66 0-1.3.5-.6.47-1.1 1.48-.46 1-.73 2.53-.28 1.53-.28 3.62z"/><path d="M736 480.94q.52-.44 1.35-.74.82-.3 1.8-.3.75 0 1.55.3.8.28 1.46.9.66.64 1.1 1.66.44 1 .44 2.4 0 1-.3 2.08-.3 1.07-1.02 1.95-.7.85-1.82 1.42-1.1.55-2.7.55-1.15 0-2.16-.44-1-.46-1.74-1.37-.74-.9-1.15-2.23-.4-1.35-.4-3.1 0-1.85.6-3.64.63-1.8 1.8-3.33 1.17-1.54 2.85-2.75 1.7-1.2 3.82-1.93l.28.95q-1.13.55-2.15 1.27-1 .7-1.8 1.6-.84.9-1.42 2.03-.57 1.1-.82 2.47l.44.22zm-.6 2.26q-.12.47-.17 1.1-.03.6-.03 1.18 0 1 .22 1.8t.58 1.36q.38.55.88.88.52.3 1.1.3 1.4 0 2.14-1.3.77-1.33.77-3.48 0-.96-.23-1.65-.22-.72-.57-1.16-.36-.47-.86-.7-.46-.2-1-.2-.87 0-1.64.46-.74.44-1.2 1.4z"/><path d="M759.16 485v4.4l2.2.4v1.04h-6.9v-1.04l1.98-.4v-11.34l-1.98-.42v-1.04h7.04q.85 0 1.73.22t1.6.7q.74.5 1.2 1.3.47.78.47 1.88 0 1.98-1.48 3.13-1.46 1.16-4.07 1.16h-1.8zm0-1.3h2q1.02 0 1.77-.78.77-.77.77-2.1 0-1.4-.75-2.08-.74-.68-1.84-.68h-1.94v5.63z"/><path d="M775.56 484.13l-4.45-6.07-1.64-.42v-1.04h7v1.04l-2.24.42 2.97 4.04 2.96-3.77-1.9-.7v-1.03h5.94v1.04l-2.2.7-3.93 4.97 4.48 6.1 1.65.4v1.04h-7v-1.04l2.24-.4-2.97-4.06-2.97 3.77 1.9.7v1.04h-5.94v-1.04l2.17-.7 3.93-4.97z"/></g><g fill="#c83737"><path fill-rule="evenodd" stroke="#c83737" stroke-width="2" d="M372.35 1558.13h-85.4" stroke-linecap="square" marker-start="url(#f)" marker-end="url(#g)" transform="translate(200.681 -1095.799)"/><g style="line-height:125%;-inkscape-font-specification:'Equity Caps A, Normal';text-align:start" font-size="27.5" font-family="Equity Caps A" letter-spacing="0" word-spacing="0"><path d="M504.6 485.72q-.53.44-1.25.8-.68.33-1.65.33-.96 0-1.84-.36-.88-.37-1.6-1.05-.68-.7-1.1-1.7-.4-1.05-.4-2.43 0-1.48.52-2.58.52-1.13 1.32-1.9.82-.77 1.84-1.16 1.02-.38 2-.38 1.24 0 2.26.5 1.05.5 1.8 1.42.73.9 1.14 2.26.42 1.32.42 2.97 0 2.17-.7 4.15-.68 1.95-1.97 3.5-1.28 1.53-3.1 2.55-1.8 1.02-4.03 1.3v-1.1q1.23-.28 2.4-.86 1.14-.6 2.05-1.47.94-.88 1.54-2 .6-1.16.77-2.6l-.44-.2zm.46-2.25q.14-.53.22-1.16.08-.65.08-1.58 0-1.85-.74-3-.74-1.16-2.28-1.16-1.32 0-2.04 1.16-.7 1.13-.7 3.44 0 2.36.73 3.32.77.97 2 .97.97 0 1.57-.53.6-.55 1.16-1.45z"/><path d="M510.9 484.65q0-2.4.48-4.15.5-1.76 1.35-2.92.85-1.15 2-1.7 1.16-.58 2.45-.58 1.27 0 2.34.58 1.1.57 1.9 1.73.8 1.16 1.24 2.92.46 1.76.46 4.13 0 2.17-.46 3.8-.44 1.6-1.24 2.63-.8 1.05-1.9 1.57-1.07.52-2.34.52-1.3 0-2.44-.5-1.16-.5-2-1.56-.86-1.03-1.36-2.63-.5-1.62-.5-3.82zm2.87-.03q0 2.07.28 3.5.27 1.4.74 2.28.5.85 1.1 1.24.62.35 1.28.35.6 0 1.16-.4.58-.4 1-1.26.43-.88.68-2.28.24-1.4.24-3.44 0-2.2-.24-3.74-.25-1.54-.7-2.5-.4-1-.98-1.43-.55-.47-1.16-.47-.66 0-1.3.5-.6.47-1.1 1.48-.46 1-.73 2.53-.28 1.53-.28 3.62z"/><path d="M538.78 487v4.4l2.2.4v1.04h-6.9v-1.04l1.97-.4v-11.34l-1.98-.42v-1.04h7.04q.87 0 1.75.22t1.6.7q.73.5 1.2 1.3.47.78.47 1.88 0 1.98-1.5 3.13-1.44 1.16-4.06 1.16h-1.78zm0-1.3h2q1.02 0 1.76-.78.77-.77.77-2.1 0-1.4-.73-2.08-.74-.68-1.84-.68h-1.95v5.63z"/><path d="M555.18 486.13l-4.45-6.07-1.65-.42v-1.04h7v1.04l-2.25.42 2.97 4.04 2.97-3.77-1.9-.7v-1.03h5.95v1.04l-2.2.7-3.94 4.97 4.5 6.1 1.64.4v1.04h-7.02v-1.04l2.26-.4-2.97-4.06-2.98 3.77 1.9.7v1.04h-5.94v-1.04l2.17-.7 3.93-4.97z"/></g></g><path fill="none" stroke="#c83737" stroke-width="3" d="M324 1321.86c22-66 88-110 132-110" marker-end="url(#h)" transform="translate(197.981 -1095.799)"/><path fill="none" stroke="#c83737" stroke-width="3" d="M770 1494.36c-22 66-88 110-132 110" marker-end="url(#i)" transform="translate(197.981 -1095.799)"/><g fill="#c83737"><path fill-rule="evenodd" stroke="#c83737" stroke-width="2" d="M990 1426.36h-85.4" stroke-linecap="square" marker-start="url(#j)" marker-end="url(#k)" transform="translate(12.341 -1265.799)"/><g style="line-height:125%;-inkscape-font-specification:'Equity Caps A, Normal';text-align:start" font-size="27.5" font-family="Equity Caps A" letter-spacing="0" word-spacing="0"><path d="M933.9 140.35q-.53.44-1.25.8-.68.33-1.65.33-.96 0-1.84-.36-.88-.36-1.6-1.04-.68-.7-1.1-1.7-.4-1.05-.4-2.43 0-1.48.52-2.58.52-1.13 1.32-1.9.82-.77 1.84-1.16 1.02-.37 2-.37 1.24 0 2.26.5 1.05.5 1.8 1.42.73.9 1.14 2.26.42 1.33.42 2.98 0 2.17-.7 4.15-.68 1.95-1.97 3.5-1.28 1.53-3.1 2.55-1.8 1.02-4.03 1.3v-1.1q1.23-.28 2.4-.86 1.14-.6 2.05-1.46.94-.88 1.54-2 .6-1.16.77-2.6l-.44-.2zm.46-2.25q.14-.53.22-1.16.08-.66.08-1.6 0-1.84-.74-3-.74-1.15-2.28-1.15-1.32 0-2.04 1.15-.7 1.13-.7 3.44 0 2.35.73 3.3.77.98 2 .98.97 0 1.57-.53.6-.55 1.16-1.45z"/><path d="M940.18 139.28q0-2.4.5-4.15.5-1.76 1.35-2.92.85-1.14 2-1.7 1.16-.57 2.45-.57 1.27 0 2.34.58 1.1.58 1.9 1.74.8 1.15 1.23 2.9.47 1.77.47 4.14 0 2.17-.47 3.8-.44 1.6-1.23 2.63-.8 1.06-1.9 1.58-1.07.52-2.34.52-1.3 0-2.45-.5-1.15-.5-2-1.56-.86-1.04-1.35-2.64-.5-1.62-.5-3.82zm2.9-.03q0 2.06.27 3.5.27 1.4.74 2.28.48.85 1.1 1.23.62.36 1.28.36.6 0 1.16-.38.57-.42 1-1.27.43-.88.67-2.28.26-1.4.26-3.45 0-2.2-.25-3.74-.23-1.53-.67-2.5-.42-.98-1-1.42-.54-.47-1.15-.47-.66 0-1.3.5-.6.47-1.1 1.5-.46.98-.73 2.52-.28 1.54-.28 3.63z"/><path d="M968.08 141.62v4.4l2.2.4v1.05h-6.9v-1.04l1.97-.4v-11.34l-1.98-.43v-1.04h7.04q.87 0 1.75.22t1.6.7q.73.5 1.2 1.3.47.78.47 1.88 0 1.98-1.5 3.13-1.44 1.16-4.06 1.16h-1.78zm0-1.3h2q1.02 0 1.76-.77.77-.77.77-2.1 0-1.4-.73-2.08-.74-.68-1.84-.68h-1.95v5.62z"/><path d="M984.48 140.76l-4.45-6.07-1.65-.43v-1.04h7v1.04l-2.25.42 2.97 4.03 2.97-3.77-1.9-.7v-1.03h5.95v1.04l-2.2.7-3.94 4.97 4.5 6.08 1.64.4v1.05h-7.02v-1.04l2.26-.4-2.97-4.06-2.98 3.77 1.9.7v1.03h-5.94v-1.04l2.17-.7 3.93-4.97z"/></g></g></g></g><g><path fill="#fff" stroke="#999" stroke-width="2" d="M483.7 726.94h519v417h-519z" stroke-linecap="round" stroke-linejoin="round"/><path fill="#b8cce4" fill-rule="evenodd" stroke="#366092" stroke-width="5" d="M486.2 751.44h515v95h-515z"/><g style="line-height:125%;-inkscape-font-specification:'Concourse T4, Normal';text-align:center" font-size="45.263" font-family="Concourse T4" letter-spacing="0" word-spacing="0" text-anchor="middle"><path d="M718.74 789.7q-.55-.36-1.4-.86-.87-.54-2.04-1-1.14-.5-2.54-.8-1.4-.32-3-.32-2.16 0-4.15.77-1.98.76-3.52 2.34-1.54 1.54-2.5 3.9-.9 2.35-.9 5.52 0 2.58.82 4.8.8 2.17 2.26 3.75 1.5 1.6 3.53 2.5 2.07.86 4.56.86 2.9 0 5.12-.95 2.22-1 4.25-2.25l1.13 3.62q-1.9 1.44-4.7 2.44-2.8 1-5.9 1-3.43 0-6.28-1.22t-4.93-3.3q-2.04-2.13-3.17-4.98-1.13-2.85-1.13-6.06 0-3.94 1.27-7.02 1.26-3.08 3.4-5.2 2.16-2.13 4.97-3.22 2.84-1.13 5.96-1.13 1.6 0 3.04.32 1.5.26 2.76.7 1.3.46 2.35 1 1.05.55 1.73 1.05l-1 3.75z"/><path d="M742.55 804.37q0 2.3-.77 4.25-.72 1.95-2.04 3.35-1.26 1.4-3.03 2.22-1.7.76-3.65.76-2 0-3.76-.77-1.73-.82-3.04-2.23-1.27-1.4-2-3.35-.72-1.94-.72-4.25 0-2.35.68-4.35.72-2.03 1.95-3.48 1.26-1.5 2.98-2.3 1.72-.82 3.7-.82 2.23 0 4 .86 1.8.8 3.08 2.26 1.26 1.45 1.94 3.48.68 2 .68 4.35zm-4.16-.05q0-3.4-1.5-5.47-1.46-2.08-4.04-2.08-1.17 0-2.12.58-.95.55-1.63 1.6-.67.98-1.03 2.4-.37 1.35-.37 2.97 0 3.3 1.45 5.3t3.9 2q2.3 0 3.8-1.95 1.54-1.95 1.54-5.35z"/><path d="M751.4 783v31.33h-4.1v-30.78l4.1-.54z"/><path d="M786.38 806.32h-12.94l-3.3 8h-4.53l13.86-31.68h.9l13.94 31.7h-4.52l-3.4-8.02zm-11.4-3.72h9.86l-4.8-11.36h-.3l-4.76 11.36z"/></g><path fill="#b8cce4" fill-rule="evenodd" stroke="#366092" stroke-width="5" d="M486.2 883.44h515v95h-515z"/><g style="line-height:125%;-inkscape-font-specification:'Concourse T4, Normal';text-align:center" font-size="45.263" font-family="Concourse T4" letter-spacing="0" word-spacing="0" text-anchor="middle"><path d="M721.43 921.7q-.54-.36-1.4-.86-.86-.54-2.04-1-1.14-.5-2.54-.8-1.4-.32-3-.32-2.16 0-4.15.77-2 .76-3.52 2.34-1.54 1.54-2.5 3.9-.9 2.35-.9 5.52 0 2.58.82 4.8.8 2.17 2.26 3.75 1.5 1.6 3.53 2.5 2.07.86 4.56.86 2.9 0 5.1-.95 2.23-1 4.27-2.25l1.13 3.62q-1.9 1.44-4.7 2.44-2.8 1-5.9 1-3.43 0-6.28-1.22t-4.94-3.3q-2.03-2.13-3.16-4.98-1.14-2.85-1.14-6.06 0-3.94 1.27-7.02 1.28-3.08 3.4-5.2 2.18-2.13 5-3.22 2.84-1.13 5.96-1.13 1.58 0 3.03.32 1.5.26 2.75.7 1.32.46 2.36 1 1.05.55 1.73 1.05l-1 3.75z"/><path d="M745.25 936.37q0 2.3-.77 4.25-.73 1.95-2.04 3.35-1.27 1.4-3.03 2.22-1.7.76-3.66.76-2 0-3.76-.77-1.72-.82-3.03-2.23-1.26-1.4-2-3.35-.7-1.94-.7-4.25 0-2.35.67-4.35.72-2.03 1.94-3.48 1.27-1.5 3-2.3 1.7-.82 3.7-.82 2.22 0 3.98.86 1.8.8 3.08 2.26 1.27 1.45 1.95 3.48.68 2 .68 4.35zm-4.17-.05q0-3.4-1.5-5.47-1.44-2.08-4.02-2.08-1.18 0-2.13.58-.95.55-1.63 1.6-.68.98-1.04 2.4-.36 1.35-.36 2.97 0 3.3 1.45 5.3t3.9 2q2.3 0 3.8-1.95 1.53-1.95 1.53-5.35z"/><path d="M754.08 915v31.33H750v-30.78l4.08-.54z"/><path d="M784.37 930.17q3 .77 4.53 2.76 1.54 2 1.54 4.57 0 4.26-2.85 6.56-2.82 2.27-7.84 2.27h-8.97v-30.78h8.4q2.5 0 4.3.6 1.82.58 3 1.57 1.18 1 1.72 2.4.6 1.36.6 2.9 0 .9-.33 2-.28 1.03-.82 2.03-.55.95-1.4 1.76-.82.78-1.9 1.14v.23zm-9.32 1.9v10.68h4.93q1.04 0 2.13-.22 1.14-.23 2.05-.82.9-.62 1.44-1.62.58-1.04.58-2.67 0-1.3-.54-2.3-.5-1-1.4-1.67-.86-.68-2-1-1.13-.36-2.35-.36h-4.85zm9.5-8.37q0-2.27-1.54-3.4-1.48-1.18-4-1.18h-3.95v9.42h4.93q1.9 0 3.22-1.27 1.35-1.27 1.35-3.57z"/></g><path fill="#b8cce4" fill-rule="evenodd" stroke="#366092" stroke-width="5" d="M486.2 1015.44h515v95h-515z"/><g style="line-height:125%;-inkscape-font-specification:'Concourse T4, Normal';text-align:center" font-size="45.263" font-family="Concourse T4" letter-spacing="0" word-spacing="0" text-anchor="middle"><path d="M719.18 1053.7q-.55-.36-1.4-.86-.87-.54-2.04-1-1.13-.5-2.54-.8-1.4-.32-2.98-.32-2.18 0-4.17.77-2 .76-3.53 2.34-1.54 1.54-2.5 3.9-.9 2.35-.9 5.52 0 2.57.82 4.8.82 2.17 2.26 3.75 1.5 1.6 3.53 2.5 2.1.86 4.58.86 2.9 0 5.12-.95 2.22-1 4.26-2.25l1.13 3.62q-1.9 1.44-4.7 2.44-2.8 1-5.88 1-3.44 0-6.3-1.22-2.85-1.22-4.93-3.3-2.05-2.13-3.18-4.98-1.13-2.85-1.13-6.06 0-3.94 1.26-7.02 1.27-3.08 3.4-5.2 2.16-2.13 4.97-3.22 2.85-1.13 5.98-1.13 1.6 0 3.04.32 1.5.26 2.76.7 1.3.46 2.35 1 1.04.55 1.72 1.05l-1 3.75z"/><path d="M743 1068.37q0 2.3-.78 4.25-.72 1.95-2.03 3.35-1.28 1.4-3.05 2.22-1.72.76-3.66.76-2 0-3.77-.77-1.72-.82-3.03-2.23-1.27-1.4-2-3.35-.72-1.94-.72-4.25 0-2.35.68-4.35.73-2.03 1.95-3.48 1.27-1.5 3-2.3 1.7-.82 3.7-.82 2.22 0 4 .86 1.8.8 3.07 2.26 1.26 1.45 1.94 3.48.7 2 .7 4.35zm-4.17-.05q0-3.4-1.5-5.47-1.44-2.08-4.02-2.08-1.17 0-2.12.58-.95.55-1.63 1.6-.68.98-1.04 2.4-.35 1.35-.35 2.97 0 3.3 1.44 5.3t3.9 2q2.3 0 3.8-1.95 1.53-1.95 1.53-5.35z"/><path d="M751.83 1047v31.33h-4.07v-30.78l4.07-.54z"/><path d="M791.67 1053.7q-.55-.36-1.4-.86-.86-.54-2.04-1-1.13-.5-2.54-.8-1.4-.32-3-.32-2.17 0-4.16.77-2 .76-3.53 2.34-1.53 1.54-2.48 3.9-.9 2.35-.9 5.52 0 2.57.8 4.8.83 2.17 2.27 3.75 1.5 1.6 3.53 2.5 2.08.86 4.57.86 2.9 0 5.1-.95 2.23-1 4.27-2.25l1.13 3.62q-1.9 1.44-4.7 2.44-2.82 1-5.9 1-3.43 0-6.3-1.22-2.84-1.22-4.92-3.3-2.04-2.13-3.17-4.98-1.12-2.85-1.12-6.06 0-3.94 1.27-7.02 1.27-3.08 3.4-5.2 2.17-2.13 4.97-3.22 2.85-1.13 5.98-1.13 1.58 0 3.03.32 1.5.26 2.76.7 1.3.46 2.34 1 1.04.55 1.72 1.05l-1 3.75z"/></g><g fill="#c83737"><path fill-rule="evenodd" stroke="#c83737" stroke-width="2" d="M803.98 1888.36H288.64" stroke-linecap="square" marker-start="url(#l)" marker-end="url(#m)" transform="translate(197.691 -1201.424)"/><g style="line-height:125%;-inkscape-font-specification:'Equity Caps A, Normal';text-align:start" font-size="27.5" font-family="Equity Caps A" letter-spacing="0" word-spacing="0"><path d="M571.3 676.6v-1.05l1.97-.4V663.8l-1.98-.4v-1.05h7.44q.58 0 1.32.17.74.14 1.4.52.66.36 1.1 1 .47.62.47 1.6 0 .45-.14.95-.15.48-.48.95-.3.44-.8.83-.5.35-1.2.57v.3q1.43.25 2.36 1.22.94.93.94 2.3 0 .9-.4 1.6-.37.7-1.06 1.18-.7.5-1.65.77-.95.28-2.14.28h-7.17zm9.5-4.02q0-.52-.2-1-.18-.48-.57-.84-.38-.38-1-.6-.6-.22-1.42-.22H576v5.22h2.08q1.4 0 2.06-.74.66-.74.66-1.82zm-4.8-3.96h1.64q.7 0 1.18-.2.47-.2.74-.57.3-.35.42-.8.13-.46.13-.96 0-.67-.2-1.1-.23-.45-.58-.7-.33-.27-.77-.38-.42-.1-.86-.1H576v4.8z"/><path d="M596.17 669.9q.58.24 1.05.92.5.7 1 1.52.48.8 1 1.6.53.76 1.16 1.2l1.24.4v1.06h-3.3q-.83-.52-1.46-1.46-.6-.93-1.18-1.92-.58-1-1.2-1.82-.62-.85-1.44-1.18h-.83v4.92l1.96.4v1.06h-6.65v-1.05l2-.4V663.8l-2-.4v-1.05h7.46q.6 0 1.38.17.77.14 1.45.55.7.4 1.18 1.15.5.72.5 1.87 0 1.18-.86 2.22-.83 1.02-2.45 1.32v.25zm-3.96-.97h1.52q.77 0 1.3-.25.55-.28.9-.66.36-.4.53-.88.16-.5.16-.96 0-1.3-.62-1.82-.63-.55-1.46-.55h-2.3v5.13z"/><path d="M604.32 669.56q0-1.7.58-3.08.6-1.38 1.6-2.34 1-1 2.36-1.5 1.37-.53 2.9-.53 1.6 0 2.95.53 1.4.5 2.38 1.46 1 .95 1.54 2.35.55 1.38.55 3.1 0 1.82-.6 3.23-.58 1.37-1.6 2.3-1 .94-2.34 1.4-1.35.48-2.86.48-1.54 0-2.9-.47-1.36-.5-2.38-1.44-1-.96-1.6-2.34-.58-1.37-.58-3.16zm3.02-.03q0 1.46.36 2.56t.96 1.86q.6.74 1.4 1.13.8.37 1.7.37.9 0 1.7-.3.8-.33 1.4-1.05.6-.7.95-1.84.37-1.13.37-2.75 0-1.48-.36-2.6-.32-1.17-.92-1.9-.58-.78-1.4-1.16-.8-.4-1.7-.4-.92 0-1.7.4-.8.38-1.42 1.15-.6.77-.96 1.9t-.36 2.6z"/><path d="M632.3 667.85l-2.96 8.75h-1.62l-4.2-12.8-1.66-.4v-1.05h6.25v1.05l-1.84.4 2.73 8.4h.34l2.34-6.3-.7-2.1-1.4-.4v-1.05h6v1.05l-1.84.4 2.75 8.4h.35l2.92-8.1-2.23-.7v-1.05h5.58v1.05l-1.76.7-4.6 12.5h-1.53l-2.92-8.75z"/><path d="M646.15 671.8h1.32q.4 1.83 1.34 2.82.95 1 2.35 1 1.1 0 1.76-.62.67-.63.67-1.6 0-.43-.14-.8-.1-.37-.44-.7-.34-.36-.94-.7-.58-.35-1.5-.76-2.05-.88-3.07-1.87-1.02-1-1.02-2.48 0-.7.3-1.4.3-.72.88-1.3.58-.58 1.4-.94.85-.35 1.93-.35.92 0 1.53.25.63.22 1.1.42l1-.42h.7l.5 4.32h-1.3q-.52-1.65-1.43-2.42-.9-.77-2-.77-.97 0-1.57.52-.6.53-.6 1.52 0 .88.76 1.48.8.58 2.58 1.27 1.8.7 2.78 1.73.96 1 .96 2.64 0 1.07-.4 1.9-.34.8-1 1.34-.66.53-1.57.8-.88.28-1.9.28-.7 0-1.48-.25-.77-.2-1.3-.57l-1.18.4h-1.05v-4.72z"/><path d="M670.2 675.25l1.6-2.45h1.2l-.6 3.8h-11.9v-1.05l1.98-.4V663.8l-1.98-.4v-1.05h11.2l.35 3.4h-1.15l-1.43-2.05h-4.27v4.92h2.64l.75-1.56h.87v4.6h-.88l-.76-1.74h-2.64v5.33h5z"/><path d="M685 669.9q.6.24 1.05.92.5.7 1 1.52.5.8 1 1.6.53.76 1.17 1.2l1.23.4v1.06h-3.3q-.82-.52-1.45-1.46-.6-.93-1.2-1.92-.56-1-1.2-1.82-.6-.85-1.43-1.18h-.82v4.92l1.95.4v1.06h-6.65v-1.05l1.98-.4V663.8l-1.98-.4v-1.05h7.45q.6 0 1.37.17.77.14 1.46.55.72.4 1.18 1.15.5.72.5 1.87 0 1.18-.84 2.22-.83 1.02-2.45 1.32v.25zm-3.95-.97h1.5q.78 0 1.3-.25.55-.28.9-.66.37-.4.53-.88.17-.5.17-.96 0-1.3-.63-1.82-.64-.55-1.46-.55h-2.3v5.13z"/><path d="M710.73 667.85l-2.97 8.75h-1.62l-4.2-12.8-1.66-.4v-1.05h6.24v1.05l-1.84.4 2.72 8.4h.36l2.34-6.3-.7-2.1-1.4-.4v-1.05h6v1.05l-1.84.4 2.75 8.4h.37l2.9-8.1-2.2-.7v-1.05h5.57v1.05l-1.76.7-4.6 12.5h-1.53l-2.92-8.75z"/><path d="M731.45 662.35v1.05l-1.95.4v11.34l1.95.4v1.06h-6.65v-1.05l1.98-.4V663.8l-1.98-.4v-1.05h6.65z"/><path d="M747.66 671.73v-7.64l-2.25-.7v-1.05h5.73v1.05l-1.96.7v12.7h-.82l-9.35-11h-.33v9.07l2.25.68v1.05h-5.52v-1.05l1.76-.68V663.8l-1.76-.4v-1.05h3.93l8 9.38h.33z"/><path d="M754.6 676.6v-1.05l1.98-.4V663.8l-1.98-.4v-1.05h6.57q1.85 0 3.3.5 1.5.5 2.5 1.43 1.05.9 1.6 2.25t.55 3.03q0 1.7-.63 3.02-.62 1.32-1.72 2.23-1.1.9-2.6 1.36-1.5.44-3.25.44h-6.33zm6.33-1.46q1.04 0 2-.3.97-.3 1.68-.96.75-.7 1.17-1.74.44-1.07.44-2.6 0-1.4-.4-2.48t-1.08-1.8q-.7-.73-1.62-1.1-.9-.35-1.95-.35h-1.85v11.34h1.63z"/><path d="M772.92 669.56q0-1.7.58-3.08.6-1.38 1.6-2.34 1-1 2.36-1.5 1.37-.53 2.9-.53 1.6 0 2.95.53 1.4.5 2.38 1.46 1 .95 1.54 2.35.55 1.38.55 3.1 0 1.82-.6 3.23-.58 1.37-1.6 2.3-1 .94-2.34 1.4-1.35.48-2.86.48-1.54 0-2.9-.47-1.36-.5-2.38-1.44-1-.96-1.6-2.34-.58-1.37-.58-3.16zm3.02-.03q0 1.46.36 2.56t.96 1.86q.6.74 1.4 1.13.8.37 1.7.37.9 0 1.7-.3.8-.33 1.4-1.05.6-.7.95-1.84.37-1.13.37-2.75 0-1.48-.36-2.6-.32-1.17-.92-1.9-.58-.78-1.4-1.16-.8-.4-1.7-.4-.92 0-1.7.4-.8.38-1.42 1.15-.6.77-.96 1.9t-.36 2.6z"/><path d="M800.9 667.85l-2.96 8.75h-1.62l-4.2-12.8-1.66-.4v-1.05h6.24v1.05l-1.84.4 2.72 8.4h.36l2.34-6.3-.7-2.1-1.4-.4v-1.05h6v1.05l-1.84.4 2.75 8.4h.35l2.9-8.1-2.2-.7v-1.05h5.57v1.05l-1.76.7-4.6 12.5h-1.53l-2.92-8.75z"/><path d="M823.64 669.97l9.02 3.7v1.83l-11.1-4.68v-1.7l11.1-4.68v1.85l-9.02 3.67z"/><path d="M837.72 659.38h6.6l.72-1.07h1.07l-.62 3.56h-6.63l-.3 3.35.22.23q.58-.22 1.8-.22.98 0 1.94.37.97.36 1.74 1.07.77.7 1.24 1.7.5 1.03.5 2.35 0 1.42-.56 2.57-.52 1.16-1.48 1.98-.94.8-2.26 1.24-1.32.43-2.9.43-.67 0-1.25-.14-.55-.12-1-.34-.43-.25-.68-.58-.24-.33-.24-.7 0-.56.34-.97.35-.4 1.07-.4.67 0 1.1.2.45.23.86.5.44.28.94.5.52.22 1.3.22.46 0 .9-.2.46-.2.82-.62.36-.4.58-1.05.22-.66.22-1.56 0-1-.33-1.77-.3-.8-.9-1.35-.54-.55-1.28-.85-.75-.3-1.6-.3-.74 0-1.3.08-.5.1-.87.23l-.5-.5.77-7.95z"/><path d="M857.1 663.9q0-1.05-.66-1.82-.66-.8-1.87-.8-.6 0-1.13.2-.52.2-1.04.57-.53.36-1.08.9-.52.53-1.15 1.22l-.83-.88q.44-.64 1.08-1.4.63-.73 1.4-1.36.8-.63 1.73-1.05.94-.45 2-.45 1.05 0 1.85.33.8.3 1.32.86.55.55.83 1.26.27.72.27 1.54 0 .8-.36 1.73-.35.94-.93 1.96-.58 1-1.32 2.03-.73 1.02-1.5 1.95-.77.95-1.54 1.75-.75.77-1.32 1.3l.16.37h5.8l1.24-1.73.9.35-1.53 3.85h-10.2l-.32-.88q.68-.55 1.56-1.38.9-.82 1.82-1.8.9-1 1.76-2.1.88-1.1 1.57-2.23.67-1.12 1.1-2.22.4-1.1.4-2.1z"/><path d="M863.38 668.4q0-2.4.5-4.15.5-1.76 1.34-2.9.86-1.17 2-1.72 1.17-.58 2.46-.58 1.26 0 2.34.58 1.1.58 1.9 1.73.8 1.16 1.23 2.92.47 1.76.47 4.12 0 2.18-.47 3.8-.44 1.6-1.24 2.64-.78 1.04-1.88 1.57-1.08.53-2.34.53-1.3 0-2.45-.5-1.15-.52-2-1.56-.86-1.05-1.35-2.64-.5-1.63-.5-3.83zm2.9-.02q0 2.06.26 3.5.28 1.4.75 2.27.48.85 1.1 1.24.62.35 1.28.35.6 0 1.15-.4.58-.4 1-1.25.43-.88.68-2.3.26-1.4.26-3.42 0-2.2-.25-3.74-.24-1.54-.68-2.5-.4-1-1-1.44-.54-.46-1.14-.46-.66 0-1.3.5-.6.46-1.1 1.48-.46 1-.74 2.53-.27 1.54-.27 3.63z"/><path d="M891.27 670.74v4.4l2.2.4v1.06h-6.9v-1.05l1.98-.4V663.8l-1.98-.4v-1.05h7.04q.86 0 1.74.22t1.6.72q.74.48 1.2 1.28.48.77.48 1.87 0 1.98-1.5 3.14-1.45 1.14-4.06 1.14h-1.8zm0-1.3h2q1.03 0 1.77-.76.77-.77.77-2.1 0-1.4-.73-2.08-.74-.7-1.84-.7h-1.96v5.65z"/><path d="M907.68 669.9l-4.46-6.1-1.65-.4v-1.05h7.02v1.05l-2.27.4 2.97 4.05 2.97-3.76-1.9-.7v-1.05h5.94v1.05l-2.2.7-3.92 4.96 4.48 6.08 1.65.4v1.06h-7v-1.05l2.26-.4-2.97-4.05-2.98 3.77 1.9.68v1.05h-5.95v-1.05l2.18-.68 3.93-4.98z"/></g><g style="line-height:125%;-inkscape-font-specification:'Equity Caps A, Normal';text-align:start" font-size="27.5" font-family="Equity Caps A" letter-spacing="0" word-spacing="0"><path d="M658.24 715.3v-1.05l1.98-.42V702.5l-1.98-.4v-1.05h7.46q.57 0 1.32.16.74.15 1.4.53.66.36 1.1 1 .47.63.47 1.6 0 .46-.15.95-.14.5-.47.96-.3.44-.8.83-.5.36-1.2.58v.3q1.42.25 2.36 1.2.93.94.93 2.32 0 .88-.38 1.6-.4.68-1.08 1.18-.7.5-1.65.77-.97.27-2.15.27h-7.18zm9.52-4.02q0-.53-.2-1-.2-.5-.57-.85-.4-.38-1-.6-.6-.22-1.43-.22h-1.62v5.23h2.1q1.4 0 2.05-.74.66-.75.66-1.82zm-4.8-3.96h1.64q.7 0 1.18-.2.47-.22.74-.57.3-.36.4-.8.15-.47.15-.96 0-.67-.22-1.1-.22-.45-.58-.7-.33-.28-.77-.4-.4-.1-.85-.1h-1.7v4.82z"/><path d="M674.47 708.25q0-1.7.57-3.08.6-1.37 1.6-2.34 1.02-1 2.36-1.5 1.38-.53 2.92-.53 1.6 0 2.94.52 1.38.5 2.37 1.46 1 .96 1.54 2.36.55 1.38.55 3.1 0 1.83-.6 3.23-.6 1.37-1.6 2.3-1 .94-2.34 1.4-1.35.48-2.86.48-1.54 0-2.92-.47-1.34-.5-2.36-1.43-1-.96-1.6-2.34-.57-1.36-.57-3.15zm3.02-.03q0 1.46.35 2.56.36 1.1.96 1.87.62.74 1.4 1.13.8.38 1.72.38.88 0 1.68-.3.8-.33 1.4-1.04.6-.72.96-1.85.36-1.12.36-2.75 0-1.48-.36-2.6-.33-1.16-.93-1.9-.58-.78-1.4-1.16-.8-.4-1.7-.4-.92 0-1.72.4-.78.38-1.4 1.15-.6.78-.95 1.9-.36 1.14-.36 2.62z"/><path d="M693.1 715.3v-1.05l1.98-.42V702.5l-1.98-.4v-1.05h6.58q1.84 0 3.3.5 1.48.5 2.5 1.42 1.04.9 1.6 2.26.54 1.34.54 3.02 0 1.7-.63 3.03-.6 1.32-1.7 2.22-1.1.88-2.63 1.35-1.48.44-3.24.44h-6.33zm6.33-1.47q1.04 0 2-.3.97-.3 1.68-.96.76-.7 1.17-1.73.44-1.08.44-2.62 0-1.4-.4-2.47-.4-1.07-1.08-1.8t-1.62-1.1q-.9-.35-1.95-.35h-1.84v11.33h1.63z"/><path d="M721.35 702.78l-2.17-.7v-1.03h5.58v1.04l-1.78.68-4.07 6.76v4.3l2 .4v1.05h-6.7v-1.05l1.98-.42v-4.3l-4.15-7.03-1.7-.4v-1.05h6.38v1.04l-1.67.4 2.97 5.2h.38l2.97-4.92z"/><path d="M736.68 708.66l9.02 3.7v1.83l-11.1-4.68v-1.7l11.1-4.68v1.84l-9.02 3.68z"/><path d="M750.77 698.08h6.6l.7-1.08h1.08l-.63 3.55h-6.63l-.3 3.36.2.23q.6-.22 1.8-.22 1 0 1.95.36.96.36 1.73 1.08.77.68 1.24 1.7.5 1.02.5 2.34 0 1.43-.55 2.58-.53 1.16-1.5 1.98-.92.8-2.24 1.24-1.32.44-2.92.44-.65 0-1.23-.14-.55-.1-1-.33-.43-.24-.67-.57-.25-.33-.25-.72 0-.55.33-.96.36-.4 1.07-.4.66 0 1.1.2.44.23.85.5.44.28.94.5.52.22 1.3.22.46 0 .9-.2.47-.22.82-.63.36-.42.58-1.05.22-.66.22-1.57 0-1-.33-1.76-.3-.8-.88-1.35-.55-.55-1.3-.85-.73-.3-1.6-.3-.73 0-1.28.08-.52.08-.88.22l-.5-.5.77-7.94z"/><path d="M770.14 702.6q0-1.06-.66-1.83-.66-.8-1.87-.8-.6 0-1.12.2-.52.2-1.04.57-.52.36-1.07.9-.53.53-1.16 1.22l-.8-.88q.43-.63 1.06-1.37.63-.74 1.4-1.37.8-.63 1.73-1.04.93-.45 2-.45 1.05 0 1.84.33.8.3 1.32.85.55.55.83 1.26.26.7.26 1.53 0 .8-.35 1.74-.35.93-.93 1.95-.58 1.02-1.32 2.03-.74 1.02-1.5 1.96-.78.94-1.55 1.74-.74.77-1.32 1.3l.16.38h5.8l1.24-1.74.9.36-1.53 3.85h-10.2l-.33-.9q.7-.54 1.57-1.36.9-.83 1.8-1.82.9-1 1.76-2.1.88-1.1 1.57-2.22.7-1.12 1.1-2.22.4-1.1.4-2.1z"/><path d="M776.42 707.1q0-2.4.5-4.16.5-1.76 1.35-2.9.85-1.17 2-1.72 1.16-.57 2.45-.57 1.27 0 2.34.57 1.1.58 1.9 1.74.8 1.15 1.23 2.9.46 1.77.46 4.14 0 2.17-.47 3.8-.45 1.6-1.24 2.63-.8 1.05-1.9 1.57-1.07.52-2.34.52-1.3 0-2.45-.5-1.15-.52-2-1.56-.86-1.05-1.35-2.64-.5-1.62-.5-3.82zm2.9-.03q0 2.06.27 3.5.26 1.4.73 2.27.5.86 1.1 1.24.63.36 1.3.36.6 0 1.15-.4.57-.4 1-1.25.43-.9.67-2.3.25-1.4.25-3.43 0-2.2-.25-3.74-.24-1.54-.68-2.5-.42-1-1-1.44-.54-.47-1.15-.47-.66 0-1.3.5-.6.46-1.1 1.48-.46 1-.73 2.54-.3 1.54-.3 3.63z"/><path d="M804.3 709.43v4.4l2.2.42v1.04h-6.9v-1.05l2-.42V702.5l-2-.4v-1.05h7.05q.85 0 1.73.22t1.6.7q.74.5 1.2 1.3.48.77.48 1.87 0 1.98-1.5 3.14-1.45 1.15-4.06 1.15h-1.8zm0-1.3h2.02q1.02 0 1.76-.76.77-.77.77-2.1 0-1.4-.74-2.08-.73-.7-1.83-.7h-1.96v5.64z"/><path d="M820.72 708.58l-4.46-6.08-1.65-.4v-1.05h7.03v1.04l-2.26.4 2.97 4.05 2.97-3.77-1.9-.7v-1.03h5.95v1.04l-2.2.68-3.93 4.98 4.48 6.07 1.65.42v1.04h-7v-1.05l2.25-.42-2.97-4.04-2.97 3.76 1.9.7v1.03h-5.95v-1.05l2.2-.7 3.92-4.97z"/></g></g></g></g></g></svg>
