<svg xmlns="http://www.w3.org/2000/svg" width="523" height="1090.069" xmlns:osb="http://www.openswatchbook.org/uri/2009/osb" xmlns:xlink="http://www.w3.org/1999/xlink"><defs><marker orient="auto" overflow="visible"><path fill="#c83737" fill-rule="evenodd" stroke="#c83737" stroke-width=".8pt" d="M-10 0l-4 4L0 0l-14-4z"/></marker><marker orient="auto" overflow="visible"><path fill-rule="evenodd" stroke="#000" stroke-width=".8pt" d="M-10 0l-4 4L0 0l-14-4z"/></marker><linearGradient osb:paint="solid"><stop offset="0" stop-color="#fea"/></linearGradient><marker orient="auto" overflow="visible"><path fill="#f00" fill-rule="evenodd" stroke="#f00" stroke-width=".375" d="M5.23 2.42L-1.32.02 5.23-2.4C4.18-.98 4.2.97 5.23 2.42z" stroke-linejoin="round"/></marker><marker orient="auto" overflow="visible"><path fill-rule="evenodd" stroke="#000" stroke-width=".8pt" d="M-4.62 0L2.3-4v8z"/></marker><marker orient="auto" overflow="visible"><path fill="#c00000" fill-rule="evenodd" stroke="#c00000" stroke-width=".8pt" d="M-4.62 0L2.3-4v8z"/></marker><marker orient="auto" overflow="visible"><path fill-rule="evenodd" stroke="#000" stroke-width=".688" d="M10.7 4.44L-1.34.02 10.7-4.4c-1.93 2.6-1.92 6.18 0 8.84z" stroke-linejoin="round"/></marker><marker orient="auto" overflow="visible"><path fill-rule="evenodd" stroke="#000" stroke-width=".4pt" d="M2.3 0l-3.45 2v-4z"/></marker><marker orient="auto" overflow="visible"><path fill-rule="evenodd" stroke="#000" stroke-width=".4pt" d="M2.3 0l-3.45 2v-4z"/></marker><marker orient="auto" overflow="visible"><path fill-rule="evenodd" stroke="#000" stroke-width=".4pt" d="M2.3 0l-3.45 2v-4z"/></marker><marker orient="auto" overflow="visible"><path fill-rule="evenodd" stroke="#000" stroke-width=".8pt" d="M4.62 0L-2.3 4v-8z"/></marker><marker orient="auto" overflow="visible"><path fill="#f00" fill-rule="evenodd" stroke="#f00" stroke-width=".375" d="M-5.23-2.42l6.55 2.4-6.55 2.42c1.05-1.42 1.04-3.37 0-4.82z" stroke-linejoin="round"/></marker><marker orient="auto" overflow="visible"><path fill-rule="evenodd" stroke="#000" stroke-width=".4pt" d="M2.3 0l-3.45 2v-4z"/></marker><marker id="b" orient="auto" overflow="visible"><path fill="#c83737" fill-rule="evenodd" stroke="#c83737" stroke-width=".8pt" d="M4.62 0L-2.3 4v-8z"/></marker><marker orient="auto" overflow="visible"><path fill-rule="evenodd" stroke="#000" stroke-width=".688" d="M10.7 4.44L-1.34.02 10.7-4.4c-1.93 2.6-1.92 6.18 0 8.84z" stroke-linejoin="round"/></marker><marker orient="auto" overflow="visible"><path fill="#c83737" fill-rule="evenodd" stroke="#c83737" stroke-width=".688" d="M-10.7-4.44L1.34-.02-10.7 4.4c1.93-2.6 1.92-6.18 0-8.84z" stroke-linejoin="round"/></marker><linearGradient><stop offset="0" stop-color="#4c4c4c"/><stop offset="1" stop-color="#656565"/></linearGradient><linearGradient><stop offset="0" stop-color="#4c4c4c"/><stop offset="1" stop-color="#656565"/></linearGradient><linearGradient><stop offset="0" stop-color="#4c4c4c"/><stop offset="1" stop-color="#656565"/></linearGradient><linearGradient><stop offset="0" stop-color="#4c4c4c"/><stop offset="1" stop-color="#656565"/></linearGradient><linearGradient><stop offset="0" stop-color="#4c4c4c"/><stop offset="1" stop-color="#656565"/></linearGradient><linearGradient><stop offset="0" stop-color="#4c4c4c"/><stop offset="1" stop-color="#656565"/></linearGradient><linearGradient><stop offset="0" stop-color="#4c4c4c"/><stop offset="1" stop-color="#656565"/></linearGradient><linearGradient><stop offset="0" stop-color="#4c4c4c"/><stop offset="1" stop-color="#656565"/></linearGradient><linearGradient><stop offset="0" stop-color="#4c4c4c"/><stop offset="1" stop-color="#656565"/></linearGradient><linearGradient><stop offset="0" stop-color="#4c4c4c"/><stop offset="1" stop-color="#656565"/></linearGradient><linearGradient><stop offset="0" stop-color="#4c4c4c"/><stop offset="1" stop-color="#656565"/></linearGradient><linearGradient><stop offset="0" stop-color="#4c4c4c"/><stop offset="1" stop-color="#656565"/></linearGradient><linearGradient><stop offset="0" stop-color="#4c4c4c"/><stop offset="1" stop-color="#656565"/></linearGradient><linearGradient><stop offset="0" stop-color="#4c4c4c"/><stop offset="1" stop-color="#656565"/></linearGradient><linearGradient><stop offset="0" stop-color="#4c4c4c"/><stop offset="1" stop-color="#656565"/></linearGradient><linearGradient><stop offset="0" stop-color="#4c4c4c"/><stop offset="1" stop-color="#656565"/></linearGradient><linearGradient><stop offset="0" stop-color="#4c4c4c"/><stop offset="1" stop-color="#656565"/></linearGradient><linearGradient><stop offset="0" stop-color="#4c4c4c"/><stop offset="1" stop-color="#656565"/></linearGradient><linearGradient><stop offset="0" stop-color="#4c4c4c"/><stop offset="1" stop-color="#656565"/></linearGradient><linearGradient><stop offset="0" stop-color="#4c4c4c"/><stop offset="1" stop-color="#656565"/></linearGradient><linearGradient><stop offset="0" stop-color="#4c4c4c"/><stop offset="1" stop-color="#656565"/></linearGradient><linearGradient><stop offset="0" stop-color="#4c4c4c"/><stop offset="1" stop-color="#656565"/></linearGradient><linearGradient><stop offset="0" stop-color="#4c4c4c"/><stop offset="1" stop-color="#656565"/></linearGradient><linearGradient><stop offset="0" stop-color="#4c4c4c"/><stop offset="1" stop-color="#656565"/></linearGradient><linearGradient><stop offset="0" stop-color="#4c4c4c"/><stop offset="1" stop-color="#656565"/></linearGradient><linearGradient><stop offset="0" stop-color="#4c4c4c"/><stop offset="1" stop-color="#656565"/></linearGradient><linearGradient><stop offset="0" stop-color="#4c4c4c"/><stop offset="1" stop-color="#656565"/></linearGradient><linearGradient><stop offset="0" stop-color="#4c4c4c"/><stop offset="1" stop-color="#656565"/></linearGradient><linearGradient><stop offset="0" stop-color="#4c4c4c"/><stop offset="1" stop-color="#656565"/></linearGradient><linearGradient><stop offset="0" stop-color="#4c4c4c"/><stop offset="1" stop-color="#656565"/></linearGradient><linearGradient><stop offset="0" stop-color="#4c4c4c"/><stop offset="1" stop-color="#656565"/></linearGradient><linearGradient><stop offset="0" stop-color="#4c4c4c"/><stop offset="1" stop-color="#656565"/></linearGradient><linearGradient><stop offset="0" stop-color="#4c4c4c"/><stop offset="1" stop-color="#656565"/></linearGradient><linearGradient><stop offset="0" stop-color="#4c4c4c"/><stop offset="1" stop-color="#656565"/></linearGradient><linearGradient><stop offset="0" stop-color="#4c4c4c"/><stop offset="1" stop-color="#656565"/></linearGradient><linearGradient><stop offset="0" stop-color="#4c4c4c"/><stop offset="1" stop-color="#656565"/></linearGradient><linearGradient><stop offset="0" stop-color="#4c4c4c"/><stop offset="1" stop-color="#656565"/></linearGradient><linearGradient><stop offset="0" stop-color="#4c4c4c"/><stop offset="1" stop-color="#656565"/></linearGradient><linearGradient><stop offset="0" stop-color="#4c4c4c"/><stop offset="1" stop-color="#656565"/></linearGradient><linearGradient><stop offset="0" stop-color="#4c4c4c"/><stop offset="1" stop-color="#656565"/></linearGradient><linearGradient><stop offset="0" stop-color="#4c4c4c"/><stop offset="1" stop-color="#656565"/></linearGradient><linearGradient><stop offset="0" stop-color="#4c4c4c"/><stop offset="1" stop-color="#656565"/></linearGradient><linearGradient><stop offset="0" stop-color="#4c4c4c"/><stop offset="1" stop-color="#656565"/></linearGradient><linearGradient><stop offset="0" stop-color="#4c4c4c"/><stop offset="1" stop-color="#656565"/></linearGradient><linearGradient><stop offset="0" stop-color="#4c4c4c"/><stop offset="1" stop-color="#656565"/></linearGradient><linearGradient><stop offset="0" stop-color="#4c4c4c"/><stop offset="1" stop-color="#656565"/></linearGradient><linearGradient><stop offset="0" stop-color="#4c4c4c"/><stop offset="1" stop-color="#656565"/></linearGradient><linearGradient><stop offset="0" stop-color="#4c4c4c"/><stop offset="1" stop-color="#656565"/></linearGradient><linearGradient><stop offset="0" stop-color="#4c4c4c"/><stop offset="1" stop-color="#656565"/></linearGradient><linearGradient><stop offset="0" stop-color="#4c4c4c"/><stop offset="1" stop-color="#656565"/></linearGradient><linearGradient><stop offset="0" stop-color="#4c4c4c"/><stop offset="1" stop-color="#656565"/></linearGradient><linearGradient><stop offset="0" stop-color="#4c4c4c"/><stop offset="1" stop-color="#656565"/></linearGradient><linearGradient><stop offset="0" stop-color="#4c4c4c"/><stop offset="1" stop-color="#656565"/></linearGradient><linearGradient><stop offset="0" stop-color="#4c4c4c"/><stop offset="1" stop-color="#656565"/></linearGradient><linearGradient><stop offset="0" stop-color="#4c4c4c"/><stop offset="1" stop-color="#656565"/></linearGradient><linearGradient><stop offset="0" stop-color="#4c4c4c"/><stop offset="1" stop-color="#656565"/></linearGradient><linearGradient><stop offset="0" stop-color="#4c4c4c"/><stop offset="1" stop-color="#656565"/></linearGradient><linearGradient><stop offset="0" stop-color="#4c4c4c"/><stop offset="1" stop-color="#656565"/></linearGradient><linearGradient><stop offset="0" stop-color="#4c4c4c"/><stop offset="1" stop-color="#656565"/></linearGradient><linearGradient><stop offset="0" stop-color="#4c4c4c"/><stop offset="1" stop-color="#656565"/></linearGradient><linearGradient><stop offset="0" stop-color="#4c4c4c"/><stop offset="1" stop-color="#656565"/></linearGradient><linearGradient><stop offset="0" stop-color="#4c4c4c"/><stop offset="1" stop-color="#656565"/></linearGradient><linearGradient><stop offset="0" stop-color="#4c4c4c"/><stop offset="1" stop-color="#656565"/></linearGradient><linearGradient><stop offset="0" stop-color="#4c4c4c"/><stop offset="1" stop-color="#656565"/></linearGradient><linearGradient><stop offset="0" stop-color="#4c4c4c"/><stop offset="1" stop-color="#656565"/></linearGradient><linearGradient><stop offset="0" stop-color="#4c4c4c"/><stop offset="1" stop-color="#656565"/></linearGradient><linearGradient><stop offset="0" stop-color="#4c4c4c"/><stop offset="1" stop-color="#656565"/></linearGradient><linearGradient><stop offset="0" stop-color="#4c4c4c"/><stop offset="1" stop-color="#656565"/></linearGradient><linearGradient><stop offset="0" stop-color="#4c4c4c"/><stop offset="1" stop-color="#656565"/></linearGradient><linearGradient><stop offset="0" stop-color="#4c4c4c"/><stop offset="1" stop-color="#656565"/></linearGradient><linearGradient><stop offset="0" stop-color="#4c4c4c"/><stop offset="1" stop-color="#656565"/></linearGradient><linearGradient><stop offset="0" stop-color="#4c4c4c"/><stop offset="1" stop-color="#656565"/></linearGradient><linearGradient><stop offset="0" stop-color="#4c4c4c"/><stop offset="1" stop-color="#656565"/></linearGradient><linearGradient><stop offset="0" stop-color="#4c4c4c"/><stop offset="1" stop-color="#656565"/></linearGradient><linearGradient><stop offset="0" stop-color="#4c4c4c"/><stop offset="1" stop-color="#656565"/></linearGradient><linearGradient><stop offset="0" stop-color="#4c4c4c"/><stop offset="1" stop-color="#656565"/></linearGradient><linearGradient><stop offset="0" stop-color="#4c4c4c"/><stop offset="1" stop-color="#656565"/></linearGradient><linearGradient><stop offset="0" stop-color="#4c4c4c"/><stop offset="1" stop-color="#656565"/></linearGradient><linearGradient><stop offset="0" stop-color="#4c4c4c"/><stop offset="1" stop-color="#656565"/></linearGradient><linearGradient><stop offset="0" stop-color="#4c4c4c"/><stop offset="1" stop-color="#656565"/></linearGradient><linearGradient><stop offset="0" stop-color="#4c4c4c"/><stop offset="1" stop-color="#656565"/></linearGradient><linearGradient><stop offset="0" stop-color="#4c4c4c"/><stop offset="1" stop-color="#656565"/></linearGradient><linearGradient><stop offset="0" stop-color="#4c4c4c"/><stop offset="1" stop-color="#656565"/></linearGradient><linearGradient><stop offset="0" stop-color="#4c4c4c"/><stop offset="1" stop-color="#656565"/></linearGradient><linearGradient><stop offset="0" stop-color="#4c4c4c"/><stop offset="1" stop-color="#656565"/></linearGradient><linearGradient><stop offset="0" stop-color="#4c4c4c"/><stop offset="1" stop-color="#656565"/></linearGradient><linearGradient><stop offset="0" stop-color="#4c4c4c"/><stop offset="1" stop-color="#656565"/></linearGradient><linearGradient><stop offset="0" stop-color="#4c4c4c"/><stop offset="1" stop-color="#656565"/></linearGradient><linearGradient><stop offset="0" stop-color="#4c4c4c"/><stop offset="1" stop-color="#656565"/></linearGradient><linearGradient><stop offset="0" stop-color="#4c4c4c"/><stop offset="1" stop-color="#656565"/></linearGradient><linearGradient><stop offset="0" stop-color="#4c4c4c"/><stop offset="1" stop-color="#656565"/></linearGradient><linearGradient><stop offset="0" stop-color="#4c4c4c"/><stop offset="1" stop-color="#656565"/></linearGradient><linearGradient><stop offset="0" stop-color="#4c4c4c"/><stop offset="1" stop-color="#656565"/></linearGradient><linearGradient><stop offset="0" stop-color="#4c4c4c"/><stop offset="1" stop-color="#656565"/></linearGradient><linearGradient><stop offset="0" stop-color="#4c4c4c"/><stop offset="1" stop-color="#656565"/></linearGradient><linearGradient><stop offset="0" stop-color="#4c4c4c"/><stop offset="1" stop-color="#656565"/></linearGradient><linearGradient><stop offset="0" stop-color="#4c4c4c"/><stop offset="1" stop-color="#656565"/></linearGradient><linearGradient><stop offset="0" stop-color="#4c4c4c"/><stop offset="1" stop-color="#656565"/></linearGradient><linearGradient><stop offset="0" stop-color="#4c4c4c"/><stop offset="1" stop-color="#656565"/></linearGradient><linearGradient><stop offset="0" stop-color="#4c4c4c"/><stop offset="1" stop-color="#656565"/></linearGradient><linearGradient><stop offset="0" stop-color="#4c4c4c"/><stop offset="1" stop-color="#656565"/></linearGradient><linearGradient><stop offset="0" stop-color="#4c4c4c"/><stop offset="1" stop-color="#656565"/></linearGradient><linearGradient><stop offset="0" stop-color="#4c4c4c"/><stop offset="1" stop-color="#656565"/></linearGradient><linearGradient><stop offset="0" stop-color="#4c4c4c"/><stop offset="1" stop-color="#656565"/></linearGradient><linearGradient><stop offset="0" stop-color="#4c4c4c"/><stop offset="1" stop-color="#656565"/></linearGradient><linearGradient><stop offset="0" stop-color="#4c4c4c"/><stop offset="1" stop-color="#656565"/></linearGradient><linearGradient><stop offset="0" stop-color="#4c4c4c"/><stop offset="1" stop-color="#656565"/></linearGradient><linearGradient><stop offset="0" stop-color="#4c4c4c"/><stop offset="1" stop-color="#656565"/></linearGradient><linearGradient><stop offset="0" stop-color="#4c4c4c"/><stop offset="1" stop-color="#656565"/></linearGradient><linearGradient><stop offset="0" stop-color="#4c4c4c"/><stop offset="1" stop-color="#656565"/></linearGradient><linearGradient><stop offset="0" stop-color="#4c4c4c"/><stop offset="1" stop-color="#656565"/></linearGradient><linearGradient><stop offset="0" stop-color="#4c4c4c"/><stop offset="1" stop-color="#656565"/></linearGradient><linearGradient><stop offset="0" stop-color="#4c4c4c"/><stop offset="1" stop-color="#656565"/></linearGradient><linearGradient><stop offset="0" stop-color="#4c4c4c"/><stop offset="1" stop-color="#656565"/></linearGradient><linearGradient><stop offset="0" stop-color="#4c4c4c"/><stop offset="1" stop-color="#656565"/></linearGradient><linearGradient><stop offset="0" stop-color="#4c4c4c"/><stop offset="1" stop-color="#656565"/></linearGradient><linearGradient><stop offset="0" stop-color="#4c4c4c"/><stop offset="1" stop-color="#656565"/></linearGradient><linearGradient><stop offset="0" stop-color="#4c4c4c"/><stop offset="1" stop-color="#656565"/></linearGradient><linearGradient><stop offset="0" stop-color="#4c4c4c"/><stop offset="1" stop-color="#656565"/></linearGradient><linearGradient><stop offset="0" stop-color="#4c4c4c"/><stop offset="1" stop-color="#656565"/></linearGradient><linearGradient><stop offset="0" stop-color="#4c4c4c"/><stop offset="1" stop-color="#656565"/></linearGradient><linearGradient><stop offset="0" stop-color="#4c4c4c"/><stop offset="1" stop-color="#656565"/></linearGradient><linearGradient><stop offset="0" stop-color="#4c4c4c"/><stop offset="1" stop-color="#656565"/></linearGradient><linearGradient><stop offset="0" stop-color="#4c4c4c"/><stop offset="1" stop-color="#656565"/></linearGradient><linearGradient><stop offset="0" stop-color="#4c4c4c"/><stop offset="1" stop-color="#656565"/></linearGradient><linearGradient><stop offset="0" stop-color="#4c4c4c"/><stop offset="1" stop-color="#656565"/></linearGradient><linearGradient><stop offset="0" stop-color="#4c4c4c"/><stop offset="1" stop-color="#656565"/></linearGradient><linearGradient><stop offset="0" stop-color="#4c4c4c"/><stop offset="1" stop-color="#656565"/></linearGradient><linearGradient><stop offset="0" stop-color="#4c4c4c"/><stop offset="1" stop-color="#656565"/></linearGradient><linearGradient><stop offset="0" stop-color="#4c4c4c"/><stop offset="1" stop-color="#656565"/></linearGradient><linearGradient><stop offset="0" stop-color="#4c4c4c"/><stop offset="1" stop-color="#656565"/></linearGradient><linearGradient><stop offset="0" stop-color="#4c4c4c"/><stop offset="1" stop-color="#656565"/></linearGradient><linearGradient><stop offset="0" stop-color="#4c4c4c"/><stop offset="1" stop-color="#656565"/></linearGradient><linearGradient><stop offset="0" stop-color="#4c4c4c"/><stop offset="1" stop-color="#656565"/></linearGradient><linearGradient><stop offset="0" stop-color="#4c4c4c"/><stop offset="1" stop-color="#656565"/></linearGradient><linearGradient><stop offset="0" stop-color="#4c4c4c"/><stop offset="1" stop-color="#656565"/></linearGradient><linearGradient><stop offset="0" stop-color="#4c4c4c"/><stop offset="1" stop-color="#656565"/></linearGradient><linearGradient><stop offset="0" stop-color="#4c4c4c"/><stop offset="1" stop-color="#656565"/></linearGradient><linearGradient><stop offset="0" stop-color="#4c4c4c"/><stop offset="1" stop-color="#656565"/></linearGradient><linearGradient><stop offset="0" stop-color="#4c4c4c"/><stop offset="1" stop-color="#656565"/></linearGradient><linearGradient><stop offset="0" stop-color="#4c4c4c"/><stop offset="1" stop-color="#656565"/></linearGradient><linearGradient><stop offset="0" stop-color="#4c4c4c"/><stop offset="1" stop-color="#656565"/></linearGradient><linearGradient><stop offset="0" stop-color="#4c4c4c"/><stop offset="1" stop-color="#656565"/></linearGradient><linearGradient><stop offset="0" stop-color="#4c4c4c"/><stop offset="1" stop-color="#656565"/></linearGradient><linearGradient><stop offset="0" stop-color="#4c4c4c"/><stop offset="1" stop-color="#656565"/></linearGradient><linearGradient><stop offset="0" stop-color="#4c4c4c"/><stop offset="1" stop-color="#656565"/></linearGradient><linearGradient><stop offset="0" stop-color="#4c4c4c"/><stop offset="1" stop-color="#656565"/></linearGradient><linearGradient><stop offset="0" stop-color="#4c4c4c"/><stop offset="1" stop-color="#656565"/></linearGradient><linearGradient><stop offset="0" stop-color="#4c4c4c"/><stop offset="1" stop-color="#656565"/></linearGradient><linearGradient><stop offset="0" stop-color="#4c4c4c"/><stop offset="1" stop-color="#656565"/></linearGradient><linearGradient><stop offset="0" stop-color="#4c4c4c"/><stop offset="1" stop-color="#656565"/></linearGradient><linearGradient><stop offset="0" stop-color="#4c4c4c"/><stop offset="1" stop-color="#656565"/></linearGradient><linearGradient><stop offset="0" stop-color="#4c4c4c"/><stop offset="1" stop-color="#656565"/></linearGradient><linearGradient><stop offset="0" stop-color="#4c4c4c"/><stop offset="1" stop-color="#656565"/></linearGradient><linearGradient><stop offset="0" stop-color="#4c4c4c"/><stop offset="1" stop-color="#656565"/></linearGradient><linearGradient><stop offset="0" stop-color="#4c4c4c"/><stop offset="1" stop-color="#656565"/></linearGradient><linearGradient><stop offset="0" stop-color="#4c4c4c"/><stop offset="1" stop-color="#656565"/></linearGradient><linearGradient><stop offset="0" stop-color="#4c4c4c"/><stop offset="1" stop-color="#656565"/></linearGradient><linearGradient><stop offset="0" stop-color="#4c4c4c"/><stop offset="1" stop-color="#656565"/></linearGradient><linearGradient><stop offset="0" stop-color="#4c4c4c"/><stop offset="1" stop-color="#656565"/></linearGradient><linearGradient><stop offset="0" stop-color="#4c4c4c"/><stop offset="1" stop-color="#656565"/></linearGradient><linearGradient><stop offset="0" stop-color="#4c4c4c"/><stop offset="1" stop-color="#656565"/></linearGradient><linearGradient><stop offset="0" stop-color="#4c4c4c"/><stop offset="1" stop-color="#656565"/></linearGradient><linearGradient><stop offset="0" stop-color="#4c4c4c"/><stop offset="1" stop-color="#656565"/></linearGradient><linearGradient><stop offset="0" stop-color="#4c4c4c"/><stop offset="1" stop-color="#656565"/></linearGradient><linearGradient><stop offset="0" stop-color="#4c4c4c"/><stop offset="1" stop-color="#656565"/></linearGradient><linearGradient><stop offset="0" stop-color="#4c4c4c"/><stop offset="1" stop-color="#656565"/></linearGradient><linearGradient><stop offset="0" stop-color="#4c4c4c"/><stop offset="1" stop-color="#656565"/></linearGradient><linearGradient><stop offset="0" stop-color="#4c4c4c"/><stop offset="1" stop-color="#656565"/></linearGradient><linearGradient><stop offset="0" stop-color="#4c4c4c"/><stop offset="1" stop-color="#656565"/></linearGradient><linearGradient><stop offset="0" stop-color="#4c4c4c"/><stop offset="1" stop-color="#656565"/></linearGradient><linearGradient><stop offset="0" stop-color="#4c4c4c"/><stop offset="1" stop-color="#656565"/></linearGradient><linearGradient><stop offset="0" stop-color="#4c4c4c"/><stop offset="1" stop-color="#656565"/></linearGradient><linearGradient><stop offset="0" stop-color="#4c4c4c"/><stop offset="1" stop-color="#656565"/></linearGradient><linearGradient><stop offset="0" stop-color="#4c4c4c"/><stop offset="1" stop-color="#656565"/></linearGradient><linearGradient id="a"><stop offset="0" stop-color="#4887d2"/><stop offset="1" stop-color="#71a2dc"/></linearGradient><linearGradient x1="1975.884" x2="3466.778" y1="-5656.661" y2="-6315.289" xlink:href="#a" gradientUnits="userSpaceOnUse"/><linearGradient x1="1975.884" x2="3466.778" y1="-5656.661" y2="-6315.289" xlink:href="#a" gradientUnits="userSpaceOnUse"/><linearGradient x1="1975.884" x2="3466.778" y1="-5656.661" y2="-6315.289" xlink:href="#a" gradientUnits="userSpaceOnUse" gradientTransform="translate(583.61 3916.609)"/><linearGradient x1="1975.884" x2="3466.778" y1="-5656.661" y2="-6315.289" xlink:href="#a" gradientUnits="userSpaceOnUse" gradientTransform="translate(137.304 1781.357)"/><linearGradient x1="1975.884" x2="3466.778" y1="-5656.661" y2="-6315.289" xlink:href="#a" gradientUnits="userSpaceOnUse" gradientTransform="translate(137.304 1781.357)"/><linearGradient x1="1975.884" x2="3466.778" y1="-5656.661" y2="-6315.289" xlink:href="#a" gradientUnits="userSpaceOnUse"/><linearGradient x1="1975.884" x2="3466.778" y1="-5656.661" y2="-6315.289" xlink:href="#a" gradientUnits="userSpaceOnUse"/><linearGradient x1="1975.884" x2="3466.778" y1="-5656.661" y2="-6315.289" xlink:href="#a" gradientUnits="userSpaceOnUse"/><linearGradient x1="1975.884" x2="3466.778" y1="-5656.661" y2="-6315.289" xlink:href="#a" gradientUnits="userSpaceOnUse" gradientTransform="translate(507.231 -1205.157)"/><linearGradient x1="1975.884" x2="3466.778" y1="-5656.661" y2="-6315.289" xlink:href="#a" gradientUnits="userSpaceOnUse" gradientTransform="translate(953.42 929.153)"/><linearGradient x1="1975.884" x2="3466.778" y1="-5656.661" y2="-6315.289" xlink:href="#a" gradientUnits="userSpaceOnUse" gradientTransform="translate(507.231 -1205.157)"/><marker orient="auto" overflow="visible"><path fill-rule="evenodd" stroke="#000" stroke-width=".8pt" d="M4.62 0L-2.3 4v-8z"/></marker><marker orient="auto" overflow="visible"><path fill-rule="evenodd" stroke="#000" stroke-width=".4pt" d="M2.3 0l-3.45 2v-4z"/></marker><marker orient="auto" overflow="visible"><path fill-rule="evenodd" stroke="#000" stroke-width=".4pt" d="M2.3 0l-3.45 2v-4z"/></marker><marker orient="auto" overflow="visible"><path fill-rule="evenodd" stroke="#000" stroke-width=".4pt" d="M2.3 0l-3.45 2v-4z"/></marker><marker orient="auto" overflow="visible"><path fill-rule="evenodd" stroke="#000" stroke-width=".4pt" d="M2.3 0l-3.45 2v-4z"/></marker><marker orient="auto" overflow="visible"><path fill-rule="evenodd" stroke="#000" stroke-width=".4pt" d="M2.3 0l-3.45 2v-4z"/></marker><marker orient="auto" overflow="visible"><path fill-rule="evenodd" stroke="#000" stroke-width=".4pt" d="M2.3 0l-3.45 2v-4z"/></marker><marker orient="auto" overflow="visible"><path fill-rule="evenodd" stroke="#000" stroke-width=".4pt" d="M2.3 0l-3.45 2v-4z"/></marker><marker orient="auto" overflow="visible"><path fill-rule="evenodd" stroke="#000" stroke-width=".4pt" d="M2.3 0l-3.45 2v-4z"/></marker><marker orient="auto" overflow="visible"><path fill-rule="evenodd" stroke="#000" stroke-width=".4pt" d="M2.3 0l-3.45 2v-4z"/></marker><marker orient="auto" overflow="visible"><path fill-rule="evenodd" stroke="#000" stroke-width=".4pt" d="M2.3 0l-3.45 2v-4z"/></marker><marker orient="auto" overflow="visible"><path fill-rule="evenodd" stroke="#000" stroke-width=".4pt" d="M2.3 0l-3.45 2v-4z"/></marker><marker orient="auto" overflow="visible"><path fill-rule="evenodd" stroke="#000" stroke-width=".4pt" d="M2.3 0l-3.45 2v-4z"/></marker><marker orient="auto" overflow="visible"><path fill-rule="evenodd" stroke="#000" stroke-width=".4pt" d="M2.3 0l-3.45 2v-4z"/></marker><marker orient="auto" overflow="visible"><path fill-rule="evenodd" stroke="#000" stroke-width=".8pt" d="M4.62 0L-2.3 4v-8z"/></marker><marker orient="auto" overflow="visible"><path fill-rule="evenodd" stroke="#000" stroke-width=".8pt" d="M4.62 0L-2.3 4v-8z"/></marker><marker orient="auto" overflow="visible"><path fill="#789440" fill-rule="evenodd" stroke="#789440" stroke-width=".8pt" d="M4.62 0L-2.3 4v-8z"/></marker><marker orient="auto" overflow="visible"><path fill="#789440" fill-rule="evenodd" stroke="#789440" stroke-width=".8pt" d="M4.62 0L-2.3 4v-8z"/></marker><marker orient="auto" overflow="visible"><path fill="#ffc000" fill-rule="evenodd" stroke="#ffc000" stroke-width=".8pt" d="M-4.62 0L2.3-4v8z"/></marker><marker orient="auto" overflow="visible"><path fill="#ffc000" fill-rule="evenodd" stroke="#ffc000" stroke-width=".4pt" d="M2.3 0l-3.45 2v-4z"/></marker><marker orient="auto" overflow="visible"><path fill-rule="evenodd" stroke="#000" stroke-width=".8pt" d="M4.62 0L-2.3 4v-8z"/></marker><marker orient="auto" overflow="visible"><path fill-rule="evenodd" stroke="#000" stroke-width=".375" d="M5.23 2.42L-1.32.02 5.23-2.4C4.18-.98 4.2.97 5.23 2.42z" stroke-linejoin="round"/></marker><marker orient="auto" overflow="visible"><path fill-rule="evenodd" stroke="#000" stroke-width=".375" d="M5.23 2.42L-1.32.02 5.23-2.4C4.18-.98 4.2.97 5.23 2.42z" stroke-linejoin="round"/></marker><marker orient="auto" overflow="visible"><path fill-rule="evenodd" stroke="#000" stroke-width=".375" d="M5.23 2.42L-1.32.02 5.23-2.4C4.18-.98 4.2.97 5.23 2.42z" stroke-linejoin="round"/></marker><marker orient="auto" overflow="visible"><path fill-rule="evenodd" stroke="#000" stroke-width=".375" d="M5.23 2.42L-1.32.02 5.23-2.4C4.18-.98 4.2.97 5.23 2.42z" stroke-linejoin="round"/></marker><marker orient="auto" overflow="visible"><path fill-rule="evenodd" stroke="#000" stroke-width=".375" d="M5.23 2.42L-1.32.02 5.23-2.4C4.18-.98 4.2.97 5.23 2.42z" stroke-linejoin="round"/></marker><marker orient="auto" overflow="visible"><path fill-rule="evenodd" stroke="#000" stroke-width=".375" d="M5.23 2.42L-1.32.02 5.23-2.4C4.18-.98 4.2.97 5.23 2.42z" stroke-linejoin="round"/></marker><marker orient="auto" overflow="visible"><path fill-rule="evenodd" stroke="#000" stroke-width=".375" d="M5.23 2.42L-1.32.02 5.23-2.4C4.18-.98 4.2.97 5.23 2.42z" stroke-linejoin="round"/></marker><marker orient="auto" overflow="visible"><path fill-rule="evenodd" stroke="#000" stroke-width=".375" d="M5.23 2.42L-1.32.02 5.23-2.4C4.18-.98 4.2.97 5.23 2.42z" stroke-linejoin="round"/></marker><marker orient="auto" overflow="visible"><path fill-rule="evenodd" stroke="#000" stroke-width=".375" d="M5.23 2.42L-1.32.02 5.23-2.4C4.18-.98 4.2.97 5.23 2.42z" stroke-linejoin="round"/></marker><marker orient="auto" overflow="visible"><path fill="#f00" fill-rule="evenodd" stroke="#f00" stroke-width=".375" d="M5.23 2.42L-1.32.02 5.23-2.4C4.18-.98 4.2.97 5.23 2.42z" stroke-linejoin="round"/></marker><marker orient="auto" overflow="visible"><path fill="#f00" fill-rule="evenodd" stroke="#f00" stroke-width=".375" d="M-5.23-2.42l6.55 2.4-6.55 2.42c1.05-1.42 1.04-3.37 0-4.82z" stroke-linejoin="round"/></marker><marker orient="auto" overflow="visible"><path fill="#f00" fill-rule="evenodd" stroke="#f00" stroke-width=".375" d="M5.23 2.42L-1.32.02 5.23-2.4C4.18-.98 4.2.97 5.23 2.42z" stroke-linejoin="round"/></marker><marker orient="auto" overflow="visible"><path fill="#f00" fill-rule="evenodd" stroke="#f00" stroke-width=".375" d="M-5.23-2.42l6.55 2.4-6.55 2.42c1.05-1.42 1.04-3.37 0-4.82z" stroke-linejoin="round"/></marker><marker orient="auto" overflow="visible"><path fill="#f00" fill-rule="evenodd" stroke="#f00" stroke-width=".375" d="M5.23 2.42L-1.32.02 5.23-2.4C4.18-.98 4.2.97 5.23 2.42z" stroke-linejoin="round"/></marker><marker orient="auto" overflow="visible"><path fill="#f00" fill-rule="evenodd" stroke="#f00" stroke-width=".375" d="M-5.23-2.42l6.55 2.4-6.55 2.42c1.05-1.42 1.04-3.37 0-4.82z" stroke-linejoin="round"/></marker><marker orient="auto" overflow="visible"><path fill="#f00" fill-rule="evenodd" stroke="#f00" stroke-width=".375" d="M5.23 2.42L-1.32.02 5.23-2.4C4.18-.98 4.2.97 5.23 2.42z" stroke-linejoin="round"/></marker><marker orient="auto" overflow="visible"><path fill="#f00" fill-rule="evenodd" stroke="#f00" stroke-width=".375" d="M5.23 2.42L-1.32.02 5.23-2.4C4.18-.98 4.2.97 5.23 2.42z" stroke-linejoin="round"/></marker><marker orient="auto" overflow="visible"><path fill="#f00" fill-rule="evenodd" stroke="#f00" stroke-width=".375" d="M5.23 2.42L-1.32.02 5.23-2.4C4.18-.98 4.2.97 5.23 2.42z" stroke-linejoin="round"/></marker><marker orient="auto" overflow="visible"><path fill="#f00" fill-rule="evenodd" stroke="#f00" stroke-width=".375" d="M5.23 2.42L-1.32.02 5.23-2.4C4.18-.98 4.2.97 5.23 2.42z" stroke-linejoin="round"/></marker><marker orient="auto" overflow="visible"><path fill="#f00" fill-rule="evenodd" stroke="#f00" stroke-width=".375" d="M-5.23-2.42l6.55 2.4-6.55 2.42c1.05-1.42 1.04-3.37 0-4.82z" stroke-linejoin="round"/></marker><marker orient="auto" overflow="visible"><path fill="#f00" fill-rule="evenodd" stroke="#f00" stroke-width=".375" d="M5.23 2.42L-1.32.02 5.23-2.4C4.18-.98 4.2.97 5.23 2.42z" stroke-linejoin="round"/></marker><marker orient="auto" overflow="visible"><path fill="#f00" fill-rule="evenodd" stroke="#f00" stroke-width=".375" d="M-5.23-2.42l6.55 2.4-6.55 2.42c1.05-1.42 1.04-3.37 0-4.82z" stroke-linejoin="round"/></marker><marker orient="auto" overflow="visible"><path fill="#f00" fill-rule="evenodd" stroke="#f00" stroke-width=".375" d="M5.23 2.42L-1.32.02 5.23-2.4C4.18-.98 4.2.97 5.23 2.42z" stroke-linejoin="round"/></marker><marker orient="auto" overflow="visible"><path fill="#f00" fill-rule="evenodd" stroke="#f00" stroke-width=".375" d="M-5.23-2.42l6.55 2.4-6.55 2.42c1.05-1.42 1.04-3.37 0-4.82z" stroke-linejoin="round"/></marker><marker orient="auto" overflow="visible"><path fill="#f00" fill-rule="evenodd" stroke="#f00" stroke-width=".375" d="M5.23 2.42L-1.32.02 5.23-2.4C4.18-.98 4.2.97 5.23 2.42z" stroke-linejoin="round"/></marker><marker orient="auto" overflow="visible"><path fill="#f00" fill-rule="evenodd" stroke="#f00" stroke-width=".375" d="M-5.23-2.42l6.55 2.4-6.55 2.42c1.05-1.42 1.04-3.37 0-4.82z" stroke-linejoin="round"/></marker><marker orient="auto" overflow="visible"><path fill="#f00" fill-rule="evenodd" stroke="#f00" stroke-width=".375" d="M5.23 2.42L-1.32.02 5.23-2.4C4.18-.98 4.2.97 5.23 2.42z" stroke-linejoin="round"/></marker><marker orient="auto" overflow="visible"><path fill="#f00" fill-rule="evenodd" stroke="#f00" stroke-width=".375" d="M5.23 2.42L-1.32.02 5.23-2.4C4.18-.98 4.2.97 5.23 2.42z" stroke-linejoin="round"/></marker><marker orient="auto" overflow="visible"><path fill="#f00" fill-rule="evenodd" stroke="#f00" stroke-width=".375" d="M5.23 2.42L-1.32.02 5.23-2.4C4.18-.98 4.2.97 5.23 2.42z" stroke-linejoin="round"/></marker><marker orient="auto" overflow="visible"><path fill="#f00" fill-rule="evenodd" stroke="#f00" stroke-width=".375" d="M5.23 2.42L-1.32.02 5.23-2.4C4.18-.98 4.2.97 5.23 2.42z" stroke-linejoin="round"/></marker><marker orient="auto" overflow="visible"><path fill="#f00" fill-rule="evenodd" stroke="#f00" stroke-width=".375" d="M5.23 2.42L-1.32.02 5.23-2.4C4.18-.98 4.2.97 5.23 2.42z" stroke-linejoin="round"/></marker><marker orient="auto" overflow="visible"><path fill="#f00" fill-rule="evenodd" stroke="#f00" stroke-width=".375" d="M-5.23-2.42l6.55 2.4-6.55 2.42c1.05-1.42 1.04-3.37 0-4.82z" stroke-linejoin="round"/></marker><marker orient="auto" overflow="visible"><path fill="#c83737" fill-rule="evenodd" stroke="#c83737" stroke-width=".8pt" d="M10 0l4-4L0 0l14 4z"/></marker><marker orient="auto" overflow="visible"><path fill="#c83737" fill-rule="evenodd" stroke="#c83737" stroke-width=".8pt" d="M10 0l4-4L0 0l14 4z"/></marker><marker orient="auto" overflow="visible"><path fill="#c83737" fill-rule="evenodd" stroke="#c83737" stroke-width=".8pt" d="M-10 0l-4 4L0 0l-14-4z"/></marker><marker orient="auto" overflow="visible"><path fill="#c83737" fill-rule="evenodd" stroke="#c83737" stroke-width=".8pt" d="M10 0l4-4L0 0l14 4z"/></marker><marker orient="auto" overflow="visible"><path fill="#c83737" fill-rule="evenodd" stroke="#c83737" stroke-width=".8pt" d="M-10 0l-4 4L0 0l-14-4z"/></marker><marker orient="auto" overflow="visible"><path fill="#c83737" fill-rule="evenodd" stroke="#c83737" stroke-width=".8pt" d="M10 0l4-4L0 0l14 4z"/></marker><marker orient="auto" overflow="visible"><path fill="#c83737" fill-rule="evenodd" stroke="#c83737" stroke-width=".8pt" d="M-10 0l-4 4L0 0l-14-4z"/></marker><marker orient="auto" overflow="visible"><path fill="#c83737" fill-rule="evenodd" stroke="#c83737" stroke-width=".8pt" d="M10 0l4-4L0 0l14 4z"/></marker><marker orient="auto" overflow="visible"><path fill="#c83737" fill-rule="evenodd" stroke="#c83737" stroke-width=".8pt" d="M-10 0l-4 4L0 0l-14-4z"/></marker><marker orient="auto" overflow="visible"><path fill="#c83737" fill-rule="evenodd" stroke="#c83737" stroke-width=".8pt" d="M10 0l4-4L0 0l14 4z"/></marker><marker orient="auto" overflow="visible"><path fill="#c83737" fill-rule="evenodd" stroke="#c83737" stroke-width=".8pt" d="M-10 0l-4 4L0 0l-14-4z"/></marker><marker orient="auto" overflow="visible"><path fill="#c83737" fill-rule="evenodd" stroke="#c83737" stroke-width=".8pt" d="M10 0l4-4L0 0l14 4z"/></marker><marker orient="auto" overflow="visible"><path fill="#c83737" fill-rule="evenodd" stroke="#c83737" stroke-width=".8pt" d="M-10 0l-4 4L0 0l-14-4z"/></marker><marker orient="auto" overflow="visible"><path fill="#c83737" fill-rule="evenodd" stroke="#c83737" stroke-width=".8pt" d="M10 0l4-4L0 0l14 4z"/></marker><marker orient="auto" overflow="visible"><path fill="#c83737" fill-rule="evenodd" stroke="#c83737" stroke-width=".8pt" d="M-10 0l-4 4L0 0l-14-4z"/></marker><marker orient="auto" overflow="visible"><path fill="#c83737" fill-rule="evenodd" stroke="#c83737" stroke-width=".8pt" d="M10 0l4-4L0 0l14 4z"/></marker><marker orient="auto" overflow="visible"><path fill="#c83737" fill-rule="evenodd" stroke="#c83737" stroke-width=".8pt" d="M-10 0l-4 4L0 0l-14-4z"/></marker><marker orient="auto" overflow="visible"><path fill="#c83737" fill-rule="evenodd" stroke="#c83737" stroke-width=".8pt" d="M10 0l4-4L0 0l14 4z"/></marker><marker orient="auto" overflow="visible"><path fill="#c83737" fill-rule="evenodd" stroke="#c83737" stroke-width=".8pt" d="M-10 0l-4 4L0 0l-14-4z"/></marker><marker orient="auto" overflow="visible"><path fill="#c83737" fill-rule="evenodd" stroke="#c83737" stroke-width=".8pt" d="M10 0l4-4L0 0l14 4z"/></marker><marker orient="auto" overflow="visible"><path fill="#c83737" fill-rule="evenodd" stroke="#c83737" stroke-width=".8pt" d="M-10 0l-4 4L0 0l-14-4z"/></marker><marker orient="auto" overflow="visible"><path fill="#c83737" fill-rule="evenodd" stroke="#c83737" stroke-width=".8pt" d="M10 0l4-4L0 0l14 4z"/></marker><marker orient="auto" overflow="visible"><path fill="#c83737" fill-rule="evenodd" stroke="#c83737" stroke-width=".8pt" d="M-10 0l-4 4L0 0l-14-4z"/></marker><marker orient="auto" overflow="visible"><path fill="#c83737" fill-rule="evenodd" stroke="#c83737" stroke-width=".8pt" d="M10 0l4-4L0 0l14 4z"/></marker><marker orient="auto" overflow="visible"><path fill="#c83737" fill-rule="evenodd" stroke="#c83737" stroke-width=".8pt" d="M-10 0l-4 4L0 0l-14-4z"/></marker><marker orient="auto" overflow="visible"><path fill="#c83737" fill-rule="evenodd" stroke="#c83737" stroke-width=".8pt" d="M10 0l4-4L0 0l14 4z"/></marker><marker orient="auto" overflow="visible"><path fill="#c83737" fill-rule="evenodd" stroke="#c83737" stroke-width=".8pt" d="M10 0l4-4L0 0l14 4z"/></marker><marker orient="auto" overflow="visible"><path fill="#c83737" fill-rule="evenodd" stroke="#c83737" stroke-width=".8pt" d="M-10 0l-4 4L0 0l-14-4z"/></marker><marker orient="auto" overflow="visible"><path fill="#c83737" fill-rule="evenodd" stroke="#c83737" stroke-width=".8pt" d="M10 0l4-4L0 0l14 4z"/></marker><marker orient="auto" overflow="visible"><path fill="#c83737" fill-rule="evenodd" stroke="#c83737" stroke-width=".8pt" d="M-10 0l-4 4L0 0l-14-4z"/></marker><marker orient="auto" overflow="visible"><path fill="#c83737" fill-rule="evenodd" stroke="#c83737" stroke-width=".8pt" d="M10 0l4-4L0 0l14 4z"/></marker><marker orient="auto" overflow="visible"><path fill="#c83737" fill-rule="evenodd" stroke="#c83737" stroke-width=".8pt" d="M-10 0l-4 4L0 0l-14-4z"/></marker><marker orient="auto" overflow="visible"><path fill="#c83737" fill-rule="evenodd" stroke="#c83737" stroke-width=".8pt" d="M10 0l4-4L0 0l14 4z"/></marker><marker orient="auto" overflow="visible"><path fill="#c83737" fill-rule="evenodd" stroke="#c83737" stroke-width=".8pt" d="M-10 0l-4 4L0 0l-14-4z"/></marker><marker id="c" orient="auto" overflow="visible"><path fill="#c83737" fill-rule="evenodd" stroke="#c83737" stroke-width=".8pt" d="M4.62 0L-2.3 4v-8z"/></marker><marker orient="auto" overflow="visible"><path fill="#c83737" fill-rule="evenodd" stroke="#c83737" stroke-width=".8pt" d="M10 0l4-4L0 0l14 4z"/></marker><marker orient="auto" overflow="visible"><path fill="#c83737" fill-rule="evenodd" stroke="#c83737" stroke-width=".8pt" d="M-10 0l-4 4L0 0l-14-4z"/></marker><marker orient="auto" overflow="visible"><path fill="#c83737" fill-rule="evenodd" stroke="#c83737" stroke-width=".8pt" d="M10 0l4-4L0 0l14 4z"/></marker><marker orient="auto" overflow="visible"><path fill="#c83737" fill-rule="evenodd" stroke="#c83737" stroke-width=".8pt" d="M-10 0l-4 4L0 0l-14-4z"/></marker><marker orient="auto" overflow="visible"><path fill="#c83737" fill-rule="evenodd" stroke="#c83737" stroke-width=".8pt" d="M10 0l4-4L0 0l14 4z"/></marker><marker orient="auto" overflow="visible"><path fill="#c83737" fill-rule="evenodd" stroke="#c83737" stroke-width=".8pt" d="M-10 0l-4 4L0 0l-14-4z"/></marker><marker orient="auto" overflow="visible"><path fill="#c83737" fill-rule="evenodd" stroke="#c83737" stroke-width=".8pt" d="M4.62 0L-2.3 4v-8z"/></marker><marker orient="auto" overflow="visible"><path fill="#c83737" fill-rule="evenodd" stroke="#c83737" stroke-width=".8pt" d="M4.62 0L-2.3 4v-8z"/></marker><marker orient="auto" overflow="visible"><path fill="#c83737" fill-rule="evenodd" stroke="#c83737" stroke-width=".8pt" d="M10 0l4-4L0 0l14 4z"/></marker><marker orient="auto" overflow="visible"><path fill="#c83737" fill-rule="evenodd" stroke="#c83737" stroke-width=".8pt" d="M-10 0l-4 4L0 0l-14-4z"/></marker><marker orient="auto" overflow="visible"><path fill="#c83737" fill-rule="evenodd" stroke="#c83737" stroke-width=".8pt" d="M10 0l4-4L0 0l14 4z"/></marker><marker orient="auto" overflow="visible"><path fill="#c83737" fill-rule="evenodd" stroke="#c83737" stroke-width=".8pt" d="M-10 0l-4 4L0 0l-14-4z"/></marker><marker orient="auto" overflow="visible"><path fill="#c83737" fill-rule="evenodd" stroke="#c83737" stroke-width=".8pt" d="M10 0l4-4L0 0l14 4z"/></marker><marker orient="auto" overflow="visible"><path fill="#c83737" fill-rule="evenodd" stroke="#c83737" stroke-width=".8pt" d="M-10 0l-4 4L0 0l-14-4z"/></marker><marker orient="auto" overflow="visible"><path fill="#c83737" fill-rule="evenodd" stroke="#c83737" stroke-width=".8pt" d="M10 0l4-4L0 0l14 4z"/></marker><marker orient="auto" overflow="visible"><path fill="#c83737" fill-rule="evenodd" stroke="#c83737" stroke-width=".8pt" d="M-10 0l-4 4L0 0l-14-4z"/></marker><marker orient="auto" overflow="visible"><path fill="#c83737" fill-rule="evenodd" stroke="#c83737" stroke-width=".8pt" d="M4.62 0L-2.3 4v-8z"/></marker><marker orient="auto" overflow="visible"><path fill="#c83737" fill-rule="evenodd" stroke="#c83737" stroke-width=".8pt" d="M4.62 0L-2.3 4v-8z"/></marker><marker orient="auto" overflow="visible"><path fill="#c83737" fill-rule="evenodd" stroke="#c83737" stroke-width=".8pt" d="M10 0l4-4L0 0l14 4z"/></marker><marker orient="auto" overflow="visible"><path fill="#c83737" fill-rule="evenodd" stroke="#c83737" stroke-width=".8pt" d="M-10 0l-4 4L0 0l-14-4z"/></marker><marker orient="auto" overflow="visible"><path fill="#c83737" fill-rule="evenodd" stroke="#c83737" stroke-width=".8pt" d="M10 0l4-4L0 0l14 4z"/></marker><marker orient="auto" overflow="visible"><path fill="#c83737" fill-rule="evenodd" stroke="#c83737" stroke-width=".8pt" d="M-10 0l-4 4L0 0l-14-4z"/></marker><marker orient="auto" overflow="visible"><path fill="#c83737" fill-rule="evenodd" stroke="#c83737" stroke-width=".8pt" d="M10 0l4-4L0 0l14 4z"/></marker><marker orient="auto" overflow="visible"><path fill="#c83737" fill-rule="evenodd" stroke="#c83737" stroke-width=".8pt" d="M-10 0l-4 4L0 0l-14-4z"/></marker><marker orient="auto" overflow="visible"><path fill="#c83737" fill-rule="evenodd" stroke="#c83737" stroke-width=".8pt" d="M10 0l4-4L0 0l14 4z"/></marker><marker orient="auto" overflow="visible"><path fill="#c83737" fill-rule="evenodd" stroke="#c83737" stroke-width=".8pt" d="M-10 0l-4 4L0 0l-14-4z"/></marker><marker orient="auto" overflow="visible"><path fill="#c83737" fill-rule="evenodd" stroke="#c83737" stroke-width=".8pt" d="M4.62 0L-2.3 4v-8z"/></marker><marker orient="auto" overflow="visible"><path fill="#c83737" fill-rule="evenodd" stroke="#c83737" stroke-width=".8pt" d="M4.62 0L-2.3 4v-8z"/></marker><marker orient="auto" overflow="visible"><path fill="#c83737" fill-rule="evenodd" stroke="#c83737" stroke-width=".8pt" d="M10 0l4-4L0 0l14 4z"/></marker><marker orient="auto" overflow="visible"><path fill="#c83737" fill-rule="evenodd" stroke="#c83737" stroke-width=".8pt" d="M-10 0l-4 4L0 0l-14-4z"/></marker><marker orient="auto" overflow="visible"><path fill="#c83737" fill-rule="evenodd" stroke="#c83737" stroke-width=".8pt" d="M10 0l4-4L0 0l14 4z"/></marker><marker orient="auto" overflow="visible"><path fill="#c83737" fill-rule="evenodd" stroke="#c83737" stroke-width=".8pt" d="M-10 0l-4 4L0 0l-14-4z"/></marker><marker orient="auto" overflow="visible"><path fill="#c83737" fill-rule="evenodd" stroke="#c83737" stroke-width=".8pt" d="M10 0l4-4L0 0l14 4z"/></marker><marker orient="auto" overflow="visible"><path fill="#c83737" fill-rule="evenodd" stroke="#c83737" stroke-width=".8pt" d="M-10 0l-4 4L0 0l-14-4z"/></marker><marker orient="auto" overflow="visible"><path fill="#c83737" fill-rule="evenodd" stroke="#c83737" stroke-width=".8pt" d="M4.62 0L-2.3 4v-8z"/></marker><marker orient="auto" overflow="visible"><path fill="#c83737" fill-rule="evenodd" stroke="#c83737" stroke-width=".8pt" d="M4.62 0L-2.3 4v-8z"/></marker><marker orient="auto" overflow="visible"><path fill="#c83737" fill-rule="evenodd" stroke="#c83737" stroke-width=".8pt" d="M4.62 0L-2.3 4v-8z"/></marker><marker orient="auto" overflow="visible"><path fill="#c83737" fill-rule="evenodd" stroke="#c83737" stroke-width=".8pt" d="M4.62 0L-2.3 4v-8z"/></marker><marker orient="auto" overflow="visible"><path fill="#c83737" fill-rule="evenodd" stroke="#c83737" stroke-width=".8pt" d="M10 0l4-4L0 0l14 4z"/></marker><marker orient="auto" overflow="visible"><path fill="#c83737" fill-rule="evenodd" stroke="#c83737" stroke-width=".8pt" d="M-10 0l-4 4L0 0l-14-4z"/></marker></defs><path fill="#fff" stroke="#999" stroke-width="2" d="M1 1h521v490.75H1z" stroke-linecap="round" stroke-linejoin="round"/><path fill="#b8cce4" fill-rule="evenodd" stroke="#366092" stroke-width="5" d="M3.5 112.88h85v267h-85zM435.5 112.88h85v267h-85zM111.5 112.88h301v267h-301z"/><path fill="none" stroke="#c83737" stroke-width="3" d="M3118 1300.74c22-66 88-110 132-110" marker-end="url(#b)" transform="translate(0 37.707) translate(-3079 -1192.319)"/><path fill="none" stroke="#c83737" stroke-width="3" d="M3564 1507.24c-22 66-88 110-132 110" marker-end="url(#c)" transform="translate(0 37.707) translate(-3079 -1192.319)"/><path fill="#fff" stroke="#999" stroke-width="2" d="M1 535.75h519v553.32H1z" stroke-linecap="round" stroke-linejoin="round"/><text x="1309.13" y="-3109.451" transform="matrix(0 1 -1 0 -3079 -1154.612)" style="line-height:125%;-inkscape-font-specification:'Concourse T4, Normal';font-variant-ligatures:normal;font-variant-caps:normal;font-variant-numeric:normal;font-feature-settings:normal;text-align:start" font-size="45.333" font-family="Concourse T4" letter-spacing="0" word-spacing="0"><tspan x="1309.13" y="-3109.451">Left Aside</tspan></text><text x="1297.752" y="-3545.826" transform="matrix(0 1 -1 0 -3079 -1154.612)" style="line-height:125%;-inkscape-font-specification:'Concourse T4, Normal';font-variant-ligatures:normal;font-variant-caps:normal;font-variant-numeric:normal;font-feature-settings:normal;text-align:start" font-size="45.333" font-family="Concourse T4" letter-spacing="0" word-spacing="0"><tspan x="1297.752" y="-3545.826">Right Aside</tspan></text><text x="3217.919" y="1416.4" style="line-height:125%;-inkscape-font-specification:'Concourse T4, Normal';font-variant-ligatures:normal;font-variant-caps:normal;font-variant-numeric:normal;font-feature-settings:normal;text-align:start" font-size="45.333" font-family="Concourse T4" letter-spacing="0" word-spacing="0" transform="translate(0 37.707) translate(-3079 -1192.319)"><tspan x="3217.919" y="1416.4">Main Content</tspan></text><path fill="#b8cce4" fill-rule="evenodd" stroke="#366092" stroke-width="5" d="M3.5 566.9h515v95H3.5zM3.5 698.9h515v227H3.5zM3.5 962.9h515v95H3.5z"/><text x="3243.59" y="1905.592" style="line-height:125%;-inkscape-font-specification:'Concourse T4, Normal';font-variant-ligatures:normal;font-variant-caps:normal;font-variant-numeric:normal;font-feature-settings:normal;text-align:start" font-size="45.333" font-family="Concourse T4" letter-spacing="0" word-spacing="0" transform="translate(-3074.448 -1275.634)"><tspan x="3243.59" y="1905.592">Left Aside</tspan></text><text x="3232.212" y="2297.218" style="line-height:125%;-inkscape-font-specification:'Concourse T4, Normal';font-variant-ligatures:normal;font-variant-caps:normal;font-variant-numeric:normal;font-feature-settings:normal;text-align:start" font-size="45.333" font-family="Concourse T4" letter-spacing="0" word-spacing="0" transform="translate(-3074.448 -1275.634)"><tspan x="3232.212" y="2297.218">Right Aside</tspan></text><text x="3212.367" y="2103.456" style="line-height:125%;-inkscape-font-specification:'Concourse T4, Normal';font-variant-ligatures:normal;font-variant-caps:normal;font-variant-numeric:normal;font-feature-settings:normal;text-align:start" font-size="45.333" font-family="Concourse T4" letter-spacing="0" word-spacing="0" transform="translate(-3074.448 -1275.634)"><tspan x="3212.367" y="2103.456">Main Content</tspan></text></svg>
