<svg xmlns="http://www.w3.org/2000/svg" width="1047.422" height="365.23" xmlns:xlink="http://www.w3.org/1999/xlink"><defs><marker orient="auto" overflow="visible"><path fill="#c83737" fill-rule="evenodd" stroke="#c83737" stroke-width=".2pt" d="M0 1.13v-2.26"/></marker><marker orient="auto" overflow="visible"><path fill="#c83737" fill-rule="evenodd" stroke="#c83737" stroke-width=".4pt" d="M-4 0l-2 2 7-2-7-2 2 2z"/></marker><marker orient="auto" overflow="visible"><path fill="#c83737" fill-rule="evenodd" stroke="#c83737" stroke-width=".2pt" d="M1.2 0l1-1-3.5 1 3.5 1-1-1z"/></marker><marker orient="auto" overflow="visible"><path fill="#c83737" fill-rule="evenodd" stroke="#c83737" stroke-width=".375" d="M5.23 2.42L-1.32.02 5.23-2.4C4.18-.98 4.2.97 5.23 2.42z" stroke-linejoin="round"/></marker><marker orient="auto" overflow="visible"><path fill="#c83737" fill-rule="evenodd" stroke="#c83737" stroke-width=".4pt" d="M-2.3 0l3.45-2v4L-2.3 0z"/></marker><marker orient="auto" overflow="visible"><path fill="#c83737" fill-rule="evenodd" stroke="#c83737" stroke-width=".2pt" d="M0 1.13v-2.26"/></marker><marker orient="auto" overflow="visible"><path fill="#c83737" fill-rule="evenodd" stroke="#c83737" stroke-width=".2pt" d="M0 1.13v-2.26"/></marker><marker orient="auto" overflow="visible"><path fill-rule="evenodd" stroke="#000" stroke-width=".8pt" d="M10 0l4-4L0 0l14 4-4-4z"/></marker><marker orient="auto" overflow="visible"><path fill="#c83737" fill-rule="evenodd" stroke="#c83737" stroke-width=".8pt" d="M10 0l4-4L0 0l14 4-4-4z"/></marker><marker orient="auto" overflow="visible"><path fill="#c83737" fill-rule="evenodd" stroke="#c83737" stroke-width=".8pt" d="M-10 0l-4 4L0 0l-14-4 4 4z"/></marker><marker orient="auto" overflow="visible"><path fill-rule="evenodd" stroke="#000" stroke-width=".8pt" d="M-10 0l-4 4L0 0l-14-4 4 4z"/></marker><marker orient="auto" overflow="visible"><path fill="#c83737" fill-rule="evenodd" stroke="#c83737" stroke-width=".4pt" d="M4 0l2-2-7 2 7 2-2-2z"/></marker><marker orient="auto" overflow="visible"><path fill-rule="evenodd" stroke="#000" stroke-width=".8pt" d="M-4.62 0L2.3-4v8l-6.92-4z"/></marker><marker orient="auto" overflow="visible"><path fill="#c83737" fill-rule="evenodd" stroke="#c83737" stroke-width=".8pt" d="M-4.62 0L2.3-4v8l-6.92-4z"/></marker><marker orient="auto" overflow="visible"><path fill-rule="evenodd" stroke="#000" stroke-width=".6875" d="M10.7 4.44L-1.34.02 10.7-4.4c-1.93 2.6-1.92 6.18 0 8.84z" stroke-linejoin="round"/></marker><marker orient="auto" overflow="visible"><path fill="#c83737" fill-rule="evenodd" stroke="#c83737" stroke-width=".4pt" d="M2.3 0l-3.45 2v-4L2.3 0z"/></marker><marker orient="auto" overflow="visible"><path fill-rule="evenodd" stroke="#000" stroke-width=".4pt" d="M2.3 0l-3.45 2v-4L2.3 0z"/></marker><marker orient="auto" overflow="visible"><path fill-rule="evenodd" stroke="#000" stroke-width=".4pt" d="M2.3 0l-3.45 2v-4L2.3 0z"/></marker><marker orient="auto" overflow="visible"><path fill-rule="evenodd" stroke="#000" stroke-width=".8pt" d="M4.62 0L-2.3 4v-8l6.92 4z"/></marker><marker orient="auto" overflow="visible"><path fill-rule="evenodd" stroke="#000" stroke-width=".375" d="M-5.23-2.42l6.55 2.4-6.55 2.42c1.05-1.42 1.04-3.37 0-4.82z" stroke-linejoin="round"/></marker><marker orient="auto" overflow="visible"><path fill-rule="evenodd" stroke="#000" stroke-width=".4pt" d="M2.3 0l-3.45 2v-4L2.3 0z"/></marker><marker orient="auto" overflow="visible"><path fill-rule="evenodd" stroke="#000" stroke-width=".8pt" d="M4.62 0L-2.3 4v-8l6.92 4z"/></marker><marker orient="auto" overflow="visible"><path fill-rule="evenodd" stroke="#000" stroke-width=".6875" d="M10.7 4.44L-1.34.02 10.7-4.4c-1.93 2.6-1.92 6.18 0 8.84z" stroke-linejoin="round"/></marker><marker orient="auto" overflow="visible"><path fill-rule="evenodd" stroke="#000" stroke-width=".6875" d="M-10.7-4.44L1.34-.02-10.7 4.4c1.93-2.6 1.92-6.18 0-8.84z" stroke-linejoin="round"/></marker><linearGradient><stop offset="0" stop-color="#4c4c4c"/><stop offset="1" stop-color="#656565"/></linearGradient><linearGradient><stop offset="0" stop-color="#4c4c4c"/><stop offset="1" stop-color="#656565"/></linearGradient><linearGradient><stop offset="0" stop-color="#4c4c4c"/><stop offset="1" stop-color="#656565"/></linearGradient><linearGradient><stop offset="0" stop-color="#4c4c4c"/><stop offset="1" stop-color="#656565"/></linearGradient><linearGradient><stop offset="0" stop-color="#4c4c4c"/><stop offset="1" stop-color="#656565"/></linearGradient><linearGradient><stop offset="0" stop-color="#4c4c4c"/><stop offset="1" stop-color="#656565"/></linearGradient><linearGradient><stop offset="0" stop-color="#4c4c4c"/><stop offset="1" stop-color="#656565"/></linearGradient><linearGradient><stop offset="0" stop-color="#4c4c4c"/><stop offset="1" stop-color="#656565"/></linearGradient><linearGradient><stop offset="0" stop-color="#4c4c4c"/><stop offset="1" stop-color="#656565"/></linearGradient><linearGradient><stop offset="0" stop-color="#4c4c4c"/><stop offset="1" stop-color="#656565"/></linearGradient><linearGradient><stop offset="0" stop-color="#4c4c4c"/><stop offset="1" stop-color="#656565"/></linearGradient><linearGradient><stop offset="0" stop-color="#4c4c4c"/><stop offset="1" stop-color="#656565"/></linearGradient><linearGradient><stop offset="0" stop-color="#4c4c4c"/><stop offset="1" stop-color="#656565"/></linearGradient><linearGradient><stop offset="0" stop-color="#4c4c4c"/><stop offset="1" stop-color="#656565"/></linearGradient><linearGradient><stop offset="0" stop-color="#4c4c4c"/><stop offset="1" stop-color="#656565"/></linearGradient><linearGradient><stop offset="0" stop-color="#4c4c4c"/><stop offset="1" stop-color="#656565"/></linearGradient><linearGradient><stop offset="0" stop-color="#4c4c4c"/><stop offset="1" stop-color="#656565"/></linearGradient><linearGradient><stop offset="0" stop-color="#4c4c4c"/><stop offset="1" stop-color="#656565"/></linearGradient><linearGradient><stop offset="0" stop-color="#4c4c4c"/><stop offset="1" stop-color="#656565"/></linearGradient><linearGradient><stop offset="0" stop-color="#4c4c4c"/><stop offset="1" stop-color="#656565"/></linearGradient><linearGradient><stop offset="0" stop-color="#4c4c4c"/><stop offset="1" stop-color="#656565"/></linearGradient><linearGradient><stop offset="0" stop-color="#4c4c4c"/><stop offset="1" stop-color="#656565"/></linearGradient><linearGradient><stop offset="0" stop-color="#4c4c4c"/><stop offset="1" stop-color="#656565"/></linearGradient><linearGradient><stop offset="0" stop-color="#4c4c4c"/><stop offset="1" stop-color="#656565"/></linearGradient><linearGradient><stop offset="0" stop-color="#4c4c4c"/><stop offset="1" stop-color="#656565"/></linearGradient><linearGradient><stop offset="0" stop-color="#4c4c4c"/><stop offset="1" stop-color="#656565"/></linearGradient><linearGradient><stop offset="0" stop-color="#4c4c4c"/><stop offset="1" stop-color="#656565"/></linearGradient><linearGradient><stop offset="0" stop-color="#4c4c4c"/><stop offset="1" stop-color="#656565"/></linearGradient><linearGradient><stop offset="0" stop-color="#4c4c4c"/><stop offset="1" stop-color="#656565"/></linearGradient><linearGradient><stop offset="0" stop-color="#4c4c4c"/><stop offset="1" stop-color="#656565"/></linearGradient><linearGradient><stop offset="0" stop-color="#4c4c4c"/><stop offset="1" stop-color="#656565"/></linearGradient><linearGradient><stop offset="0" stop-color="#4c4c4c"/><stop offset="1" stop-color="#656565"/></linearGradient><linearGradient><stop offset="0" stop-color="#4c4c4c"/><stop offset="1" stop-color="#656565"/></linearGradient><linearGradient><stop offset="0" stop-color="#4c4c4c"/><stop offset="1" stop-color="#656565"/></linearGradient><linearGradient><stop offset="0" stop-color="#4c4c4c"/><stop offset="1" stop-color="#656565"/></linearGradient><linearGradient><stop offset="0" stop-color="#4c4c4c"/><stop offset="1" stop-color="#656565"/></linearGradient><linearGradient><stop offset="0" stop-color="#4c4c4c"/><stop offset="1" stop-color="#656565"/></linearGradient><linearGradient><stop offset="0" stop-color="#4c4c4c"/><stop offset="1" stop-color="#656565"/></linearGradient><linearGradient><stop offset="0" stop-color="#4c4c4c"/><stop offset="1" stop-color="#656565"/></linearGradient><linearGradient><stop offset="0" stop-color="#4c4c4c"/><stop offset="1" stop-color="#656565"/></linearGradient><linearGradient><stop offset="0" stop-color="#4c4c4c"/><stop offset="1" stop-color="#656565"/></linearGradient><linearGradient><stop offset="0" stop-color="#4c4c4c"/><stop offset="1" stop-color="#656565"/></linearGradient><linearGradient><stop offset="0" stop-color="#4c4c4c"/><stop offset="1" stop-color="#656565"/></linearGradient><linearGradient><stop offset="0" stop-color="#4c4c4c"/><stop offset="1" stop-color="#656565"/></linearGradient><linearGradient><stop offset="0" stop-color="#4c4c4c"/><stop offset="1" stop-color="#656565"/></linearGradient><linearGradient><stop offset="0" stop-color="#4c4c4c"/><stop offset="1" stop-color="#656565"/></linearGradient><linearGradient><stop offset="0" stop-color="#4c4c4c"/><stop offset="1" stop-color="#656565"/></linearGradient><linearGradient><stop offset="0" stop-color="#4c4c4c"/><stop offset="1" stop-color="#656565"/></linearGradient><linearGradient><stop offset="0" stop-color="#4c4c4c"/><stop offset="1" stop-color="#656565"/></linearGradient><linearGradient><stop offset="0" stop-color="#4c4c4c"/><stop offset="1" stop-color="#656565"/></linearGradient><linearGradient><stop offset="0" stop-color="#4c4c4c"/><stop offset="1" stop-color="#656565"/></linearGradient><linearGradient><stop offset="0" stop-color="#4c4c4c"/><stop offset="1" stop-color="#656565"/></linearGradient><linearGradient><stop offset="0" stop-color="#4c4c4c"/><stop offset="1" stop-color="#656565"/></linearGradient><linearGradient><stop offset="0" stop-color="#4c4c4c"/><stop offset="1" stop-color="#656565"/></linearGradient><linearGradient><stop offset="0" stop-color="#4c4c4c"/><stop offset="1" stop-color="#656565"/></linearGradient><linearGradient><stop offset="0" stop-color="#4c4c4c"/><stop offset="1" stop-color="#656565"/></linearGradient><linearGradient><stop offset="0" stop-color="#4c4c4c"/><stop offset="1" stop-color="#656565"/></linearGradient><linearGradient><stop offset="0" stop-color="#4c4c4c"/><stop offset="1" stop-color="#656565"/></linearGradient><linearGradient><stop offset="0" stop-color="#4c4c4c"/><stop offset="1" stop-color="#656565"/></linearGradient><linearGradient><stop offset="0" stop-color="#4c4c4c"/><stop offset="1" stop-color="#656565"/></linearGradient><linearGradient><stop offset="0" stop-color="#4c4c4c"/><stop offset="1" stop-color="#656565"/></linearGradient><linearGradient><stop offset="0" stop-color="#4c4c4c"/><stop offset="1" stop-color="#656565"/></linearGradient><linearGradient><stop offset="0" stop-color="#4c4c4c"/><stop offset="1" stop-color="#656565"/></linearGradient><linearGradient><stop offset="0" stop-color="#4c4c4c"/><stop offset="1" stop-color="#656565"/></linearGradient><linearGradient><stop offset="0" stop-color="#4c4c4c"/><stop offset="1" stop-color="#656565"/></linearGradient><linearGradient><stop offset="0" stop-color="#4c4c4c"/><stop offset="1" stop-color="#656565"/></linearGradient><linearGradient><stop offset="0" stop-color="#4c4c4c"/><stop offset="1" stop-color="#656565"/></linearGradient><linearGradient><stop offset="0" stop-color="#4c4c4c"/><stop offset="1" stop-color="#656565"/></linearGradient><linearGradient><stop offset="0" stop-color="#4c4c4c"/><stop offset="1" stop-color="#656565"/></linearGradient><linearGradient><stop offset="0" stop-color="#4c4c4c"/><stop offset="1" stop-color="#656565"/></linearGradient><linearGradient><stop offset="0" stop-color="#4c4c4c"/><stop offset="1" stop-color="#656565"/></linearGradient><linearGradient><stop offset="0" stop-color="#4c4c4c"/><stop offset="1" stop-color="#656565"/></linearGradient><linearGradient><stop offset="0" stop-color="#4c4c4c"/><stop offset="1" stop-color="#656565"/></linearGradient><linearGradient><stop offset="0" stop-color="#4c4c4c"/><stop offset="1" stop-color="#656565"/></linearGradient><linearGradient><stop offset="0" stop-color="#4c4c4c"/><stop offset="1" stop-color="#656565"/></linearGradient><linearGradient><stop offset="0" stop-color="#4c4c4c"/><stop offset="1" stop-color="#656565"/></linearGradient><linearGradient><stop offset="0" stop-color="#4c4c4c"/><stop offset="1" stop-color="#656565"/></linearGradient><linearGradient><stop offset="0" stop-color="#4c4c4c"/><stop offset="1" stop-color="#656565"/></linearGradient><linearGradient><stop offset="0" stop-color="#4c4c4c"/><stop offset="1" stop-color="#656565"/></linearGradient><linearGradient><stop offset="0" stop-color="#4c4c4c"/><stop offset="1" stop-color="#656565"/></linearGradient><linearGradient><stop offset="0" stop-color="#4c4c4c"/><stop offset="1" stop-color="#656565"/></linearGradient><linearGradient><stop offset="0" stop-color="#4c4c4c"/><stop offset="1" stop-color="#656565"/></linearGradient><linearGradient><stop offset="0" stop-color="#4c4c4c"/><stop offset="1" stop-color="#656565"/></linearGradient><linearGradient><stop offset="0" stop-color="#4c4c4c"/><stop offset="1" stop-color="#656565"/></linearGradient><linearGradient><stop offset="0" stop-color="#4c4c4c"/><stop offset="1" stop-color="#656565"/></linearGradient><linearGradient><stop offset="0" stop-color="#4c4c4c"/><stop offset="1" stop-color="#656565"/></linearGradient><linearGradient><stop offset="0" stop-color="#4c4c4c"/><stop offset="1" stop-color="#656565"/></linearGradient><linearGradient><stop offset="0" stop-color="#4c4c4c"/><stop offset="1" stop-color="#656565"/></linearGradient><linearGradient><stop offset="0" stop-color="#4c4c4c"/><stop offset="1" stop-color="#656565"/></linearGradient><linearGradient><stop offset="0" stop-color="#4c4c4c"/><stop offset="1" stop-color="#656565"/></linearGradient><linearGradient><stop offset="0" stop-color="#4c4c4c"/><stop offset="1" stop-color="#656565"/></linearGradient><linearGradient><stop offset="0" stop-color="#4c4c4c"/><stop offset="1" stop-color="#656565"/></linearGradient><linearGradient><stop offset="0" stop-color="#4c4c4c"/><stop offset="1" stop-color="#656565"/></linearGradient><linearGradient><stop offset="0" stop-color="#4c4c4c"/><stop offset="1" stop-color="#656565"/></linearGradient><linearGradient><stop offset="0" stop-color="#4c4c4c"/><stop offset="1" stop-color="#656565"/></linearGradient><linearGradient><stop offset="0" stop-color="#4c4c4c"/><stop offset="1" stop-color="#656565"/></linearGradient><linearGradient><stop offset="0" stop-color="#4c4c4c"/><stop offset="1" stop-color="#656565"/></linearGradient><linearGradient><stop offset="0" stop-color="#4c4c4c"/><stop offset="1" stop-color="#656565"/></linearGradient><linearGradient><stop offset="0" stop-color="#4c4c4c"/><stop offset="1" stop-color="#656565"/></linearGradient><linearGradient><stop offset="0" stop-color="#4c4c4c"/><stop offset="1" stop-color="#656565"/></linearGradient><linearGradient><stop offset="0" stop-color="#4c4c4c"/><stop offset="1" stop-color="#656565"/></linearGradient><linearGradient><stop offset="0" stop-color="#4c4c4c"/><stop offset="1" stop-color="#656565"/></linearGradient><linearGradient><stop offset="0" stop-color="#4c4c4c"/><stop offset="1" stop-color="#656565"/></linearGradient><linearGradient><stop offset="0" stop-color="#4c4c4c"/><stop offset="1" stop-color="#656565"/></linearGradient><linearGradient><stop offset="0" stop-color="#4c4c4c"/><stop offset="1" stop-color="#656565"/></linearGradient><linearGradient><stop offset="0" stop-color="#4c4c4c"/><stop offset="1" stop-color="#656565"/></linearGradient><linearGradient><stop offset="0" stop-color="#4c4c4c"/><stop offset="1" stop-color="#656565"/></linearGradient><linearGradient><stop offset="0" stop-color="#4c4c4c"/><stop offset="1" stop-color="#656565"/></linearGradient><linearGradient><stop offset="0" stop-color="#4c4c4c"/><stop offset="1" stop-color="#656565"/></linearGradient><linearGradient><stop offset="0" stop-color="#4c4c4c"/><stop offset="1" stop-color="#656565"/></linearGradient><linearGradient><stop offset="0" stop-color="#4c4c4c"/><stop offset="1" stop-color="#656565"/></linearGradient><linearGradient><stop offset="0" stop-color="#4c4c4c"/><stop offset="1" stop-color="#656565"/></linearGradient><linearGradient><stop offset="0" stop-color="#4c4c4c"/><stop offset="1" stop-color="#656565"/></linearGradient><linearGradient><stop offset="0" stop-color="#4c4c4c"/><stop offset="1" stop-color="#656565"/></linearGradient><linearGradient><stop offset="0" stop-color="#4c4c4c"/><stop offset="1" stop-color="#656565"/></linearGradient><linearGradient><stop offset="0" stop-color="#4c4c4c"/><stop offset="1" stop-color="#656565"/></linearGradient><linearGradient><stop offset="0" stop-color="#4c4c4c"/><stop offset="1" stop-color="#656565"/></linearGradient><linearGradient><stop offset="0" stop-color="#4c4c4c"/><stop offset="1" stop-color="#656565"/></linearGradient><linearGradient><stop offset="0" stop-color="#4c4c4c"/><stop offset="1" stop-color="#656565"/></linearGradient><linearGradient><stop offset="0" stop-color="#4c4c4c"/><stop offset="1" stop-color="#656565"/></linearGradient><linearGradient><stop offset="0" stop-color="#4c4c4c"/><stop offset="1" stop-color="#656565"/></linearGradient><linearGradient><stop offset="0" stop-color="#4c4c4c"/><stop offset="1" stop-color="#656565"/></linearGradient><linearGradient><stop offset="0" stop-color="#4c4c4c"/><stop offset="1" stop-color="#656565"/></linearGradient><linearGradient><stop offset="0" stop-color="#4c4c4c"/><stop offset="1" stop-color="#656565"/></linearGradient><linearGradient><stop offset="0" stop-color="#4c4c4c"/><stop offset="1" stop-color="#656565"/></linearGradient><linearGradient><stop offset="0" stop-color="#4c4c4c"/><stop offset="1" stop-color="#656565"/></linearGradient><linearGradient><stop offset="0" stop-color="#4c4c4c"/><stop offset="1" stop-color="#656565"/></linearGradient><linearGradient><stop offset="0" stop-color="#4c4c4c"/><stop offset="1" stop-color="#656565"/></linearGradient><linearGradient><stop offset="0" stop-color="#4c4c4c"/><stop offset="1" stop-color="#656565"/></linearGradient><linearGradient><stop offset="0" stop-color="#4c4c4c"/><stop offset="1" stop-color="#656565"/></linearGradient><linearGradient><stop offset="0" stop-color="#4c4c4c"/><stop offset="1" stop-color="#656565"/></linearGradient><linearGradient><stop offset="0" stop-color="#4c4c4c"/><stop offset="1" stop-color="#656565"/></linearGradient><linearGradient><stop offset="0" stop-color="#4c4c4c"/><stop offset="1" stop-color="#656565"/></linearGradient><linearGradient><stop offset="0" stop-color="#4c4c4c"/><stop offset="1" stop-color="#656565"/></linearGradient><linearGradient><stop offset="0" stop-color="#4c4c4c"/><stop offset="1" stop-color="#656565"/></linearGradient><linearGradient><stop offset="0" stop-color="#4c4c4c"/><stop offset="1" stop-color="#656565"/></linearGradient><linearGradient><stop offset="0" stop-color="#4c4c4c"/><stop offset="1" stop-color="#656565"/></linearGradient><linearGradient><stop offset="0" stop-color="#4c4c4c"/><stop offset="1" stop-color="#656565"/></linearGradient><linearGradient><stop offset="0" stop-color="#4c4c4c"/><stop offset="1" stop-color="#656565"/></linearGradient><linearGradient><stop offset="0" stop-color="#4c4c4c"/><stop offset="1" stop-color="#656565"/></linearGradient><linearGradient><stop offset="0" stop-color="#4c4c4c"/><stop offset="1" stop-color="#656565"/></linearGradient><linearGradient><stop offset="0" stop-color="#4c4c4c"/><stop offset="1" stop-color="#656565"/></linearGradient><linearGradient><stop offset="0" stop-color="#4c4c4c"/><stop offset="1" stop-color="#656565"/></linearGradient><linearGradient><stop offset="0" stop-color="#4c4c4c"/><stop offset="1" stop-color="#656565"/></linearGradient><linearGradient><stop offset="0" stop-color="#4c4c4c"/><stop offset="1" stop-color="#656565"/></linearGradient><linearGradient><stop offset="0" stop-color="#4c4c4c"/><stop offset="1" stop-color="#656565"/></linearGradient><linearGradient><stop offset="0" stop-color="#4c4c4c"/><stop offset="1" stop-color="#656565"/></linearGradient><linearGradient><stop offset="0" stop-color="#4c4c4c"/><stop offset="1" stop-color="#656565"/></linearGradient><linearGradient><stop offset="0" stop-color="#4c4c4c"/><stop offset="1" stop-color="#656565"/></linearGradient><linearGradient><stop offset="0" stop-color="#4c4c4c"/><stop offset="1" stop-color="#656565"/></linearGradient><linearGradient><stop offset="0" stop-color="#4c4c4c"/><stop offset="1" stop-color="#656565"/></linearGradient><linearGradient><stop offset="0" stop-color="#4c4c4c"/><stop offset="1" stop-color="#656565"/></linearGradient><linearGradient><stop offset="0" stop-color="#4c4c4c"/><stop offset="1" stop-color="#656565"/></linearGradient><linearGradient><stop offset="0" stop-color="#4c4c4c"/><stop offset="1" stop-color="#656565"/></linearGradient><linearGradient><stop offset="0" stop-color="#4c4c4c"/><stop offset="1" stop-color="#656565"/></linearGradient><linearGradient><stop offset="0" stop-color="#4c4c4c"/><stop offset="1" stop-color="#656565"/></linearGradient><linearGradient><stop offset="0" stop-color="#4c4c4c"/><stop offset="1" stop-color="#656565"/></linearGradient><linearGradient><stop offset="0" stop-color="#4c4c4c"/><stop offset="1" stop-color="#656565"/></linearGradient><linearGradient><stop offset="0" stop-color="#4c4c4c"/><stop offset="1" stop-color="#656565"/></linearGradient><linearGradient><stop offset="0" stop-color="#4c4c4c"/><stop offset="1" stop-color="#656565"/></linearGradient><linearGradient><stop offset="0" stop-color="#4c4c4c"/><stop offset="1" stop-color="#656565"/></linearGradient><linearGradient><stop offset="0" stop-color="#4c4c4c"/><stop offset="1" stop-color="#656565"/></linearGradient><linearGradient><stop offset="0" stop-color="#4c4c4c"/><stop offset="1" stop-color="#656565"/></linearGradient><linearGradient><stop offset="0" stop-color="#4c4c4c"/><stop offset="1" stop-color="#656565"/></linearGradient><linearGradient><stop offset="0" stop-color="#4c4c4c"/><stop offset="1" stop-color="#656565"/></linearGradient><linearGradient><stop offset="0" stop-color="#4c4c4c"/><stop offset="1" stop-color="#656565"/></linearGradient><linearGradient><stop offset="0" stop-color="#4c4c4c"/><stop offset="1" stop-color="#656565"/></linearGradient><linearGradient><stop offset="0" stop-color="#4c4c4c"/><stop offset="1" stop-color="#656565"/></linearGradient><linearGradient><stop offset="0" stop-color="#4c4c4c"/><stop offset="1" stop-color="#656565"/></linearGradient><linearGradient><stop offset="0" stop-color="#4c4c4c"/><stop offset="1" stop-color="#656565"/></linearGradient><linearGradient><stop offset="0" stop-color="#4c4c4c"/><stop offset="1" stop-color="#656565"/></linearGradient><linearGradient><stop offset="0" stop-color="#4c4c4c"/><stop offset="1" stop-color="#656565"/></linearGradient><linearGradient><stop offset="0" stop-color="#4c4c4c"/><stop offset="1" stop-color="#656565"/></linearGradient><linearGradient><stop offset="0" stop-color="#4c4c4c"/><stop offset="1" stop-color="#656565"/></linearGradient><linearGradient><stop offset="0" stop-color="#4c4c4c"/><stop offset="1" stop-color="#656565"/></linearGradient><linearGradient id="a"><stop offset="0" stop-color="#4887d2"/><stop offset="1" stop-color="#71a2dc"/></linearGradient><linearGradient x1="1975.884" x2="3466.778" y1="-5656.661" y2="-6315.289" xlink:href="#a" gradientUnits="userSpaceOnUse"/><linearGradient x1="1975.884" x2="3466.778" y1="-5656.661" y2="-6315.289" xlink:href="#a" gradientUnits="userSpaceOnUse"/><linearGradient x1="1975.884" x2="3466.778" y1="-5656.661" y2="-6315.289" xlink:href="#a" gradientUnits="userSpaceOnUse" gradientTransform="translate(583.61 3916.609)"/><linearGradient x1="1975.884" x2="3466.778" y1="-5656.661" y2="-6315.289" xlink:href="#a" gradientUnits="userSpaceOnUse" gradientTransform="translate(137.304 1781.357)"/><linearGradient x1="1975.884" x2="3466.778" y1="-5656.661" y2="-6315.289" xlink:href="#a" gradientUnits="userSpaceOnUse" gradientTransform="translate(137.304 1781.357)"/><linearGradient x1="1975.884" x2="3466.778" y1="-5656.661" y2="-6315.289" xlink:href="#a" gradientUnits="userSpaceOnUse"/><linearGradient x1="1975.884" x2="3466.778" y1="-5656.661" y2="-6315.289" xlink:href="#a" gradientUnits="userSpaceOnUse"/><linearGradient x1="1975.884" x2="3466.778" y1="-5656.661" y2="-6315.289" xlink:href="#a" gradientUnits="userSpaceOnUse"/><linearGradient x1="1975.884" x2="3466.778" y1="-5656.661" y2="-6315.289" xlink:href="#a" gradientUnits="userSpaceOnUse" gradientTransform="translate(507.231 -1205.157)"/><linearGradient x1="1975.884" x2="3466.778" y1="-5656.661" y2="-6315.289" xlink:href="#a" gradientUnits="userSpaceOnUse" gradientTransform="translate(953.42 929.153)"/><linearGradient x1="1975.884" x2="3466.778" y1="-5656.661" y2="-6315.289" xlink:href="#a" gradientUnits="userSpaceOnUse" gradientTransform="translate(507.231 -1205.157)"/><marker orient="auto" overflow="visible"><path fill-rule="evenodd" stroke="#000" stroke-width=".8pt" d="M4.62 0L-2.3 4v-8l6.92 4z"/></marker><marker orient="auto" overflow="visible"><path fill-rule="evenodd" stroke="#000" stroke-width=".4pt" d="M2.3 0l-3.45 2v-4L2.3 0z"/></marker><marker orient="auto" overflow="visible"><path fill-rule="evenodd" stroke="#000" stroke-width=".4pt" d="M2.3 0l-3.45 2v-4L2.3 0z"/></marker><marker orient="auto" overflow="visible"><path fill-rule="evenodd" stroke="#000" stroke-width=".4pt" d="M2.3 0l-3.45 2v-4L2.3 0z"/></marker><marker orient="auto" overflow="visible"><path fill-rule="evenodd" stroke="#000" stroke-width=".4pt" d="M2.3 0l-3.45 2v-4L2.3 0z"/></marker><marker orient="auto" overflow="visible"><path fill-rule="evenodd" stroke="#000" stroke-width=".4pt" d="M2.3 0l-3.45 2v-4L2.3 0z"/></marker><marker orient="auto" overflow="visible"><path fill-rule="evenodd" stroke="#000" stroke-width=".4pt" d="M2.3 0l-3.45 2v-4L2.3 0z"/></marker><marker orient="auto" overflow="visible"><path fill-rule="evenodd" stroke="#000" stroke-width=".4pt" d="M2.3 0l-3.45 2v-4L2.3 0z"/></marker><marker orient="auto" overflow="visible"><path fill-rule="evenodd" stroke="#000" stroke-width=".4pt" d="M2.3 0l-3.45 2v-4L2.3 0z"/></marker><marker orient="auto" overflow="visible"><path fill-rule="evenodd" stroke="#000" stroke-width=".4pt" d="M2.3 0l-3.45 2v-4L2.3 0z"/></marker><marker orient="auto" overflow="visible"><path fill-rule="evenodd" stroke="#000" stroke-width=".4pt" d="M2.3 0l-3.45 2v-4L2.3 0z"/></marker><marker orient="auto" overflow="visible"><path fill-rule="evenodd" stroke="#000" stroke-width=".4pt" d="M2.3 0l-3.45 2v-4L2.3 0z"/></marker><marker orient="auto" overflow="visible"><path fill-rule="evenodd" stroke="#000" stroke-width=".4pt" d="M2.3 0l-3.45 2v-4L2.3 0z"/></marker><marker orient="auto" overflow="visible"><path fill-rule="evenodd" stroke="#000" stroke-width=".4pt" d="M2.3 0l-3.45 2v-4L2.3 0z"/></marker><marker orient="auto" overflow="visible"><path fill-rule="evenodd" stroke="#000" stroke-width=".8pt" d="M4.62 0L-2.3 4v-8l6.92 4z"/></marker><marker orient="auto" overflow="visible"><path fill-rule="evenodd" stroke="#000" stroke-width=".8pt" d="M4.62 0L-2.3 4v-8l6.92 4z"/></marker><marker orient="auto" overflow="visible"><path fill="#789440" fill-rule="evenodd" stroke="#789440" stroke-width=".8pt" d="M4.62 0L-2.3 4v-8l6.92 4z"/></marker><marker orient="auto" overflow="visible"><path fill="#789440" fill-rule="evenodd" stroke="#789440" stroke-width=".8pt" d="M4.62 0L-2.3 4v-8l6.92 4z"/></marker><marker orient="auto" overflow="visible"><path fill="#ffc000" fill-rule="evenodd" stroke="#ffc000" stroke-width=".8pt" d="M-4.62 0L2.3-4v8l-6.92-4z"/></marker><marker orient="auto" overflow="visible"><path fill="#ffc000" fill-rule="evenodd" stroke="#ffc000" stroke-width=".4pt" d="M2.3 0l-3.45 2v-4L2.3 0z"/></marker><marker orient="auto" overflow="visible"><path fill-rule="evenodd" stroke="#000" stroke-width=".8pt" d="M4.62 0L-2.3 4v-8l6.92 4z"/></marker><marker orient="auto" overflow="visible"><path fill="#c83737" fill-rule="evenodd" stroke="#c83737" stroke-width=".8pt" d="M10 0l4-4L0 0l14 4-4-4z"/></marker><marker orient="auto" overflow="visible"><path fill="#c83737" fill-rule="evenodd" stroke="#c83737" stroke-width=".8pt" d="M-10 0l-4 4L0 0l-14-4 4 4z"/></marker><marker orient="auto" overflow="visible"><path fill="#c83737" fill-rule="evenodd" stroke="#c83737" stroke-width=".8pt" d="M10 0l4-4L0 0l14 4-4-4z"/></marker><marker orient="auto" overflow="visible"><path fill="#c83737" fill-rule="evenodd" stroke="#c83737" stroke-width=".8pt" d="M-10 0l-4 4L0 0l-14-4 4 4z"/></marker><marker orient="auto" overflow="visible"><path fill="#c83737" fill-rule="evenodd" stroke="#c83737" stroke-width=".8pt" d="M10 0l4-4L0 0l14 4-4-4z"/></marker><marker orient="auto" overflow="visible"><path fill="#c83737" fill-rule="evenodd" stroke="#c83737" stroke-width=".8pt" d="M-10 0l-4 4L0 0l-14-4 4 4z"/></marker><marker orient="auto" overflow="visible"><path fill="#c83737" fill-rule="evenodd" stroke="#c83737" stroke-width=".8pt" d="M10 0l4-4L0 0l14 4-4-4z"/></marker><marker orient="auto" overflow="visible"><path fill="#c83737" fill-rule="evenodd" stroke="#c83737" stroke-width=".8pt" d="M-10 0l-4 4L0 0l-14-4 4 4z"/></marker><marker orient="auto" overflow="visible"><path fill="#c83737" fill-rule="evenodd" stroke="#c83737" stroke-width=".8pt" d="M10 0l4-4L0 0l14 4-4-4z"/></marker><marker orient="auto" overflow="visible"><path fill="#c83737" fill-rule="evenodd" stroke="#c83737" stroke-width=".8pt" d="M-10 0l-4 4L0 0l-14-4 4 4z"/></marker><marker orient="auto" overflow="visible"><path fill="#c83737" fill-rule="evenodd" stroke="#c83737" stroke-width=".8pt" d="M10 0l4-4L0 0l14 4-4-4z"/></marker><marker orient="auto" overflow="visible"><path fill="#c83737" fill-rule="evenodd" stroke="#c83737" stroke-width=".8pt" d="M-10 0l-4 4L0 0l-14-4 4 4z"/></marker><marker orient="auto" overflow="visible"><path fill="#c83737" fill-rule="evenodd" stroke="#c83737" stroke-width=".8pt" d="M10 0l4-4L0 0l14 4-4-4z"/></marker><marker orient="auto" overflow="visible"><path fill="#c83737" fill-rule="evenodd" stroke="#c83737" stroke-width=".8pt" d="M-10 0l-4 4L0 0l-14-4 4 4z"/></marker><marker orient="auto" overflow="visible"><path fill="#c83737" fill-rule="evenodd" stroke="#c83737" stroke-width=".8pt" d="M10 0l4-4L0 0l14 4-4-4z"/></marker><marker orient="auto" overflow="visible"><path fill="#c83737" fill-rule="evenodd" stroke="#c83737" stroke-width=".8pt" d="M-10 0l-4 4L0 0l-14-4 4 4z"/></marker><marker orient="auto" overflow="visible"><path fill="#c83737" fill-rule="evenodd" stroke="#c83737" stroke-width=".8pt" d="M10 0l4-4L0 0l14 4-4-4z"/></marker><marker orient="auto" overflow="visible"><path fill="#c83737" fill-rule="evenodd" stroke="#c83737" stroke-width=".8pt" d="M-10 0l-4 4L0 0l-14-4 4 4z"/></marker><marker orient="auto" overflow="visible"><path fill="#c83737" fill-rule="evenodd" stroke="#c83737" stroke-width=".8pt" d="M10 0l4-4L0 0l14 4-4-4z"/></marker><marker orient="auto" overflow="visible"><path fill="#c83737" fill-rule="evenodd" stroke="#c83737" stroke-width=".8pt" d="M-10 0l-4 4L0 0l-14-4 4 4z"/></marker><marker orient="auto" overflow="visible"><path fill="#c83737" fill-rule="evenodd" stroke="#c83737" stroke-width=".8pt" d="M10 0l4-4L0 0l14 4-4-4z"/></marker><marker orient="auto" overflow="visible"><path fill="#c83737" fill-rule="evenodd" stroke="#c83737" stroke-width=".8pt" d="M-10 0l-4 4L0 0l-14-4 4 4z"/></marker><marker orient="auto" overflow="visible"><path fill="#c83737" fill-rule="evenodd" stroke="#c83737" stroke-width=".8pt" d="M10 0l4-4L0 0l14 4-4-4z"/></marker><marker orient="auto" overflow="visible"><path fill="#c83737" fill-rule="evenodd" stroke="#c83737" stroke-width=".8pt" d="M-10 0l-4 4L0 0l-14-4 4 4z"/></marker><marker orient="auto" overflow="visible"><path fill="#c83737" fill-rule="evenodd" stroke="#c83737" stroke-width=".8pt" d="M10 0l4-4L0 0l14 4-4-4z"/></marker><marker orient="auto" overflow="visible"><path fill="#c83737" fill-rule="evenodd" stroke="#c83737" stroke-width=".8pt" d="M-10 0l-4 4L0 0l-14-4 4 4z"/></marker><marker orient="auto" overflow="visible"><path fill="#c83737" fill-rule="evenodd" stroke="#c83737" stroke-width=".8pt" d="M10 0l4-4L0 0l14 4-4-4z"/></marker><marker orient="auto" overflow="visible"><path fill="#c83737" fill-rule="evenodd" stroke="#c83737" stroke-width=".8pt" d="M-10 0l-4 4L0 0l-14-4 4 4z"/></marker><marker orient="auto" overflow="visible"><path fill="#c83737" fill-rule="evenodd" stroke="#c83737" stroke-width=".8pt" d="M10 0l4-4L0 0l14 4-4-4z"/></marker><marker orient="auto" overflow="visible"><path fill="#c83737" fill-rule="evenodd" stroke="#c83737" stroke-width=".8pt" d="M-10 0l-4 4L0 0l-14-4 4 4z"/></marker><marker orient="auto" overflow="visible"><path fill="#c83737" fill-rule="evenodd" stroke="#c83737" stroke-width=".8pt" d="M10 0l4-4L0 0l14 4-4-4z"/></marker><marker orient="auto" overflow="visible"><path fill="#c83737" fill-rule="evenodd" stroke="#c83737" stroke-width=".8pt" d="M-10 0l-4 4L0 0l-14-4 4 4z"/></marker><marker orient="auto" overflow="visible"><path fill="#c83737" fill-rule="evenodd" stroke="#c83737" stroke-width=".4pt" d="M-2.3 0l3.45-2v4L-2.3 0z"/></marker><marker orient="auto" overflow="visible"><path fill="#c83737" fill-rule="evenodd" stroke="#c83737" stroke-width=".4pt" d="M2.3 0l-3.45 2v-4L2.3 0z"/></marker><marker orient="auto" overflow="visible"><path fill="#c83737" fill-rule="evenodd" stroke="#c83737" stroke-width=".8pt" d="M10 0l4-4L0 0l14 4-4-4z"/></marker><marker orient="auto" overflow="visible"><path fill="#c83737" fill-rule="evenodd" stroke="#c83737" stroke-width=".8pt" d="M-10 0l-4 4L0 0l-14-4 4 4z"/></marker><marker orient="auto" overflow="visible"><path fill="#c83737" fill-rule="evenodd" stroke="#c83737" stroke-width=".8pt" d="M10 0l4-4L0 0l14 4-4-4z"/></marker><marker orient="auto" overflow="visible"><path fill="#c83737" fill-rule="evenodd" stroke="#c83737" stroke-width=".8pt" d="M-10 0l-4 4L0 0l-14-4 4 4z"/></marker><marker orient="auto" overflow="visible"><path fill="#c83737" fill-rule="evenodd" stroke="#c83737" stroke-width=".8pt" d="M10 0l4-4L0 0l14 4-4-4z"/></marker><marker orient="auto" overflow="visible"><path fill="#c83737" fill-rule="evenodd" stroke="#c83737" stroke-width=".8pt" d="M-10 0l-4 4L0 0l-14-4 4 4z"/></marker><marker orient="auto" overflow="visible"><path fill="#c83737" fill-rule="evenodd" stroke="#c83737" stroke-width=".8pt" d="M10 0l4-4L0 0l14 4-4-4z"/></marker><marker orient="auto" overflow="visible"><path fill="#c83737" fill-rule="evenodd" stroke="#c83737" stroke-width=".8pt" d="M-10 0l-4 4L0 0l-14-4 4 4z"/></marker><marker orient="auto" overflow="visible"><path fill="#c83737" fill-rule="evenodd" stroke="#c83737" stroke-width=".4pt" d="M-2.3 0l3.45-2v4L-2.3 0z"/></marker><marker orient="auto" overflow="visible"><path fill="#c83737" fill-rule="evenodd" stroke="#c83737" stroke-width=".4pt" d="M2.3 0l-3.45 2v-4L2.3 0z"/></marker><marker orient="auto" overflow="visible"><path fill="#c83737" fill-rule="evenodd" stroke="#c83737" stroke-width=".4pt" d="M-2.3 0l3.45-2v4L-2.3 0z"/></marker><marker orient="auto" overflow="visible"><path fill="#c83737" fill-rule="evenodd" stroke="#c83737" stroke-width=".4pt" d="M2.3 0l-3.45 2v-4L2.3 0z"/></marker><marker orient="auto" overflow="visible"><path fill="#c83737" fill-rule="evenodd" stroke="#c83737" stroke-width=".4pt" d="M-2.3 0l3.45-2v4L-2.3 0z"/></marker><marker orient="auto" overflow="visible"><path fill="#c83737" fill-rule="evenodd" stroke="#c83737" stroke-width=".4pt" d="M2.3 0l-3.45 2v-4L2.3 0z"/></marker><marker orient="auto" overflow="visible"><path fill="#c83737" fill-rule="evenodd" stroke="#c83737" stroke-width=".8pt" d="M10 0l4-4L0 0l14 4-4-4z"/></marker><marker orient="auto" overflow="visible"><path fill="#c83737" fill-rule="evenodd" stroke="#c83737" stroke-width=".8pt" d="M-10 0l-4 4L0 0l-14-4 4 4z"/></marker><marker orient="auto" overflow="visible"><path fill="#c83737" fill-rule="evenodd" stroke="#c83737" stroke-width=".8pt" d="M10 0l4-4L0 0l14 4-4-4z"/></marker><marker orient="auto" overflow="visible"><path fill="#c83737" fill-rule="evenodd" stroke="#c83737" stroke-width=".8pt" d="M-10 0l-4 4L0 0l-14-4 4 4z"/></marker><marker orient="auto" overflow="visible"><path fill="#c83737" fill-rule="evenodd" stroke="#c83737" stroke-width=".8pt" d="M10 0l4-4L0 0l14 4-4-4z"/></marker><marker orient="auto" overflow="visible"><path fill="#c83737" fill-rule="evenodd" stroke="#c83737" stroke-width=".8pt" d="M-10 0l-4 4L0 0l-14-4 4 4z"/></marker><marker orient="auto" overflow="visible"><path fill="#c83737" fill-rule="evenodd" stroke="#c83737" stroke-width=".4pt" d="M-2.3 0l3.45-2v4L-2.3 0z"/></marker><marker orient="auto" overflow="visible"><path fill="#c83737" fill-rule="evenodd" stroke="#c83737" stroke-width=".4pt" d="M2.3 0l-3.45 2v-4L2.3 0z"/></marker></defs><g><g><g><g fill="#ccc" style="line-height:125%;-inkscape-font-specification:'Gill Sans MT, Bold';text-align:start" font-weight="bold" font-size="500" font-family="Gill Sans MT" letter-spacing="0" word-spacing="0"><path d="M242.08 12.78l151.37 341.07h-91.3l-28.08-67.4h-152.6l-25.38 67.4H6L143.45 12.78h98.63zm6.84 214.1L194 94.33 143.93 226.9h104.98z"/><path d="M496.72 12.78v123.54q28.57-17.58 59.33-17.58 49.8 0 81.05 33.2 31.5 33.2 31.5 85.94 0 52.98-30.28 86.67-30.03 33.7-77.14 33.7-34.18 0-64.46-21.98v17.58h-72.5V12.78h72.5zm0 170.66v106.93q21.98 19.53 42.97 19.53 25.87 0 40.52-19.3 14.9-19.52 14.9-53.7 0-33.2-15.63-51.27-15.4-18.3-40.8-18.3-19.76 0-41.98 16.1z"/><path d="M1043.1 249.84v74.46q-63.96 33.94-134.02 33.94-90.82 0-144.78-50.05-53.7-50.3-53.7-123.8 0-73.47 56.63-124.74Q824.13 8.4 915.67 8.4q73 0 123.53 30.02v75.92q-62-34.9-117.43-34.9-54.44 0-89.1 29.3-34.43 29.04-34.43 74.2 0 45.42 33.93 74.96 34.18 29.54 87.4 29.54 26.37 0 50.8-6.84 24.4-7.08 72.74-30.76z"/></g><path fill="none" stroke="#000" stroke-width="2" d="M916.6 8.4c-8.55 24.1-17.32 48.7-26.3 73.83.07 0 .14-.02.22-.04 8.97-25.12 17.73-49.72 26.27-73.8-.07 0-.14 0-.2 0zm-10.37.15c-.25 0-.5 0-.76.02-9.28 25-18.82 50.68-28.55 76.84.3-.07.6-.16.9-.25 9.68-26.08 19.18-51.68 28.4-76.6zm20.4 0c-8.64 23.56-17.46 47.6-26.5 72.17.27-.03.55-.06.83-.1 9-24.52 17.8-48.54 26.4-72.03-.24-.02-.5-.03-.74-.04zm3.22.13c-8.4 23.35-16.98 47.23-25.77 71.6.07 0 .13 0 .2 0 8.8-24.38 17.37-48.24 25.76-71.6-.06 0-.12 0-.2 0zm-35.75.48c-.07 0-.13 0-.2 0C884.58 35.2 874.96 62 865.05 89.5c.08-.04.16-.07.23-.1 9.9-27.48 19.5-54.24 28.82-80.24zm47.95.25c-8.5 22.94-17.14 46.26-26 70.13.27 0 .54 0 .8-.02 8.85-23.83 17.48-47.13 25.95-70.03-.25-.02-.5-.04-.75-.06zm-52.6.14c-.27.02-.53.04-.8.06-9.83 26.8-20.08 54.66-30.48 82.9.32-.16.64-.3.96-.46 10.35-28.1 20.53-55.83 30.3-82.5zm61.65.74c-8.05 22.65-16.24 45.66-24.66 69.22.07 0 .14 0 .2 0 8.4-23.54 16.6-46.54 24.65-69.2-.08 0-.14 0-.2-.02zm-69.2.03c-.06.02-.13.02-.2.03-9.94 27.96-20.2 56.7-30.66 85.84.1-.04.17-.1.26-.15 10.44-29.1 20.68-57.8 30.6-85.7zm-12 1.7c-.27.04-.54.1-.8.13-11.72 31.4-23.74 63.66-36 96.46.38-.33.77-.65 1.16-.97C846.4 75.1 858.32 43.13 869.9 12zm95.97.34c-8.28 22.3-16.7 44.9-25.3 68.06.24.03.5.05.75.08 8.6-23.15 17-45.75 25.27-68.02-.25-.04-.5-.08-.73-.12zm-816.28.45c-18.16 49.3-37.54 101.83-57.08 154.48-23.95 64.5-47.8 128.23-69.8 186.57h.73c21.94-58.1 45.7-121.48 69.52-185.63 19.67-52.98 39.16-105.87 57.37-155.43h-.75zm4.93 0c-18.3 50.95-37.94 105.4-57.77 160.02-22.84 62.92-45.06 123.7-66.04 181.03h.18c21.1-57.6 43.43-118.68 66.4-181.97 19.7-54.28 39.23-108.4 57.42-159.1h-.2zm8.43 0c-18.9 50.96-39.1 105.4-59.45 160.05-23.23 62.4-46.33 124.08-67.74 181h.74c21.35-56.66 44.35-118 67.46-180.06 20.5-55 40.78-109.77 59.76-161h-.76zm10.07 0c-18.35 51.48-38.17 106.67-58.2 161.96-22.34 61.68-44.65 122.68-65.36 179.1h.18c20.82-56.68 43.26-118.02 65.73-180.04 19.9-54.95 39.6-109.8 57.84-161.03h-.2zm4.52 0c-18.86 51.33-38.9 105.86-59.27 160.95-22.92 62.05-45.72 123.4-66.85 180.1h.73c21.08-56.43 43.78-117.45 66.58-179.16 20.5-55.47 40.63-110.28 59.56-161.9h-.75zm5.67 0c-18.48 51.5-38.34 106.53-58.42 161.83-22.6 62.22-44.64 122.4-65.5 179.22h.2c20.82-56.7 43.3-118.1 65.84-180.16C145.3 118.73 165.04 64 183.4 12.8h-.18zm5.35 0c-17.47 47.8-35.9 98.1-54.54 148.65-24.5 66.47-48.9 132.16-71.38 192.4h.72c22.44-60 46.75-125.33 71.12-191.46 18.74-50.88 37.28-101.53 54.82-149.6h-.75zm2.85 0c-15.98 44.37-32.7 90.7-49.6 137.36-25.66 70.78-51.22 140.87-74.1 203.7h.18c23.23-63.72 48.3-132.5 74.46-204.64 16.8-46.34 33.38-92.32 49.25-136.43h-.18zm10.14 0c-16.43 44.47-33.62 90.92-51.02 137.7-26.28 70.68-52.5 140.66-76.16 203.35h.72c23.62-62.46 49.75-132.08 75.9-202.4 17.52-47.12 34.8-93.9 51.33-138.66h-.77zm8.18 0c-16.12 45.13-33.07 92.38-50.24 139.95-25.54 70.76-50.13 138.3-73 201.1h.17c22.98-63.05 47.7-130.92 73.38-202.04 17.05-47.23 33.87-94.14 49.9-139h-.2zm9.5 0c-17.1 46.28-35.13 95.06-53.33 144.06-25.4 68.35-50.7 135.98-73.65 197h.72c22.92-60.78 48.13-128.05 73.4-196.06 18.3-49.32 36.46-98.45 53.62-145h-.77zm7.52 0c-9.94 27.73-20.28 56.46-30.8 85.63l.1.25c10.55-29.25 20.92-58.05 30.9-85.9h-.2zm3.66 0c-10.6 28.87-21.66 58.94-32.9 89.44l.43 1c11.36-30.87 22.5-61.23 33.22-90.45h-.75zm5.9 0c-11.3 31.6-23.12 64.6-35.18 98.15l.1.27c12.1-33.63 23.95-66.73 35.27-98.43h-.18zm196.06 0c-2.57 6.9-5.3 14.23-7.9 21.28v2.07c2.9-7.8 5.82-15.7 8.66-23.36h-.76zm9.83 0c-5.72 16.1-11.75 32.95-17.72 49.66v.57c6.03-16.9 12.13-33.95 17.93-50.24h-.2zm9.62 0c-8.92 24.24-18.02 48.96-27.34 74.24v2.14c9.58-26 18.95-51.47 28.1-76.4h-.76zm5.55 0C446.7 42.5 435.7 73 424.47 104.06v.55c11.3-31.23 22.35-61.92 33.1-91.83h-.2zm6.08 0c-12.6 34.36-25.68 69.96-38.97 106.07v2.16c13.56-36.84 26.9-73.2 39.72-108.24h-.75zm4.06 0C453.68 51.36 439.18 91.6 424.5 132.3v.56c14.76-40.88 29.3-81.3 43.22-120.1h-.2zm11.5 0c-16.74 45.6-34.33 93.42-52.16 141.53-.8 2.14-1.57 4.24-2.36 6.37v2.17c.94-2.53 1.88-5.06 2.82-7.6 17.95-48.43 35.65-96.6 52.46-142.48H479zm2.9 0c-16.47 45.63-33.8 93.5-51.35 141.63-2.03 5.58-4.04 11.07-6.07 16.64v.55c2.2-6.07 4.4-12.05 6.62-18.13 17.42-47.83 34.63-95.35 51-140.7h-.2zm4.05 0c-17.22 46.98-35.46 96.67-53.85 146.52-2.55 6.9-5.08 13.7-7.62 20.6v2.16c2.7-7.3 5.37-14.5 8.07-21.82 18.5-50.17 36.87-100.22 54.15-147.47h-.75zm4.48 0c-17.57 48.98-36.33 101.1-55.2 153.28-3.6 9.95-7.16 19.77-10.75 29.7v.56c3.77-10.43 7.52-20.74 11.3-31.2C454.52 113.3 473.16 61.5 490.62 12.8h-.2zm485.03 1.33c-7.87 22.17-15.87 44.65-24.1 67.7.07 0 .14 0 .2.02 8.22-23.03 16.2-45.5 24.08-67.68-.06-.02-.12-.03-.18-.04zM851.7 15.7c-.06.03-.13.05-.2.07-15.1 42.65-30.85 86.9-46.83 131.54-17.96 50.2-35.96 100.23-53 147.6.04.05.08.1.13.15 16.37-45.45 33.63-93.43 50.9-141.65.85-2.8 1.84-5.56 2.95-8.25 15.72-43.93 31.2-87.44 46.06-129.44zm137.16 1.63c-8.08 21.9-16.3 44.15-24.72 66.93.24.06.5.1.73.17 8.42-22.78 16.62-45.02 24.68-66.9-.23-.08-.46-.14-.7-.2zm4.92 1.38c-7.84 21.9-15.8 44.14-24 66.9.07.03.13.04.2.06 8.18-22.77 16.14-45 23.97-66.9-.05 0-.1-.03-.17-.05zm-154.3.42c-.28.08-.57.17-.86.26-16.76 45.14-34.23 92.15-51.9 139.55-15.48 41.45-30.85 82.43-45.86 122.37.17.24.34.47.5.7 15.02-39.87 30.36-80.76 45.8-122.13C805 112.07 822.62 64.6 839.5 19.12zm167.18 3.82c-8.06 21.68-16.22 43.62-24.6 66.13.24.07.47.14.7.22 8.4-22.5 16.53-44.45 24.57-66.1-.22-.1-.45-.18-.67-.26zm-759.77.1C234.4 57 221.4 92.2 208.16 127.9l.44 1.05c13.26-35.8 26.2-70.93 38.7-105l-.4-.94zm579.3.68c-.06.03-.13.06-.2.1-17.18 47.64-35.4 98.05-53.75 148.6-12.36 34.07-24.63 67.76-36.72 100.94.04.06.08.13.12.2 12.23-33.54 24.64-67.62 37.14-102.07 18.24-50.27 36.33-100.36 53.4-147.78zm-2.5.98c-.3.12-.6.25-.9.37C806.5 69.47 789.36 116 772 162.8c-13.25 35.73-26.44 71.03-39.42 105.7.16.26.33.54.5.82 12.93-34.5 26.18-70 39.37-105.57C790 116.5 807.28 69.5 823.7 24.7zm191.84 1.7c-7.72 21.65-15.55 43.53-23.6 65.97.05.03.1.05.17.07 8.07-22.45 15.88-44.3 23.6-65.96-.05-.02-.1-.04-.16-.07zm-766.5 1.44C236.6 62.4 223.78 98 210.73 134.12l.1.26c13.06-36.13 25.88-71.72 38.3-106.3l-.1-.24zm771.5.74c-7.93 21.56-15.9 43.24-24.1 65.46.24.08.47.17.7.26 8.18-22.2 16.15-43.87 24.05-65.42-.23-.1-.45-.2-.67-.3zm-523.55.37c-16.15 43.6-32.95 88.92-49.98 134.64-7.53 20.2-15.05 40.28-22.54 60.3v2.13c7.64-20.4 15.3-40.9 23-61.5C464.37 119.2 481 74.27 496.97 31v-2.05zm528.95 2.18c-7.72 21.5-15.5 43.15-23.5 65.26.07.02.13.04.2.06 7.96-22.1 15.75-43.74 23.47-65.25-.06-.02-.1-.05-.17-.07zM807 32.33c-.07.04-.15.08-.23.13-14.16 39.95-28.8 81.05-43.68 122.62-12.33 34.37-24.56 68.37-36.62 101.83.04.1.08.17.12.25 12.2-33.83 24.57-68.23 37.03-103 14.8-41.3 29.3-82.1 43.38-121.82zm225.48 2.14c-7.86 21.24-15.77 42.6-23.88 64.5.23.1.45.2.68.3 8.1-21.88 16-43.24 23.84-64.45-.2-.12-.43-.23-.64-.35zm-240.9 6.8c-.34.2-.7.42-1.03.64-13.34 35.8-26.96 72.28-40.8 109.2-10.6 28.28-21.17 56.43-31.63 84.2.12.38.23.77.35 1.16 10.5-27.84 21.12-56.07 31.74-84.42 14.06-37.48 27.87-74.5 41.38-110.78zm247.9.12c-7.26 20.3-14.54 40.67-22.03 61.56.05.03.1.05.17.08 7.43-20.72 14.66-40.94 21.85-61.1v-.55zm-783.44 2.23c-12.82 34.56-25.88 69.72-39.16 105.3l.42 1.03c13.3-35.6 26.35-70.8 39.16-105.37l-.42-.97zM497 51.33c-13.1 36.55-26.5 73.88-40.16 111.65-10.85 30.04-21.67 59.9-32.36 89.33v.55c10.87-29.92 21.87-60.25 32.9-90.8 13.46-37.27 26.68-74.08 39.6-110.17v-.56zm-235.32 5c-10.52 29.4-21.2 59.18-32.02 89.17-2.2 6.13-4.4 12.18-6.62 18.3l.1.27c2.37-6.53 4.7-12.97 7.06-19.5 10.67-29.6 21.2-58.98 31.6-87.98l-.12-.26zm508.5.97c-.1.1-.2.18-.3.26-10.75 30.12-21.66 60.66-32.7 91.43-7.97 22.16-15.9 44.22-23.8 66.13 0 .13.03.27.05.4 8.06-22.35 16.16-44.87 24.28-67.48 10.97-30.53 21.8-60.85 32.48-90.75zM266.2 66.55c-10.87 29.43-21.9 59.26-33.07 89.34-2.1 5.68-4.2 11.3-6.33 17l.43 1c2.12-5.7 4.23-11.35 6.36-17.07 11.15-30.07 22.17-59.9 33.03-89.32l-.42-.95zm489.97 4.2c-.44.47-.88.93-1.3 1.4-10.57 28.46-21.3 57.34-32.12 86.33-3.94 10.58-7.86 21.02-11.8 31.57 0 .65.04 1.3.06 1.96 4.1-10.9 8.14-21.66 12.2-32.58 11.12-29.8 22.13-59.43 32.97-88.66zm283.3.78c-4.4 11.86-8.8 23.7-13.26 35.72.23.12.45.23.68.34 4.24-11.44 8.4-22.68 12.6-33.95v-2.12zm-768.8 5.08c-10.82 30.17-21.8 60.74-32.93 91.55-2 5.57-4 11.06-6 16.62l.1.27c2.15-5.97 4.3-11.85 6.44-17.82 10.98-30.4 21.83-60.6 32.5-90.36l-.1-.25zm226.32.9c-10.4 28-20.94 56.4-31.55 84.93-13.8 37.07-27.5 73.72-40.97 109.65v2.07c13.6-36.3 27.47-73.32 41.42-110.78 10.47-28.1 20.86-56.12 31.1-83.73V77.5zM276.62 90.04c-9.32 25.06-18.78 50.46-28.28 75.9-3.87 10.38-7.72 20.62-11.6 30.98l.43 1.03c3.88-10.4 7.74-20.66 11.63-31.07 9.5-25.42 18.95-50.8 28.26-75.86l-.43-.97zm762.84 6.4c-1.78 4.94-3.6 9.98-5.4 14.95.05.03.1.06.17.1 1.73-4.82 3.5-9.7 5.23-14.5v-.55zm-756.36 8.2c-7.25 20.22-14.54 40.52-21.9 60.94-5.84 16.15-11.64 32.14-17.46 48.2l.1.26c5.97-16.45 11.92-32.85 17.9-49.4 7.22-20.02 14.36-39.9 21.48-59.75l-.1-.25zM497 106.3c-6.84 19.1-13.68 38.2-20.6 57.45-17.6 49-35.18 97.74-51.92 144.1v.54c16.9-46.8 34.7-96.08 52.47-145.6 6.73-18.73 13.38-37.34 20.04-55.93v-.57zm542.47 1.9c-.63 1.7-1.26 3.4-1.9 5.1.23.12.45.25.67.37.4-1.1.82-2.2 1.23-3.32v-2.15zm-312.2 3.54c-.25.5-.5 1.02-.75 1.54-3.64 10.2-7.3 20.4-10.96 30.67-.14.57-.28 1.14-.4 1.7 4.05-11.34 8.1-22.64 12.12-33.9zm-440.48 1.18c-6.87 18.6-13.72 37.18-20.66 55.9-6.47 17.5-12.92 34.86-19.38 52.24l.42 1c6.47-17.4 12.93-34.76 19.42-52.3 6.93-18.7 13.78-37.3 20.62-55.86l-.43-.98zm267.3 5.86c-.07 0-.14 0-.2 0-4.9 13.58-9.74 27.06-14.65 40.7-.96 2.65-1.9 5.26-2.86 7.9.06 0 .13 0 .2 0 1.06-2.96 2.12-5.88 3.2-8.84 4.8-13.33 9.52-26.5 14.3-39.76zm-5.04.22c-.27 0-.55.03-.82.05-4.9 13.25-9.74 26.4-14.67 39.7-1.16 3.14-2.32 6.24-3.5 9.4.3-.06.58-.12.86-.16 1.04-2.8 2.06-5.54 3.1-8.32 5.05-13.64 10-27.1 15.03-40.68zm18.43.2c-4.32 11.58-8.57 23.06-12.9 34.68-1.78 4.8-3.55 9.5-5.34 14.28.26.05.5.1.77.14 1.67-4.5 3.35-8.98 5.03-13.48 4.44-11.92 8.8-23.7 13.2-35.57-.25-.03-.5-.04-.77-.06zm-466.84.43l-1.93 4.78c-4.72 13.1-9.4 26.08-14.14 39.22-23.8 65.8-47.46 130.83-69.08 190.23h.2C37.6 293.7 60.94 229.57 85.1 162.7c5.23-14.44 10.36-28.7 15.54-43.07zm473.94.32c-3.65 10.1-7.24 20.1-10.9 30.2-2.4 6.62-4.76 13.13-7.16 19.73.06.02.13.04.2.06 2.5-6.93 5-13.78 7.5-20.72 3.55-9.8 7.03-19.46 10.56-29.24-.07 0-.13-.02-.2-.03zm-35.94.3c-.07 0-.15 0-.22.02-4.77 13.22-9.5 26.33-14.3 39.6-1.34 3.66-2.65 7.26-3.98 10.92.08-.04.16-.07.23-.1 1.42-3.94 2.84-7.82 4.27-11.77 4.7-12.97 9.32-25.78 14-38.7zm-248.5.27c-6.4 17.78-12.8 35.55-19.26 53.46-13.74 38.06-27.37 75.67-40.7 112.5h.2c13.44-37.13 27.18-75.05 41.04-113.44 6.32-17.5 12.57-34.88 18.83-52.27l-.1-.25zm244.8.4c-.3.07-.58.12-.86.2-5.06 13.73-10.06 27.37-15.15 41.18-1.3 3.53-2.58 7-3.9 10.53.33-.14.65-.3.97-.43 1.13-3.07 2.26-6.1 3.4-9.17 5.2-14.17 10.35-28.2 15.53-42.3zm46.78.23c-3.45 9.3-6.85 18.5-10.3 27.8-2.9 7.84-5.8 15.56-8.7 23.38.23.1.45.22.68.33 2.83-7.62 5.64-15.13 8.47-22.76 3.55-9.58 7.04-19.04 10.58-28.6-.24-.06-.5-.1-.74-.15zm-51.9.95c-.07.02-.14.04-.22.06-5.3 14.77-10.65 29.6-16 44.44-1.02 2.8-2.03 5.58-3.04 8.37.08-.04.17-.08.25-.12 1.1-3.07 2.2-6.12 3.32-9.2 5.26-14.54 10.5-29.07 15.7-43.55zm60.26 1.05c-3.2 8.86-6.35 17.6-9.57 26.5-3.32 9.16-6.63 18.2-9.95 27.36.05.04.1.08.15.12 3.46-9.5 6.9-18.9 10.34-28.42 3.1-8.54 6.13-16.97 9.22-25.5-.07-.02-.14-.03-.2-.05zm3.1.92c-2.63 7.14-5.23 14.18-7.88 21.33-4.15 11.2-8.27 22.26-12.4 33.43.2.17.4.32.6.5 4.1-11.03 8.16-21.94 12.25-33 2.74-7.38 5.43-14.66 8.16-22.04-.24-.08-.48-.15-.72-.23zm-77.7 2.8c-.3.13-.62.26-.94.4-3.5 9.43-6.8 18.32-10.32 27.78-25.7 69.08-51.3 137.5-74.3 198.8h.7c23-61.07 48.47-129.13 74.06-197.87 3.63-9.75 7.2-19.38 10.8-29.1zm88.3 1.16c-1.8 5-3.6 10-5.42 15-5.48 15.2-10.95 30.23-16.43 45.34.05.07.1.14.15.2 5.6-15.44 11.22-30.94 16.83-46.47 1.7-4.67 3.36-9.33 5.04-14-.05-.02-.1-.04-.17-.07zm3.17 1.46c-2.15 5.8-4.26 11.52-6.4 17.32-5.53 14.93-11.02 29.7-16.52 44.55.17.26.33.52.5.8 5.5-14.8 10.96-29.53 16.47-44.4 2.22-6.02 4.4-11.94 6.62-17.95-.22-.1-.45-.22-.67-.33zm-98.63.58c-.08.04-.16.08-.24.12-1.84 5.08-3.65 10.08-5.5 15.17-26.7 73.64-52.4 143.8-76.12 208.48h.2c23.55-64.2 50.02-136.52 76.47-209.42 1.74-4.8 3.45-9.54 5.2-14.35zm106.9 3.9c-2.24 6.2-4.43 12.3-6.68 18.5-6.17 17.07-12.32 33.98-18.5 50.93.05.1.08.2.12.28 6.3-17.35 12.6-34.66 18.93-52.13 2.13-5.86 4.2-11.63 6.3-17.48-.04-.03-.1-.07-.16-.1zM500.9 134c-.34.2-.68.4-1.02.6-2.37 6.37-4.68 12.65-7.05 19.02-23.28 62.58-46.7 125-68.35 182.3v1.95c21.8-57.58 45.4-120.37 68.8-183.3 2.56-6.9 5.06-13.68 7.62-20.56zm118.06 2.33c-1.38 3.73-2.74 7.4-4.13 11.14-7.66 20.66-15.3 41.18-22.9 61.64.1.4.23.8.33 1.22 7.65-20.55 15.33-41.16 23.03-61.9 1.44-3.9 2.86-7.76 4.3-11.66-.2-.14-.42-.3-.64-.43zm-321.72.15c-4.2 11.26-8.35 22.42-12.57 33.7-14.7 39.38-29.33 78.28-43.67 116.3h.78c14.24-37.73 28.75-76.3 43.35-115.35 4.2-11.28 8.35-22.42 12.55-33.67l-.44-.98zm331.5 7.24c-.07.2-.14.4-.22.6-11.12 30.87-22.2 61.48-33.16 91.68 0 .18 0 .35 0 .53 11.1-30.52 22.3-61.46 33.54-92.67-.05-.05-.1-.1-.16-.14zm4.97 4.52c-.07.22-.15.44-.23.66-13.2 35.5-26.27 70.58-39.15 105.05-.14 1.14-.3 2.27-.48 3.38 13.18-35.24 26.58-71.15 40.08-107.5.13-.33.25-.67.38-1-.2-.2-.4-.4-.6-.6zm-330.25 2.23c-2.14 5.97-4.23 11.85-6.38 17.82-14.37 40-28.64 79.58-42.56 118.17h.2c14.04-38.88 28.43-78.77 42.92-119.12 2-5.57 3.95-11.06 5.95-16.62l-.12-.26zm338.47 6.6C616.4 227.84 591.82 295.3 568.98 358c.07 0 .13 0 .2-.02 22.82-62.6 47.35-130 72.88-200.77-.04-.06-.1-.12-.14-.17zm5.33 6.86c-25.06 67.16-49.97 133.58-72.6 193.6.25-.02.5-.04.75-.07 22.6-59.83 47.44-125.93 72.38-192.8-.18-.23-.35-.48-.53-.73zm-336.28 3.5c-.28.74-.56 1.5-.84 2.25-14.8 39.55-29.5 78.64-43.9 116.8h.76c14.3-37.87 28.9-76.64 43.58-115.86.28-.75.55-1.48.83-2.22l-.43-.98zm344.9 10.8c-22.07 61.2-43.52 120.2-63.86 175.98.08 0 .15-.04.22-.06C612.4 298.86 634.14 239.1 656 178.47c-.04-.08-.08-.16-.12-.24zm-338.55 3.5c-13.6 37.78-27.05 75.05-40.2 111.44l.1.25c13.16-36.37 26.62-73.64 40.22-111.44l-.12-.25zm342.47 5.18c-21.32 57.16-42.33 113.27-61.94 165.45.28-.1.56-.2.84-.3 19.52-51.8 40.38-107.44 61.5-164.1-.13-.34-.27-.7-.4-1.04zM324 196.78c-14 37.4-27.86 74.28-41.28 109.84l.4.97c13.44-35.55 27.3-72.44 41.3-109.83l-.42-.97zm475.53 1.4c-13.53 36-26.9 71.5-39.75 105.38.2.18.37.36.55.55 12.74-33.55 26.02-68.76 39.4-104.37-.06-.5-.13-1.03-.2-1.55zm-133.64 9.2c-16.84 46.8-33.34 92.52-48.95 135.7.08-.04.17-.1.25-.14 15.55-43.02 32-88.55 48.77-135.2-.03-.1-.05-.23-.08-.36zm-335.3 4.3c-13.96 38.73-27.57 76.37-40.6 112.4l.1.24c13.04-36 26.64-73.63 40.62-112.4l-.1-.24zm166.4.84c-17.83 49.1-35.2 96.63-51.57 141.35h.18c16.34-44.53 33.63-91.86 51.4-140.78v-.56zm308.8 9.12c-11.63 32.04-22.9 63-33.86 93.03.04.04.1.08.14.12 10.95-30 22.2-60.87 33.8-92.9-.02-.08-.06-.16-.1-.25zm-308.8.15c-17 45.92-33.47 90.25-49.05 132.08h.72c15.4-41.2 31.6-84.8 48.32-129.95v-2.13zm-160.63 2.87c-14.33 38.33-28.24 75.36-41.63 110.82l.4.94c13.35-35.3 27.4-72.65 41.66-110.78l-.43-.98zM149.3 226.9c-7.38 20.24-14.6 39.93-21.8 59.57h.2c7.2-19.64 14.4-39.33 21.8-59.57h-.2zm2.2 0c-7.5 20.22-14.8 39.93-22.1 59.57h.77c7.3-19.65 14.63-39.35 22.12-59.57h-.8zm7.86 0c-7.3 20.2-14.42 39.9-21.53 59.57h.2c7.1-19.66 14.24-39.37 21.54-59.57h-.2zm12 0c-7.5 20.1-14.98 40.03-22.32 59.57h.77c7.37-19.54 14.84-39.5 22.35-59.57h-.8zm5.8 0c-7.34 20.24-14.48 39.93-21.6 59.57h.18c7.13-19.63 14.28-39.32 21.63-59.57h-.2zm10.55 0c-7.6 20.27-15 39.95-22.4 59.57h.78c7.4-19.63 14.82-39.3 22.43-59.57h-.8zm12.52 0c-7.35 20.26-14.53 40.02-21.64 59.57h.2c7.1-19.53 14.3-39.32 21.64-59.57h-.2zm6.5 0c-7.57 20.27-14.94 39.98-22.27 59.57h.77c7.34-19.6 14.72-39.3 22.28-59.57h-.8zm9.76 0c-7.32 20.2-14.46 39.9-21.6 59.57h.2c7.13-19.66 14.28-39.35 21.6-59.57h-.2zm9.06 0c-7.58 20.22-14.98 39.92-22.37 59.57h.78c7.4-19.66 14.8-39.35 22.38-59.57h-.8zm13.45 0c-7.35 20.22-14.5 39.92-21.66 59.57h.2c7.15-19.65 14.3-39.34 21.65-59.57h-.2zm5.6 0c-7.5 20.2-14.85 39.92-22.18 59.57h.77c7.33-19.65 14.68-39.36 22.2-59.57h-.8zm563.75.35c-11.44 30.82-22.6 60.82-33.43 89.82.2.15.38.3.57.44 10.78-28.84 21.92-58.7 33.3-89.34-.15-.3-.3-.6-.45-.9zm-139.6 4.58c-13 34.54-25.7 68.26-38 100.67.4-.36.8-.73 1.18-1.1 11.93-31.45 24.3-64.17 36.88-97.6 0-.66-.03-1.3-.05-1.97zm-328.17 2.3c-14.14 38.96-27.87 76.73-41.02 112.9l.1.23c13.16-36.15 26.88-73.9 41.03-112.88l-.12-.25zm156.4.5c-15.1 41.54-29.6 81.35-43.4 119.22h.2c13.96-38.3 27.87-76.5 43.2-118.66v-.57zm315.53.1c-10.74 29.57-21.33 58.7-31.6 86.86.06.03.12.06.17.1 10.24-28.12 20.83-57.22 31.56-86.77-.04-.06-.08-.13-.12-.2zm5.66 8.14c-10.63 28.35-21.04 56.04-31.17 82.92.2.12.4.25.6.38 10.1-26.8 20.5-54.4 31.1-82.62-.2-.23-.36-.46-.54-.7zm-472.52 2.67c-14.1 37.57-27.67 73.62-40.78 108.3h.73c13.02-34.4 26.5-70.1 40.48-107.33l-.44-.96zm697.73 5.5c-11 30.4-21.56 59.67-31.75 87.88.07-.03.14-.06.22-.1 10.12-28 20.62-57.04 31.53-87.23v-.57zm-8.68 3c-.32.15-.65.3-.95.46-11.37 30.63-22.33 60.13-32.85 88.36.27-.1.54-.18.82-.28 10.57-28.3 21.57-57.85 32.97-88.53zm-206.3.17c-10.08 27.84-19.27 53.18-28.7 79.2.04.02.1.05.14.08 9.45-26 18.63-51.3 28.7-79.13-.05-.04-.1-.1-.15-.14zm202.78 1.53c-.08.04-.15.08-.23.1-11.15 30.44-21.9 59.74-32.22 87.78.07 0 .14-.04.2-.06 10.33-28.04 21.1-57.36 32.25-87.8zM496.98 257c-12.55 33.62-24.68 65.92-36.33 96.85h.72c11.44-30.3 23.32-61.9 35.62-94.76V257zm527.4 1.92c-.3.15-.63.3-.94.44-11.12 30-21.84 58.88-32.17 86.65.27-.07.53-.16.8-.24 10.4-27.84 21.15-56.78 32.3-86.84zm-190.37.3c-9.9 26.56-19.48 52.18-28.82 77.05.2.1.4.2.62.3 9.33-24.8 18.9-50.36 28.8-76.84-.2-.17-.4-.34-.6-.5zm187.45 1.08c-.08.04-.16.08-.24.1-10.92 29.8-21.47 58.5-31.65 86.13.07-.02.14-.04.2-.06 10.2-27.64 20.75-56.34 31.7-86.17zm-668.7 1.26c-11.8 32.53-22.57 62.14-33.55 92.3h.18c10.96-30.1 21.7-59.6 33.48-92.05l-.1-.24zm485.36.94c-9.53 26.27-18.74 51.64-27.7 76.28.06.03.12.05.17.07 8.94-24.62 18.16-49.97 27.7-76.23-.05-.04-.1-.08-.16-.12zm177.6.4c-.3.16-.63.3-.94.44-10.9 29.32-21.44 57.6-31.7 85.05.28-.08.56-.16.83-.24 10.28-27.5 20.87-55.86 31.8-85.25zm-5.74 2.6c-.1.04-.16.07-.24.1-10.54 28.87-20.74 56.76-30.67 83.86.07-.02.14-.04.2-.06 9.94-27.1 20.16-55 30.7-83.9zm-164.24 2.3c-9.6 25.58-18.9 50.23-27.96 74.17.2.08.42.17.63.26 9.05-23.9 18.34-48.5 27.95-74.02-.2-.13-.42-.26-.63-.4zm153.65 2.26c-.32.13-.6.24-.92.37-10.57 28.25-20.78 55.44-30.66 81.68.25-.05.52-.1.78-.16 9.93-26.32 20.18-53.58 30.8-81.88zm-642.83.03c-10.8 28.94-21.26 56.82-31.37 83.75h.72c10.02-26.64 20.36-54.2 31.06-82.8l-.42-.96zm633.62 3.7c-.08.03-.16.06-.23.1-10.3 28.34-19.37 53.34-28.92 79.58.07-.02.14-.03.2-.04 9.56-26.26 18.65-51.25 28.96-79.64zm-133.56.15c-9.05 25.1-17.76 49.26-26.2 72.67.05.02.1.04.17.05 8.44-23.4 17.14-47.54 26.2-72.64-.06-.03-.1-.06-.17-.08zM497 276.43c-9.7 26.75-19 52.52-28 77.42h.18c8.94-24.72 18.2-50.3 27.8-76.87v-.55zm369.4 1.82c-9.28 24.6-18.23 48.23-26.94 71.13.23.06.45.12.67.18 8.65-22.7 17.74-46.7 26.95-71.05-.23-.08-.45-.16-.68-.25zm110.6.36c-.3.1-.6.2-.9.3-9.85 26.5-19.38 52-28.63 76.77.26-.04.5-.07.76-.1 9.3-24.82 18.86-50.4 28.76-76.96zm-616.3.87c-9.76 26.73-18.18 49.7-27.2 74.38h.17c9-24.6 17.4-47.47 27.14-74.14l-.1-.23zm612.33.4c-.08.03-.15.05-.22.08-9.58 26.2-18.84 51.5-27.86 76.05.06 0 .13-.02.2-.03 9.02-24.55 18.3-49.86 27.9-76.1zm70.34 1.6c-6.8 18.05-13.36 35.34-19.87 52.5.3-.14.6-.28.9-.4 6.16-16.2 12.56-33.1 18.97-50.06v-2.03zm-164.05.98c-8.78 24.35-17.22 47.75-25.4 70.44.05 0 .1 0 .17.02 8.17-22.67 16.6-46.07 25.4-70.42-.06 0-.12-.03-.18-.05zm82.08.48c-.28.06-.56.12-.84.18-9.62 25.63-18.9 50.3-27.92 74.2.25-.04.5-.06.75-.08 9.04-23.92 18.36-48.63 28-74.3zm-72.06 1.8c-9.1 24.14-17.85 47.35-26.38 69.85.23.04.46.08.7.1 8.5-22.4 17.36-45.78 26.42-69.82-.25-.04-.5-.1-.74-.13zm-526.3.02c-8.9 23.9-17.46 46.86-25.78 69.1h.7c8.24-21.96 16.7-44.6 25.5-68.17l-.42-.93zm589 .03c-.08 0-.15.02-.22.03-9.45 26.05-17.7 48.8-26.48 73 .06 0 .12-.02.18-.02 8.8-24.2 17.05-46.93 26.5-73zm-54.6 1.25c-8.74 24.12-17.15 47.34-25.32 69.9.06.02.12.03.18.03 8.17-22.56 16.58-45.78 25.32-69.9-.06-.02-.12-.02-.2-.03zm42.1.43c-.26.03-.52.05-.8.08-9.28 24.83-18.25 48.74-26.87 71.7.23 0 .47 0 .7-.02 8.67-22.98 17.66-46.9 26.97-71.76zm-6.05.5c-.07 0-.14.02-.2.03-9.43 25.82-17.34 47.48-26.02 71.23.06 0 .12 0 .17 0 8.7-23.75 16.6-45.4 26.04-71.26zm-25.65.1c-9.1 24.13-17.9 47.35-26.48 69.9.24.04.48.06.72.08 8.5-22.37 17.47-46.05 26.5-69.94-.25-.02-.5-.04-.75-.05zm17.77.3c-.26 0-.5 0-.77.02-9.1 24.43-17.85 47.9-26.36 70.68.22 0 .46 0 .7.02 8.53-22.8 17.3-46.28 26.42-70.72zm-4.2.07c-.05 0-.12 0-.18 0-8.9 24.34-17.45 47.75-25.78 70.5.06 0 .12 0 .18 0 8.34-22.74 16.9-46.15 25.8-70.5zm-339.07.6c-.5.74-1.04 1.47-1.58 2.2-8.8 23.48-17.25 46.04-25.43 67.82.23 0 .46.03.7.04 8.45-22.48 17.22-45.8 26.3-70.08zm-215.9 4.4c-7.7 21.2-15.06 41.5-22.3 61.42h.2c7.2-19.84 14.54-40.05 22.22-61.17l-.1-.24zm135.43 2.05c-7.65 20.27-15.2 40.27-22.45 59.37h.72c7.23-19 14.7-38.73 22.32-58.9-.2-.15-.4-.3-.6-.47zm70.85 4.34c-.1.08-.2.16-.28.24-7.4 20.34-14.45 39.65-21.38 58.65.05.02.1.02.17.03 6.96-19.07 14.05-38.5 21.5-58.9zm-63.43 1c-7.16 19.64-12.98 35.6-19.7 54.03h.17c6.73-18.42 12.53-34.3 19.7-53.93-.06-.03-.12-.07-.17-.1zm4.8 2.87c-4.68 12.5-9.03 24.04-13.55 36.07.2.13.4.26.58.4 4.53-12.05 8.9-23.63 13.6-36.14-.2-.1-.42-.22-.63-.34zm-142.82.6c-6.57 17.48-12.8 34-19.05 50.55h.75c6.1-16.1 12.33-32.65 18.7-49.62l-.4-.93zm-344.87.55L16.25 329.1c-3.12 8.35-6.2 16.65-9.24 24.75h.7c6.14-16.36 12.24-32.66 18.7-50zm496.78 2.98c-4.75 12.96-9.18 25-13.75 37.44.05.02.1.05.15.08 4.57-12.43 9.02-24.5 13.77-37.46-.06-.03-.1-.05-.17-.07zm1.88.64c-4.84 13-9.4 25.2-14.06 37.66.2.1.4.22.6.33 4.68-12.5 9.26-24.74 14.13-37.78-.22-.07-.45-.14-.67-.2zm30.84.3c-.28.07-.56.17-.84.24-6.12 16.38-11.9 31.88-17.72 47.38.22.05.44.1.65.15 5.87-15.65 11.72-31.25 17.9-47.77zm-4.05 1c-.07 0-.14 0-.2.03-5.83 15.9-11.3 30.82-16.84 45.93.07.02.12.03.17.05 5.55-15.12 11.05-30.1 16.88-46.02zm-177.95.44c-5.7 15.5-11 29.92-16.42 44.65h.18c5.4-14.64 10.7-29.02 16.34-44.4l-.1-.24zm163.8.64c-5.14 14-10.1 27.5-14.98 40.84.05.02.1.04.16.06 4.9-13.34 9.86-26.9 15-40.9-.07 0-.13 0-.2 0zm3.04.05c-.25 0-.5 0-.75 0-5.32 14.26-10.43 27.93-15.5 41.5.22.07.43.14.63.22 5.1-13.66 10.25-27.38 15.6-41.73zm-165.4 2.55c-5.34 14.36-10.32 27.7-15.43 41.4h.72c5.02-13.42 9.9-26.44 15.13-40.47l-.4-.93zm3.75 8.45c-4.16 11.42-7.97 21.92-11.98 32.95h.2c3.97-10.94 7.76-21.38 11.88-32.7l-.1-.25zm664.27.87c-.38 1.06-.75 2.07-1.13 3.13.08-.04.16-.08.24-.12.3-.84.6-1.64.9-2.48v-.53zM383.93 331.8c-2.85 7.56-5.55 14.68-8.34 22.05h.74c2.63-6.93 5.32-14.04 8-21.13l-.4-.92zm6.4 14.4c-1 2.7-1.82 4.96-2.8 7.65h.2c.94-2.6 1.73-4.8 2.7-7.42l-.1-.23zm106.66 2.06c-.7 1.85-1.42 3.76-2.1 5.6h.7c.45-1.22.93-2.48 1.4-3.7v-1.9z" stroke-linecap="round" stroke-linejoin="round"/><g fill="none" stroke="#000" style="line-height:125%;-inkscape-font-specification:'Gill Sans MT, Bold';text-align:start" font-weight="bold" font-size="500" font-family="Gill Sans MT" letter-spacing="0" word-spacing="0"><path d="M246.78 24.12c12.06 23.6 21.9 48.66 31.83 73.4m-9.02-27.94c9.23 21.46 19.64 43.68 30.47 66.03m-12.75-8.38c9 22.3 19.8 44.44 30.56 65.74m-1.17-12.47c14.3 30.02 26.4 58.57 40.26 88.52m-19.15-33.7c10.62 25.15 24.26 50.88 39.13 75.68m-9.26-13.24c7.5 18.9 16.46 36.22 26.14 52.52-5-.55-9.98-1.18-14.9-1.87m8.6 2.84c.15.38.3.76.46 1.14-25.12 0-48.3-.27-70.7-.8m21.58-3.96c-11.3-.12-22.94.06-34.84.5-4.94-10.5-10.15-20.76-15.54-30.77m4.67 14.83c-6.22-15.72-13.06-32.15-20.14-49.02-13.64-.63-27.4-1.5-41.12-2.54m28.68-1.17c-30.93 1.4-59.76 1.36-88.02 3.4m19.96 1.02c-22.8.34-47.28.07-71.62-.32-1.25 3.14-2.5 6.28-3.75 9.42m8.68-14.6c-3.17.08-6.38.14-9.62.17-7.77 22.72-17 44.15-25.9 65.28-2.73-.15-5.45-.3-8.16-.46m12.63-7.5c-1.72 5.15-3.46 10.36-5.22 15.64-21.8.8-43.87 2.85-65.1 6.45m24.8-7.3c-15.14.73-30.07 1.34-45.1 2.25 3.42-8.58 6.78-17 10-25.18m-3.72 8.94c10-25.15 18.95-49.2 27.15-73.47m-6.32 20.12c10.9-27.48 23.88-55.67 37.64-82.42m-9.94 21.9c12.75-29.4 24.32-62.17 36.52-96.42m-12.22 27.48c12.32-29.52 25-58.83 38.4-85.68m-13.08 20.14c10.4-25.16 21.85-51.33 34.72-78m-19.42 28c3.72-8.7 7.43-17.3 11.2-25.92 21.68-.3 43.64-.52 66.7-1.22m-23.67.53c20.35-.23 40.3-.6 60.1-1.36 4.46 10 8.9 19.85 13.32 29.54m-6.64-21.56c12.3 28.25 27.32 60.4 42.35 91.76m-14.74-24.84c12.9 28.3 25.68 54.95 38.54 78.47m-16.97-17c12.84 29.95 27.7 60.48 42.8 90.56M326 200.9c13 28.6 24.15 56.9 35.5 88m-5.93-19.76c9.18 21.7 18.58 43.83 27.53 66.37m-3.08-11.15c4.95 10.42 9.84 21.06 14.73 31.8-17.2-.1-34.4.03-51.38-.1m20.1.7c-21.5.4-42.32.16-63.36-.27-1.7-4-3.4-8.03-5.13-12.06m8.2 13.4c-1.38.02-2.73.04-4.1.06-9.3-22.2-17.92-46.2-25.92-71.3-2.2-.26-4.38-.53-6.57-.8m6.64 6.37c-1.92-4.53-3.8-9-5.65-13.4-28.47-.18-55.65 1.67-82.9 3.58m29.6 7.9c-27.72 1.22-54.12.7-79.93.9m29.77-8.6c-11.62.1-23.36.18-35.15.25-5.65 14.95-11.4 29.9-17.12 44.96m3.97-16.34c-5 14.03-10.57 28.34-16.55 42.92-16.24.56-32.9 1.4-49.8 2.54m25.87-7.8c-23.26-.25-45.96.03-68.64.5 3.24-7.67 6.5-15.3 9.7-22.94M12.9 344.5c-.38 0-.75 0-1.13 0 12.1-26.73 21.85-52.44 32.16-76.54M25.2 300.83c11.16-28.02 23.86-57.02 37.2-85.6m-10.57 8c7.9-23.22 17.28-44.77 26.62-66.34M76 182.1c13.2-30.75 21.75-61.66 28.32-93.57m2.02 32.15c13.1-29.1 24.57-59.04 37.58-88.34m-19.9 9.24c5.4-13.22 11.07-26.23 17.05-38.95 10.38.46 20.9 1.05 31.56 1.82m-15.45 14.37c27.12.52 57.7-.62 89.3-2.32.73 1.17 1.45 2.33 2.17 3.5m-26.7-9.03c6.37-.27 12.86-.37 19.46-.35 10.38 22.9 22.36 47.65 34.87 72.62m-24.44-58.12c9.9 22.96 20.28 46 30.62 69.02m-8.77-20.1c9.3 24.27 19.92 47.04 29.98 69.98m-10.74-17c8.7 21.72 19.1 43.97 29.47 66.27m-8.6-9.1c11.87 27.96 25 53.4 39.14 78.54m-11.92-22.7c13.42 30.03 27.08 60.48 41.24 91.37m-17.7-30.28c8.15 16.74 16.28 33.92 24.9 51.17-11.04.06-21.88.17-32.4.2m25.12-1.13c-27.1-.23-56.13-.32-87.1-.72-3.26-5.78-6.62-11.58-10.07-17.4m26.92 19.87c-3.6-.1-7.3-.2-11-.3-8.97-23.13-20.03-46.48-31.43-71.08-3.42-.27-6.83-.57-10.25-.9m20.1 12.9c-2.28-5.42-4.54-10.77-6.8-16.06-25.77-.33-51.28.5-77.4.87m34.2 4.38c-27.9.65-56.1-1.02-83.8-3.56m12.73-2.07c-13.58-.6-26.68-.35-39.57.45-5.16 15.1-10.04 30.95-15 47.13m-.4-12.73c-5.6 15.17-10.9 30.23-15.9 45.3-9.75.08-19.37.15-28.85.27m21.86-8.2c-25.94-.2-52.56-.43-79.7-1.03 2.16-6.2 4.28-12.42 6.38-18.67m7.18 23.8c-3.15.06-6.26.13-9.36.2 8.4-21.75 18.3-43.4 28.2-64.2m-11.3 12.95c9.5-26.52 21.36-50.3 34.26-73.87m-1.47 13.4C64.47 217.2 72.4 194.13 78.5 172M62.5 189.54c12.15-27.34 24.3-56 38.93-85.27m-4.83 19.45c9.7-27.85 20.5-52.76 29.46-76.24m-10 23.35c8.42-19.58 16.13-39.65 23.75-60.2 10.44-.47 20.86-1.07 31.33-1.78m-24 2.12c25-1.04 51.27-.35 78.06.24M204.13 3.8c11.4-.05 23.05-.04 34.8.02 5.16 11.63 10.45 23.3 15.7 35.02m-6.37 187.75c-13.03-27.56-22.9-55.67-33-82.7m6.33 17.67c-9.52-22.28-17.38-43.95-23.95-64.82m10 18.17c-2.42-5.98-4.86-11.86-7.3-17.66-7.1 17.94-14.33 36.56-21.86 55.1m7.47-22.16c-7.66 21.37-17.4 44.47-28 67.74m-1.2-8.7c-4.8 14.58-9.76 28.43-14.6 41.9 11.87-.38 23.8-.98 35.96-1.64m-22.98-7.3c26.2.25 51.56.16 77.02.2m-13 3.44c9.73.1 19.48.1 29.2-.02-9.34-21-18.9-42.45-29.7-64.06m30.12 51.15c-12-26.44-20.6-52.17-28.58-78.52m8.65 29.64c-9.32-23.24-18.32-45.98-26.96-69.37m-3.6 15.17c-2.5-5.42-5.02-10.96-7.56-16.6-8.04 20.05-16.34 39.08-25.47 58.32m16.53-22.08c-9.75 27.1-23.4 57.74-38.58 88.77m11-25.52c-4.26 9.84-8.18 19.64-11.92 29.34 20.47-.76 41.62-1.9 62.53-4m-30.08 3.8c24.14.53 46.97.3 69.63.1-.14-.32-.28-.63-.42-.94m-18.5 6.07c4.75.1 9.55.16 14.4.2-6.83-17.3-13-34.9-18.42-52.46m20.2 39.15c-10.36-21.64-18.27-44.52-25.42-67.4m11.3 16.74c-10.26-24.23-21.25-49.28-33.38-75.1-.34.7-.68 1.4-1.02 2.08m-1.68 15.25c-2.2-5.62-4.34-11.1-6.42-16.44-9.02 25.6-16.72 54-22.95 82.62M173.24 141c-9.48 23-17.65 47.6-25.6 73.05m11.62-20.88c-3.14 9.3-6.75 18.97-10.67 28.93 12.7.35 24.93 1.14 36.93 2.15m-19.2 3.56c23.1.86 47.33-.55 71.16-2.92m-12.9 2.5c8-.06 15.92-.1 23.8-.1-7.5-17.47-15.3-34.83-23.43-52.2m98.65 108.86H162.76M285.08 109.4l58.22 131.17"/><path d="M490.92 16.28c.52 24.54 1.32 49.34 3.32 73.6m-3.8-21.35c-.46 19.52.06 38.84 1.1 58.5 4.5-2.42 9.08-4.53 13.7-6.34m-12.1 7.64c0 .25 0 .5 0 .75 18.9-12.35 39.66-18.03 61.58-17.84 4.06.03 8.06.2 12 .53m-17.4 7.57c1.77-.08 3.55-.1 5.35-.1 16.06.1 31.42 2.83 45.56 8.3 6.97 2.7 13.63 6.07 19.95 10.1m-15.47-13.56c11.6 5.85 21.7 13.6 30.22 23.4 9.78 11.17 16.6 23.94 20.33 38.5.46 1.75.87 3.54 1.23 5.35m.1-17.97c3 5.2 5.57 10.65 7.75 16.35 5.36 14.02 8.28 29.5 8.83 46.22.03 1.14.06 2.27.08 3.4m-13.2-11.93c.25 3.7.4 7.46.44 11.3.35 28.1-4.55 51.7-15.2 71.22m6.63-29.02c-5.6 13.53-12.72 25.5-21.77 36.38-8.26 10.02-17.32 18.12-27.45 24.6m16.63-4.3c-6.82 5.5-13.88 9.84-21.26 13.1-12.66 5.62-26.2 8.05-40.8 7.5-6.86-.26-13.53-1.3-20.03-3.1m34.3-5.3c-.86-.03-1.73-.06-2.6-.1-22.6-.9-44.55-7.42-66.07-20.87-.03.56-.06 1.12-.1 1.67m9.1 12.3c-4.04-2.2-8.05-4.76-12.02-7.66.08 5.88.13 11.7.17 17.43-21.23-.44-42.65-1.76-63.67-3.15m28.94-2.55c-11.9-.08-23.8.3-35.6 1.06.3-13.53.76-26.48 1.45-38.9m-7.8 20.92c-1.16-31.88.2-66 .64-99.43m-8.22 28.43c-.73-24.93-.2-49.65.37-74.77m6.5 24.5c1.1-31.68.37-67.73 1.1-103.98m3.27 22c.92-28.53 1.07-54.36 2.3-79.82m.32 18c.93-19.03.86-38.44.75-57.83 9.6.02 19.18.05 28.88.13m-27.03 5.15c18.72-.45 37-1.14 54.7-2.5m12.54 4.73c-.17 24.3-.6 45.8-1.56 65.9m.07-11.35c-.47 22.46-.68 44.57-1.2 67.1 8.13-4.84 16.37-8.47 24.65-10.85m-19.48 12.97c17.76-12.07 37.52-17.48 57.82-17.38 7.2.03 14.16.56 20.8 1.55m-22.08-6.63c16.54-.32 31.64 2.38 45.26 7.77 13.83 5.48 26.15 13.73 37.23 24.6 1.67 1.63 3.3 3.3 4.86 5m-27.33-15.65c5.93 4.16 11.48 8.88 16.73 14.17 11.17 11.2 19.74 23.72 26.25 37.94 4.24 9.26 7.57 19.12 10.28 29.8m-10.44-34.6c4.7 13.66 6.88 28.94 6.43 45.83-.24 8.55-1.1 16.8-2.56 24.68m9.22-9.72c-2.96 31.46-13.5 56.9-34.38 77.16-2.3 2.26-4.7 4.4-7.16 6.43M656.1 312c-3.33 4.6-7.03 9-11.1 13.26-10.54 11.03-22.4 19.6-36.06 25.4-9.6 4.1-20.06 6.84-31.5 8.1m23.4-7.02c-11.36 4.02-24.04 6.1-38.1 6.18-12.05.1-23.93-1.66-35.7-5.27m15.64.6c-16.33-2.96-31.28-9.5-44.9-19.52.32 6.06.7 12.14 1.15 18.26-3.18.15-6.34.3-9.5.48m5.1-13.1c-.03 2.68-.04 5.38-.04 8.1-24.26-.2-48.33.95-72.4 2.62 0-1.3 0-2.6 0-3.9m18.32 3.53c-5.9.04-11.7.07-17.45.1.27-21.82 1.6-43.72 3.6-65.5m-5.97 20.57c-1.18-26.94-.42-51.1.2-74.66m3.43 18.73c-.97-30.55-.25-61.08-.35-90.2m-7.62 21.73c-1.16-31.36.26-66 1.02-101.65m4.92 31.06c1.5-32.92-1.82-67-5.58-102.72m9.3 35.63c.1-10.28.12-20.63.1-30.96 15.24.38 30.38.83 45.53 1.6M451.1 7.38c13.37.22 27.03.23 40.67.15m-.1 11.57c-.75 32.13 1.85 59.05 5.94 84.5m4.14-19.33c.35 17.5-.26 34.68-1.55 51.94 10.64-6.97 21.2-11.7 31.85-14.02m-17.98 7.53c14.55-6.55 29.52-10.38 44.9-11.18 12.93-.67 24.66.2 35.22 2.83m-21.58 3c10.25 1.5 19.85 3.72 28.9 6.9 13.4 4.72 25.3 11.44 35.6 20.25.46.4.92.8 1.37 1.18m-10.56-16.95c3.8 3.22 7.5 6.82 11.06 10.8 10.4 11.5 18.74 24.96 24.74 40.6 2.47 6.44 4.55 13.27 6.22 20.48m-8.44-18.2c5.4 14.22 8.28 29.83 8.87 46.8.5 14.48-.65 27.6-3.43 39.43m4.85-29.63c-4.22 27.96-13.03 51.37-29.52 71.8m6.82-6c-3.25 4.68-6.82 9.16-10.7 13.44-9.8 10.85-20.55 19.1-32.48 24.45-5.16 2.3-10.53 4.08-16.1 5.26m11.25-2.98c-.1.04-.2.08-.3.12-13.2 5.35-27.6 8.05-43.33 7.93-10.05-.08-19.82-1.57-29.37-4.52m18.58 3.95c-17.96-2.7-34.75-10.53-49.88-24.06.3 5.33.67 10.6 1.07 15.75-1.72-.22-3.45-.45-5.16-.7m-4.67-20.52c.08 4.38.16 8.8.24 13.27-18.98.23-37.92 1.28-56.47 3m24.58 4.07c-9.65.37-19.32.74-28.96 1.2.47-15.57 1.05-30.86 2.07-45.46m-8.35 11.88c.1-24.58.7-48.65 1.95-72.3m-8.55 14.33c1.17-30.8.44-59.94.74-88.56M420 204.1c.92-29.27-.75-60.63-2.72-91.68m6.7 10.8c1.12-25.2.7-48.02.53-69.32m6.9 26.6c.42-21.22-.4-42.7-1.98-64.5 5.52-.17 10.98-.38 16.4-.6m-29.7-3c.02-.68.04-1.37.06-2.05 23.83-.8 47.9.18 73.32 1.64m11 175.75c.62 29.36.87 58.52 2.15 87.6m.17-27.94c-.3 12.23-.76 24.66-1.5 37.3 6.76 6.83 13.3 12.1 19.7 15.8 4.25 2.46 8.4 4.2 12.5 5.26m-20.98-1.8c1.03.53 2.05 1.03 3.08 1.5 7.28 3.32 14.45 4.97 21.52 4.98 8.7 0 16.46-1.62 23.28-4.86s12.7-8.1 17.7-14.56c.8-1.03 1.56-2.1 2.3-3.18m-2.38 12.2c3.24-2.7 6.2-5.92 8.83-9.68 9.23-13.12 13.84-31.52 12.37-54.97-.63-9.97-2.35-19-5.17-27.14m-5.07 31.46c0-.52-.02-1.04-.04-1.56-.32-10.7-1.52-20.43-3.9-29.18-2.4-8.72-5.9-16.27-10.67-22.68-3.1-4.3-6.55-7.95-10.34-10.94m15.65 4.62c-.03-.03-.06-.07-.1-.1-5.28-5.74-11.24-10.04-17.95-12.83-6.7-2.8-14.14-4.07-22.28-3.73-11.8.5-24.23 5.8-36.77 16.57m-8.45 8.1c.23 33.65-1.2 65.68-3.64 98.85.42.43.85.85 1.27 1.27m-5.2-28.92c.04 9.02.25 18.16.63 27.34 7.73 6.3 15.5 11.05 23.26 14.15 7.76 3.08 15.5 4.54 23.25 4.32 2.65-.08 5.24-.3 7.76-.62m-23.05.48c4.6 1.37 9.22 2 13.8 1.9 8.75-.2 16.65-2.2 23.62-5.92 7-3.72 13.1-9.2 18.4-16.52 5.27-7.3 9.44-15.95 12.58-26.13m-14.42 22c9.4-12.77 14.2-29.23 15.86-49.52.83-10.1.57-18.94-.76-26.55m12.34 25c-.15-7.77-1.32-14.9-3.34-21.32-2.75-8.72-7.1-16.25-12.9-22.53-5.72-6.38-12.4-11.27-20.04-14.7-4.45-2-9.23-3.5-14.34-4.54m18.12 3.17c-1.9-1.28-3.88-2.4-5.97-3.35-6.63-3.03-14.25-4.44-22.82-4.18-11.6.35-24.1 5-37.5 14.2m-10.25 12.8c-.3 29.98-.82 63.5-2.38 97.08m1.1-38.82c.35 12.2.68 24.32 1.1 36.38 7.7 6.38 15.32 11.1 22.9 14.16 7.6 3.07 15.16 4.5 22.72 4.26 1.28-.04 2.56-.1 3.82-.2m-16.73 5.1c6.86 2.4 13.4 3.55 19.76 3.4 8.56-.2 15.95-1.9 22.3-5.2 6.33-3.3 11.6-8.2 15.78-14.74 5.24-8.18 8.38-18.26 9.42-30.52m-2.8 26.7c8.1-12.44 12.33-29.33 12.3-50.08 0-7.37-.62-14.1-1.87-20.24m-4.56 16.74c-.46-9.47-1.68-18.04-3.8-25.8-2.4-8.96-6-16.7-10.8-23.35-4.73-6.73-10.2-11.98-16.45-15.87-4.3-2.68-8.95-4.7-13.94-6.12m24.93 16.57c-2.34-1.5-4.76-2.8-7.28-3.93-7.07-3.15-14.88-4.8-23.5-5-13.25-.32-26.98 4.44-41.98 13.88m-5.2-163.7v149.13m0-5.9v190.15"/><path d="M1037.1 246.78c1.2 24.67 1.2 49.6 1.9 74.84-2.1 1.22-4.2 2.4-6.28 3.57m1.58-11.02c.08 4.3.18 8.55.3 12.7-22.58 12.56-45.34 18.96-66.83 21.2m24.92-7.5c-27.48 9.82-54.57 14.1-81 15.18-2.65.1-5.25.2-7.8.24m27.85-3.96c-5.88.7-11.92 1.05-18.1 1.07-23 .1-46.03-3.98-66.7-10.37m14.06 4.87c-13.3-2.4-25.6-5.26-37.08-8.87-15.8-4.95-29.8-11.23-42.12-19.22m23.45 11.14c-13.77-6.72-26.88-15.7-39-26.53-8.73-7.87-16.6-16.22-23.54-24.9m17.82 13.26c-13.25-14.56-23.25-29.38-30.18-45-1.96-4.42-3.67-8.9-5.13-13.42m-5.68 18.45c-9.82-20.95-13.1-43.04-10.7-66.56.66-6.3 1.7-12.46 3.1-18.48m-8.34 17c-.08-1.43-.15-2.87-.2-4.32-.72-24.8 5.33-48.14 16.38-69.88 2.85-5.6 6.03-11.1 9.55-16.55m-8.54 24.15c1.03-2.43 2.1-4.83 3.2-7.18 9.94-21.03 23.18-39.15 40.64-54.77 1.2-1.06 2.4-2.1 3.6-3.12m-7.52 10.95c3.54-3.72 7.3-7.36 11.28-10.9 15.97-14.16 34.13-25.13 53.9-32.1m-18.7 5.88c8.75-5.04 18.22-9.28 28.36-12.8 14.34-4.94 29.95-8.4 46.84-10.63m-16.7 2.5c17.6-2.98 36.35-4.85 56-5.13 13.4-.2 26.16.3 38.53 1.72M924.15 7c34.6 2.9 66.22 6.48 97.9 16.73m-25.18-7.85c16.82 4.14 31.6 10.55 44.57 18.57-.8 15-2.04 29.98-3.45 44.57m.2-23.02c-.95 20.1-.5 39.1.38 57.97-12.25-7.53-23.88-13.9-35.68-18.98m25.9 2.4c-29.2-14.27-54.73-22.87-79.86-25.34M970 85.38c-15.66-4.77-31.42-6.34-46.7-5.4-18.17 1.12-35 5.37-49.8 11.9-.06.03-.12.06-.2.08m27.27-12.4c-10 1-19.45 3-28.32 5.93-15.13 4.96-28.7 12.64-40.8 22.8-3.9 3.27-7.5 6.67-10.82 10.2M836 98.3c-2.57 1.76-5.05 3.63-7.45 5.6-11.62 9.58-19.96 20.84-25.16 33.45-2.72 6.58-4.6 13.56-5.64 20.94m11.47-19.76c-4.52 11.6-7 23.75-7.65 36.75-.75 15.08 1.04 28.53 5.28 40.83 2.03 5.9 4.6 11.47 7.7 16.83m-15.2-18.98c1.2 3.04 2.5 6 3.96 8.9 6.15 12.2 14.84 23.07 26.37 32.37 8.27 6.62 17.4 11.9 27.5 15.75m-18.52-11.75c19.1 12.52 41.8 20.6 68.8 23.28m-19.14 2.28c8.56 1.26 17.5 1.98 26.86 2.2 17.4.4 33.83-.9 49.55-4.2 3.25-.7 6.82-1.6 10.7-2.7M954 282.54c3.95-.76 7.92-1.67 11.9-2.73 7.97-2.2 17.95-5.74 30.3-10.6 11.04-4.34 23.54-9.57 37.88-15.66m12.8 5.07c-.98 23.86-.65 46.43-.5 67.9-1.27.54-2.54 1.06-3.8 1.58m2.42-20.36c-.12 4.37-.2 8.74-.26 13.1-26.6 14.64-52.73 24.87-80.2 32.37m29.8-8.4c-27.5 8.5-55.02 12.74-84.8 13.6-2.67.1-5.33.15-7.98.18m28.6-6.88c-5.86.47-11.72.77-17.6.94-27.42.76-52.75-1.24-76.6-5.42m25.74 5.53c-11.34-2.44-22.2-5.53-32.58-9.44-18.42-6.9-35.2-16.33-50.07-28.9m16.74 20.53c-13-6.24-24.4-14.45-34.45-24.26-7.07-6.96-13.3-14.4-18.78-22.1m7.45 5.1c-13.94-13.5-23.42-28.96-29.17-45.4-3.42-9.74-5.55-19.9-6.53-30.37m1.24 28.58c-6.9-18.74-9.52-38.88-7.76-60.8.65-8.07 1.88-16.03 3.68-23.86m1.95 14.07c.76-23.77 3.76-45.06 10.13-64.98 1.05-3.27 2.18-6.5 3.4-9.64m-3.05 19.8c.94-2.26 1.94-4.5 3-6.72 8.64-18.04 21.63-35.04 38.97-49.53m-17.9 0c5.1-5.65 10.5-11 16.28-16.05 15.55-13.56 32.45-23.5 51.32-29.96m-15.23 12.96c10.82-6.23 21.93-11.33 33.5-15.45 13.14-4.66 26.8-8.04 41.5-10.45m-24.06 6.02c18.73-3.96 38.9-5.64 60.7-4.65 5.6.26 11.12.67 16.57 1.24m-21.62-6.15c.45 0 .9 0 1.36 0 36.68.02 67.2 4.9 95.5 14.9m-26.72-3.8c20.42 4.1 39.57 12.17 56.68 22.88.04 3.77.08 7.54.13 11.32m8.93-13.07c1.38.8 2.74 1.64 4.1 2.48.1 26.08-1.5 51.86-4.3 78.75-.44-.2-.88-.38-1.33-.57M1044 86c.02 6.38-.07 12.76-.26 19.14-17.2-9-34.94-16.08-52.98-21.05m13.48 6.54c-24.84-11.6-48.94-17.2-71.4-18.7m10.92 10.04c-9.17-1.83-18.4-2.62-27.6-2.48-18.22.27-35.4 3.78-50.72 9.7-6.34 2.46-12.42 5.35-18.2 8.64m37.5-14.1c-3.2.66-6.3 1.42-9.35 2.3-15.48 4.38-29.3 11.4-41.87 20.68-6.1 4.48-11.57 9.26-16.47 14.3m4.9-12.27c-10.4 8.5-18.27 18.43-23.7 29.4-5.98 12-9.05 25.28-9.53 39.56-.1 3.18-.08 6.28.07 9.28m12.54-18.64c-.7 5-1.06 10.14-1.1 15.42-.15 15.7 2.5 29.93 7.9 43.06 3.07 7.46 7.02 14.54 11.83 21.37m-20.4-23.23c5.7 10.8 13.77 20.8 24.3 29.93 12.2 10.5 26.26 18.56 42.3 24m-13.12-8.32c19.62 10.72 41.86 15.73 67.7 15.7 4.87-.02 9.7-.2 14.47-.53m-22.15 2.1c2.13.1 4.3.17 6.5.2 17.16.1 34.28-2.74 50.77-8.2 8.24-2.8 18.6-7.26 30.88-13.43.94-.47 1.9-.95 2.85-1.44m-27.57 9.7c6.36-2.18 13.37-4.75 21.8-7.8 11.78-4.3 26.5-9.58 43.07-14.82m-.2-5.1c-.15 25.8-.5 49.36-1.32 72.6-1.1.5-2.2.97-3.3 1.45m-1.86-14.38c-.1 4.8-.14 9.55-.12 14.24-19.62 10-38.52 16.5-57.3 19.6m21.26-9.26c-27.03 7.64-52.78 13.88-80.48 16.32m20.83.7c-11 .78-21.96 1.2-33 1.1-15.44-.1-29.9-1.03-43.96-3.14m25.14 8.24c-19.86-2.6-38.23-6.08-55.72-11.63-12.27-3.9-23.82-8.73-34.63-14.74m19.68 12.97c-20.28-8.6-38.55-19.63-55.37-33.75-3.26-2.77-6.43-5.6-9.5-8.47m17.06 11.92c-1.3-1-2.55-2.04-3.8-3.1-18.5-15.77-32.05-34.65-41.44-54.62-2.6-5.56-4.9-11.23-6.93-16.98m6.18 20.3c-1.14-2.16-2.22-4.37-3.25-6.6-9.52-20.73-14-44.1-14.54-70.38 0-.33 0-.66 0-1m10.4 26.9c-.66-5.4-1.05-11.02-1.2-16.83-.57-24.43 3.58-48.37 11.6-70.58 1.45-4.05 3.03-8.04 4.74-11.97m-15.76 21.04c1.5-5.68 3.43-11.13 5.73-16.37 7.08-16.1 17.73-30.22 31.34-42.77m-9.32 16c6.34-7.97 13.88-15.72 22.6-23.16 16.7-14.18 36.4-25.6 58.84-33.65m-27.62 10.63c12-7.45 24.03-13.17 36.3-17.4 9.35-3.23 18.8-5.6 28.54-7.22m-14.1-.3c21-6.48 42.45-9.18 65.33-9.67 3.6-.1 7.15-.12 10.63-.1m-15.9-1.28c2.35.02 4.72.05 7.1.1 24.6.6 46.82 3.04 66.27 8.67m-11.15.9c25.5 5.13 49.04 13.53 69.1 26.1-.1 2.5-.2 5-.3 7.52m-10.5-21.34c4.25 2 8.35 4.12 12.3 6.38.5 20.83-.12 41.76-.64 62.63m1.3-8.35c.14 9.72.24 19.75.36 29.97-13.24-7.54-26.42-13.54-39.07-18.3m12-3.4c-31.44-15.46-63.03-19.67-92.62-16.06m31.3 1.83c-9.27-1.27-18.85-1.97-28.63-2.05-18.9-.15-37 1.7-53.88 6.03-2.18.56-4.33 1.16-6.46 1.8m22.96-4.76c-5.15 1.05-10.15 2.38-15 3.98-14.8 4.9-28.15 12.3-39.93 22.22-2.74 2.3-5.33 4.7-7.76 7.15m13.62-9.24c-1.3 1.04-2.56 2.1-3.82 3.17-11.23 9.62-19.75 19.86-25.52 31.08-4.35 8.47-7.1 17.42-8.13 26.74m3.63-9.16c-2.95 9.35-4.4 19-4.44 29-.04 14.6 2.95 27.44 8.7 38.63 1.63 3.13 3.47 6.15 5.52 9.03m-12.32-23c1.1 2.98 2.33 5.9 3.68 8.8 5.9 12.64 14.1 24.22 24.8 35 8.53 8.52 17.8 15.7 28.07 21.65M841 263.18c22.38 15.53 47.05 21.76 75.9 19.95 3.1-.2 6.2-.47 9.27-.83m-19.12-3.6c4.94.53 10.04.88 15.32 1.05 17.72.58 35.06-.8 52.04-3.82 2.75-.5 5.7-1.13 8.87-1.84m-24.15 4.82c2.67-.6 5.33-1.24 7.98-1.95 8.14-2.3 18.23-5.97 30.47-11.12 11.94-5.03 25.44-11.24 41.27-18.86M868.37 75.46l-72.6 60.8m239.02 199.8l-144.43 28.67"/></g></g></g></g></svg>
