<svg xmlns="http://www.w3.org/2000/svg" width="1488" height="1600" xmlns:xlink="http://www.w3.org/1999/xlink"><defs><marker orient="auto" overflow="visible"><path fill-rule="evenodd" stroke="#000" stroke-width=".8pt" d="M-4.62 0L2.3-4v8l-6.92-4z"/></marker><marker orient="auto" overflow="visible"><path fill="#c00000" fill-rule="evenodd" stroke="#c00000" stroke-width=".8pt" d="M-4.62 0L2.3-4v8l-6.92-4z"/></marker><marker orient="auto" overflow="visible"><path fill-rule="evenodd" stroke="#000" stroke-width=".6875" d="M10.7 4.44L-1.34.02 10.7-4.4c-1.93 2.6-1.92 6.18 0 8.84z" stroke-linejoin="round"/></marker><marker orient="auto" overflow="visible"><path fill-rule="evenodd" stroke="#000" stroke-width=".4pt" d="M2.3 0l-3.45 2v-4L2.3 0z"/></marker><marker orient="auto" overflow="visible"><path fill-rule="evenodd" stroke="#000" stroke-width=".4pt" d="M2.3 0l-3.45 2v-4L2.3 0z"/></marker><marker orient="auto" overflow="visible"><path fill-rule="evenodd" stroke="#000" stroke-width=".4pt" d="M2.3 0l-3.45 2v-4L2.3 0z"/></marker><marker orient="auto" overflow="visible"><path fill-rule="evenodd" stroke="#000" stroke-width=".8pt" d="M4.62 0L-2.3 4v-8l6.92 4z"/></marker><marker orient="auto" overflow="visible"><path fill-rule="evenodd" stroke="#000" stroke-width=".375" d="M-5.23-2.42l6.55 2.4-6.55 2.42c1.05-1.42 1.04-3.37 0-4.82z" stroke-linejoin="round"/></marker><marker orient="auto" overflow="visible"><path fill-rule="evenodd" stroke="#000" stroke-width=".4pt" d="M2.3 0l-3.45 2v-4L2.3 0z"/></marker><marker orient="auto" overflow="visible"><path fill-rule="evenodd" stroke="#000" stroke-width=".8pt" d="M4.62 0L-2.3 4v-8l6.92 4z"/></marker><marker orient="auto" overflow="visible"><path fill-rule="evenodd" stroke="#000" stroke-width=".6875" d="M10.7 4.44L-1.34.02 10.7-4.4c-1.93 2.6-1.92 6.18 0 8.84z" stroke-linejoin="round"/></marker><marker orient="auto" overflow="visible"><path fill-rule="evenodd" stroke="#000" stroke-width=".6875" d="M-10.7-4.44L1.34-.02-10.7 4.4c1.93-2.6 1.92-6.18 0-8.84z" stroke-linejoin="round"/></marker><linearGradient><stop offset="0" stop-color="#4c4c4c"/><stop offset="1" stop-color="#656565"/></linearGradient><linearGradient><stop offset="0" stop-color="#4c4c4c"/><stop offset="1" stop-color="#656565"/></linearGradient><linearGradient><stop offset="0" stop-color="#4c4c4c"/><stop offset="1" stop-color="#656565"/></linearGradient><linearGradient><stop offset="0" stop-color="#4c4c4c"/><stop offset="1" stop-color="#656565"/></linearGradient><linearGradient><stop offset="0" stop-color="#4c4c4c"/><stop offset="1" stop-color="#656565"/></linearGradient><linearGradient><stop offset="0" stop-color="#4c4c4c"/><stop offset="1" stop-color="#656565"/></linearGradient><linearGradient><stop offset="0" stop-color="#4c4c4c"/><stop offset="1" stop-color="#656565"/></linearGradient><linearGradient><stop offset="0" stop-color="#4c4c4c"/><stop offset="1" stop-color="#656565"/></linearGradient><linearGradient><stop offset="0" stop-color="#4c4c4c"/><stop offset="1" stop-color="#656565"/></linearGradient><linearGradient><stop offset="0" stop-color="#4c4c4c"/><stop offset="1" stop-color="#656565"/></linearGradient><linearGradient><stop offset="0" stop-color="#4c4c4c"/><stop offset="1" stop-color="#656565"/></linearGradient><linearGradient><stop offset="0" stop-color="#4c4c4c"/><stop offset="1" stop-color="#656565"/></linearGradient><linearGradient><stop offset="0" stop-color="#4c4c4c"/><stop offset="1" stop-color="#656565"/></linearGradient><linearGradient><stop offset="0" stop-color="#4c4c4c"/><stop offset="1" stop-color="#656565"/></linearGradient><linearGradient><stop offset="0" stop-color="#4c4c4c"/><stop offset="1" stop-color="#656565"/></linearGradient><linearGradient><stop offset="0" stop-color="#4c4c4c"/><stop offset="1" stop-color="#656565"/></linearGradient><linearGradient><stop offset="0" stop-color="#4c4c4c"/><stop offset="1" stop-color="#656565"/></linearGradient><linearGradient><stop offset="0" stop-color="#4c4c4c"/><stop offset="1" stop-color="#656565"/></linearGradient><linearGradient><stop offset="0" stop-color="#4c4c4c"/><stop offset="1" stop-color="#656565"/></linearGradient><linearGradient><stop offset="0" stop-color="#4c4c4c"/><stop offset="1" stop-color="#656565"/></linearGradient><linearGradient><stop offset="0" stop-color="#4c4c4c"/><stop offset="1" stop-color="#656565"/></linearGradient><linearGradient><stop offset="0" stop-color="#4c4c4c"/><stop offset="1" stop-color="#656565"/></linearGradient><linearGradient><stop offset="0" stop-color="#4c4c4c"/><stop offset="1" stop-color="#656565"/></linearGradient><linearGradient><stop offset="0" stop-color="#4c4c4c"/><stop offset="1" stop-color="#656565"/></linearGradient><linearGradient><stop offset="0" stop-color="#4c4c4c"/><stop offset="1" stop-color="#656565"/></linearGradient><linearGradient><stop offset="0" stop-color="#4c4c4c"/><stop offset="1" stop-color="#656565"/></linearGradient><linearGradient><stop offset="0" stop-color="#4c4c4c"/><stop offset="1" stop-color="#656565"/></linearGradient><linearGradient><stop offset="0" stop-color="#4c4c4c"/><stop offset="1" stop-color="#656565"/></linearGradient><linearGradient><stop offset="0" stop-color="#4c4c4c"/><stop offset="1" stop-color="#656565"/></linearGradient><linearGradient><stop offset="0" stop-color="#4c4c4c"/><stop offset="1" stop-color="#656565"/></linearGradient><linearGradient><stop offset="0" stop-color="#4c4c4c"/><stop offset="1" stop-color="#656565"/></linearGradient><linearGradient><stop offset="0" stop-color="#4c4c4c"/><stop offset="1" stop-color="#656565"/></linearGradient><linearGradient><stop offset="0" stop-color="#4c4c4c"/><stop offset="1" stop-color="#656565"/></linearGradient><linearGradient><stop offset="0" stop-color="#4c4c4c"/><stop offset="1" stop-color="#656565"/></linearGradient><linearGradient><stop offset="0" stop-color="#4c4c4c"/><stop offset="1" stop-color="#656565"/></linearGradient><linearGradient><stop offset="0" stop-color="#4c4c4c"/><stop offset="1" stop-color="#656565"/></linearGradient><linearGradient><stop offset="0" stop-color="#4c4c4c"/><stop offset="1" stop-color="#656565"/></linearGradient><linearGradient><stop offset="0" stop-color="#4c4c4c"/><stop offset="1" stop-color="#656565"/></linearGradient><linearGradient><stop offset="0" stop-color="#4c4c4c"/><stop offset="1" stop-color="#656565"/></linearGradient><linearGradient><stop offset="0" stop-color="#4c4c4c"/><stop offset="1" stop-color="#656565"/></linearGradient><linearGradient><stop offset="0" stop-color="#4c4c4c"/><stop offset="1" stop-color="#656565"/></linearGradient><linearGradient><stop offset="0" stop-color="#4c4c4c"/><stop offset="1" stop-color="#656565"/></linearGradient><linearGradient><stop offset="0" stop-color="#4c4c4c"/><stop offset="1" stop-color="#656565"/></linearGradient><linearGradient><stop offset="0" stop-color="#4c4c4c"/><stop offset="1" stop-color="#656565"/></linearGradient><linearGradient><stop offset="0" stop-color="#4c4c4c"/><stop offset="1" stop-color="#656565"/></linearGradient><linearGradient><stop offset="0" stop-color="#4c4c4c"/><stop offset="1" stop-color="#656565"/></linearGradient><linearGradient><stop offset="0" stop-color="#4c4c4c"/><stop offset="1" stop-color="#656565"/></linearGradient><linearGradient><stop offset="0" stop-color="#4c4c4c"/><stop offset="1" stop-color="#656565"/></linearGradient><linearGradient><stop offset="0" stop-color="#4c4c4c"/><stop offset="1" stop-color="#656565"/></linearGradient><linearGradient><stop offset="0" stop-color="#4c4c4c"/><stop offset="1" stop-color="#656565"/></linearGradient><linearGradient><stop offset="0" stop-color="#4c4c4c"/><stop offset="1" stop-color="#656565"/></linearGradient><linearGradient><stop offset="0" stop-color="#4c4c4c"/><stop offset="1" stop-color="#656565"/></linearGradient><linearGradient><stop offset="0" stop-color="#4c4c4c"/><stop offset="1" stop-color="#656565"/></linearGradient><linearGradient><stop offset="0" stop-color="#4c4c4c"/><stop offset="1" stop-color="#656565"/></linearGradient><linearGradient><stop offset="0" stop-color="#4c4c4c"/><stop offset="1" stop-color="#656565"/></linearGradient><linearGradient><stop offset="0" stop-color="#4c4c4c"/><stop offset="1" stop-color="#656565"/></linearGradient><linearGradient><stop offset="0" stop-color="#4c4c4c"/><stop offset="1" stop-color="#656565"/></linearGradient><linearGradient><stop offset="0" stop-color="#4c4c4c"/><stop offset="1" stop-color="#656565"/></linearGradient><linearGradient><stop offset="0" stop-color="#4c4c4c"/><stop offset="1" stop-color="#656565"/></linearGradient><linearGradient><stop offset="0" stop-color="#4c4c4c"/><stop offset="1" stop-color="#656565"/></linearGradient><linearGradient><stop offset="0" stop-color="#4c4c4c"/><stop offset="1" stop-color="#656565"/></linearGradient><linearGradient><stop offset="0" stop-color="#4c4c4c"/><stop offset="1" stop-color="#656565"/></linearGradient><linearGradient><stop offset="0" stop-color="#4c4c4c"/><stop offset="1" stop-color="#656565"/></linearGradient><linearGradient><stop offset="0" stop-color="#4c4c4c"/><stop offset="1" stop-color="#656565"/></linearGradient><linearGradient><stop offset="0" stop-color="#4c4c4c"/><stop offset="1" stop-color="#656565"/></linearGradient><linearGradient><stop offset="0" stop-color="#4c4c4c"/><stop offset="1" stop-color="#656565"/></linearGradient><linearGradient><stop offset="0" stop-color="#4c4c4c"/><stop offset="1" stop-color="#656565"/></linearGradient><linearGradient><stop offset="0" stop-color="#4c4c4c"/><stop offset="1" stop-color="#656565"/></linearGradient><linearGradient><stop offset="0" stop-color="#4c4c4c"/><stop offset="1" stop-color="#656565"/></linearGradient><linearGradient><stop offset="0" stop-color="#4c4c4c"/><stop offset="1" stop-color="#656565"/></linearGradient><linearGradient><stop offset="0" stop-color="#4c4c4c"/><stop offset="1" stop-color="#656565"/></linearGradient><linearGradient><stop offset="0" stop-color="#4c4c4c"/><stop offset="1" stop-color="#656565"/></linearGradient><linearGradient><stop offset="0" stop-color="#4c4c4c"/><stop offset="1" stop-color="#656565"/></linearGradient><linearGradient><stop offset="0" stop-color="#4c4c4c"/><stop offset="1" stop-color="#656565"/></linearGradient><linearGradient><stop offset="0" stop-color="#4c4c4c"/><stop offset="1" stop-color="#656565"/></linearGradient><linearGradient><stop offset="0" stop-color="#4c4c4c"/><stop offset="1" stop-color="#656565"/></linearGradient><linearGradient><stop offset="0" stop-color="#4c4c4c"/><stop offset="1" stop-color="#656565"/></linearGradient><linearGradient><stop offset="0" stop-color="#4c4c4c"/><stop offset="1" stop-color="#656565"/></linearGradient><linearGradient><stop offset="0" stop-color="#4c4c4c"/><stop offset="1" stop-color="#656565"/></linearGradient><linearGradient><stop offset="0" stop-color="#4c4c4c"/><stop offset="1" stop-color="#656565"/></linearGradient><linearGradient><stop offset="0" stop-color="#4c4c4c"/><stop offset="1" stop-color="#656565"/></linearGradient><linearGradient><stop offset="0" stop-color="#4c4c4c"/><stop offset="1" stop-color="#656565"/></linearGradient><linearGradient><stop offset="0" stop-color="#4c4c4c"/><stop offset="1" stop-color="#656565"/></linearGradient><linearGradient><stop offset="0" stop-color="#4c4c4c"/><stop offset="1" stop-color="#656565"/></linearGradient><linearGradient><stop offset="0" stop-color="#4c4c4c"/><stop offset="1" stop-color="#656565"/></linearGradient><linearGradient><stop offset="0" stop-color="#4c4c4c"/><stop offset="1" stop-color="#656565"/></linearGradient><linearGradient><stop offset="0" stop-color="#4c4c4c"/><stop offset="1" stop-color="#656565"/></linearGradient><linearGradient><stop offset="0" stop-color="#4c4c4c"/><stop offset="1" stop-color="#656565"/></linearGradient><linearGradient><stop offset="0" stop-color="#4c4c4c"/><stop offset="1" stop-color="#656565"/></linearGradient><linearGradient><stop offset="0" stop-color="#4c4c4c"/><stop offset="1" stop-color="#656565"/></linearGradient><linearGradient><stop offset="0" stop-color="#4c4c4c"/><stop offset="1" stop-color="#656565"/></linearGradient><linearGradient><stop offset="0" stop-color="#4c4c4c"/><stop offset="1" stop-color="#656565"/></linearGradient><linearGradient><stop offset="0" stop-color="#4c4c4c"/><stop offset="1" stop-color="#656565"/></linearGradient><linearGradient><stop offset="0" stop-color="#4c4c4c"/><stop offset="1" stop-color="#656565"/></linearGradient><linearGradient><stop offset="0" stop-color="#4c4c4c"/><stop offset="1" stop-color="#656565"/></linearGradient><linearGradient><stop offset="0" stop-color="#4c4c4c"/><stop offset="1" stop-color="#656565"/></linearGradient><linearGradient><stop offset="0" stop-color="#4c4c4c"/><stop offset="1" stop-color="#656565"/></linearGradient><linearGradient><stop offset="0" stop-color="#4c4c4c"/><stop offset="1" stop-color="#656565"/></linearGradient><linearGradient><stop offset="0" stop-color="#4c4c4c"/><stop offset="1" stop-color="#656565"/></linearGradient><linearGradient><stop offset="0" stop-color="#4c4c4c"/><stop offset="1" stop-color="#656565"/></linearGradient><linearGradient><stop offset="0" stop-color="#4c4c4c"/><stop offset="1" stop-color="#656565"/></linearGradient><linearGradient><stop offset="0" stop-color="#4c4c4c"/><stop offset="1" stop-color="#656565"/></linearGradient><linearGradient><stop offset="0" stop-color="#4c4c4c"/><stop offset="1" stop-color="#656565"/></linearGradient><linearGradient><stop offset="0" stop-color="#4c4c4c"/><stop offset="1" stop-color="#656565"/></linearGradient><linearGradient><stop offset="0" stop-color="#4c4c4c"/><stop offset="1" stop-color="#656565"/></linearGradient><linearGradient><stop offset="0" stop-color="#4c4c4c"/><stop offset="1" stop-color="#656565"/></linearGradient><linearGradient><stop offset="0" stop-color="#4c4c4c"/><stop offset="1" stop-color="#656565"/></linearGradient><linearGradient><stop offset="0" stop-color="#4c4c4c"/><stop offset="1" stop-color="#656565"/></linearGradient><linearGradient><stop offset="0" stop-color="#4c4c4c"/><stop offset="1" stop-color="#656565"/></linearGradient><linearGradient><stop offset="0" stop-color="#4c4c4c"/><stop offset="1" stop-color="#656565"/></linearGradient><linearGradient><stop offset="0" stop-color="#4c4c4c"/><stop offset="1" stop-color="#656565"/></linearGradient><linearGradient><stop offset="0" stop-color="#4c4c4c"/><stop offset="1" stop-color="#656565"/></linearGradient><linearGradient><stop offset="0" stop-color="#4c4c4c"/><stop offset="1" stop-color="#656565"/></linearGradient><linearGradient><stop offset="0" stop-color="#4c4c4c"/><stop offset="1" stop-color="#656565"/></linearGradient><linearGradient><stop offset="0" stop-color="#4c4c4c"/><stop offset="1" stop-color="#656565"/></linearGradient><linearGradient><stop offset="0" stop-color="#4c4c4c"/><stop offset="1" stop-color="#656565"/></linearGradient><linearGradient><stop offset="0" stop-color="#4c4c4c"/><stop offset="1" stop-color="#656565"/></linearGradient><linearGradient><stop offset="0" stop-color="#4c4c4c"/><stop offset="1" stop-color="#656565"/></linearGradient><linearGradient><stop offset="0" stop-color="#4c4c4c"/><stop offset="1" stop-color="#656565"/></linearGradient><linearGradient><stop offset="0" stop-color="#4c4c4c"/><stop offset="1" stop-color="#656565"/></linearGradient><linearGradient><stop offset="0" stop-color="#4c4c4c"/><stop offset="1" stop-color="#656565"/></linearGradient><linearGradient><stop offset="0" stop-color="#4c4c4c"/><stop offset="1" stop-color="#656565"/></linearGradient><linearGradient><stop offset="0" stop-color="#4c4c4c"/><stop offset="1" stop-color="#656565"/></linearGradient><linearGradient><stop offset="0" stop-color="#4c4c4c"/><stop offset="1" stop-color="#656565"/></linearGradient><linearGradient><stop offset="0" stop-color="#4c4c4c"/><stop offset="1" stop-color="#656565"/></linearGradient><linearGradient><stop offset="0" stop-color="#4c4c4c"/><stop offset="1" stop-color="#656565"/></linearGradient><linearGradient><stop offset="0" stop-color="#4c4c4c"/><stop offset="1" stop-color="#656565"/></linearGradient><linearGradient><stop offset="0" stop-color="#4c4c4c"/><stop offset="1" stop-color="#656565"/></linearGradient><linearGradient><stop offset="0" stop-color="#4c4c4c"/><stop offset="1" stop-color="#656565"/></linearGradient><linearGradient><stop offset="0" stop-color="#4c4c4c"/><stop offset="1" stop-color="#656565"/></linearGradient><linearGradient><stop offset="0" stop-color="#4c4c4c"/><stop offset="1" stop-color="#656565"/></linearGradient><linearGradient><stop offset="0" stop-color="#4c4c4c"/><stop offset="1" stop-color="#656565"/></linearGradient><linearGradient><stop offset="0" stop-color="#4c4c4c"/><stop offset="1" stop-color="#656565"/></linearGradient><linearGradient><stop offset="0" stop-color="#4c4c4c"/><stop offset="1" stop-color="#656565"/></linearGradient><linearGradient><stop offset="0" stop-color="#4c4c4c"/><stop offset="1" stop-color="#656565"/></linearGradient><linearGradient><stop offset="0" stop-color="#4c4c4c"/><stop offset="1" stop-color="#656565"/></linearGradient><linearGradient><stop offset="0" stop-color="#4c4c4c"/><stop offset="1" stop-color="#656565"/></linearGradient><linearGradient><stop offset="0" stop-color="#4c4c4c"/><stop offset="1" stop-color="#656565"/></linearGradient><linearGradient><stop offset="0" stop-color="#4c4c4c"/><stop offset="1" stop-color="#656565"/></linearGradient><linearGradient><stop offset="0" stop-color="#4c4c4c"/><stop offset="1" stop-color="#656565"/></linearGradient><linearGradient><stop offset="0" stop-color="#4c4c4c"/><stop offset="1" stop-color="#656565"/></linearGradient><linearGradient><stop offset="0" stop-color="#4c4c4c"/><stop offset="1" stop-color="#656565"/></linearGradient><linearGradient><stop offset="0" stop-color="#4c4c4c"/><stop offset="1" stop-color="#656565"/></linearGradient><linearGradient><stop offset="0" stop-color="#4c4c4c"/><stop offset="1" stop-color="#656565"/></linearGradient><linearGradient><stop offset="0" stop-color="#4c4c4c"/><stop offset="1" stop-color="#656565"/></linearGradient><linearGradient><stop offset="0" stop-color="#4c4c4c"/><stop offset="1" stop-color="#656565"/></linearGradient><linearGradient><stop offset="0" stop-color="#4c4c4c"/><stop offset="1" stop-color="#656565"/></linearGradient><linearGradient><stop offset="0" stop-color="#4c4c4c"/><stop offset="1" stop-color="#656565"/></linearGradient><linearGradient><stop offset="0" stop-color="#4c4c4c"/><stop offset="1" stop-color="#656565"/></linearGradient><linearGradient><stop offset="0" stop-color="#4c4c4c"/><stop offset="1" stop-color="#656565"/></linearGradient><linearGradient><stop offset="0" stop-color="#4c4c4c"/><stop offset="1" stop-color="#656565"/></linearGradient><linearGradient><stop offset="0" stop-color="#4c4c4c"/><stop offset="1" stop-color="#656565"/></linearGradient><linearGradient><stop offset="0" stop-color="#4c4c4c"/><stop offset="1" stop-color="#656565"/></linearGradient><linearGradient><stop offset="0" stop-color="#4c4c4c"/><stop offset="1" stop-color="#656565"/></linearGradient><linearGradient><stop offset="0" stop-color="#4c4c4c"/><stop offset="1" stop-color="#656565"/></linearGradient><linearGradient><stop offset="0" stop-color="#4c4c4c"/><stop offset="1" stop-color="#656565"/></linearGradient><linearGradient><stop offset="0" stop-color="#4c4c4c"/><stop offset="1" stop-color="#656565"/></linearGradient><linearGradient><stop offset="0" stop-color="#4c4c4c"/><stop offset="1" stop-color="#656565"/></linearGradient><linearGradient><stop offset="0" stop-color="#4c4c4c"/><stop offset="1" stop-color="#656565"/></linearGradient><linearGradient><stop offset="0" stop-color="#4c4c4c"/><stop offset="1" stop-color="#656565"/></linearGradient><linearGradient><stop offset="0" stop-color="#4c4c4c"/><stop offset="1" stop-color="#656565"/></linearGradient><linearGradient><stop offset="0" stop-color="#4c4c4c"/><stop offset="1" stop-color="#656565"/></linearGradient><linearGradient><stop offset="0" stop-color="#4c4c4c"/><stop offset="1" stop-color="#656565"/></linearGradient><linearGradient><stop offset="0" stop-color="#4c4c4c"/><stop offset="1" stop-color="#656565"/></linearGradient><linearGradient><stop offset="0" stop-color="#4c4c4c"/><stop offset="1" stop-color="#656565"/></linearGradient><linearGradient><stop offset="0" stop-color="#4c4c4c"/><stop offset="1" stop-color="#656565"/></linearGradient><linearGradient><stop offset="0" stop-color="#4c4c4c"/><stop offset="1" stop-color="#656565"/></linearGradient><linearGradient><stop offset="0" stop-color="#4c4c4c"/><stop offset="1" stop-color="#656565"/></linearGradient><linearGradient><stop offset="0" stop-color="#4c4c4c"/><stop offset="1" stop-color="#656565"/></linearGradient><linearGradient><stop offset="0" stop-color="#4c4c4c"/><stop offset="1" stop-color="#656565"/></linearGradient><linearGradient><stop offset="0" stop-color="#4c4c4c"/><stop offset="1" stop-color="#656565"/></linearGradient><linearGradient><stop offset="0" stop-color="#4c4c4c"/><stop offset="1" stop-color="#656565"/></linearGradient><linearGradient><stop offset="0" stop-color="#4c4c4c"/><stop offset="1" stop-color="#656565"/></linearGradient><linearGradient><stop offset="0" stop-color="#4c4c4c"/><stop offset="1" stop-color="#656565"/></linearGradient><linearGradient><stop offset="0" stop-color="#4c4c4c"/><stop offset="1" stop-color="#656565"/></linearGradient><linearGradient id="a"><stop offset="0" stop-color="#4887d2"/><stop offset="1" stop-color="#71a2dc"/></linearGradient><linearGradient x1="1975.884" x2="3466.778" y1="-5656.661" y2="-6315.289" xlink:href="#a" gradientUnits="userSpaceOnUse"/><linearGradient x1="1975.884" x2="3466.778" y1="-5656.661" y2="-6315.289" xlink:href="#a" gradientUnits="userSpaceOnUse"/><linearGradient x1="1975.884" x2="3466.778" y1="-5656.661" y2="-6315.289" xlink:href="#a" gradientUnits="userSpaceOnUse" gradientTransform="translate(583.61 3916.609)"/><linearGradient x1="1975.884" x2="3466.778" y1="-5656.661" y2="-6315.289" xlink:href="#a" gradientUnits="userSpaceOnUse" gradientTransform="translate(137.304 1781.357)"/><linearGradient x1="1975.884" x2="3466.778" y1="-5656.661" y2="-6315.289" xlink:href="#a" gradientUnits="userSpaceOnUse" gradientTransform="translate(137.304 1781.357)"/><linearGradient x1="1975.884" x2="3466.778" y1="-5656.661" y2="-6315.289" xlink:href="#a" gradientUnits="userSpaceOnUse"/><linearGradient x1="1975.884" x2="3466.778" y1="-5656.661" y2="-6315.289" xlink:href="#a" gradientUnits="userSpaceOnUse"/><linearGradient x1="1975.884" x2="3466.778" y1="-5656.661" y2="-6315.289" xlink:href="#a" gradientUnits="userSpaceOnUse"/><linearGradient x1="1975.884" x2="3466.778" y1="-5656.661" y2="-6315.289" xlink:href="#a" gradientUnits="userSpaceOnUse" gradientTransform="translate(507.231 -1205.157)"/><linearGradient x1="1975.884" x2="3466.778" y1="-5656.661" y2="-6315.289" xlink:href="#a" gradientUnits="userSpaceOnUse" gradientTransform="translate(953.42 929.153)"/><linearGradient x1="1975.884" x2="3466.778" y1="-5656.661" y2="-6315.289" xlink:href="#a" gradientUnits="userSpaceOnUse" gradientTransform="translate(507.231 -1205.157)"/><marker orient="auto" overflow="visible"><path fill-rule="evenodd" stroke="#000" stroke-width=".8pt" d="M4.62 0L-2.3 4v-8l6.92 4z"/></marker><marker orient="auto" overflow="visible"><path fill-rule="evenodd" stroke="#000" stroke-width=".4pt" d="M2.3 0l-3.45 2v-4L2.3 0z"/></marker><marker orient="auto" overflow="visible"><path fill-rule="evenodd" stroke="#000" stroke-width=".4pt" d="M2.3 0l-3.45 2v-4L2.3 0z"/></marker><marker orient="auto" overflow="visible"><path fill-rule="evenodd" stroke="#000" stroke-width=".4pt" d="M2.3 0l-3.45 2v-4L2.3 0z"/></marker><marker orient="auto" overflow="visible"><path fill-rule="evenodd" stroke="#000" stroke-width=".4pt" d="M2.3 0l-3.45 2v-4L2.3 0z"/></marker><marker orient="auto" overflow="visible"><path fill-rule="evenodd" stroke="#000" stroke-width=".4pt" d="M2.3 0l-3.45 2v-4L2.3 0z"/></marker><marker orient="auto" overflow="visible"><path fill-rule="evenodd" stroke="#000" stroke-width=".4pt" d="M2.3 0l-3.45 2v-4L2.3 0z"/></marker><marker orient="auto" overflow="visible"><path fill-rule="evenodd" stroke="#000" stroke-width=".4pt" d="M2.3 0l-3.45 2v-4L2.3 0z"/></marker><marker orient="auto" overflow="visible"><path fill-rule="evenodd" stroke="#000" stroke-width=".4pt" d="M2.3 0l-3.45 2v-4L2.3 0z"/></marker><marker orient="auto" overflow="visible"><path fill-rule="evenodd" stroke="#000" stroke-width=".4pt" d="M2.3 0l-3.45 2v-4L2.3 0z"/></marker><marker orient="auto" overflow="visible"><path fill-rule="evenodd" stroke="#000" stroke-width=".4pt" d="M2.3 0l-3.45 2v-4L2.3 0z"/></marker><marker orient="auto" overflow="visible"><path fill-rule="evenodd" stroke="#000" stroke-width=".4pt" d="M2.3 0l-3.45 2v-4L2.3 0z"/></marker><marker orient="auto" overflow="visible"><path fill-rule="evenodd" stroke="#000" stroke-width=".4pt" d="M2.3 0l-3.45 2v-4L2.3 0z"/></marker><marker orient="auto" overflow="visible"><path fill-rule="evenodd" stroke="#000" stroke-width=".4pt" d="M2.3 0l-3.45 2v-4L2.3 0z"/></marker><marker orient="auto" overflow="visible"><path fill-rule="evenodd" stroke="#000" stroke-width=".8pt" d="M4.62 0L-2.3 4v-8l6.92 4z"/></marker><marker orient="auto" overflow="visible"><path fill-rule="evenodd" stroke="#000" stroke-width=".8pt" d="M4.62 0L-2.3 4v-8l6.92 4z"/></marker><marker orient="auto" overflow="visible"><path fill="#789440" fill-rule="evenodd" stroke="#789440" stroke-width=".8pt" d="M4.62 0L-2.3 4v-8l6.92 4z"/></marker><marker orient="auto" overflow="visible"><path fill="#789440" fill-rule="evenodd" stroke="#789440" stroke-width=".8pt" d="M4.62 0L-2.3 4v-8l6.92 4z"/></marker><marker orient="auto" overflow="visible"><path fill="#ffc000" fill-rule="evenodd" stroke="#ffc000" stroke-width=".8pt" d="M-4.62 0L2.3-4v8l-6.92-4z"/></marker><marker orient="auto" overflow="visible"><path fill="#ffc000" fill-rule="evenodd" stroke="#ffc000" stroke-width=".4pt" d="M2.3 0l-3.45 2v-4L2.3 0z"/></marker><marker orient="auto" overflow="visible"><path fill-rule="evenodd" stroke="#000" stroke-width=".8pt" d="M4.62 0L-2.3 4v-8l6.92 4z"/></marker><marker orient="auto" overflow="visible"><path fill="#c83737" fill-rule="evenodd" stroke="#c83737" stroke-width=".8pt" d="M10 0l4-4L0 0l14 4-4-4z"/></marker><marker orient="auto" overflow="visible"><path fill="#c83737" fill-rule="evenodd" stroke="#c83737" stroke-width=".8pt" d="M-10 0l-4 4L0 0l-14-4 4 4z"/></marker><marker orient="auto" overflow="visible"><path fill="#c83737" fill-rule="evenodd" stroke="#c83737" stroke-width=".8pt" d="M10 0l4-4L0 0l14 4-4-4z"/></marker><marker orient="auto" overflow="visible"><path fill="#c83737" fill-rule="evenodd" stroke="#c83737" stroke-width=".8pt" d="M-10 0l-4 4L0 0l-14-4 4 4z"/></marker><marker id="b" orient="auto" overflow="visible"><path fill="#c83737" fill-rule="evenodd" stroke="#c83737" stroke-width=".8pt" d="M10 0l4-4L0 0l14 4-4-4z"/></marker><marker id="c" orient="auto" overflow="visible"><path fill="#c83737" fill-rule="evenodd" stroke="#c83737" stroke-width=".8pt" d="M-10 0l-4 4L0 0l-14-4 4 4z"/></marker></defs><g><g><path fill="#ccc" stroke="#000" stroke-width="2" d="M1 75.57h673.12v780.77H1z" opacity=".98" stroke-linecap="round" stroke-linejoin="round"/><g fill="none" stroke="#000" stroke-width="1.486" style="line-height:125%;-inkscape-font-specification:'Equity Text A, Normal';text-align:start" font-size="625" font-family="Equity Text A" letter-spacing="0" word-spacing="0"><path d="M180.87 676.88l-48.8 12.62v29.44h177.5V689.5l-52.15-12.62V377.4h155.63v296.96L346.6 689.5v29.44h191.8V689.5l-48.8-12.62V377.4h53.84V353l-53.84-34.5V283.2q0-37.02-14.3-70.67-14.3-33.64-38.7-58.88-24.4-26.07-57.2-41.22-32.8-15.14-69.82-15.14-25.24 0-46.27 6.73-21.02 5.88-37 17.66-16 10.93-24.4 26.08-9.26 14.3-9.26 31.12 0 16.83 10.1 28.6Q212 218.4 234.7 218.4q20.2 0 30.3-11.78 10.1-12.62 18.5-26.92 8.4-15.14 18.5-26.92 10.1-12.62 31.13-12.62 19.35 0 34.5 12.62 15.14 12.62 25.23 32.8 10.1 20.2 15.14 44.6 5.05 24.4 5.05 47.95v55.52h-177.5l-32.8-10.93h-21.88v354.16z"/></g><g style="line-height:125%;-inkscape-font-specification:'Equity Text A, Normal';text-align:start" font-size="625" font-family="Equity Text A" letter-spacing="0" word-spacing="0"><path d="M494.37 1528.98l48.8 12.62v29.44h-177.5v-29.44l52.15-12.62V1229.5H262.18v296.96l66.46 15.14v29.44h-191.8v-29.44l48.8-12.62V1229.5h-53.85v-24.4l53.83-34.5v-35.32q0-37.02 14.3-70.67 14.3-33.64 38.7-58.88 24.4-26.07 57.2-41.22 32.8-15.14 69.83-15.14 25.24 0 46.27 6.73 21.03 5.88 37 17.66 16 10.93 24.4 26.08 9.26 14.3 9.26 31.12 0 16.83-10.1 28.6-9.26 10.94-31.97 10.94-20.2 0-30.3-11.78-10.08-12.62-18.5-26.92-8.4-15.14-18.5-26.92-10.1-12.62-31.13-12.62-19.35 0-34.5 12.62-15.13 12.62-25.23 32.8-10.1 20.2-15.14 44.6-5.05 24.4-5.05 47.95v55.52h177.5l32.82-10.93h21.87v354.16z"/></g><g stroke="#000"><path fill="#ccc" stroke-width="2" d="M813.88 75.57H1487v780.77H813.88z" opacity=".98" stroke-linecap="round" stroke-linejoin="round"/><g fill="none" stroke-width="2.304" style="line-height:125%;-inkscape-font-specification:'Equity Text A, Normal';text-align:start" font-size="625" font-family="Equity Text A" letter-spacing="0" word-spacing="0"><path d="M1048.88 684.74l-31.47 8.15v19h114.48v-19l-33.64-8.16V491.4h100.37v191.7l-42.85 9.8v19h123.7v-19l-31.48-8.16V491.4h34.72v-15.76l-34.73-22.27v-22.8q0-23.9-9.22-45.64-9.22-21.72-24.95-38.02-15.74-16.82-36.9-26.6-21.15-9.77-45.02-9.77-16.28 0-29.84 4.34-13.56 3.8-23.87 11.4-10.3 7.07-15.73 16.84-5.97 9.25-5.97 20.1 0 10.87 6.5 18.47 5.98 7.07 20.63 7.07 13.02 0 19.53-7.6 6.5-8.16 11.93-17.4 5.43-9.76 11.94-17.37 6.5-8.15 20.07-8.15 12.48 0 22.24 8.15 9.78 8.15 16.3 21.18 6.5 13.04 9.75 28.8 3.26 15.74 3.26 30.95v35.84h-114.46l-21.16-7.06h-14.1v228.66z"/></g></g><g stroke="#000" stroke-width="2.304" style="line-height:125%;-inkscape-font-specification:'Equity Text A, Normal';text-align:start" font-size="625" font-family="Equity Text A" letter-spacing="0" word-spacing="0"><path d="M1252 1542.32l31.47 8.15v19H1169v-19l33.63-8.15v-193.35h-100.36v191.73l42.86 9.77v19h-123.7v-19l31.47-8.15v-193.35h-34.72v-15.75l34.72-22.27v-22.8q0-23.9 9.23-45.63 9.22-21.73 24.95-38.02 15.73-16.84 36.9-26.6 21.15-9.8 45.02-9.8 16.27 0 29.84 4.36 13.56 3.8 23.87 11.4 10.3 7.06 15.74 16.84 5.97 9.23 5.97 20.1 0 10.86-6.5 18.46-5.97 7.06-20.62 7.06-13.02 0-19.53-7.6-6.5-8.15-11.93-17.38-5.43-9.78-11.94-17.38-6.5-8.15-20.07-8.15-12.47 0-22.23 8.16-9.77 8.14-16.28 21.18-6.52 13.03-9.77 28.8-3.26 15.74-3.26 30.94v35.85h114.47l21.16-7.06h14.1v228.65z"/></g><g fill="#c83737" style="line-height:125%;-inkscape-font-specification:'Equity Caps B Tab, Normal';text-align:start" font-size="27.5" font-family="Equity Caps B Tab" letter-spacing="0" word-spacing="0"><path d="M228.65 33.1l-6.2 15.23h-1.03l-5.9-15.3h-.32l-1.1 13.92 2.37.42v.96h-6v-.96l2.34-.42 1.33-16.44-2.72-.6v-1h5.23l5.86 15.2h.46l6.16-15.2h5.25v1l-2.78.66.8 16.4 2.5.4v.97h-7.65v-.96l2.5-.42-.7-13.86h-.4z"/><path d="M248.28 47.12l1.6-2.6h1.04l-.58 3.8h-11.82v-.9l2.03-.4V35.4l-2.03-.4v-.92h11.1l.37 3.4h-1.03l-1.43-2.2H243v5.16h2.92l.74-1.65h.74v4.58h-.74l-.74-1.82H243v5.56h5.28z"/><path d="M267.12 34.08l.66 4.02h-1.04l-1.82-2.86h-3.08V47l2.2.42v.9h-6.84v-.9l2.2-.4V35.23h-3.08l-1.85 2.86h-1l.65-4.02h13z"/><path d="M278.98 43.65h-5.12l-1.24 3.08 2.3.7v.9h-5.5v-.9l1.75-.7 5.1-12.65h1.55l5.1 12.93 1.64.42v.9h-6.22v-.9l1.96-.4-1.32-3.37zm-4.65-1.18h4.2l-1.95-5.03h-.22l-2.03 5.03z"/><path d="M287.66 48.33v-.9l2.04-.42V35.4l-2.04-.4v-.92h6.6v.9l-2.1.42v11.72h4.52l1.85-2.8h1.04l-.58 4h-11.34z"/><path d="M323.2 34.08l.66 4.02h-1.05l-1.8-2.86h-3.08V47l2.2.42v.9h-6.85v-.9l2.2-.4V35.23h-3.08l-1.85 2.86h-1.02l.66-4.02h13z"/><path d="M337.45 35.68l-2.23-.7v-.9h5.42v.9l-1.7.7-4.2 6.9V47l2.02.42v.9h-6.5v-.9l2.02-.4v-4.44l-4.15-7.18-1.76-.4v-.92h6.2v.9l-1.72.42 3.1 5.45h.4l3.1-5.17z"/><path d="M348.27 42.4V47l2.26.42v.9h-6.74v-.9l2.03-.4V35.4l-2.04-.4v-.92h6.95q.82 0 1.68.22.88.22 1.56.72.7.5 1.15 1.3.47.76.47 1.86 0 1.98-1.43 3.1-1.44 1.1-4 1.1h-1.93zm0-1.14h2.15q.52 0 1.02-.22t.85-.6q.35-.4.57-.9.22-.56.22-1.22 0-1.5-.8-2.2-.78-.72-1.94-.72h-2.1v5.86z"/><path d="M368.97 47.12l1.6-2.6h1.04l-.57 3.8H359.2v-.9l2.04-.4V35.4l-2.03-.4v-.92h11.12l.35 3.4h-1l-1.44-2.2h-4.54v5.16h2.9l.75-1.65h.74v4.58h-.75l-.75-1.82h-2.9v5.56h5.27z"/><path d="M382.73 48.33v-.9l2.04-.42V35.4l-2.04-.4v-.92h7.37q.55 0 1.27.17.7.14 1.34.52.67.36 1.1 1 .45.62.45 1.6 0 .92-.63 1.9-.6.97-1.98 1.4V41q.7.12 1.27.43.6.3 1.05.77.47.44.72 1.04.27.58.27 1.27 0 .9-.38 1.6-.36.7-1.05 1.18-.65.5-1.58.77-.94.28-2.1.28h-7.1zm9.57-4.02q0-.5-.2-1-.18-.5-.6-.88-.4-.4-1.04-.6-.63-.26-1.5-.26h-1.75V47h2.24q1.46 0 2.15-.76.7-.77.7-1.93zm-5.1-3.86h1.8q.74 0 1.24-.22.52-.22.82-.58.3-.4.42-.85.13-.48.13-.98 0-.68-.23-1.15-.22-.47-.58-.74-.37-.3-.84-.42-.46-.1-.9-.1h-1.85v5.04z"/><path d="M398.95 48.33v-.9L401 47V35.4l-2.05-.4v-.92h6.6v.9l-2.12.42v11.72h4.54l1.84-2.8h1.06l-.58 4h-11.33z"/><path d="M414.1 41.3q0-1.72.58-3.1.58-1.37 1.57-2.33 1-1 2.3-1.5 1.35-.53 2.87-.53 1.56 0 2.88.52 1.35.5 2.3 1.46.98.96 1.53 2.36.55 1.38.55 3.1 0 1.82-.58 3.23-.58 1.38-1.57 2.32-1 .93-2.3 1.4-1.33.47-2.8.47-1.53 0-2.87-.48-1.32-.5-2.3-1.43-1-.97-1.58-2.35-.58-1.37-.58-3.16zm2.75-.04q0 1.5.36 2.6.4 1.14 1 1.9.63.78 1.46 1.2.82.38 1.76.38.9 0 1.73-.33.82-.32 1.43-1.04.63-.7 1-1.87.37-1.2.37-2.84 0-1.5-.35-2.67-.36-1.2-.97-1.96-.6-.77-1.45-1.15-.83-.43-1.76-.43-.94 0-1.76.42-.83.37-1.46 1.17-.6.77-1 1.92-.35 1.15-.35 2.66z"/><path d="M440.3 47.34q1.84 0 2.92-.9 1.1-.94 1.65-2.68h.9v3.22q-1.12.72-2.42 1.2-1.26.5-3.16.5-1.55 0-2.9-.46-1.34-.5-2.36-1.43-1.02-.97-1.62-2.35-.58-1.37-.58-3.16 0-1.72.58-3.1.6-1.37 1.6-2.33 1-1 2.36-1.5 1.37-.53 2.9-.53 1.33 0 2.8.46 1.45.44 2.6 1.08v3.32h-.9q-.72-2-1.93-2.8-1.18-.83-2.56-.83-.97 0-1.82.44-.86.43-1.5 1.22-.62.8-1 1.96-.4 1.12-.4 2.58 0 1.38.45 2.5.44 1.13 1.13 1.93.7.8 1.56 1.23.86.4 1.68.4z"/><path d="M454.57 41.43V47l1.87.42v.9h-6.35v-.9l2.02-.4V35.4l-2.03-.4v-.92h6.48v.9l-2 .42v5.04h.65l5.14-4.9-1.95-.55v-.92h5.53v.9l-1.98.56-4.82 4.6 5.86 6.95 1.55.32v.9h-6.35v-.9l1.73-.4-4.7-5.6h-.66z"/></g><g fill="#c83737" style="line-height:125%;-inkscape-font-specification:'Equity Caps B Tab, Normal';text-align:start" font-size="27.5" font-family="Equity Caps B Tab" letter-spacing="0" word-spacing="0"><path d="M1041.5 33.1l-6.18 15.23h-1.04l-5.9-15.3h-.32l-1.1 13.92 2.37.42v.96h-6v-.96l2.34-.42L1027 30.5l-2.73-.6v-1h5.22l5.85 15.2h.47l6.16-15.2h5.25v1l-2.78.66.8 16.4 2.5.4v.97h-7.64v-.96l2.5-.42-.68-13.86h-.4z"/><path d="M1061.14 47.12l1.6-2.6h1.04l-.58 3.8h-11.82v-.9l2.03-.4V35.4l-2.02-.4v-.92h11.1l.37 3.4h-1.02l-1.43-2.2h-4.54v5.16h2.92l.74-1.65h.74v4.58h-.74l-.74-1.82h-2.92v5.56h5.28z"/><path d="M1079.98 34.08l.66 4.02h-1.04l-1.82-2.86h-3.08V47l2.2.42v.9h-6.85v-.9l2.2-.4V35.23h-3.08l-1.84 2.86h-1l.65-4.02h13z"/><path d="M1091.84 43.65h-5.12l-1.24 3.08 2.3.7v.9h-5.5v-.9l1.75-.7 5.1-12.65h1.55l5.1 12.93 1.64.42v.9h-6.22v-.9l1.96-.4-1.32-3.37zm-4.65-1.18h4.2l-1.96-5.03h-.22l-2.03 5.03z"/><path d="M1100.52 48.33v-.9l2.04-.42V35.4l-2.04-.4v-.92h6.6v.9l-2.1.42v11.72h4.52l1.85-2.8h1.03l-.58 4h-11.33z"/><path d="M1136.06 34.08l.66 4.02h-1.05l-1.8-2.86h-3.1V47l2.2.42v.9h-6.84v-.9l2.2-.4V35.23h-3.08l-1.84 2.86h-1l.65-4.02h13z"/><path d="M1150.3 35.68l-2.22-.7v-.9h5.42v.9l-1.7.7-4.2 6.9V47l2.02.42v.9h-6.5v-.9l2.02-.4v-4.44L1141 35.4l-1.77-.4v-.92h6.2v.9l-1.72.42 3.12 5.45h.38l3.1-5.17z"/><path d="M1161.13 42.4V47l2.26.42v.9h-6.75v-.9l2.04-.4V35.4l-2.05-.4v-.92h6.96q.83 0 1.7.22t1.55.72q.72.5 1.16 1.3.48.76.48 1.86 0 1.98-1.43 3.1-1.43 1.1-4 1.1h-1.92zm0-1.14h2.15q.52 0 1.02-.22t.85-.6q.36-.4.58-.9.22-.56.22-1.22 0-1.5-.8-2.2-.77-.72-1.93-.72h-2.1v5.86z"/><path d="M1181.83 47.12l1.6-2.6h1.04l-.58 3.8h-11.83v-.9l2.03-.4V35.4l-2.03-.4v-.92h11.1l.36 3.4h-1l-1.44-2.2h-4.55v5.16h2.9l.76-1.65h.75v4.58h-.74l-.74-1.82h-2.9v5.56h5.27z"/><path d="M1195.6 48.33v-.9l2.03-.42V35.4l-2.04-.4v-.92h7.36q.55 0 1.27.17.7.14 1.34.52.66.36 1.1 1 .44.62.44 1.6 0 .92-.62 1.9-.6.97-1.98 1.4V41q.7.12 1.27.43.6.3 1.04.77.48.44.73 1.04.27.58.27 1.27 0 .9-.38 1.6-.36.7-1.05 1.18-.66.5-1.6.77-.93.28-2.08.28h-7.1zm9.56-4.02q0-.5-.2-1-.18-.5-.6-.88-.4-.4-1.04-.6-.63-.26-1.5-.26h-1.75V47h2.23q1.46 0 2.15-.76.7-.77.7-1.93zm-5.1-3.86h1.8q.74 0 1.24-.22.52-.22.82-.58.3-.4.42-.85.13-.48.13-.98 0-.68-.24-1.15-.22-.47-.58-.74-.36-.3-.83-.42-.46-.1-.9-.1h-1.85v5.04z"/><path d="M1211.8 48.33v-.9l2.05-.42V35.4l-2.04-.4v-.92h6.6v.9l-2.1.42v11.72h4.53l1.84-2.8h1.05l-.58 4h-11.33z"/><path d="M1226.96 41.3q0-1.72.58-3.1.58-1.37 1.57-2.33 1-1 2.32-1.5 1.34-.53 2.86-.53 1.56 0 2.88.52 1.35.5 2.3 1.46.98.96 1.53 2.36.54 1.38.54 3.1 0 1.82-.58 3.23-.58 1.38-1.57 2.32-1 .93-2.32 1.4-1.32.47-2.8.47-1.52 0-2.86-.48-1.32-.5-2.3-1.43-1-.97-1.58-2.35-.58-1.37-.58-3.16zm2.75-.04q0 1.5.37 2.6.38 1.14 1 1.9.62.78 1.45 1.2.82.38 1.76.38.9 0 1.73-.33.83-.32 1.44-1.04.63-.7 1-1.87.37-1.2.37-2.84 0-1.5-.34-2.67-.36-1.2-.97-1.96-.6-.77-1.46-1.15-.83-.43-1.76-.43-.94 0-1.76.42-.83.37-1.46 1.17-.6.77-1 1.92-.35 1.15-.35 2.66z"/><path d="M1253.16 47.34q1.84 0 2.92-.9 1.1-.94 1.65-2.68h.9v3.22q-1.12.72-2.42 1.2-1.25.5-3.15.5-1.54 0-2.9-.46-1.33-.5-2.35-1.43-1.02-.97-1.62-2.35-.58-1.37-.58-3.16 0-1.72.58-3.1.6-1.37 1.6-2.33 1-1 2.36-1.5 1.37-.53 2.9-.53 1.33 0 2.8.46 1.45.44 2.6 1.08v3.32h-.9q-.72-2-1.93-2.8-1.17-.83-2.55-.83-.96 0-1.8.44-.87.43-1.5 1.22-.63.8-1.02 1.96-.38 1.12-.38 2.58 0 1.38.44 2.5.43 1.13 1.12 1.93.7.8 1.56 1.23.86.4 1.68.4z"/><path d="M1267.43 41.43V47l1.87.42v.9h-6.35v-.9l2.03-.4V35.4l-2.03-.4v-.92h6.5v.9l-2.02.42v5.04h.66l5.13-4.9-1.95-.55v-.92h5.53v.9l-1.97.56-4.82 4.6 5.87 6.95 1.54.32v.9h-6.34v-.9l1.73-.4-4.7-5.6h-.67z"/></g><path fill="#c83737" fill-rule="evenodd" stroke="#c83737" stroke-width="2" d="M729.07 86.4v766.75"/><g fill="#c83737" style="line-height:125%;-inkscape-font-specification:'Equity Caps B Tab, Normal';text-align:start" font-size="27.5" font-family="Equity Caps B Tab" letter-spacing="0" word-spacing="0"><path d="M749.6 302.64h.96l.4 2.48h16.68l.4-2.48h.97v8.03q0 .85-.2 1.93-.23 1.1-.78 2.06t-1.48 1.62q-.9.7-2.34.7-.55 0-1.15-.18-.6-.16-1.2-.57-.54-.4-1-1.02-.44-.62-.7-1.56h-.38q-.38 1.8-1.7 2.94-1.3 1.16-3.3 1.16-1.16 0-2.12-.52-.96-.5-1.65-1.43-.66-.95-1.04-2.27-.36-1.32-.36-2.94v-7.96zm5.42 12.3q.82 0 1.56-.28.75-.28 1.3-.85.57-.54.9-1.4.36-.85.36-1.98v-2.66h-8.17v3.2q0 1 .3 1.75.34.75.9 1.24.54.5 1.25.75.74.23 1.6.23zm5.47-7.18v2.72q0 1 .3 1.68.3.68.8 1.12.48.44 1.1.64.62.2 1.25.2 1.02 0 1.74-.3.7-.32 1.1-.84.45-.52.65-1.2.2-.7.2-1.47v-2.54h-7.16z"/><path d="M749.6 321.98h.9l.42 2.03h11.6l.42-2.02h.9v6.6h-.9l-.42-2.12h-11.7V331l2.8 1.84v1.04l-4.02-.57V322z"/><path d="M756.64 337.12q1.7 0 3.08.58 1.37.58 2.34 1.57 1 1 1.5 2.3.53 1.36.53 2.87 0 1.57-.53 2.9-.5 1.33-1.46 2.3-.95.96-2.35 1.5-1.38.56-3.1.56-1.83 0-3.23-.58-1.37-.58-2.3-1.57-.94-1-1.4-2.3-.48-1.33-.48-2.8 0-1.52.47-2.87.5-1.32 1.44-2.3.96-1 2.34-1.58 1.37-.58 3.16-.58zm.03 2.75q-1.5 0-2.62.36-1.12.4-1.9 1-.76.62-1.18 1.45-.38.82-.38 1.76 0 .9.32 1.73.33.83 1.04 1.43.72.63 1.87 1 1.2.38 2.84.38 1.5 0 2.66-.36 1.2-.36 1.96-.96t1.14-1.46q.4-.83.4-1.76 0-.94-.4-1.76-.38-.83-1.18-1.46-.77-.6-1.93-1-1.15-.35-2.66-.35z"/><path d="M750.6 363.32q0 1.85.9 2.92.93 1.1 2.66 1.65v.9h-3.2q-.73-1.13-1.22-2.42-.5-1.27-.5-3.17 0-1.53.47-2.87.5-1.35 1.44-2.37.96-1.02 2.34-1.62 1.37-.58 3.16-.58 1.7 0 3.08.58 1.37.6 2.34 1.6 1 1 1.5 2.36.53 1.37.53 2.9 0 1.33-.48 2.8-.44 1.45-1.07 2.6h-3.33v-.9q2-.72 2.8-1.93.83-1.18.83-2.56 0-.95-.44-1.8-.4-.85-1.2-1.5-.8-.62-1.95-1-1.13-.4-2.58-.4-1.38 0-2.5.45-1.13.44-1.93 1.13-.8.7-1.24 1.57-.4.85-.4 1.67z"/><path d="M756.5 377.6h-5.58l-.4 1.86h-.92v-6.35h.9l.42 2.04h11.6l.42-2.03h.9v6.5h-.9l-.42-2h-5.03v.65l4.9 5.14.54-1.96h.9v5.53h-.9l-.55-1.98-4.6-4.82-6.96 5.85-.33 1.54h-.9v-6.35h.9l.42 1.73 5.58-4.7v-.66z"/><path d="M763.84 405.17h-.9l-.42-2h-11.6l-.4 2h-.92v-6.5h.9l.42 2.05h11.6l.42-2.04h.9v6.5z"/><path d="M754.38 410.05v1.18q-1.9.42-2.9 1.35-1.03.94-1.03 2.34 0 1.15.66 1.84.67.72 1.7.72.46 0 .84-.14.4-.1.74-.47.36-.36.72-.96.38-.6.8-1.6.85-1.97 1.8-2.96.97-.96 2.4-.96.7 0 1.4.28.72.3 1.3.85.58.56.93 1.38.36.83.36 1.87 0 .94-.26 1.54-.22.63-.4 1.1l.4.98v.58l-4.3.5v-1.16q1.72-.52 2.52-1.43.8-.9.8-2 0-1.05-.58-1.68-.55-.65-1.6-.65-.93 0-1.57.8-.6.83-1.3 2.7-.7 1.76-1.68 2.66-.97.95-2.56.95-1.07 0-1.9-.4-.8-.34-1.35-.98-.5-.63-.78-1.5-.28-.86-.28-1.85 0-.72.25-1.5.2-.76.57-1.28l-.42-1.18v-.9h4.73z"/><path d="M765.66 432.9q.03 1.3.38 2.43.36 1.16 1 2.17l-.14 1.24h-15.93l-.4 2.9h-.97v-8.1h.96l.4 2.9h13.96q-.22-.97-.28-1.93-.03-.93.14-1.6h.88z"/><path d="M762.44 453.9q1.1 0 1.93-.65.82-.66.82-1.87 0-1.16-.83-2.2-.83-1.05-2.07-2.07l.88-.8q.58.37 1.27.95.7.58 1.3 1.35.6.77.98 1.68.4.9.4 1.95 0 1.04-.32 1.84-.3.8-.84 1.32-.55.54-1.26.82-.72.27-1.54.27-.83 0-1.8-.4-.95-.35-2-.96-1.02-.6-2.06-1.4-1.05-.77-2-1.6-.94-.8-1.77-1.6-.8-.76-1.35-1.4l-.38.17v6.17l1.87 1.24-.36.92-3.7-1.54v-10.2l.88-.33q.58.7 1.4 1.6.83.9 1.82 1.83 1 .94 2.1 1.82 1.1.88 2.24 1.57 1.16.68 2.26 1.1 1.12.44 2.14.44z"/><path d="M755.54 472.77h-4.62l-.4 2.25h-.92v-6.74h.9l.42 2.04h11.6l.42-2.04h.9v6.96q0 .83-.22 1.68-.22.88-.7 1.57-.5.7-1.3 1.14-.77.47-1.87.47-1.98 0-3.1-1.42-1.1-1.43-1.1-4v-1.9zm1.13 0v2.14q0 .53.22 1.03.2.5.6.85.38.36.9.58.55.22 1.2.22 1.5 0 2.2-.8.72-.77.72-1.92v-2.1h-5.85z"/><path d="M756.64 483.75q1.7 0 3.08.58 1.37.58 2.34 1.57 1 1 1.5 2.3.53 1.36.53 2.87 0 1.57-.53 2.9-.5 1.33-1.46 2.3-.95.96-2.35 1.5-1.38.56-3.1.56-1.83 0-3.23-.58-1.37-.58-2.3-1.57-.94-1-1.4-2.3-.48-1.33-.48-2.8 0-1.52.47-2.87.5-1.3 1.44-2.3.96-1 2.34-1.57 1.37-.58 3.16-.58zm.03 2.75q-1.5 0-2.62.36-1.12.4-1.9 1-.76.62-1.18 1.45-.38.83-.38 1.77 0 .9.32 1.73.33.83 1.04 1.43.72.63 1.87 1 1.2.38 2.84.38 1.5 0 2.66-.35 1.2-.36 1.96-.96.76-.62 1.14-1.47.4-.83.4-1.76 0-.94-.4-1.76-.38-.82-1.18-1.45-.77-.6-1.93-1-1.15-.35-2.66-.35z"/><path d="M763.84 509.1h-.9l-.42-2h-11.6l-.4 2h-.92v-6.5h.9l.42 2.05h11.6l.42-2.04h.9v6.5z"/><path d="M754.05 525.53h8.2l.7-2.3h.9v5.55h-.9l-.7-1.87H749.4v-.68l11.42-9.63v-.34h-9.63l-.7 2.3h-.9v-5.35h.9l.7 1.7h11.32l.42-1.7h.9v3.72l-9.8 8.28v.33z"/><path d="M763.84 545.18l-4 .66v-1.05l2.85-1.82v-3.08H750.9l-.4 2.2h-.92v-6.85h.9l.42 2.2h11.77v-3.08l-2.87-1.84v-1.02l4 .67v13z"/><path d="M763.84 571.95h-.9l-.42-2.03h-11.6l-.4 2.03h-.92v-6.52h.9l.42 2.04h5.44v-7.2h-5.44l-.4 2h-.92v-6.5h.9l.42 2.05h11.6l.42-2.04h.9v6.5h-.9l-.42-2.02h-5.03v7.2h5.02l.42-2.03h.9v6.52z"/><path d="M750.8 585.68l2.6 1.6v1.04l-3.8-.57v-11.83h.9l.42 2.04h11.6l.42-2.04h.9v11.1l-3.4.37v-1.03l2.2-1.43v-4.54h-5.15v2.92l1.64.74v.74h-4.6v-.74l1.82-.74v-2.92h-5.55v5.28z"/><path d="M763.84 598.53h-.9l-.42-2h-11.6l-.4 2h-.92v-6.5h.9l.42 2.05h11.6l.42-2.04h.9v6.5z"/><path d="M750.6 610.23q0 .8.15 1.6.2.8.66 1.4h3.86l.53-2.45h.9v6.65h-.9l-.43-1.76h-4.62q-.22-.38-.5-.9-.27-.5-.5-1.2-.2-.65-.34-1.5-.16-.82-.16-1.84 0-1.5.47-2.83.5-1.32 1.44-2.34.96-1.02 2.34-1.62 1.37-.6 3.16-.6 1.7 0 3.08.57 1.37.6 2.34 1.6 1 1.02 1.5 2.37.53 1.37.53 2.9 0 1.33-.48 2.8-.44 1.45-1.07 2.6h-3.33v-.9q2-.72 2.8-1.93.83-1.18.83-2.56 0-.96-.38-1.8-.4-.86-1.18-1.5-.78-.63-1.94-1-1.15-.4-2.7-.4-1.4 0-2.52.36-1.13.38-1.93 1.02-.76.63-1.2 1.45-.4.87-.4 1.83z"/><path d="M763.84 636.94h-.9l-.42-2.03h-11.6l-.4 2.04h-.92v-6.52h.9l.42 2.04h5.44v-7.2h-5.44l-.4 2h-.92v-6.5h.9l.42 2.05h11.6l.42-2.03h.9v6.5h-.9l-.42-2.02h-5.03v7.2h5.02l.42-2.03h.9v6.52z"/></g><g fill="#c83737" style="line-height:135.00000238%;-inkscape-font-specification:'Equity Caps B Tab, Normal';text-align:center" font-size="27.5" font-family="Equity Caps B Tab" letter-spacing="0" word-spacing="0" text-anchor="middle"><path d="M610.98 1242.64v7.15l2.72.4v.96h-7.86v-.96l2.47-.4v-16.68l-2.46-.4v-.97h6.95q1.18 0 2.4.3t2.2.96q.98.67 1.58 1.72.63 1.04.63 2.56 0 2.5-1.83 3.93-1.84 1.44-5.1 1.44h-1.7zm0-1.27h2.06q.77 0 1.46-.27.7-.28 1.24-.77.52-.52.82-1.24.3-.75.3-1.66 0-1.18-.3-1.98-.27-.82-.82-1.32-.53-.52-1.27-.74-.74-.22-1.68-.22h-1.82v8.2z"/><path d="M631.65 1244.37q.6.28 1.1 1 .52.7 1.02 1.56.52.82 1.07 1.65.55.8 1.2 1.26l1.3.42v.9h-3.08q-.82-.52-1.46-1.45-.6-.96-1.18-1.95-.58-1-1.2-1.87-.6-.85-1.44-1.18h-1.1v5.14l2 .42v.9h-6.48v-.9l2.03-.42v-11.6l-2.03-.4v-.92h7.37q.58 0 1.32.16.76.14 1.42.55.7.42 1.15 1.16.47.7.47 1.86 0 1.18-.88 2.17-.88 1-2.6 1.3v.24zm-3.77-.8h1.65q.8 0 1.38-.27.58-.28.94-.7.4-.4.55-.9.16-.5.16-.96 0-1.37-.7-1.92-.65-.58-1.53-.58h-2.45v5.33z"/><path d="M647.24 1236.92v.9l-2 .42v11.6l2 .42v.9h-6.5v-.9l2.05-.42v-11.6l-2.05-.4v-.92h6.5z"/><path d="M663.67 1246.7v-8.2l-2.3-.67v-.9h5.55v.9l-1.87.68v12.86h-.7l-9.6-11.42h-.34v9.63l2.32.7v.9h-5.37v-.9l1.68-.7v-11.33l-1.68-.4v-.92h3.72l8.27 9.8h.33z"/><path d="M683.32 1236.92l.66 4h-1.05l-1.8-2.85h-3.1v11.77l2.2.42v.9h-6.84v-.9l2.2-.42v-11.77h-3.1l-1.83 2.86h-1.02l.66-4h13.02z"/><path d="M696.8 1249.95l1.6-2.58h1.05l-.58 3.8h-11.82v-.9l2.03-.43v-11.6l-2.03-.4v-.92h11.1l.36 3.4h-1l-1.43-2.2h-4.54v5.15h2.9l.76-1.65h.73v4.6h-.74l-.76-1.82h-2.9v5.55h5.27z"/><path d="M702.9 1251.16v-.9l2.03-.42v-11.6l-2.04-.4v-.92h6.48q1.82 0 3.25.5 1.45.5 2.47 1.42 1.02.9 1.54 2.26.55 1.35.55 3.02 0 1.7-.64 3.03-.6 1.32-1.68 2.23-1.07.88-2.56 1.34-1.45.44-3.2.44h-6.23zm6.23-1.32q1.08 0 2.07-.3 1-.33 1.73-1 .74-.68 1.18-1.78.45-1.1.45-2.66 0-1.43-.4-2.53-.42-1.1-1.14-1.85-.68-.74-1.64-1.1-.93-.38-2-.38h-2v11.6h1.77z"/><path d="M736.5 1250.17q1.85 0 2.92-.9 1.1-.94 1.65-2.67h.9v3.22q-1.12.7-2.4 1.2-1.28.5-3.17.5-1.54 0-2.9-.47-1.34-.5-2.36-1.43-1-.96-1.62-2.33-.58-1.4-.58-3.18 0-1.7.58-3.08.6-1.37 1.6-2.33 1-.98 2.36-1.5 1.38-.53 2.92-.53 1.32 0 2.77.47 1.46.44 2.62 1.07v3.34h-.92q-.72-2-1.93-2.8-1.18-.83-2.55-.83-.97 0-1.82.45-.85.4-1.48 1.2-.64.8-1.02 1.96-.4 1.14-.4 2.6 0 1.37.45 2.5.44 1.13 1.13 1.92.72.8 1.57 1.24.85.4 1.68.4z"/><path d="M762.46 1236.92v.9l-2.04.42v11.6l2.04.42v.9h-6.52v-.9l2.04-.42v-5.44h-7.2v5.44l2 .42v.9h-6.5v-.9l2.04-.42v-11.6l-2.03-.4v-.92h6.48v.9l-2 .42v5.03h7.2v-5.03l-2.04-.4v-.92h6.52z"/><path d="M775.1 1246.5h-5.12l-1.24 3.07 2.3.7v.9h-5.5v-.9l1.74-.7 5.12-12.65h1.54l5.1 12.92 1.64.42v.9h-6.22v-.9l1.95-.42-1.3-3.35zm-4.65-1.2h4.2l-1.95-5.03h-.22l-2.03 5.04z"/><path d="M792.03 1244.37q.6.28 1.1 1 .52.7 1.02 1.56.52.82 1.07 1.65.55.8 1.2 1.26l1.3.42v.9h-3.08q-.82-.52-1.45-1.45-.62-.96-1.2-1.95-.57-1-1.2-1.87-.6-.85-1.44-1.18h-1.1v5.14l2 .42v.9h-6.48v-.9l2.04-.42v-11.6l-2.04-.4v-.92h7.37q.58 0 1.32.16.77.14 1.43.55.7.42 1.16 1.16.46.7.46 1.86 0 1.18-.88 2.17-.88 1-2.6 1.3v.24zm-3.77-.8h1.65q.8 0 1.4-.27.57-.28.92-.7.4-.4.55-.9.17-.5.17-.96 0-1.37-.7-1.92-.65-.58-1.53-.58h-2.44v5.33z"/><path d="M809.8 1246.5h-5.12l-1.24 3.07 2.3.7v.9h-5.5v-.9l1.74-.7 5.12-12.65h1.54l5.08 12.92 1.65.42v.9h-6.2v-.9l1.94-.42-1.3-3.35zm-4.66-1.2h4.2l-1.94-5.03h-.22l-2.04 5.04z"/><path d="M825.83 1250.17q1.84 0 2.9-.9 1.1-.94 1.66-2.67h.9v3.22q-1.13.7-2.42 1.2-1.27.5-3.16.5-1.54 0-2.9-.47-1.34-.5-2.36-1.43-1-.96-1.62-2.33-.58-1.4-.58-3.18 0-1.7.58-3.08.6-1.37 1.6-2.33 1-.98 2.36-1.5 1.38-.53 2.92-.53 1.32 0 2.77.47 1.45.44 2.6 1.07v3.34h-.9q-.72-2-1.93-2.8-1.18-.83-2.55-.83-.97 0-1.82.45-.85.4-1.48 1.2-.64.8-1.02 1.96-.4 1.14-.4 2.6 0 1.37.45 2.5.44 1.13 1.13 1.92.72.8 1.57 1.24.85.4 1.68.4z"/><path d="M848.1 1236.92l.66 4h-1.04l-1.82-2.85h-3.08v11.77l2.2.42v.9h-6.84v-.9l2.2-.42v-11.77h-3.08l-1.85 2.86h-1l.65-4h13z"/><path d="M861.6 1249.95l1.6-2.58h1.03l-.57 3.8h-11.83v-.9l2.04-.43v-11.6l-2.04-.4v-.92h11.1l.37 3.4h-1.02l-1.43-2.2h-4.54v5.15h2.93l.74-1.65h.74v4.6h-.73l-.74-1.82h-2.92v5.55h5.3z"/><path d="M875.93 1244.37q.6.28 1.1 1 .52.7 1 1.56.54.82 1.1 1.65.54.8 1.2 1.26l1.3.42v.9h-3.1q-.82-.52-1.45-1.45-.6-.96-1.18-1.95-.58-1-1.2-1.87-.62-.85-1.44-1.18h-1.1v5.14l2 .42v.9h-6.48v-.9l2.03-.42v-11.6l-2.02-.4v-.92h7.37q.57 0 1.32.16.77.14 1.43.55.68.42 1.15 1.16.47.7.47 1.86 0 1.18-.88 2.17-.88 1-2.6 1.3v.24zm-3.77-.8h1.65q.8 0 1.38-.27.58-.28.94-.7.38-.4.55-.9.16-.5.16-.96 0-1.37-.68-1.92-.66-.58-1.54-.58h-2.44v5.33z"/><path d="M885.4 1246.38h1.17q.4 1.9 1.35 2.9.93 1.03 2.34 1.03 1.15 0 1.84-.65.7-.66.7-1.68 0-.46-.12-.85-.1-.38-.47-.74-.35-.36-.95-.72-.6-.38-1.6-.8-1.98-.85-2.97-1.8-.96-.97-.96-2.4 0-.7.27-1.4.3-.72.85-1.3.55-.57 1.37-.93.83-.36 1.87-.36.93 0 1.53.25.63.22 1.1.4l1-.4h.57l.5 4.32h-1.16q-.52-1.74-1.43-2.53-.9-.8-2-.8-1.04 0-1.68.6-.63.54-.63 1.58 0 .94.8 1.57.8.6 2.68 1.32 1.76.7 2.67 1.68.94.96.94 2.55 0 1.08-.4 1.9-.36.8-1 1.35-.62.52-1.5.8-.85.27-1.84.27-.72 0-1.5-.25-.76-.22-1.28-.57l-1.18.4h-.9v-4.72z"/><path d="M916.03 1246.5h-5.1l-1.25 3.07 2.3.7v.9h-5.5v-.9l1.74-.7 5.12-12.65h1.54l5.08 12.92 1.65.42v.9h-6.2v-.9l1.95-.42-1.32-3.35zm-4.65-1.2h4.2l-1.94-5.03h-.22l-2.04 5.04z"/><path d="M932.97 1244.37q.6.28 1.1 1 .52.7 1.02 1.56.5.82 1.06 1.65.55.8 1.2 1.26l1.3.42v.9h-3.08q-.82-.52-1.46-1.45-.6-.96-1.18-1.95-.58-1-1.2-1.87-.6-.85-1.44-1.18h-1.1v5.14l2 .42v.9h-6.48v-.9l2.03-.42v-11.6l-2.03-.4v-.92h7.37q.57 0 1.3.16.78.14 1.44.55.7.42 1.15 1.16.46.7.46 1.86 0 1.18-.88 2.17-.88 1-2.6 1.3v.24zm-3.77-.8h1.65q.8 0 1.38-.27.57-.28.93-.7.4-.4.55-.9.18-.5.18-.96 0-1.37-.7-1.92-.65-.58-1.53-.58h-2.45v5.33z"/><path d="M951.56 1249.95l1.6-2.58h1.04l-.58 3.8H941.8v-.9l2.03-.43v-11.6l-2.03-.4v-.92h11.1l.37 3.4h-1.02l-1.43-2.2h-4.54v5.15h2.92l.74-1.65h.74v4.6h-.74l-.74-1.82h-2.92v5.55h5.28z"/><path d="M652.7 1274.04l.66 4.02h-1.04l-1.82-2.86h-3.08v11.77l2.2.4v.92h-6.85v-.92l2.2-.4v-11.78h-3.08l-1.85 2.86h-1.02l.66-4.02h13z"/><path d="M672.6 1274.04v.9l-2.03.42v11.6l2.03.42v.9h-6.52v-.9l2.04-.4v-5.46h-7.2v5.45l2 .4v.92h-6.5v-.92l2.05-.4v-11.62l-2.04-.4v-.92h6.5v.9l-2.02.42v5.04h7.22v-5.04l-2.04-.4v-.92h6.52z"/><path d="M686.34 1287.08l1.6-2.6h1.04l-.58 3.8h-11.83v-.9l2.04-.4v-11.62l-2.03-.4v-.92h11.1l.37 3.4h-1.02l-1.43-2.2h-4.54v5.16h2.9l.75-1.65h.76v4.6h-.75l-.73-1.83h-2.9v5.56h5.27z"/><path d="M700.73 1283.5h1.18q.43 1.9 1.36 2.92.94 1.02 2.34 1.02 1.15 0 1.84-.66.72-.66.72-1.68 0-.47-.14-.85-.1-.4-.47-.75-.36-.35-.96-.7-.62-.4-1.6-.8-2-.86-2.98-1.82-.96-.97-.96-2.4 0-.68.28-1.4.3-.7.85-1.3.54-.57 1.36-.93.83-.35 1.87-.35.94 0 1.54.24.64.22 1.1.42l1-.42h.57l.5 4.32h-1.16q-.52-1.73-1.43-2.53-.9-.8-2-.8-1.05 0-1.68.58-.64.56-.64 1.6 0 .94.8 1.57.83.6 2.7 1.32 1.76.68 2.66 1.67.93.96.93 2.56 0 1.07-.4 1.9-.34.8-.98 1.34-.63.53-1.5.8-.86.28-1.85.28-.72 0-1.5-.25-.76-.22-1.28-.58l-1.18.4h-.9v-4.72z"/><path d="M723.42 1283.6h-5.1l-1.25 3.1 2.3.68v.9h-5.5v-.9l1.74-.7 5.13-12.64h1.54l5.1 12.93 1.64.4v.92h-6.2v-.92l1.94-.4-1.32-3.37zm-4.64-1.17h4.2l-1.95-5.03h-.22l-2.02 5.03z"/><path d="M745.75 1277.34l-4.54 10.98h-.78l-4.35-10.98h-.3l-.9 9.35 1.97.68v.9h-5.14v-.9l1.8-.7 1.1-11.32-2.1-.4v-.92h4.6l4.1 10.26h.4l4.26-10.26h4.7v.9l-2.28.42.8 11.6 2.06.42v.9h-6.5v-.9l2.07-.4-.62-9.64h-.33z"/><path d="M764.43 1287.08l1.6-2.6h1.04l-.58 3.8h-11.83v-.9l2.03-.4v-11.62l-2.03-.4v-.92h11.1l.37 3.4h-1.02l-1.43-2.2h-4.55v5.16h2.92l.74-1.65h.75v4.6h-.74l-.73-1.83h-2.92v5.56h5.28z"/><path d="M782.68 1282.35v4.62l2.25.4v.92h-6.74v-.92l2.03-.4v-11.62l-2.04-.4v-.92h6.95q.83 0 1.68.22.88.22 1.57.72.7.5 1.15 1.3.47.76.47 1.86 0 1.98-1.43 3.1-1.44 1.1-4 1.1h-1.92zm0-1.13h2.14q.52 0 1.02-.22t.85-.6q.35-.4.57-.9.22-.56.22-1.22 0-1.5-.8-2.2-.78-.72-1.93-.72h-2.1v5.86z"/><path d="M793.66 1281.25q0-1.7.58-3.08.58-1.38 1.57-2.34 1-1 2.32-1.5 1.35-.53 2.86-.53 1.57 0 2.9.52 1.33.5 2.3 1.46.96.96 1.5 2.36.56 1.38.56 3.1 0 1.82-.58 3.23-.58 1.37-1.57 2.3-1 .94-2.32 1.4-1.32.48-2.8.48-1.5 0-2.86-.47-1.32-.5-2.3-1.43-1-.96-1.58-2.34-.58-1.36-.58-3.15zm2.75-.03q0 1.5.37 2.6.4 1.14 1 1.9.62.78 1.45 1.2.82.38 1.76.38.9 0 1.73-.33.84-.33 1.44-1.05.63-.7 1-1.87.38-1.18.38-2.83 0-1.5-.36-2.67-.36-1.18-.96-1.95t-1.46-1.15q-.83-.42-1.76-.42-.94 0-1.76.42-.83.38-1.46 1.18-.6.77-1 1.92-.35 1.16-.35 2.67z"/><path d="M819 1274.04v.9l-2 .42v11.6l2 .42v.9h-6.48v-.9l2.04-.4v-11.62l-2.04-.4v-.92h6.5z"/><path d="M835.44 1283.83v-8.2l-2.3-.68v-.9h5.55v.9l-1.88.7v12.83h-.7l-9.62-11.4h-.33v9.6l2.3.7v.9h-5.35v-.9l1.68-.7v-11.32l-1.68-.4v-.92h3.7l8.3 9.8h.32z"/><path d="M855.1 1274.04l.65 4.02h-1.05l-1.8-2.86h-3.1v11.77l2.2.4v.92h-6.84v-.92l2.2-.4v-11.78h-3.08l-1.84 2.86h-1.02l.66-4.02h13z"/><path d="M866.32 1283.5h1.18q.42 1.9 1.35 2.92.94 1.02 2.34 1.02 1.14 0 1.83-.66.72-.66.72-1.68 0-.47-.14-.85-.1-.4-.46-.75t-.96-.7q-.6-.4-1.6-.8-1.98-.86-2.97-1.82-.95-.97-.95-2.4 0-.68.28-1.4.3-.7.85-1.3.55-.57 1.37-.93.83-.35 1.87-.35.94 0 1.54.24.64.22 1.1.42l1-.42h.57l.5 4.32h-1.16q-.52-1.73-1.43-2.53-.9-.8-2-.8-1.05 0-1.68.58-.64.56-.64 1.6 0 .94.8 1.57.83.6 2.7 1.32 1.76.68 2.66 1.67.94.96.94 2.56 0 1.07-.4 1.9-.34.8-.98 1.34-.63.53-1.5.8-.86.28-1.85.28-.73 0-1.5-.25-.77-.22-1.3-.58l-1.17.4h-.9v-4.72z"/><path d="M887.4 1274.04v.9l-2.02.42v11.6l2 .42v.9h-6.48v-.9l2.03-.4v-11.62l-2.03-.4v-.92h6.5z"/><path d="M891.58 1288.3l-.28-.56 8.97-12.16-.17-.33h-5.64l-1.8 3.08h-1.06l.83-4.3h11.3l.28.43-9.18 12.34.14.28h6.16L903 1284h1.03l-.82 4.3H891.6z"/><path d="M917.45 1287.08l1.6-2.6h1.04l-.58 3.8H907.7v-.9l2.03-.4v-11.62l-2.04-.4v-.92h11.1l.36 3.4h-1.02l-1.43-2.2h-4.53v5.16h2.92l.73-1.65h.74v4.6h-.74l-.74-1.83h-2.93v5.56h5.28z"/><path d="M656.98 1343.12l1.27 5.28h-1.07l-2.78-4.1h-4.3v16.86l2.6.42v.96h-7.82v-.96l2.6-.42v-16.85h-4.3l-2.78 4.1h-1.07l1.26-5.28h16.38z"/><path d="M676.6 1348.3v.9l-2.03.4v11.62l2.03.4v.92h-6.5v-.9l2.02-.42v-5.45h-7.2v5.45l2 .4v.92h-6.5v-.9l2.05-.42v-11.6l-2.04-.42v-.9h6.5v.9l-2 .4v5.05h7.2v-5.04l-2.04-.4v-.9h6.5z"/><path d="M687.34 1348.3v.9l-2 .4v11.62l2 .4v.92h-6.5v-.9l2.04-.42v-11.6l-2.03-.42v-.9h6.5z"/><path d="M692.22 1357.75h1.18q.4 1.9 1.35 2.92.93 1.02 2.34 1.02 1.14 0 1.83-.67.7-.66.7-1.68 0-.47-.12-.85-.1-.4-.46-.75t-.96-.7q-.6-.4-1.6-.8-1.98-.86-2.97-1.82-.95-.97-.95-2.4 0-.68.27-1.4.3-.7.86-1.3.55-.57 1.37-.93.83-.35 1.87-.35.94 0 1.54.24.63.2 1.1.4l1-.4h.57l.5 4.3h-1.16q-.52-1.72-1.43-2.52-.9-.8-2-.8-1.05 0-1.7.58-.62.55-.62 1.6 0 .93.8 1.56.82.6 2.7 1.32 1.75.7 2.66 1.68.94.96.94 2.56 0 1.07-.4 1.9-.35.8-.98 1.34-.63.53-1.5.8-.86.28-1.85.28-.73 0-1.5-.25-.77-.22-1.3-.58l-1.17.4h-.9v-4.72z"/><path d="M720.96 1348.3v.9l-2 .4v11.62l2 .4v.92h-6.5v-.9l2.05-.42v-11.6l-2.03-.42v-.9h6.5z"/><path d="M725.84 1357.75h1.18q.42 1.9 1.35 2.92.94 1.02 2.34 1.02 1.16 0 1.85-.67.72-.66.72-1.68 0-.47-.14-.85-.1-.4-.47-.75-.36-.35-.96-.7-.6-.4-1.6-.8-1.98-.86-2.97-1.82-.96-.97-.96-2.4 0-.68.28-1.4.3-.7.85-1.3.55-.57 1.37-.93.83-.35 1.87-.35.94 0 1.54.24.64.2 1.1.4l1-.4h.57l.5 4.3h-1.16q-.53-1.72-1.44-2.52-.9-.8-2-.8-1.05 0-1.68.58-.64.55-.64 1.6 0 .93.8 1.56.83.6 2.7 1.32 1.76.7 2.66 1.68.94.96.94 2.56 0 1.07-.4 1.9-.34.8-.98 1.34-.63.53-1.5.8-.86.28-1.85.28-.7 0-1.48-.25-.77-.22-1.3-.58l-1.17.4h-.9v-4.72z"/><path d="M747.82 1362.54v-.9l2.04-.42v-11.6l-2.04-.42v-.9h7.37q.54 0 1.26.16.7.14 1.34.52.66.36 1.1 1 .44.62.44 1.6 0 .92-.63 1.9-.6.97-1.97 1.4v.32q.7.13 1.27.44.6.3 1.04.77.47.45.72 1.05.27.58.27 1.27 0 .88-.38 1.6-.36.68-1.05 1.17-.66.5-1.6.76-.93.28-2.08.28h-7.1zm9.57-4.02q0-.52-.2-1-.2-.5-.6-.9-.42-.38-1.05-.6-.63-.25-1.5-.25h-1.75v5.45h2.23q1.46 0 2.15-.77.7-.77.7-1.93zm-5.1-3.87h1.8q.73 0 1.23-.22.52-.22.82-.58.3-.4.42-.85.13-.47.13-.97 0-.68-.24-1.15-.22-.47-.58-.74-.36-.3-.83-.42-.46-.1-.9-.1h-1.85v5.03z"/><path d="M773.8 1361.33l1.6-2.6h1.04l-.57 3.8h-11.83v-.9l2.04-.4v-11.62l-2.04-.4v-.9h11.1l.37 3.4h-1l-1.44-2.2h-4.54v5.15h2.92l.74-1.65h.74v4.6h-.74l-.74-1.83h-2.92v5.56h5.28z"/><path d="M787.5 1361.55q1.85 0 2.92-.9 1.1-.94 1.65-2.68h.9v3.22q-1.12.7-2.4 1.2-1.28.5-3.18.5-1.55 0-2.9-.47-1.34-.5-2.36-1.43-1.02-.96-1.62-2.34-.58-1.37-.58-3.16 0-1.7.58-3.08.6-1.38 1.6-2.34 1-1 2.36-1.5 1.37-.53 2.9-.53 1.33 0 2.8.46 1.45.45 2.6 1.1v3.3h-.9q-.72-2-1.93-2.8-1.18-.82-2.56-.82-.97 0-1.82.44-.85.42-1.5 1.2-.62.8-1 1.97-.4 1.1-.4 2.57 0 1.38.45 2.5.44 1.13 1.13 1.93.7.8 1.57 1.24.85.4 1.67.4z"/><path d="M805.95 1357.86h-5.1l-1.25 3.08 2.3.7v.9h-5.5v-.9l1.74-.7 5.12-12.65h1.54l5.08 12.92 1.65.4v.92h-6.2v-.9l1.94-.42-1.32-3.36zm-4.65-1.18h4.2l-1.94-5.03h-.22l-2.04 5.03z"/><path d="M829.14 1348.3v.9l-1.74.7v7.1q0 1-.33 2.05-.33 1-1.04 1.9-.72.85-1.84 1.4-1.14.55-2.7.55-1.36 0-2.4-.47-1.05-.47-1.8-1.2-.7-.78-1.1-1.72-.35-.92-.35-1.86v-8.03l-2.03-.4v-.9h6.5v.9l-2.02.4v7.7q0 .9.22 1.64.25.74.72 1.3.46.54 1.15.87.68.3 1.56.3.85 0 1.6-.3.74-.3 1.26-.87.55-.6.85-1.5.33-.9.33-2.1v-6.74l-2.28-.7v-.9h5.42z"/><path d="M832.9 1357.75h1.17q.4 1.9 1.35 2.92.93 1.02 2.33 1.02 1.16 0 1.85-.67.7-.66.7-1.68 0-.47-.13-.85-.1-.4-.46-.75-.35-.35-.96-.7-.6-.4-1.6-.8-1.97-.86-2.96-1.82-.96-.97-.96-2.4 0-.68.27-1.4.3-.7.84-1.3.55-.57 1.38-.93.82-.35 1.87-.35.92 0 1.53.24.63.2 1.1.4l1-.4h.57l.5 4.3h-1.16q-.53-1.72-1.43-2.52-.9-.8-2-.8-1.05 0-1.68.58-.63.55-.63 1.6 0 .93.8 1.56.8.6 2.68 1.32 1.76.7 2.67 1.68.93.96.93 2.56 0 1.07-.38 1.9-.36.8-1 1.34-.62.53-1.5.8-.86.28-1.85.28-.7 0-1.48-.25-.77-.22-1.3-.58l-1.18.4h-.9v-4.72z"/><path d="M856.95 1361.33l1.6-2.6h1.04l-.6 3.8h-11.8v-.9l2.02-.4v-11.62l-2.03-.4v-.9h11.1l.35 3.4h-1l-1.44-2.2h-4.53v5.15h2.9l.76-1.65h.74v4.6h-.74l-.75-1.83h-2.9v5.56h5.27z"/><path d="M883.47 1348.3l.66 4h-1.04l-1.83-2.85h-3.08v11.77l2.2.4v.92h-6.86v-.9l2.2-.42v-11.77h-3.08l-1.84 2.86h-1.02l.66-4h13z"/><path d="M903.37 1348.3v.9l-2.03.4v11.62l2.03.4v.92h-6.52v-.9l2.04-.42v-5.45h-7.22v5.45l2 .4v.92h-6.48v-.9l2.04-.42v-11.6l-2.04-.42v-.9h6.5v.9l-2.02.4v5.05h7.2v-5.04l-2.03-.4v-.9h6.52z"/><path d="M917.1 1361.33l1.6-2.6h1.04l-.57 3.8h-11.83v-.9l2.04-.4v-11.62l-2.04-.4v-.9h11.1l.37 3.4h-1l-1.44-2.2h-4.54v5.15h2.92l.74-1.65h.74v4.6h-.74l-.74-1.83h-2.92v5.56h5.28z"/><path d="M633.06 1388.72l-4.53 10.97h-.8l-4.35-10.98h-.3l-.9 9.35 1.97.7v.9H619v-.9l1.83-.7 1.1-11.33-2.12-.4v-.92h4.6l4.1 10.26h.4l4.27-10.26h4.7v.9l-2.28.42.8 11.6 2.05.42v.9h-6.5v-.9l2.08-.42-.64-9.62h-.34z"/><path d="M651.75 1398.45l1.6-2.58h1.04l-.6 3.8H642v-.9l2.04-.43v-11.6l-2.04-.4v-.92h11.1l.37 3.4h-1.02l-1.43-2.2h-4.53v5.15h2.9l.75-1.65h.75v4.6h-.75l-.74-1.82h-2.9v5.55h5.27z"/><path d="M670.6 1385.42l.65 4h-1.05l-1.8-2.85h-3.1v11.77l2.2.42v.9h-6.84v-.9l2.2-.42v-11.77h-3.08l-1.84 2.86h-1.02l.66-4h13z"/><path d="M682.44 1395h-5.1l-1.25 3.07 2.3.7v.9h-5.5v-.9l1.73-.7 5.12-12.65h1.54l5.08 12.92 1.65.42v.9h-6.22v-.9l1.96-.42-1.32-3.35zm-4.64-1.2h4.2l-1.95-5.03h-.22l-2.03 5.04z"/><path d="M691.13 1399.66v-.9l2.03-.42v-11.6l-2.03-.4v-.92h6.6v.9l-2.12.42v11.7h4.55l1.84-2.8h1.04l-.58 4.02h-11.33z"/><path d="M726.66 1385.42l.66 4h-1.04l-1.82-2.85h-3.08v11.77l2.2.42v.9h-6.85v-.9l2.2-.42v-11.77h-3.08l-1.84 2.86h-1l.65-4h13z"/><path d="M740.92 1387l-2.23-.67v-.9h5.4v.9l-1.7.68-4.2 6.92v4.42l2.03.42v.9h-6.52v-.9l2.05-.42v-4.42l-4.16-7.18-1.77-.4v-.92h6.22v.9l-1.73.42 3.1 5.44h.4l3.1-5.17z"/><path d="M751.74 1393.72v4.62l2.25.42v.9h-6.74v-.9l2.03-.42v-11.6l-2.04-.4v-.92h6.95q.84 0 1.7.22.87.22 1.56.7.7.5 1.15 1.3.48.78.48 1.88 0 1.98-1.43 3.1-1.43 1.1-4 1.1h-1.9zm0-1.12h2.14q.53 0 1.02-.22.5-.22.85-.6.36-.4.58-.92.22-.55.22-1.2 0-1.5-.8-2.2-.77-.72-1.92-.72h-2.1v5.86z"/><path d="M772.43 1398.45l1.6-2.58h1.04l-.57 3.8h-11.83v-.9l2.04-.43v-11.6l-2.03-.4v-.92h11.1l.37 3.4h-1.02l-1.43-2.2h-4.55v5.15h2.92l.74-1.65h.75v4.6h-.74l-.73-1.82h-2.92v5.55h5.28z"/><path d="M786.2 1399.66v-.9l2.03-.42v-11.6l-2.03-.4v-.92h7.37q.55 0 1.26.16.72.14 1.35.53.66.36 1.1 1 .44.63.44 1.6 0 .93-.63 1.92-.62.96-2 1.4v.3q.7.14 1.27.44.6.3 1.05.77.46.44.7 1.05.3.57.3 1.26 0 .88-.4 1.6-.36.68-1.04 1.18-.66.5-1.6.77-.93.26-2.1.26h-7.08zm9.57-4q0-.53-.2-1.03t-.6-.88q-.4-.38-1.05-.6-.63-.25-1.48-.25h-1.76v5.44h2.23q1.46 0 2.15-.77.72-.77.72-1.92zm-5.1-3.9h1.8q.74 0 1.23-.2.53-.23.83-.6.3-.37.4-.84.15-.47.15-.96 0-.7-.25-1.16-.22-.46-.58-.74-.35-.3-.82-.4-.47-.12-.9-.12h-1.85v5.03z"/><path d="M802.42 1399.66v-.9l2.03-.42v-11.6l-2.03-.4v-.92h6.6v.9l-2.12.42v11.7h4.54l1.84-2.8h1.05l-.58 4.02h-11.33z"/><path d="M817.57 1392.62q0-1.7.57-3.08.58-1.37 1.57-2.33 1-.98 2.32-1.5 1.35-.53 2.86-.53 1.57 0 2.9.52 1.34.5 2.3 1.45.96.96 1.5 2.37.56 1.37.56 3.1 0 1.82-.58 3.22-.57 1.38-1.56 2.3-1 .95-2.3 1.4-1.33.48-2.82.48-1.5 0-2.86-.47-1.32-.5-2.3-1.43-1-.96-1.58-2.33-.57-1.4-.57-3.18zm2.75-.02q0 1.48.35 2.6.4 1.14 1 1.9.63.78 1.45 1.2.83.37 1.76.37.9 0 1.73-.33.84-.33 1.44-1.04.64-.72 1-1.87.38-1.18.38-2.83 0-1.52-.36-2.67-.36-1.18-.96-1.95t-1.46-1.16q-.82-.4-1.76-.4-.93 0-1.76.4-.82.4-1.46 1.18-.6.77-1 1.93-.34 1.15-.34 2.67z"/><path d="M843.77 1398.67q1.84 0 2.9-.9 1.1-.94 1.66-2.67h.9v3.22q-1.12.7-2.4 1.2-1.28.5-3.17.5-1.54 0-2.9-.47-1.34-.5-2.36-1.43-1-.96-1.62-2.33-.58-1.4-.58-3.18 0-1.7.58-3.08.6-1.37 1.6-2.33 1-.98 2.36-1.5 1.38-.53 2.92-.53 1.32 0 2.77.47 1.46.44 2.62 1.07v3.34h-.9q-.73-2-1.94-2.8-1.17-.83-2.54-.83-.97 0-1.82.45-.85.4-1.48 1.2-.64.8-1.02 1.96-.4 1.14-.4 2.6 0 1.37.45 2.5.43 1.13 1.12 1.92.72.8 1.57 1.24.84.4 1.67.4z"/><path d="M858.03 1392.76v5.58l1.87.42v.9h-6.35v-.9l2.04-.42v-11.6l-2.05-.4v-.92h6.5v.9l-2.02.42v5.03h.66l5.14-4.9-1.96-.54v-.9h5.53v.9l-1.97.55-4.8 4.6 5.85 6.95 1.54.33v.9h-6.36v-.9l1.74-.42-4.7-5.58h-.67z"/><path d="M871.8 1394.88h1.18q.42 1.9 1.35 2.9.94 1.03 2.34 1.03 1.15 0 1.84-.65.73-.66.73-1.68 0-.46-.14-.85-.12-.38-.48-.74t-.96-.72q-.6-.38-1.6-.8-1.98-.85-2.97-1.8-.97-.97-.97-2.4 0-.7.28-1.4.3-.72.86-1.3.55-.57 1.37-.93.83-.36 1.87-.36.94 0 1.54.25.64.22 1.1.4l1-.4h.57l.5 4.32h-1.15q-.52-1.74-1.43-2.53-.9-.8-2-.8-1.05 0-1.68.6-.64.54-.64 1.58 0 .94.8 1.57.83.6 2.7 1.32 1.76.7 2.66 1.68.94.96.94 2.55 0 1.08-.4 1.9-.34.8-.98 1.35-.63.52-1.5.8-.86.27-1.85.27-.72 0-1.5-.25-.76-.22-1.28-.57l-1.2.4h-.9v-4.72z"/><path d="M902.44 1395h-5.1l-1.25 3.07 2.3.7v.9h-5.5v-.9l1.73-.7 5.12-12.65h1.54l5.08 12.92 1.65.42v.9h-6.22v-.9l1.96-.42-1.32-3.35zm-4.64-1.2h4.2l-1.95-5.03h-.22l-2.03 5.04z"/><path d="M919.38 1392.87q.6.28 1.1 1 .52.7 1.02 1.56.52.82 1.07 1.65.55.8 1.2 1.26l1.3.42v.9H922q-.83-.52-1.47-1.45-.6-.96-1.18-1.95-.58-1-1.2-1.87-.6-.85-1.44-1.18h-1.1v5.14l2.02.42v.9h-6.5v-.9l2.04-.42v-11.6l-2.03-.4v-.92h7.37q.58 0 1.32.16.77.14 1.43.55.7.42 1.15 1.16.47.7.47 1.86 0 1.18-.88 2.17-.9 1-2.62 1.3v.24zm-3.77-.8h1.66q.8 0 1.38-.27.57-.28.93-.7.4-.4.55-.9.17-.5.17-.96 0-1.37-.7-1.92-.66-.58-1.54-.58h-2.45v5.33z"/><path d="M937.97 1398.45l1.6-2.58h1.04l-.57 3.8H928.2v-.9l2.04-.43v-11.6l-2.03-.4v-.92h11.12l.36 3.4h-1.02l-1.43-2.2h-4.54v5.15h2.9l.75-1.65h.74v4.6h-.75l-.74-1.82h-2.9v5.55h5.27z"/><path d="M674.56 1422.54l.66 4.02h-1.04l-1.82-2.86h-3.08v11.77l2.2.4v.92h-6.84v-.92l2.2-.4v-11.78h-3.08l-1.85 2.86h-1l.66-4.02h13z"/><path d="M694.46 1422.54v.9l-2.03.42v11.6l2.03.42v.9h-6.52v-.9l2.04-.4V1430h-7.2v5.45l2 .4v.92h-6.5v-.92l2.05-.4v-11.62l-2.04-.4v-.92h6.48v.9l-2 .42v5.04h7.2v-5.04l-2.04-.4v-.92h6.52z"/><path d="M708.2 1435.58l1.6-2.6h1.04l-.58 3.8h-11.83v-.9l2.04-.4v-11.62l-2.04-.4v-.92h11.1l.37 3.4h-1.02l-1.43-2.2h-4.53v5.16h2.9l.75-1.65h.75v4.6h-.75l-.74-1.83h-2.9v5.56h5.27z"/><path d="M722.6 1432h1.17q.42 1.9 1.35 2.92.94 1.02 2.34 1.02 1.15 0 1.84-.66.72-.66.72-1.68 0-.47-.14-.85-.1-.4-.47-.75-.35-.35-.95-.7-.6-.4-1.6-.8-1.98-.86-2.97-1.82-.96-.97-.96-2.4 0-.68.28-1.4.3-.7.85-1.3.55-.57 1.37-.93.83-.35 1.87-.35.93 0 1.53.24.64.22 1.1.42l1-.42h.57l.5 4.32h-1.16q-.52-1.73-1.43-2.53-.9-.8-2-.8-1.04 0-1.67.58-.64.56-.64 1.6 0 .94.8 1.57.82.6 2.7 1.32 1.75.68 2.65 1.67.94.96.94 2.56 0 1.07-.4 1.9-.35.8-1 1.34-.62.53-1.5.8-.85.28-1.84.28-.72 0-1.5-.25-.76-.22-1.28-.58l-1.18.4h-.9V1432z"/><path d="M745.28 1432.1h-5.1l-1.25 3.1 2.3.68v.9h-5.5v-.9l1.74-.7 5.12-12.64h1.53l5.1 12.93 1.64.4v.92h-6.22v-.92l1.95-.4-1.32-3.37zm-4.64-1.17h4.2l-1.95-5.03h-.23l-2.03 5.03z"/><path d="M767.6 1425.84l-4.53 10.98h-.8l-4.34-10.98h-.3l-.9 9.35 1.97.68v.9h-5.14v-.9l1.8-.7 1.1-11.32-2.1-.4v-.92h4.6l4.1 10.26h.4l4.26-10.26h4.7v.9l-2.28.42.8 11.6 2.06.42v.9h-6.5v-.9l2.07-.4-.63-9.64h-.33z"/><path d="M786.3 1435.58l1.6-2.6h1.03l-.58 3.8h-11.82v-.9l2.03-.4v-11.62l-2.03-.4v-.92h11.1l.37 3.4h-1.02l-1.43-2.2H781v5.16h2.93l.74-1.65h.74v4.6h-.73l-.74-1.83H781v5.56h5.3z"/><path d="M816.22 1422.54v.9l-2.03.42v11.6l2.02.42v.9h-6.5v-.9l2.02-.4V1430h-7.2v5.45l2 .4v.92h-6.5v-.92l2.05-.4v-11.62l-2.05-.4v-.92h6.5v.9l-2 .42v5.04h7.2v-5.04l-2.04-.4v-.92h6.52z"/><path d="M829.96 1435.58l1.6-2.6h1.04l-.58 3.8H820.2v-.9l2.03-.4v-11.62l-2.03-.4v-.92h11.1l.36 3.4h-1l-1.44-2.2h-4.54v5.16h2.9l.76-1.65h.74v4.6h-.74l-.75-1.83h-2.92v5.56h5.28z"/><path d="M842.8 1422.54v.9l-2 .42v11.6l2 .42v.9h-6.48v-.9l2.03-.4v-11.62l-2.03-.4v-.92h6.5z"/><path d="M854.5 1435.8q.8 0 1.6-.17.8-.2 1.4-.66v-3.85l-2.45-.52v-.9h6.66v.9l-1.75.4v4.63q-.4.22-.9.5-.5.27-1.2.5-.65.2-1.5.35-.83.17-1.85.17-1.48 0-2.83-.47-1.32-.5-2.34-1.43-1-.96-1.62-2.34-.6-1.36-.6-3.15 0-1.7.58-3.08.6-1.38 1.6-2.34 1.02-1 2.36-1.5 1.38-.53 2.92-.53 1.32 0 2.78.46 1.45.44 2.6 1.08v3.32h-.9q-.7-2-1.92-2.8-1.2-.83-2.56-.83-.96 0-1.82.4-.85.37-1.48 1.17-.63.77-1.02 1.93-.38 1.15-.38 2.7 0 1.4.35 2.52.4 1.13 1.03 1.93.63.77 1.46 1.2.84.42 1.8.42z"/><path d="M881.2 1422.54v.9l-2.02.42v11.6l2.03.42v.9h-6.5v-.9l2.03-.4V1430h-7.2v5.45l2 .4v.92h-6.5v-.92l2.05-.4v-11.62l-2.04-.4v-.92h6.5v.9l-2 .42v5.04h7.2v-5.04l-2.04-.4v-.92h6.5z"/><path d="M897.95 1422.54l.66 4.02h-1.04l-1.8-2.86h-3.1v11.77l2.2.4v.92h-6.84v-.92l2.2-.4v-11.78h-3.08l-1.84 2.86h-1.02l.66-4.02h13z"/></g><path fill="#c83737" fill-rule="evenodd" stroke="#c83737" stroke-width="2" d="M2558.23-797.34V-30.6" marker-start="url(#b)" marker-end="url(#c)" transform="translate(0 547.638) translate(-1829.162 336.11)"/></g></g></svg>
