<svg xmlns="http://www.w3.org/2000/svg" width="453.929" height="487.08" xmlns:xlink="http://www.w3.org/1999/xlink"><defs><marker orient="auto" overflow="visible"><path fill="#c83737" fill-rule="evenodd" stroke="#c83737" stroke-width=".2pt" d="M0 1.13v-2.26"/></marker><marker orient="auto" overflow="visible"><path fill="#c83737" fill-rule="evenodd" stroke="#c83737" stroke-width=".4pt" d="M-4 0l-2 2 7-2-7-2 2 2z"/></marker><marker orient="auto" overflow="visible"><path fill="#c83737" fill-rule="evenodd" stroke="#c83737" stroke-width=".2pt" d="M1.2 0l1-1-3.5 1 3.5 1-1-1z"/></marker><marker orient="auto" overflow="visible"><path fill="#c83737" fill-rule="evenodd" stroke="#c83737" stroke-width=".375" d="M5.23 2.42L-1.32.02 5.23-2.4C4.18-.98 4.2.97 5.23 2.42z" stroke-linejoin="round"/></marker><marker orient="auto" overflow="visible"><path fill="#c83737" fill-rule="evenodd" stroke="#c83737" stroke-width=".4pt" d="M-2.3 0l3.45-2v4L-2.3 0z"/></marker><marker orient="auto" overflow="visible"><path fill="#c83737" fill-rule="evenodd" stroke="#c83737" stroke-width=".2pt" d="M0 1.13v-2.26"/></marker><marker orient="auto" overflow="visible"><path fill="#c83737" fill-rule="evenodd" stroke="#c83737" stroke-width=".2pt" d="M0 1.13v-2.26"/></marker><marker orient="auto" overflow="visible"><path fill-rule="evenodd" stroke="#000" stroke-width=".8pt" d="M10 0l4-4L0 0l14 4-4-4z"/></marker><marker orient="auto" overflow="visible"><path fill="#c83737" fill-rule="evenodd" stroke="#c83737" stroke-width=".8pt" d="M10 0l4-4L0 0l14 4-4-4z"/></marker><marker orient="auto" overflow="visible"><path fill="#c83737" fill-rule="evenodd" stroke="#c83737" stroke-width=".8pt" d="M-10 0l-4 4L0 0l-14-4 4 4z"/></marker><marker orient="auto" overflow="visible"><path fill-rule="evenodd" stroke="#000" stroke-width=".8pt" d="M-10 0l-4 4L0 0l-14-4 4 4z"/></marker><marker orient="auto" overflow="visible"><path fill="#c83737" fill-rule="evenodd" stroke="#c83737" stroke-width=".4pt" d="M4 0l2-2-7 2 7 2-2-2z"/></marker><marker orient="auto" overflow="visible"><path fill-rule="evenodd" stroke="#000" stroke-width=".8pt" d="M-4.62 0L2.3-4v8l-6.92-4z"/></marker><marker orient="auto" overflow="visible"><path fill="#c83737" fill-rule="evenodd" stroke="#c83737" stroke-width=".8pt" d="M-4.62 0L2.3-4v8l-6.92-4z"/></marker><marker orient="auto" overflow="visible"><path fill-rule="evenodd" stroke="#000" stroke-width=".6875" d="M10.7 4.44L-1.34.02 10.7-4.4c-1.93 2.6-1.92 6.18 0 8.84z" stroke-linejoin="round"/></marker><marker orient="auto" overflow="visible"><path fill="#c83737" fill-rule="evenodd" stroke="#c83737" stroke-width=".4pt" d="M2.3 0l-3.45 2v-4L2.3 0z"/></marker><marker orient="auto" overflow="visible"><path fill-rule="evenodd" stroke="#000" stroke-width=".4pt" d="M2.3 0l-3.45 2v-4L2.3 0z"/></marker><marker orient="auto" overflow="visible"><path fill-rule="evenodd" stroke="#000" stroke-width=".4pt" d="M2.3 0l-3.45 2v-4L2.3 0z"/></marker><marker orient="auto" overflow="visible"><path fill-rule="evenodd" stroke="#000" stroke-width=".8pt" d="M4.62 0L-2.3 4v-8l6.92 4z"/></marker><marker orient="auto" overflow="visible"><path fill-rule="evenodd" stroke="#000" stroke-width=".375" d="M-5.23-2.42l6.55 2.4-6.55 2.42c1.05-1.42 1.04-3.37 0-4.82z" stroke-linejoin="round"/></marker><marker orient="auto" overflow="visible"><path fill-rule="evenodd" stroke="#000" stroke-width=".4pt" d="M2.3 0l-3.45 2v-4L2.3 0z"/></marker><marker orient="auto" overflow="visible"><path fill-rule="evenodd" stroke="#000" stroke-width=".8pt" d="M4.62 0L-2.3 4v-8l6.92 4z"/></marker><marker orient="auto" overflow="visible"><path fill-rule="evenodd" stroke="#000" stroke-width=".6875" d="M10.7 4.44L-1.34.02 10.7-4.4c-1.93 2.6-1.92 6.18 0 8.84z" stroke-linejoin="round"/></marker><marker orient="auto" overflow="visible"><path fill-rule="evenodd" stroke="#000" stroke-width=".6875" d="M-10.7-4.44L1.34-.02-10.7 4.4c1.93-2.6 1.92-6.18 0-8.84z" stroke-linejoin="round"/></marker><linearGradient><stop offset="0" stop-color="#4c4c4c"/><stop offset="1" stop-color="#656565"/></linearGradient><linearGradient><stop offset="0" stop-color="#4c4c4c"/><stop offset="1" stop-color="#656565"/></linearGradient><linearGradient><stop offset="0" stop-color="#4c4c4c"/><stop offset="1" stop-color="#656565"/></linearGradient><linearGradient><stop offset="0" stop-color="#4c4c4c"/><stop offset="1" stop-color="#656565"/></linearGradient><linearGradient><stop offset="0" stop-color="#4c4c4c"/><stop offset="1" stop-color="#656565"/></linearGradient><linearGradient><stop offset="0" stop-color="#4c4c4c"/><stop offset="1" stop-color="#656565"/></linearGradient><linearGradient><stop offset="0" stop-color="#4c4c4c"/><stop offset="1" stop-color="#656565"/></linearGradient><linearGradient><stop offset="0" stop-color="#4c4c4c"/><stop offset="1" stop-color="#656565"/></linearGradient><linearGradient><stop offset="0" stop-color="#4c4c4c"/><stop offset="1" stop-color="#656565"/></linearGradient><linearGradient><stop offset="0" stop-color="#4c4c4c"/><stop offset="1" stop-color="#656565"/></linearGradient><linearGradient><stop offset="0" stop-color="#4c4c4c"/><stop offset="1" stop-color="#656565"/></linearGradient><linearGradient><stop offset="0" stop-color="#4c4c4c"/><stop offset="1" stop-color="#656565"/></linearGradient><linearGradient><stop offset="0" stop-color="#4c4c4c"/><stop offset="1" stop-color="#656565"/></linearGradient><linearGradient><stop offset="0" stop-color="#4c4c4c"/><stop offset="1" stop-color="#656565"/></linearGradient><linearGradient><stop offset="0" stop-color="#4c4c4c"/><stop offset="1" stop-color="#656565"/></linearGradient><linearGradient><stop offset="0" stop-color="#4c4c4c"/><stop offset="1" stop-color="#656565"/></linearGradient><linearGradient><stop offset="0" stop-color="#4c4c4c"/><stop offset="1" stop-color="#656565"/></linearGradient><linearGradient><stop offset="0" stop-color="#4c4c4c"/><stop offset="1" stop-color="#656565"/></linearGradient><linearGradient><stop offset="0" stop-color="#4c4c4c"/><stop offset="1" stop-color="#656565"/></linearGradient><linearGradient><stop offset="0" stop-color="#4c4c4c"/><stop offset="1" stop-color="#656565"/></linearGradient><linearGradient><stop offset="0" stop-color="#4c4c4c"/><stop offset="1" stop-color="#656565"/></linearGradient><linearGradient><stop offset="0" stop-color="#4c4c4c"/><stop offset="1" stop-color="#656565"/></linearGradient><linearGradient><stop offset="0" stop-color="#4c4c4c"/><stop offset="1" stop-color="#656565"/></linearGradient><linearGradient><stop offset="0" stop-color="#4c4c4c"/><stop offset="1" stop-color="#656565"/></linearGradient><linearGradient><stop offset="0" stop-color="#4c4c4c"/><stop offset="1" stop-color="#656565"/></linearGradient><linearGradient><stop offset="0" stop-color="#4c4c4c"/><stop offset="1" stop-color="#656565"/></linearGradient><linearGradient><stop offset="0" stop-color="#4c4c4c"/><stop offset="1" stop-color="#656565"/></linearGradient><linearGradient><stop offset="0" stop-color="#4c4c4c"/><stop offset="1" stop-color="#656565"/></linearGradient><linearGradient><stop offset="0" stop-color="#4c4c4c"/><stop offset="1" stop-color="#656565"/></linearGradient><linearGradient><stop offset="0" stop-color="#4c4c4c"/><stop offset="1" stop-color="#656565"/></linearGradient><linearGradient><stop offset="0" stop-color="#4c4c4c"/><stop offset="1" stop-color="#656565"/></linearGradient><linearGradient><stop offset="0" stop-color="#4c4c4c"/><stop offset="1" stop-color="#656565"/></linearGradient><linearGradient><stop offset="0" stop-color="#4c4c4c"/><stop offset="1" stop-color="#656565"/></linearGradient><linearGradient><stop offset="0" stop-color="#4c4c4c"/><stop offset="1" stop-color="#656565"/></linearGradient><linearGradient><stop offset="0" stop-color="#4c4c4c"/><stop offset="1" stop-color="#656565"/></linearGradient><linearGradient><stop offset="0" stop-color="#4c4c4c"/><stop offset="1" stop-color="#656565"/></linearGradient><linearGradient><stop offset="0" stop-color="#4c4c4c"/><stop offset="1" stop-color="#656565"/></linearGradient><linearGradient><stop offset="0" stop-color="#4c4c4c"/><stop offset="1" stop-color="#656565"/></linearGradient><linearGradient><stop offset="0" stop-color="#4c4c4c"/><stop offset="1" stop-color="#656565"/></linearGradient><linearGradient><stop offset="0" stop-color="#4c4c4c"/><stop offset="1" stop-color="#656565"/></linearGradient><linearGradient><stop offset="0" stop-color="#4c4c4c"/><stop offset="1" stop-color="#656565"/></linearGradient><linearGradient><stop offset="0" stop-color="#4c4c4c"/><stop offset="1" stop-color="#656565"/></linearGradient><linearGradient><stop offset="0" stop-color="#4c4c4c"/><stop offset="1" stop-color="#656565"/></linearGradient><linearGradient><stop offset="0" stop-color="#4c4c4c"/><stop offset="1" stop-color="#656565"/></linearGradient><linearGradient><stop offset="0" stop-color="#4c4c4c"/><stop offset="1" stop-color="#656565"/></linearGradient><linearGradient><stop offset="0" stop-color="#4c4c4c"/><stop offset="1" stop-color="#656565"/></linearGradient><linearGradient><stop offset="0" stop-color="#4c4c4c"/><stop offset="1" stop-color="#656565"/></linearGradient><linearGradient><stop offset="0" stop-color="#4c4c4c"/><stop offset="1" stop-color="#656565"/></linearGradient><linearGradient><stop offset="0" stop-color="#4c4c4c"/><stop offset="1" stop-color="#656565"/></linearGradient><linearGradient><stop offset="0" stop-color="#4c4c4c"/><stop offset="1" stop-color="#656565"/></linearGradient><linearGradient><stop offset="0" stop-color="#4c4c4c"/><stop offset="1" stop-color="#656565"/></linearGradient><linearGradient><stop offset="0" stop-color="#4c4c4c"/><stop offset="1" stop-color="#656565"/></linearGradient><linearGradient><stop offset="0" stop-color="#4c4c4c"/><stop offset="1" stop-color="#656565"/></linearGradient><linearGradient><stop offset="0" stop-color="#4c4c4c"/><stop offset="1" stop-color="#656565"/></linearGradient><linearGradient><stop offset="0" stop-color="#4c4c4c"/><stop offset="1" stop-color="#656565"/></linearGradient><linearGradient><stop offset="0" stop-color="#4c4c4c"/><stop offset="1" stop-color="#656565"/></linearGradient><linearGradient><stop offset="0" stop-color="#4c4c4c"/><stop offset="1" stop-color="#656565"/></linearGradient><linearGradient><stop offset="0" stop-color="#4c4c4c"/><stop offset="1" stop-color="#656565"/></linearGradient><linearGradient><stop offset="0" stop-color="#4c4c4c"/><stop offset="1" stop-color="#656565"/></linearGradient><linearGradient><stop offset="0" stop-color="#4c4c4c"/><stop offset="1" stop-color="#656565"/></linearGradient><linearGradient><stop offset="0" stop-color="#4c4c4c"/><stop offset="1" stop-color="#656565"/></linearGradient><linearGradient><stop offset="0" stop-color="#4c4c4c"/><stop offset="1" stop-color="#656565"/></linearGradient><linearGradient><stop offset="0" stop-color="#4c4c4c"/><stop offset="1" stop-color="#656565"/></linearGradient><linearGradient><stop offset="0" stop-color="#4c4c4c"/><stop offset="1" stop-color="#656565"/></linearGradient><linearGradient><stop offset="0" stop-color="#4c4c4c"/><stop offset="1" stop-color="#656565"/></linearGradient><linearGradient><stop offset="0" stop-color="#4c4c4c"/><stop offset="1" stop-color="#656565"/></linearGradient><linearGradient><stop offset="0" stop-color="#4c4c4c"/><stop offset="1" stop-color="#656565"/></linearGradient><linearGradient><stop offset="0" stop-color="#4c4c4c"/><stop offset="1" stop-color="#656565"/></linearGradient><linearGradient><stop offset="0" stop-color="#4c4c4c"/><stop offset="1" stop-color="#656565"/></linearGradient><linearGradient><stop offset="0" stop-color="#4c4c4c"/><stop offset="1" stop-color="#656565"/></linearGradient><linearGradient><stop offset="0" stop-color="#4c4c4c"/><stop offset="1" stop-color="#656565"/></linearGradient><linearGradient><stop offset="0" stop-color="#4c4c4c"/><stop offset="1" stop-color="#656565"/></linearGradient><linearGradient><stop offset="0" stop-color="#4c4c4c"/><stop offset="1" stop-color="#656565"/></linearGradient><linearGradient><stop offset="0" stop-color="#4c4c4c"/><stop offset="1" stop-color="#656565"/></linearGradient><linearGradient><stop offset="0" stop-color="#4c4c4c"/><stop offset="1" stop-color="#656565"/></linearGradient><linearGradient><stop offset="0" stop-color="#4c4c4c"/><stop offset="1" stop-color="#656565"/></linearGradient><linearGradient><stop offset="0" stop-color="#4c4c4c"/><stop offset="1" stop-color="#656565"/></linearGradient><linearGradient><stop offset="0" stop-color="#4c4c4c"/><stop offset="1" stop-color="#656565"/></linearGradient><linearGradient><stop offset="0" stop-color="#4c4c4c"/><stop offset="1" stop-color="#656565"/></linearGradient><linearGradient><stop offset="0" stop-color="#4c4c4c"/><stop offset="1" stop-color="#656565"/></linearGradient><linearGradient><stop offset="0" stop-color="#4c4c4c"/><stop offset="1" stop-color="#656565"/></linearGradient><linearGradient><stop offset="0" stop-color="#4c4c4c"/><stop offset="1" stop-color="#656565"/></linearGradient><linearGradient><stop offset="0" stop-color="#4c4c4c"/><stop offset="1" stop-color="#656565"/></linearGradient><linearGradient><stop offset="0" stop-color="#4c4c4c"/><stop offset="1" stop-color="#656565"/></linearGradient><linearGradient><stop offset="0" stop-color="#4c4c4c"/><stop offset="1" stop-color="#656565"/></linearGradient><linearGradient><stop offset="0" stop-color="#4c4c4c"/><stop offset="1" stop-color="#656565"/></linearGradient><linearGradient><stop offset="0" stop-color="#4c4c4c"/><stop offset="1" stop-color="#656565"/></linearGradient><linearGradient><stop offset="0" stop-color="#4c4c4c"/><stop offset="1" stop-color="#656565"/></linearGradient><linearGradient><stop offset="0" stop-color="#4c4c4c"/><stop offset="1" stop-color="#656565"/></linearGradient><linearGradient><stop offset="0" stop-color="#4c4c4c"/><stop offset="1" stop-color="#656565"/></linearGradient><linearGradient><stop offset="0" stop-color="#4c4c4c"/><stop offset="1" stop-color="#656565"/></linearGradient><linearGradient><stop offset="0" stop-color="#4c4c4c"/><stop offset="1" stop-color="#656565"/></linearGradient><linearGradient><stop offset="0" stop-color="#4c4c4c"/><stop offset="1" stop-color="#656565"/></linearGradient><linearGradient><stop offset="0" stop-color="#4c4c4c"/><stop offset="1" stop-color="#656565"/></linearGradient><linearGradient><stop offset="0" stop-color="#4c4c4c"/><stop offset="1" stop-color="#656565"/></linearGradient><linearGradient><stop offset="0" stop-color="#4c4c4c"/><stop offset="1" stop-color="#656565"/></linearGradient><linearGradient><stop offset="0" stop-color="#4c4c4c"/><stop offset="1" stop-color="#656565"/></linearGradient><linearGradient><stop offset="0" stop-color="#4c4c4c"/><stop offset="1" stop-color="#656565"/></linearGradient><linearGradient><stop offset="0" stop-color="#4c4c4c"/><stop offset="1" stop-color="#656565"/></linearGradient><linearGradient><stop offset="0" stop-color="#4c4c4c"/><stop offset="1" stop-color="#656565"/></linearGradient><linearGradient><stop offset="0" stop-color="#4c4c4c"/><stop offset="1" stop-color="#656565"/></linearGradient><linearGradient><stop offset="0" stop-color="#4c4c4c"/><stop offset="1" stop-color="#656565"/></linearGradient><linearGradient><stop offset="0" stop-color="#4c4c4c"/><stop offset="1" stop-color="#656565"/></linearGradient><linearGradient><stop offset="0" stop-color="#4c4c4c"/><stop offset="1" stop-color="#656565"/></linearGradient><linearGradient><stop offset="0" stop-color="#4c4c4c"/><stop offset="1" stop-color="#656565"/></linearGradient><linearGradient><stop offset="0" stop-color="#4c4c4c"/><stop offset="1" stop-color="#656565"/></linearGradient><linearGradient><stop offset="0" stop-color="#4c4c4c"/><stop offset="1" stop-color="#656565"/></linearGradient><linearGradient><stop offset="0" stop-color="#4c4c4c"/><stop offset="1" stop-color="#656565"/></linearGradient><linearGradient><stop offset="0" stop-color="#4c4c4c"/><stop offset="1" stop-color="#656565"/></linearGradient><linearGradient><stop offset="0" stop-color="#4c4c4c"/><stop offset="1" stop-color="#656565"/></linearGradient><linearGradient><stop offset="0" stop-color="#4c4c4c"/><stop offset="1" stop-color="#656565"/></linearGradient><linearGradient><stop offset="0" stop-color="#4c4c4c"/><stop offset="1" stop-color="#656565"/></linearGradient><linearGradient><stop offset="0" stop-color="#4c4c4c"/><stop offset="1" stop-color="#656565"/></linearGradient><linearGradient><stop offset="0" stop-color="#4c4c4c"/><stop offset="1" stop-color="#656565"/></linearGradient><linearGradient><stop offset="0" stop-color="#4c4c4c"/><stop offset="1" stop-color="#656565"/></linearGradient><linearGradient><stop offset="0" stop-color="#4c4c4c"/><stop offset="1" stop-color="#656565"/></linearGradient><linearGradient><stop offset="0" stop-color="#4c4c4c"/><stop offset="1" stop-color="#656565"/></linearGradient><linearGradient><stop offset="0" stop-color="#4c4c4c"/><stop offset="1" stop-color="#656565"/></linearGradient><linearGradient><stop offset="0" stop-color="#4c4c4c"/><stop offset="1" stop-color="#656565"/></linearGradient><linearGradient><stop offset="0" stop-color="#4c4c4c"/><stop offset="1" stop-color="#656565"/></linearGradient><linearGradient><stop offset="0" stop-color="#4c4c4c"/><stop offset="1" stop-color="#656565"/></linearGradient><linearGradient><stop offset="0" stop-color="#4c4c4c"/><stop offset="1" stop-color="#656565"/></linearGradient><linearGradient><stop offset="0" stop-color="#4c4c4c"/><stop offset="1" stop-color="#656565"/></linearGradient><linearGradient><stop offset="0" stop-color="#4c4c4c"/><stop offset="1" stop-color="#656565"/></linearGradient><linearGradient><stop offset="0" stop-color="#4c4c4c"/><stop offset="1" stop-color="#656565"/></linearGradient><linearGradient><stop offset="0" stop-color="#4c4c4c"/><stop offset="1" stop-color="#656565"/></linearGradient><linearGradient><stop offset="0" stop-color="#4c4c4c"/><stop offset="1" stop-color="#656565"/></linearGradient><linearGradient><stop offset="0" stop-color="#4c4c4c"/><stop offset="1" stop-color="#656565"/></linearGradient><linearGradient><stop offset="0" stop-color="#4c4c4c"/><stop offset="1" stop-color="#656565"/></linearGradient><linearGradient><stop offset="0" stop-color="#4c4c4c"/><stop offset="1" stop-color="#656565"/></linearGradient><linearGradient><stop offset="0" stop-color="#4c4c4c"/><stop offset="1" stop-color="#656565"/></linearGradient><linearGradient><stop offset="0" stop-color="#4c4c4c"/><stop offset="1" stop-color="#656565"/></linearGradient><linearGradient><stop offset="0" stop-color="#4c4c4c"/><stop offset="1" stop-color="#656565"/></linearGradient><linearGradient><stop offset="0" stop-color="#4c4c4c"/><stop offset="1" stop-color="#656565"/></linearGradient><linearGradient><stop offset="0" stop-color="#4c4c4c"/><stop offset="1" stop-color="#656565"/></linearGradient><linearGradient><stop offset="0" stop-color="#4c4c4c"/><stop offset="1" stop-color="#656565"/></linearGradient><linearGradient><stop offset="0" stop-color="#4c4c4c"/><stop offset="1" stop-color="#656565"/></linearGradient><linearGradient><stop offset="0" stop-color="#4c4c4c"/><stop offset="1" stop-color="#656565"/></linearGradient><linearGradient><stop offset="0" stop-color="#4c4c4c"/><stop offset="1" stop-color="#656565"/></linearGradient><linearGradient><stop offset="0" stop-color="#4c4c4c"/><stop offset="1" stop-color="#656565"/></linearGradient><linearGradient><stop offset="0" stop-color="#4c4c4c"/><stop offset="1" stop-color="#656565"/></linearGradient><linearGradient><stop offset="0" stop-color="#4c4c4c"/><stop offset="1" stop-color="#656565"/></linearGradient><linearGradient><stop offset="0" stop-color="#4c4c4c"/><stop offset="1" stop-color="#656565"/></linearGradient><linearGradient><stop offset="0" stop-color="#4c4c4c"/><stop offset="1" stop-color="#656565"/></linearGradient><linearGradient><stop offset="0" stop-color="#4c4c4c"/><stop offset="1" stop-color="#656565"/></linearGradient><linearGradient><stop offset="0" stop-color="#4c4c4c"/><stop offset="1" stop-color="#656565"/></linearGradient><linearGradient><stop offset="0" stop-color="#4c4c4c"/><stop offset="1" stop-color="#656565"/></linearGradient><linearGradient><stop offset="0" stop-color="#4c4c4c"/><stop offset="1" stop-color="#656565"/></linearGradient><linearGradient><stop offset="0" stop-color="#4c4c4c"/><stop offset="1" stop-color="#656565"/></linearGradient><linearGradient><stop offset="0" stop-color="#4c4c4c"/><stop offset="1" stop-color="#656565"/></linearGradient><linearGradient><stop offset="0" stop-color="#4c4c4c"/><stop offset="1" stop-color="#656565"/></linearGradient><linearGradient><stop offset="0" stop-color="#4c4c4c"/><stop offset="1" stop-color="#656565"/></linearGradient><linearGradient><stop offset="0" stop-color="#4c4c4c"/><stop offset="1" stop-color="#656565"/></linearGradient><linearGradient><stop offset="0" stop-color="#4c4c4c"/><stop offset="1" stop-color="#656565"/></linearGradient><linearGradient><stop offset="0" stop-color="#4c4c4c"/><stop offset="1" stop-color="#656565"/></linearGradient><linearGradient><stop offset="0" stop-color="#4c4c4c"/><stop offset="1" stop-color="#656565"/></linearGradient><linearGradient><stop offset="0" stop-color="#4c4c4c"/><stop offset="1" stop-color="#656565"/></linearGradient><linearGradient><stop offset="0" stop-color="#4c4c4c"/><stop offset="1" stop-color="#656565"/></linearGradient><linearGradient><stop offset="0" stop-color="#4c4c4c"/><stop offset="1" stop-color="#656565"/></linearGradient><linearGradient><stop offset="0" stop-color="#4c4c4c"/><stop offset="1" stop-color="#656565"/></linearGradient><linearGradient><stop offset="0" stop-color="#4c4c4c"/><stop offset="1" stop-color="#656565"/></linearGradient><linearGradient><stop offset="0" stop-color="#4c4c4c"/><stop offset="1" stop-color="#656565"/></linearGradient><linearGradient><stop offset="0" stop-color="#4c4c4c"/><stop offset="1" stop-color="#656565"/></linearGradient><linearGradient><stop offset="0" stop-color="#4c4c4c"/><stop offset="1" stop-color="#656565"/></linearGradient><linearGradient><stop offset="0" stop-color="#4c4c4c"/><stop offset="1" stop-color="#656565"/></linearGradient><linearGradient><stop offset="0" stop-color="#4c4c4c"/><stop offset="1" stop-color="#656565"/></linearGradient><linearGradient><stop offset="0" stop-color="#4c4c4c"/><stop offset="1" stop-color="#656565"/></linearGradient><linearGradient><stop offset="0" stop-color="#4c4c4c"/><stop offset="1" stop-color="#656565"/></linearGradient><linearGradient><stop offset="0" stop-color="#4c4c4c"/><stop offset="1" stop-color="#656565"/></linearGradient><linearGradient><stop offset="0" stop-color="#4c4c4c"/><stop offset="1" stop-color="#656565"/></linearGradient><linearGradient><stop offset="0" stop-color="#4c4c4c"/><stop offset="1" stop-color="#656565"/></linearGradient><linearGradient><stop offset="0" stop-color="#4c4c4c"/><stop offset="1" stop-color="#656565"/></linearGradient><linearGradient><stop offset="0" stop-color="#4c4c4c"/><stop offset="1" stop-color="#656565"/></linearGradient><linearGradient><stop offset="0" stop-color="#4c4c4c"/><stop offset="1" stop-color="#656565"/></linearGradient><linearGradient><stop offset="0" stop-color="#4c4c4c"/><stop offset="1" stop-color="#656565"/></linearGradient><linearGradient id="a"><stop offset="0" stop-color="#4887d2"/><stop offset="1" stop-color="#71a2dc"/></linearGradient><linearGradient x1="1975.884" x2="3466.778" y1="-5656.661" y2="-6315.289" xlink:href="#a" gradientUnits="userSpaceOnUse"/><linearGradient x1="1975.884" x2="3466.778" y1="-5656.661" y2="-6315.289" xlink:href="#a" gradientUnits="userSpaceOnUse"/><linearGradient x1="1975.884" x2="3466.778" y1="-5656.661" y2="-6315.289" xlink:href="#a" gradientUnits="userSpaceOnUse" gradientTransform="translate(583.61 3916.609)"/><linearGradient x1="1975.884" x2="3466.778" y1="-5656.661" y2="-6315.289" xlink:href="#a" gradientUnits="userSpaceOnUse" gradientTransform="translate(137.304 1781.357)"/><linearGradient x1="1975.884" x2="3466.778" y1="-5656.661" y2="-6315.289" xlink:href="#a" gradientUnits="userSpaceOnUse" gradientTransform="translate(137.304 1781.357)"/><linearGradient x1="1975.884" x2="3466.778" y1="-5656.661" y2="-6315.289" xlink:href="#a" gradientUnits="userSpaceOnUse"/><linearGradient x1="1975.884" x2="3466.778" y1="-5656.661" y2="-6315.289" xlink:href="#a" gradientUnits="userSpaceOnUse"/><linearGradient x1="1975.884" x2="3466.778" y1="-5656.661" y2="-6315.289" xlink:href="#a" gradientUnits="userSpaceOnUse"/><linearGradient x1="1975.884" x2="3466.778" y1="-5656.661" y2="-6315.289" xlink:href="#a" gradientUnits="userSpaceOnUse" gradientTransform="translate(507.231 -1205.157)"/><linearGradient x1="1975.884" x2="3466.778" y1="-5656.661" y2="-6315.289" xlink:href="#a" gradientUnits="userSpaceOnUse" gradientTransform="translate(953.42 929.153)"/><linearGradient x1="1975.884" x2="3466.778" y1="-5656.661" y2="-6315.289" xlink:href="#a" gradientUnits="userSpaceOnUse" gradientTransform="translate(507.231 -1205.157)"/><marker orient="auto" overflow="visible"><path fill-rule="evenodd" stroke="#000" stroke-width=".8pt" d="M4.62 0L-2.3 4v-8l6.92 4z"/></marker><marker orient="auto" overflow="visible"><path fill-rule="evenodd" stroke="#000" stroke-width=".4pt" d="M2.3 0l-3.45 2v-4L2.3 0z"/></marker><marker orient="auto" overflow="visible"><path fill-rule="evenodd" stroke="#000" stroke-width=".4pt" d="M2.3 0l-3.45 2v-4L2.3 0z"/></marker><marker orient="auto" overflow="visible"><path fill-rule="evenodd" stroke="#000" stroke-width=".4pt" d="M2.3 0l-3.45 2v-4L2.3 0z"/></marker><marker orient="auto" overflow="visible"><path fill-rule="evenodd" stroke="#000" stroke-width=".4pt" d="M2.3 0l-3.45 2v-4L2.3 0z"/></marker><marker orient="auto" overflow="visible"><path fill-rule="evenodd" stroke="#000" stroke-width=".4pt" d="M2.3 0l-3.45 2v-4L2.3 0z"/></marker><marker orient="auto" overflow="visible"><path fill-rule="evenodd" stroke="#000" stroke-width=".4pt" d="M2.3 0l-3.45 2v-4L2.3 0z"/></marker><marker orient="auto" overflow="visible"><path fill-rule="evenodd" stroke="#000" stroke-width=".4pt" d="M2.3 0l-3.45 2v-4L2.3 0z"/></marker><marker orient="auto" overflow="visible"><path fill-rule="evenodd" stroke="#000" stroke-width=".4pt" d="M2.3 0l-3.45 2v-4L2.3 0z"/></marker><marker orient="auto" overflow="visible"><path fill-rule="evenodd" stroke="#000" stroke-width=".4pt" d="M2.3 0l-3.45 2v-4L2.3 0z"/></marker><marker orient="auto" overflow="visible"><path fill-rule="evenodd" stroke="#000" stroke-width=".4pt" d="M2.3 0l-3.45 2v-4L2.3 0z"/></marker><marker orient="auto" overflow="visible"><path fill-rule="evenodd" stroke="#000" stroke-width=".4pt" d="M2.3 0l-3.45 2v-4L2.3 0z"/></marker><marker orient="auto" overflow="visible"><path fill-rule="evenodd" stroke="#000" stroke-width=".4pt" d="M2.3 0l-3.45 2v-4L2.3 0z"/></marker><marker orient="auto" overflow="visible"><path fill-rule="evenodd" stroke="#000" stroke-width=".4pt" d="M2.3 0l-3.45 2v-4L2.3 0z"/></marker><marker orient="auto" overflow="visible"><path fill-rule="evenodd" stroke="#000" stroke-width=".8pt" d="M4.62 0L-2.3 4v-8l6.92 4z"/></marker><marker orient="auto" overflow="visible"><path fill-rule="evenodd" stroke="#000" stroke-width=".8pt" d="M4.62 0L-2.3 4v-8l6.92 4z"/></marker><marker orient="auto" overflow="visible"><path fill="#789440" fill-rule="evenodd" stroke="#789440" stroke-width=".8pt" d="M4.62 0L-2.3 4v-8l6.92 4z"/></marker><marker orient="auto" overflow="visible"><path fill="#789440" fill-rule="evenodd" stroke="#789440" stroke-width=".8pt" d="M4.62 0L-2.3 4v-8l6.92 4z"/></marker><marker orient="auto" overflow="visible"><path fill="#ffc000" fill-rule="evenodd" stroke="#ffc000" stroke-width=".8pt" d="M-4.62 0L2.3-4v8l-6.92-4z"/></marker><marker orient="auto" overflow="visible"><path fill="#ffc000" fill-rule="evenodd" stroke="#ffc000" stroke-width=".4pt" d="M2.3 0l-3.45 2v-4L2.3 0z"/></marker><marker orient="auto" overflow="visible"><path fill-rule="evenodd" stroke="#000" stroke-width=".8pt" d="M4.62 0L-2.3 4v-8l6.92 4z"/></marker><marker orient="auto" overflow="visible"><path fill="#c83737" fill-rule="evenodd" stroke="#c83737" stroke-width=".8pt" d="M10 0l4-4L0 0l14 4-4-4z"/></marker><marker orient="auto" overflow="visible"><path fill="#c83737" fill-rule="evenodd" stroke="#c83737" stroke-width=".8pt" d="M-10 0l-4 4L0 0l-14-4 4 4z"/></marker><marker orient="auto" overflow="visible"><path fill="#c83737" fill-rule="evenodd" stroke="#c83737" stroke-width=".8pt" d="M10 0l4-4L0 0l14 4-4-4z"/></marker><marker orient="auto" overflow="visible"><path fill="#c83737" fill-rule="evenodd" stroke="#c83737" stroke-width=".8pt" d="M-10 0l-4 4L0 0l-14-4 4 4z"/></marker><marker orient="auto" overflow="visible"><path fill="#c83737" fill-rule="evenodd" stroke="#c83737" stroke-width=".8pt" d="M10 0l4-4L0 0l14 4-4-4z"/></marker><marker orient="auto" overflow="visible"><path fill="#c83737" fill-rule="evenodd" stroke="#c83737" stroke-width=".8pt" d="M-10 0l-4 4L0 0l-14-4 4 4z"/></marker><marker orient="auto" overflow="visible"><path fill="#c83737" fill-rule="evenodd" stroke="#c83737" stroke-width=".8pt" d="M10 0l4-4L0 0l14 4-4-4z"/></marker><marker orient="auto" overflow="visible"><path fill="#c83737" fill-rule="evenodd" stroke="#c83737" stroke-width=".8pt" d="M-10 0l-4 4L0 0l-14-4 4 4z"/></marker><marker orient="auto" overflow="visible"><path fill="#c83737" fill-rule="evenodd" stroke="#c83737" stroke-width=".8pt" d="M10 0l4-4L0 0l14 4-4-4z"/></marker><marker orient="auto" overflow="visible"><path fill="#c83737" fill-rule="evenodd" stroke="#c83737" stroke-width=".8pt" d="M-10 0l-4 4L0 0l-14-4 4 4z"/></marker><marker orient="auto" overflow="visible"><path fill="#c83737" fill-rule="evenodd" stroke="#c83737" stroke-width=".8pt" d="M10 0l4-4L0 0l14 4-4-4z"/></marker><marker orient="auto" overflow="visible"><path fill="#c83737" fill-rule="evenodd" stroke="#c83737" stroke-width=".8pt" d="M-10 0l-4 4L0 0l-14-4 4 4z"/></marker><marker orient="auto" overflow="visible"><path fill="#c83737" fill-rule="evenodd" stroke="#c83737" stroke-width=".8pt" d="M10 0l4-4L0 0l14 4-4-4z"/></marker><marker orient="auto" overflow="visible"><path fill="#c83737" fill-rule="evenodd" stroke="#c83737" stroke-width=".8pt" d="M-10 0l-4 4L0 0l-14-4 4 4z"/></marker><marker orient="auto" overflow="visible"><path fill="#c83737" fill-rule="evenodd" stroke="#c83737" stroke-width=".8pt" d="M10 0l4-4L0 0l14 4-4-4z"/></marker><marker orient="auto" overflow="visible"><path fill="#c83737" fill-rule="evenodd" stroke="#c83737" stroke-width=".8pt" d="M-10 0l-4 4L0 0l-14-4 4 4z"/></marker><marker orient="auto" overflow="visible"><path fill="#c83737" fill-rule="evenodd" stroke="#c83737" stroke-width=".8pt" d="M10 0l4-4L0 0l14 4-4-4z"/></marker><marker orient="auto" overflow="visible"><path fill="#c83737" fill-rule="evenodd" stroke="#c83737" stroke-width=".8pt" d="M-10 0l-4 4L0 0l-14-4 4 4z"/></marker><marker orient="auto" overflow="visible"><path fill="#c83737" fill-rule="evenodd" stroke="#c83737" stroke-width=".8pt" d="M10 0l4-4L0 0l14 4-4-4z"/></marker><marker orient="auto" overflow="visible"><path fill="#c83737" fill-rule="evenodd" stroke="#c83737" stroke-width=".8pt" d="M-10 0l-4 4L0 0l-14-4 4 4z"/></marker><marker orient="auto" overflow="visible"><path fill="#c83737" fill-rule="evenodd" stroke="#c83737" stroke-width=".8pt" d="M10 0l4-4L0 0l14 4-4-4z"/></marker><marker orient="auto" overflow="visible"><path fill="#c83737" fill-rule="evenodd" stroke="#c83737" stroke-width=".8pt" d="M-10 0l-4 4L0 0l-14-4 4 4z"/></marker><marker orient="auto" overflow="visible"><path fill="#c83737" fill-rule="evenodd" stroke="#c83737" stroke-width=".8pt" d="M10 0l4-4L0 0l14 4-4-4z"/></marker><marker orient="auto" overflow="visible"><path fill="#c83737" fill-rule="evenodd" stroke="#c83737" stroke-width=".8pt" d="M-10 0l-4 4L0 0l-14-4 4 4z"/></marker><marker orient="auto" overflow="visible"><path fill="#c83737" fill-rule="evenodd" stroke="#c83737" stroke-width=".8pt" d="M10 0l4-4L0 0l14 4-4-4z"/></marker><marker orient="auto" overflow="visible"><path fill="#c83737" fill-rule="evenodd" stroke="#c83737" stroke-width=".8pt" d="M-10 0l-4 4L0 0l-14-4 4 4z"/></marker><marker orient="auto" overflow="visible"><path fill="#c83737" fill-rule="evenodd" stroke="#c83737" stroke-width=".8pt" d="M10 0l4-4L0 0l14 4-4-4z"/></marker><marker orient="auto" overflow="visible"><path fill="#c83737" fill-rule="evenodd" stroke="#c83737" stroke-width=".8pt" d="M-10 0l-4 4L0 0l-14-4 4 4z"/></marker><marker orient="auto" overflow="visible"><path fill="#c83737" fill-rule="evenodd" stroke="#c83737" stroke-width=".8pt" d="M10 0l4-4L0 0l14 4-4-4z"/></marker><marker orient="auto" overflow="visible"><path fill="#c83737" fill-rule="evenodd" stroke="#c83737" stroke-width=".8pt" d="M-10 0l-4 4L0 0l-14-4 4 4z"/></marker><marker orient="auto" overflow="visible"><path fill="#c83737" fill-rule="evenodd" stroke="#c83737" stroke-width=".8pt" d="M10 0l4-4L0 0l14 4-4-4z"/></marker><marker orient="auto" overflow="visible"><path fill="#c83737" fill-rule="evenodd" stroke="#c83737" stroke-width=".8pt" d="M-10 0l-4 4L0 0l-14-4 4 4z"/></marker><marker orient="auto" overflow="visible"><path fill="#c83737" fill-rule="evenodd" stroke="#c83737" stroke-width=".4pt" d="M-2.3 0l3.45-2v4L-2.3 0z"/></marker><marker orient="auto" overflow="visible"><path fill="#c83737" fill-rule="evenodd" stroke="#c83737" stroke-width=".4pt" d="M2.3 0l-3.45 2v-4L2.3 0z"/></marker><marker orient="auto" overflow="visible"><path fill="#c83737" fill-rule="evenodd" stroke="#c83737" stroke-width=".8pt" d="M10 0l4-4L0 0l14 4-4-4z"/></marker><marker orient="auto" overflow="visible"><path fill="#c83737" fill-rule="evenodd" stroke="#c83737" stroke-width=".8pt" d="M-10 0l-4 4L0 0l-14-4 4 4z"/></marker><marker orient="auto" overflow="visible"><path fill="#c83737" fill-rule="evenodd" stroke="#c83737" stroke-width=".8pt" d="M10 0l4-4L0 0l14 4-4-4z"/></marker><marker orient="auto" overflow="visible"><path fill="#c83737" fill-rule="evenodd" stroke="#c83737" stroke-width=".8pt" d="M-10 0l-4 4L0 0l-14-4 4 4z"/></marker><marker orient="auto" overflow="visible"><path fill="#c83737" fill-rule="evenodd" stroke="#c83737" stroke-width=".8pt" d="M10 0l4-4L0 0l14 4-4-4z"/></marker><marker orient="auto" overflow="visible"><path fill="#c83737" fill-rule="evenodd" stroke="#c83737" stroke-width=".8pt" d="M-10 0l-4 4L0 0l-14-4 4 4z"/></marker><marker orient="auto" overflow="visible"><path fill="#c83737" fill-rule="evenodd" stroke="#c83737" stroke-width=".8pt" d="M10 0l4-4L0 0l14 4-4-4z"/></marker><marker orient="auto" overflow="visible"><path fill="#c83737" fill-rule="evenodd" stroke="#c83737" stroke-width=".8pt" d="M-10 0l-4 4L0 0l-14-4 4 4z"/></marker><marker orient="auto" overflow="visible"><path fill="#c83737" fill-rule="evenodd" stroke="#c83737" stroke-width=".4pt" d="M-2.3 0l3.45-2v4L-2.3 0z"/></marker><marker orient="auto" overflow="visible"><path fill="#c83737" fill-rule="evenodd" stroke="#c83737" stroke-width=".4pt" d="M2.3 0l-3.45 2v-4L2.3 0z"/></marker><marker orient="auto" overflow="visible"><path fill="#c83737" fill-rule="evenodd" stroke="#c83737" stroke-width=".4pt" d="M-2.3 0l3.45-2v4L-2.3 0z"/></marker><marker orient="auto" overflow="visible"><path fill="#c83737" fill-rule="evenodd" stroke="#c83737" stroke-width=".4pt" d="M2.3 0l-3.45 2v-4L2.3 0z"/></marker><marker orient="auto" overflow="visible"><path fill="#c83737" fill-rule="evenodd" stroke="#c83737" stroke-width=".4pt" d="M-2.3 0l3.45-2v4L-2.3 0z"/></marker><marker orient="auto" overflow="visible"><path fill="#c83737" fill-rule="evenodd" stroke="#c83737" stroke-width=".4pt" d="M2.3 0l-3.45 2v-4L2.3 0z"/></marker><marker orient="auto" overflow="visible"><path fill="#c83737" fill-rule="evenodd" stroke="#c83737" stroke-width=".8pt" d="M10 0l4-4L0 0l14 4-4-4z"/></marker><marker orient="auto" overflow="visible"><path fill="#c83737" fill-rule="evenodd" stroke="#c83737" stroke-width=".8pt" d="M-10 0l-4 4L0 0l-14-4 4 4z"/></marker><marker orient="auto" overflow="visible"><path fill="#c83737" fill-rule="evenodd" stroke="#c83737" stroke-width=".8pt" d="M10 0l4-4L0 0l14 4-4-4z"/></marker><marker orient="auto" overflow="visible"><path fill="#c83737" fill-rule="evenodd" stroke="#c83737" stroke-width=".8pt" d="M-10 0l-4 4L0 0l-14-4 4 4z"/></marker><marker orient="auto" overflow="visible"><path fill="#c83737" fill-rule="evenodd" stroke="#c83737" stroke-width=".8pt" d="M10 0l4-4L0 0l14 4-4-4z"/></marker><marker orient="auto" overflow="visible"><path fill="#c83737" fill-rule="evenodd" stroke="#c83737" stroke-width=".8pt" d="M-10 0l-4 4L0 0l-14-4 4 4z"/></marker><marker orient="auto" overflow="visible"><path fill="#c83737" fill-rule="evenodd" stroke="#c83737" stroke-width=".4pt" d="M-2.3 0l3.45-2v4L-2.3 0z"/></marker><marker orient="auto" overflow="visible"><path fill="#c83737" fill-rule="evenodd" stroke="#c83737" stroke-width=".4pt" d="M2.3 0l-3.45 2v-4L2.3 0z"/></marker></defs><g><g><g fill="#ccc" style="line-height:135.00000238%;-inkscape-font-specification:'Equity Text A, Normal';text-align:start" font-size="498.887" font-family="Equity Text A" letter-spacing="0" word-spacing="0"><path d="M382.04 75.72l23 98.1h-22l-50.5-74.2h-72.98v300.23l46 7.47v19.9H160.58v-19.9l45.98-7.47V99.62h-73l-50.48 74.2h-22l23-98.1h297.94z"/></g><path fill="none" stroke="#000" stroke-width="2" d="M87.42 78.57c-.3.34-.6.7-.9 1.05l-.08.38c.4-.47.82-.96 1.2-1.43h-.22zm10.1 0C92.7 84.2 87.55 90.22 82.7 95.9l-.37 1.5c5.23-6.1 10.93-12.78 16.1-18.83h-.9zm9.02 0c-8.74 10.35-18.5 21.88-27.4 32.42l-.1.38c9.02-10.67 18.88-22.33 27.74-32.8h-.24zm15.26 0C106 96.97 89.7 116 73.5 134.9l-.37 1.53c16.64-19.4 33.4-38.97 49.6-57.86h-.93zm13.7 0c-22 26.04-44.78 53.03-67.6 80.05l-.1.4c22.94-27.16 45.83-54.27 67.93-80.45h-.23zm11.72 0c-26.7 31.27-55.43 64.95-83.23 97.5h.94c27.78-32.54 56.54-66.25 83.2-97.5h-.92zm5 0c-26.44 31.2-54.97 64.9-82.6 97.5h.25c27.6-32.56 56.16-66.3 82.58-97.5h-.23zm16.62 0c-6.93 8.08-13.35 15.56-20.38 23.76h.93c7.03-8.22 13.4-15.66 20.35-23.76h-.9zm11.58 0c-6.8 8.06-13.15 15.57-20.07 23.76h.23c6.93-8.2 13.25-15.7 20.06-23.76h-.22zm13.7 0c-6.85 8-13.4 15.64-20.36 23.76h.9c6.95-8.12 13.5-15.78 20.34-23.76h-.9zm10.52 0c-6.83 8.1-13.12 15.54-20.06 23.76h.23c6.95-8.22 13.24-15.67 20.07-23.76h-.23zm15.56 0c-6.65 7.77-13.62 15.9-20.35 23.76h.93c6.73-7.85 13.7-16 20.35-23.76h-.93zm13.22 0c-7.9 9.35-16.13 19.1-24.14 28.57v.28c8.1-9.58 16.4-19.4 24.38-28.85h-.24zm7.66 0c-10.45 12.2-21.18 24.75-31.8 37.17v1.1c10.93-12.78 21.98-25.7 32.74-38.27h-.94zm13.22 0c-14.62 17.3-30.03 35.5-45.02 53.24v.3c15.05-17.82 30.57-36.16 45.25-53.53h-.23zm6.2 0c-17 19.88-33.53 39.17-51.22 59.86v1.08c18-21.05 34.82-40.7 52.1-60.93h-.87zm10.45 0c-20.13 23.83-40.65 48.1-61.67 73v.27c21.1-24.96 41.7-49.35 61.9-73.27h-.23zm8.72 0c-23.26 27.2-46.45 54.28-70.4 82.3V162c24.28-28.4 47.78-55.88 71.33-83.43h-.93zm12.17 0c-6.63 7.84-13.4 15.84-20.1 23.76h.25c6.7-7.93 13.45-15.9 20.08-23.76h-.24zm8.16 0c-6.7 7.84-13.55 15.84-20.32 23.76h.94c6.77-7.92 13.6-15.92 20.3-23.76H300zm12.25 0c-6.46 7.65-13.54 16.03-20.07 23.76h.23c6.55-7.74 13.62-16.1 20.08-23.76h-.23zm14.6 0C320 86.6 313.47 94.2 306.5 102.33h.94c6.94-8.12 13.47-15.75 20.32-23.76h-.9zm10.48 0c-6.5 7.7-13.47 15.95-20.07 23.76h.24c6.58-7.8 13.57-16.07 20.06-23.76h-.23zm16.12 0c-6.7 7.8-13.6 15.87-20.35 23.76h.94c6.76-7.9 13.66-15.95 20.34-23.76h-.93zm12.82 0c-8.48 10.04-17.5 20.7-26.1 30.9l.1.15C348.9 99.4 358 88.65 366.5 78.57h-.23zm8.6 0c-10.36 12.12-20.4 23.85-31.02 36.28l.4.6c10.8-12.64 20.98-24.57 31.5-36.88h-.9zm8.42 0c-11.88 14.05-23.3 27.57-35.52 42.02l.1.15c12.25-14.5 23.74-28.1 35.64-42.18h-.23zM387 88.1c-11.18 13.07-22.76 26.63-34.14 39.94l.43.62c11.14-13.02 23-26.9 33.92-39.7l-.2-.86zm2.2 9.28c-10.25 12.1-21.28 25.14-31.7 37.45l.12.16c10.4-12.3 21.4-25.3 31.62-37.4l-.05-.22zm2.04 8.68c-9.78 11.43-19.75 23.1-29.67 34.7l.4.62c9.86-11.53 19.76-23.1 29.46-34.46l-.2-.86zm-128.98 7.48c-17.65 20.87-35 41.4-53 62.68v.3c17.98-21.27 35.35-41.83 53-62.7v-.28zm131.57 3.5c-8.85 10.47-17.83 21.1-26.8 31.7l.1.16c8.96-10.6 17.92-21.2 26.75-31.64l-.05-.22zm-131.57 5.63c-17.64 20.62-35.07 41-53 62v1.13c17.93-21 35.37-41.4 53-62v-1.13zm133.02.54c-8.37 9.8-16.9 19.8-25.4 29.7l.43.63c8.4-9.84 16.88-19.76 25.18-29.47l-.2-.85zm2.8 11.87c-7.33 8.7-14.9 17.67-22.3 26.45l.1.15c7.4-8.76 14.94-17.7 22.25-26.38l-.05-.23zm-135.82 2.65c-17.5 20.7-35.2 41.65-53 62.74v.3c17.82-21.1 35.5-42.03 53-62.75v-.28zm139.6 13.38c-6.17 7.22-12.24 14.3-18.44 21.57l.43.62c6.13-7.18 12.12-14.2 18.22-21.33l-.22-.87zm-139.6 2.94c-17.67 20.66-34.97 40.87-53 61.96v1.16c17.75-20.78 35.6-41.65 53-62v-1.12zm142 7.27c-4.14 4.92-8.3 9.85-12.47 14.78h.25c4.1-4.86 8.2-9.7 12.3-14.55l-.06-.22zm-142 6.13c-17.6 20.82-35.12 41.58-53 62.75v.3c17.9-21.2 35.4-41.93 53-62.76v-.3zm-174.5 5.7c-.84 1-1.66 1.96-2.5 2.95h.5l2-2.94zm174.5 11.9c-17.55 20.5-35.3 41.24-53 61.95v1.14c17.7-20.7 35.45-41.45 53-61.95v-1.13zm0 16.6c-17.5 20.7-35.3 41.72-53 62.66v.28c17.7-20.93 35.5-41.98 53-62.67v-.28zm0 8.74c-17.64 20.66-35.07 41.07-53 62.1v1.16c17.84-20.9 35.47-41.58 53-62.12v-1.13zm0 11.36c-17.73 20.97-35.04 41.44-53 62.7v.28c17.96-21.24 35.27-41.7 53-62.68v-.3zm0 12.36c-17.65 20.65-35.26 41.26-53 62.04v1.16c18.02-21.1 35.08-41.07 53-62.05v-1.16zm0 13.37c-17.96 21.22-34.97 41.34-53 62.66v.3c18.03-21.33 35.04-41.45 53-62.68v-.28zm0 9.52c-17.04 19.94-33.95 39.72-51.04 59.74-.67.8-1.3 1.52-1.96 2.3v1.16c.78-.92 1.5-1.78 2.3-2.7 16.97-19.88 33.77-39.55 50.7-59.37V257zm0 15.65c-15.06 17.8-29.97 35.44-45.07 53.28-2.7 3.2-5.22 6.18-7.92 9.38v.3c3.2-3.8 5.6-6.64 8.82-10.43 14.8-17.5 29.4-34.78 44.18-52.23v-.3zm0 6.3c-15.58 18.24-31.03 36.32-46.64 54.62-2.13 2.5-4.23 4.96-6.36 7.47v1.15c2.28-2.68 4.4-5.2 6.7-7.86 15.5-18.18 30.83-36.13 46.3-54.26v-1.14zm0 17.22c-2.76 3.27-5.36 6.34-8.12 9.6-15.04 17.86-29.9 35.48-44.88 53.26v.3c15.3-18.14 30.43-36.1 45.78-54.3 2.45-2.92 4.76-5.66 7.22-8.57v-.3zm0 18.2c-18.02 21.08-35.16 41.1-53 62v1.14c17.57-20.53 35.26-41.23 53-61.97v-1.16zm0 15.1c-17.77 21.04-35.33 41.85-53 62.8v.28c17.67-20.93 35.23-41.74 53-62.8v-.28zm0 17.76c-4.33 5.06-8.4 9.82-12.7 14.9-18.86 22.08-37.5 43.92-56.26 65.9h.98c18.55-21.73 36.97-43.3 55.6-65.14 4.2-4.95 8.16-9.6 12.38-14.52v-1.15zm0 6.92c-20.9 24.72-41.82 49.46-62.45 73.88h.25c20.54-24.3 41.38-48.96 62.2-73.6v-.28zm0 15.02c-16.98 19.86-33.6 39.3-50.3 58.86h.94c16.4-19.18 32.7-38.25 49.36-57.73v-1.13zm0 16.9c-12 14.2-23.54 27.87-35.44 41.96h.24c11.82-14 23.28-27.56 35.2-41.66v-.3zm0 11.45c-8.85 10.35-17.26 20.2-26.06 30.5h.97c8.46-9.9 16.56-19.4 25.08-29.36v-1.14zm-61.07 4.6l-.28.03c-7.27 8.62-14.6 17.3-21.84 25.88h.25c7.25-8.6 14.6-17.3 21.88-25.92zm73.75.73c-7.16 8.5-14.1 16.73-21.22 25.18h.24c7.1-8.43 14.05-16.67 21.2-25.15l-.22-.03zm10.34 1.67c-6.74 7.88-13.4 15.68-20.08 23.5h.95c6.65-7.78 13.27-15.53 19.96-23.37l-.84-.13zm-99.13 0l-1.14.2c-6.67 7.8-13.32 15.57-19.93 23.3h.97c6.8-7.93 13.27-15.5 20.1-23.5zm109.8 1.72c-6.22 7.37-12.2 14.45-18.4 21.8h.24c6.2-7.34 12.17-14.4 18.4-21.76l-.22-.04zm-127.17 1.1l-.3.05c-1.72 2.04-3.5 4.14-5.22 6.2v.3c1.82-2.17 3.7-4.4 5.52-6.56zm134.48.1c-5.97 7-11.62 13.6-17.58 20.6h.97c5.92-6.95 11.53-13.52 17.47-20.48l-.86-.13zm5 14.1c-1.86 2.18-3.64 4.3-5.5 6.5h.25c1.77-2.1 3.48-4.13 5.25-6.22v-.3z" opacity=".98" stroke-linecap="round" stroke-linejoin="round"/><path fill="none" stroke="#000" d="M392.83 95.03c7.36 25.2 12.5 51.83 17.72 78.15m-5.62-29.08c2.26 10.32 4.77 20.8 7.45 31.36-7.2.05-14.32.14-21.38.26-3.07-4.7-6.1-9.35-9.1-14m2.26 18.45c-15.15-20.92-28.53-41.98-41.9-63.9m15.03 16.53c-5.1-7.74-10.4-15.63-15.8-23.57-21.6.3-43.64.3-64.84 1m18.97-8.9c-11.82-.3-23.14-.48-34.08-.66.78 16.5 2.37 33 4.4 49.18m-.52-15.1c-.8 26.25.7 49.88 3.12 72.17m-7.22-13.6c-.73 24.9.58 49.52 2.7 73.87m4.84-20.7c.47 23.18-.44 47.57-2.07 72.84m-1.02-13.62c.83 31.3-.3 60.4-1.2 88.74m3.2-26.64c-.2 10.4-.18 20.62.02 30.82 15.65 2.9 31.7 5.7 48 8.93.3 5.1.6 10.24.94 15.43m-14.98-15.2c3.54.6 7.04 1.17 10.5 1.73.2 6.63.3 13.22.33 19.78-17.34-.05-35.16-.33-52.77-.62m15.3-5.02c-28.57.78-59.82-.65-90.3-2.4m23.2 7.8c-15.2.13-30.65.87-46 2.28.18-5.98.4-11.85.64-17.6 5.65-.17 11.33-.25 17.06-.25m-12.48-.22c-.06-1.4-.1-2.82-.16-4.23 14.77-1.73 29.77-3.52 44.6-4.9-.25-6.97-.54-13.84-.9-20.55m2.33 10.12c.16-27.06-.75-53.02-2.4-79.2m.7 21.5c-.53-29.7 1.02-60.12 3.36-89.08m-.53 23.73c.63-31.76.07-66.88.15-103.48m-1.6 29.54c.1-31.14.56-62.08 1.68-90.72-.74.08-1.5.16-2.23.24m0 19.92c.05-8.76.2-17.6.5-26.56-17.98-.24-35.4-.86-52.2-1.7m8.43 9.18c-12.1-.28-24.24-.44-36.23-.62-9.18 14.2-18.08 28.4-26.2 42.27m14.52-19.58c-11.26 16.53-22.93 32.92-34.73 48.9-7.44-.28-14.9-.62-22.35-1.02.8-3.94 1.63-7.9 2.44-11.86m16.1 12.28c-5.26-.25-10.44-.4-15.57-.5 6.2-27.24 14.03-52.25 21.87-77.8m-9.7 29.53c3.58-15.2 7.13-30.78 10.67-46.93 16.24-1.3 32.48-3.2 48.74-5.96m-32.96 7.6c32.53-.34 67.1-.1 101.88-.3m-28.45-9.26c30.78 1.3 59.68 2.24 88.8 6m-20.27 2.32c23.3-.04 46.83.4 69.9 1.2m-12.14 2.78c28.7-.85 57.02-.44 85.9-.6.2.85.43 1.7.65 2.53m-23.8-1.85c6.52.13 13.13.2 19.77.2 3.8 17.73 7.92 35.08 11.7 52.35m-11.2-42.33c6.45 27.83 13.76 53.16 21.93 77.16m-10.7-27.4c1.93 8.67 4 17.6 6.2 26.7-7.27.1-14.48.32-21.63.62-8.95-12.93-17.64-25.45-26.36-37.95m16.78 32.23c-13.35-17.98-25.77-37.2-37.7-56.2-4.07.02-8.14.03-12.2.06m26.6-2.55c-1.35-1.98-2.7-3.97-4.07-5.96-24.16.18-48.72.25-73.26.54 0 .87 0 1.74-.02 2.62m14.74.37c-5.9 0-11.88.04-17.95.12-.22 24.85-1.82 50.45-4 76.74m.72-32.94c-.5 31 .04 62.98.28 95.08m4.8-32.15c1.3 29.75.15 60.54-.43 93m-9.96-12.44c-.33 31.32.86 61.67 2.67 92.44m-.98-41.34c-.72 15.87-.7 32.56-.48 49.5 7.2 1.26 14.43 2.57 21.66 3.87m-11.87 8.54c13.68 2.02 26.56 4 38.85 5.9-.5 6.48-1.12 12.92-1.87 19.34-14.26-.32-28.97-.74-44-1.3m42 5.15c-30.8.56-63.26.26-94.16.6m18-16.35c-22.46.23-44.22.97-65.27 2.55.12-1.78.25-3.56.38-5.33m10.9 20.13c-3.56.06-7.08.1-10.55.1-.08-6.54 0-13.17.25-19.87 15.9-2.75 32.57-5.9 49.63-9.23.45-4.3.93-8.62 1.43-12.95m-16.76 8.77c3.67-.76 7.38-1.47 11.14-2.12-.12-28 1.9-53.5 4.55-78.7m2.46 29.2c-.33-25.2-.15-50.34-.03-75.5m-1.82 12.66c-1.06-24.6-.8-50.67-1.08-76.58m-3.6 16.66c-1.06-24.36-.45-48.2.16-71.98m-2.24 20.87c-.1-21.76.56-44.98 1.82-68.68-6.66-.38-13.26-.8-19.8-1.25m18.8 1.23c0-.8 0-1.6 0-2.4-24.26 0-48.38.25-72.26.73-4.23 6.53-8.44 13.08-12.63 19.65m13.24-22.74c-1.93-.04-3.86-.08-5.8-.1-15.25 22.97-30.43 46.84-43.75 70.38m14.3-21.72c-5.46 7.87-11.17 15.75-17.12 23.64-7.7-.05-15.55-.1-23.55-.17 2.3-16 3.87-32.03 4.75-48.22m1.57 31.86C78.5 134.4 83 107.37 87 78.9c3.92-.37 7.84-.76 11.76-1.2M86.93 88.1c.95-4.55 1.92-9.06 2.9-13.52 26.22-.46 52.78.43 78.68.82m-18.03 4.38c28.68.65 57.07-1.02 85.96-3.57m-30.5-2.05c27-1.27 56.18 1.32 85.05 5.05m-29.38 7.34c26.23.3 53.2.34 81.04.65M327.6 79c19.4-.17 38.4-.33 57.13-.65 2.62 12.65 5.1 25.23 7.45 37.68m-1.75-24.68c5.1 26.84 12.38 53.67 19.65 81.57m-8.46-24.47c2.05 9.3 4.43 18.98 7.07 28.9-7.1.1-14.07.36-20.92.68-4.94-7.7-9.68-15.24-14.28-22.76m17.36 11.3c-14.83-22.17-31.6-42.5-50.23-61.92m1.52 15.6c-3.44-5.27-6.88-10.6-10.3-15.98-22.46-.18-44.6-1.07-65.23-2.32m28.15-2.82c-9.37-.2-18.64-.13-27.9.18-.58 21.02-1.08 43.22-2.46 66.1m-1.3-21.34c.75 31.7-.05 62.3-.36 91.86m3.12-25c-.44 24.4.4 50.54 1.74 76.57m-3.58-24.92c-.65 24.3-.33 48.84-.07 73.5m2.8-6.2c-1.1 25.84-.06 51.3 1.25 77.3 5.42.97 10.84 1.96 16.26 3M265.5 392.6c-.02 3.2-.03 6.38 0 9.6 15.45 2.63 31.56 5.53 48.24 8.74.48 5.8 1.03 11.62 1.65 17.5m3.92-12.33c-.05 6.1-.1 12.28-.2 18.54-19.52-.23-39.18.2-59.15.54m18.96-5.53c-23.13-1-48.35-.3-74.42.6m8.82 5.77c-15.67.64-31.52.43-47.18-.18.2-6.82.45-13.72.74-20.64 3.82-.8 7.65-1.58 11.5-2.38m-15.03 2.27c.05-2.57.1-5.14.13-7.72 15.54-2.36 30.83-4.82 46.04-7.3-.05-7.53-.12-15.08-.2-22.62m4.83 21.24c-1.04-32.18-1.64-65.6-4.8-99.32m6.24 22.08c-1.3-28.55.8-56.4 3.52-84.9m.58 31.26c0-25.1.35-49.7 1.04-74.95m-9.75 16.4c-.62-25.98-1.42-54.24-3.6-82.16m9.45 16.83c.44-14.66.04-28.54-.95-41.98-17.42.7-35.64 2.03-54.3 3.45m27.06-2.28c-17.02-.4-33.28-.88-49.26-1.7-8.02 11.44-15.82 22.6-23.74 33.23m10.83-17.73c-12.65 20.07-26.63 39.34-40.8 58.66 0 0-.12 0-.12 0m3.95-7.28c-2.8 4.23-5.58 8.44-8.3 12.63-7.15.08-14.2.1-21.17.12 3.2-11.02 6.62-22.08 10.33-33.13m-2.06 8.57c4.5-22.85 11.48-46.93 19.2-71.02m1.55 17.54c1.8-7.83 3.5-15.73 5.15-23.72 18.5-.33 36.53-1.1 53.96-2.24m-28.9 1.4c33.24-1.52 68.37 1.83 105.67 5.5M196.02 81c24.47-.5 50.25.66 76.27 2.62m-11.4-4.98c24.56-.9 46.76.22 68.3 2.02M310 84.23c23.08.85 47.3-.57 71.14-2.93m-12.88 2.5c6.9-.05 13.74-.08 20.56-.1 4.33 19.4 8.34 38.94 12 58.45m-16.96-62.18c6.27 23.87 12.84 48 20.6 71.6m-7.7-20.9c2.76 13.38 6 26.68 9.57 40.06-7.07.2-14.03.44-20.93.73-1.58-2.46-3.15-4.9-4.7-7.35m11.95 9.24c-2-.06-3.98-.12-5.95-.16-12.9-19.4-24.74-37.93-35.7-56.58m8.72 21.62c-7.63-10.14-14.7-20.36-21.42-30.63-11.7-.04-23.1-.1-34.43-.17m14.58-5.52c-17.57.55-35.83.65-54.65.76-.76 12.16-1.8 24.32-3.06 36.64m9.6-19.98c-.07 23.2.34 46.25 1.1 68.57m-12.84-11.94c-.02 28.84 1.37 57.76 4.16 86.1m-3.7-31.52c-1.1 26.85-.34 53.18.3 81.06m1.7-12.4c-1.12 31.33.96 60.13 3.52 89.23m9.87-32.16c.22 12.7.1 26-.28 39.65 10.75 2.05 21.32 4.33 31.8 6.67m-19.2 3.4c9.82 1.83 19.55 3.4 29.23 4.8.05 6.47.07 12.85.1 19.17-15.72-.62-31.46-1.6-46.98-2.63m28.95-2.55c-26.17-.2-52.25 1.77-77.52 5.52m11.22 1.9c-22.4.64-43.7.32-64.9-.13.13-6.73.27-13.47.4-20.2 4.68-.83 9.35-1.66 14-2.48m-22 16.7c-.14-5.15-.24-10.3-.3-15.43 15.18-2.68 30.75-5.32 46.42-8.1.07-4 .16-8.03.26-12.06m2.1 20.78c1.52-.17 3.03-.36 4.53-.54.9-30.64.26-65.1.97-99.72m3.26 22c.92-28.53 1.08-54.36 2.3-79.82m.32 18c1.42-28.48.56-57.83.7-86.65m-4.22 27.97c-.15-30.26-1.42-61.1-4.18-94.22m5.04 28.76c-.1-13.1-.3-27.16-.62-41.9-9.96-.77-20-1.9-30.1-3.25m14.8 3.4c-19.95.54-39.68.8-59.63 1.34-6.92 10.03-13.9 20.17-21.08 30.53m19.46-19.93c-16.05 20.77-30.42 43.45-44.84 65.5-.27 0-.53 0-.8 0m9.12-20.75c-3.5 5.06-7 10.16-10.48 15.3-7.24-.1-14.45-.14-21.65-.18 4.6-18.1 9.38-36.14 14.5-54.5M71.85 153.2c6.58-22.88 12.94-46.6 20.7-70.26 9-.07 18.2-.13 27.6-.15m-29.96-3.63c.27-1.14.54-2.28.8-3.42 22.3 0 44.08.35 65.43 1m-7.1 5.02c29.93.4 60.55-.02 88.46-.23m-19.9 2.93c29.16-1.16 58.72-.17 86.08.1m-25.16-1.47c24.37-.35 47.7-.07 70.23.32m-15.53-3.45c18.22-.03 37.4.3 57.16 1 2.22 7.64 4.53 15.34 6.9 23.1M212.8 207.4V46.56m1.84 34.24h143.52m-309.37 0H197.9m67.88-70.2v190.17m-53 262.34V293.6" style="line-height:125%;-inkscape-font-specification:'Equity Text A, Normal';text-align:start" font-family="Equity Text A" letter-spacing="0" word-spacing="0"/><path fill="none" stroke="#c83737" stroke-width="3" d="M161.64 158.77c-9.08 24.16-26.14 46.06-45.6 59.84-6.47 4.58-13.1 8.2-19.77 10.8m19.84-21.98c-.46.34-.94.68-1.42 1-10.26 7.12-20.65 11.97-30.85 14.2-10.2 2.2-19.92 1.75-28.7-1.4C49 219 43.4 215.48 38.53 210.8m8.42 15.5c-8.8-3.63-16.44-9.55-22.57-17.53-6.6-8.6-11.34-19.43-14.02-32.04-2.4-11.34-3.1-23.86-2.27-37.28m5.76 26.2c-1.62-20.55 1.4-44.56 9.84-66.74.8-2.08 1.64-4.15 2.53-6.2m-14.6 12.02c1.1-4.9 2.54-9.73 4.26-14.48 9.2-25.38 26.62-47.68 47.38-63.48M45.96 49.73c6.34-7.78 13.7-14.88 21.7-20.9C78.07 21 89.3 15.2 100.6 11.9c2.4-.7 4.76-1.27 7.12-1.74m-22.55 6.88c3-1.1 6.06-2 9.12-2.63 10.32-2.15 20.65-1.6 30.3 1.65 9.64 3.25 18.4 9.1 25.88 17.2 2.5 2.74 4.86 5.7 7.04 8.9m-6.57-18.3c1.7 1.65 3.33 3.42 4.86 5.32 6.7 8.33 11.48 19.06 13.98 31.66 3.4 17.1 2.5 37.06-2.56 58.18m3.2-21.26c-.2 15.9-3.5 31.68-9.47 46.44-5.66 14-13.58 26.75-22.96 37.5m21.46-32.63c-10.8 25.06-25.34 45.67-42.03 59.74-1.94 1.63-3.9 3.17-5.88 4.6m13.18-11.8c-3.32 3.45-6.85 6.57-10.5 9.34-9.73 7.34-20.34 12.13-30.84 14.14-10.54 2-20.83 1.22-30.17-2.3-.4-.14-.82-.3-1.22-.47m14.36-1.5c-6 .2-11.92-.78-17.55-2.87-9.05-3.37-17.24-9.58-24-18.28-6.76-8.68-12-19.73-15.23-32.45-.93-3.65-1.68-7.43-2.26-11.3m5.56 32.4c-1.65-4.26-3-8.76-4.07-13.42-5.27-23.23-2.82-49.84 9.03-71.7m-3.4 13.74c1.28-7.64 3.27-15.27 5.88-22.67 5.35-15.15 13.15-29 22.33-39.88m-7.07 7.24c9.3-15.2 20.2-27.6 31.9-36.45C76.97 17.93 86.87 13.2 96.6 11.1c.24-.04.48-.1.72-.14M79.54 20.2c5.87-2.82 11.9-4.8 17.96-5.9 10.52-1.9 20.9-1.08 30.55 2.5 9.24 3.44 17.63 9.36 24.78 17.56m-15.98-14.52c6.64 3.65 12.54 8.58 17.53 14.62 6.67 8.07 11.58 17.95 14.53 28.98 2.12 7.9 3.2 16.3 3.24 24.9m-4.22-25c5.13 23.82 3.12 51.77-5.28 79.88m4.4-26.76c-1.54 8-3.62 15.88-6.18 23.5-8 23.8-20.4 44.17-34.9 57.82M38.17 45.82l71.4-44.3m66.86 56.24L162 165.08M152.1 17l26.2 79.83m-41.03 103L66.2 236.7M1.5 141.86L43.04 37" stroke-linecap="round" stroke-linejoin="round"/><path fill="none" stroke="#c83737" stroke-width="3" d="M435.75 105.8c-9.03-25.83-26.2-46.86-45.6-60.15-6.46-4.42-13.1-7.95-19.77-10.53m19.84 1.4c-.47-.35-.95-.7-1.43-1.05-10.25-7.47-20.68-12.3-30.86-14.35-10.17-2.04-19.93-1.25-28.7 2.3-6.14 2.47-11.73 6.27-16.6 11.3m8.42-4.7c-8.8 3.3-16.44 8.87-22.57 16.34-6.62 8.07-11.34 18.16-14.02 29.63-2.4 10.3-3.12 21.44-2.27 32.85m5.77-17.48c-1.62 22.04 1.4 46.06 9.84 68.9.8 2.14 1.65 4.27 2.54 6.4m-14.6-28.92c1.1 4.65 2.54 9.28 4.26 13.84 9.25 24.5 26.6 46.13 47.4 60.07m-17.32-9.63c6.32 8.36 13.7 15.16 21.68 20.33 10.4 6.72 21.72 10.6 32.97 11.6 2.37.2 4.74.27 7.1.22m-22.55-.33c3 1.1 6.06 1.98 9.12 2.6 10.33 2.1 20.67 1.4 30.3-2.06 9.65-3.46 18.42-9.62 25.9-18.16 2.5-2.88 4.86-6 7.04-9.37m-6.58 10.64c1.7-1.67 3.34-3.46 4.86-5.36 6.7-8.32 11.47-18.55 13.97-30 3.4-15.56 2.5-32.75-2.57-49.8m3.2 18.88c-.2-15.3-3.5-31.65-9.47-47.83-5.66-15.37-13.58-30.18-22.95-43.27m21.48 30.64C422.68 67.9 408.33 48 391.54 35.83c-1.93-1.4-3.9-2.7-5.87-3.87m13.18 15.1c-3.33-3.32-6.85-6.36-10.52-9.08-9.73-7.23-20.3-12.16-30.83-14.4-10.53-2.25-20.8-1.78-30.16 1.42-.4.14-.8.28-1.22.43m14.36-8.6c-6.02.13-11.92 1.23-17.56 3.3-9.06 3.35-17.24 9.15-24 17.1-6.77 7.95-12 17.9-15.24 29.23-.92 3.26-1.68 6.6-2.26 10.06m5.55-16.4c-1.64 4.34-3 9.03-4.06 14.02-5.24 24.78-2.82 56.38 9.05 89.13m-3.4-32.72c1.27 8.45 3.26 16.82 5.87 25.05 5.33 16.8 13.16 32.78 22.33 47.04m-7.08-19.67c9.33 14.3 20.17 26.66 31.9 35.7 9.54 7.36 19.4 12.3 29.14 14.5.25.06.5.1.74.16m-17.8-3.78c5.88 3.18 11.92 5.46 17.97 6.82 10.53 2.36 20.93 1.9 30.57-1.2 9.25-3 17.62-8.4 24.77-15.8m-15.98 12.8c6.64-3.35 12.55-8.32 17.53-14.74 6.66-8.6 11.58-19.65 14.52-32.7 2.1-9.34 3.2-19.57 3.23-30.45m-4.22 24.3c5.13-22.65 3.13-49.26-5.28-73.13m4.4 17.28c-1.53-7.86-3.6-15.77-6.17-23.56-8-24.4-20.4-46.82-34.9-62.83m-87.8 166.64l71.4 44.3m66.85-56.24L436.1 83.72m-9.9 148.08l26.22-79.83m-41.03-103L340.3 12.1m-64.68 94.82l41.52 104.85" stroke-linecap="round" stroke-linejoin="round"/><path fill="none" stroke="#c83737" stroke-width="3" d="M225.75 336.87c-28.45 1.86-57.56 12.13-78.47 26.5-4.38 3-8.4 6.17-11.98 9.48m18.22-24.47c-2.6 1.48-5.08 3.03-7.43 4.65-10.83 7.45-18.95 16.3-24.03 25.77-5.08 9.5-7.06 19.52-5.84 29.43.52 4.2 1.6 8.34 3.26 12.4m-9.93-13.02c-.22 2.07-.28 4.14-.2 6.2.45 9.52 4.26 18.76 11.15 27.02 6.9 8.27 16.76 15.42 28.93 20.85 7.2 3.2 15.16 5.8 23.6 7.6m-15.33-3.6c21.73 10.93 47.28 16.2 74.78 16.5m-29.28-9.5c10.43.86 21.6.9 33.13.03 20.6-1.57 41.66-6.04 61-13.5m-23.08 13.6c18.58-4.17 36.6-12.74 51.44-23.95 4.9-3.7 9.43-7.68 13.52-11.85m-19.24 13.65c.1-.07.2-.14.3-.2 10.37-7.6 18.84-16.37 24.66-25.87 5.83-9.5 8.83-19.43 8.83-29.35 0-4.93-.74-9.8-2.2-14.57m7.86 13.86c.02-1.15 0-2.3-.07-3.46-.6-9.74-4.58-19.05-11.7-27.23-7.12-8.2-17.27-15.12-30-20.23-7.82-3.14-16.53-5.56-25.95-7.17m19.9 5.88c-22.32-10.2-52.66-16.3-83.37-16.58-3.4-.03-6.77 0-10.13.12m3.72-1.05c-29.43 4.53-54.32 13.86-72.46 29.02-.17.13-.33.27-.5.4m14.78-9.47c-6.34 3.3-12.3 6.95-17.8 10.9-10.56 7.6-18.96 16.17-24.53 25.42-4.2 6.97-6.7 14.2-7.36 21.46m.47-23.94c-3.83 8.74-5.5 17.5-4.8 26.13.8 9.6 4.57 18.74 11.15 26.87 6.58 8.14 15.84 15.1 27.45 20.47.1.05.22.1.33.15m-21.92-6.33c6.05 5.35 13.18 10.33 21.28 14.88 19.55 11 44.17 19.26 71.47 24.83m-20.97-11.76c13.27 2.92 27.37 4.2 41.43 4.17 10.37 0 20.6-.73 30.25-1.97m-13.8-3.2c26.74-4.5 49.85-13.06 66.73-25.76 2.62-1.97 5.06-4.02 7.33-6.16m-15.22 14.3c2.84-1.62 5.57-3.3 8.2-5.1 10.7-7.27 19.3-15.78 25.12-24.9 5.85-9.13 8.78-18.67 8.68-28.03 0-.77-.04-1.54-.1-2.3m-1.73 20.34c2.24-6.08 3.13-12.4 2.7-18.78-.7-9.9-4.57-19.74-11.4-29.1-6.7-9.2-16.15-17.77-27.72-25.4m18.7 13.84c-5.77-5.23-12.74-9.9-20.7-13.8-14-6.9-30.84-11.32-48.82-12.33m20.75-.27c-18.46-4.87-38.56-7.18-57.84-6.6-11.62.36-22.8 1.75-33.13 4.2m96.82 146.4l69.3-54.7m-38.85-81.64l-118.7-14.94m153.87 47.85l-78.27-45.54m-116.3 11.13l-61.22 56.3m79.1 89.74l123.94-10.9" stroke-linecap="round" stroke-linejoin="round"/><g fill="#c83737" style="line-height:125%;-inkscape-font-specification:'Equity Caps A, Normal';text-align:start" font-size="45" font-family="Equity Caps A" letter-spacing="0" word-spacing="0"><path d="M166.6 21.3h2.16q.68 2.96 2.2 4.58 1.54 1.62 3.83 1.62 1.8 0 2.87-1 1.08-1.03 1.08-2.6 0-.72-.22-1.3-.18-.64-.72-1.18-.53-.58-1.52-1.12-.95-.6-2.48-1.26-3.33-1.44-5-3.06-1.66-1.62-1.66-4.05 0-1.13.5-2.3t1.44-2.1q.94-.96 2.3-1.54 1.4-.6 3.14-.6 1.53 0 2.52.4 1.04.37 1.8.68l1.62-.67h1.17l.8 7.07h-2.1q-.86-2.7-2.34-3.96-1.5-1.25-3.3-1.25-1.57 0-2.56.86-1 .86-1 2.48 0 1.44 1.27 2.43 1.3.96 4.24 2.08 2.97 1.17 4.54 2.84 1.58 1.62 1.58 4.32 0 1.75-.63 3.1-.6 1.3-1.67 2.2-1.08.86-2.56 1.3-1.44.46-3.1.46-1.18 0-2.44-.4-1.26-.36-2.1-.95l-1.95.68h-1.7V21.3z"/><path d="M205.98 26.9l2.6-4h1.94l-.94 6.22h-19.5v-1.7l3.25-.7V8.2l-3.24-.68v-1.7h18.3l.6 5.57h-1.9L204.76 8h-6.97v8.07h4.3l1.22-2.57h1.44v7.52h-1.44l-1.2-2.84h-4.33v8.73h8.18z"/><path d="M230.2 18.14q.94.4 1.7 1.53.82 1.12 1.63 2.47.8 1.3 1.66 2.6.85 1.27 1.88 2l2.03.67v1.72h-5.4q-1.34-.86-2.38-2.4-1-1.52-1.93-3.14-.96-1.62-2-2.97-.98-1.38-2.33-1.92h-1.35v8.05l3.2.68v1.72H216v-1.7l3.24-.7V8.2l-3.24-.68v-1.7h12.2q1 0 2.25.26 1.26.22 2.38.9 1.17.67 1.94 1.9.8 1.16.8 3.05 0 1.93-1.4 3.64-1.35 1.67-4 2.16v.4zm-6.48-1.58h2.47q1.25 0 2.1-.4.9-.45 1.5-1.08.58-.68.85-1.44.27-.8.27-1.58 0-2.1-1.04-2.97-1.03-.9-2.38-.9h-3.78v8.36z"/><path d="M255.3 5.8v1.72l-3.18.67v18.53l3.2.68v1.72h-10.9v-1.7l3.24-.7V8.2l-3.24-.68v-1.7h10.9z"/><path d="M280.53 5.8l.63 5.6h-1.94L276.84 8h-7.16v8.07h4.55l1.2-2.57h1.45v7.52h-1.44l-1.2-2.84h-4.56v8.55l3.38.68v1.72H262v-1.7l3.23-.7V8.2L262 7.5v-1.7h18.53z"/><path d="M287.45 21.3h2.16q.7 2.96 2.22 4.58 1.53 1.62 3.82 1.62 1.8 0 2.88-1 1.08-1.03 1.08-2.6 0-.72-.22-1.3-.18-.64-.72-1.18-.54-.58-1.53-1.12-.95-.6-2.48-1.26-3.33-1.44-5-3.06-1.66-1.62-1.66-4.05 0-1.13.5-2.3.48-1.17 1.43-2.1.94-.96 2.3-1.54 1.4-.6 3.14-.6 1.53 0 2.52.4 1.03.37 1.8.68l1.6-.67h1.18l.8 7.07h-2.1q-.86-2.7-2.34-3.96-1.5-1.25-3.3-1.25-1.56 0-2.55.86-1 .86-1 2.48 0 1.44 1.26 2.43 1.3.96 4.23 2.08 2.96 1.17 4.53 2.84 1.58 1.62 1.58 4.32 0 1.75-.62 3.1-.6 1.3-1.67 2.2-1.07.86-2.55 1.3-1.44.46-3.1.46-1.18 0-2.44-.4-1.25-.36-2.1-.95l-1.94.68h-1.7V21.3z"/></g></g></g></svg>
